<svg viewBox="0 0 1001 165" xmlns="http://www.w3.org/2000/svg" xml:space="preserve" style="fill-rule:evenodd;clip-rule:evenodd;stroke-linejoin:round;stroke-miterlimit:1.41421"><path d="M384.862 84.87c0-2.501-.418-4.536-1.253-6.102-.833-1.562-1.981-2.79-3.441-3.674-1.46-.888-3.26-1.489-5.397-1.8-2.139-.313-4.512-.469-7.12-.469-5.632 0-11.628 1.094-17.991 3.284-1.461-2.712-2.555-5.268-3.284-7.666-.73-2.398-1.097-5.266-1.097-8.605 4.59-1.564 9.178-2.711 13.768-3.441 4.588-.73 8.867-1.096 12.828-1.096 10.848 0 19.322 2.607 25.424 7.824 6.101 5.215 9.152 13.557 9.152 25.03v46.934c-3.651 1.147-8.084 2.243-13.299 3.286-5.213 1.043-11.107 1.565-17.678 1.565-5.319 0-10.196-.47-14.629-1.409-4.432-.938-8.24-2.504-11.418-4.694a22.09 22.09 0 0 1-7.356-8.447c-1.719-3.443-2.58-7.666-2.58-12.673 0-5.005 1.069-9.203 3.207-12.593 2.138-3.389 4.903-6.102 8.291-8.135 3.391-2.034 7.171-3.494 11.344-4.381a60.023 60.023 0 0 1 12.515-1.33c3.025 0 6.362.158 10.014.469V84.87Zm0 16.115a68.981 68.981 0 0 0-4.07-.548 37.178 37.178 0 0 0-3.91-.234c-5.111 0-9.153.911-12.126 2.737-2.972 1.825-4.458 4.772-4.458 8.839 0 2.713.574 4.797 1.721 6.259 1.147 1.459 2.53 2.528 4.146 3.205a17.001 17.001 0 0 0 5.162 1.253c1.827.155 3.417.236 4.771.236 1.566 0 3.131-.132 4.694-.393 1.566-.261 2.921-.494 4.07-.704v-20.65Zm36.4-26.91h-10.17l-.784-3.129 29.258-37.391h3.598v23.623h18.93c.311 1.566.521 2.973.627 4.224.102 1.253.154 2.556.154 3.913 0 1.459-.052 2.867-.154 4.223-.106 1.357-.316 2.869-.627 4.537h-18.93v31.76c0 3.232.262 5.839.784 7.822.519 1.979 1.276 3.545 2.266 4.693a7.48 7.48 0 0 0 3.677 2.346c1.46.419 3.183.627 5.162.627a27.11 27.11 0 0 0 4.617-.392 454.13 454.13 0 0 0 3.988-.703 30.551 30.551 0 0 1 1.565 6.179c.314 2.138.469 4.043.469 5.711 0 1.147-.025 2.111-.078 2.894a29.29 29.29 0 0 1-.235 2.268c-4.797 1.149-9.75 1.72-14.861 1.72-9.492 0-16.742-2.215-21.747-6.646-5.006-4.434-7.509-11.658-7.509-21.67V74.075Zm58.696 0H469.79l-.784-3.129 29.257-37.391h3.598v23.623h18.93c.312 1.566.522 2.973.627 4.224a48.21 48.21 0 0 1 .155 3.913c0 1.459-.053 2.867-.155 4.223-.105 1.357-.315 2.869-.627 4.537h-18.93v31.76c0 3.232.263 5.839.783 7.822.522 1.979 1.278 3.545 2.268 4.693a7.467 7.467 0 0 0 3.677 2.346c1.459.419 3.182.627 5.161.627a27.12 27.12 0 0 0 4.617-.392c1.512-.26 2.842-.495 3.989-.703a30.547 30.547 0 0 1 1.563 6.179c.315 2.138.471 4.043.471 5.711 0 1.147-.026 2.111-.079 2.894-.051.781-.129 1.54-.234 2.268-4.798 1.149-9.75 1.72-14.863 1.72-9.49 0-16.74-2.215-21.746-6.646-5.006-4.434-7.51-11.658-7.51-21.67V74.075ZM582.725 88.94c-.208-5.009-1.591-9.049-4.146-12.126-2.555-3.077-6.127-4.617-10.717-4.617-5.215 0-9.178 1.461-11.89 4.381-2.711 2.921-4.327 7.041-4.848 12.362h31.601Zm-31.759 15.486c.418 6.258 2.608 10.795 6.571 13.612 3.963 2.816 9.178 4.224 15.646 4.224 3.546 0 7.168-.34 10.872-1.019a61.621 61.621 0 0 0 10.561-2.893c1.147 2.086 2.137 4.589 2.972 7.51.834 2.918 1.303 6.049 1.408 9.386-8.136 3.129-17.315 4.694-27.537 4.694-7.508 0-13.947-1.043-19.321-3.13-5.37-2.085-9.751-4.981-13.14-8.681-3.39-3.703-5.894-8.11-7.51-13.222-1.616-5.11-2.423-10.689-2.423-16.737 0-5.946.833-11.526 2.502-16.741 1.667-5.217 4.145-9.752 7.431-13.61 3.285-3.861 7.352-6.911 12.203-9.154 4.85-2.242 10.508-3.364 16.974-3.364 5.632 0 10.639.991 15.019 2.973 4.381 1.981 8.109 4.694 11.186 8.137 3.077 3.439 5.399 7.535 6.963 12.28 1.565 4.745 2.347 9.831 2.347 15.253a72.29 72.29 0 0 1-.235 5.867c-.156 1.928-.341 3.468-.547 4.615h-51.942Zm61.208-47.248a52.267 52.267 0 0 1 4.458-.702 41.348 41.348 0 0 1 4.616-.236c1.565 0 3.104.106 4.614.312 1.514.209 3 .471 4.458.784.315.522.602 1.277.862 2.268.261.991.495 2.034.704 3.13.209 1.095.39 2.188.547 3.285l.392 2.739c2.294-3.235 5.112-6.13 8.448-8.684 3.338-2.556 7.51-3.834 12.515-3.834 1.045 0 2.244.052 3.599.157 1.355.104 2.346.26 2.972.47.209 1.041.366 2.241.469 3.597.107 1.356.158 2.764.158 4.225 0 1.773-.08 3.702-.235 5.788a41.78 41.78 0 0 1-.862 5.945c-1.147-.21-2.424-.313-3.831-.313h-2.581c-1.775 0-3.755.183-5.947.547-2.189.366-4.275 1.33-6.257 2.896-1.983 1.564-3.624 3.911-4.929 7.041-1.303 3.127-1.957 7.508-1.957 13.141v38.486a51.93 51.93 0 0 1-5.631.624 97.988 97.988 0 0 1-5.475.156c-1.774 0-3.572-.051-5.398-.156a58.228 58.228 0 0 1-5.709-.624V57.178Zm59.226 0a42.591 42.591 0 0 1 4.379-.702c1.461-.159 3.077-.236 4.851-.236 1.773 0 3.337.077 4.693.236 1.356.155 2.764.391 4.224.702.312.522.601 1.279.861 2.27.26.99.496 2.035.704 3.128a83.3 83.3 0 0 1 .547 3.207c.159 1.043.288 1.93.392 2.66.832-1.563 1.929-3.128 3.286-4.694 1.355-1.562 2.971-2.969 4.848-4.223 1.877-1.252 3.989-2.269 6.337-3.05 2.346-.784 4.981-1.175 7.901-1.175 12.619 0 20.702 4.799 24.249 14.395 2.085-3.86 5.032-7.222 8.838-10.092 3.808-2.869 8.632-4.303 14.474-4.303 9.177 0 15.93 2.532 20.258 7.59 4.33 5.057 6.494 12.958 6.494 23.702v51.47a67.465 67.465 0 0 1-11.108.937c-3.651 0-7.354-.311-11.108-.937V92.379c0-5.632-.705-9.959-2.114-12.983-1.406-3.025-4.248-4.538-8.524-4.538-1.775 0-3.52.262-5.24.782-1.723.52-3.287 1.485-4.694 2.894-1.408 1.408-2.555 3.391-3.443 5.946-.887 2.553-1.33 5.867-1.33 9.934v43.649a67.465 67.465 0 0 1-11.108.937c-3.65 0-7.354-.311-11.109-.937V92.379c0-5.632-.703-9.959-2.112-12.983-1.408-3.025-4.249-4.538-8.525-4.538-1.771 0-3.546.262-5.32.782-1.771.52-3.363 1.538-4.771 3.051-1.409 1.511-2.53 3.623-3.363 6.336-.835 2.711-1.253 6.258-1.253 10.638v42.398a67.435 67.435 0 0 1-11.107.937c-3.651 0-7.352-.311-11.107-.937V57.178Zm162.58 65.865c5.841 0 10.039-2.163 12.593-6.493 2.556-4.327 3.834-10.56 3.834-18.694 0-8.136-1.278-14.367-3.834-18.696-2.554-4.33-6.752-6.493-12.593-6.493-5.736 0-9.882 2.163-12.437 6.493-2.557 4.329-3.835 10.56-3.835 18.696 0 8.134 1.278 14.367 3.835 18.694 2.555 4.33 6.701 6.493 12.437 6.493Zm0 16.897c-6.571 0-12.282-1.07-17.131-3.208-4.85-2.137-8.866-5.11-12.047-8.918-3.181-3.807-5.58-8.265-7.195-13.376-1.618-5.111-2.426-10.637-2.426-16.582s.808-11.526 2.426-16.74c1.615-5.215 4.014-9.726 7.195-13.533 3.181-3.808 7.197-6.803 12.047-8.996 4.849-2.19 10.56-3.286 17.131-3.286s12.306 1.096 17.209 3.286c4.901 2.193 8.968 5.188 12.204 8.996 3.233 3.807 5.631 8.318 7.197 13.533 1.564 5.214 2.345 10.795 2.345 16.74 0 5.945-.781 11.471-2.345 16.582-1.566 5.111-3.964 9.569-7.197 13.376-3.236 3.808-7.303 6.781-12.204 8.918-4.903 2.138-10.638 3.208-17.209 3.208Zm67.477-37.078c-5.842-1.67-10.405-4.146-13.689-7.432-3.286-3.284-4.929-8.213-4.929-14.785 0-7.927 2.843-14.13 8.528-18.615 5.683-4.486 13.429-6.729 23.232-6.729 4.068 0 8.082.366 12.046 1.096 3.964.73 7.979 1.824 12.046 3.286-.209 2.71-.73 5.526-1.566 8.448-.832 2.919-1.823 5.474-2.97 7.667-2.504-1.044-5.267-1.957-8.293-2.74-3.023-.781-6.205-1.172-9.542-1.172-3.547 0-6.309.547-8.293 1.642-1.981 1.096-2.972 2.843-2.972 5.24 0 2.295.704 3.912 2.112 4.851 1.408.938 3.417 1.827 6.023 2.659l8.918 2.662c2.921.833 5.554 1.849 7.901 3.049 2.346 1.2 4.355 2.686 6.023 4.458 1.669 1.773 2.972 3.964 3.91 6.571.94 2.608 1.41 5.788 1.41 9.542 0 3.861-.809 7.459-2.426 10.796-1.616 3.338-3.964 6.232-7.04 8.682-3.077 2.453-6.806 4.382-11.187 5.789-4.379 1.409-9.334 2.113-14.862 2.113-2.504 0-4.796-.079-6.882-.235a54.817 54.817 0 0 1-6.024-.782 70.01 70.01 0 0 1-5.71-1.33c-1.878-.521-3.912-1.199-6.102-2.034.21-2.817.705-5.659 1.486-8.526a53.687 53.687 0 0 1 3.051-8.371c3.442 1.357 6.702 2.373 9.779 3.051 3.077.679 6.284 1.019 9.62 1.019 1.462 0 3.052-.132 4.771-.393 1.722-.261 3.313-.73 4.773-1.408 1.461-.678 2.687-1.565 3.677-2.659.991-1.095 1.484-2.529 1.484-4.304 0-2.501-.755-4.301-2.267-5.396-1.513-1.094-3.625-2.062-6.335-2.895l-9.701-2.815Zm54.112-28.787h-10.167l-.785-3.129 29.256-37.391h3.598v23.623h18.931c.313 1.566.521 2.973.627 4.224a47.75 47.75 0 0 1 .156 3.913c0 1.459-.053 2.867-.156 4.223a42.937 42.937 0 0 1-.627 4.537h-18.931v31.76c0 3.232.263 5.839.783 7.822.523 1.979 1.278 3.545 2.268 4.693a7.484 7.484 0 0 0 3.677 2.346c1.459.419 3.183.627 5.163.627 1.565 0 3.102-.131 4.616-.392a454.13 454.13 0 0 0 3.988-.703 30.417 30.417 0 0 1 1.564 6.179c.315 2.138.47 4.043.47 5.711 0 1.147-.026 2.111-.078 2.894a29.29 29.29 0 0 1-.235 2.268c-4.796 1.149-9.75 1.72-14.861 1.72-9.492 0-16.741-2.215-21.748-6.646-5.005-4.434-7.509-11.658-7.509-21.67V74.075ZM218.068 32.413c4.521-.629 8.87-.945 13.05-.945 4.407 0 8.758.316 13.051.945l27.965 58.043 28.812-58.043c3.503-.629 7.399-.945 11.694-.945 4.294 0 8.416.316 12.372.945l5.762 106.583c-4.292.63-8.36.944-12.201.944-3.844 0-7.627-.314-11.355-.944l-3.052-77.061-24.745 53.261c-1.583.21-3.22.396-4.916.551a54.72 54.72 0 0 1-5.084.236c-1.47 0-2.937-.052-4.405-.157a37.171 37.171 0 0 1-4.577-.63L237.39 60.831l-2.373 78.165c-3.615.63-7.118.944-10.509.944-3.616 0-7.346-.314-11.185-.944l4.745-106.583ZM130.41 15.678l.865 17.434c14.134 15.615 19.713 37.729 12.677 58.513-10.503 31.025-45.136 47.334-77.354 36.427-32.219-10.906-49.823-44.899-39.32-75.924 7.059-20.853 25.019-35.058 45.82-38.819L84.337.03C49.274-.919 16.194 20.845 4.358 55.808c-14.542 42.958 8.493 89.571 51.451 104.114 42.958 14.542 89.572-8.494 104.115-51.452 11.816-34.906-1.179-72.227-29.514-92.792Z" style="fill:#222"/><path d="m110.273 67.122-.595-24.373-.477-14.025-.323-12.15s.067-5.859-.137-7.236a2.229 2.229 0 0 0-.243-.731l-.041-.086-.047-.075a1.898 1.898 0 0 0-1.035-.856 1.906 1.906 0 0 0-1.371.062l-.026.01-.145.074a2.262 2.262 0 0 0-.6.415c-.999.969-4.504 5.664-4.504 5.664l-7.638 9.456-8.898 10.851-15.278 18.999s-7.011 8.75-5.462 19.521c1.55 10.77 9.557 16.017 15.769 18.12 6.211 2.103 15.759 2.799 23.533-4.816 7.773-7.615 7.518-18.824 7.518-18.824Z" style="fill:#222"/></svg>