<svg width="218" height="121" fill="none" xmlns="http://www.w3.org/2000/svg"><path d="M19.5 51.742s-4-1.125-5.395.642a3.332 3.332 0 0 0 0 4.227c-.755.23-1.39.742-1.775 1.429-.635 1.14-.635 3.809 2.29 5.9 0 0-1.66.996-.8 3.41.86 2.415 8.5 9.196 12.33 11.82 3.83 2.624 6.311 3.774 8.551 4.287 2.24.513 3.725 1.369 5.046 1.942 1.32.572 3.04.741 5.22 0 2.18-.742 5.335-1.599 6.825-7.653 1.49-6.054-7.165-23.47-7.165-23.47s-1.32-2.49-4.36 0S19.5 51.742 19.5 51.742Z" fill="#A37200"/><path d="m41.416 37.98-.845.842a1.914 1.914 0 0 0-.475 1.912l2.435 7.902a.164.164 0 0 0 .163.135.166.166 0 0 0 .162-.135c.45-3.504.178-7.061-.8-10.456a.382.382 0 0 0-.261-.286.386.386 0 0 0-.379.087Zm5.051 4.168s-.5-.707-1.07-.14c-.4.399-.12 2.46.08 3.64a.214.214 0 0 0 .33.14.214.214 0 0 0 .085-.11c.36-1.145.925-3.147.575-3.53Zm5.95-5.945-.38-.08a1.003 1.003 0 0 0-1.16.767l-2.42 11.665a.129.129 0 0 0 .085.14.13.13 0 0 0 .154-.055l5.616-10.52a.992.992 0 0 0-.41-1.325l-.34-.184a4.243 4.243 0 0 0-1.145-.408Zm8.475 8.772.11 1.185a1.904 1.904 0 0 1-.86 1.773l-6.935 4.536a.166.166 0 0 1-.213-.014.164.164 0 0 1-.022-.21 26 26 0 0 1 7.33-7.563.385.385 0 0 1 .59.293Zm-6.554-.005s.83-.224.91.573c.055.563-1.5 1.992-2.395 2.753a.216.216 0 0 1-.349-.103.214.214 0 0 1 .009-.14c.46-1.11 1.31-3.008 1.825-3.083Z" fill="#3F4350"/><path d="m18.81 57.757-1.78 2.11.344 1.37 3.9 5.476 4.706 5.537 5.68 5.029 5.466 3.151 3.845 1.827 4.13.628 3.96-1.2s3.61-2.57 3.84-2.624c.23-.055 2-2.345 2-2.345l.5-2.17a46.114 46.114 0 0 0-.974-5.766c-.69-2.803-1.5-4.8-1.895-7.598s-.915-4.57-1.315-5.198c-.4-.627-1.726-3.6-1.726-3.6l-.11-1.887a.901.901 0 0 0-.935-.687c-.695.055-2.04.254-2.565.916a18.176 18.176 0 0 0-1.78 3.257l-.575 2.489s-6.31-5.825-8.716-8.34c-2.405-2.514-4.305-4.978-5.5-4.68a30.56 30.56 0 0 0-3.685 1.424 1.9 1.9 0 0 0-.245 1.37l.635 1.324s-1.435-1.295-2.2-2.056a3.182 3.182 0 0 0-1.875-.822l-3.616 1.922.25 1.847v1.524l-2 2.17v1.753l.73 1.678 1.335 1.409.17.762Z" fill="#FFBC1F"/><path d="M43.076 56.073s.58-4.874 3.69-5.92c0 0-5.07 4.098 2.276 12.134l-5.966-6.214Zm-14.371-12.77s-1.175-.688-2.125-.23a2.943 2.943 0 0 0-1.75 2.201c-.085.911-.2 1.34.32 2.026.52.688 3.67 4.058 4.33 4.855.66.797 3.04 3.131 3.87 4.063.83.93 2 2.165 2.465 2.618.466.453.72.573 1 .498.28-.074.4-.343.376-.886-.025-.543-.3-.742-.886-1.255-.584-.512-3.79-2.857-4.65-3.983a49.416 49.416 0 0 0-3.36-3.853c-1.115-1.145-2.435-2.49-2.55-3.057-.115-.568-.685-2.938 2.96-2.997Z" fill="#CC8F00"/><path d="M21.45 44.13a3.01 3.01 0 0 0-2.066 1.06c-.86 1.026-.89 1.882-.72 2.49.17.607 1.32 2.115 2.18 2.987.86.871 3.266 3.286 3.91 4.028.646.742 3.031 3.166 3.606 3.684.575.518 1.935 1.424 2.615 1.912a10.714 10.714 0 0 1 1.83 1.742c.5.573.715 1.23.23 1.285-.485.055-1.19-.249-2.06-1.036-.87-.786-4.825-5.108-5.85-6.183-1.025-1.076-3.67-3.859-4.19-4.481-.52-.623-1.72-1.992-2.12-2.201-.4-.21-1.15.11-1.55.712a3.59 3.59 0 0 0-.46 2.858 11.84 11.84 0 0 0 2.5 4.142c.89.857 5.68 5.572 6.57 6.338.89.767 2.5 2.171 3.24 2.858.74.687 1.105 1.17 1.07 1.598a.664.664 0 0 1-.534.665.674.674 0 0 1-.306-.007c-.46-.145-1.175-1.086-1.865-1.992-.69-.906-5.25-5.601-6-6.512-.75-.911-2.195-2.818-2.806-2.823a1.875 1.875 0 0 0-1.585 1.08c-.2.573.145 2.2.835 3.172.69.97 4.28 5.745 5 6.547.72.801 6.501 6.701 8.296 8.07a41.591 41.591 0 0 0 7.116 4.173c1.5.572 4.875 1.882 8.26 1.085 3.386-.796 6.88-2.285 8.776-6.856 0 0 .055 7.468-9.58 9.141-4.646.742-6.541-.97-7.746-1.827a38.594 38.594 0 0 0-4.47-2.858 38.794 38.794 0 0 1-9.501-7.966c-2.84-3.455-6.7-8.394-7.546-10.455-.845-2.062.155-3.42 1.075-3.884 0 0-3-2.639-1.685-5.581.92-1.992 2.37-2.26 2.37-2.26s-1.105-2.44.345-3.889c1.45-1.449 2.816-.816 2.816-.816Z" fill="#CC8F00"/><path d="M18.56 45.877a.877.877 0 0 0 .145.866c.175.224.41.527.62.841a4.714 4.714 0 0 0 1.75 1.494 2.325 2.325 0 0 0 2.18-.498 2.02 2.02 0 0 0 .5-2.146 6.603 6.603 0 0 0-1.72-2.14c-.545-.459-1.66-.085-2.065.174a3.24 3.24 0 0 0-1.41 1.408Zm10.146-2.574c.6.402 1.175.84 1.72 1.314a1.572 1.572 0 0 1 .376 1.628c-.26.628-.5 1.628-2.096 1.23a5.286 5.286 0 0 1-2.84-1.658c-.5-.543-.26-1.37.23-2.056a2.042 2.042 0 0 1 2.61-.458Zm22.252 12.203c.13.24-1.576-.911-2.34-2.738-.766-1.827-.5-2.56.334-2.614.835-.055.965.787 1.045 1.434.21 1.33.532 2.64.96 3.918ZM19.02 49.318c.06.034 1 1.26 1.245 1.558.388.453.604 1.028.61 1.623 0 .742-.46 1.678-1.15 1.752a2.575 2.575 0 0 1-2.405-.856c-.75-.896-1.035-1.459-.75-2.25.285-.792 1.375-2.355 2.45-1.828Zm-.055 7.906a1.506 1.506 0 0 0-1.375.214c-.69.498-1.03 1.03-1 1.429.11.445.29.87.535 1.26a1.925 1.925 0 0 0 1.175 1.155 1.797 1.797 0 0 0 1.805-.498 1.56 1.56 0 0 0 .545-1.245c-.025-.538-.95-2.111-1.685-2.315Z" fill="#FFD470"/><path d="m150.266 84.234 7.761-2.807-5.866-2.828-1.895 5.635Z" fill="#CC8F00"/><path d="m172.908 61.13-11.035-11.48-1.781 5.303 12.816 6.176Z" fill="#FFBC1F"/><path d="m160.092 54.954-1.983 5.911 24.336 11.727 1.1-.395-10.637-11.067-12.816-6.176Z" fill="#CC8F00"/><path d="m156.127 66.77 18.181 8.769 8.137-2.947-24.335-11.727-1.983 5.906Z" fill="#FFBC1F"/><path d="m154.145 72.687 12.026 5.793 8.137-2.941-18.181-8.769-1.982 5.917Z" fill="#CC8F00"/><path d="m154.143 72.688-1.983 5.91 5.866 2.83 8.143-2.948-12.026-5.793Z" fill="#FFBC1F"/><path d="M177.395 56.25c6.127 6.233 9.259 13.124 7.081 15.39-2.179 2.265-8.998-.953-15.12-7.19-6.122-6.239-9.259-13.125-7.081-15.385 2.179-2.26 8.998.947 15.12 7.185Z" fill="#7A5600"/><path d="M169.782 40.546c-1.482-2.125.125-3.077 2.097-2.694-1.874-2.384-.719-4.035 2.233-3.381.92.203-.365 1.815-1.187 1.753 2.478 1.921 1.089 3.944-1.509 3.476 2.32 3.302-1.672 2.485-3.415 2.626-.458 2.468 2.271 5.286 1.362 5.286-2.032-.006-5.273-7.799.419-7.066Z" fill="#5D89EA"/><path d="M188.889 45.11c-1.346.626-5.18-5.584-.48-5.635-2.696-2.541-2.353-3.764 1.275-3.843-4.156-4.305 2.407-5.86 3.099-3.556.207.688-2.01-.608-2.723.632-.834 1.425 5.108 5.032-1.024 4.818 2.254 2.377 2.391 3.482-1.204 3.882.463.67 1.906 3.302 1.057 3.702Z" fill="#CC8F00"/><path d="m190.412 59.761 1.378-1.211c.645.976 1.39 1.877 2.222 2.688.703-3.342.512-5.376 4.281-3.055-2.129-5.82 1.384-3.623 4.701-2.045-.196-1.477 0-1.319 1.465-1.741 1.274 4.947-2.152 3.516-4.946 1.893 1.596 4.463-.076 4.254-3.573 2.733-.054 1.893-.653 4.035-1.753 4.22-1.248.203-3.775-3.482-3.775-3.482Z" fill="#C43133"/><path d="M180.232 45.78c-1.677 2.254-4.232 3.517-6.165 5.489-2.016 2.057-3.219 7.709-3.219 7.709s.719-5.895 2.647-8.166c1.743-2.05 4.232-3.544 5.582-5.933 2.413-4.266.262-9.98-2.821-13.242.648-.598 1.509-1.353 2.026-1.871 2.898 3.843 5.474 11.275 1.95 16.014Z" fill="#3C64B9"/><path d="M183.032 50.599c-2.396 1.78-4.046 4.372-5.719 6.84-1.481 2.181-6.094 4.858-6.094 4.858s4.357-3.06 5.686-5.353c1.634-2.818 3.268-5.737 5.79-7.777 5.087-4.08 12.418-3.623 18.175-1.476-.332.862-1.007 2.643-1.007 2.643s-11.994-3.342-16.831.264Z" fill="#CC8F00"/><path d="M193.152 50.182c-1.525 2.096-2.309 4.626-3.48 6.925-1.09 2.141-2.527 4.215-4.657 5.353-2.315 1.24-7.56.818-7.56.818s5.218-.068 7.358-1.561c2.141-1.494 3.339-4.103 4.194-6.593 1.602-4.655 3.611-9.743 8.345-11.834l.953 2.66s-2.609.721-5.153 4.232Zm-39.193-12.48-2.568 2.658 2.569 2.658 2.568-2.659-2.569-2.657Z" fill="#5D89EA"/><path d="m157.541 46.099-2.568 2.658 2.569 2.657 2.568-2.658-2.569-2.657Z" fill="#CC8F00"/><path d="m164.033 33.463-2.568 2.658 2.569 2.657 2.569-2.658-2.57-2.657Z" fill="#C43133"/><path d="m192.036 65.291-2.569 2.658 2.569 2.658 2.569-2.658-2.569-2.657Z" fill="#3C64B9"/><path d="m186.262 74.339-2.569 2.658 2.57 2.657 2.568-2.658-2.569-2.657Z" fill="#C43133"/><path d="m197.573 76.501-2.569 2.658 2.569 2.658 2.569-2.658-2.569-2.658Z" fill="#CC8F00"/><path d="m200.143 64.394-2.569 2.658 2.569 2.657 2.569-2.657-2.569-2.658Zm-4.24-27.999-2.569 2.658 2.568 2.658 2.57-2.657-2.569-2.659Z" fill="#5D89EA"/><path d="m168.266 52.248-2.569 2.658 2.57 2.657 2.568-2.658-2.569-2.657Z" fill="#DA6C6E"/><path d="M80.445 60.263a4.634 4.634 0 0 1-2.123-.5c-1.785-.896-3.916-3.383-3.916-9.954 0-13.794-7.282-21.668-7.358-21.744L65.83 26.77l6.479-7.122 1.108 1.692c.135.203 3.518 5.074 8.93 3.67l.745 3.527c-5.32 1.421-9.168-1.556-10.995-3.518l-1.691 1.818c2.292 3.037 7.222 10.995 7.222 22.996 0 3.586.736 6.005 2.013 6.656.973.483 2.42-.05 3.772-1.387 3.536-3.518 6.14-12.288 6.166-12.373l3.07 1.133c-.11.398-2.892 9.786-7.096 13.947a7.468 7.468 0 0 1-5.108 2.453Zm52.8 0a4.6 4.6 0 0 0 2.114-.5c1.793-.896 3.924-3.383 3.924-9.954 0-13.794 7.274-21.668 7.35-21.744l1.218-1.294-6.47-7.122-1.108 1.692c-.144.203-3.527 5.074-8.931 3.67l-.753 3.519c5.328 1.43 9.176-1.556 10.995-3.51l1.649 1.818c-2.292 3.037-7.223 10.995-7.223 22.996 0 3.578-.736 6.005-2.013 6.648-.972.49-2.41 0-3.763-1.387-3.51-3.535-6.14-12.306-6.14-12.416l-3.071 1.125c.119.398 2.901 9.785 7.096 13.955a7.522 7.522 0 0 0 5.126 2.504Zm-22.234-9.27h-8.339v33.458h8.339V50.993Z" fill="#CC8F00"/><path d="M109.301 50.993h-4.922v33.458h4.922V50.993Z" fill="#FFBC1F"/><path d="M79.27 19.65c2.35 21.025 13.81 37.89 27.58 37.89 13.768 0 25.228-16.865 27.58-37.89H79.27Z" fill="#CC8F00"/><path d="M84.58 19.65c1.903 21.27 11.147 38.329 22.26 38.329 11.114 0 20.366-17.059 22.261-38.33h-44.52Z" fill="#FFBC1F"/><path d="M128.229 90.735H85.451s9.574-12.348 21.389-12.348 21.389 12.348 21.389 12.348Z" fill="#CC8F00"/><path d="M123.071 90.735h-32.46s7.265-12.534 16.23-12.534 16.23 12.534 16.23 12.534Z" fill="#FFBC1F"/><path d="M134.437 93.467H79.252v8.204h55.185v-8.204Z" fill="#A37200"/><path d="M128.238 90.735H85.451v2.732h42.787v-2.732Z" fill="#6F370B"/><path d="M120.517 95.522H93.174v4.102h27.343v-4.102Zm-38.533-2.055h-2.732v8.204h2.732v-8.204Z" fill="#CC8F00"/><path d="M134.429 93.467h-2.732v8.204h2.732v-8.204Z" fill="#6F370B"/><path d="M119.138 95.522H94.535v4.102h24.603v-4.102Z" fill="#FFBC1F"/></svg>