<svg width="32" height="40" fill="none" xmlns="http://www.w3.org/2000/svg"><path d="m1.595 10.357 8.898-8.78A2 2 0 0 1 11.898 1H28a3 3 0 0 1 3 3v32a3 3 0 0 1-3 3H4a3 3 0 0 1-3-3V11.78a2 2 0 0 1 .595-1.423Z" stroke="#338AFF" stroke-width="2"/><path d="M11 2v9a1 1 0 0 1-1 1H2m21.59 20H8.49a.25.25 0 0 1-.203-.397l4.141-5.72a.25.25 0 0 1 .345-.06l2.021 1.397a.08.08 0 0 0 .11-.018l3.713-4.886a.25.25 0 0 1 .421.037l4.775 9.283a.25.25 0 0 1-.223.364Z" stroke="#338AFF" stroke-width="2"/><circle cx="11" cy="21" r="2" stroke="#338AFF" stroke-width="2"/></svg>