<svg width="32" height="40" fill="none" xmlns="http://www.w3.org/2000/svg"><path d="m1.595 10.357 8.898-8.78A2 2 0 0 1 11.898 1H28a3 3 0 0 1 3 3v32a3 3 0 0 1-3 3H4a3 3 0 0 1-3-3V11.78a2 2 0 0 1 .595-1.423Z" stroke="#999" stroke-width="2"/><path d="M11 2v9a1 1 0 0 1-1 1H2" stroke="#999" stroke-width="2"/><rect x="8.5" y="18.5" width="15" height="1" rx=".5" stroke="#999"/><rect x="8.5" y="26.5" width="15" height="1" rx=".5" stroke="#999"/><rect x="8.5" y="22.5" width="15" height="1" rx=".5" stroke="#999"/><rect x="8.5" y="30.5" width="11" height="1" rx=".5" stroke="#999"/></svg>