<svg width="32" height="40" fill="none" xmlns="http://www.w3.org/2000/svg"><path d="m1.595 10.357 8.898-8.78A2 2 0 0 1 11.898 1H28a3 3 0 0 1 3 3v32a3 3 0 0 1-3 3H4a3 3 0 0 1-3-3V11.78a2 2 0 0 1 .595-1.423Z" stroke="#338AFF" stroke-width="2"/><path d="M11 2v9a1 1 0 0 1-1 1H2" stroke="#338AFF" stroke-width="2"/><path fill-rule="evenodd" clip-rule="evenodd" d="m19 17.828 4.243 4.243-2.829 2.828-4.242-4.242L19 17.828ZM11.929 24.9 9.1 27.727l4.242 4.243 2.829-2.829-4.243-4.242Zm5.657-8.486a2 2 0 0 1 2.828 0l4.243 4.243a2 2 0 0 1 0 2.828l-9.9 9.9a2 2 0 0 1-2.828 0l-4.243-4.243a2 2 0 0 1 0-2.828l9.9-9.9Zm-2.298 7.248a1 1 0 1 0 1.414-1.414 1 1 0 0 0-1.414 1.414Zm-.354 1.768a1 1 0 1 1-1.414-1.415 1 1 0 0 1 1.414 1.415Zm2.475.353a1 1 0 1 0 1.414-1.414 1 1 0 0 0-1.414 1.414Zm-.354 1.768a1 1 0 1 1-1.414-1.414 1 1 0 0 1 1.414 1.414Z" fill="#338AFF"/></svg>