<svg width="16" height="16" fill="none" xmlns="http://www.w3.org/2000/svg"><path d="M8 .494A7.331 7.331 0 0 0 4.22 1.52a7.657 7.657 0 0 0-2.7 2.7A7.331 7.331 0 0 0 .494 8c0 1.356.342 2.616 1.026 3.78a7.657 7.657 0 0 0 2.7 2.7A7.331 7.331 0 0 0 8 15.506a7.331 7.331 0 0 0 3.78-1.026 7.657 7.657 0 0 0 2.7-2.7A7.331 7.331 0 0 0 15.506 8a7.331 7.331 0 0 0-1.026-3.78 7.657 7.657 0 0 0-2.7-2.7A7.331 7.331 0 0 0 8 .494Zm0 13.5a5.851 5.851 0 0 1-3.024-.828 5.913 5.913 0 0 1-2.142-2.142A5.851 5.851 0 0 1 2.006 8c0-1.08.276-2.088.828-3.024a5.913 5.913 0 0 1 2.142-2.142A5.851 5.851 0 0 1 8 2.006c1.08 0 2.088.276 3.024.828a5.913 5.913 0 0 1 2.142 2.142c.552.936.828 1.944.828 3.024s-.276 2.088-.828 3.024a5.913 5.913 0 0 1-2.142 2.142A5.851 5.851 0 0 1 8 13.994Zm.378-5.238h-.756l-.378-4.5h1.512l-.378 4.5Zm.378 2.25a.685.685 0 0 1-.234.522.711.711 0 0 1-.522.216.772.772 0 0 1-.54-.216.711.711 0 0 1-.216-.522c0-.204.072-.378.216-.522A.742.742 0 0 1 8 10.25c.204 0 .378.078.522.234a.685.685 0 0 1 .234.522Z" fill="#579EFF"/></svg>