<svg xmlns="http://www.w3.org/2000/svg"><defs><font id="compass-icons" horiz-adv-x="1000"><font-face font-family="compass-icons" font-weight="400" ascent="850" descent="-150"/><glyph glyph-name="mattermost" unicode="" d="m745 687 4-88c72-79 100-192 65-297-54-157-229-240-393-185-163 55-253 228-199 385 36 106 127 178 232 197l57 68c-178 4-345-106-405-283C32 266 149 29 367-45S821-2 895 217c60 177-6 366-150 470zM643 426l-3 124-3 71-1 62s0 29-1 36c0 2-1 3-1 4l-1 1c-1 2-3 3-5 4s-5 1-7 0l-1-1c-1 0-2-1-3-2-5-5-23-28-23-28l-38-48-46-55-77-97s-36-44-28-99c8-54 49-81 80-92 32-10 80-14 120 25 39 38 38 95 38 95z" horiz-adv-x="1000"/><glyph glyph-name="gfycat" unicode="" d="M300 83h-58c-17 0-29 5-42 17-12 13-17 25-17 42s5 29 17 41c13 13 25 17 42 17h54c17 0 29 4 42 17 12 12 16 25 16 37v117c0 17-4 29-16 42-13 8-25 16-38 16-17 0-29-4-42-16-12-13-16-25-16-42 0-13 4-25 12-38 9-12 13-25 13-37 0-17-4-29-17-42s-25-16-42-16c-25 0-45 16-62 50-17 29-21 54-21 83 0 46 17 87 50 121 38 33 75 50 121 50s87-17 121-50 50-75 50-121V254c0-46-17-87-50-121-34-33-71-50-117-50zm617 271c0-12-4-25-17-37-8-9-21-17-37-17h-71v-50c0-12-4-25-17-37-8-9-21-17-37-17-13 0-25 4-38 17-8 8-17 20-17 37v208c0 42 17 80 46 113 29 29 67 46 109 46h20c13 0 25-4 38-17 17-12 21-25 21-37s-4-25-17-38c-8-8-21-17-37-17h-21c-13 0-25-4-38-16-8-9-16-21-16-38v-54h70c13 0 25-4 38-17 17-4 21-16 21-29zM638 250c0-12-5-25-17-37-8-9-21-17-38-17-12 0-25 4-37 17-8 8-17 20-17 37v171c0 12 4 25 17 37 8 9 21 17 37 17 13 0 25-4 38-17 8-8 17-20 17-37V250zM96 479c-8 34-13 63-13 63 0 8 5 16 13 12 0 0 8 0 17-4 12 0 25-4 37-8 25-4 46-13 46-13s-25-16-46-37c-21-25-33-59-33-59s-13 17-21 46zm408 0c9 29 13 63 13 63 0 8-4 12-13 12 0 0-29-4-54-12-21-4-46-13-46-13s25-16 46-37c21-25 33-59 33-59s13 17 21 46zm134 84c0-13-5-25-17-38-8-8-21-17-38-17-12 0-25 5-37 17-8 8-17 21-17 38 0 12 4 25 17 37 8 8 21 17 37 17 13 0 25-4 38-17s17-21 17-37z" horiz-adv-x="1000"/><glyph glyph-name="globe" unicode="" d="M500 767C271 767 83 579 83 350S271-67 500-67s417 188 417 417-188 417-417 417zm333-438c-12-16-70-50-166-66v141c50 9 100 21 137 38 4 4 13 4 17 8 8-29 12-67 12-100v-21zM438 167c20 0 41-4 62-4s42 0 63 4c-21-84-46-134-63-146-17 12-46 62-62 146zm62 79c-29 0-54 0-79 4 0 29-4 63-4 100v46c29-4 54-4 83-4s54 0 83 4v-46c0-37-4-71-4-100-25-4-50-4-79-4zm75 233c-25-4-50-4-75-4s-50 0-75 4c17 117 54 188 75 204 21-16 58-87 75-204zm208 46c-29-12-70-29-125-37-8 66-25 129-45 175 70-25 129-71 170-138zm-566 0c41 63 100 113 175 138-21-46-38-105-50-175-54 12-96 25-125 37zm-34-75c5-4 9-4 17-8 38-17 83-29 138-38-5-16-5-33-5-54 0-29 0-58 5-87-96 16-155 50-167 66v21c-4 33 0 71 12 100zm13-233c42-17 96-34 154-42 8-54 25-100 42-137-88 29-159 95-196 179zm608 0C767 133 696 67 608 38c17 37 34 83 42 137 58 8 113 21 154 42z" horiz-adv-x="1000"/><glyph glyph-name="iframe-list-outline" unicode="" d="M833 725H167c-46 0-84-37-84-83V58c0-45 38-83 84-83h666c46 0 84 38 84 83v584c0 46-38 83-84 83m0-667H167v500h666V58zM417 350v83h333v-83H417m-167 83h83v-83h-83v83m167-250v84h333v-84H417m-167 84h83v-84h-83v84" horiz-adv-x="1000"/><glyph glyph-name="oauth" unicode="" d="M500 17c-183 0-333 150-333 333s150 333 333 333 333-150 333-333S683 17 500 17m0 750C271 767 83 579 83 350S271-67 500-67s417 188 417 417-188 417-417 417zm0-125c-162 0-292-129-292-292S338 58 500 58s292 130 292 292-129 292-292 292zm117-459h-13c-16 0-33 13-37 25l-21 59h-96l-17-59c-4-12-20-25-37-25h-13c-20 5-33 30-25 50l80 255c8 16 20 29 37 29h54c9-4 17-9 21-13s4-8 4-12l84-254c8-25 0-46-21-55zM292 350c0 71 37 138 96 175-5-4-5-12-9-17l-75-233c-8 25-12 50-12 75zm208-208c-12 0-25 0-37 4 12 12 25 29 29 46l4 12h4l4-16c4-17 17-34 29-46h-33zm192 133-79 233c0 9-5 13-9 17 63-33 104-100 104-175 0-25-4-50-16-75z" horiz-adv-x="1000"/><glyph glyph-name="server-outline" unicode="" d="M792 725H208c-45 0-83-37-83-83V100c0-46 38-83 83-83h584c46 0 83 37 83 83v542c0 46-37 83-83 83zM208 433h584V308H208v125zm584-333H208v125h584V100zM208 517v125h584V517H208zm250 41H292v42h166v-42zm167 0h-83v42h83v-42zM458 350H292v42h166v-42zm167 0h-83v42h83v-42zM458 142H292v41h166v-41zm167 0h-83v41h83v-41z" horiz-adv-x="1000"/><glyph glyph-name="slash-forward-box-outline" unicode="" d="M792 725H208c-45 0-83-37-83-83V58c0-45 38-83 83-83h584c46 0 83 38 83 83v584c0 46-37 83-83 83zm0-667H208v584h584V58zM667 558H567L333 142h100l234 416z" horiz-adv-x="1000"/><glyph glyph-name="webhook-incoming" unicode="" d="m638 388-59 108c13 12 17 29 21 46 0 41-33 79-75 83-42 0-83-33-83-75s33-79 79-83h8l54-104c13 12 34 16 55 25zM404 492c-29 66 0 141 63 171 66 29 141-5 166-71 17-38 13-79-4-113l50-29c29 50 34 113 9 171-42 96-155 146-250 104S296 571 338 475c8-25 29-50 45-67l-95-158c-17 4-34 0-50-8-38-21-55-67-34-109 21-37 71-54 109-33 37 21 54 67 33 104 0 4-4 4-4 9l129 208-13 8c-25 13-45 34-54 63zm59-292h-55v-42c-4-20-8-41-25-58-41-58-120-75-179-33s-71 121-29 179c25 33 58 54 100 58v59c-58-5-112-30-150-84-58-87-42-208 46-266 87-63 204-42 267 45 12 21 20 42 25 63-5 12-5 25-5 42 0 12 0 25 5 37zm204 4v84L542 163 667 38v83h166v83H667z" horiz-adv-x="1000"/><glyph glyph-name="webhook-outgoing" unicode="" d="m638 388-59 108c13 12 17 29 21 46 0 41-33 79-75 83-42 0-83-33-83-75s33-79 79-83h8l54-104c13 12 34 16 55 25zM404 492c-29 66 0 141 63 171 66 29 141-5 166-71 17-38 13-79-4-113l50-29c29 50 34 113 9 171-42 96-155 146-250 104S296 571 338 475c8-25 29-50 45-67l-95-158c-17 4-34 0-50-8-38-21-55-67-34-109 21-37 71-54 109-33 37 21 54 67 33 104 0 4-4 4-4 9l129 208-13 8c-25 13-45 34-54 63zm59-292h-55v-42c-4-20-8-41-25-58-41-58-120-75-179-33s-71 121-29 179c25 33 58 54 100 58v59c-58-5-112-30-150-84-58-87-42-208 46-266 87-63 204-42 267 45 12 21 20 42 25 63-5 12-5 25-5 42 0 12 0 25 5 37zm245 4v84l125-125L708 38v83H542v83h166z" horiz-adv-x="1000"/><glyph glyph-name="image-area-outline" unicode="" d="M833 100H167v500h666m0 83H167c-47 0-84-37-84-83V100c0-46 38-83 84-83h666c46 0 84 37 84 83v500c0 46-38 83-84 83M208 183l146 188 104-125 146 187 188-250" horiz-adv-x="1000"/><glyph glyph-name="emoticon-plus-outline" unicode="" d="M604 350c34 0 63 29 63 63s-29 62-63 62-62-29-62-62 29-63 62-63m-250 0c34 0 63 29 63 63s-29 62-63 62-62-29-62-62 29-63 62-63m436 4c1-8 2-17 2-25 0-172-140-312-313-312S167 157 167 329s140 313 312 313c8 0 17-1 25-2 4 29 14 57 27 81-17 2-34 4-52 4-218 0-396-177-396-396S261-67 479-67s396 178 396 396c0 18-2 35-4 52-24-13-52-23-81-27zm-82 413h84V642h125v-84H792V433h-84v125H583v84h125v125zM266 246c33-85 116-146 213-146s180 61 214 146H266z" horiz-adv-x="1000"/><glyph glyph-name="mark-as-unread" unicode="" d="M125 642v-84h750v84H125zm750-209V267h-83l-84 83 84 83h83zm-750-41v-84h500v84H125m0-250V58h750v84H125z" horiz-adv-x="1000"/><glyph glyph-name="arrow-back-ios" unicode="" d="m750 692-75 75-425-417L675-67l75 75-350 342 350 342z" horiz-adv-x="1000"/><glyph glyph-name="arrow-forward-ios" unicode="" d="m245 678 328-328L245 22l88-89 417 417-417 417z" horiz-adv-x="1000"/><glyph glyph-name="brand-zoom" unicode="" d="M500 767C271 767 83 579 83 350S271-67 500-67s417 188 417 417-188 417-417 417zm113-504c0-21 0-30-5-38s-8-12-16-17c-9-4-17-4-38-4H388c-50 0-75 0-92 9-17 8-29 20-38 37-8 21-8 42-8 92v96c0 20 0 29 4 33 4 8 9 12 17 17 8 4 17 4 33 4h171c50 0 75 0 92-9 16-8 29-20 37-37 9-21 9-42 9-92v-91zm141-13v-25c-4-8-12-12-25-12-4 0-8 4-21 16l-50 38c-8 8-12 8-12 12-4 9-8 17-13 25v92c0 8 5 17 13 25l12 12 50 38c13 8 17 12 21 17 9 4 21-5 25-13V250z" horiz-adv-x="1000"/><glyph glyph-name="menu-variant" unicode="" d="M125 642h750v-84H125v84zm0-250h542v-84H125v84zm0-250h750V58H125v84z" horiz-adv-x="1000"/><glyph glyph-name="message-check" unicode="" d="M833 767H167c-46 0-84-38-84-84V-67l167 167h583c46 0 84 37 84 83v500c0 47-38 84-84 84zM688 517 458 288 313 433l58 59 87-87 171 170 59-58z" horiz-adv-x="1000"/><glyph glyph-name="airplane-variant" unicode="" d="M804 654c-17 17-48 19-67 0-14-14-29-30-46-47l-3-3-55-55-16-16-312 63-39-39 292-83-233-233-83 21-42-41 124-47 46-124 42 42-21 83 233 233 83-292 39 39-63 312 120 120c7 7 12 19 12 34 1 15-4 26-11 33zm-126 59c54 53 138 47 185 0 25-26 36-61 36-93-1-32-12-67-37-92l-88-88 57-286c3-17-2-34-15-47l-87-87c-28-28-76-16-87 22l-59 207-99-99 13-55c5-18 0-36-13-49l-89-89c-27-27-72-17-85 19l-51 133-133 51c-36 13-46 58-19 85l89 89c13 13 31 18 49 13l55-13 99 99-207 59c-38 11-50 59-22 87l87 87c13 13 30 18 47 15l286-57c13 13 26 26 38 39l4 3c16 17 32 33 46 47z" horiz-adv-x="1000"/><glyph glyph-name="leaf-outline" unicode="" d="M242 71C358-25 550-38 675 88c63 62 117 175 150 287 38 113 63 229 67 304 4 46-42 67-75 50-34-16-79-29-129-37-25-4-55-9-80-17-29-4-54-8-83-17-117-16-242-50-325-133-117-117-96-275-21-387-4-13-12-25-16-38-13-29-21-50-25-67-5-8-9-16-13-25-8-21 8-46 29-50 21-8 46 9 50 29v5c0 4 4 8 4 16 5 17 13 38 25 63h9zm504 333c-38-108-83-204-129-254-100-100-254-83-338 0 17 29 38 63 63 92 46 58 121 112 187 154 34 21 59 37 79 50 9 4 17 8 25 12 5 0 5 5 9 5 21 8 29 33 16 54-8 21-33 29-54 16-12-4-25-12-37-20-21-13-50-30-84-50-66-42-150-105-204-171-21-25-37-50-54-71-42 79-37 175 29 246 63 62 167 91 279 116 30 5 55 13 84 17s54 8 83 17c33 8 67 16 100 25-4-71-25-154-54-238z" horiz-adv-x="1000"/><glyph glyph-name="basketball" unicode="" d="M915 318c1 10 2 21 2 32 0 7-1 13-1 20-11 220-193 397-416 397-230 0-417-187-417-417C83 127 260-55 480-66c7 0 13-1 20-1 11 0 22 1 33 2 203 16 366 179 382 383zM483 10c-72 4-138 29-192 71l212 212 73-73c-49-58-82-131-93-210zm146 156 83-82c-43-35-95-59-151-69 10 56 34 108 68 151zm60 59c42 32 92 55 146 64-10-54-32-104-65-146l-81 82zm151 142c-77-11-147-42-205-88l-73 73 207 207c42-54 68-120 71-192zM293 620c49 38 107 62 171 69-7-64-31-122-69-171L293 620zm247 68c64-7 122-32 170-70L503 411l-54 53c51 63 83 140 91 224zM234 562l103-103c-49-40-110-66-176-73 7 66 33 127 73 176zm-72-252c86 8 166 42 229 95l53-53-212-212c-38 48-63 106-70 170z" horiz-adv-x="1000"/><glyph glyph-name="emoticon-custom-outline" unicode="" d="M875 608v30l38 29v4l-30 50s-4 4-4 0l-41-17c-9 4-17 13-25 13l-9 46s0 4-4 4h-54s-4 0-4-4l-9-46c-8-4-16-9-25-13l-41 17h-4l-30-50v-4l34-34v-29l-38-29v-4l29-50s5-4 5 0l41 17c9-5 17-9 25-13l9-46s0-4 4-4h54s4 0 4 4l8 46c9 4 17 8 25 13l42-17h4l29 50v4l-33 33zm-104-29c-25 0-42 17-42 42s17 42 42 42c21 0 42-17 42-42s-17-42-42-42zM558 371c-12 12-16 29-16 46 0 16 4 29 16 41 17 9 30 17 46 17 17 0 34-8 46-21 13-12 21-25 21-41 0-17-8-34-21-46-12-13-25-21-46-21-16 4-29 12-46 25zm-204-21c-16 0-33 8-46 21-8 12-16 25-16 42 0 16 4 29 16 41 17 13 30 21 46 21 17 0 34-8 46-21 13-12 21-25 21-41 0-17-8-34-21-46-12-9-29-17-46-17zm517 29c4-21 4-41 4-50 0-71-17-137-54-200-33-58-83-108-142-142-62-37-129-54-200-54S342-50 279-13c-58 34-108 84-141 142-38 63-55 129-55 200s17 138 55 200c33 59 83 109 141 142 63 37 129 54 200 54 13 0 29 0 50-4-12-25-25-54-25-79h-25c-58 0-108-13-158-42-46-29-83-67-113-112-29-50-41-100-41-159s12-108 41-158c30-46 67-83 113-113 50-29 100-41 158-41 59 0 109 12 159 41 45 30 83 67 112 113 29 50 42 100 42 158v25c25 4 54 13 79 25zM267 246h425c-17-42-46-79-84-104-37-25-83-42-129-42-50 0-91 13-129 42-37 25-67 62-83 104z" horiz-adv-x="1000"/><glyph glyph-name="message-check-outline" unicode="" d="M833 767H167c-46 0-84-38-84-84V-67l167 167h583c47 0 84 37 84 83v500c0 46-37 84-84 84m0-584H250l-83-83v583h666M688 517 458 288 313 433l58 59 87-87 171 170 59-58z" horiz-adv-x="1000"/><glyph glyph-name="image-broken-outline" unicode="" d="M571 338c-16 16-42 16-59 0l-95-96-96 96c-16 16-42 16-59 0L125 201V58c0-46 37-83 83-83h584c46 0 83 37 83 83v332c0 23-27 34-43 18L667 242l-96 96zm221-89V58H208v108l84 83 95-95c17-16 43-16 59 0l96 95 95-95c8-8 19-12 30-12 10 0 21 4 29 12l96 95zm0 476H208c-46 0-83-37-83-83V351c0-22 27-33 42-18l125 125 95-96c17-16 43-16 59 0l96 96 95-96c8-8 19-12 30-12 10 0 21 4 29 12l179 179v101c0 46-37 83-83 83zm0-149L667 451l-96 95c-16 16-42 16-59 0l-95-95-96 95c-16 16-42 16-59 0l-54-54v150h584v-66z" horiz-adv-x="1000"/><glyph glyph-name="format-header" unicode="" d="M292 683h83V433h250v250h83V100h-83v250H375V100h-83v583" horiz-adv-x="1000"/><glyph glyph-name="circle-multiple-outline-lock" unicode="" d="M917 183v63c0 80-66 146-146 146s-146-66-146-146v-63c-23 0-42-18-42-41V-67c0-23 19-41 42-41h292c23 0 41 18 41 41v209c0 23-18 41-41 41zm-229 63c0 46 37 83 83 83s83-37 83-83v-63H688v63zM464 636c39 30 88 47 140 47 123 0 222-96 229-217 30-8 58-23 82-42 1 10 2 20 2 30 0 173-140 313-313 313-103 0-195-50-252-128 15 2 29 3 44 3 23 0 46-2 68-6zm36-594c-31-16-67-25-104-25-127 0-229 102-229 229s102 229 229 229c22 0 43-3 63-9 51-14 94-46 124-89 16 23 37 43 60 59-13 16-26 32-42 45-55 48-126 77-205 77-173 0-313-140-313-312S223-67 396-67c36 0 71 7 104 18v91zm-86 285c-13 19-24 41-30 64-29-2-56-13-78-30 11-36 29-70 52-99 36-47 86-83 144-103 4 30 18 56 39 75-3 1-5 1-8 2-49 16-91 48-119 91z" horiz-adv-x="1000"/><glyph glyph-name="server-variant" unicode="" d="M333 558v42h-83v-42h83zm0-416h-83v-42h83v42zm292 458v-42H417v42h208zm0-458H417v-42h208v42zm292 541c0 46-38 84-84 84H167c-46 0-84-38-84-84V475c0-46 38-83 84-83h666c46 0 84 37 84 83v208zm-84 0V475H167v208h666zm84-458V17c0-46-38-84-84-84H167c-46 0-84 38-84 84v208c0 46 38 83 84 83h666c46 0 84-37 84-83zm-84 0H167V17h666v208z" horiz-adv-x="1000"/><glyph glyph-name="server-variant-plus" unicode="" d="M708 163H583V79h125V-46h84V79h125v84H792v125h-84V163zm-458-63v42h83v-42h-83zm167 42h83v-42h-83v42zM250 600h83v-42h-83v42zm167 0h208v-42H417v42zM583-67H167c-46 0-84 38-84 84v208c0 46 38 83 84 83h416c-25-25-45-50-62-83H167V17h358c13-34 33-59 58-84zM167 392h666c46 0 84 37 84 83v208c0 46-38 84-84 84H167c-46 0-84-38-84-84V475c0-46 38-83 84-83zm0 291h666V475H167v208z" horiz-adv-x="1000"/><glyph glyph-name="search-list" unicode="" d="M125 558v84h750v-84H125zm225-416H125V58h271c-21 25-33 55-46 84zm21 250H125v-84h217c4 30 12 59 29 84zM900 50l-67 67c63 87 55 212-25 291-87 88-233 88-325 0s-87-233 0-325C563 4 688-4 775 58l71-71c17-16 42-16 58 0 17 17 17 42-4 63zm-358 92c-59 58-59 150 0 204 58 58 150 58 204 0 58-58 58-150 0-204s-146-54-204 0z" horiz-adv-x="1000"/><glyph glyph-name="brand-one-login" unicode="" d="M500-67C270-67 83 120 83 350s187 417 417 417 417-187 417-417S730-67 500-67zM396 475v-83h62V183h105v292H396z" horiz-adv-x="1000"/><glyph glyph-name="key-variant-circle" unicode="" d="M500 767c230 0 417-187 417-417S730-67 500-67 83 120 83 350s187 417 417 417zm125-293c9-9 13-20 13-32s-4-23-13-32-20-13-32-13-23 4-32 13-13 20-13 32 4 23 13 32 20 13 32 13 23-4 32-13zm65 65c-27 27-60 40-98 40-37 0-69-13-96-40-21-22-34-47-39-76-4-28 0-55 14-80L271 184l63-63 65 65 66-65 63 63-65 65 71 71c25-13 52-18 80-14 30 5 55 18 76 40 27 27 40 59 39 96 1 37-12 69-39 97z" horiz-adv-x="1000"/><glyph glyph-name="file-zip-outline" unicode="" d="M583 767H250c-46 0-83-38-83-84V17c0-46 37-84 83-84h500c46 0 83 38 83 84v500L583 767zM750 17H500v83h-83V17H250v666h292V475h208V17zM500 183h-83v84h83v-84zm0 167h-83v83h83v-83zm-83 0v-83h-84v83h84zm0-167v-83h-84v83h84zm0 334v-84h-84v84h84z" horiz-adv-x="1000"/><glyph glyph-name="file-patch-outline" unicode="" d="M250 767c-46 0-83-38-83-84V17c0-46 37-84 83-84h500c46 0 83 38 83 84v500L583 767H250m0-84h292V475h208V17H250v666m417-312-42 42c-33 32-92 32-125 0L333 246c-32-33-32-92 0-125l42-42c16-16 38-27 61-27s48 11 64 27l167 167c33 33 33 92 0 125zM438 100l-84 83 63 63 83-83-62-63zm208 208-63-62-83 83 63 63 83-84z" horiz-adv-x="1000"/><glyph glyph-name="file-image-broken-outline" unicode="" d="m708 163-82 82c-12 12-32 12-44 0l-82-82-82 82c-12 12-32 12-44 0l-82-82-125 125V17c0-46 37-84 83-84h500c46 0 83 38 83 84v271L708 163zm42-146H250v104l20-20c12-12 32-12 44 0l82 82 82-82c12-12 32-12 44 0l82 82 82-82c13-12 32-12 44 0l20 20V17zM583 767H250c-46 0-83-38-83-84V371l103-103c12-12 32-12 44 0l82 82 82-82c12-12 32-12 44 0l82 82 82-82c12-12 32-12 44 0l103 103v146L583 767zm125-438-83 84c-11 11-30 11-42 0l-83-84-82 82c-12 12-32 12-44 0l-82-82-42 42v312h292V475h208V371l-42-42z" horiz-adv-x="1000"/><glyph glyph-name="product-channels" unicode="" d="M250 527c29 0 52-23 52-52s-23-52-52-52-52 23-52 52 23 52 52 52zm188 0c28 0 52-23 52-52s-24-52-52-52c-29 0-53 23-53 52s24 52 53 52zm239-52c0 29-23 52-52 52s-52-23-52-52 23-52 52-52 52 23 52 52zM167 725c-46 0-84-37-84-83V308c0-46 38-83 84-83h83V58l152 167h306c46 0 84 37 84 83v334c0 46-38 83-84 83H167zm291-437h-70l-75-84v84H188c-23 0-42 18-42 41v292c0 23 19 42 42 42h500c23 0 41-19 41-42V329c0-23-18-41-41-41H458zm-39-125c10-36 42-63 81-63h99L750-67v167h83c46 0 84 37 84 83v334c0 39-27 71-63 80V204c0-23-18-41-41-41H688V79l-76 84H419z" horiz-adv-x="1000"/><glyph glyph-name="product-playbooks" unicode="" d="M333 704h-83c-46 0-83-37-83-83V58c0-46 37-83 83-83h500c46 0 83 37 83 83v563c0 46-37 83-83 83h-83v-62h62c23 0 42-19 42-42V79c0-23-19-41-42-41H271c-23 0-42 18-42 41v521c0 23 19 42 42 42h62v62zm125 63c-11 0-20-10-20-21v-21h-63V621h250v104h-62v21c0 11-10 21-21 21h-84zm-20-584h270v-41H438v41zm-125 11h62v-63h-62v63zm125 156h270v-42H438v42zm-125 10h62v-62h-62v62zm125 157h270v-42H438v42zm-129-46-21 21 21 21 21-21 45 46 21-21-66-67-21 21z" horiz-adv-x="1000"/><glyph glyph-name="product-boards" unicode="" d="M697 717c-58 32-126 50-197 50-230 0-417-187-417-417S270-67 500-67s417 187 417 417c0 71-18 138-50 197-18-6-39-11-63-15 32-53 50-115 50-182C854 154 696-4 500-4S146 154 146 350s158 354 354 354c67 0 129-18 182-50 5 24 10 45 15 63zm-27-156-48-42 48 42zm-35 24c-40 23-86 36-135 36-150 0-271-121-271-271S350 79 500 79s271 121 271 271c0 49-13 95-36 134l-44-50c11-26 17-54 17-84 0-115-93-208-208-208s-208 93-208 208 93 208 208 208c30 0 58-6 84-17l51 44zM510 475h-10c-69 0-125-56-125-125s56-125 125-125 125 56 125 125v10c-15-14-34-21-54-20h-7l-3-2c-5-29-31-50-61-50-34 0-62 28-62 62 0 31 22 57 51 62h1v7c-1 21 7 40 20 56zm27-75 1 1-1-1zm20 61-15-13s-1-1-1-2c0 1 1 2 1 2l15 13zm196 106c108 13 159 35 153 65s-44 33-114 9c24 71 21 109-10 115-30 5-52-47-65-154L542 448c-7-8-11-18-11-28 1-7 3-13 7-19l-45-44c-4-4-4-10 0-14s10-4 14 0l45 44c6-4 13-5 20-6 10 0 19 4 26 11l155 175z" horiz-adv-x="1000"/><glyph glyph-name="products" unicode="" d="M667 17h166v166H667m0 84h166v166H667m-250 84h166v166H417m250-166h166v166H667M417 267h166v166H417M167 267h166v166H167m0-416h166v166H167M417 17h166v166H417M167 517h166v166H167V517z" horiz-adv-x="1000"/><glyph glyph-name="file-audio-outline" unicode="" d="m583 767 250-250V17c0-46-37-84-83-84H250c-46 0-83 38-83 84v666c0 46 37 84 83 84h333M750 17v458H542v208H250V17h500M542 58 417 183h-84v125h84l125 125V58z" horiz-adv-x="1000"/><glyph glyph-name="file-pdf-outline" unicode="" d="m583 767 250-250V17a83 83 0 0 0-83-84H250a83 83 0 0 0-83 84v666a83 83 0 0 0 83 84h333M750 17v458H542v208H250V17h500M455 337c-10 32-32 135 26 136 59 2 20-130 20-130 17-62 84-106 84-106 21 6 140 20 123-42-18-62-145-4-145-4-82-6-143-27-143-27-47-88-102-126-124-89-28 46 89 105 89 105 60 98 69 155 70 157m27-35c-17-54-50-112-50-112 36 14 113 30 113 30-47 42-62 82-63 82m131-90s73-27 75-17c2 12-56 22-75 17m-236-62c-32-13-63-66-55-66 7-1 38 25 55 66m105 231c0 2 18 70 0 72-12 1 0-70 0-72z" horiz-adv-x="1000"/><glyph glyph-name="account-multiple-plus-outline" unicode="" d="M179 96c4 0 9 4 13 4l129 79c29-16 58-25 96-25s66 9 96 25c18 54 53 99 99 130 19 45 30 95 30 145 0 138-92 229-225 229s-225-91-225-229c0-79 25-158 66-216l-104-63c-41-21-71-67-71-112C83-8 142-67 208-67h356c-21 24-38 53-49 84H208c-25 0-41 21-41 46v12c4 8 8 17 12 21zm238 504c79 0 141-46 141-146 0-62-20-129-58-175-21-29-50-46-87-46-38 0-63 17-88 46-29 46-50 113-50 175 0 100 63 146 142 146zm308-100c0-17 4-29 4-46 0-37-4-72-12-106 11 1 22 2 33 2 16 0 32-2 47-4 7 36 11 72 11 108 0 17 0 129-79 229-33 42-104 84-146 84-29 0-54-4-75-13 55-16 105-46 142-83 42-46 67-104 75-171zm67-358v125h-84V142H583V58h125V-67h84V58h125v84H792z" horiz-adv-x="1000"/><glyph glyph-name="file-gif" unicode="" d="M458 558h84V142h-84v416zm167 0h292v-83H708v-83h167v-84H708V142h-83v416zM83 496c0 34 28 62 63 62h167c34 0 62-28 62-62v-21H167V225h125v83h-42v84h63c34 0 62-28 62-63V204c0-34-28-62-62-62H146c-35 0-63 28-63 62v292z" horiz-adv-x="1000"/><glyph glyph-name="file-text-outline-large" unicode="" d="M750 767H415c-17 0-33-7-44-18L185 566c-11-12-18-28-18-45V17c0-46 37-84 83-84h500c46 0 83 38 83 84v666c0 46-37 84-83 84zm-375-73V538H216l159 156zM792 17c0-23-19-42-42-42H250c-23 0-42 19-42 42v479h167c23 0 42 19 42 42v187h333c23 0 42-19 42-42V17zM646 392H354c-11 0-21-10-21-21s10-21 21-21h292c11 0 21 9 21 21s-10 21-21 21zm0-84H354c-11 0-21-9-21-20s10-21 21-21h292c11 0 21 9 21 21s-10 20-21 20zm0-83H354c-11 0-21-9-21-21s10-21 21-21h292c11 0 21 10 21 21s-10 21-21 21zm-83-83H354c-11 0-21-10-21-21s10-21 21-21h209c11 0 20 9 20 21s-9 21-20 21z" horiz-adv-x="1000"/><glyph glyph-name="file-word-outline-large" unicode="" d="M750 767H415c-17 0-33-7-44-18L185 566c-11-12-18-28-18-45V17c0-46 37-84 83-84h500c46 0 83 38 83 84v666c0 46-37 84-83 84zm-375-73V538H216l159 156zM792 17c0-23-19-42-42-42H250c-23 0-42 19-42 42v479h167c23 0 42 19 42 42v187h333c23 0 42-19 42-42V17zM584 214c-1-6-3-14-5-22l-2-11c-2-10-3-19-4-27l-1-6c-1 7-2 16-4 25l-1 8c-2 11-4 20-6 26v3l-36 140h-50l-35-140c-3-8-5-18-7-32l-1-3c-2-12-3-21-4-27-2 19-6 40-12 66l-31 136h-52l63-250h59l34 132c1 4 2 10 4 17l3 17c1 8 3 14 3 19l1 5c0-4 1-10 3-20l3-12c2-12 4-20 5-25l34-133h59l63 250h-52l-31-136z" horiz-adv-x="1000"/><glyph glyph-name="file-excel-outline-large" unicode="" d="M750 767H415c-17 0-33-7-44-18L185 566c-11-12-18-28-18-45V17c0-46 37-84 83-84h500c46 0 83 38 83 84v666c0 46-37 84-83 84zm-375-73V538H216l159 156zM792 17c0-23-19-42-42-42H250c-23 0-42 19-42 42v479h167c23 0 42 19 42 42v187h333c23 0 42-19 42-42V17zM619 371h-61l-57-90-58 90h-62l83-121-89-129h61l62 94 62-94h65l-90 126 84 124z" horiz-adv-x="1000"/><glyph glyph-name="file-powerpoint-outline-large" unicode="" d="M750 767H415c-17 0-33-7-44-18L185 566c-11-12-18-28-18-45V17c0-46 37-84 83-84h500c46 0 83 38 83 84v666c0 46-37 84-83 84zm-375-73V538H216l159 156zM792 17c0-23-19-42-42-42H250c-23 0-42 19-42 42v479h167c23 0 42 19 42 42v187h333c23 0 42-19 42-42V17zM515 371h-77V121h51v89h22c30 0 53 7 69 21s24 35 24 62c0 26-7 45-23 58-15 13-37 20-66 20zm26-108c-8-7-20-10-35-10h-17v74h23c14 0 24-3 31-8 6-6 10-16 10-28s-4-22-12-28z" horiz-adv-x="1000"/><glyph glyph-name="file-pdf-outline-large" unicode="" d="M750 767H415c-17 0-33-7-44-18L185 566c-11-12-18-28-18-45V17c0-46 37-84 83-84h500c46 0 83 38 83 84v666c0 46-37 84-83 84zm-375-73V538H216l159 156zM792 17c0-23-19-42-42-42H250c-23 0-42 19-42 42v479h167c23 0 42 19 42 42v187h333c23 0 42-19 42-42V17zM645 263c-18 12-48 15-84 10-10 7-20 16-30 26-2 1-4 3-6 6 13 47 16 86 1 108-8 13-21 20-36 20h-1c-19 0-36-12-44-31-12-29-6-71 17-108-4-10-7-18-10-25l-4-9c-6-16-10-24-15-34-68-34-101-60-100-89 2-15 12-29 32-34 6-2 12-3 17-3 38 0 67 30 95 83 10 5 22 10 35 16 11 5 24 9 37 12 36-23 70-33 93-24 15 7 25 21 25 38 0 16-8 30-22 38zm-213-87c-19-30-38-45-57-40l-2 1h-1l-5 2 3 5c5 8 24 21 53 37l3 2 16 9-10-16zm46 212c2 7 6 10 11 10 4 0 6-1 8-4 6-10 5-36-3-70l-3-13-6 12c-11 25-14 50-7 65zm53-146c-12-3-23-7-33-11-8-4-13-6-17-8l-2-1-11-5 5 12c2 4 4 8 6 13l2 4 3 8c3 6 5 12 7 18l2 6 3 7 5-6 5-5c7-7 14-13 21-19l6-4 7-6-9-3zm101-20-2-2c-6-4-23 0-44 10l-2 1-16 8 18 1c18 1 33-1 40-6 4-2 5-5 6-9v-3z" horiz-adv-x="1000"/><glyph glyph-name="file-image-outline-large" unicode="" d="M750 767H415c-17 0-33-7-44-18L185 566c-11-12-18-28-18-45V17c0-46 37-84 83-84h500c46 0 83 38 83 84v666c0 46-37 84-83 84zm-375-73V538H216l159 156zM792 17c0-23-19-42-42-42H250c-23 0-42 19-42 42v479h167c23 0 42 19 42 42v187h333c23 0 42-19 42-42V17zM396 267c34 0 62 28 62 62s-28 63-62 63-63-28-63-63 28-62 63-62zm0 83c11 0 21-9 21-21s-10-21-21-21-21 10-21 21 9 21 21 21zm186-39c-4 8-12 13-21 14-9 0-18-3-23-11l-66-87-27 19c-12 8-28 5-36-6l-86-119c-6-8-7-19-3-28 5-8 14-14 24-14h314c9 0 18 5 22 13s6 17 1 25l-99 194zM374 121l60 82 29-20c10-7 24-5 31 4l62 83 77-149H374z" horiz-adv-x="1000"/><glyph glyph-name="file-video-outline-large" unicode="" d="M750 767H415c-17 0-33-7-44-18L185 566c-11-12-18-28-18-45V17c0-46 37-84 83-84h500c46 0 83 38 83 84v666c0 46-37 84-83 84zm-375-73V538H216l159 156zM792 17c0-23-19-42-42-42H250c-23 0-42 19-42 42v479h167c23 0 42 19 42 42v187h333c23 0 42-19 42-42V17zM646 248 413 365c-8 4-18 4-26-1-7-5-12-13-12-22V108c0-9 5-17 12-22 5-2 9-4 14-4 4 0 8 1 12 3l233 117c9 4 14 13 14 23s-5 19-14 23zM417 134v182l182-91-182-91z" horiz-adv-x="1000"/><glyph glyph-name="file-audio-outline-large" unicode="" d="M750 767H415c-17 0-33-7-44-18L185 566c-11-12-18-28-18-45V17c0-46 37-84 83-84h500c46 0 83 38 83 84v666c0 46-37 84-83 84zm-375-73V538H216l159 156zM792 17c0-23-19-42-42-42H250c-23 0-42 19-42 42v479h167c23 0 42 19 42 42v187h333c23 0 42-19 42-42V17zM516 373l-76-65h-85l-22-1V164l1-22h106l66-56 11-9 25 12v259l-1 14-25 11zm-16-228-44 38h-81v84h81l44 38V145zm140 177c-7 5-16 2-20-5s-2-17 4-22c24-16 39-44 39-74s-15-58-39-75c-6-4-8-14-4-21s13-10 20-5c32 22 52 60 52 101s-20 79-52 101zm-34-51c-7 4-16 1-19-6-4-7-2-16 4-21h1c8-5 13-14 13-23s-4-17-11-22l-2-1c-7-4-9-13-5-21 3-8 12-10 19-6 17 10 28 29 28 50s-11 40-28 50z" horiz-adv-x="1000"/><glyph glyph-name="file-generic-outline-large" unicode="" d="M750 767H415c-17 0-33-7-44-18L185 566c-11-12-18-28-18-45V17c0-46 37-84 83-84h500c46 0 83 38 83 84v666c0 46-37 84-83 84zm-375-73V538H216l159 156zM792 17c0-23-19-42-42-42H250c-23 0-42 19-42 42v479h167c23 0 42 19 42 42v187h333c23 0 42-19 42-42V17zM630 268c-4 4-11 4-15 0L492 144c-9-8-19-14-31-17s-24-3-35 0c-12 3-22 9-31 17s-14 19-17 31c-4 12-4 23 0 35 3 12 8 22 17 31l139 139c5 5 11 9 18 10 7 2 14 2 21 0 7-1 13-5 18-10s8-11 10-18 2-14 0-21-5-12-10-18L465 197c-2-2-5-3-9-3-3 0-5 1-8 3-2 3-4 6-4 9s2 6 4 8l110 110c4 5 4 11 0 15l-15 15c-4 4-10 4-14 0L419 244c-7-7-12-15-14-24v-1c-3-9-3-18 0-27 2-9 7-17 14-24 6-7 15-12 24-14s18-2 27 0c10 2 18 7 25 14l125 126c11 10 18 23 22 37 3 14 3 28 0 42-4 14-11 26-22 37s-22 17-36 21c-14 3-28 3-42 0-14-4-27-11-37-21L366 270c-14-14-24-30-29-49s-5-38 0-57 15-35 29-49 30-24 49-29 38-5 57 0c18 5 35 15 49 29l123 123c5 4 5 11 0 15l-14 15z" horiz-adv-x="1000"/><glyph glyph-name="file-patch-outline-large" unicode="" d="M750 767H415c-17 0-33-7-44-18L185 566c-11-12-18-28-18-45V17c0-46 37-84 83-84h500c46 0 83 38 83 84v666c0 46-37 84-83 84zm-375-73V538H216l159 156zM792 17c0-23-19-42-42-42H250c-23 0-42 19-42 42v479h167c23 0 42 19 42 42v187h333c23 0 42-19 42-42V17zM592 425c-16 16-43 16-59 0L327 219c-16-17-16-43 0-59l88-89c17-16 43-16 59 0l206 206c17 17 17 43 0 59l-88 89zM485 303c8 8 22 8 30 0s8-21 0-29-22-8-30 0-8 21 0 29zm-37-37c9 9 22 9 30 0s8-21 0-29-21-8-30 0-8 21 0 29zm-3-165-89 88 59 59 89-88-59-59zm77 92c-8-8-21-8-29 0s-9 21 0 29 21 8 29 0 8-21 0-29zm37 37c-8-9-21-9-30 0s-8 21 0 29 22 8 30 0 8-21 0-29zm33 18-88 88 59 59 88-88-59-59z" horiz-adv-x="1000"/><glyph glyph-name="file-zip-outline-large" unicode="" d="M750 767H415c-17 0-33-7-44-18L185 566c-11-12-18-28-18-45V17c0-46 37-84 83-84h500c46 0 83 38 83 84v666c0 46-37 84-83 84zm-375-73V538H216l159 156zM792 17c0-23-19-42-42-42h-83v4c0 9-8 17-17 17h-29c-9 0-17-8-17-17v-4H250c-23 0-42 19-42 42v479h167c23 0 42 19 42 42v187h333c23 0 42-19 42-42V17zM646 600h-83c-12 0-21-9-21-21V475c0-23 18-42 41-42h42c23 0 42 19 42 42v104c0 12-10 21-21 21zm-21-73c0-6-5-10-10-10h-21c-6 0-11 4-11 10v26c0 3 3 5 6 5h31c3 0 5-2 5-5v-26zm25-114h-29c-9 0-17-8-17-17v-8c0-10 8-17 17-17h29c9 0 17 7 17 17v8c0 9-8 17-17 17zm-92-84h30c9 0 16 8 16 17v8c0 9-7 17-16 17h-30c-9 0-16-8-16-17v-8c0-9 7-17 16-17zm92 0h-29c-9 0-17-7-17-16v-9c0-9 8-16 17-16h29c9 0 17 7 17 16v9c0 9-8 16-17 16zm-92-83h30c9 0 16 7 16 17v8c0 9-7 17-16 17h-30c-9 0-16-8-16-17v-8c0-10 7-17 16-17zm92 0h-29c-9 0-17-8-17-17v-8c0-9 8-17 17-17h29c9 0 17 8 17 17v8c0 9-8 17-17 17zm-92-83h30c9 0 16 7 16 16v9c0 9-7 16-16 16h-30c-9 0-16-7-16-16v-9c0-9 7-16 16-16zm92 0h-29c-9 0-17-8-17-17v-8c0-10 8-17 17-17h29c9 0 17 7 17 17v8c0 9-8 17-17 17zm-92-84h30c9 0 16 8 16 17v8c0 9-7 17-16 17h-30c-9 0-16-8-16-17v-8c0-9 7-17 16-17zm92 0h-29c-9 0-17-7-17-16v-9c0-9 8-16 17-16h29c9 0 17 7 17 16v9c0 9-8 16-17 16zm-62-41h-30c-9 0-16-8-16-17v-8c0-10 7-17 16-17h30c9 0 16 7 16 17v8c0 9-7 17-16 17z" horiz-adv-x="1000"/><glyph glyph-name="file-code-outline-large" unicode="" d="M750 767H415c-17 0-33-7-44-18L185 566c-11-12-18-28-18-45V17c0-46 37-84 83-84h500c46 0 83 38 83 84v666c0 46-37 84-83 84zm-375-73V538H216l159 156zM792 17c0-23-19-42-42-42H250c-23 0-42 19-42 42v479h167c23 0 42 19 42 42v187h333c23 0 42-19 42-42V17zM589 327c-4 3-10 3-14-1l-15-16c-2-2-3-5-3-7 0-3 1-6 3-7l57-50-57-50c-2-1-3-4-3-7 0-2 1-5 3-7l15-16c2-2 5-3 7-3 3 0 5 0 7 2l80 74c2 2 3 4 3 7s-1 5-3 7l-80 74zM443 189c0 3-1 5-3 7l-57 50 57 50c2 1 3 4 3 6 0 3-1 6-2 8l-16 16c-4 4-10 4-14 1l-80-74c-2-2-3-4-3-7s1-5 3-7l80-74c2-2 4-2 7-2 2 0 5 1 7 3l16 16c2 2 2 5 2 7zm118 196c-2 3-4 4-6 5l-23 7c-5 1-10-2-12-7l-81-276c-1-3-1-5 0-8 2-2 4-4 6-4l23-7h3c4 0 8 3 9 7l81 276c1 3 1 5 0 7z" horiz-adv-x="1000"/><glyph glyph-name="file-image-broken-outline-large" unicode="" d="M704 262c-4 4-9 6-15 6s-11-2-15-6L561 149 450 260c-8 8-22 8-30 0L312 151 202 261c-6 6-15 7-22 4-8-3-13-11-13-19V17c0-46 37-84 83-84h500c46 0 83 38 83 84v104c0 5-2 11-6 14L704 262zm88-245c0-23-19-42-42-42H250c-23 0-42 19-42 42v179l89-89c8-8 21-8 29 0l109 109 111-111c8-8 22-8 30 0l113 112 103-105V17zm-42 750H415c-17 0-33-7-44-18L185 566c-11-12-18-28-18-45V413c0-6 2-11 6-15l124-124c8-8 21-8 29 0l109 109 111-112c4-4 10-6 15-6s11 2 15 6l113 113 109-111c6-6 15-8 22-5 8 3 13 11 13 20v395c0 46-37 84-83 84zm-375-73V538H216l159 156zm417-355-88 89c-4 4-9 7-15 7s-11-3-15-7L561 315 450 427c-8 8-22 8-30 0L312 318 208 421v75h167c23 0 42 19 42 42v187h333c23 0 42-19 42-42V339z" horiz-adv-x="1000"/><glyph glyph-name="file-multiple-outline-large" unicode="" d="M792 808H457c-17 0-32-6-44-18L228 607c-12-11-19-27-19-44V58c0-46 37-83 83-83h500c46 0 84 37 84 83v667c0 46-38 83-84 83zm-375-72V579H258l159 157zM834 58c0-23-19-41-42-41H292c-23 0-41 18-41 41v480h166c23 0 42 18 42 41v188h333c23 0 42-19 42-42V58zM780-67c-14-25-41-41-72-41H260c-74 0-135 60-135 135v453c0 16 42 67 42 67V37c0-57 47-104 104-104h509z" horiz-adv-x="1000"/><glyph glyph-name="account-multiple-outline" unicode="󰀏" d="m679 175-104 63c42 58 67 137 67 216 0 138-92 229-225 229s-225-91-225-229c0-79 25-158 66-216l-104-63c-41-21-71-67-71-112C83-8 142-67 208-67h417c71 0 125 59 125 130 0 45-29 91-71 112zM275 454c0 100 63 146 142 146s141-46 141-146c0-62-20-129-58-175-21-29-50-46-87-46-38 0-63 17-88 46-29 46-50 113-50 175zM625 17H208c-25 0-41 21-41 46v12c4 8 8 17 12 21 4 0 9 4 13 4l129 79c29-16 58-25 96-25s66 9 96 25l129-79c16-8 25-21 25-42s-21-41-42-41zm163 287c12 50 20 100 20 150 0 17 0 129-79 229-33 42-104 84-146 84-29 0-54-4-75-13 55-16 105-46 142-83 42-46 67-104 75-171 0-17 4-29 4-46 0-66-12-129-37-187l33-21c21-13 42-29 58-46 21-25 38-50 46-83 4-21 9-38 9-59 0-12 0-25-5-37 42 12 71 46 84 87 4 13 4 21 4 34-4 50-42 125-133 162z" horiz-adv-x="1000"/><glyph glyph-name="account-outline" unicode="󰀓" d="m800 188-133 79c8 12 21 25 29 41 33 59 54 134 54 209 0 150-100 250-250 250S250 667 250 517c0-75 21-150 54-213 9-16 17-29 29-41l-133-80c-46-16-75-66-75-116 0-75 58-134 133-134h484c75 0 133 59 133 134 0 50-29 100-75 121zM333 517c0 116 75 166 167 166s167-50 167-166c0-75-25-159-75-209-25-25-54-41-92-41s-67 16-92 41c-50 50-75 134-75 209zM742 17H258c-29 0-50 21-50 50 0 21 13 37 30 46l162 95c33-16 67-25 100-25s67 9 96 25l162-95c17-9 30-25 30-46 4-29-17-50-46-50z" horiz-adv-x="1000"/><glyph glyph-name="airplane" unicode="󰀝" d="M875 183v84L542 475v229a63 63 0 0 1-63 63 63 63 0 0 1-62-63V475L83 267v-84l334 105V58L333-4v-63l146 42 146-42v63l-83 62v230l333-105z" horiz-adv-x="1000"/><glyph glyph-name="alert-outline" unicode="󰀪" d="M902 159 610 701c-22 41-64 66-110 66s-88-25-110-66L98 159c-21-39-20-85 3-123s63-61 108-61h583c44 0 84 23 107 61s24 84 3 123zM792 58H208c-31 0-51 34-36 62l291 541c8 15 23 22 37 22s29-7 37-22l291-541c15-28-5-62-36-62zM521 308h-42l-21 250h84l-21-250zm21-125c0-23-19-41-42-41s-42 18-42 41 19 42 42 42 42-19 42-42z" horiz-adv-x="1000"/><glyph glyph-name="apps" unicode="󰀻" d="M125 392h333v333H125m83-83h167V475H208M542-25h333v333H542m83-83h167V58H625M125-25h333v333H125m83-83h167V58H208m334 667V392h333v333m-83-250H625v167h167z" horiz-adv-x="1000"/><glyph glyph-name="arrow-down" unicode="󰁅" d="M458 683h84V183l229 230 59-60L500 23 170 353l59 60 229-230v500z" horiz-adv-x="1000"/><glyph glyph-name="arrow-down-bold-circle-outline" unicode="󰁈" d="M500 142 292 350h125v167h166V350h125L500 142m0 625a417 417 0 0 0 417-417A417 417 0 0 0 500-67 417 417 0 0 0 83 350a417 417 0 0 0 417 417m0-84a333 333 0 0 1-333-333A333 333 0 0 1 500 17a333 333 0 0 1 333 333 333 333 0 0 1-333 333z" horiz-adv-x="1000"/><glyph glyph-name="arrow-expand-all" unicode="󰁌" d="m396 305 59-59L267 58h150v-83H125v292h83V117l188 188m59 149-59-59-188 188V433h-83v292h292v-83H267l188-188m149-149 188-188v150h83V-25H583v83h150L545 246l59 59m-59 149 188 188H583v83h292V433h-83v150L604 395l-59 59z" horiz-adv-x="1000"/><glyph glyph-name="arrow-left" unicode="󰁍" d="M833 392v-84H333L563 79l-60-59-330 330 330 330 60-59-230-229h500z" horiz-adv-x="1000"/><glyph glyph-name="arrow-right" unicode="󰁔" d="M167 392v-84h500L438 79l59-59 330 330-330 330-59-59 229-229H167z" horiz-adv-x="1000"/><glyph glyph-name="arrow-up" unicode="󰁝" d="M542 17h-84v500L229 288l-59 59 330 330 330-330-59-59-229 229V17z" horiz-adv-x="1000"/><glyph glyph-name="arrow-up-bold-circle-outline" unicode="󰁠" d="m500 558 208-208H583V183H417v167H292l208 208m0-625A417 417 0 0 0 83 350a417 417 0 0 0 417 417 417 417 0 0 0 417-417A417 417 0 0 0 500-67m0 84a333 333 0 0 1 333 333 333 333 0 0 1-333 333 333 333 0 0 1-333-333A333 333 0 0 1 500 17z" horiz-adv-x="1000"/><glyph glyph-name="at" unicode="󰁥" d="M500 225c34 0 63 13 88 37 25 26 37 54 37 88s-12 63-37 88-54 37-88 37-62-12-88-37c-24-25-37-54-37-88s13-62 37-88c26-24 54-37 88-37m0 542c115 0 213-42 294-123s123-179 123-294v-60c0-42-15-77-42-107-29-28-62-41-104-41-50 0-91 21-123 62-41-41-90-62-148-62-57 0-106 21-147 61-40 41-61 90-61 147s21 106 61 148c41 40 90 60 147 60 58 0 106-20 148-60 40-42 60-91 60-148v-60c0-17 7-32 20-45 12-13 27-20 43-20 17 0 32 7 44 20 13 13 18 28 18 45v60c0 91-32 170-98 235-65 66-144 98-235 98s-170-32-235-98c-66-65-98-144-98-235s32-170 98-235c65-66 144-98 235-98h208v-84H500C385-67 288-25 206 56 125 138 83 235 83 350s42 213 123 294c82 81 179 123 294 123z" horiz-adv-x="1000"/><glyph glyph-name="flask-outline" unicode="󰂖" d="M208 58a42 42 0 0 1 42-41h500a42 42 0 0 1 42 41c0 9-3 17-8 24L542 502v181h-84V502L216 82c-5-7-8-15-8-24m42-125A125 125 0 0 0 125 58c0 25 8 49 21 68l229 399v75a42 42 0 0 0-42 42v41a83 83 0 0 0 84 84h166a83 83 0 0 0 84-84v-41a42 42 0 0 0-42-42v-75l229-399c14-19 21-43 21-68A125 125 0 0 0 750-67H250m292 250 56 56 80-139H322l111 192 109-109m-21 167a21 21 0 0 0 21-21 21 21 0 0 0-21-21 21 21 0 0 0-21 21 21 21 0 0 0 21 21z" horiz-adv-x="1000"/><glyph glyph-name="bell-outline" unicode="󰂜" d="M417-25h166c0-46-37-83-83-83s-83 37-83 83m458 83V17H125v41l83 84v250c0 129 84 241 209 279v12c0 46 37 84 83 84s83-38 83-84v-12c125-38 209-150 209-279V142l83-84M708 392c0 116-91 208-208 208s-208-92-208-208V100h416v292z" horiz-adv-x="1000"/><glyph glyph-name="bookmark" unicode="󰃀" d="M708 725H292a83 83 0 0 1-84-83V-25l292 125L792-25v667c0 46-38 83-84 83z" horiz-adv-x="1000"/><glyph glyph-name="bookmark-outline" unicode="󰃃" d="m708 100-208 91-208-91v542h416m0 83H292c-46 0-84-37-84-83V-25l292 125L792-25v667c0 46-38 83-84 83z" horiz-adv-x="1000"/><glyph glyph-name="cellphone" unicode="󰄜" d="M708 58H292v584h416m0 166H292c-47 0-84-37-84-83V-25a83 83 0 0 1 84-83h416a83 83 0 0 1 84 83v750c0 46-38 83-84 83z" horiz-adv-x="1000"/><glyph glyph-name="chart-bar" unicode="󰄨" d="M917-25H83v750h84V58h83v375h167V58h83v542h167V58h83v209h167V-25z" horiz-adv-x="1000"/><glyph glyph-name="chart-line" unicode="󰄪" d="m667 359 176 306 72-42-217-377-272 156L228 58h689v-83H83v750h84V119l229 398 271-158z" horiz-adv-x="1000"/><glyph glyph-name="check" unicode="󰄬" d="M875 558 375 58 146 288l59 58 170-170 441 441 59-59z" horiz-adv-x="1000"/><glyph glyph-name="check-all" unicode="󰄭" d="M17 291 250 58l59 60L76 350m851 268L486 176 313 350l-60-59L486 58l500 500m-236 0-59 60-264-265 59-59 264 264z" horiz-adv-x="1000"/><glyph glyph-name="checkbox-blank-outline" unicode="󰄱" d="M792 725H208c-46 0-83-37-83-83V58a83 83 0 0 1 83-83h584a83 83 0 0 1 83 83v584c0 46-37 83-83 83m0-83V58H208v584h584z" horiz-adv-x="1000"/><glyph glyph-name="checkbox-marked" unicode="󰄲" d="M417 142 208 350l59 59 150-149 316 316 59-59m0 208H208c-46 0-83-37-83-83V58a83 83 0 0 1 83-83h584a83 83 0 0 1 83 83v584c0 46-37 83-83 83z" horiz-adv-x="1000"/><glyph glyph-name="chevron-down" unicode="󰅀" d="m309 493 191-192 191 192 59-60-250-250-250 250 59 60z" horiz-adv-x="1000"/><glyph glyph-name="chevron-left" unicode="󰅁" d="M642 159 451 350l191 191-59 59-250-250 250-250 59 59z" horiz-adv-x="1000"/><glyph glyph-name="chevron-right" unicode="󰅂" d="m358 159 191 191-191 191 59 59 250-250-250-250-59 59z" horiz-adv-x="1000"/><glyph glyph-name="chevron-up" unicode="󰅃" d="m309 208 191 191 191-191 59 59-250 250-250-250 59-59z" horiz-adv-x="1000"/><glyph glyph-name="clock-outline" unicode="󰅐" d="M500 17c183 0 333 150 333 333S683 683 500 683 167 533 167 350 317 17 500 17m0 750c229 0 417-188 417-417S729-67 500-67 83 121 83 350s188 417 417 417m147-623L458 333v225h84V367l164-164-59-59z" horiz-adv-x="1000"/><glyph glyph-name="close" unicode="󰅖" d="m792 583-59 59-233-233-233 233-59-59 233-233-233-233 59-59 233 233L733 58l59 59-233 233 233 233z" horiz-adv-x="1000"/><glyph glyph-name="close-circle" unicode="󰅙" d="M500 767c230 0 417-187 417-417S730-67 500-67 83 120 83 350s187 417 417 417m150-209L500 409 350 558l-58-58 149-150-149-150 58-58 150 149 150-149 58 58-149 150 149 150-58 58z" horiz-adv-x="1000"/><glyph glyph-name="close-circle-outline" unicode="󰅚" d="M500 17c-184 0-333 149-333 333s149 333 333 333 333-149 333-333S684 17 500 17m0 750C270 767 83 580 83 350S270-67 500-67s417 187 417 417-187 417-417 417m108-250L500 409 392 517l-59-59 108-108-108-108 59-59 108 108 108-108 59 59-108 108 108 108-59 59z" horiz-adv-x="1000"/><glyph glyph-name="code-brackets" unicode="󰅪" d="M625 683v-83h125V100H625V17h208v666m-666 0V17h208v83H250v500h125v83H167z" horiz-adv-x="1000"/><glyph glyph-name="code-tags" unicode="󰅴" d="m608 158 192 192-192 192 59 58 250-250-250-250-59 58m-216 0L200 350l192 192-59 58L83 350l250-250 59 58z" horiz-adv-x="1000"/><glyph glyph-name="cog-outline" unicode="󰅽" d="M500 517a167 167 0 0 0 167-167 167 167 0 0 0-167-167 167 167 0 0 0-167 167 167 167 0 0 0 167 167m0-84a83 83 0 0 1-83-83 83 83 0 0 1 83-83 83 83 0 0 1 83 83 83 83 0 0 1-83 83M417-67c-11 0-19 8-21 18L380 61c-26 11-48 25-70 42L206 60c-9-3-20 0-25 10L98 214c-6 9-3 20 5 26l87 70-2 40 2 42-87 68c-8 6-11 17-5 26l83 144c5 10 16 13 25 10l104-42c22 16 44 30 70 41l16 110c2 10 10 18 21 18h166c11 0 20-8 21-18l16-110c26-11 48-25 70-41l104 42c9 3 20 0 25-10l84-144c5-9 2-20-5-26l-88-68 3-42-3-42 88-68c7-6 10-17 5-26L819 70c-5-10-16-13-25-10l-104 42c-22-16-44-30-70-41L604-49c-1-10-10-18-21-18H417m52 750-16-108c-50-11-94-37-126-75l-100 44-32-54 88-65c-16-49-16-102 0-150l-88-65 31-54 102 43c32-36 75-63 125-73l15-109h64l15 108c50 11 93 38 126 74l101-43 31 54-88 65c16 48 16 101 0 150l88 65-32 54-100-44c-32 38-76 64-126 74l-16 109h-62z" horiz-adv-x="1000"/><glyph glyph-name="console" unicode="󰆍" d="M833 58v500H167V58h666m0 667a83 83 0 0 0 84-83V58a83 83 0 0 0-84-83H167a83 83 0 0 0-84 83v584c0 46 38 83 84 83h666M542 142v83h208v-83H542M399 308 232 475h118l138-137c16-17 16-43 0-60L351 142H233l166 166z" horiz-adv-x="1000"/><glyph glyph-name="content-copy" unicode="󰆏" d="M792-25H333v583h459m0 84H333a83 83 0 0 1-83-84V-25a83 83 0 0 1 83-83h459a83 83 0 0 1 83 83v583a83 83 0 0 1-83 84M667 808H167a83 83 0 0 1-84-83V142h84v583h500v83z" horiz-adv-x="1000"/><glyph glyph-name="credit-card-outline" unicode="󰆛" d="M833 517H167v83h666m0-500H167v250h666m0 333H167c-47 0-84-37-84-83V100a83 83 0 0 1 84-83h666a83 83 0 0 1 84 83v500c0 46-38 83-84 83z" horiz-adv-x="1000"/><glyph glyph-name="currency-usd" unicode="󰇁" d="M292 225h83c0-45 57-83 125-83s125 38 125 83c0 46-43 63-135 85-88 22-198 49-198 165 0 75 61 138 146 159v91h125v-91c84-21 145-84 145-159h-83c0 45-57 83-125 83s-125-38-125-83c0-46 43-62 135-85 88-22 198-49 198-165 0-75-61-138-145-159v-91H438v91c-85 21-146 84-146 159z" horiz-adv-x="1000"/><glyph glyph-name="dots-horizontal" unicode="󰇘" d="M667 350a83 83 0 0 0 83 83 83 83 0 0 0 83-83 83 83 0 0 0-83-83 83 83 0 0 0-83 83m-250 0a83 83 0 0 0 83 83 83 83 0 0 0 83-83 83 83 0 0 0-83-83 83 83 0 0 0-83 83m-250 0a83 83 0 0 0 83 83 83 83 0 0 0 83-83 83 83 0 0 0-83-83 83 83 0 0 0-83 83z" horiz-adv-x="1000"/><glyph glyph-name="dots-vertical" unicode="󰇙" d="M500 183a83 83 0 0 0 83-83 83 83 0 0 0-83-83 83 83 0 0 0-83 83 83 83 0 0 0 83 83m0 250a83 83 0 0 0 83-83 83 83 0 0 0-83-83 83 83 0 0 0-83 83 83 83 0 0 0 83 83m0 250a83 83 0 0 0 83-83 83 83 0 0 0-83-83 83 83 0 0 0-83 83 83 83 0 0 0 83 83z" horiz-adv-x="1000"/><glyph glyph-name="drag-vertical" unicode="󰇝" d="M375 725h83v-83h-83v83m167 0h83v-83h-83v83M375 558h83v-83h-83v83m167 0h83v-83h-83v83M375 392h83v-84h-83v84m167 0h83v-84h-83v84M375 225h83v-83h-83v83m167 0h83v-83h-83v83M375 58h83v-83h-83v83m167 0h83v-83h-83v83z" horiz-adv-x="1000"/><glyph glyph-name="email-outline" unicode="󰇰" d="M917 600c0 46-38 83-84 83H167c-46 0-84-37-84-83V100c0-46 38-83 84-83h666c46 0 84 37 84 83v500m-84 0L500 392 167 600h666m0-500H167v417l333-209 333 209V100z" horiz-adv-x="1000"/><glyph glyph-name="emoticon-outline" unicode="󰇲" d="M500 121c97 0 179 61 213 146H287c33-85 116-146 213-146M354 392a63 63 0 0 1 63 62 63 63 0 0 1-63 63 63 63 0 0 1-62-63 63 63 0 0 1 62-62m292 0a63 63 0 0 1 62 62 63 63 0 0 1-62 63 63 63 0 0 1-63-63 63 63 0 0 1 63-62M500 17a333 333 0 0 0-333 333 333 333 0 0 0 333 333 333 333 0 0 0 333-333A333 333 0 0 0 500 17m0 750C270 767 83 579 83 350A417 417 0 0 1 500-67a417 417 0 0 1 417 417 417 417 0 0 1-417 417z" horiz-adv-x="1000"/><glyph glyph-name="emoticon-happy-outline" unicode="󰇵" d="M833 350a333 333 0 0 1-333 333 333 333 0 0 1-333-333A333 333 0 0 1 500 17a333 333 0 0 1 333 333m84 0A417 417 0 0 0 500-67 417 417 0 0 0 83 350a417 417 0 0 0 417 417 417 417 0 0 0 417-417M417 454c0-33-29-62-63-62-33 0-62 29-62 62 0 34 29 63 62 63 34 0 63-29 63-63m291 0c0-33-29-62-62-62s-63 29-63 62c0 34 30 63 63 63s62-29 62-63M500 132c-73 0-137 31-175 76l60 59c18-30 63-52 115-52s97 22 115 52l60-59c-38-45-102-76-175-76z" horiz-adv-x="1000"/><glyph glyph-name="exit-to-app" unicode="󰈆" d="M792 725H208c-46 0-83-37-83-83V475h83v167h584V58H208v167h-83V58c0-46 37-83 83-83h584c46 0 83 37 83 83v584c0 46-37 83-83 83M420 201l59-59 209 208-209 208-59-58 108-108H125v-84h403L420 201z" horiz-adv-x="1000"/><glyph glyph-name="file-generic-outline" unicode="󰈤" d="M583 767H250a83 83 0 0 1-83-84V17a83 83 0 0 1 83-84h500a83 83 0 0 1 83 84v500L583 767M750 17H250v666h292V475h208V17z" horiz-adv-x="1000"/><glyph glyph-name="filter-variant" unicode="󰈶" d="M250 308h500v84H250M125 600v-83h750v83M417 100h166v83H417v-83z" horiz-adv-x="1000"/><glyph glyph-name="fire" unicode="󰈸" d="M492 600c4-4 8-12 12-17 17-25 46-54 88-91 33-29 58-54 71-71 20-25 37-50 50-75 12-29 16-67 16-100 0-42-8-79-29-113-21-37-50-62-83-83-38-25-75-33-117-33s-79 8-112 29c-38 21-63 50-84 83s-29 71-29 113c0 37 8 71 25 104 0 0 0 4 4 4v-58c0-42 17-79 42-104 29-30 67-42 104-42s79 17 104 42c29 29 42 66 42 104 0 25-8 50-21 75-4 12-12 29-29 54-25 42-38 67-46 79-8 29-12 54-12 83 4 9 4 13 4 17m8 167h-4c-13 0-21-9-29-17-34-54-54-104-59-154-4-42 5-79 17-121 8-21 25-54 50-92 13-20 21-37 25-45 8-13 13-25 13-38 0-17-5-33-17-46-13-12-29-16-46-16s-33 4-46 16c-12 13-16 29-16 46v171c0 17-9 25-21 33-13 4-17 4-25 4s-13 0-21-4c-42-29-75-66-96-112-25-46-37-96-37-146 0-58 12-108 41-154S296 4 342-21s100-42 158-42 108 13 158 42 88 67 113 113c29 46 42 100 42 154 0 46-9 92-25 133-13 34-34 63-63 96-17 17-42 46-75 75-37 33-62 63-75 79-21 34-33 63-33 96 0 13-4 21-13 29-12 9-21 13-29 13z" horiz-adv-x="1000"/><glyph glyph-name="flag" unicode="󰈻" d="m600 600-17 83H208V-25h84v292h233l17-84h291v417H600z" horiz-adv-x="1000"/><glyph glyph-name="flag-outline" unicode="󰈽" d="m517 600 16-83h217V267H608l-16 83H292v250h225m66 83H208V-25h84v292h233l17-84h291v417H600" horiz-adv-x="1000"/><glyph glyph-name="folder-outline" unicode="󰉖" d="M833 100H167v417h666m0 83H500l-83 83H167c-47 0-84-37-84-83V100a83 83 0 0 1 84-83h666a83 83 0 0 1 84 83v417c0 46-38 83-84 83z" horiz-adv-x="1000"/><glyph glyph-name="format-bold" unicode="󰉤" d="M650 400c40 28 69 74 69 117 0 94-73 166-167 166H292V100h293c87 0 155 71 155 158 0 63-36 117-90 142zM417 579h125c34 0 62-28 62-62s-28-63-62-63H417v125zm146-375H417v125h146c34 0 62-28 62-62s-28-63-62-63z" horiz-adv-x="1000"/><glyph glyph-name="format-clear" unicode="󰉥" d="m136 642-53-53 291-291L271 58h125l65 153L697-25l53 53-602 602-12 12zm114 0v-8l118-117h100l-30-70 87-88 67 158h241v125H250z" horiz-adv-x="1000"/><glyph glyph-name="format-header-1" unicode="󰉫" d="M125 683h83V433h167v250h83V100h-83v250H208V100h-83v583m458-583v83h84v404l-104-60v96l104 60h83V183h83v-83H583z" horiz-adv-x="1000"/><glyph glyph-name="format-header-2" unicode="󰉬" d="M125 683h83V433h167v250h83V100h-83v250H208V100h-83v583m750-583H625a83 83 0 0 0-83 83c0 22 8 42 22 57l203 218c16 15 25 36 25 59a83 83 0 0 1-84 83 83 83 0 0 1-83-83h-83a167 167 0 0 0 166 166 167 167 0 0 0 167-166c0-46-19-88-49-118L625 183h250v-83z" horiz-adv-x="1000"/><glyph glyph-name="format-header-3" unicode="󰉭" d="M125 683h83V433h167v250h83V100h-83v250H208V100h-83v583m500 0h167a83 83 0 0 0 83-83V183a83 83 0 0 0-83-83H625a83 83 0 0 0-83 83v42h83v-42h167v167H625v83h167v167H625v-42h-83v42a83 83 0 0 0 83 83z" horiz-adv-x="1000"/><glyph glyph-name="format-header-4" unicode="󰉮" d="M125 683h83V433h167v250h83V100h-83v250H208V100h-83v583m625-583v208H542v84l208 291h83V392h42v-84h-42V100h-83m0 292v149L644 392h106z" horiz-adv-x="1000"/><glyph glyph-name="format-header-5" unicode="󰉯" d="M125 683h83V433h167v250h83V100h-83v250H208V100h-83v583m500 0h208v-83H625V433h83a167 167 0 0 0 167-166 167 167 0 0 0-167-167h-83a83 83 0 0 0-83 83v42h83v-42h83a83 83 0 0 1 84 84 83 83 0 0 1-84 83h-83a83 83 0 0 0-83 83v167a83 83 0 0 0 83 83z" horiz-adv-x="1000"/><glyph glyph-name="format-header-6" unicode="󰉰" d="M125 683h83V433h167v250h83V100h-83v250H208V100h-83v583m500 0h167a83 83 0 0 0 83-83v-42h-83v42H625V433h167a83 83 0 0 0 83-83V183a83 83 0 0 0-83-83H625a83 83 0 0 0-83 83v417a83 83 0 0 0 83 83m0-333V183h167v167H625z" horiz-adv-x="1000"/><glyph glyph-name="format-italic" unicode="󰉷" d="M417 683V558h92L366 225H250V100h333v125h-92l143 333h116v125z" horiz-adv-x="1000"/><glyph glyph-name="format-list-bulleted" unicode="󰉹" d="M292 642h583v-84H292v84m0-334v84h583v-84H292M167 663a63 63 0 0 0 62-63 63 63 0 0 0-62-62 63 63 0 0 0-63 62 63 63 0 0 0 63 63m0-250a63 63 0 0 0 62-63 63 63 0 0 0-62-62 63 63 0 0 0-63 62 63 63 0 0 0 63 63M292 58v84h583V58H292M167 163a63 63 0 0 0 62-63 63 63 0 0 0-62-62 63 63 0 0 0-63 62 63 63 0 0 0 63 63z" horiz-adv-x="1000"/><glyph glyph-name="format-list-numbered" unicode="󰉻" d="M292 308v84h583v-84H292m0-250v84h583V58H292m0 500v84h583v-84H292m-167-41v125H83v41h84V517h-42M83 142v41h125V17H83v41h84v21h-42v42h42v21H83m94 291a31 31 0 0 0 31-31c0-8-3-16-8-22l-70-72h78v-41H83v38l84 87H83v41h94z" horiz-adv-x="1000"/><glyph glyph-name="format-strikethrough-variant" unicode="󰊁" d="M285 555c0 113 109 170 225 170 68 0 125-20 163-53 32-27 60-72 60-135H608c0 13-2 24-6 35-12 36-50 53-94 53-78 0-98-42-98-70 0-20 11-37 31-51 16-10 32-20 59-29H308c-9 14-23 37-23 80zm590-205v83H125v-83h401c48-19 82-31 82-82 0-42-34-70-95-70-65 0-123 23-123 105H267c0-23 3-47 10-66 33-95 137-137 236-137 95 0 221 37 221 168 0 13-1 49-20 81h161v1z" horiz-adv-x="1000"/><glyph glyph-name="github-circle" unicode="󰊤" d="M500 767A417 417 0 0 1 83 350C83 166 203 10 368-46c21-3 28 10 28 21v70c-116-25-140 56-140 56-19 49-46 62-46 62-38 25 3 25 3 25 41-3 63-43 63-43 37-64 98-45 122-35 3 27 14 45 26 56-93 10-190 46-190 205 0 46 16 83 43 113-4 10-19 54 4 110 0 0 35 11 115-43 33 9 69 14 104 14s71-5 104-14c80 54 115 43 115 43 23-56 8-100 4-110 27-30 43-67 43-113 0-159-98-194-191-205 15-13 29-38 29-77V-25c0-11 7-25 28-21 166 56 285 212 285 396a417 417 0 0 1-417 417z" horiz-adv-x="1000"/><glyph glyph-name="glasses" unicode="󰊪" d="M125 433c-10 0-19-3-25-10-5-6-8-15-7-25l21-125c4-27 28-48 53-48h125c26 0 56 23 62 49l44 133c2 6 1 13-2 18-5 5-12 8-21 8H125m167-291H167c-68 0-127 52-135 119L11 385c-5 36 5 69 27 93 22 25 53 39 87 39h250c35 0 66-15 86-40 4-7 9-13 12-21 18 4 36 4 54 0 3 8 7 14 12 21 20 25 51 40 86 40h250c34 0 65-14 87-39 21-24 31-57 27-91l-21-128c-8-65-68-117-135-117H708c-65 0-128 49-144 112l-37 113c-16 12-38 12-54 0l-38-116c-15-60-78-109-143-109m333 291c-9 0-16-3-21-8-3-5-4-12-2-21l42-127c8-29 38-52 64-52h125c25 0 50 21 52 46l22 128c1 9-2 18-7 24-6 7-15 10-25 10H625z" horiz-adv-x="1000"/><glyph glyph-name="brand-google" unicode="󰊭" d="M668 539c-43 41-100 64-160 63-108 0-201-74-234-172-17-52-17-108 0-160 34-98 126-172 234-172 57 0 105 15 142 40 44 29 74 75 83 127H508v160h393c5-28 7-56 7-84 0-127-45-234-124-307C715-30 621-67 508-67c-157 0-301 89-372 230-59 118-59 256 0 374 71 141 215 230 372 230 104 1 204-38 279-109L668 539z" horiz-adv-x="1000"/><glyph glyph-name="heart-outline" unicode="󰋕" d="m504 77-4-4-5 4C298 257 167 375 167 496c0 83 62 146 146 146 64 0 126-42 148-99h78c22 57 84 99 149 99 83 0 145-63 145-146 0-121-130-239-329-419m184 648c-73 0-143-34-188-87-45 53-115 87-187 87-129 0-230-100-230-229 0-157 142-286 357-481l60-55 60 55c215 195 357 324 357 481 0 129-101 229-229 229z" horiz-adv-x="1000"/><glyph glyph-name="help" unicode="󰋖" d="M417 58h125V-67H417V58m83 709c223-9 320-234 188-403-35-42-91-69-118-104-28-35-28-77-28-118H417c0 69 0 128 28 170 27 41 83 66 118 93 100 94 75 226-63 237a125 125 0 0 1-125-125H250a250 250 0 0 0 250 250z" horiz-adv-x="1000"/><glyph glyph-name="information-outline" unicode="󰋽" d="M458 475h84v83h-84m42-541c-184 0-333 149-333 333s149 333 333 333 333-149 333-333S684 17 500 17m0 750A417 417 0 0 1 83 350 417 417 0 0 1 500-67a417 417 0 0 1 417 417 417 417 0 0 1-417 417m-42-625h84v250h-84V142z" horiz-adv-x="1000"/><glyph glyph-name="key-variant" unicode="󰌋" d="M727 575c16-17 25-36 25-58s-9-41-25-57c-17-17-36-25-58-25s-41 8-58 25c-16 16-24 35-24 57s8 41 24 58c17 16 36 25 58 25s41-9 58-25zm118 118c-49 49-109 74-179 74-66 0-123-25-173-74-38-39-62-84-71-137-8-51 1-100 24-146L83 49 199-67 317 51 435-67 551 49 433 166l129 129c46-24 94-32 146-24 53 9 99 32 137 71 50 49 73 108 72 175 1 68-22 126-72 176z" horiz-adv-x="1000"/><glyph glyph-name="laptop" unicode="󰌢" d="M167 600h666V183H167m666-83a83 83 0 0 1 84 83v417c0 46-38 83-84 83H167c-47 0-84-37-84-83V183a83 83 0 0 1 84-83H0V17h1000v83H833z" horiz-adv-x="1000"/><glyph glyph-name="leaf" unicode="󰌪" d="M708 517C333 433 246 176 159-39l79-28 40 96c20-7 40-12 55-12 459 0 584 708 584 708-42-83-334-94-542-135C167 548 83 371 83 288c0-84 73-157 73-157 136 386 552 386 552 386z" horiz-adv-x="1000"/><glyph glyph-name="lightbulb-outline" unicode="󰌶" d="M500 767a292 292 0 0 0 292-292c0-99-50-186-125-239v-94a42 42 0 0 0-42-42H375a42 42 0 0 0-42 42v94c-75 53-125 140-125 239a292 292 0 0 0 292 292M375-25v42h250v-42a42 42 0 0 0-42-42H417a42 42 0 0 0-42 42m125 708a208 208 0 0 1-208-208c0-85 51-159 125-191V183h166v101c74 32 125 106 125 191a208 208 0 0 1-208 208z" horiz-adv-x="1000"/><glyph glyph-name="link-variant" unicode="󰌹" d="M441 291c17-16 17-43 0-59-16-16-43-16-59 0-81 81-81 213 0 295l148 147c81 81 213 81 294 0s81-213 0-294l-62-62c1 34-5 68-17 100l20 20c49 49 49 128 0 177s-128 49-177 0L441 468c-49-49-49-128 0-177m118 177c16 16 43 16 59 0 81-81 81-213 0-295L470 26c-81-81-213-81-294 0s-81 213 0 294l62 63c0-35 5-69 17-102l-20-19c-49-49-49-128 0-177s128-49 177 0l147 147c49 49 49 128 0 177-17 16-17 43 0 59z" horiz-adv-x="1000"/><glyph glyph-name="link-variant-off" unicode="󰌺" d="m83 630 54 53L833-13l-53-54-201 202L470 26c-81-81-213-81-294 0s-81 213 0 294l62 63c0-35 5-69 17-102l-20-19c-49-49-49-128 0-177s128-49 177 0l109 108-68 67c0-10-4-20-12-28-16-16-43-16-59 0-44 44-64 103-60 160L83 630m447 44c81 81 213 81 294 0s81-213 0-294l-62-62c1 34-5 68-17 100l20 20c49 49 49 128 0 177s-128 49-177 0L450 476l-59 59 139 139m29-206c16 16 43 16 59 0 57-57 74-139 51-211l-74 74c-2 28-14 56-36 78-17 16-17 43 0 59z" horiz-adv-x="1000"/><glyph glyph-name="lock" unicode="󰌾" d="M750 475c46 0 83-37 83-83V17c0-46-37-84-83-84H250c-46 0-83 38-83 84v375c0 46 37 83 83 83h42v83c0 117 91 209 208 209s208-92 208-209v-83h42M500 683c-71 0-125-54-125-125v-83h250v83c0 71-54 125-125 125z" horiz-adv-x="1000"/><glyph glyph-name="lock-outline" unicode="󰍁" d="M750 17v375H250V17h500m0 458c46 0 83-37 83-83V17c0-46-37-84-83-84H250c-46 0-83 38-83 84v375c0 46 37 83 83 83h42v83c0 117 91 209 208 209s208-92 208-209v-83h42M500 683c-71 0-125-54-125-125v-83h250v83c0 71-54 125-125 125z" horiz-adv-x="1000"/><glyph glyph-name="magnify" unicode="󰍉" d="M843 66 685 223c41 52 65 118 65 190 0 172-140 312-312 312S125 585 125 413s140-313 313-313c71 0 136 24 189 64L784 8c16-16 42-16 59 0 15 16 15 41 0 58zM208 413c0 126 103 229 230 229s229-103 229-229-103-230-229-230-230 103-230 230z" horiz-adv-x="1000"/><glyph glyph-name="magnify-minus" unicode="󰍊" d="M375 767a292 292 0 0 0 292-292c0-65-21-125-58-175l33-33h25L917 17l-84-84-250 250v25l-33 33c-50-37-110-58-175-58A292 292 0 0 0 83 475a292 292 0 0 0 292 292M208 517v-84h334v84H208z" horiz-adv-x="1000"/><glyph glyph-name="magnify-plus" unicode="󰍋" d="M375 767a292 292 0 0 0 292-292c0-65-21-125-58-175l33-33h25L917 17l-84-84-250 250v25l-33 33c-50-37-110-58-175-58A292 292 0 0 0 83 475a292 292 0 0 0 292 292m-42-125V517H208v-84h125V308h84v125h125v84H417v125h-84z" horiz-adv-x="1000"/><glyph glyph-name="menu" unicode="󰍜" d="M125 600h750v-83H125v83m0-208h750v-84H125v84m0-209h750v-83H125v83z" horiz-adv-x="1000"/><glyph glyph-name="menu-down" unicode="󰍝" d="m292 433 208-208 208 208H292z" horiz-adv-x="1000"/><glyph glyph-name="menu-left" unicode="󰍞" d="M583 558 375 350l208-208v416z" horiz-adv-x="1000"/><glyph glyph-name="menu-right" unicode="󰍟" d="m417 142 208 208-208 208V142z" horiz-adv-x="1000"/><glyph glyph-name="menu-up" unicode="󰍠" d="m292 225 208 208 208-208H292z" horiz-adv-x="1000"/><glyph glyph-name="message-text-outline" unicode="󰍪" d="M833 767a83 83 0 0 0 84-84V183a83 83 0 0 0-84-83H250L83-67v750c0 47 38 84 84 84h666m-666-84V135l48 48h618v500H167m83-125h500v-83H250v83m0-166h375v-84H250v84z" horiz-adv-x="1000"/><glyph glyph-name="microphone" unicode="󰍬" d="M500 767a125 125 0 0 0 125-125V392a125 125 0 0 0-125-125 125 125 0 0 0-125 125v250a125 125 0 0 0 125 125m292-375c0-147-109-269-250-289V-25h-84v128c-141 20-250 142-250 289h84a208 208 0 0 1 208-209 208 208 0 0 1 208 209h84z" horiz-adv-x="1000"/><glyph glyph-name="microphone-off" unicode="󰍭" d="M792 392c0-50-14-96-38-137l-51 51c11 26 18 55 18 86h71m-167-7L375 634v8a125 125 0 0 0 125 125 125 125 0 0 0 125-125V385M178 725 875 28l-53-53-174 175c-33-20-68-32-106-38V-25h-84v137c-136 20-250 138-250 280h71c0-125 106-213 221-213 34 0 67 8 96 22l-69 69-27-3a125 125 0 0 0-125 125v30L125 672l53 53z" horiz-adv-x="1000"/><glyph glyph-name="minus" unicode="󰍴" d="M792 308H208v84h584v-84z" horiz-adv-x="1000"/><glyph glyph-name="minus-box" unicode="󰍵" d="M708 308H292v84h416m84 333H208c-46 0-83-37-83-83V58a83 83 0 0 1 83-83h584a83 83 0 0 1 83 83v584c0 46-37 83-83 83z" horiz-adv-x="1000"/><glyph glyph-name="minus-circle" unicode="󰍶" d="M708 308H292v84h416M500 767C271 767 83 579 83 350S271-67 500-67s417 188 417 417-188 417-417 417z" horiz-adv-x="1000"/><glyph glyph-name="minus-circle-outline" unicode="󰍷" d="M500 17c-184 0-333 149-333 333s149 333 333 333 333-149 333-333S684 17 500 17m0 750A417 417 0 0 1 83 350 417 417 0 0 1 500-67a417 417 0 0 1 417 417 417 417 0 0 1-417 417M292 308h416v84H292" horiz-adv-x="1000"/><glyph glyph-name="monitor" unicode="󰍹" d="M875 183H125v500h750m0 84H125c-46 0-83-37-83-84V183a83 83 0 0 1 83-83h292V17h-84v-84h334v84h-84v83h292a83 83 0 0 1 83 83v500c0 47-37 84-83 84z" horiz-adv-x="1000"/><glyph glyph-name="brand-office-365" unicode="󰏆" d="M125 100v500l500 146 250-63V38L604-46 167 100l458-62v604l-333-84V163l-167-63z" horiz-adv-x="1000"/><glyph glyph-name="open-in-new" unicode="󰏌" d="M583 725v-83h150L323 232l59-59 410 410V433h83v292M792 58H208v584h292v83H208c-46 0-83-37-83-83V58a83 83 0 0 1 83-83h584a83 83 0 0 1 83 83v292h-83V58z" horiz-adv-x="1000"/><glyph glyph-name="paperclip" unicode="󰏢" d="M688 558V163C688 71 613-4 521-4S354 71 354 163v437c0 58 47 104 104 104s105-46 105-104V204c0-23-19-41-42-41s-42 18-42 41v354h-62V204c0-57 46-104 104-104s104 47 104 104v396c0 92-75 167-167 167s-166-75-166-167V163C292 36 394-67 521-67S750 36 750 163v395h-62z" horiz-adv-x="1000"/><glyph glyph-name="pause" unicode="󰏤" d="M583 58h167v584H583M250 58h167v584H250V58z" horiz-adv-x="1000"/><glyph glyph-name="phone-hangup" unicode="󰏵" d="M500 475c-67 0-131-10-192-30V316c0-17-9-31-23-38-41-20-78-46-111-77-7-7-18-12-28-12-13 0-23 5-31 13L12 305c-7 8-12 18-12 29 0 12 5 22 12 30 127 121 299 194 488 194s361-73 488-194c7-8 12-18 12-30 0-11-5-21-12-29L885 202c-8-8-18-13-31-13-10 0-21 5-28 12-33 31-70 57-111 77-14 7-23 21-23 38v129c-61 20-125 30-192 30z" horiz-adv-x="1000"/><glyph glyph-name="phone-in-talk" unicode="󰏶" d="M625 350h83a208 208 0 0 1-208 208v-83a125 125 0 0 0 125-125m167 0h83c0 208-168 375-375 375v-83c161 0 292-131 292-292m41-146c-52 0-102 9-148 24-15 5-31 1-43-10l-92-92c-117 60-214 157-274 274l92 92c11 12 15 28 10 43-15 46-24 96-24 148a42 42 0 0 1-41 42H167a42 42 0 0 1-42-42A708 708 0 0 1 833-25a42 42 0 0 1 42 42v146a42 42 0 0 1-42 41z" horiz-adv-x="1000"/><glyph glyph-name="pin" unicode="󰐃" d="m904 442-41 41-271 271c-17 17-42 17-59 0-16-16-16-41 0-58l13-13-183-183c-71 8-142 0-209-29-16-4-25-17-29-29 0-13 4-29 13-38l179-179L146 58 104-46 208-4l167 167L550-17c8-8 25-12 38-12 12 4 25 12 29 25 25 67 37 137 29 208l187 192 13-13c17-16 42-16 58 0 17 17 17 42 0 59z" horiz-adv-x="1000"/><glyph glyph-name="play" unicode="󰐊" d="M333 636V53l459 291-459 292z" horiz-adv-x="1000"/><glyph glyph-name="plus" unicode="󰐕" d="M792 308H542V58h-84v250H208v84h250v250h84V392h250v-84z" horiz-adv-x="1000"/><glyph glyph-name="plus-box" unicode="󰐖" d="M708 308H542V142h-84v166H292v84h166v166h84V392h166m84 333H208c-46 0-83-37-83-83V58a83 83 0 0 1 83-83h584a83 83 0 0 1 83 83v584c0 46-37 83-83 83z" horiz-adv-x="1000"/><glyph glyph-name="pound" unicode="󰐣" d="m225-25 30 167H88l15 83h167l44 250H147l15 83h166l30 167h83l-29-167h250l29 167h84l-30-167h167l-15-83H730l-44-250h167l-15-83H672L642-25h-83l29 167H338L309-25h-84m172 500-44-250h250l44 250H397z" horiz-adv-x="1000"/><glyph glyph-name="radiobox-blank" unicode="󰐽" d="M500 17a333 333 0 0 0-333 333 333 333 0 0 0 333 333 333 333 0 0 0 333-333A333 333 0 0 0 500 17m0 750A417 417 0 0 1 83 350 417 417 0 0 1 500-67a417 417 0 0 1 417 417 417 417 0 0 1-417 417z" horiz-adv-x="1000"/><glyph glyph-name="radiobox-marked" unicode="󰐾" d="M500 17a333 333 0 0 0-333 333 333 333 0 0 0 333 333 333 333 0 0 0 333-333A333 333 0 0 0 500 17m0 750A417 417 0 0 1 83 350 417 417 0 0 1 500-67a417 417 0 0 1 417 417 417 417 0 0 1-417 417m0-209a208 208 0 0 1-208-208 208 208 0 0 1 208-208 208 208 0 0 1 208 208 208 208 0 0 1-208 208z" horiz-adv-x="1000"/><glyph glyph-name="refresh" unicode="󰑐" d="M735 585c-60 61-143 98-235 98a333 333 0 0 1-333-333A333 333 0 0 1 500 17c155 0 285 106 322 250h-87c-34-97-126-167-235-167a250 250 0 0 0-250 250 250 250 0 0 0 250 250c69 0 131-29 176-74L542 392h291v291l-98-98z" horiz-adv-x="1000"/><glyph glyph-name="send" unicode="󰒊" d="m83-25 875 375L83 725V433l625-83-625-83V-25z" horiz-adv-x="1000"/><glyph glyph-name="shield-outline" unicode="󰒙" d="M875 392c0-232-160-448-375-500-215 52-375 268-375 500v250l375 166 375-166V392M500-25c156 42 292 228 292 408v205L500 718 208 588V383c0-180 136-366 292-408z" horiz-adv-x="1000"/><glyph glyph-name="sitemap" unicode="󰒪" d="M833 175v133c0 46-37 84-83 84H542v133c50 17 83 63 83 117 0 71-54 125-125 125s-125-54-125-125c0-54 33-100 83-117V392H250c-46 0-83-38-83-84V175c-50-17-84-62-84-117 0-71 55-125 125-125S333-13 333 58c0 55-33 100-83 117v133h208V175c-50-17-83-62-83-117 0-71 54-125 125-125S625-13 625 58c0 55-33 100-83 117v133h208V175c-50-17-83-62-83-117 0-71 54-125 125-125S917-13 917 58c0 55-34 100-84 117z" horiz-adv-x="1000"/><glyph glyph-name="soccer" unicode="󰒸" d="M500 767A417 417 0 0 1 83 350 417 417 0 0 1 500-67a417 417 0 0 1 417 417 417 417 0 0 1-417 417m0-42c73 0 142-22 199-59l-11-24H500l-72 35 15 43c19 3 37 5 57 5m-103-16-14-43-107-53-52-10c47 50 106 87 173 106m145-109h125l112-150-52-107-110-25-137 160 62 122m-285-27 35-140-51-127-107-37c-6 26-9 53-9 81 0 79 25 152 66 212l66 11m600-107c12-36 18-76 18-116 0-60-15-116-40-167h-43l-35 140 62 125 38 18m-524-33h125l117-136-75-114-132-32-96 129 61 153m167-291 125-84-36-71c-29-7-59-12-89-12-73 0-140 21-198 57l48 72 150 38m292 0h21C771 79 708 30 638 3l29 55 125 84z" horiz-adv-x="1000"/><glyph glyph-name="source-pull" unicode="󰓂" d="M250 725a125 125 0 0 0 125-125c0-55-35-101-83-118V218c48-17 83-63 83-118A125 125 0 0 0 250-25a125 125 0 0 0-125 125c0 55 35 101 83 118v264c-48 17-83 63-83 118a125 125 0 0 0 125 125m0-83a42 42 0 0 1-42-42 42 42 0 0 1 42-42 42 42 0 0 1 42 42 42 42 0 0 1-42 42m0-500a42 42 0 0 1-42-42 42 42 0 0 1 42-42 42 42 0 0 1 42 42 42 42 0 0 1-42 42m625-42A125 125 0 0 0 750-25a125 125 0 0 0-125 125c0 55 35 101 83 118v340h-83V423L448 600l177 177V642h83a83 83 0 0 0 84-84V218c48-17 83-63 83-118m-125 42a42 42 0 0 1-42-42 42 42 0 0 1 42-42 42 42 0 0 1 42 42 42 42 0 0 1-42 42z" horiz-adv-x="1000"/><glyph glyph-name="star" unicode="󰓎" d="M500 116 732-24c17-10 38 5 33 24l-61 264 205 178c15 13 7 37-13 39l-270 23-105 249c-8 18-34 18-41 0L374 504l-270-23c-20-2-28-26-13-39l205-178L235 0c-5-19 16-34 33-24l232 140z" horiz-adv-x="1000"/><glyph glyph-name="star-outline" unicode="󰓒" d="m500 615 59-139 17-40 44-4 151-13-115-100-33-28 10-43 34-147-129 78-38 22-38-22-129-79 34 148 10 43-33 28-115 100 151 13 44 4 17 40 59 139m0 152c-8 0-17-5-20-14L374 504l-270-23c-20-2-28-26-13-39l205-178L235 0c-4-15 8-27 21-27 4 0 8 1 12 3l232 140L732-24c4-2 8-3 12-3 13 0 25 12 21 27l-61 264 205 178c15 13 7 37-13 39l-270 23-105 249c-4 9-13 14-21 14z" horiz-adv-x="1000"/><glyph glyph-name="sync" unicode="󰓦" d="M500 100a250 250 0 0 0-250 250c0 42 10 82 29 117l-61 61c-32-52-51-113-51-178A333 333 0 0 1 500 17v-125L667 58 500 225m0 458v125L333 642l167-167v125a250 250 0 0 0 250-250c0-42-10-82-29-117l61-60c32 51 51 112 51 177a333 333 0 0 1-333 333z" horiz-adv-x="1000"/><glyph glyph-name="thumbs-up-down" unicode="󰔕" d="M938 433H656c-26 0-48-15-57-38l-94-220c-3-7-5-15-5-23v-52a42 42 0 0 1 42-42h216L729-74v-10c0-13 6-24 14-34l33-32L982 56c11 11 18 27 18 44v271a63 63 0 0 1-62 62M500 600a42 42 0 0 1-42 42H243l28 132v10c0 13-6 24-14 33l-33 33L18 644C7 633 0 617 0 600V329a63 63 0 0 1 63-62h281c26 0 48 16 57 38l94 220c3 7 5 15 5 23v52z" horiz-adv-x="1000"/><glyph glyph-name="beach-umbrella-outline" unicode="󰕋" d="M329 521c75 75 179 108 275 100-25-33-46-75-50-117-54-4-104-29-141-66-38-38-63-88-71-142-42-8-84-25-117-50-8 100 29 200 104 275m-58 62C125 438 104 213 213 50c0 42 16 88 50 121 45 46 108 58 166 46-16 54-4 121 46 166 46 46 108 59 167 46-17 54 0 121 46 167 33 33 75 50 116 50-166 100-387 83-533-63zM858 50 800-8 504 288l59 58L858 50z" horiz-adv-x="1000"/><glyph glyph-name="volume-high" unicode="󰕾" d="M583 715v-85c121-36 209-148 209-280S704 107 583 71v-86c167 38 292 187 292 365S750 678 583 715m105-365c0 74-42 137-105 168V183c63 30 105 94 105 167M125 475V225h167L500 17v666L292 475H125z" horiz-adv-x="1000"/><glyph glyph-name="sort-alphabetical-ascending" unicode="󰖽" d="M792 142h125L750-25 583 142h125v583h84M458 308v-83L320 58h138v-83H208v83l139 167H208v83m167 417h-83c-46 0-84-37-84-83V392h84v83h83v-83h83v250c0 46-37 83-83 83m0-167h-83v84h83z" horiz-adv-x="1000"/><glyph glyph-name="playlist-check" unicode="󰗇" d="M583 433H83v-83h500v83m0 167H83v-83h500v83M83 183h334v84H83v-84m813 188 62-63L667 17 479 204l63 63 125-125 229 229z" horiz-adv-x="1000"/><glyph glyph-name="alert-circle-outline" unicode="󰗖" d="M500 767C271 767 83 579 83 350S271-67 500-67s417 188 417 417-188 417-417 417m0-750c-183 0-333 150-333 333s150 333 333 333 333-150 333-333S683 17 500 17zm21 291h-42l-21 250h84l-21-250zm21-125c0-23-19-41-42-41s-42 18-42 41 19 42 42 42 42-19 42-42z" horiz-adv-x="1000"/><glyph glyph-name="check-circle" unicode="󰗠" d="M500 767C270 767 83 580 83 350S270-67 500-67s417 187 417 417-187 417-417 417zm-73-612-59 58-118 118 59 59 118-118 265 266 59-59-324-324z" horiz-adv-x="1000"/><glyph glyph-name="check-circle-outline" unicode="󰗡" d="M500 767C271 767 83 579 83 350S271-67 500-67s417 188 417 417-188 417-417 417m0-750c-184 0-333 149-333 333s149 333 333 333 333-149 333-333S684 17 500 17m191 517L417 260 309 367l-59-59 167-166 333 333-59 59z" horiz-adv-x="1000"/><glyph glyph-name="email-variant" unicode="󰗰" d="M500 308 83 568v32c0 46 37 83 84 83h666a83 83 0 0 0 84-83v-31L500 308m417-208a83 83 0 0 0-84-83H167c-47 0-84 37-84 83v370l84-52V100h666v318l84 52V100z" horiz-adv-x="1000"/><glyph glyph-name="food-fork-drink" unicode="󰗲" d="M125 725a42 42 0 0 1-42-42V454c0-70 43-130 105-155V38a63 63 0 0 1 62-63 63 63 0 0 1 63 63v261c61 25 104 85 104 155v229a42 42 0 0 1-42 42 42 42 0 0 1-42-42V517a21 21 0 0 0-20-21 21 21 0 0 0-21 21v166a42 42 0 0 1-42 42 42 42 0 0 1-42-42V517a21 21 0 0 0-20-21 21 21 0 0 0-21 21v166a42 42 0 0 1-42 42m703 0c-5 0-10-4-15-7l-146-87V475H500v-83h42l41-417h250l42 417h42v83H750v111l104 62c21 12 26 35 14 56-8 15-24 23-40 21z" horiz-adv-x="1000"/><glyph glyph-name="logout-variant" unicode="󰗽" d="m587 200 108 108H292v84h403L587 500l59 58 208-208-208-208-59 58m205 525a83 83 0 0 0 83-83V447l-83 83v112H208V58h584v112l83 83V58a83 83 0 0 0-83-83H208c-46 0-83 38-83 83v584c0 46 37 83 83 83h584z" horiz-adv-x="1000"/><glyph glyph-name="arrow-collapse" unicode="󰘕" d="M813 721 625 534v149h-83V392h291v83H684l187 188-58 58M167 308v-83h149L129 38l59-59 187 187V17h83v291H167z" horiz-adv-x="1000"/><glyph glyph-name="arrow-expand" unicode="󰘖" d="M417-25v83H267l188 188-59 59-188-188v150h-83V-25h292m187 420 188 188V433h83v292H583v-83h150L545 454l59-59z" horiz-adv-x="1000"/><glyph glyph-name="help-circle-outline" unicode="󰘥" d="M458 100h84v83h-84v-83m42 667A417 417 0 0 1 83 350 417 417 0 0 1 500-67a417 417 0 0 1 417 417 417 417 0 0 1-417 417m0-750c-184 0-333 149-333 333s149 333 333 333 333-149 333-333S684 17 500 17m0 583a167 167 0 0 1-167-167h84a83 83 0 0 0 83 84 83 83 0 0 0 83-84c0-83-125-73-125-208h84c0 94 125 104 125 208a167 167 0 0 1-167 167z" horiz-adv-x="1000"/><glyph glyph-name="source-branch" unicode="󰘬" d="M542 267c-140 0-186-57-201-94 44-19 76-63 76-115A125 125 0 0 0 292-67 125 125 0 0 0 167 58c0 55 34 101 83 118v348c-49 17-83 63-83 118a125 125 0 0 0 125 125 125 125 0 0 0 125-125c0-55-35-101-84-118V303c37 27 90 47 167 47 111 0 148 56 160 93-45 19-77 63-77 115a125 125 0 0 0 125 125 125 125 0 0 0 125-125c0-55-36-104-87-119-11-59-51-172-204-172M292 100a42 42 0 0 1-42-42 42 42 0 0 1 42-41 42 42 0 0 1 41 41 42 42 0 0 1-41 42m0 583a42 42 0 0 1-42-41 42 42 0 0 1 42-42 42 42 0 0 1 41 42 42 42 0 0 1-41 41m416-83a42 42 0 0 1-41-42 42 42 0 0 1 41-41 42 42 0 0 1 42 41 42 42 0 0 1-42 42z" horiz-adv-x="1000"/><glyph glyph-name="tune" unicode="󰘮" d="M125 142V58h250v84H125m0 500v-84h417v84H125M542-25v83h333v84H542v83h-84V-25h84M292 475v-83H125v-84h167v-83h83v250h-83m583-167v84H458v-84h417M625 475h83v83h167v84H708v83h-83V475z" horiz-adv-x="1000"/><glyph glyph-name="webhook" unicode="󰘯" d="M436 58C375-28 256-50 170 10 85 70 65 190 125 277c36 52 92 80 149 83l2-60c-38-3-74-22-98-57-42-60-29-140 28-181 58-40 138-24 180 35 13 19 20 39 23 60v42l233 2 3 4c22 39 70 52 107 30 38-21 51-70 28-108-22-38-70-51-107-29-18 9-30 25-35 42l-170-1c-4-28-15-55-32-81m303 298c106-13 181-108 168-211C894 40 798-33 693-20c-63 7-114 43-143 92l51 30c21-32 55-55 97-61 73-8 137 41 146 111 9 69-43 133-115 142-22 2-44-1-64-8l-35-18-107 199h-10c-44 1-78 38-77 81 2 43 39 77 83 75s78-38 77-81c-1-18-8-35-19-48l79-146c26 8 54 11 83 8M344 469c-42 98 2 210 99 251 96 41 208-5 250-103 24-57 19-120-9-170l-51 30c17 34 20 75 3 114-28 67-103 99-168 72-65-28-94-105-66-171 12-28 31-49 55-63l16-9-128-208c2-2 3-4 5-8 20-38 6-86-32-106s-86-5-107 34c-21 38-6 86 32 107 16 9 34 11 51 7l96 157c-19 18-36 40-46 66z" horiz-adv-x="1000"/><glyph glyph-name="circle-multiple-outline" unicode="󰚕" d="M604 142c173 0 313 140 313 312 0 173-140 313-313 313-103 0-195-50-252-128 15 2 29 3 44 3 23 0 46-2 68-6 39 30 88 47 140 47 127 0 229-102 229-229 0-126-102-229-229-229-22 0-43 3-63 9-2 1-5 1-8 2-49 16-91 48-119 91-13 19-24 41-30 64-29-2-56-13-78-30 11-36 29-70 52-99 38-49 91-87 153-106 29-9 61-14 93-14zm0-84c15 0 29 1 44 3C591-17 499-67 396-67 223-67 83 73 83 246c0 172 140 312 313 312 79 0 150-29 205-77 43-37 76-86 93-142-22-17-48-28-78-30-21 76-81 136-157 157-20 6-41 9-63 9-127 0-229-103-229-229 0-127 102-229 229-229 53 0 101 17 140 47 22-4 45-6 68-6z" horiz-adv-x="1000"/><glyph glyph-name="update" unicode="󰚰" d="M875 428H593l114 118c-114 112-298 117-412 4s-114-295 0-408 298-113 412 0c56 56 85 121 85 204h83c0-83-37-190-110-262C619-61 381-61 235 84 89 228 88 463 234 608s381 145 527 0l114 117V428m-354 89V340l146-87-30-50-179 105v209h63z" horiz-adv-x="1000"/><glyph glyph-name="eye-outline" unicode="󰛐" d="M500 475a125 125 0 0 0 125-125 125 125 0 0 0-125-125 125 125 0 0 0-125 125 125 125 0 0 0 125 125m0 188c208 0 386-130 458-313C886 167 708 38 500 38S114 167 42 350c72 183 250 313 458 313M133 350c68-140 210-229 367-229s299 89 368 229c-69 140-211 229-368 229s-299-89-367-229z" horiz-adv-x="1000"/><glyph glyph-name="eye-off-outline" unicode="󰛑" d="m83 630 54 53L833-13l-53-54L652 62c-48-16-99-24-152-24-208 0-386 129-458 312 28 73 74 138 133 189l-92 91m417-155a125 125 0 0 0 125-125c0-15-2-29-7-42L458 468c13 5 27 7 42 7m0 188c208 0 386-130 458-313-34-87-92-162-166-216l-59 59c56 40 103 93 135 157-69 140-211 229-368 229-45 0-90-7-132-21l-64 64c60 26 126 41 196 41M133 350c68-140 210-229 367-229 29 0 57 3 83 9l-95 95c-59 6-107 54-113 113L233 480c-41-35-75-79-100-130z" horiz-adv-x="1000"/><glyph glyph-name="infinity" unicode="󰛤" d="M775 574c124 0 225-99 225-224 0-123-101-224-225-224-60 0-117 24-159 66L500 294 382 190c-40-41-97-64-157-64C101 126 0 227 0 350s101 224 225 224c60 0 117-23 159-66l116-102 118 104c40 41 97 64 157 64M325 250l113 100-111 98c-29 28-64 43-102 43-78 0-142-63-142-141s64-141 142-141c38 0 73 15 100 41m350 200L563 350l110-98c29-28 65-43 102-43 78 0 142 63 142 141s-64 141-142 141c-38 0-73-15-100-41z" horiz-adv-x="1000"/><glyph glyph-name="plus-box-outline" unicode="󰜄" d="M792 58v584H208V58h584m0 667a83 83 0 0 0 83-83V58a83 83 0 0 0-83-83H208a83 83 0 0 0-83 83v584c0 46 38 83 83 83h584M458 558h84V392h166v-84H542V142h-84v166H292v84h166v166z" horiz-adv-x="1000"/><glyph glyph-name="cancel" unicode="󰜺" d="M500 767a417 417 0 0 0 417-417A417 417 0 0 0 500-67 417 417 0 0 0 83 350a417 417 0 0 0 417 417m0-84a333 333 0 0 1-333-333c0-77 26-148 70-205l468 468c-57 44-128 70-205 70m0-666a333 333 0 0 1 333 333c0 77-26 148-70 205L295 87c57-44 128-70 205-70z" horiz-adv-x="1000"/><glyph glyph-name="format-quote-open" unicode="󰝗" d="m417 558-84-166h125V142H208v250l84 166h125m333 0-83-166h125V142H542v250l83 166h125z" horiz-adv-x="1000"/><glyph glyph-name="square" unicode="󰝤" d="M750 683H250c-46 0-83-37-83-83V100c0-46 37-83 83-83h500c46 0 83 37 83 83v500c0 46-37 83-83 83z" horiz-adv-x="1000"/><glyph glyph-name="circle-outline" unicode="󰝦" d="M500 17a333 333 0 0 0-333 333 333 333 0 0 0 333 333 333 333 0 0 0 333-333A333 333 0 0 0 500 17m0 750A417 417 0 0 1 83 350 417 417 0 0 1 500-67a417 417 0 0 1 417 417 417 417 0 0 1-417 417z" horiz-adv-x="1000"/><glyph glyph-name="account-plus-outline" unicode="󰠁" d="M210 58c-24 0-43 20-43 44 0 5 0 9 2 13 2 8 7 16 13 21 3 3 7 5 11 7l129 77c28-17 59-26 95-26s67 9 95 26l14-9c13 26 30 48 50 68h-1c44 58 68 138 68 217 0 137-91 229-226 229s-226-92-226-229c0-79 24-159 67-217l-105-63c-42-21-70-65-70-114 0-70 57-127 127-127h324c-15 25-25 53-30 83H210zm207 584c79 0 143-45 143-146 0-62-21-130-57-174-23-27-52-45-86-45-11 0-22 2-32 5-5 2-10 4-15 7-9 5-18 11-26 19-5 4-9 9-14 14l-9 12c-6 9-12 20-18 31-8 17-15 35-19 54-4 13-6 26-8 39-1 12-2 25-2 38 0 101 64 146 143 146zm291-375h84V142h125V58H792V-67h-84V58H583v84h125v125" horiz-adv-x="1000"/><glyph glyph-name="forum-outline" unicode="󰠢" d="M708 267c25 0 42 16 42 41v417c0 25-17 42-42 42H125c-25 0-42-17-42-42V100l167 167h458zm-541 33v383h500V350H217l-50-50zm708 300h-42V133l-50 50H250v-50c4-16 21-33 42-33h458L917-67v625c0 25-17 42-42 42z" horiz-adv-x="1000"/><glyph glyph-name="settings-outline" unicode="󰢻" d="M810 309c1 14 3 27 3 41s-2 28-3 41l88 69c7 6 10 17 5 26l-84 144c-4 7-11 11-18 11-3 0-5-1-7-1l-104-42c-22 17-45 30-70 41l-16 110c-1 10-10 18-21 18H417c-11 0-19-8-21-18l-16-110c-25-11-48-25-70-41l-104 42c-2 0-5 1-7 1-7 0-14-4-18-11L98 486c-6-9-3-20 5-26l87-69c-1-13-2-27-2-41s1-27 2-41l-87-69c-8-6-10-17-5-26l83-144c4-7 11-11 18-11 3 0 5 1 7 1l104 42c22-17 45-30 70-41l16-110c2-10 10-18 21-18h166c11 0 20 8 21 18l16 110c25 11 48 25 70 41l104-42c2 0 5-1 7-1 7 0 14 4 18 11l84 144c5 9 2 20-5 26l-88 69zm-83 71c2-12 2-21 2-30s-1-18-2-30l-6-47 37-30 45-35-29-50-53 21-43 18-38-29c-17-13-35-23-52-30l-44-18-6-47-9-56h-58l-8 56-7 47-44 18c-18 7-34 17-51 30l-38 29-44-18-53-21-29 50 45 35 37 29-6 47c-1 13-2 23-2 31s1 18 2 30l6 48-37 29-45 35 29 50 53-21 43-18 38 29c18 13 35 23 52 30l44 18 7 47 8 56h58l8-56 6-47 45-18c17-7 34-17 51-29l38-30 44 18 53 22 29-51-45-35-37-29 6-48zM500 517c-92 0-167-75-167-167s75-167 167-167 167 75 167 167-75 167-167 167zm0-250c-46 0-83 37-83 83s37 83 83 83 83-37 83-83-37-83-83-83z" horiz-adv-x="1000"/><glyph glyph-name="hammer" unicode="󰣪" d="m83 32 477 476-30 30 59 59-89 91c50 50 129 50 178 0l150-150-59-59h118l30-30-148-149-30 29v120l-61-59-30 30L172-57 83 32z" horiz-adv-x="1000"/><glyph glyph-name="pin-outline" unicode="󰤱" d="m904 442-41 41-271 271v1c-16 16-43 16-59-1-16-16-16-43 0-59l13-12-185-183c-71 8-143-1-209-28-13-5-23-16-26-30s2-28 12-38l177-177L146 58 104-46 208-4l169 169L554-13c10-10 25-14 39-11s25 14 30 27c27 66 36 138 27 209l183 183 12-12c17-17 43-17 59 0 17 16 17 42 0 59zM574 255c-11-11-15-27-11-41 10-39 10-79 0-118L246 414c39 10 79 10 117 0 15-5 31-1 42 10l199 200 169-169-199-200z" horiz-adv-x="1000"/><glyph glyph-name="clock" unicode="󰥔" d="M500 767C271 767 83 579 83 350S271-67 500-67s417 188 417 417-188 417-417 417m147-623L458 333v225h84V367l164-164-59-59z" horiz-adv-x="1000"/><glyph glyph-name="image-outline" unicode="󰥶" d="M792 58H208v584h584m0 83H208a83 83 0 0 1-83-83V58a83 83 0 0 1 83-83h584a83 83 0 0 1 83 83v584a83 83 0 0 1-83 83M582 338 467 190l-82 99-114-147h458L582 338z" horiz-adv-x="1000"/><glyph glyph-name="arrow-right-bold-outline" unicode="󰧂" d="M458 183H125v334h333v250l417-417L458-67v250m84 375V433H208V267h334V142l208 208-208 208z" horiz-adv-x="1000"/><glyph glyph-name="email-plus-outline" unicode="󰧬" d="M792 225V100H667V17h125v-125h83V17h125v83H875v125h-83M583 100H125v417l333-209 334 209V308h83v292c0 46-37 83-83 83H125c-46 0-83-37-83-83V100c0-46 37-83 83-83h458v83m209 500L458 392 125 600h667z" horiz-adv-x="1000"/><glyph glyph-name="file-text-outline" unicode="󰧮" d="M250 767a83 83 0 0 1-83-84V17a83 83 0 0 1 83-84h500a83 83 0 0 1 83 84v500L583 767H250m0-84h292V475h208V17H250v666m83-333v-83h334v83H333m0-167v-83h209v83H333z" horiz-adv-x="1000"/><glyph glyph-name="layers-outline" unicode="󰧾" d="m500 78 307 239 68-53L500-28 125 264l68 52L500 78m0 105L125 475l375 292 375-292-375-292m0 478L261 475l239-186 239 186-239 186z" horiz-adv-x="1000"/><glyph glyph-name="trash-can-outline" unicode="󰩺" d="M375 725v-42H167v-83h41V58a83 83 0 0 1 84-83h416a83 83 0 0 1 84 83v542h41v83H625v42H375m-83-125h416V58H292v542m83-83V142h83v375h-83m167 0V142h83v375h-83z" horiz-adv-x="1000"/><glyph glyph-name="bell-off-outline" unicode="󰪑" d="M921-44 100 778l-54-53 197-197c-23-42-35-89-35-136V142l-83-84V17h630L868-97l53 53M292 100v292c0 25 4 50 14 73l365-365H292M417-25h166a83 83 0 0 0-83-83 83 83 0 0 0-83 83m-72 663c23 14 47 25 72 33v12a83 83 0 0 0 83 84 83 83 0 0 0 83-84v-12c124-36 209-150 209-279V192l-84 83v117a208 208 0 0 1-208 208c-32 0-65-8-93-23l-62 61z" horiz-adv-x="1000"/><glyph glyph-name="account-minus-outline" unicode="󰫬" d="M210 58c-24 0-43 20-43 44 0 5 0 9 2 13 2 8 7 16 13 21 3 3 7 5 11 7l129 77c28-17 59-26 95-26s67 9 95 26l14-9c13 26 30 48 50 68h-1c44 58 68 138 68 217 0 137-91 229-226 229s-226-92-226-229c0-79 24-159 67-217l-105-63c-42-21-70-65-70-114 0-70 57-127 127-127h324c-15 25-25 53-30 83H210zm207 584c79 0 143-45 143-146 0-62-21-130-57-174-23-27-52-45-86-45-11 0-22 2-32 5-5 2-10 4-15 7-9 5-18 11-26 19-5 4-9 9-14 14l-9 12c-6 9-12 20-18 31-8 17-15 35-19 54-4 13-6 26-8 39-1 12-2 25-2 38 0 101 64 146 143 146zm500-500V58H583v84h334z" horiz-adv-x="1000"/><glyph glyph-name="chevron-down-circle-outline" unicode="󰬧" d="M917 350A417 417 0 0 0 500-67 417 417 0 0 0 83 350a417 417 0 0 0 417 417 417 417 0 0 0 417-417m-84 0a333 333 0 0 1-333 333 333 333 0 0 1-333-333A333 333 0 0 1 500 17a333 333 0 0 1 333 333m-583 83 250-250 250 250-58 59-192-192-192 192-58-59z" horiz-adv-x="1000"/><glyph glyph-name="format-letter-case" unicode="󰬴" d="M836 100c-3 7-6 19-8 37-28-29-62-44-101-44-34 0-63 10-85 30-22 19-34 44-34 75 0 36 14 65 42 85s67 30 118 30h58v27c0 20-6 37-18 49-13 12-32 18-56 18-22 0-39-5-54-15-15-11-22-23-22-37h-61c0 18 7 35 19 51 12 17 30 30 51 39s44 15 70 15c41 0 73-10 96-30 23-21 35-49 36-85V183c0-33 4-59 12-78v-5h-63m-100 47c19 0 37 4 54 13 16 9 29 20 36 35v65h-47c-74 0-111-20-111-59 0-18 7-30 20-40 12-9 28-14 48-14M228 279h169l-84 226-85-226m49 321h71l197-500h-81l-40 107H201l-40-107H80l197 500z" horiz-adv-x="1000"/><glyph glyph-name="calendar-outline" unicode="󰭧" d="M792 725h-42v83h-83v-83H333v83h-83v-83h-42c-46 0-83-37-83-83V58c0-45 37-83 83-83h584c46 0 83 38 83 83v584c0 46-37 83-83 83zm0-667H208v417h584V58zm0 500H208v84h584v-84zM292 392h208V183H292z" horiz-adv-x="1000"/><glyph glyph-name="download-outline" unicode="󰮏" d="M792 100H208V17h584v83zM458 767h84V342l187 187 59-58-288-288-287 288 58 58 187-187v425z" horiz-adv-x="1000"/><glyph glyph-name="export-variant" unicode="󰮓" d="M500 808 333 642h125V267h84v375h125m83-750H250c-46 0-83 37-83 83v500a83 83 0 0 0 83 83h125v-83H250V-25h500v500H625v83h125a83 83 0 0 0 83-83V-25a83 83 0 0 0-83-83z" horiz-adv-x="1000"/><glyph glyph-name="folder-plus-outline" unicode="󰮝" d="M500 350h83v83h84v-83h83v-83h-83v-84h-84v84h-83v83m417 167V100c0-46-37-83-84-83H167c-47 0-84 37-84 83v500c0 46 37 83 84 83h250l83-83h333c47 0 84-37 84-83m-84 0H167V100h666v417z" horiz-adv-x="1000"/><glyph glyph-name="brand-gitlab" unicode="󰮠" d="m914 285-44 136-88 272c-5 14-18 23-33 23-16 0-29-9-33-24l-84-257H368l-84 257c-4 15-17 24-32 24h-1c-15 0-28-9-33-24l-88-271-44-136c-7-21 0-43 18-56L489-51s1-1 2-1h1c0-1 0-1 1-1h1v-1h12v1h1c1 0 1 0 1 1h1c1 0 1 1 2 1l385 280c18 13 25 35 18 56zM749 667l75-232H673l76 232zm62-271-31-40L553 65l108 331h150zM481-41zM447 65 189 396h151L447 65zM251 667l76-232H176l75 232zM127 261c-4 2-5 7-4 11l33 102L399 63 127 261zM488-50h-1c0 1 0 1-1 1 1 0 2-1 2-1zm12 79-63 194-56 173h238L500 29zm13-79h-1v-1 1s1 1 2 1c0 0-1 0-1-1zm360 311L601 63l243 311 33-101c1-5 0-10-4-12z" horiz-adv-x="1000"/><glyph glyph-name="home-variant-outline" unicode="󰮧" d="M750 58v375L500 621 250 433V58h500zM167 17v437c0 13 6 26 16 34l292 218c15 11 35 11 50 0l292-218c10-8 16-21 16-34V17c0-23-18-42-41-42H208c-23 0-41 19-41 42zm385 250H448c-17 0-31-14-31-32V58h166v177c0 18-14 32-31 32z" horiz-adv-x="1000"/><glyph glyph-name="video-outline" unicode="󰯜" d="M750 517v83c0 46-37 83-83 83H167c-46 0-84-37-84-83V100c0-46 38-83 84-83h500c46 0 83 37 83 83v83l106-53c28-14 61 7 61 37v366c0 31-33 51-61 37l-106-53zm83-282-83 42-53 26c-14 7-30-3-30-18V100H167v500h500V416c0-16 16-26 30-19l53 27 83 41V235z" horiz-adv-x="1000"/><glyph glyph-name="calendar-check-outline" unicode="󰱄" d="M792 683h-42v84h-83v-84H333v84h-83v-84h-42a83 83 0 0 1-83-83V17a83 83 0 0 1 83-84h584a83 83 0 0 1 83 84v583a83 83 0 0 1-83 83m0-666H208v416h584V17M208 517v83h584v-83H208M440 81l248 247-45 44-203-203-88 88-44-44L440 81z" horiz-adv-x="1000"/><glyph glyph-name="food-apple" unicode="󰲄" d="M779 767c-83 0-158-13-221-50-29-17-50-38-66-67-4 4-9 8-13 13-33 33-75 62-112 79-21 8-46-4-50-25-9-21 4-46 25-50 25-9 54-29 79-54 12-13 21-25 25-34-71 9-142 4-200-29-83-42-129-129-121-246 13-125 58-216 125-279 71-63 158-92 250-92 167 0 350 121 375 371 13 117-37 204-112 250 41 46 66 104 70 159 0 29-25 54-54 54zm-37-84c-9-29-29-62-59-87-33-29-79-50-141-42 8 50 29 75 58 96 38 17 83 29 142 33zM500 475c71-12 138-4 188 21 58-17 112-79 104-183C771 104 625 17 500 17c-75 0-142 25-192 71-50 45-87 120-100 225-8 87 25 137 75 162s125 29 205 0c4 0 8 0 8-4 0 4 4 4 4 4z" horiz-adv-x="1000"/><glyph glyph-name="pencil-outline" unicode="󰲶" d="m586 475 39-39L247 58h-39v39l378 378m150 250c-11 0-21-4-29-12l-77-76 157-157 76 77c16 16 16 43 0 58l-98 98c-8 8-18 12-29 12M586 592 125 131V-25h156l461 461-156 156z" horiz-adv-x="1000"/><glyph glyph-name="camera-outline" unicode="󰵝" d="M833 683H701l-76 84H375l-76-84H167a83 83 0 0 1-84-83V100a83 83 0 0 1 84-83h666a83 83 0 0 1 84 83v500a83 83 0 0 1-84 83m0-583H167v500h168l77 83h176l77-83h168V100M500 558a208 208 0 0 1-208-208 208 208 0 0 1 208-208 208 208 0 0 1 208 208 208 208 0 0 1-208 208m0-333a125 125 0 0 0-125 125 125 125 0 0 0 125 125 125 125 0 0 0 125-125 125 125 0 0 0-125-125z" horiz-adv-x="1000"/><glyph glyph-name="phone-outline" unicode="󰷰" d="M833 204c-50 0-104 9-150 25h-12c-13 0-21-4-29-12l-92-92c-117 63-217 158-275 275l92 92c12 12 16 29 8 41-12 46-21 100-21 150 0 21-21 42-41 42H167c-21 0-42-21-42-42 0-391 317-708 708-708 21 0 42 21 42 42v146c0 20-21 41-42 41M208 642h63c4-38 12-75 21-109l-50-50c-17 50-29 105-34 159M792 58c-54 5-109 17-159 34l50 50c34-9 71-17 109-17V58z" horiz-adv-x="1000"/><glyph glyph-name="palette-outline" unicode="󰸌" d="M500-67A417 417 0 0 0 83 350a417 417 0 0 0 417 417c229 0 417-167 417-375a250 250 0 0 0-250-250h-75c-13 0-21-9-21-21 0-4 4-8 4-13 17-20 25-45 25-70 4-59-42-105-100-105m0 750a333 333 0 0 1-333-333A333 333 0 0 1 500 17c13 0 21 8 21 21 0 8-4 12-4 16-17 21-25 42-25 67 0 58 46 104 104 104h71a167 167 0 0 1 166 167c0 162-150 291-333 291M271 433c33 0 62-29 62-62s-29-63-62-63-63 30-63 63 30 62 63 62m125 167c33 0 62-29 62-62 0-34-29-63-62-63s-63 29-63 63c0 33 30 62 63 62m208 0c34 0 63-29 63-62 0-34-29-63-63-63-33 0-62 29-62 63 0 33 29 62 62 62m125-167c34 0 63-29 63-62s-29-63-63-63c-33 0-62 30-62 63s29 62 62 62z" horiz-adv-x="1000"/><glyph glyph-name="file-video-outline" unicode="󰸬" d="m583 767 250-250V17a83 83 0 0 0-83-84H250a83 83 0 0 0-83 84v666a83 83 0 0 0 83 84h333M750 17v458H542v208H250V17h500m-83 83-104 71v-71H333v208h230v-70l104 70V100z" horiz-adv-x="1000"/><glyph glyph-name="hand-right" unicode="󰹇" d="M875 576V72A139 139 0 0 0 736-67H483c-38 0-73 15-99 42L111 252s44 43 45 43c8 7 17 10 28 10 7 0 14-2 21-5 1-1 149-86 149-86v414a52 52 0 0 0 52 52 52 52 0 0 0 52-52V385h35v330a52 52 0 0 0 52 52c29 0 52-24 52-52V385h35v295c0 29 23 52 52 52a52 52 0 0 0 52-52V385h35v191a52 52 0 0 0 52 52 52 52 0 0 0 52-52z" horiz-adv-x="1000"/><glyph glyph-name="file-image-outline" unicode="󰺰" d="m583 767 250-250V17a83 83 0 0 0-83-84H250a83 83 0 0 0-83 84v666a83 83 0 0 0 83 84h333M750 17v458H542v208H250V17h500m-42 291V58H292l208 209 83-84M417 413a63 63 0 0 0-63-63 63 63 0 0 0-62 63 63 63 0 0 0 62 62 63 63 0 0 0 63-62z" horiz-adv-x="1000"/><glyph glyph-name="notebook-outline" unicode="󰺿" d="M708 683V433l-83 84-83-84v250H375V17h417v666h-84M125 558v84h83v41c0 47 38 84 84 84h500c43 0 83-40 83-84V17c0-44-40-84-83-84H292c-44 0-84 40-84 84v41h-83v84h83v166h-83v84h83v166h-83m83 84v-84h84v84h-84m0-584h84v84h-84V58m0 250h84v84h-84v-84z" horiz-adv-x="1000"/><glyph glyph-name="shield-alert-outline" unicode="󰻍" d="M875 392c0-232-160-448-375-500-215 52-375 268-375 500v250l375 166 375-166V392M500-25c156 42 292 228 292 408v205L500 718 208 588V383c0-180 136-366 292-408m-42 583h84V308h-84v250m0-333h84v-83h-84v83z" horiz-adv-x="1000"/><glyph glyph-name="reply-outline" unicode="󰼠" d="M354 513v-84l79-4c113-4 205-50 280-137-88 29-180 33-280 33h-83V208L196 363l158 150m75 170c-4 0-12 0-21-4L88 379c-5-4-5-8-5-16 0-5 0-9 5-13L408 42c5-4 13-4 17-4 4 4 8 8 8 20v184c196 0 346-21 450-213 5-4 9-8 13-8h4c8 4 13 12 8 21 5 12-12 125-87 241-92 146-225 225-388 234v154c5 8 0 12-4 12z" horiz-adv-x="1000"/><glyph glyph-name="draw" unicode="󰽉" d="M406-19c74 29 58 110 21 161-37 52-89 88-140 122-37 24-71 53-98 86-11 14-35 39-11 44 25 5 67-19 89-28 38-16 75-34 110-56l42 71c-65 43-148 81-226 92-44 7-90-3-105-50-14-42 7-83 32-116 57-76 145-113 212-179 14-13 31-30 39-49 9-18 7-19-13-19-51 0-116 40-158 67l-42-71c64-39 170-101 248-75m462 650c10 9 10 24 0 33l-54 54c-9 9-24 9-32 0l-43-42 87-87M458 395v-87h87l256 257-86 86-257-256z" horiz-adv-x="1000"/><glyph glyph-name="slash-forward" unicode="󰿟" d="m292-25 329 750h87L379-25h-87z" horiz-adv-x="1000"/><glyph glyph-name="file-code-outline" unicode="󱀫" d="M583 767H250c-46 0-83-38-83-84V17c0-47 37-84 83-84h500c46 0 83 37 83 84v500L583 767M750 17H250v666h292V475h208V17M398 198l87-87-54-53-139 140 139 140 54-53-87-87m310 0L569 58l-53 53 87 87-87 87 53 53 139-140z" horiz-adv-x="1000"/><glyph glyph-name="file-excel-outline" unicode="󱀭" d="M583 767H250c-46 0-83-38-83-84V17c0-47 37-84 83-84h500c46 0 83 37 83 84v500L583 767M750 17H250v666h292V475h208V17M538 246 658 58h-75l-83 142-83-142h-75l121 188-121 187h75l83-141 83 141h75L538 246z" horiz-adv-x="1000"/><glyph glyph-name="file-multiple-outline" unicode="󱀲" d="M667 850H333c-45 0-83-37-83-83V100c0-46 38-83 83-83h500c46 0 84 37 84 83v500L667 850m166-750H333v667h292V558h208V100M167 683V-67h666v-83H167c-46 0-84 37-84 83v750h84z" horiz-adv-x="1000"/><glyph glyph-name="file-powerpoint-outline" unicode="󱀵" d="M583 767H250c-46 0-83-38-83-84V17c0-47 37-84 83-84h500c46 0 83 37 83 84v500L583 767M750 17H250v666h292V475h208V17M633 400c-20 21-45 33-100 33H375V58h67v138h91c55 0 75 8 100 29s34 50 34 88c0 37-9 62-34 87m-54-133c-12-13-25-21-50-21h-87v133h83c25 0 42-8 54-21 13-12 17-25 17-45s-4-34-17-46z" horiz-adv-x="1000"/><glyph glyph-name="file-word-outline" unicode="󱀾" d="M583 767H250c-46 0-83-38-83-84V17c0-47 37-84 83-84h500c46 0 83 37 83 84v500L583 767M750 17H250v666h292V475h208V17m-27 416L635 58h-58l-75 283-75-283h-58l-92 375h63l58-283 75 283h54l75-283 58 283h63z" horiz-adv-x="1000"/><glyph glyph-name="dock-left" unicode="󱂪" d="M833 683H167a83 83 0 0 1-84-83V100a83 83 0 0 1 84-83h666a83 83 0 0 1 84 83v500a83 83 0 0 1-84 83m0-583H375v500h458z" horiz-adv-x="1000"/><glyph glyph-name="dock-window" unicode="󱂬" d="M750 100V17H167a83 83 0 0 0-84 83v417h84V100m750 500V267a83 83 0 0 0-84-84H333a83 83 0 0 0-83 84v333a83 83 0 0 0 83 83h500a83 83 0 0 0 84-83m-84 0H333V267h500z" horiz-adv-x="1000"/><glyph glyph-name="message-plus-outline" unicode="󱂻" d="M833 767H167c-46 0-84-38-84-84V-67l167 167h583c46 0 84 38 84 83v500c0 46-38 84-84 84m0-584H250l-83-83v583h666M667 475v-83H542V267h-84v125H333v83h125v125h84V475h125z" horiz-adv-x="1000"/><glyph glyph-name="send-outline" unicode="󱅥" d="m167 599 312-134-312 41v93m312-364L167 101v93l312 41M83 725V433l625-83-625-83V-25l875 375L83 725z" horiz-adv-x="1000"/><glyph glyph-name="message-minus-outline" unicode="󱅯" d="M833 767H167c-46 0-84-38-84-84V-67l167 167h583c47 0 84 37 84 83v500c0 46-37 84-84 84m0-584H250l-83-83v583h666M333 475v-83h334v83H333z" horiz-adv-x="1000"/><glyph glyph-name="crown-outline" unicode="󱇐" d="m500 517 125-217 125 113-29-146H279l-29 146 125-113 125 217m0 166L354 433 125 642l83-459h584l83 459-229-209-146 250m292-583H208V58c0-25 17-41 42-41h500c25 0 42 16 42 41v42z" horiz-adv-x="1000"/><glyph glyph-name="view-grid-plus-outline" unicode="󱇚" d="M125-25h333v333H125m83-83h167V58H208m-83 334h333v333H125m83-83h167V475H208m334 250V392h333v333m-83-250H625v167h167m-42-459h125v-83H750V-25h-83v125H542v83h125v125h83z" horiz-adv-x="1000"/><glyph glyph-name="archive-outline" unicode="󱈎" d="M833-25H167v458h83V58h500v375h83V-25M125 725h750V475H125v250m271-333h208c12 0 21-9 21-21v-63H375v63c0 12 9 21 21 21M208 642v-84h584v84H208z" horiz-adv-x="1000"/><glyph glyph-name="exclamation-thick" unicode="󱈸" d="M417 725h166l-41-458h-84l-41 458M583 58c0-46-37-83-83-83s-83 37-83 83 37 84 83 84 83-38 83-84z" horiz-adv-x="1000"/><glyph glyph-name="folder-move-outline" unicode="󱉆" d="M833 100H167v417h666V100M500 600l-83 83H167c-46 0-84-37-84-83V100c0-46 38-83 84-83h666c47 0 84 37 84 83v417c0 46-37 83-84 83H500m-42-333v83h167v125l167-167-167-166v125H458z" horiz-adv-x="1000"/><glyph glyph-name="archive-arrow-up-outline" unicode="󱉜" d="M833-25H167v458h83V58h500v375h83V-25M125 725h750V475H125v250m83-83v-84h584v84M438 142v125H333l167 166 167-166H563V142" horiz-adv-x="1000"/><glyph glyph-name="power-plug-outline" unicode="󱐥" d="m759 343 117 118c17 16 17 43 0 59-16 16-42 16-59 0L700 402 552 550l118 117c16 17 16 43 0 59-16 17-43 17-59 0L493 609 375 726c-16 17-42 17-58 0h-1c-16-16-16-43 0-59l30-29-133-133C101 393 92 217 187 95c-1-1-2-1-3-2L96 5c-17-17-17-43 0-60s42-16 59 0l88 89c1 1 1 2 2 3 122-95 298-86 410 26l133 133 29-30c16-16 43-16 59 0v1c17 16 17 42 0 58L759 343zM596 122c-89-89-234-89-324 0s-89 235 0 324l133 133 324-324-133-133z" horiz-adv-x="1000"/><glyph glyph-name="car-outline" unicode="󱓭" d="M788 600c-9 25-34 42-59 42H271c-29 0-50-17-58-42l-88-250V17c0-21 21-42 42-42h41c25 0 42 21 42 42v41h500V17c0-21 21-42 42-42h41c21 0 42 21 42 42v333l-87 250m-505-42h430l45-125H242l41 125m509-416H208v208h584V142M313 308c33 0 62-29 62-62s-29-63-62-63-63 30-63 63 29 62 63 62m375 0c33 0 62-29 62-62s-29-63-62-63c-34 0-63 30-63 63s29 62 63 62z" horiz-adv-x="1000"/><glyph glyph-name="share-variant-outline" unicode="󱔔" d="M750 180c-32 0-60-12-82-32L371 321c2 9 4 19 4 29s-2 20-4 29l294 171c23-20 52-33 85-33 69 0 125 56 125 125s-56 125-125 125-125-56-125-125c0-10 2-20 4-29L335 441c-22 21-52 34-85 34-69 0-125-56-125-125s56-125 125-125c33 0 63 13 85 34L632 86c-2-9-4-18-4-28 0-67 55-121 122-121S872-9 872 58s-55 122-122 122m0 503c23 0 42-18 42-41s-19-42-42-42-42 19-42 42 19 41 42 41M250 308c-23 0-42 19-42 42s19 42 42 42 42-19 42-42-19-42-42-42M750 17c-23 0-42 18-42 41s19 42 42 42 42-19 42-42-19-41-42-41z" horiz-adv-x="1000"/><glyph glyph-name="application-cog" unicode="󱕷" d="M904 75v42l46 33c4 4 8 8 4 13l-41 70c0 5-9 5-13 5l-50-21c-12 8-25 16-37 21l-9 54c0 4-4 8-8 8h-83c-9 0-13-4-13-8l-8-54c-13-9-21-13-34-21l-50 21c-4 0-8 0-12-5l-42-70c0-5 0-9 4-13l46-33V75l-46-33c-4-4-8-9-4-13l42-71c4-4 8-4 12-4l50 21c9-8 21-17 34-21l8-54c4-4 8-8 13-8h83c4 0 8 4 8 8l9 54c12 8 20 13 33 21l50-17c4 0 8 0 12 4l42 71c4 5 4 9 0 9l-46 33M750 38c-33 0-62 29-62 62s29 63 62 63 63-30 63-63-30-62-63-62M470 17H208c-46 0-83 37-83 83v500c0 46 38 83 83 83h584c46 0 83-37 83-83V363c-26 12-54 21-83 25v129H208V100h250c0-29 5-57 12-83z" horiz-adv-x="1000"/><glyph glyph-name="robot-happy" unicode="󱜙" d="M833 404h30c29 0 54-25 54-54V238c0-30-25-55-54-55h-30v221zm-695 0h29V183h-29c-30 0-55 25-55 55v112c0 29 25 54 55 54zm475-108c29 0 54 25 54 54s-25 54-54 54-55-25-55-54 21-54 55-54zm-225 0c29 0 54 25 54 54s-21 54-54 54-55-25-55-54 25-54 55-54zm-55-75v-8c0-63 75-113 167-113s167 50 167 113v8c-42-21-100-38-167-38s-125 13-167 38zm113 350v58c0 29 25 54 54 54s54-25 54-54v-54h113c62 0 112-50 112-112V129c0-62-50-112-112-112H333c-62 0-112 50-112 112v334c0 62 50 112 112 112h113v-4z" horiz-adv-x="1000"/></font>
</defs>
</svg>
