<svg width="32" height="40" fill="none" xmlns="http://www.w3.org/2000/svg"><path d="m1.595 10.357 8.898-8.78A2 2 0 0 1 11.898 1H28a3 3 0 0 1 3 3v32a3 3 0 0 1-3 3H4a3 3 0 0 1-3-3V11.78a2 2 0 0 1 .595-1.423Z" stroke="#ED522A" stroke-width="2"/><path d="M11 2v9a1 1 0 0 1-1 1H2" stroke="#ED522A" stroke-width="2"/><path fill-rule="evenodd" clip-rule="evenodd" d="M18.832 25.706C19.61 25.022 20 24.034 20 22.743c0-1.242-.366-2.177-1.097-2.803-.731-.627-1.8-.94-3.204-.94H12v12h2.455v-4.268h1.054c1.436 0 2.544-.342 3.323-1.026Zm-3.569-1.059h-.808v-3.562h1.117c.67 0 1.163.142 1.477.427.315.284.472.725.472 1.321 0 .591-.188 1.041-.563 1.35-.374.31-.94.464-1.695.464Z" fill="#ED522A"/></svg>