<svg width="17" height="15" fill="none" xmlns="http://www.w3.org/2000/svg"><path d="M15.736 11.438 10.48 1.682a2.054 2.054 0 0 0-.828-.864A2.142 2.142 0 0 0 8.5.494c-.42 0-.81.108-1.17.324a2.087 2.087 0 0 0-.81.864l-5.256 9.756c-.192.348-.282.72-.27 1.116.012.396.12.768.324 1.116.204.336.474.6.81.792a2.31 2.31 0 0 0 1.134.288h10.494c.396 0 .762-.096 1.098-.288.348-.192.624-.456.828-.792.204-.348.312-.72.324-1.116a2.136 2.136 0 0 0-.27-1.116Zm-1.98 1.818H3.244a.716.716 0 0 1-.468-.162.79.79 0 0 1-.18-.954l5.238-9.738a.667.667 0 0 1 .288-.288.724.724 0 0 1 .756 0c.12.06.216.156.288.288l5.238 9.738a.79.79 0 0 1-.18.954.716.716 0 0 1-.468.162Zm-4.878-4.5h-.756l-.378-4.5h1.512l-.378 4.5Zm.378 2.25a.685.685 0 0 1-.234.522.711.711 0 0 1-.522.216.772.772 0 0 1-.54-.216.711.711 0 0 1-.216-.522c0-.204.072-.378.216-.522a.742.742 0 0 1 .54-.234c.204 0 .378.078.522.234a.685.685 0 0 1 .234.522Z" fill="#fff"/></svg>