<svg width="302" height="136" fill="none" xmlns="http://www.w3.org/2000/svg"><g clip-path="url(#a)"><path d="M152.032 136c37.555 0 68-30.445 68-68s-30.445-68-68-68c-37.556 0-68 30.445-68 68s30.444 68 68 68Z" fill="#1C58D9" fill-opacity=".08"/><path d="M231 127.226c19.99 0 36.194-16.204 36.194-36.193 0-19.99-16.204-36.194-36.194-36.194-19.989 0-36.193 16.204-36.193 36.194 0 19.989 16.204 36.193 36.193 36.193Z" fill="#1C58D9" fill-opacity=".08"/><path d="m240.185 73.87 3.344-7.908a.512.512 0 0 1 .353-.305.528.528 0 0 1 .457.101l2.126 1.318a.678.678 0 0 1 .1.915l-5.373 6.485a.724.724 0 0 1-.811.1.709.709 0 0 1-.204-.707h.008Zm5.167 4.052a.643.643 0 0 0 .41.3.633.633 0 0 0 .5-.096l9.415-4.868c.407-.269.472-.641.204-1.114l-1.72-2.636a.8.8 0 0 0-1.113-.1l-7.596 7.6a.673.673 0 0 0-.227.438c-.02.17.026.34.127.477Zm1.719 4.965 7.9-3.243c.384-.135.64 0 .706.407l.506 2.432c.027.08.033.167.019.25a.55.55 0 0 1-.525.46l-8.402.812c-.269 0-.472-.17-.607-.507a.649.649 0 0 1 .11-.367.655.655 0 0 1 .293-.244Z" fill="#FFBC1F"/><path d="m227.82 114.005-1.619.911a2.549 2.549 0 0 1-2.077.307 2.804 2.804 0 0 1-1.67-1.318l-4.352-7.3a2.757 2.757 0 0 1 1.009-3.842l1.62-.915a2.551 2.551 0 0 1 2.076-.303 2.809 2.809 0 0 1 1.671 1.318l4.355 7.3c.33.676.419 1.444.255 2.178a2.638 2.638 0 0 1-1.268 1.664Z" fill="#28427B"/><path d="M208.893 101.672c-1.794-3.26-2.464-8.153-.297-9.763l14.275-10.54 10.748 16.825-15.696 8.515c-2.868 1.409-7.234-1.779-9.03-5.037Z" fill="#1C58D9"/><path d="M242.407 80.658a52.123 52.123 0 0 1 5.315 10.643c1.114 3.243 1.232 5.236.353 5.979-1.149.54-2.939-.372-5.373-2.736-2.433-2.364-4.881-5.472-7.343-9.325-2.465-3.842-4.256-7.373-5.374-10.593-1.119-3.22-1.202-5.229-.253-6.028 1.077-.474 2.85.471 5.315 2.835a50.84 50.84 0 0 1 7.36 9.225Z" fill="#82889C"/><path d="M248.286 97.08c-.341.81-1.047 1.283-2.126 1.417-4.871.259-11.33.961-14.581 1.214-3.253.253-7.803-4.202-9.013-6.282s-3.91-7.4-2.024-10.85c1.888-3.45 5.092-8.419 7.39-12.771.542-.877 1.217-1.284 2.026-1.215a.78.78 0 0 0-.302.1c-.81.677-.608 2.598.606 5.764a59.368 59.368 0 0 0 5.469 10.489 58.59 58.59 0 0 0 7.189 9.375c2.363 2.433 4.05 3.448 5.064 3.043a.681.681 0 0 0 .302-.304v.02Z" fill="#DDDFE4"/><path opacity=".5" d="M211.835 96.265a1.348 1.348 0 0 1-.81.308 1.264 1.264 0 0 1-1.113-.611 1.535 1.535 0 0 1-.304-1.153 1.215 1.215 0 0 1 .606-.86l5.873-3.75a1.389 1.389 0 0 1 1.152-.254 1.402 1.402 0 0 1 .863.657 1.5 1.5 0 0 1 .2 1.064 1.203 1.203 0 0 1-.607.86l-5.872 3.75.012-.01Z" fill="#fff" fill-opacity=".48"/><path d="M70.871 78.968c19.99 0 36.194-16.204 36.194-36.194 0-19.989-16.205-36.193-36.194-36.193-19.989 0-36.193 16.204-36.193 36.194 0 19.989 16.204 36.193 36.193 36.193Z" fill="#1C58D9" fill-opacity=".08"/><path d="M68.43 46.39c-.988-1.331-1.796-1.575-3.246-1.091-.57.483-1.347.714-1.796 1.33l-.175.169c-.305.537-.853.887-1.109 1.473-.449 1.024-1.275 1.33-2.38 1.503-1.714.24-3.312.865-4.362 2.383-.1.106-.135.261-.27.337.108-.125.189-.27.288-.4a7.798 7.798 0 0 1 2.444-2.294 7.9 7.9 0 0 1 3.194-1.068c.62-.084 1.22-.213 1.198-1.038-.247-.209-.161-.497-.193-.759-.449-3.965-.116-7.944-.166-11.92 0-1.188-.282-2.217-1.548-2.705-1.154-.04-1.684.66-1.949 1.641-.059.22-.101.444-.125.67a8.328 8.328 0 0 0-.09-2.032c-.319-.359-.153-.807-.22-1.215-.189-1.131-.754-1.823-1.989-1.819-1.4.36-1.795 1.446-1.84 2.662-.059 1.592-.193 3.176-.216 4.764-.04 2.422-.184 4.88.983 7.186-.4-.181-1.22.754-1.153-.386.21-3.37-.032-6.747.224-10.118a4.213 4.213 0 0 0-.449-2.595c-.39-.147-.772-.382-1.203-.12-1.746.967-1.966 2.586-1.818 4.307a12.084 12.084 0 0 1-.13 3.012 13.998 13.998 0 0 0-.175 1.832c0-.7.026-1.401 0-2.102-.04-1.122.206-2.356-.602-3.363-.404 0-.772-.443-1.208-.11a4.223 4.223 0 0 0-1.189 2.115c-.328 2.343-1.02 4.636-1.145 7.01a34.91 34.91 0 0 0 1.387 12.083c.705 2.32 2.025 3.864 4.22 4.64 2.752.976 5.558 1.49 8.247-.275a26.46 26.46 0 0 1 5.162-7.803 7.199 7.199 0 0 0 1.347-2.018c.4-1.114.803-2.218 1.665-3.106.211-.208.476-.416.386-.78Zm-10.38-10c.05-.444.108-.887.144-1.362-.009.335.01.67.054 1.003.125.651.135 1.319.031 1.974-.48 2.178-.188 4.303.413 6.454-.745 0-1.171-.12-.965-.99.17-.8.217-1.623.14-2.439a25.468 25.468 0 0 1 .184-4.64Zm-8.466 9.076c-.085.036-.144.071-.197.036a1.666 1.666 0 0 0 .552-1.331c.063-1.291.166-2.578.21-3.868a11.21 11.21 0 0 0 .387 3.171c.395 1.429.426 1.415-.952 1.992Z" fill="#FFBC1F"/><path d="M60.3 32.3c-1.495.635-2.065 1.81-1.737 3.714.109 1.035.07 2.08-.113 3.105-.193 1.774-.157 3.615.741 5.292.085.164.13.35.247.666l-2.505-.626c.898-1.446.566-3.003.58-4.502.03-2.46.239-4.916.623-7.346A1.86 1.86 0 0 1 60.3 32.3Z" fill="#CC8F00"/><path d="M66.387 50.272c-.094-1.69.939-2.804 2.043-3.882.507.444.211.847-.05 1.215-.641.905-1.324 1.78-1.993 2.667Z" fill="#FFD470"/><path d="M62.423 47.339c-.094.1-.167.218-.216.346-.188.563-.628.66-1.18.745-2.488.373-4.651 1.3-5.836 3.695a1.049 1.049 0 0 0-.45 1.06l.656-.816c1.24-1.504 2.896-2.169 4.794-2.382.521-.062 1.258.04 1.477-.492 0 0 2.443-3.505 4.597-4.436.014.018-2.136-.284-3.842 2.28Z" fill="#CC8F00"/><path d="M59.59 59.968c-2.693 1.544-5.435 1.025-8.115 0-1.406-.54-2.694-1.375-3.26-2.865A31.285 31.285 0 0 1 47 39.403c.319-1.46.381-2.99 1.122-4.32a1.317 1.317 0 0 1 1.437-.444 1.596 1.596 0 0 0-2.128.413l-.072.08a4.46 4.46 0 0 0-.691 1.437c-.786 2.297-1.006 4.706-1.145 7.097-.184 3.136-.251 6.3.745 9.316.536 1.454.839 2.982.898 4.529a2.75 2.75 0 0 0 .341 1.4c.237.43.584.79 1.006 1.044a12.274 12.274 0 0 0 7.425 2.187c1.593-.058 3.142-.47 3.937-2.08-.077-.014-.234-.124-.283-.093Z" fill="#CC8F00"/><path d="M53.486 31.064s-1.258-.972-2.842.5a2.69 2.69 0 0 0-.781 1.598c-.099.488-.207.98-.31 1.468.449 2.502.305 5.022.135 7.541-.095 1.371.449 2.968-1.28 3.89 1.001-.234 1.881-.536 2.77-.807.364-.11.624-.217.305-.616-1.041-1.282-.897-2.826-.987-4.321-.086-1.33.534-2.617.368-3.917-.207-1.615-.198-3.132.615-4.436.184-.297.916-1.233 2.007-.9Zm3.762-1.096a2.187 2.187 0 0 0-2.307-.377 1.861 1.861 0 0 0-.27.124c-.483.355-.883.81-1.172 1.33a46.788 46.788 0 0 1 0 6.145 26.019 26.019 0 0 0-.058 3.132c.13 1.49.323 3.003-.629 4.546 1.001-.465 1.998-.04 2.882-.62a4.22 4.22 0 0 1-1.266-2.467c-.502-3.043-.027-6.064-.045-9.094a3.547 3.547 0 0 1 .934-2.661c.265-.235.92-.63 1.93-.058Z" fill="#CC8F00"/><path d="M71.496 47.17c.862.887 1.266 1.988 1.665 3.105a7.294 7.294 0 0 0 1.347 2.019 26.37 26.37 0 0 1 5.167 7.812c2.693 1.774 5.499 1.25 8.25.275 2.196-.777 3.516-2.32 4.22-4.64a34.803 34.803 0 0 0 1.383-12.084c-.121-2.373-.812-4.667-1.14-7.009a4.254 4.254 0 0 0-1.19-2.116c-.449-.324-.803.107-1.212.111-.808 1.007-.56 2.24-.601 3.362-.027.701 0 1.402 0 2.103-.02-.614-.08-1.226-.18-1.832a12.312 12.312 0 0 1-.13-3.012c.153-1.721-.067-3.34-1.796-4.307-.449-.262-.817-.027-1.207.12a4.241 4.241 0 0 0-.45 2.595c.252 3.37 0 6.747.22 10.118.073 1.14-.749.204-1.148.386 1.167-2.316 1.023-4.764.983-7.186-.027-1.588-.157-3.172-.22-4.765-.045-1.22-.45-2.306-1.836-2.661-1.235 0-1.796.687-1.993 1.819-.068.408.103.856-.216 1.215a8.327 8.327 0 0 0-.09 2.032 5.05 5.05 0 0 0-.125-.67c-.265-.98-.795-1.681-1.949-1.641-1.266.483-1.53 1.517-1.548 2.706-.05 3.992.287 7.953-.166 11.919-.032.262.053.55-.194.759-.026.825.58.953 1.2 1.038a7.9 7.9 0 0 1 3.19 1.068 7.799 7.799 0 0 1 2.443 2.294c.103.129.18.275.292.4-.14-.076-.17-.231-.27-.338-1.05-1.517-2.653-2.142-4.368-2.382-1.104-.15-1.912-.48-2.379-1.504-.256-.568-.799-.936-1.104-1.473l-.175-.168c-.476-.608-1.235-.838-1.796-1.33-1.468-.484-2.244-.223-3.25 1.09-.103.355.17.564.373.772Zm10.181-6.14a8.237 8.237 0 0 0 .144 2.44c.206.888-.22 1.003-.97.99.606-2.151.898-4.276.418-6.455a5.72 5.72 0 0 1 .03-1.974c.044-.332.06-.667.05-1.002.04.444.094.914.148 1.362.2 1.538.26 3.09.18 4.64Zm7.335 2.436c.278-1.034.407-2.102.382-3.172.05 1.291.148 2.578.215 3.869a1.618 1.618 0 0 0 .552 1.33c-.058.036-.112 0-.197-.035-1.383-.568-1.347-.554-.952-1.992Z" fill="#FFBC1F"/><path d="M79.248 32.301c1.495.634 2.06 1.81 1.737 3.713-.11 1.035-.074 2.08.108 3.105.198 1.775.162 3.616-.736 5.292a5.27 5.27 0 0 0-.247.666l2.505-.626c-.898-1.446-.566-3.003-.58-4.502a51.873 51.873 0 0 0-.623-7.364 1.86 1.86 0 0 0-2.164-.284Z" fill="#CC8F00"/><path d="M73.162 50.272c.094-1.69-.938-2.804-2.047-3.882-.507.444-.206.847.054 1.215.642.905 1.324 1.78 1.993 2.667Z" fill="#FFD470"/><path d="M77.125 47.339c.092.102.165.219.216.346.188.563.628.66 1.176.745 2.491.373 4.655 1.3 5.835 3.695a1.04 1.04 0 0 1 .427 1.06l-.655-.816c-1.235-1.504-2.891-2.169-4.79-2.382-.521-.062-1.257.04-1.482-.492 0 0-2.437-3.505-4.597-4.436.01.018 2.164-.284 3.87 2.28Z" fill="#CC8F00"/><path d="M79.957 59.968c2.694 1.544 5.437 1.025 8.117 0 1.405-.54 2.693-1.375 3.259-2.865a31.317 31.317 0 0 0 1.212-17.7c-.319-1.46-.377-2.99-1.123-4.32a1.317 1.317 0 0 0-1.436-.444 1.595 1.595 0 0 1 2.128.413l.076.08c.316.434.55.92.692 1.437.785 2.297 1.005 4.706 1.144 7.097.184 3.136.252 6.3-.745 9.316a14.61 14.61 0 0 0-.898 4.529 2.76 2.76 0 0 1-.342 1.4 2.8 2.8 0 0 1-1.004 1.044 12.282 12.282 0 0 1-7.425 2.187c-1.599-.058-3.143-.47-3.942-2.08.103-.014.234-.124.287-.093Z" fill="#CC8F00"/><path d="M86.058 31.064s1.256-.972 2.841.5c.436.43.71.993.777 1.598.099.488.206.98.31 1.468-.45 2.502-.306 5.022-.13 7.541.094 1.371-.45 2.968 1.279 3.89-1.006-.234-1.881-.536-2.775-.807-.359-.11-.624-.217-.3-.616 1.037-1.282.897-2.826.987-4.321.081-1.33-.534-2.617-.368-3.917.202-1.615.193-3.132-.615-4.436-.18-.297-.911-1.233-2.006-.9Zm-3.762-1.097a2.19 2.19 0 0 1 2.312-.377c.092.034.181.075.265.124.483.355.881.809 1.167 1.331a47.567 47.567 0 0 0 0 6.144 25.1 25.1 0 0 1 .054 3.132c-.13 1.49-.318 3.003.629 4.547-.997-.466-1.993-.04-2.882-.621a4.166 4.166 0 0 0 1.266-2.467c.502-3.043.031-6.064.05-9.094a3.563 3.563 0 0 0-.935-2.661c-.255-.235-.911-.63-1.925-.058Z" fill="#CC8F00"/><path d="m59.603 23.176-.503 1.06a1.87 1.87 0 0 0 .203 1.93l4.937 6.516a.166.166 0 0 0 .198.045.165.165 0 0 0 .094-.178c-.368-1.641-1.521-5.842-4.287-9.444a.388.388 0 0 0-.642.07Zm6.127 2.182s-.704-.488-1.045.222c-.243.506.718 2.325 1.301 3.35a.217.217 0 0 0 .363.023.212.212 0 0 0 .041-.135c-.053-1.18-.206-3.225-.66-3.46Zm3.547-7.492-.381.053a.98.98 0 0 0-.642.38.958.958 0 0 0-.184.716l1.683 11.618a.132.132 0 0 0 .211.075.13.13 0 0 0 .045-.075l1.683-11.618a.959.959 0 0 0-.183-.716.98.98 0 0 0-.643-.38l-.377-.053a4.265 4.265 0 0 0-1.212 0Zm10.883 5.31.503 1.06a1.862 1.862 0 0 1-.202 1.93l-4.938 6.516a.166.166 0 0 1-.291-.133c.368-1.641 1.521-5.842 4.287-9.444a.388.388 0 0 1 .641.07Zm-6.122 2.182s.7-.488 1.041.222c.243.506-.718 2.325-1.301 3.35a.21.21 0 0 1-.247.108.21.21 0 0 1-.153-.22c.05-1.18.202-3.225.66-3.46Z" fill="#3F4350"/><path d="M119.175 32.446h64.599a9.033 9.033 0 0 1 6.383 2.613 8.98 8.98 0 0 1 2.662 6.353V82.38a8.993 8.993 0 0 1-5.593 8.292 9.035 9.035 0 0 1-3.452.673h-9.534v15.336l-14.3-15.336h-40.742a9.03 9.03 0 0 1-6.383-2.613 8.992 8.992 0 0 1-2.662-6.352V41.41a8.987 8.987 0 0 1 2.653-6.344 9.026 9.026 0 0 1 6.369-2.621Z" fill="#FFBC1F"/><path d="M159.941 91.347h-40.742a9.029 9.029 0 0 1-6.383-2.613 8.982 8.982 0 0 1-2.662-6.353V57.51s2.844 23 3.355 25.025c.511 2.024 1.526 5.053 6.331 5.555 4.804.503 40.101 3.258 40.101 3.258Z" fill="#CC8F00"/><path d="M173.54 56.04a5.812 5.812 0 0 0-5.377 3.585 5.804 5.804 0 0 0 4.242 7.917 5.831 5.831 0 0 0 5.974-2.47 5.8 5.8 0 0 0 .539-5.449 5.805 5.805 0 0 0-5.378-3.584Zm-22.067 0c-1.151 0-2.276.34-3.233.978a5.806 5.806 0 0 0-2.474 5.961 5.798 5.798 0 0 0 1.592 2.974 5.824 5.824 0 0 0 6.342 1.259 5.8 5.8 0 0 0 3.151-7.589 5.789 5.789 0 0 0-3.15-3.144 5.821 5.821 0 0 0-2.228-.44Zm-22.039 0a5.827 5.827 0 0 0-5.382 3.579 5.795 5.795 0 0 0 1.257 6.331 5.82 5.82 0 0 0 6.342 1.262 5.818 5.818 0 0 0 2.613-2.138c.64-.956.981-2.079.981-3.228a5.781 5.781 0 0 0-1.699-4.105 5.817 5.817 0 0 0-4.112-1.702Z" fill="#fff"/><path d="M186.115 49.601a18.26 18.26 0 0 0-8.733-11.005.636.636 0 0 1-.122-1.047.636.636 0 0 1 .381-.148c4.074-.244 12.295.624 9.717 12.14a.642.642 0 0 1-1.243.06Z" fill="#FFD470"/></g><defs><clipPath id="a"><path fill="#fff" transform="translate(34)" d="M0 0h233.869v136H0z"/></clipPath></defs></svg>