<svg width="32" height="40" fill="none" xmlns="http://www.w3.org/2000/svg"><path d="m1.595 10.357 8.898-8.78A2 2 0 0 1 11.898 1H28a3 3 0 0 1 3 3v32a3 3 0 0 1-3 3H4a3 3 0 0 1-3-3V11.78a2 2 0 0 1 .595-1.423Z" stroke="#338AFF" stroke-width="2"/><path d="M11 2v9a1 1 0 0 1-1 1H2" stroke="#338AFF" stroke-width="2"/><path d="M14.524 31.992a.222.222 0 0 0 .275-.15l3.91-13.254a.22.22 0 0 0-.152-.27l-1.078-.31a.225.225 0 0 0-.275.15l-3.91 13.254a.22.22 0 0 0 .152.27l1.078.31Zm-2.311-3.312.755-.793a.219.219 0 0 0-.014-.314L10.007 25l2.947-2.573a.217.217 0 0 0 .014-.314l-.755-.793a.226.226 0 0 0-.314-.011L8.07 24.84a.216.216 0 0 0 0 .32l3.828 3.53a.226.226 0 0 0 .314-.01Zm7.891.011a.226.226 0 0 1-.314-.01l-.755-.794a.217.217 0 0 1 .014-.314L21.996 25l-2.947-2.573a.219.219 0 0 1-.014-.314l.755-.793a.223.223 0 0 1 .314-.011l3.825 3.532a.216.216 0 0 1 0 .32l-3.825 3.53Z" fill="#338AFF" stroke="#338AFF" stroke-width=".5"/></svg>