<svg width="32" height="40" viewBox="0 0 32 40" fill="none" xmlns="http://www.w3.org/2000/svg">
<path d="M1.59518 10.3571L10.4929 1.57645C10.8672 1.20709 11.3718 1 11.8977 1H28C29.6569 1 31 2.34315 31 4V36C31 37.6569 29.6569 39 28 39H4C2.34315 39 1 37.6569 1 36V11.7806C1 11.2456 1.21437 10.7329 1.59518 10.3571Z" stroke="#338AFF" stroke-width="2"/>
<path d="M11 2V11C11 11.5523 10.5523 12 10 12H2" stroke="#338AFF" stroke-width="2"/>
<path d="M8 28.95V23.05C8 23.0224 8.02239 23 8.05 23H12.5L15.9175 20.0707C15.9499 20.0429 16 20.066 16 20.1087V31.8913C16 31.934 15.9499 31.9571 15.9175 31.9293L12.5 29H8.05C8.02239 29 8 28.9776 8 28.95Z" stroke="#338AFF" stroke-width="2"/>
<path d="M21.7107 21.3515C21.3872 21.1299 20.9583 21.2328 20.7533 21.5831C20.5484 21.9334 20.6441 22.3965 20.9675 22.6181C22.1165 23.4062 22.8025 24.745 22.8025 26.1999C22.8025 27.6549 22.1165 28.994 20.9675 29.7818C20.6441 30.0034 20.5484 30.4668 20.7533 30.8168C20.9415 31.138 21.3638 31.2865 21.7107 31.0484C23.2632 29.984 24.19 28.1715 24.19 26.1999C24.19 24.2284 23.2632 22.4159 21.7107 21.3515ZM20.092 23.7978C19.7572 23.5999 19.3349 23.7303 19.1493 24.0931C18.9739 24.4378 19.0754 24.8665 19.3738 25.0802L19.4225 25.1121C19.7957 25.3337 20.0275 25.7509 20.0275 26.1999C20.0275 26.6226 19.8221 27.017 19.4871 27.2466L19.4228 27.2877C19.0872 27.4881 18.9649 27.944 19.1496 28.3068C19.3355 28.6712 19.7581 28.8006 20.0922 28.6021C20.9082 28.1162 21.4153 27.1959 21.4153 26.1999C21.4153 25.204 20.9082 24.2834 20.092 23.7978Z" fill="#338AFF"/>
</svg>
