<?xml version="1.0" encoding="UTF-8"?>
<svg width="72px" height="96px" viewBox="0 0 72 96" version="1.1" xmlns="http://www.w3.org/2000/svg" xmlns:xlink="http://www.w3.org/1999/xlink">
    <!-- Generator: sketchtool 59.1 (101010) - https://sketch.com -->
    <title>4B7663CA-3199-49F5-BC55-4A5C9F0D315B</title>
    <desc>Created with sketchtool.</desc>
    <g id="Icons" stroke="none" stroke-width="1" fill="none" fill-rule="evenodd">
        <g transform="translate(-80.000000, -272.000000)" fill="#145DBF" fill-rule="nonzero" id="icon-audio">
            <g transform="translate(80.000000, 136.000000)">
                <g transform="translate(0.000000, 136.000000)">
                    <path d="M64,0 C68.418278,0 72,3.581722 72,8 L72,88 C72,92.418278 68.418278,96 64,96 L8,96 C3.581722,96 0,92.418278 0,88 L0,29.3137085 C0,27.1919766 0.842854723,25.1571453 2.34314575,23.6568542 L23.6568542,2.34314575 C25.1571453,0.842854723 27.1919766,0 29.3137085,0 L64,0 Z M64,4 L29.3137085,4 C28.2528425,4 27.2354269,4.42142736 26.4852814,5.17157288 L5.17157288,26.4852814 C4.42142736,27.2354269 4,28.2528425 4,29.3137085 L4,88 C4,90.209139 5.790861,92 8,92 L64,92 C66.209139,92 68,90.209139 68,88 L68,8 C68,5.790861 66.209139,4 64,4 Z" id="border"></path>
                    <path d="M28,0 L28,24 C28,26.209139 26.209139,28 24,28 L0,28 C0,26.745098 0.590542099,25.4901961 1.7716263,24.2352941 L24,2 C25.3333333,0.666666667 26.6666667,0 28,0 Z M7.65685425,24 L24,24 L24,7.65685425 L7.65685425,24 Z" id="corner"></path>
                    <path d="M47.7991819,48.8789404 C46.9249317,48.3250477 45.7655717,48.5820814 45.211679,49.4578575 C44.6577099,50.3336336 44.9163458,51.4914677 45.7905197,52.0453605 C48.8959811,54.0156469 50.7499195,57.362578 50.7499195,61.0000358 C50.7499195,64.6374935 48.8959811,67.9851876 45.7905197,69.9547111 C44.9163458,70.5086038 44.6577099,71.6672009 45.211679,72.5422141 C45.7202532,73.3452822 46.8616842,73.7163751 47.7991819,73.1211311 C51.9952626,70.4601573 54.4999106,65.9289181 54.4999106,61.0000358 C54.4999106,56.0711535 51.9952626,51.5399143 47.7991819,48.8789404 Z M43.4241924,54.9945722 C42.5195009,54.500036 41.3780699,54.8258104 40.8765147,55.7328669 C40.4022841,56.5945706 40.6767841,57.6663514 41.4831073,58.2007419 L41.6148095,58.2805446 C42.623413,58.8344373 43.2499374,59.877373 43.2499374,61.0000358 C43.2499374,62.0566595 42.6949539,63.04266 41.7894184,63.6167879 L41.6155724,63.719527 C40.7085159,64.2203192 40.3780876,65.360148 40.8772777,66.2672046 C41.3795958,67.1781521 42.5217897,67.5015614 43.4249553,67.0054993 C45.6303791,65.7906738 47.0006914,63.4898827 47.0006914,61.0000358 C47.0006914,58.5101888 45.6303791,56.2086348 43.4241924,54.9945722 Z M35.1100795,46.0000715 C36.0726016,46.0000715 36.9999523,46.7430202 36.9999523,47.8765929 L36.9999523,47.8765929 L36.9999523,74.1234786 C36.9999523,75.2562884 36.0733646,76 35.1100795,76 C34.6491889,76 34.1796771,75.8297123 33.7992001,75.4492353 L33.7992001,75.4492353 L26.8483805,68.5000179 L18.8749955,68.5000179 C17.8390788,68.5000179 17,67.6601761 17,66.6250224 L17,66.6250224 L17,55.3750492 C17,54.3391325 17.8390788,53.5000536 18.8749955,53.5000536 L18.8749955,53.5000536 L26.8483805,53.5000536 L33.7992001,46.5508362 C34.1788378,46.1703592 34.6484259,46.0000715 35.1100795,46.0000715 Z M33.2499613,52.4024153 L28.4015689,57.2500447 L20.7499911,57.2500447 L20.7499911,64.7500268 L28.4015689,64.7500268 L33.2499613,69.5976563 L33.2499613,52.4024153 Z" id="volume"></path>
                </g>
            </g>
        </g>
    </g>
</svg>