<?xml version="1.0" encoding="UTF-8"?>
<svg width="24px" height="32px" viewBox="0 0 24 32" version="1.1" xmlns="http://www.w3.org/2000/svg" xmlns:xlink="http://www.w3.org/1999/xlink">
    <!-- Generator: Sketch 47 (45396) - http://www.bohemiancoding.com/sketch -->
    <title>Group 2</title>
    <desc>Created with Sketch.</desc>
    <defs></defs>
    <g id="UI-Kit" stroke="none" stroke-width="1" fill="none" fill-rule="evenodd">
        <g id="File-System" transform="translate(-78.000000, -1991.000000)" fill-rule="nonzero" fill="#1875F0">
            <g id="File-Icons" transform="translate(78.000000, 1991.000000)">
                <g id="Group-2">
                    <g id="music-doc">
                        <g id="Group">
                            <path d="M23.3333333,32 L0.666666667,32 C0.298666667,32 0,31.7013333 0,31.3333333 L0,8.66666667 C0,8.48933333 0.0706666667,8.32 0.194666667,8.19466667 L8.19466667,0.194666667 C8.32,0.0706666667 8.48933333,0 8.66666667,0 L23.3333333,0 C23.7013333,0 24,0.298666667 24,0.666666667 L24,31.3333333 C24,31.7013333 23.7013333,32 23.3333333,32 Z M1.33333333,30.6666667 L22.6666667,30.6666667 L22.6666667,1.33333333 L8.94266667,1.33333333 L1.33333333,8.94266667 L1.33333333,30.6666667 Z" id="Shape"></path>
                            <path d="M8.66666667,9.33333333 L0.666666667,9.33333333 C0.298666667,9.33333333 0,9.03466667 0,8.66666667 C0,8.29866667 0.298666667,8 0.666666667,8 L8,8 L8,0.666666667 C8,0.298666667 8.29866667,0 8.66666667,0 C9.03466667,0 9.33333333,0.298666667 9.33333333,0.666666667 L9.33333333,8.66666667 C9.33333333,9.03466667 9.03466667,9.33333333 8.66666667,9.33333333 Z" id="Shape"></path>
                        </g>
                        <path d="M10,22.6666667 C9.632,22.6666667 9.33333333,22.368 9.33333333,22 L9.33333333,14 C9.33333333,13.748 9.476,13.5173333 9.70133333,13.404 L17.7013333,9.404 C17.908,9.30133333 18.1533333,9.31333333 18.3493333,9.432 C18.5466667,9.55466667 18.6666667,9.76933333 18.6666667,10 L18.6666667,19.3333333 C18.6666667,19.7013333 18.368,20 18,20 C17.632,20 17.3333333,19.7013333 17.3333333,19.3333333 L17.3333333,11.0773333 L10.6666667,14.4106667 L10.6666667,22 C10.6666667,22.368 10.368,22.6666667 10,22.6666667 Z" id="Shape"></path>
                        <path d="M8,24 C6.504,24 5.33333333,23.1213333 5.33333333,22 C5.33333333,20.8786667 6.504,20 8,20 C9.496,20 10.6666667,20.8786667 10.6666667,22 C10.6666667,23.1213333 9.496,24 8,24 Z M8,21.3333333 C7.18666667,21.3333333 6.66666667,21.728 6.66666667,22 C6.66666667,22.272 7.18666667,22.6666667 8,22.6666667 C8.81333333,22.6666667 9.33333333,22.272 9.33333333,22 C9.33333333,21.728 8.81333333,21.3333333 8,21.3333333 Z" id="Shape"></path>
                        <path d="M16,21.3333333 C14.504,21.3333333 13.3333333,20.4546667 13.3333333,19.3333333 C13.3333333,18.212 14.504,17.3333333 16,17.3333333 C17.496,17.3333333 18.6666667,18.212 18.6666667,19.3333333 C18.6666667,20.4546667 17.496,21.3333333 16,21.3333333 Z M16,18.6666667 C15.1866667,18.6666667 14.6666667,19.0613333 14.6666667,19.3333333 C14.6666667,19.6053333 15.1866667,20 16,20 C16.8133333,20 17.3333333,19.6053333 17.3333333,19.3333333 C17.3333333,19.0613333 16.8133333,18.6666667 16,18.6666667 Z" id="Shape"></path>
                    </g>
                </g>
            </g>
        </g>
    </g>
</svg>