<?xml version="1.0" encoding="UTF-8"?>
<svg width="72px" height="96px" viewBox="0 0 72 96" version="1.1" xmlns="http://www.w3.org/2000/svg" xmlns:xlink="http://www.w3.org/1999/xlink">
    <!-- Generator: Sketch 63.1 (92452) - https://sketch.com -->
    <title>code</title>
    <desc>Created with Sketch.</desc>
    <g id="Page-1" stroke="none" stroke-width="1" fill="none" fill-rule="evenodd">
        <g id="-" transform="translate(-499.000000, -69.000000)" fill="#338AFF" fill-rule="nonzero">
            <g id="code" transform="translate(499.000000, 69.000000)">
                <path d="M64,0 C68.418278,0 72,3.581722 72,8 L72,88 C72,92.418278 68.418278,96 64,96 L8,96 C3.581722,96 0,92.418278 0,88 L0,29.3137085 C0,27.1919766 0.842854723,25.1571453 2.34314575,23.6568542 L23.6568542,2.34314575 C25.1571453,0.842854723 27.1919766,0 29.3137085,0 L64,0 Z M64,4 L29.3137085,4 C28.2528425,4 27.2354269,4.42142736 26.4852814,5.17157288 L5.17157288,26.4852814 C4.42142736,27.2354269 4,28.2528425 4,29.3137085 L4,88 C4,90.209139 5.790861,92 8,92 L64,92 C66.209139,92 68,90.209139 68,88 L68,8 C68,5.790861 66.209139,4 64,4 Z" id="border"></path>
                <path d="M28,0 L28,24 C28,26.209139 26.209139,28 24,28 L0,28 C0,26.745098 0.590542099,25.4901961 1.7716263,24.2352941 L24,2 C25.3333333,0.666666667 26.6666667,0 28,0 Z M7.65685425,24 L24,24 L24,7.65685425 L7.65685425,24 Z" id="corner"></path>
                <path d="M32.6749528,75.9812527 C32.94369,76.0562647 33.2187137,75.9062407 33.2937257,75.6375035 L42.0936926,45.3438136 C42.1687046,45.081302 42.012455,44.8000526 41.7499434,44.7250406 L39.3249614,44.0188045 C39.0624498,43.9437925 38.7812005,44.1000421 38.7061884,44.3625537 L29.9062216,74.6562437 C29.8312096,74.9187552 29.9874592,75.2000046 30.2499708,75.2750166 L32.6749528,75.9812527 Z M27.474953,68.4124841 L29.1749611,66.5999885 C29.3687473,66.3937512 29.3499485,66.0687397 29.1437112,65.8812402 L22.5125014,60.0000286 L29.1437112,54.118817 C29.3562351,53.9313175 29.3687473,53.6063061 29.1749611,53.4000688 L27.474953,51.5875731 C27.2874534,51.3875614 26.9687286,51.3750492 26.7687169,51.5625487 L18.1562496,59.6375417 C17.9437257,59.8375534 17.9437257,60.1687904 18.1562496,60.3688021 L26.7687169,68.4375085 C26.9687286,68.625008 27.2812279,68.6124959 27.474953,68.4124841 Z M45.2311973,68.4375085 C45.0311856,68.625008 44.7186863,68.6124959 44.5249612,68.4124841 L42.824953,66.5999885 C42.6311669,66.3937512 42.643679,66.0687397 42.8562029,65.8812402 L49.4874127,60.0000286 L42.8562029,54.118817 C42.6499656,53.9313175 42.6311669,53.6063061 42.824953,53.4000688 L44.5249612,51.5875731 C44.7124607,51.3812747 45.0311856,51.3750492 45.2311973,51.5625487 L53.837439,59.6375417 C54.0499018,59.8375534 54.0499018,60.1687904 53.837439,60.3688021 L45.2311973,68.4375085 Z" stroke="#145DBF"></path>
            </g>
        </g>
    </g>
</svg>