<?xml version="1.0" encoding="UTF-8"?>
<svg width="24px" height="32px" viewBox="0 0 24 32" version="1.1" xmlns="http://www.w3.org/2000/svg" xmlns:xlink="http://www.w3.org/1999/xlink">
    <!-- Generator: Sketch 47 (45396) - http://www.bohemiancoding.com/sketch -->
    <title>Group 6</title>
    <desc>Created with Sketch.</desc>
    <defs></defs>
    <g id="UI-Kit" stroke="none" stroke-width="1" fill="none" fill-rule="evenodd">
        <g id="File-System" transform="translate(-603.000000, -1991.000000)" fill-rule="nonzero" fill="#1875F0">
            <g id="File-Icons" transform="translate(78.000000, 1991.000000)">
                <g id="Group-6" transform="translate(525.000000, 0.000000)">
                    <g id="File-Icons-Copy">
                        <g id="blank-file">
                            <path d="M23.3333333,32 L0.666666667,32 C0.298666667,32 0,31.7013333 0,31.3333333 L0,8.66666667 C0,8.48933333 0.0706666667,8.32 0.194666667,8.19466667 L8.19466667,0.194666667 C8.32,0.0706666667 8.48933333,0 8.66666667,0 L23.3333333,0 C23.7013333,0 24,0.298666667 24,0.666666667 L24,31.3333333 C24,31.7013333 23.7013333,32 23.3333333,32 Z M1.33333333,30.6666667 L22.6666667,30.6666667 L22.6666667,1.33333333 L8.94266667,1.33333333 L1.33333333,8.94266667 L1.33333333,30.6666667 Z" id="Shape"></path>
                            <path d="M8.66666667,9.33333333 L0.666666667,9.33333333 C0.298666667,9.33333333 0,9.03466667 0,8.66666667 C0,8.29866667 0.298666667,8 0.666666667,8 L8,8 L8,0.666666667 C8,0.298666667 8.29866667,0 8.66666667,0 C9.03466667,0 9.33333333,0.298666667 9.33333333,0.666666667 L9.33333333,8.66666667 C9.33333333,9.03466667 9.03466667,9.33333333 8.66666667,9.33333333 Z" id="Shape"></path>
                        </g>
                    </g>
                    <g id="files-coding-file" transform="translate(6.000000, 15.000000)">
                        <path d="M4.628,2.809 C4.44718182,2.53718182 4.08081818,2.46390909 3.809,2.64472727 L0.263545455,5.00836364 C0.0980909091,5.11827273 0,5.30263636 0,5.5 C0,5.69736364 0.0980909091,5.88172727 0.263545455,5.99163636 L3.809,8.35527273 C3.90945455,8.42263636 4.02290909,8.45454545 4.13636364,8.45454545 C4.32781818,8.45454545 4.51454545,8.36236364 4.62918182,8.191 C4.81,7.91918182 4.73672727,7.55281818 4.46490909,7.372 L1.65572727,5.5 L4.46372727,3.628 C4.73554545,3.44718182 4.80881818,3.08081818 4.628,2.809 Z" id="Shape"></path>
                        <path d="M9.191,2.64472727 C8.918,2.46272727 8.55163636,2.53718182 8.372,2.809 C8.19118182,3.08081818 8.26445455,3.44718182 8.53627273,3.628 L11.3442727,5.5 L8.53627273,7.372 C8.26445455,7.55281818 8.19118182,7.91918182 8.372,8.191 C8.48545455,8.36236364 8.67336364,8.45454545 8.86363636,8.45454545 C8.97590909,8.45454545 9.08936364,8.42263636 9.191,8.35527273 L12.7364545,5.99163636 C12.9019091,5.88172727 13,5.69736364 13,5.5 C13,5.30263636 12.9019091,5.11827273 12.7364545,5.00836364 L9.191,2.64472727 Z" id="Shape"></path>
                        <path d="M7.82481818,0.199545455 C7.50572727,0.116818182 7.18781818,0.313 7.10863636,0.629727273 L4.745,10.0842727 C4.66581818,10.401 4.85845455,10.7212727 5.17518182,10.8004545 C5.22245455,10.8122727 5.27090909,10.8181818 5.31818182,10.8181818 C5.58290909,10.8181818 5.824,10.6397273 5.89018182,10.3702727 L8.25381818,0.915727273 C8.33418182,0.600181818 8.14154545,0.278727273 7.82481818,0.199545455 Z" id="Shape"></path>
                    </g>
                </g>
            </g>
        </g>
    </g>
</svg>