<svg width="32" height="40" viewBox="0 0 32 40" fill="none" xmlns="http://www.w3.org/2000/svg">
<path d="M1.59518 10.3571L10.4929 1.57645C10.8672 1.20709 11.3718 1 11.8977 1H28C29.6569 1 31 2.34315 31 4V36C31 37.6569 29.6569 39 28 39H4C2.34315 39 1 37.6569 1 36V11.7806C1 11.2456 1.21437 10.7329 1.59518 10.3571Z" stroke="#338AFF" stroke-width="2"/>
<path d="M14.5236 30.9916C14.643 31.0244 14.7653 30.9587 14.7986 30.8412L18.7097 17.5879C18.7431 17.4731 18.6736 17.35 18.5569 17.3172L17.4792 17.0082C17.3625 16.9754 17.2375 17.0438 17.2042 17.1586L13.2931 30.4119C13.2597 30.5267 13.3292 30.6498 13.4458 30.6826L14.5236 30.9916ZM12.2125 27.6803L12.9681 26.8873C13.0542 26.7971 13.0458 26.6549 12.9542 26.5729L10.007 23.9999L12.9542 21.4269C13.0486 21.3449 13.0542 21.2027 12.9681 21.1125L12.2125 20.3195C12.1292 20.232 11.9875 20.2265 11.8986 20.3086L8.07084 23.8413C7.97639 23.9288 7.97639 24.0737 8.07084 24.1612L11.8986 27.6912C11.9875 27.7733 12.1264 27.7678 12.2125 27.6803ZM20.1042 27.6912C20.0153 27.7733 19.8764 27.7678 19.7903 27.6803L19.0347 26.8873C18.9486 26.7971 18.9542 26.6549 19.0486 26.5729L21.9958 23.9999L19.0486 21.4269C18.957 21.3449 18.9486 21.2027 19.0347 21.1125L19.7903 20.3195C19.8736 20.2293 20.0153 20.2265 20.1042 20.3086L23.9292 23.8413C24.0236 23.9288 24.0236 24.0737 23.9292 24.1612L20.1042 27.6912Z" fill="#338AFF" stroke="#338AFF" stroke-width="0.5"/>
<path d="M11 2V11C11 11.5523 10.5523 12 10 12H2" stroke="#338AFF" stroke-width="2"/>
</svg>
