<?xml version="1.0" encoding="UTF-8"?>
<svg width="72px" height="96px" viewBox="0 0 72 96" version="1.1" xmlns="http://www.w3.org/2000/svg" xmlns:xlink="http://www.w3.org/1999/xlink">
    <!-- Generator: Sketch 63.1 (92452) - https://sketch.com -->
    <title>generic</title>
    <desc>Created with Sketch.</desc>
    <g id="Page-1" stroke="none" stroke-width="1" fill="none" fill-rule="evenodd">
        <g id="-" transform="translate(-865.000000, -473.000000)" fill="#338AFF" fill-rule="nonzero">
            <g id="generic" transform="translate(865.000000, 473.000000)">
                <path d="M64,0 C68.418278,0 72,3.581722 72,8 L72,88 C72,92.418278 68.418278,96 64,96 L8,96 C3.581722,96 0,92.418278 0,88 L0,29.3137085 C0,27.1919766 0.842854723,25.1571453 2.34314575,23.6568542 L23.6568542,2.34314575 C25.1571453,0.842854723 27.1919766,0 29.3137085,0 L64,0 Z M64,4 L29.3137085,4 C28.2528425,4 27.2354269,4.42142736 26.4852814,5.17157288 L5.17157288,26.4852814 C4.42142736,27.2354269 4,28.2528425 4,29.3137085 L4,88 C4,90.209139 5.790861,92 8,92 L64,92 C66.209139,92 68,90.209139 68,88 L68,8 C68,5.790861 66.209139,4 64,4 Z" id="border"></path>
                <path d="M28,0 L28,24 C28,26.209139 26.209139,28 24,28 L0,28 C0,26.745098 0.590542099,25.4901961 1.7716263,24.2352941 L24,2 C25.3333333,0.666666667 26.6666667,0 28,0 Z M7.65685425,24 L24,24 L24,7.65685425 L7.65685425,24 Z" id="corner"></path>
                <path d="M21.2740353,76.5989647 C16.7424146,72.0667337 16.7415754,64.7302491 21.2740353,60.1972551 L38.8529576,42.616044 C42.340727,39.128122 48.0153808,39.128122 51.5029976,42.616044 C54.9984727,46.1120531 54.9993119,51.771143 51.5029976,55.2678388 L36.7010157,70.0717281 C34.2471794,72.5258695 30.2543453,72.5257933 27.8005853,70.0718044 C25.3413321,67.612246 25.3404166,63.6301693 27.8005853,61.1699243 L40.3366424,48.6321887 C40.7028525,48.2659787 41.2964943,48.2659787 41.662628,48.6321887 L42.9881559,49.9580217 C43.3541371,50.3241555 43.3541371,50.9176447 42.9881559,51.2837022 L30.4517935,63.8216667 C29.4576858,64.8156981 29.457228,66.4254202 30.4517935,67.4199094 C31.4436125,68.4118809 33.0576833,68.4120335 34.0497311,67.4198331 L48.8516368,52.6160965 C50.8818901,50.5856905 50.8824242,47.2988789 48.8517131,45.2679389 C46.8258848,43.2418817 43.5299179,43.2420343 41.5041659,45.2679389 L23.9253198,62.8490738 C20.8589972,65.9156253 20.8582343,70.8799079 23.9252436,73.9472987 C26.9943128,77.0168256 31.9630967,77.0165205 35.0316319,73.9450861 L50.3356268,58.6320886 L50.3356268,58.6320886 C50.7016842,58.2658785 51.2951734,58.2661074 51.6613072,58.6323938 L52.986835,59.9582268 C53.3528925,60.3243606 53.3531977,60.9175446 52.9871402,61.283602 L37.6839846,76.5957604 L37.6839846,76.5957604 C33.1501514,81.1341712 25.8087077,81.1342475 21.2740353,76.5989647 Z" id="paperclip"></path>
            </g>
        </g>
    </g>
</svg>