<?xml version="1.0" encoding="UTF-8"?>
<svg width="72px" height="96px" viewBox="0 0 72 96" version="1.1" xmlns="http://www.w3.org/2000/svg" xmlns:xlink="http://www.w3.org/1999/xlink">
    <!-- Generator: Sketch 63.1 (92452) - https://sketch.com -->
    <title>image</title>
    <desc>Created with Sketch.</desc>
    <g id="Page-1" stroke="none" stroke-width="1" fill="none" fill-rule="evenodd">
        <g id="-" transform="translate(-372.000000, -69.000000)" fill="#338AFF" fill-rule="nonzero">
            <g id="image" transform="translate(372.000000, 69.000000)">
                <path d="M64,0 C68.418278,0 72,3.581722 72,8 L72,88 C72,92.418278 68.418278,96 64,96 L8,96 C3.581722,96 0,92.418278 0,88 L0,29.3137085 C0,27.1919766 0.842854723,25.1571453 2.34314575,23.6568542 L23.6568542,2.34314575 C25.1571453,0.842854723 27.1919766,0 29.3137085,0 L64,0 Z M64,4 L29.3137085,4 C28.2528425,4 27.2354269,4.42142736 26.4852814,5.17157288 L5.17157288,26.4852814 C4.42142736,27.2354269 4,28.2528425 4,29.3137085 L4,88 C4,90.209139 5.790861,92 8,92 L64,92 C66.209139,92 68,90.209139 68,88 L68,8 C68,5.790861 66.209139,4 64,4 Z" id="border"></path>
                <path d="M28,0 L28,24 C28,26.209139 26.209139,28 24,28 L0,28 C0,26.745098 0.590542099,25.4901961 1.7716263,24.2352941 L24,2 C25.3333333,0.666666667 26.6666667,0 28,0 Z M7.65685425,24 L24,24 L24,7.65685425 L7.65685425,24 Z" id="corner"></path>
                <path d="M43.9985329,49.0640006 L57.7674572,75.0640006 C58.4728551,76.3960106 57.5072614,78 56,78 L16,78 C14.4123864,78 13.4576857,76.2390708 14.3240038,74.9086537 L26.0449341,56.9086537 C26.7610121,55.8089623 28.324246,55.6852432 29.2043918,56.6586045 L32.5358952,60.3429448 L40.5935369,48.851755 C41.4514369,47.6282838 43.2992101,47.7434621 43.9985329,49.0640006 Z M41.9927454,53.8234654 L34.3715388,64.692245 C33.6343853,65.7435167 32.1116912,65.8377522 31.2505384,64.8853955 L27.9795698,61.2680011 L19.6889659,74 L52.6777138,74 L41.9927454,53.8234654 Z M26.5,40 C30.0898509,40 33,42.9101491 33,46.5 C33,50.0898509 30.0898509,53 26.5,53 C22.9101491,53 20,50.0898509 20,46.5 C20,42.9101491 22.9101491,40 26.5,40 Z M26.5,44 C25.1192881,44 24,45.1192881 24,46.5 C24,47.8807119 25.1192881,49 26.5,49 C27.8807119,49 29,47.8807119 29,46.5 C29,45.1192881 27.8807119,44 26.5,44 Z" id="img"></path>
            </g>
        </g>
    </g>
</svg>