<?xml version="1.0" encoding="UTF-8"?>
<svg width="24px" height="32px" viewBox="0 0 24 32" version="1.1" xmlns="http://www.w3.org/2000/svg" xmlns:xlink="http://www.w3.org/1999/xlink">
    <!-- Generator: Sketch 47 (45396) - http://www.bohemiancoding.com/sketch -->
    <title>Group 7</title>
    <desc>Created with Sketch.</desc>
    <defs></defs>
    <g id="UI-Kit" stroke="none" stroke-width="1" fill="none" fill-rule="evenodd">
        <g id="File-System" transform="translate(-708.000000, -1991.000000)" fill-rule="nonzero" fill="#1875F0">
            <g id="File-Icons" transform="translate(78.000000, 1991.000000)">
                <g id="Group-7" transform="translate(630.000000, 0.000000)">
                    <g id="File-Icons-Copy-2">
                        <g id="blank-file">
                            <path d="M23.3333333,32 L0.666666667,32 C0.298666667,32 0,31.7013333 0,31.3333333 L0,8.66666667 C0,8.48933333 0.0706666667,8.32 0.194666667,8.19466667 L8.19466667,0.194666667 C8.32,0.0706666667 8.48933333,0 8.66666667,0 L23.3333333,0 C23.7013333,0 24,0.298666667 24,0.666666667 L24,31.3333333 C24,31.7013333 23.7013333,32 23.3333333,32 Z M1.33333333,30.6666667 L22.6666667,30.6666667 L22.6666667,1.33333333 L8.94266667,1.33333333 L1.33333333,8.94266667 L1.33333333,30.6666667 Z" id="Shape"></path>
                            <path d="M8.66666667,9.33333333 L0.666666667,9.33333333 C0.298666667,9.33333333 0,9.03466667 0,8.66666667 C0,8.29866667 0.298666667,8 0.666666667,8 L8,8 L8,0.666666667 C8,0.298666667 8.29866667,0 8.66666667,0 C9.03466667,0 9.33333333,0.298666667 9.33333333,0.666666667 L9.33333333,8.66666667 C9.33333333,9.03466667 9.03466667,9.33333333 8.66666667,9.33333333 Z" id="Shape"></path>
                        </g>
                    </g>
                    <g id="files-image-file" transform="translate(6.000000, 12.000000)">
                        <path d="M9.40727273,2.72172727 C9.40254545,2.70990909 9.39190909,2.70281818 9.386,2.691 C9.36945455,2.65672727 9.34581818,2.62836364 9.32218182,2.59763636 C9.29618182,2.56454545 9.27254545,2.53263636 9.24063636,2.50663636 C9.23236364,2.49954545 9.22763636,2.48890909 9.21818182,2.48181818 C9.19927273,2.46763636 9.17563636,2.46409091 9.15554545,2.45227273 C9.11772727,2.42981818 9.08109091,2.41090909 9.03972727,2.39672727 C9.00663636,2.38609091 8.97472727,2.38254545 8.94163636,2.37781818 C8.90027273,2.37190909 8.86127273,2.36836364 8.81872727,2.37190909 C8.78090909,2.37545455 8.74663636,2.38490909 8.71,2.39436364 C8.684,2.40145455 8.658,2.40027273 8.632,2.41090909 C8.62018182,2.41563636 8.61309091,2.42627273 8.60245455,2.431 C8.56818182,2.44754545 8.53981818,2.47236364 8.50909091,2.496 C8.47718182,2.52081818 8.44527273,2.54563636 8.41927273,2.57518182 C8.411,2.58463636 8.40036364,2.58936364 8.39327273,2.59881818 L5.14445455,6.93136364 L3.22163636,5.97054545 C2.93090909,5.82636364 2.57518182,5.94218182 2.42863636,6.23527273 L0.065,10.9625455 C0.0626363636,10.9684545 0.0626363636,10.9743636 0.0602727273,10.9802727 C0.0437272727,11.0157273 0.039,11.0559091 0.0295454545,11.0960909 C0.0212727273,11.1339091 0.00827272727,11.1705455 0.00709090909,11.2095455 C0.00354545455,11.2154545 0,11.2201818 0,11.2272727 C0,11.258 0.013,11.284 0.0177272727,11.3135455 C0.0236363636,11.3549091 0.0271818182,11.3950909 0.0425454545,11.4340909 C0.0567272727,11.4707273 0.078,11.5014545 0.0992727273,11.5333636 C0.119363636,11.5652727 0.135909091,11.5971818 0.160727273,11.6255455 C0.190272727,11.6574545 0.225727273,11.6799091 0.261181818,11.7035455 C0.284818182,11.7200909 0.301363636,11.7425455 0.327363636,11.7555455 C0.332090909,11.7579091 0.338,11.7567273 0.343909091,11.7590909 C0.418363636,11.7957273 0.501090909,11.8181818 0.590909091,11.8181818 L12.4090909,11.8181818 C12.6076364,11.8181818 12.7931818,11.7189091 12.9019091,11.5522727 C13.0118182,11.3856364 13.0295455,11.1764545 12.9527273,10.9944545 L9.40727273,2.72172727 Z M1.547,10.6363636 L3.21927273,7.293 L5.05463636,8.21009091 C5.30872727,8.33654545 5.61954545,8.26563636 5.79209091,8.03636364 L8.72418182,4.12690909 L11.5132727,10.6363636 L1.547,10.6363636 Z" id="Shape"></path>
                        <path d="M3.54545455,4.72727273 C4.849,4.72727273 5.90909091,3.66718182 5.90909091,2.36363636 C5.90909091,1.06009091 4.849,0 3.54545455,0 C2.24190909,0 1.18181818,1.06009091 1.18181818,2.36363636 C1.18181818,3.66718182 2.24190909,4.72727273 3.54545455,4.72727273 Z M3.54545455,1.18181818 C4.19781818,1.18181818 4.72727273,1.71245455 4.72727273,2.36363636 C4.72727273,3.01481818 4.19781818,3.54545455 3.54545455,3.54545455 C2.89309091,3.54545455 2.36363636,3.01481818 2.36363636,2.36363636 C2.36363636,1.71245455 2.89309091,1.18181818 3.54545455,1.18181818 Z" id="Shape"></path>
                    </g>
                </g>
            </g>
        </g>
    </g>
</svg>