<?xml version="1.0" encoding="UTF-8"?>
<svg width="72px" height="96px" viewBox="0 0 72 96" version="1.1" xmlns="http://www.w3.org/2000/svg" xmlns:xlink="http://www.w3.org/1999/xlink">
    <!-- Generator: sketchtool 59.1 (101010) - https://sketch.com -->
    <title>D741F386-760A-46F2-9F10-CA49C79D0815</title>
    <desc>Created with sketchtool.</desc>
    <g id="Icons" stroke="none" stroke-width="1" fill="none" fill-rule="evenodd">
        <g transform="translate(-304.000000, -408.000000)" fill="#145DBF" fill-rule="nonzero" id="icon-patch">
            <g transform="translate(80.000000, 136.000000)">
                <g transform="translate(224.000000, 272.000000)">
                    <path d="M64,0 C68.418278,0 72,3.581722 72,8 L72,88 C72,92.418278 68.418278,96 64,96 L8,96 C3.581722,96 0,92.418278 0,88 L0,29.3137085 C0,27.1919766 0.842854723,25.1571453 2.34314575,23.6568542 L23.6568542,2.34314575 C25.1571453,0.842854723 27.1919766,0 29.3137085,0 L64,0 Z M64,4 L29.3137085,4 C28.2528425,4 27.2354269,4.42142736 26.4852814,5.17157288 L5.17157288,26.4852814 C4.42142736,27.2354269 4,28.2528425 4,29.3137085 L4,88 C4,90.209139 5.790861,92 8,92 L64,92 C66.209139,92 68,90.209139 68,88 L68,8 C68,5.790861 66.209139,4 64,4 Z" id="border"></path>
                    <path d="M28,0 L28,24 C28,26.209139 26.209139,28 24,28 L0,28 C0,26.745098 0.590542099,25.4901961 1.7716263,24.2352941 L24,2 C25.3333333,0.666666667 26.6666667,0 28,0 Z M7.65685425,24 L24,24 L24,7.65685425 L7.65685425,24 Z" id="corner"></path>
                    <path d="M55.505,53.085 C56.285,52.305 56.285,51.005 55.505,50.265 L46.825,41.585 C46.085,40.805 44.785,40.805 44.005,41.585 L36.085,49.545 L24.545,61.005 L16.585,69.005 C15.805,69.785 15.805,71.005 16.585,71.825 L25.265,80.505 C26.085,81.285 27.305,81.285 28.085,80.505 L36.085,72.545 L47.545,61.005 L55.505,53.085 Z M36.085,55.005 C37.1895695,55.005 38.085,55.9004305 38.085,57.005 C38.085,58.1095695 37.1895695,59.005 36.085,59.005 C34.9804305,59.005 34.085,58.1095695 34.085,57.005 C34.085,55.9004305 34.9804305,55.005 36.085,55.005 M26.84,77.655 L19.58,70.415 L26.84,63.155 L34.08,70.395 L26.84,77.655 M32.085,63.005 C30.9804305,63.005 30.085,62.1095695 30.085,61.005 C30.085,59.9004305 30.9804305,59.005 32.085,59.005 C33.1895695,59.005 34.085,59.9004305 34.085,61.005 C34.085,62.1095695 33.1895695,63.005 32.085,63.005 M36.085,67.005 C34.9804305,67.005 34.085,66.1095695 34.085,65.005 C34.085,63.9004305 34.9804305,63.005 36.085,63.005 C37.1895695,63.005 38.085,63.9004305 38.085,65.005 C38.085,66.1095695 37.1895695,67.005 36.085,67.005 M40.085,59.005 C41.1895695,59.005 42.085,59.9004305 42.085,61.005 C42.085,62.1095695 41.1895695,63.005 40.085,63.005 C38.9804305,63.005 38.085,62.1095695 38.085,61.005 C38.085,59.9004305 38.9804305,59.005 40.085,59.005 M45.64,58.755 L38.38,51.515 L45.64,44.255 L52.88,51.495 L45.64,58.755 Z" id="bandage" stroke="#145DBF"></path>
                </g>
            </g>
        </g>
    </g>
</svg>