<?xml version="1.0" encoding="UTF-8"?>
<svg width="72px" height="96px" viewBox="0 0 72 96" version="1.1" xmlns="http://www.w3.org/2000/svg" xmlns:xlink="http://www.w3.org/1999/xlink">
    <!-- Generator: sketchtool 59.1 (101010) - https://sketch.com -->
    <title>72EDE463-4A14-465A-A4E9-73F9530B3479</title>
    <desc>Created with sketchtool.</desc>
    <g id="Icons" stroke="none" stroke-width="1" fill="none" fill-rule="evenodd">
        <g transform="translate(-80.000000, -136.000000)" fill="#EC1C28" fill-rule="nonzero" id="icon-pdf">
            <g transform="translate(80.000000, 136.000000)">
                <g>
                    <path d="M64,0 C68.418278,0 72,3.581722 72,8 L72,88 C72,92.418278 68.418278,96 64,96 L8,96 C3.581722,96 0,92.418278 0,88 L0,29.3137085 C0,27.1919766 0.842854723,25.1571453 2.34314575,23.6568542 L23.6568542,2.34314575 C25.1571453,0.842854723 27.1919766,0 29.3137085,0 L64,0 Z M64,4 L29.3137085,4 C28.2528425,4 27.2354269,4.42142736 26.4852814,5.17157288 L5.17157288,26.4852814 C4.42142736,27.2354269 4,28.2528425 4,29.3137085 L4,88 C4,90.209139 5.790861,92 8,92 L64,92 C66.209139,92 68,90.209139 68,88 L68,8 C68,5.790861 66.209139,4 64,4 Z" id="border-2"></path>
                    <path d="M28,0 L28,24 C28,26.209139 26.209139,28 24,28 L0,28 C0,26.745098 0.590542099,25.4901961 1.7716263,24.2352941 L24,2 C25.3333333,0.666666667 26.6666667,0 28,0 Z M7.65685425,24 L24,24 L24,7.65685425 L7.65685425,24 Z" id="corner"></path>
                    <path d="M34.9026153,44 C36.514697,44.0294271 37.9331069,44.8216461 38.8111925,46.1796276 C40.3780096,48.6066436 40.1132712,52.7410996 38.7387636,57.9155899 C38.9347752,58.1363451 39.1385212,58.3520735 39.3501656,58.5625892 C40.4001211,59.6056645 41.4923506,60.5460798 42.5992675,61.3723718 C46.4175898,60.806892 49.6822087,61.0619988 51.7053999,62.373139 C53.1548989,63.3102879 54.0004595,64.7948577 54.0004595,66.4756319 C54.0004595,68.3298133 52.9968984,69.8954605 51.3113176,70.5872852 C48.8206963,71.6138301 45.2274357,70.5007192 41.2531117,68.0218868 C39.8578988,68.3559565 38.4953765,68.8042606 37.2525397,69.3483437 C35.9114537,69.9359604 34.643023,70.5169619 33.4611616,71.0846155 C30.4833921,76.7356357 27.3519955,80 23.3026499,80 C22.6686656,80 22.0310789,79.9101771 21.4009119,79.7300873 C19.2444607,79.1133289 18.1271079,77.658075 18.0082953,75.9818611 C17.8036557,72.9231388 21.3849017,70.0552568 28.7918896,66.3653761 C29.2731148,65.3664724 29.6816065,64.4462311 30.4073463,62.7703763 L30.823892,61.8054396 C31.1630814,61.0325322 31.5121802,60.1063273 31.8443341,59.1001022 C29.4395249,55.081874 28.7585823,50.5636254 30.0663065,47.4259055 C30.937563,45.321283 32.7072046,44 34.8476471,44 L34.9026153,44 Z M29.739325,70.1152911 L28.02902,71.0480841 L27.6904034,71.2339308 C24.5676071,72.9588464 22.5037395,74.4098948 21.9538357,75.2877254 L21.9538357,75.2877254 L21.6283263,75.8073474 L22.2028214,76.0216339 L22.322097,76.0640555 L22.4423888,76.1016144 C24.5271748,76.7027814 26.5832999,75.0496578 28.6896382,71.7564503 L28.6896382,71.7564503 L29.739325,70.1152911 Z M35.517304,60.0176406 L35.2501448,60.807481 L35.0284236,61.4425535 C34.8005352,62.0754294 34.5541793,62.7016272 34.2896602,63.3203502 L34.2896602,63.3203502 L33.8837853,64.2606291 L33.7139651,64.6558901 C33.491375,65.1722803 33.2827367,65.649244 33.0713077,66.1236447 L33.0713077,66.1236447 L32.5334411,67.3304998 L33.7355371,66.7820793 L33.9208427,66.6977674 C34.4172875,66.4725032 34.9419002,66.2393633 35.7297543,65.8923732 C36.8496425,65.4036693 38.0787776,64.9708943 39.3390494,64.6234249 L39.3390494,64.6234249 L40.2929178,64.3604341 L39.5153801,63.7484993 L38.9245831,63.272443 C38.1443225,62.6287981 37.3941366,61.9497176 36.6764286,61.2373279 C36.5033113,61.0636895 36.3331626,60.8860952 36.0882002,60.6253408 L36.0882002,60.6253408 L35.517304,60.0176406 Z M49.6423202,65.5391504 C48.8182143,65.0024345 47.2301082,64.7905322 45.2305825,64.9014284 L45.2305825,64.9014284 L43.3874654,65.00365 L45.0302116,65.8456208 L45.2885306,65.9759805 C47.5124363,67.0805273 49.3402251,67.5251537 50.010151,67.0174565 L50.010151,67.0174565 L50.2036886,66.8707859 L50.2080736,66.62799 L50.2063072,66.4842902 C50.1871323,66.0694479 50.0386799,65.7962671 49.6423202,65.5391504 Z M34.8532817,47.77477 L34.8290432,47.7745631 C34.26259,47.7834594 33.8462623,48.1864098 33.5636342,48.8678461 C32.8884494,50.488039 33.1733732,53.2476339 34.4207197,55.8914921 L34.4207197,55.8914921 L35.0365673,57.196834 L35.3601887,55.7902584 C36.1969235,52.1535075 36.3712529,49.372571 35.6271865,48.2229405 C35.4282295,47.9173627 35.1873641,47.785725 34.8532817,47.77477 L34.8532817,47.77477 Z" id="PDF"></path>
                </g>
            </g>
        </g>
    </g>
</svg>