<?xml version="1.0" encoding="UTF-8"?>
<svg width="72px" height="96px" viewBox="0 0 72 96" version="1.1" xmlns="http://www.w3.org/2000/svg" xmlns:xlink="http://www.w3.org/1999/xlink">
    <!-- Generator: Sketch 63.1 (92452) - https://sketch.com -->
    <title>ppt</title>
    <desc>Created with Sketch.</desc>
    <g id="Page-1" stroke="none" stroke-width="1" fill="none" fill-rule="evenodd">
        <g id="-" transform="translate(-359.000000, -384.000000)" fill="#CC4F2E" fill-rule="nonzero">
            <g id="ppt" transform="translate(359.000000, 384.000000)">
                <path d="M64,0 C68.418278,0 72,3.581722 72,8 L72,88 C72,92.418278 68.418278,96 64,96 L8,96 C3.581722,96 0,92.418278 0,88 L0,29.3137085 C0,27.1919766 0.842854723,25.1571453 2.34314575,23.6568542 L23.6568542,2.34314575 C25.1571453,0.842854723 27.1919766,0 29.3137085,0 L64,0 Z M64,4 L29.3137085,4 C28.2528425,4 27.2354269,4.42142736 26.4852814,5.17157288 L5.17157288,26.4852814 C4.42142736,27.2354269 4,28.2528425 4,29.3137085 L4,88 C4,90.209139 5.790861,92 8,92 L64,92 C66.209139,92 68,90.209139 68,88 L68,8 C68,5.790861 66.209139,4 64,4 Z" id="border"></path>
                <path d="M28,0 L28,24 C28,26.209139 26.209139,28 24,28 L0,28 C0,26.745098 0.590542099,25.4901961 1.7716263,24.2352941 L24,2 C25.3333333,0.666666667 26.6666667,0 28,0 Z M7.65685425,24 L24,24 L24,7.65685425 L7.65685425,24 Z" id="corner"></path>
                <path d="M33.0898438,60.8828125 L35.0820312,60.8828125 C36.9440197,60.8828125 38.337235,60.5149776 39.2617188,59.7792969 C40.1862025,59.0436161 40.6484375,57.9726633 40.6484375,56.5664062 C40.6484375,55.1471283 40.2610716,54.0989617 39.4863281,53.421875 C38.7115847,52.7447883 37.4974041,52.40625 35.84375,52.40625 L33.0898438,52.40625 L33.0898438,60.8828125 Z M46.7617188,56.3515625 C46.7617188,59.4244945 45.8014419,61.7747314 43.8808594,63.4023438 C41.9602769,65.0299561 39.2291844,65.84375 35.6875,65.84375 L33.0898438,65.84375 L33.0898438,76 L27.0351562,76 L27.0351562,47.4453125 L36.15625,47.4453125 C39.619809,47.4453125 42.2532462,48.1907478 44.0566406,49.6816406 C45.8600351,51.1725335 46.7617188,53.3958186 46.7617188,56.3515625 Z" id="P"></path>
            </g>
        </g>
    </g>
</svg>