<svg width="28" height="28" viewBox="0 0 28 28" fill="none" xmlns="http://www.w3.org/2000/svg">
<path d="M13.9999 1.01961C11.6495 1.01961 9.4655 1.61241 7.4479 2.79801C5.4927 3.96281 3.9327 5.52281 2.7679 7.47801C1.5823 9.49561 0.989503 11.6796 0.989503 14.03C0.989503 16.3804 1.5823 18.5644 2.7679 20.582C3.9327 22.5372 5.4927 24.0972 7.4479 25.262C9.4655 26.4476 11.6495 27.0404 13.9999 27.0404C16.3503 27.0404 18.5343 26.4476 20.5519 25.262C22.5071 24.0972 24.0671 22.5372 25.2319 20.582C26.4175 18.5644 27.0103 16.3804 27.0103 14.03C27.0103 11.6796 26.4175 9.49561 25.2319 7.47801C24.0671 5.52281 22.5071 3.96281 20.5519 2.79801C18.5343 1.61241 16.3503 1.01961 13.9999 1.01961ZM13.9999 24.4196C12.1279 24.4196 10.3807 23.9412 8.7583 22.9844C7.1983 22.0692 5.9607 20.8316 5.0455 19.2716C4.0887 17.6492 3.6103 15.902 3.6103 14.03C3.6103 12.158 4.0887 10.4108 5.0455 8.78841C5.9607 7.22841 7.1983 5.99081 8.7583 5.07561C10.3807 4.11881 12.1279 3.64041 13.9999 3.64041C15.8719 3.64041 17.6191 4.11881 19.2415 5.07561C20.8015 5.99081 22.0391 7.22841 22.9543 8.78841C23.9111 10.4108 24.3895 12.158 24.3895 14.03C24.3895 15.902 23.9111 17.6492 22.9543 19.2716C22.0391 20.8316 20.8015 22.0692 19.2415 22.9844C17.6191 23.9412 15.8719 24.4196 13.9999 24.4196ZM14.6551 15.3404H13.3447L12.6895 7.54041H15.3103L14.6551 15.3404ZM15.3103 19.2404C15.3103 19.594 15.1751 19.8956 14.9047 20.1452C14.6551 20.3948 14.3535 20.5196 13.9999 20.5196C13.6463 20.5196 13.3343 20.3948 13.0639 20.1452C12.8143 19.8956 12.6895 19.594 12.6895 19.2404C12.6895 18.8868 12.8143 18.5852 13.0639 18.3356C13.3343 18.0652 13.6463 17.93 13.9999 17.93C14.3535 17.93 14.6551 18.0652 14.9047 18.3356C15.1751 18.5852 15.3103 18.8868 15.3103 19.2404Z" fill="#579EFF"/>
</svg>
