<?xml version="1.0" encoding="UTF-8"?>
<svg width="72px" height="96px" viewBox="0 0 72 96" version="1.1" xmlns="http://www.w3.org/2000/svg" xmlns:xlink="http://www.w3.org/1999/xlink">
    <!-- Generator: sketchtool 59.1 (101010) - https://sketch.com -->
    <title>7CC4D7B3-C148-4368-8392-8A99966F6EE7</title>
    <desc>Created with sketchtool.</desc>
    <g id="Icons" stroke="none" stroke-width="1" fill="none" fill-rule="evenodd">
        <g transform="translate(-192.000000, -136.000000)" fill="#000000" fill-rule="nonzero" id="icon-text">
            <g transform="translate(80.000000, 136.000000)">
                <g transform="translate(112.000000, 0.000000)">
                    <path d="M64,0 C68.418278,0 72,3.581722 72,8 L72,88 C72,92.418278 68.418278,96 64,96 L8,96 C3.581722,96 0,92.418278 0,88 L0,29.3137085 C0,27.1919766 0.842854723,25.1571453 2.34314575,23.6568542 L23.6568542,2.34314575 C25.1571453,0.842854723 27.1919766,0 29.3137085,0 L64,0 Z M64,4 L29.3137085,4 C28.2528425,4 27.2354269,4.42142736 26.4852814,5.17157288 L5.17157288,26.4852814 C4.42142736,27.2354269 4,28.2528425 4,29.3137085 L4,88 C4,90.209139 5.790861,92 8,92 L64,92 C66.209139,92 68,90.209139 68,88 L68,8 C68,5.790861 66.209139,4 64,4 Z" id="border"></path>
                    <path d="M28,0 L28,24 C28,26.209139 26.209139,28 24,28 L0,28 C0,26.745098 0.590542099,25.4901961 1.7716263,24.2352941 L24,2 C25.3333333,0.666666667 26.6666667,0 28,0 Z M7.65685425,24 L24,24 L24,7.65685425 L7.65685425,24 Z" id="corner"></path>
                    <path d="M46,72 C47.1045695,72 48,72.8954305 48,74 C48,75.1045695 47.1045695,76 46,76 L18,76 C16.8954305,76 16,75.1045695 16,74 C16,72.8954305 16.8954305,72 18,72 L46,72 Z M54,64 C55.1045695,64 56,64.8954305 56,66 C56,67.1045695 55.1045695,68 54,68 L18,68 C16.8954305,68 16,67.1045695 16,66 C16,64.8954305 16.8954305,64 18,64 L54,64 Z M54,56 C55.1045695,56 56,56.8954305 56,58 C56,59.1045695 55.1045695,60 54,60 L18,60 C16.8954305,60 16,59.1045695 16,58 C16,56.8954305 16.8954305,56 18,56 L54,56 Z M54,48 C55.1045695,48 56,48.8954305 56,50 C56,51.1045695 55.1045695,52 54,52 L18,52 C16.8954305,52 16,51.1045695 16,50 C16,48.8954305 16.8954305,48 18,48 L54,48 Z" id="placeholder"></path>
                </g>
            </g>
        </g>
    </g>
</svg>