<?xml version="1.0" encoding="UTF-8"?>
<svg width="72px" height="96px" viewBox="0 0 72 96" version="1.1" xmlns="http://www.w3.org/2000/svg" xmlns:xlink="http://www.w3.org/1999/xlink">
    <!-- Generator: Sketch 63.1 (92452) - https://sketch.com -->
    <title>video</title>
    <desc>Created with Sketch.</desc>
    <g id="Page-1" stroke="none" stroke-width="1" fill="none" fill-rule="evenodd">
        <g id="-" transform="translate(-314.000000, -233.000000)" fill="#338AFF" fill-rule="nonzero">
            <g id="video" transform="translate(314.000000, 233.000000)">
                <path d="M64,0 C68.418278,0 72,3.581722 72,8 L72,88 C72,92.418278 68.418278,96 64,96 L8,96 C3.581722,96 0,92.418278 0,88 L0,29.3137085 C0,27.1919766 0.842854723,25.1571453 2.34314575,23.6568542 L23.6568542,2.34314575 C25.1571453,0.842854723 27.1919766,0 29.3137085,0 L64,0 Z M64,4 L29.3137085,4 C28.2528425,4 27.2354269,4.42142736 26.4852814,5.17157288 L5.17157288,26.4852814 C4.42142736,27.2354269 4,28.2528425 4,29.3137085 L4,88 C4,90.209139 5.790861,92 8,92 L64,92 C66.209139,92 68,90.209139 68,88 L68,8 C68,5.790861 66.209139,4 64,4 Z" id="border"></path>
                <path d="M28,0 L28,24 C28,26.209139 26.209139,28 24,28 L0,28 C0,26.745098 0.590542099,25.4901961 1.7716263,24.2352941 L24,2 C25.3333333,0.666666667 26.6666667,0 28,0 Z M7.65685425,24 L24,24 L24,7.65685425 L7.65685425,24 Z" id="corner"></path>
                <path d="M39.3416408,49.5527856 C39.8577139,49.8108221 40.2870197,50.2114573 40.5799305,50.7050631 L40.6832816,50.8944264 L51.0652476,71.6583584 C51.8062153,73.1402939 51.2055423,74.942313 49.7236068,75.6832808 C49.3070405,75.8915639 48.8477013,75.9999992 48.381966,75.9999992 L27.618034,75.9999992 C25.9611797,75.9999992 24.618034,74.6568534 24.618034,72.9999992 C24.618034,72.5342639 24.7264693,72.0749247 24.9347524,71.6583584 L35.3167184,50.8944264 C36.0576862,49.4124909 37.8597053,48.8118179 39.3416408,49.5527856 Z M38,54.4721352 L29.236068,71.9999992 L46.763932,71.9999992 L38,54.4721352 Z" id="play" transform="translate(38.000329, 62.617705) rotate(90.000000) translate(-38.000329, -62.617705) "></path>
            </g>
        </g>
    </g>
</svg>