<?xml version="1.0" encoding="UTF-8"?>
<svg width="72px" height="96px" viewBox="0 0 72 96" version="1.1" xmlns="http://www.w3.org/2000/svg" xmlns:xlink="http://www.w3.org/1999/xlink">
    <!-- Generator: sketchtool 59.1 (101010) - https://sketch.com -->
    <title>9BBF3BB2-A9FF-435F-B03F-952674DC1B96</title>
    <desc>Created with sketchtool.</desc>
    <g id="Icons" stroke="none" stroke-width="1" fill="none" fill-rule="evenodd">
        <g transform="translate(-304.000000, -136.000000)" fill="#145DBF" fill-rule="nonzero" id="icon-video">
            <g transform="translate(80.000000, 136.000000)">
                <g transform="translate(224.000000, 0.000000)">
                    <path d="M64,0 C68.418278,0 72,3.581722 72,8 L72,88 C72,92.418278 68.418278,96 64,96 L8,96 C3.581722,96 0,92.418278 0,88 L0,29.3137085 C0,27.1919766 0.842854723,25.1571453 2.34314575,23.6568542 L23.6568542,2.34314575 C25.1571453,0.842854723 27.1919766,0 29.3137085,0 L64,0 Z M64,4 L29.3137085,4 C28.2528425,4 27.2354269,4.42142736 26.4852814,5.17157288 L5.17157288,26.4852814 C4.42142736,27.2354269 4,28.2528425 4,29.3137085 L4,88 C4,90.209139 5.790861,92 8,92 L64,92 C66.209139,92 68,90.209139 68,88 L68,8 C68,5.790861 66.209139,4 64,4 Z" id="border"></path>
                    <path d="M28,0 L28,24 C28,26.209139 26.209139,28 24,28 L0,28 C0,26.745098 0.590542099,25.4901961 1.7716263,24.2352941 L24,2 C25.3333333,0.666666667 26.6666667,0 28,0 Z M7.65685425,24 L24,24 L24,7.65685425 L7.65685425,24 Z" id="corner"></path>
                    <path d="M39.3416408,49.5527864 C39.8577139,49.8108229 40.2870197,50.2114581 40.5799305,50.7050639 L40.6832816,50.8944272 L51.0652476,71.6583592 C51.8062153,73.1402947 51.2055423,74.9423138 49.7236068,75.6832816 C49.3070405,75.8915647 48.8477013,76 48.381966,76 L27.618034,76 C25.9611797,76 24.618034,74.6568542 24.618034,73 C24.618034,72.5342647 24.7264693,72.0749255 24.9347524,71.6583592 L35.3167184,50.8944272 C36.0576862,49.4124917 37.8597053,48.8118187 39.3416408,49.5527864 Z M38,54.472136 L29.236068,72 L46.763932,72 L38,54.472136 Z" id="play" transform="translate(38.000329, 62.617705) rotate(-270.000000) translate(-38.000329, -62.617705) "></path>
                </g>
            </g>
        </g>
    </g>
</svg>