<svg width="32" height="40" viewBox="0 0 32 40" fill="none" xmlns="http://www.w3.org/2000/svg">
<path d="M1.59518 10.3571L10.4929 1.57645C10.8672 1.20709 11.3718 1 11.8977 1H28C29.6569 1 31 2.34315 31 4V36C31 37.6569 29.6569 39 28 39H4C2.34315 39 1 37.6569 1 36V11.7806C1 11.2456 1.21437 10.7329 1.59518 10.3571Z" stroke="#338AFF" stroke-width="2"/>
<path d="M11 2V11C11 11.5523 10.5523 12 10 12H2" stroke="#338AFF" stroke-width="2"/>
<path d="M11 31.5725V20.3823C11 20.202 11.185 20.081 11.3502 20.1532L22.5405 25.049C22.7295 25.1317 22.7427 25.3948 22.5628 25.4959L11.3726 31.7904C11.2059 31.8842 11 31.7637 11 31.5725Z" stroke="#338AFF" stroke-width="2"/>
</svg>
