<svg width="28" height="25" viewBox="0 0 28 25" fill="none" xmlns="http://www.w3.org/2000/svg">
<path d="M26.5423 18.9892L17.4319 2.07881C17.0991 1.43401 16.6207 0.93481 15.9967 0.581211C15.3935 0.206811 14.7279 0.019611 13.9999 0.019611C13.2719 0.019611 12.5959 0.206811 11.9719 0.581211C11.3687 0.93481 10.9007 1.43401 10.5679 2.07881L1.4575 18.9892C1.1247 19.5924 0.968702 20.2372 0.989503 20.9236C1.0103 21.61 1.1975 22.2548 1.5511 22.858C1.9047 23.4404 2.3727 23.898 2.9551 24.2308C3.5583 24.5636 4.2135 24.73 4.9207 24.73H23.1103C23.7967 24.73 24.4311 24.5636 25.0135 24.2308C25.6167 23.898 26.0951 23.4404 26.4487 22.858C26.8023 22.2548 26.9895 21.61 27.0103 20.9236C27.0311 20.2372 26.8751 19.5924 26.5423 18.9892ZM23.1103 22.1404H4.8895C4.5775 22.1404 4.3071 22.0468 4.0783 21.8596C3.8495 21.6516 3.7039 21.402 3.6415 21.1108C3.5791 20.7988 3.6207 20.4972 3.7663 20.206L12.8455 3.32681C12.9703 3.09801 13.1367 2.93161 13.3447 2.82761C13.5527 2.70281 13.7711 2.64041 13.9999 2.64041C14.2287 2.64041 14.4471 2.70281 14.6551 2.82761C14.8631 2.93161 15.0295 3.09801 15.1543 3.32681L24.2335 20.206C24.3791 20.4972 24.4207 20.7988 24.3583 21.1108C24.2959 21.402 24.1503 21.6516 23.9215 21.8596C23.6927 22.0468 23.4223 22.1404 23.1103 22.1404ZM14.6551 14.3404H13.3447L12.6895 6.54041H15.3103L14.6551 14.3404ZM15.3103 18.2404C15.3103 18.594 15.1751 18.8956 14.9047 19.1452C14.6551 19.3948 14.3535 19.5196 13.9999 19.5196C13.6463 19.5196 13.3343 19.3948 13.0639 19.1452C12.8143 18.8956 12.6895 18.594 12.6895 18.2404C12.6895 17.8868 12.8143 17.5852 13.0639 17.3356C13.3343 17.0652 13.6463 16.93 13.9999 16.93C14.3535 16.93 14.6551 17.0652 14.9047 17.3356C15.1751 17.5852 15.3103 17.8868 15.3103 18.2404Z" fill="#FD5960"/>
</svg>
