<?xml version="1.0" encoding="UTF-8"?>
<svg width="72px" height="96px" viewBox="0 0 72 96" version="1.1" xmlns="http://www.w3.org/2000/svg" xmlns:xlink="http://www.w3.org/1999/xlink">
    <!-- Generator: sketchtool 59.1 (101010) - https://sketch.com -->
    <title>4A65B0E4-FDD9-46A8-9DB8-85EDAC2CA3C9</title>
    <desc>Created with sketchtool.</desc>
    <g id="Icons" stroke="none" stroke-width="1" fill="none" fill-rule="evenodd">
        <g transform="translate(-416.000000, -273.000000)" fill="#145DBF" fill-rule="nonzero" id="icon-word">
            <g transform="translate(80.000000, 136.000000)">
                <g transform="translate(336.000000, 137.000000)">
                    <path d="M64,0 C68.418278,0 72,3.581722 72,8 L72,88 C72,92.418278 68.418278,96 64,96 L8,96 C3.581722,96 0,92.418278 0,88 L0,29.3137085 C0,27.1919766 0.842854723,25.1571453 2.34314575,23.6568542 L23.6568542,2.34314575 C25.1571453,0.842854723 27.1919766,0 29.3137085,0 L64,0 Z M64,4 L29.3137085,4 C28.2528425,4 27.2354269,4.42142736 26.4852814,5.17157288 L5.17157288,26.4852814 C4.42142736,27.2354269 4,28.2528425 4,29.3137085 L4,88 C4,90.209139 5.790861,92 8,92 L64,92 C66.209139,92 68,90.209139 68,88 L68,8 C68,5.790861 66.209139,4 64,4 Z" id="border"></path>
                    <path d="M28,0 L28,24 C28,26.209139 26.209139,28 24,28 L0,28 C0,26.745098 0.590542099,25.4901961 1.7716263,24.2352941 L24,2 C25.3333333,0.666666667 26.6666667,0 28,0 Z M7.65685425,24 L24,24 L24,7.65685425 L7.65685425,24 Z" id="corner"></path>
                    <path d="M48.0703125,76 L41.1757812,76 L37.2501525,60.7731014 C37.1132811,60.2236326 36.9097939,59.2981045 36.6396869,57.9964995 L36.3448479,56.5377166 C36.1409903,55.4891321 36.0195314,54.7500021 35.9804688,54.3203125 L35.9141024,54.8310652 C35.831593,55.4005598 35.7006546,56.1462809 35.5212855,57.0682375 L35.1442118,58.933477 C34.9696265,59.7699325 34.8246377,60.4220828 34.7092436,60.8899369 L30.8242188,76 L23.9492188,76 L16.6640625,47.4453125 L22.6210938,47.4453125 L26.2734375,63.03125 C26.9114615,65.9088686 27.3736965,68.4023332 27.6601562,70.5117188 C27.732272,69.8266192 27.8903696,68.794824 28.1344533,67.416306 L28.1972656,67.0644531 C28.4772149,65.5084558 28.7408842,64.3007855 28.9882812,63.4414062 L33.1484375,47.4453125 L38.8710938,47.4453125 L43.03125,63.4414062 L43.1186208,63.798748 C43.2847328,64.5030286 43.4834724,65.477658 43.7148438,66.7226562 L43.8874908,67.6726972 C44.0776594,68.7450676 44.2284427,69.6914021 44.3398438,70.5117188 L44.4273439,69.8722644 C44.5565104,68.9795565 44.7356759,67.9264384 44.9648438,66.7128906 L45.1934082,65.5364128 C45.3914108,64.5481211 45.5756384,63.7130716 45.7460938,63.03125 L49.3789062,47.4453125 L55.3359375,47.4453125 L48.0703125,76 Z" id="W"></path>
                </g>
            </g>
        </g>
    </g>
</svg>