<svg width="32" height="40" viewBox="0 0 32 40" fill="none" xmlns="http://www.w3.org/2000/svg">
<path d="M1.59518 10.3571L10.4929 1.57645C10.8672 1.20709 11.3718 1 11.8977 1H28C29.6569 1 31 2.34315 31 4V36C31 37.6569 29.6569 39 28 39H4C2.34315 39 1 37.6569 1 36V11.7806C1 11.2456 1.21437 10.7329 1.59518 10.3571Z" stroke="#338AFF" stroke-width="2"/>
<path d="M18.341 36H16.9766C16.6001 36 16.2944 35.7114 16.2944 35.3557C16.2944 35.0001 16.6001 34.7114 16.9766 34.7114H18.341C18.7176 34.7114 19.0232 35.0001 19.0232 35.3557C19.0232 35.7114 18.7176 36 18.341 36Z" fill="#338AFF"/>
<path d="M18.341 32.7406H16.9766C16.6001 32.7406 16.2944 32.452 16.2944 32.0963C16.2944 31.7407 16.6001 31.452 16.9766 31.452H18.341C18.7176 31.452 19.0232 31.7407 19.0232 32.0963C19.0232 32.452 18.7176 32.7406 18.341 32.7406Z" fill="#338AFF"/>
<path d="M18.341 29.4812H16.9766C16.6001 29.4812 16.2944 29.1926 16.2944 28.8369C16.2944 28.4813 16.6001 28.1926 16.9766 28.1926H18.341C18.7176 28.1926 19.0232 28.4813 19.0232 28.8369C19.0232 29.1926 18.7176 29.4812 18.341 29.4812Z" fill="#338AFF"/>
<path d="M18.341 26.2218H16.9766C16.6001 26.2218 16.2944 25.9332 16.2944 25.5775C16.2944 25.2219 16.6001 24.9332 16.9766 24.9332H18.341C18.7176 24.9332 19.0232 25.2219 19.0232 25.5775C19.0232 25.9332 18.7176 26.2218 18.341 26.2218Z" fill="#338AFF"/>
<path d="M18.341 22.9624H16.9766C16.6001 22.9624 16.2944 22.6738 16.2944 22.3181C16.2944 21.9625 16.6001 21.6738 16.9766 21.6738H18.341C18.7176 21.6738 19.0232 21.9625 19.0232 22.3181C19.0232 22.6738 18.7176 22.9624 18.341 22.9624Z" fill="#338AFF"/>
<path d="M18.341 19.703H16.9766C16.6001 19.703 16.2944 19.4144 16.2944 19.0587C16.2944 18.7031 16.6001 18.4144 16.9766 18.4144H18.341C18.7176 18.4144 19.0232 18.7031 19.0232 19.0587C19.0232 19.4144 18.7176 19.703 18.341 19.703Z" fill="#338AFF"/>
<path d="M18.341 17.1258H16.9766C16.6001 17.1258 16.2944 16.8385 16.2944 16.4815C16.2944 16.1246 16.6001 15.8372 16.9766 15.8372H18.341C18.7176 15.8372 19.0232 16.1259 19.0232 16.4815C19.0232 16.8372 18.7176 17.1258 18.341 17.1258Z" fill="#338AFF"/>
<path d="M21.0699 34.3703H19.7055C19.3289 34.3703 19.0233 34.0817 19.0233 33.726C19.0233 33.3704 19.3289 33.0817 19.7055 33.0817H21.0699C21.4464 33.0817 21.7521 33.3704 21.7521 33.726C21.7521 34.0817 21.4464 34.3703 21.0699 34.3703Z" fill="#338AFF"/>
<path d="M21.0699 31.1109H19.7055C19.3289 31.1109 19.0233 30.8223 19.0233 30.4666C19.0233 30.111 19.3289 29.8223 19.7055 29.8223H21.0699C21.4464 29.8223 21.7521 30.111 21.7521 30.4666C21.7521 30.8223 21.4464 31.1109 21.0699 31.1109Z" fill="#338AFF"/>
<path d="M21.0699 27.8515H19.7055C19.3289 27.8515 19.0233 27.5629 19.0233 27.2072C19.0233 26.8516 19.3289 26.5629 19.7055 26.5629H21.0699C21.4464 26.5629 21.7521 26.8516 21.7521 27.2072C21.7521 27.5629 21.4464 27.8515 21.0699 27.8515Z" fill="#338AFF"/>
<path d="M21.0699 24.5921H19.7055C19.3289 24.5921 19.0233 24.3035 19.0233 23.9478C19.0233 23.5922 19.3289 23.3035 19.7055 23.3035H21.0699C21.4464 23.3035 21.7521 23.5922 21.7521 23.9478C21.7521 24.3035 21.4464 24.5921 21.0699 24.5921Z" fill="#338AFF"/>
<path d="M21.0699 21.3327H19.7055C19.3289 21.3327 19.0233 21.0441 19.0233 20.6884C19.0233 20.3328 19.3289 20.0441 19.7055 20.0441H21.0699C21.4464 20.0441 21.7521 20.3328 21.7521 20.6884C21.7521 21.0441 21.4464 21.3327 21.0699 21.3327Z" fill="#338AFF"/>
<path d="M21.0699 18.0733H19.7055C19.3289 18.0733 19.0233 17.7847 19.0233 17.429C19.0233 17.0734 19.3289 16.7847 19.7055 16.7847H21.0699C21.4464 16.7847 21.7521 17.0734 21.7521 17.429C21.7521 17.7847 21.4464 18.0733 21.0699 18.0733Z" fill="#338AFF"/>
<path d="M16.5118 9.90698C16.2038 9.90698 15.9092 9.74725 15.7619 9.47049L14.0879 6.30756C13.9707 6.08458 13.9707 5.82205 14.0879 5.60065L15.7619 2.43772C15.9694 2.04552 16.4716 1.88895 16.8851 2.08347C17.2986 2.27799 17.4659 2.75401 17.2601 3.14463L15.7736 5.95331L17.2601 8.762C17.4676 9.15262 17.2986 9.62706 16.8851 9.82316C16.7662 9.88009 16.639 9.90698 16.5118 9.90698Z" fill="#338AFF"/>
<path d="M21.5347 9.90698C21.4092 9.90698 21.2819 9.88009 21.1614 9.82317C20.7479 9.62708 20.5806 9.15268 20.7864 8.7621L22.2729 5.95366L20.7864 3.14523C20.5789 2.75464 20.7479 2.28024 21.1614 2.08416C21.5749 1.88807 22.0754 2.04621 22.2846 2.43837L23.9586 5.60103C24.0758 5.82399 24.0758 6.08649 23.9586 6.30788L22.2846 9.47053C22.1357 9.74726 21.841 9.90698 21.5347 9.90698Z" fill="#338AFF"/>
<path d="M19.0178 14.2558C18.2693 14.2558 17.5191 13.979 16.9488 13.4238C16.1398 12.6362 15.8767 11.4526 16.2787 10.4089L17.4031 5.3911C17.4848 5.02837 17.8166 4.76746 18.2006 4.76746H19.8349C20.2189 4.76746 20.5507 5.02837 20.6324 5.3927L21.7895 10.5187C22.1588 11.4526 21.8957 12.6362 21.0868 13.4238C20.5164 13.979 19.7663 14.2558 19.0178 14.2558ZM18.8576 6.3584L17.8411 10.8608C17.6302 11.4287 17.7463 11.9521 18.1042 12.299C18.6092 12.7906 19.428 12.7906 19.9313 12.299C20.2876 11.9521 20.4053 11.4287 20.2271 10.9689L19.1795 6.3584H18.8576Z" fill="#338AFF"/>
<path d="M11 2V11C11 11.5523 10.5523 12 10 12H2" stroke="#338AFF" stroke-width="2"/>
</svg>
