<?xml version="1.0" encoding="UTF-8"?>
<svg width="72px" height="96px" viewBox="0 0 72 96" version="1.1" xmlns="http://www.w3.org/2000/svg" xmlns:xlink="http://www.w3.org/1999/xlink">
    <!-- Generator: Sketch 63.1 (92452) - https://sketch.com -->
    <title>zip</title>
    <desc>Created with Sketch.</desc>
    <g id="Page-1" stroke="none" stroke-width="1" fill="none" fill-rule="evenodd">
        <g id="-" transform="translate(-135.000000, -233.000000)" fill="#338AFF" fill-rule="nonzero">
            <g id="zip" transform="translate(135.000000, 233.000000)">
                <path d="M64,0 C68.418278,0 72,3.581722 72,8 L72,88 C72,92.418278 68.418278,96 64,96 L8,96 C3.581722,96 0,92.418278 0,88 L0,29.3137085 C0,27.1919766 0.842854723,25.1571453 2.34314575,23.6568542 L23.6568542,2.34314575 C25.1571453,0.842854723 27.1919766,0 29.3137085,0 L64,0 Z M64,4 L29.3137085,4 C28.2528425,4 27.2354269,4.42142736 26.4852814,5.17157288 L5.17157288,26.4852814 C4.42142736,27.2354269 4,28.2528425 4,29.3137085 L4,88 C4,90.209139 5.790861,92 8,92 L64,92 C66.209139,92 68,90.209139 68,88 L68,8 C68,5.790861 66.209139,4 64,4 Z" id="border"></path>
                <path d="M28,0 L28,24 C28,26.209139 26.209139,28 24,28 L0,28 C0,26.745098 0.590542099,25.4901961 1.7716263,24.2352941 L24,2 C25.3333333,0.666666667 26.6666667,0 28,0 Z M7.65685425,24 L24,24 L24,7.65685425 L7.65685425,24 Z" id="corner"></path>
                <g id="Group-2" transform="translate(34.000000, 4.000000)">
                    <path d="M10,86 L6,86 C4.89600009,86 4,85.1040002 4,84 C4,82.8960001 4.89600009,82 6,82 L10,82 C11.1039999,82 12,82.8960001 12,84 C12,85.1040002 11.1039999,86 10,86 Z" id="Shape"></path>
                    <path d="M10,79 L6,79 C4.89600009,79 4,78.1039999 4,77 C4,75.8960001 4.89600009,75 6,75 L10,75 C11.1039999,75 12,75.8960001 12,77 C12,78.1039999 11.1039999,79 10,79 Z" id="Shape"></path>
                    <path d="M10,71 L6,71 C4.89600009,71 4,70.1039999 4,69 C4,67.8959998 4.89600009,67 6,67 L10,67 C11.1039999,67 12,67.8959998 12,69 C12,70.1039999 11.1039999,71 10,71 Z" id="Shape"></path>
                    <path d="M10,62 L6,62 C4.89600009,62 4,61.1040002 4,60 C4,58.8960001 4.89600009,58 6,58 L10,58 C11.1039999,58 12,58.8960001 12,60 C12,61.1040002 11.1039999,62 10,62 Z" id="Shape"></path>
                    <path d="M10,55 L6,55 C4.89600009,55 4,54.1039999 4,53 C4,51.8960001 4.89600009,51 6,51 L10,51 C11.1039999,51 12,51.8960001 12,53 C12,54.1039999 11.1039999,55 10,55 Z" id="Shape"></path>
                    <path d="M10,47 L6,47 C4.89600009,47 4,46.1039999 4,45 C4,43.8959998 4.89600009,43 6,43 L10,43 C11.1039999,43 12,43.8959998 12,45 C12,46.1039999 11.1039999,47 10,47 Z" id="Shape"></path>
                    <path d="M10,39 L6,39 C4.89600009,39 4,38.1080001 4,37 C4,35.8919999 4.89600009,35 6,35 L10,35 C11.1039999,35 12,35.8960001 12,37 C12,38.1040002 11.1039999,39 10,39 Z" id="Shape"></path>
                    <path d="M18,82 L14,82 C12.8959998,82 12,81.1039999 12,80 C12,78.8959998 12.8959998,78 14,78 L18,78 C19.1040002,78 20,78.8959998 20,80 C20,81.1039999 19.1040002,82 18,82 Z" id="Shape"></path>
                    <path d="M18,75 L14,75 C12.8959998,75 12,74.1040002 12,73 C12,71.8960001 12.8959998,71 14,71 L18,71 C19.1040002,71 20,71.8960001 20,73 C20,74.1040002 19.1040002,75 18,75 Z" id="Shape"></path>
                    <path d="M18,67 L14,67 C12.8959998,67 12,66.1039999 12,65 C12,63.8960001 12.8959998,63 14,63 L18,63 C19.1040002,63 20,63.8960001 20,65 C20,66.1039999 19.1040002,67 18,67 Z" id="Shape"></path>
                    <path d="M18,59 L14,59 C12.8959998,59 12,58.1039999 12,57 C12,55.8959998 12.8959998,55 14,55 L18,55 C19.1040002,55 20,55.8959998 20,57 C20,58.1039999 19.1040002,59 18,59 Z" id="Shape"></path>
                    <path d="M18,51 L14,51 C12.8959998,51 12,50.1040002 12,49 C12,47.8960001 12.8959998,47 14,47 L18,47 C19.1040002,47 20,47.8960001 20,49 C20,50.1040002 19.1040002,51 18,51 Z" id="Shape"></path>
                    <path d="M18,44 L14,44 C12.8959998,44 12,43.1039999 12,42 C12,40.8960001 12.8959998,40 14,40 L18,40 C19.1040002,40 20,40.8960001 20,42 C20,43.1039999 19.1040002,44 18,44 Z" id="Shape"></path>
                    <path d="M6.00038204,20 C5.26458025,20 4.56077023,19.5959822 4.20886492,18.8959515 L0.209943314,10.8956 C-0.0699811048,10.3315752 -0.0699811048,9.66754607 0.209943314,9.10752145 L4.20886492,1.10716998 C4.70473141,0.115126395 5.90440792,-0.280891003 6.89214148,0.211130613 C7.87987504,0.703152229 8.27976741,1.90720513 7.78790004,2.89524852 L4.23685757,9.99956063 L7.78790004,17.1038727 C8.28376623,18.0919162 7.87987504,19.2919689 6.89214148,19.7879907 C6.60821794,19.931997 6.30429999,20 6.00038204,20 Z" id="Shape"></path>
                    <path d="M17.9996181,20 C17.699699,20 17.3957808,19.932003 17.1078584,19.7880093 C16.1201248,19.292031 15.7202328,18.0920836 16.2121001,17.1041269 L19.7631426,10.0004383 L16.2121001,2.89674976 C15.7162337,1.90879308 16.1201248,0.708845685 17.1078584,0.212867429 C18.0955922,-0.28311083 19.2912696,0.116871638 19.7911349,1.10882815 L23.7900565,9.10847746 C24.0699812,9.67245273 24.0699812,10.3364236 23.7900565,10.8963991 L19.7911349,18.8960484 C19.4352308,19.5960177 18.7314208,20 17.9996181,20 Z" id="Shape"></path>
                    <path d="M11.9868674,31 C10.198784,31 8.4067966,30.2997988 7.04426159,28.895372 C5.11172613,26.9034204 4.48316399,23.9094567 5.44357556,21.2696177 L8.12960455,8.57746476 C8.32481025,7.65995974 9.11734509,7 10.0348113,7 L13.9389233,7 C14.8563898,7 15.6489244,7.65995974 15.8441301,8.58148893 L18.6082414,21.5472836 C19.4905706,23.9094567 18.8620088,26.9034204 16.9294733,28.895372 C15.566938,30.2997988 13.7749506,31 11.9868674,31 Z M11.6042644,11.0241448 L9.17590677,22.4124748 C8.67227632,23.8490945 8.94946808,25.1730382 9.80446862,26.0503017 C11.0108392,27.2937625 12.9667994,27.2937625 14.169266,26.0503017 C15.0203625,25.1730382 15.3014586,23.8490945 14.8759102,22.6861166 L12.3733745,11.0241448 L11.6042644,11.0241448 Z" id="Shape"></path>
                </g>
            </g>
        </g>
    </g>
</svg>