<?xml version="1.0" encoding="UTF-8"?>
<svg width="24px" height="33px" viewBox="0 0 24 33" version="1.1" xmlns="http://www.w3.org/2000/svg" xmlns:xlink="http://www.w3.org/1999/xlink">
    <!-- Generator: Sketch 47 (45396) - http://www.bohemiancoding.com/sketch -->
    <title>Group 3</title>
    <desc>Created with Sketch.</desc>
    <defs></defs>
    <g id="UI-Kit" stroke="none" stroke-width="1" fill="none" fill-rule="evenodd">
        <g id="File-System" transform="translate(-287.000000, -1991.000000)" fill-rule="nonzero" fill="#1875F0">
            <g id="File-Icons" transform="translate(78.000000, 1991.000000)">
                <g id="Group-3" transform="translate(209.000000, 0.000000)">
                    <g id="zip-file">
                        <g id="Group" transform="translate(0.000000, 0.320000)">
                            <path d="M23.3333333,32 L0.666666667,32 C0.298666667,32 0,31.7026667 0,31.3333333 L0,8.66666667 C0,8.48933333 0.0706666667,8.32 0.194666667,8.19466667 L8.19466667,0.194666667 C8.32,0.0706666667 8.48933333,0 8.66666667,0 L23.3333333,0 C23.7013333,0 24,0.298666667 24,0.666666667 L24,31.3333333 C24,31.7026667 23.7013333,32 23.3333333,32 Z M1.33333333,30.6666667 L22.6666667,30.6666667 L22.6666667,1.33333333 L8.94266667,1.33333333 L1.33333333,8.94266667 L1.33333333,30.6666667 Z" id="Shape"></path>
                            <path d="M8.66666667,9.33333333 L0.666666667,9.33333333 C0.298666667,9.33333333 0,9.036 0,8.66666667 C0,8.29733333 0.298666667,8 0.666666667,8 L8,8 L8,0.666666667 C8,0.298666667 8.29866667,0 8.66666667,0 C9.03466667,0 9.33333333,0.298666667 9.33333333,0.666666667 L9.33333333,8.66666667 C9.33333333,9.036 9.03466667,9.33333333 8.66666667,9.33333333 Z" id="Shape"></path>
                        </g>
                        <path d="M14,29.6533333 L12.6666667,29.6533333 C12.2986667,29.6533333 12,29.3546667 12,28.9866667 C12,28.6186667 12.2986667,28.32 12.6666667,28.32 L14,28.32 C14.368,28.32 14.6666667,28.6186667 14.6666667,28.9866667 C14.6666667,29.3546667 14.368,29.6533333 14,29.6533333 Z" id="Shape"></path>
                        <path d="M14,26.9866667 L12.6666667,26.9866667 C12.2986667,26.9866667 12,26.688 12,26.32 C12,25.952 12.2986667,25.6533333 12.6666667,25.6533333 L14,25.6533333 C14.368,25.6533333 14.6666667,25.952 14.6666667,26.32 C14.6666667,26.688 14.368,26.9866667 14,26.9866667 Z" id="Shape"></path>
                        <path d="M14,24.32 L12.6666667,24.32 C12.2986667,24.32 12,24.0213333 12,23.6533333 C12,23.2853333 12.2986667,22.9866667 12.6666667,22.9866667 L14,22.9866667 C14.368,22.9866667 14.6666667,23.2853333 14.6666667,23.6533333 C14.6666667,24.0213333 14.368,24.32 14,24.32 Z" id="Shape"></path>
                        <path d="M14,21.6533333 L12.6666667,21.6533333 C12.2986667,21.6533333 12,21.3546667 12,20.9866667 C12,20.6186667 12.2986667,20.32 12.6666667,20.32 L14,20.32 C14.368,20.32 14.6666667,20.6186667 14.6666667,20.9866667 C14.6666667,21.3546667 14.368,21.6533333 14,21.6533333 Z" id="Shape"></path>
                        <path d="M14,18.9866667 L12.6666667,18.9866667 C12.2986667,18.9866667 12,18.688 12,18.32 C12,17.952 12.2986667,17.6533333 12.6666667,17.6533333 L14,17.6533333 C14.368,17.6533333 14.6666667,17.952 14.6666667,18.32 C14.6666667,18.688 14.368,18.9866667 14,18.9866667 Z" id="Shape"></path>
                        <path d="M14,16.32 L12.6666667,16.32 C12.2986667,16.32 12,16.0213333 12,15.6533333 C12,15.2853333 12.2986667,14.9866667 12.6666667,14.9866667 L14,14.9866667 C14.368,14.9866667 14.6666667,15.2853333 14.6666667,15.6533333 C14.6666667,16.0213333 14.368,16.32 14,16.32 Z" id="Shape"></path>
                        <path d="M14,13.6533333 L12.6666667,13.6533333 C12.2986667,13.6533333 12,13.356 12,12.9866667 C12,12.6173333 12.2986667,12.32 12.6666667,12.32 L14,12.32 C14.368,12.32 14.6666667,12.6186667 14.6666667,12.9866667 C14.6666667,13.3546667 14.368,13.6533333 14,13.6533333 Z" id="Shape"></path>
                        <path d="M16.6666667,28.32 L15.3333333,28.32 C14.9653333,28.32 14.6666667,28.0213333 14.6666667,27.6533333 C14.6666667,27.2853333 14.9653333,26.9866667 15.3333333,26.9866667 L16.6666667,26.9866667 C17.0346667,26.9866667 17.3333333,27.2853333 17.3333333,27.6533333 C17.3333333,28.0213333 17.0346667,28.32 16.6666667,28.32 Z" id="Shape"></path>
                        <path d="M16.6666667,25.6533333 L15.3333333,25.6533333 C14.9653333,25.6533333 14.6666667,25.3546667 14.6666667,24.9866667 C14.6666667,24.6186667 14.9653333,24.32 15.3333333,24.32 L16.6666667,24.32 C17.0346667,24.32 17.3333333,24.6186667 17.3333333,24.9866667 C17.3333333,25.3546667 17.0346667,25.6533333 16.6666667,25.6533333 Z" id="Shape"></path>
                        <path d="M16.6666667,22.9866667 L15.3333333,22.9866667 C14.9653333,22.9866667 14.6666667,22.688 14.6666667,22.32 C14.6666667,21.952 14.9653333,21.6533333 15.3333333,21.6533333 L16.6666667,21.6533333 C17.0346667,21.6533333 17.3333333,21.952 17.3333333,22.32 C17.3333333,22.688 17.0346667,22.9866667 16.6666667,22.9866667 Z" id="Shape"></path>
                        <path d="M16.6666667,20.32 L15.3333333,20.32 C14.9653333,20.32 14.6666667,20.0213333 14.6666667,19.6533333 C14.6666667,19.2853333 14.9653333,18.9866667 15.3333333,18.9866667 L16.6666667,18.9866667 C17.0346667,18.9866667 17.3333333,19.2853333 17.3333333,19.6533333 C17.3333333,20.0213333 17.0346667,20.32 16.6666667,20.32 Z" id="Shape"></path>
                        <path d="M16.6666667,17.6533333 L15.3333333,17.6533333 C14.9653333,17.6533333 14.6666667,17.3546667 14.6666667,16.9866667 C14.6666667,16.6186667 14.9653333,16.32 15.3333333,16.32 L16.6666667,16.32 C17.0346667,16.32 17.3333333,16.6186667 17.3333333,16.9866667 C17.3333333,17.3546667 17.0346667,17.6533333 16.6666667,17.6533333 Z" id="Shape"></path>
                        <path d="M16.6666667,14.9866667 L15.3333333,14.9866667 C14.9653333,14.9866667 14.6666667,14.688 14.6666667,14.32 C14.6666667,13.952 14.9653333,13.6533333 15.3333333,13.6533333 L16.6666667,13.6533333 C17.0346667,13.6533333 17.3333333,13.952 17.3333333,14.32 C17.3333333,14.688 17.0346667,14.9866667 16.6666667,14.9866667 Z" id="Shape"></path>
                        <path d="M12.6666667,6.98666667 C12.4213333,6.98666667 12.1866667,6.852 12.0693333,6.61866667 L10.736,3.952 C10.6426667,3.764 10.6426667,3.54266667 10.736,3.356 L12.0693333,0.689333333 C12.2346667,0.358666667 12.6346667,0.226666667 12.964,0.390666667 C13.2933333,0.554666667 13.4266667,0.956 13.2626667,1.28533333 L12.0786667,3.65333333 L13.2626667,6.02133333 C13.428,6.35066667 13.2933333,6.75066667 12.964,6.916 C12.8693333,6.964 12.768,6.98666667 12.6666667,6.98666667 Z" id="Shape"></path>
                        <path d="M16.6666667,6.98666667 C16.5666667,6.98666667 16.4653333,6.964 16.3693333,6.916 C16.04,6.75066667 15.9066667,6.35066667 16.0706667,6.02133333 L17.2546667,3.65333333 L16.0706667,1.28533333 C15.9053333,0.956 16.04,0.556 16.3693333,0.390666667 C16.6986667,0.225333333 17.0973333,0.358666667 17.264,0.689333333 L18.5973333,3.356 C18.6906667,3.544 18.6906667,3.76533333 18.5973333,3.952 L17.264,6.61866667 C17.1453333,6.852 16.9106667,6.98666667 16.6666667,6.98666667 Z" id="Shape"></path>
                        <path d="M14.6666667,10.9386667 C14.056,10.9386667 13.444,10.7066667 12.9786667,10.2413333 C12.3186667,9.58133333 12.104,8.58933333 12.432,7.71466667 L13.3493333,3.50933333 C13.416,3.20533333 13.6866667,2.98666667 14,2.98666667 L15.3333333,2.98666667 C15.6466667,2.98666667 15.9173333,3.20533333 15.984,3.51066667 L16.928,7.80666667 C17.2293333,8.58933333 17.0146667,9.58133333 16.3546667,10.2413333 C15.8893333,10.7066667 15.2773333,10.9386667 14.6666667,10.9386667 Z M14.536,4.32 L13.7066667,8.09333333 C13.5346667,8.56933333 13.6293333,9.008 13.9213333,9.29866667 C14.3333333,9.71066667 15.0013333,9.71066667 15.412,9.29866667 C15.7026667,9.008 15.7986667,8.56933333 15.6533333,8.184 L14.7986667,4.32 L14.536,4.32 Z" id="Shape"></path>
                    </g>
                </g>
            </g>
        </g>
    </g>
</svg>