<svg width="267" height="163" viewBox="0 0 267 163" fill="none" xmlns="http://www.w3.org/2000/svg">
<path opacity="0.1" d="M161.376 55.0222C159.932 54.7487 158.439 54.9113 157.088 55.4892C156.272 55.8499 155.39 56.0343 154.498 56.0304C153.607 56.0264 152.726 55.8342 151.914 55.4663C150.956 55.0474 149.918 54.841 148.873 54.8613C147.827 54.8815 146.799 55.128 145.858 55.5837C145.321 55.8684 144.722 56.0182 144.114 56.0201C141.658 56.0201 139.615 53.552 139.19 50.2953C139.681 49.937 140.097 49.4882 140.418 48.9732C141.858 46.6583 144.088 45.1729 146.592 45.1729C149.096 45.1729 151.298 46.6404 152.73 48.9324C153.161 49.6256 153.764 50.1958 154.481 50.5876C155.198 50.9794 156.004 51.1794 156.822 51.1682H156.886C158.847 51.1784 160.54 52.743 161.376 55.0222Z" fill="#145DBF"/>
<path opacity="0.1" d="M227.784 79.4564C225.883 79.0999 223.917 79.3119 222.139 80.0653C221.066 80.5356 219.904 80.776 218.73 80.7708C217.557 80.7657 216.397 80.515 215.329 80.0354C214.068 79.4893 212.702 79.2202 211.326 79.2466C209.95 79.273 208.596 79.5944 207.357 80.1885C206.65 80.5597 205.862 80.755 205.061 80.7575C201.83 80.7575 199.14 77.5397 198.581 73.2937C199.226 72.8265 199.775 72.2414 200.197 71.57C202.092 68.5519 205.028 66.6152 208.323 66.6152C211.619 66.6152 214.517 68.5286 216.403 71.5168C216.97 72.4206 217.764 73.164 218.708 73.6748C219.651 74.1855 220.713 74.4463 221.789 74.4317H221.873C224.455 74.445 226.683 76.4849 227.784 79.4564Z" fill="#145DBF"/>
<path opacity="0.1" d="M168.845 44.8002L164.875 47.3143L167.284 42.9396C166.601 42.3968 165.756 42.096 164.883 42.0846H164.819C164.543 42.0895 164.268 42.0698 163.996 42.0259L162.655 42.8758L163.233 41.8294C162.28 41.4971 161.456 40.8716 160.881 40.0428L158.471 41.5741L160.006 38.8151C158.597 37.128 156.699 36.0918 154.612 36.0918C152.108 36.0918 149.878 37.5798 148.439 39.8947C148.013 40.5898 147.409 41.1594 146.69 41.5451C145.971 41.9308 145.162 42.1188 144.347 42.0897H144.211C141.446 42.0897 139.206 45.2188 139.206 49.0753C139.206 52.9319 141.446 56.061 144.211 56.061C144.819 56.059 145.417 55.9102 145.955 55.6271C146.896 55.1704 147.924 54.9231 148.97 54.9024C150.016 54.8816 151.053 55.088 152.011 55.5071C152.821 55.8701 153.698 56.0588 154.585 56.061C155.473 56.0632 156.351 55.8788 157.162 55.5199C158.113 55.1088 159.141 54.9063 160.177 54.9261C161.213 54.9459 162.233 55.1876 163.167 55.6347C163.699 55.9126 164.29 56.0588 164.891 56.061C167.655 56.061 169.896 52.9344 169.896 49.0753C169.911 47.5848 169.549 46.1145 168.845 44.8002Z" fill="#145DBF"/>
<path opacity="0.1" d="M238.065 65.7451L232.777 69.0997L235.986 63.2624C235.076 62.538 233.951 62.1367 232.787 62.1215H232.702C232.335 62.128 231.968 62.1018 231.605 62.0432L229.82 63.1773L230.59 61.781C229.319 61.3376 228.222 60.5029 227.455 59.397L224.246 61.4404L226.29 57.7589C224.413 55.5077 221.885 54.125 219.105 54.125C215.769 54.125 212.798 56.1105 210.88 59.1994C210.313 60.1269 209.509 60.887 208.551 61.4017C207.593 61.9163 206.516 62.1671 205.429 62.1283H205.249C201.566 62.1283 198.581 66.3037 198.581 71.4496C198.581 76.5956 201.566 80.771 205.249 80.771C206.058 80.7684 206.856 80.5697 207.572 80.192C208.825 79.5826 210.195 79.2526 211.588 79.225C212.981 79.1973 214.364 79.4727 215.64 80.0319C216.718 80.5162 217.887 80.768 219.069 80.771C220.251 80.7739 221.421 80.5279 222.501 80.049C223.768 79.5004 225.138 79.2302 226.518 79.2566C227.898 79.2831 229.256 79.6055 230.501 80.2022C231.21 80.573 231.997 80.7681 232.797 80.771C236.48 80.771 239.465 76.599 239.465 71.4496C239.485 69.4608 239.003 67.4989 238.065 65.7451Z" fill="#145DBF"/>
<path d="M132.631 37.0263C132.6 36.7934 132.528 36.5679 132.419 36.3602C132.332 36.2363 132.226 36.1262 132.107 36.0335C131.914 35.8542 131.688 35.7138 131.442 35.62C131.316 35.5712 131.181 35.5536 131.047 35.5687C130.914 35.5839 130.786 35.6312 130.674 35.7068C130.476 35.8844 130.357 36.1331 130.342 36.3984C130.288 36.7582 130.351 37.1257 130.521 37.4474C130.726 37.8022 131.079 38.0396 131.373 38.3229C131.589 38.5275 131.776 38.7601 131.93 39.0145C132.001 39.1474 132.087 39.2716 132.186 39.3846C132.236 39.4406 132.298 39.484 132.368 39.5115C132.438 39.539 132.513 39.5498 132.587 39.5429C132.712 39.5107 132.826 39.4444 132.915 39.3514C133.035 39.2468 133.362 39.0554 133.373 38.8869C133.383 38.7185 133.117 38.4428 133.063 38.3152C132.874 37.9019 132.729 37.4699 132.631 37.0263Z" fill="#06D6A0"/>
<path d="M133.5 163C207.23 163 267 160.372 267 157.13C267 153.888 207.23 151.26 133.5 151.26C59.77 151.26 0 153.888 0 157.13C0 160.372 59.77 163 133.5 163Z" fill="#3D3C40" fill-opacity="0.16"/>
<path d="M128.494 159.043C144.623 159.043 157.697 158.111 157.697 156.962C157.697 155.812 144.623 154.88 128.494 154.88C112.366 154.88 99.291 155.812 99.291 156.962C99.291 158.111 112.366 159.043 128.494 159.043Z" fill="#3D3C40" fill-opacity="0.16"/>
<path d="M130.387 156.89C129.482 157.066 128.549 157.027 127.662 156.776C126.774 156.526 125.959 156.071 125.28 155.448C124.602 154.825 124.08 154.051 123.756 153.19C123.432 152.328 123.315 151.403 123.416 150.488C124.086 144.577 126.17 135.055 131.871 120.759C138.479 104.185 136.096 100.18 129.014 88.2941C126.728 84.4529 124.134 80.1012 121.342 74.5117C114.14 60.1524 116.876 49.0857 120.431 42.3502C124.211 35.1808 129.618 31.4263 130.221 31.0205L135.802 40.2343L135.29 40.7448C135.277 40.7448 135.546 40.7448 135.935 41.4518C133.751 43.3407 131.955 45.6352 130.648 48.2077C127.554 54.3919 127.963 61.4796 131.863 69.2565C134.474 74.4683 136.95 78.626 139.134 82.2936C143.057 88.8786 146.154 94.0802 147.18 100.647C148.241 107.444 146.924 114.756 142.809 125.098C137.385 138.699 135.648 147.211 135.119 151.78C134.976 153.021 134.442 154.185 133.593 155.103C132.743 156.02 131.623 156.644 130.395 156.885L130.387 156.89Z" fill="#3D3C40" fill-opacity="0.16"/>
<path d="M104.601 23.6215L128.27 0L152.17 23.6215H135.927V41.6841H120.843V23.7364L104.601 23.6215Z" fill="#145DBF"/>
<path d="M180.225 156.545C188.519 156.545 195.244 155.986 195.244 155.296C195.244 154.606 188.519 154.047 180.225 154.047C171.93 154.047 165.206 154.606 165.206 155.296C165.206 155.986 171.93 156.545 180.225 156.545Z" fill="#3D3C40" fill-opacity="0.16"/>
<path d="M181.092 155.606C180.62 155.698 180.132 155.678 179.669 155.548C179.206 155.417 178.78 155.18 178.425 154.854C178.071 154.529 177.799 154.125 177.63 153.676C177.461 153.226 177.4 152.743 177.453 152.265C177.8 149.18 178.89 144.208 181.867 136.745C185.317 128.09 184.071 126 180.376 119.792C179.182 117.789 177.818 115.515 176.363 112.595C172.609 105.099 174.036 99.323 175.893 95.8059C177.116 93.4656 178.867 91.4405 181.008 89.8896L183.921 94.7007L183.649 94.956C183.649 94.956 183.788 94.956 183.987 95.326C182.846 96.3118 181.908 97.5098 181.225 98.8533C179.611 102.082 179.826 105.78 181.862 109.844C183.225 112.564 184.516 114.736 185.657 116.651C187.703 120.088 189.322 122.804 189.859 126.234C190.411 129.782 189.729 133.6 187.575 138.996C184.744 146.096 183.836 150.54 183.56 152.926C183.487 153.575 183.209 154.184 182.766 154.664C182.322 155.143 181.737 155.469 181.094 155.593L181.092 155.606Z" fill="#3D3C40" fill-opacity="0.16"/>
<path d="M167.627 86.0232L179.985 73.6904L192.465 86.0232H183.985V95.4539H176.108V86.0844L167.627 86.0232Z" fill="#145DBF"/>
<path d="M76.7629 155.713C85.0575 155.713 91.7816 155.154 91.7816 154.464C91.7816 153.774 85.0575 153.215 76.7629 153.215C68.4683 153.215 61.7441 153.774 61.7441 154.464C61.7441 155.154 68.4683 155.713 76.7629 155.713Z" fill="#3D3C40" fill-opacity="0.16"/>
<path d="M75.6783 155.606C76.1507 155.698 76.6381 155.678 77.1014 155.548C77.5646 155.417 77.9905 155.18 78.3447 154.854C78.699 154.529 78.9716 154.125 79.1406 153.676C79.3096 153.226 79.3702 152.743 79.3176 152.265C78.9697 149.18 77.8802 144.208 74.9034 136.745C71.4533 128.09 72.6988 126 76.3944 119.792C77.5887 117.789 78.9518 115.515 80.407 112.595C84.1614 105.099 82.7343 99.323 80.8776 95.8059C79.6539 93.4656 77.9031 91.4405 75.7627 89.8896L72.8497 94.7007L73.1208 94.956C73.1208 94.956 72.9827 94.956 72.7832 95.326C73.9245 96.3118 74.8626 97.5098 75.5453 98.8533C77.159 102.082 76.9442 105.78 74.9085 109.844C73.5453 112.564 72.2538 114.736 71.1132 116.651C69.0672 120.088 67.4483 122.804 66.9112 126.234C66.3588 129.782 67.0417 133.6 69.1951 138.996C72.0262 146.096 72.9341 150.54 73.2103 152.926C73.2828 153.575 73.5611 154.184 74.0046 154.664C74.4481 155.143 75.0336 155.469 75.6757 155.593L75.6783 155.606Z" fill="#3D3C40" fill-opacity="0.16"/>
<path d="M89.1428 86.0232L76.7851 73.6904L64.3047 86.0232H72.7853V95.4539H80.6623V86.0844L89.1428 86.0232Z" fill="#145DBF"/>
<path d="M225.364 155.19H214.5C213.902 155.19 213.329 154.953 212.907 154.531C212.484 154.109 212.247 153.537 212.247 152.941C212.247 152.345 212.484 151.773 212.907 151.351C213.329 150.929 213.902 150.693 214.5 150.693C214.198 150.703 213.897 150.652 213.615 150.544C213.333 150.435 213.075 150.271 212.858 150.062C212.641 149.852 212.468 149.601 212.35 149.323C212.232 149.045 212.171 148.747 212.171 148.445C212.171 148.144 212.232 147.845 212.35 147.567C212.468 147.29 212.641 147.038 212.858 146.829C213.075 146.619 213.333 146.455 213.615 146.347C213.897 146.238 214.198 146.188 214.5 146.198H214.996C215.28 144.263 217.467 142.757 220.126 142.755C222.786 142.752 224.986 144.256 225.264 146.188H225.364C225.666 146.178 225.967 146.228 226.249 146.337C226.531 146.445 226.789 146.609 227.006 146.818C227.223 147.028 227.396 147.279 227.514 147.557C227.632 147.835 227.693 148.133 227.693 148.435C227.693 148.737 227.632 149.035 227.514 149.313C227.396 149.591 227.223 149.842 227.006 150.052C226.789 150.261 226.531 150.425 226.249 150.534C225.967 150.642 225.666 150.693 225.364 150.682C225.962 150.682 226.535 150.919 226.957 151.341C227.38 151.763 227.617 152.335 227.617 152.931C227.617 153.527 227.38 154.099 226.957 154.521C226.535 154.943 225.962 155.179 225.364 155.179V155.19Z" fill="#06D6A0"/>
<path opacity="0.1" d="M227.615 148.445C227.614 149.04 227.377 149.612 226.955 150.033C226.533 150.455 225.961 150.692 225.365 150.693H214.503L225.295 146.188H225.362C225.96 146.19 226.534 146.428 226.956 146.851C227.379 147.274 227.616 147.847 227.615 148.445Z" fill="#3D3C40" fill-opacity="0.48"/>
<path opacity="0.1" d="M212.313 152.964C212.316 153.559 212.554 154.13 212.976 154.551C213.398 154.972 213.97 155.209 214.567 155.21H225.431L214.631 150.726H214.572C213.976 150.726 213.404 150.962 212.981 151.381C212.558 151.8 212.318 152.369 212.313 152.964Z" fill="#3D3C40" fill-opacity="0.48"/>
<path d="M159.331 152.505H153.164C152.825 152.505 152.5 152.371 152.26 152.132C152.02 151.892 151.886 151.568 151.886 151.229C151.886 150.891 152.02 150.566 152.26 150.327C152.5 150.088 152.825 149.953 153.164 149.953C152.825 149.953 152.5 149.819 152.26 149.579C152.02 149.34 151.886 149.015 151.886 148.677C151.886 148.338 152.02 148.014 152.26 147.775C152.5 147.535 152.825 147.401 153.164 147.401H153.448C153.607 146.303 154.85 145.448 156.359 145.448C157.868 145.448 159.111 146.298 159.274 147.396H159.331C159.67 147.396 159.995 147.53 160.235 147.769C160.475 148.009 160.609 148.333 160.609 148.672C160.609 149.01 160.475 149.335 160.235 149.574C159.995 149.813 159.67 149.948 159.331 149.948C159.67 149.948 159.995 150.082 160.235 150.322C160.475 150.561 160.609 150.886 160.609 151.224C160.609 151.563 160.475 151.887 160.235 152.126C159.995 152.366 159.67 152.5 159.331 152.5V152.505Z" fill="#06D6A0"/>
<path opacity="0.1" d="M160.609 148.677C160.609 149.015 160.474 149.34 160.234 149.579C159.995 149.818 159.669 149.953 159.33 149.953H153.164L159.302 147.4H159.33C159.669 147.4 159.995 147.535 160.234 147.774C160.474 148.013 160.609 148.338 160.609 148.677Z" fill="#3D3C40" fill-opacity="0.48"/>
<path opacity="0.1" d="M151.927 151.236C151.927 151.575 152.061 151.899 152.301 152.138C152.541 152.378 152.866 152.512 153.205 152.512H159.369L153.231 149.96H153.193C152.856 149.963 152.534 150.099 152.297 150.338C152.06 150.577 151.927 150.9 151.927 151.236Z" fill="#3D3C40" fill-opacity="0.48"/>
<path d="M43.848 159.746H30.8049C30.4431 159.757 30.0827 159.695 29.7452 159.565C29.4077 159.434 29.0998 159.237 28.8399 158.986C28.5801 158.734 28.3735 158.433 28.2324 158.101C28.0913 157.768 28.0186 157.41 28.0186 157.049C28.0186 156.688 28.0913 156.33 28.2324 155.998C28.3735 155.665 28.5801 155.364 28.8399 155.112C29.0998 154.861 29.4077 154.664 29.7452 154.534C30.0827 154.403 30.4431 154.342 30.8049 154.353C30.4431 154.364 30.0827 154.302 29.7452 154.172C29.4077 154.041 29.0998 153.844 28.8399 153.593C28.5801 153.341 28.3735 153.04 28.2324 152.708C28.0913 152.375 28.0186 152.017 28.0186 151.656C28.0186 151.295 28.0913 150.937 28.2324 150.605C28.3735 150.272 28.5801 149.971 28.8399 149.719C29.0998 149.468 29.4077 149.271 29.7452 149.141C30.0827 149.01 30.4431 148.949 30.8049 148.96H31.3983C31.7384 146.64 34.3649 144.833 37.5541 144.83C40.7433 144.828 43.3724 146.629 43.7176 148.947H43.8353C44.5375 148.969 45.2037 149.262 45.6928 149.765C46.1819 150.269 46.4554 150.942 46.4554 151.643C46.4554 152.345 46.1819 153.018 45.6928 153.522C45.2037 154.025 44.5375 154.318 43.8353 154.34C44.5375 154.362 45.2037 154.655 45.6928 155.158C46.1819 155.662 46.4554 156.335 46.4554 157.036C46.4554 157.738 46.1819 158.411 45.6928 158.915C45.2037 159.418 44.5375 159.711 43.8353 159.733L43.848 159.746Z" fill="#06D6A0"/>
<path opacity="0.1" d="M46.5459 151.655C46.5446 152.369 46.26 153.054 45.7545 153.56C45.2489 154.065 44.5634 154.35 43.8478 154.353H30.8047L43.7506 148.947H43.8299C44.1864 148.947 44.5396 149.017 44.8691 149.153C45.1986 149.289 45.498 149.488 45.7503 149.74C46.0025 149.991 46.2026 150.29 46.3391 150.618C46.4757 150.947 46.5459 151.299 46.5459 151.655Z" fill="#3D3C40" fill-opacity="0.48"/>
<path opacity="0.1" d="M28.1885 157.066C28.1919 157.78 28.4783 158.464 28.9852 158.969C29.4921 159.473 30.1784 159.757 30.8943 159.758H43.9374L30.9787 154.378H30.8994C30.1837 154.379 29.4973 154.661 28.9895 155.165C28.4818 155.668 28.1939 156.351 28.1885 157.066Z" fill="#3D3C40" fill-opacity="0.48"/>
<path opacity="0.1" d="M70.586 39.0652C69.5712 38.8708 68.5214 38.9828 67.5707 39.3868C67.0035 39.6399 66.3891 39.7708 65.7677 39.7708C65.1463 39.7708 64.5319 39.6399 63.9647 39.3868C63.294 39.0937 62.5676 38.9492 61.8356 38.9633C61.1035 38.9774 60.3832 39.1497 59.7244 39.4685C59.3485 39.6675 58.93 39.7726 58.5045 39.7747C56.7859 39.7747 55.3562 38.0468 55.0596 35.7651C55.4028 35.515 55.6945 35.2013 55.9189 34.8411C56.9265 33.2204 58.4764 32.1816 60.2384 32.1816C62.0005 32.1816 63.535 33.2026 64.5427 34.8131C64.844 35.2962 65.2648 35.6939 65.7647 35.9679C66.2645 36.2419 66.8266 36.383 67.3968 36.3776H67.4428C68.8111 36.3751 69.9952 37.47 70.586 39.0652Z" fill="#145DBF"/>
<path opacity="0.1" d="M75.8087 31.9109L73.0313 33.6695L74.7167 30.6067C74.2396 30.2248 73.6479 30.0136 73.0364 30.0069H72.9929C72.8002 30.0114 72.6076 29.9977 72.4175 29.9661L71.4738 30.5608L71.8779 29.8282C71.211 29.5955 70.6346 29.1587 70.2308 28.5802L68.5404 29.6496L69.6043 27.7175C68.6196 26.5383 67.2898 25.8135 65.8294 25.8135C64.0776 25.8135 62.5047 26.8523 61.5073 28.473C61.2083 28.9565 60.7867 29.3528 60.2851 29.6216C59.7835 29.8905 59.2197 30.0225 58.6506 30.0044H58.5662C56.6328 30.0044 55.0625 32.1942 55.0625 34.8946C55.0625 37.5949 56.6328 39.7848 58.5662 39.7848C58.9919 39.7838 59.4107 39.6786 59.7861 39.4785C60.445 39.1597 61.1653 38.9874 61.8973 38.9733C62.6293 38.9592 63.3558 39.1037 64.0264 39.3968C64.5971 39.651 65.2148 39.7832 65.8397 39.7848C66.4565 39.784 67.0663 39.6544 67.6299 39.4045C68.2953 39.1169 69.0148 38.9754 69.7398 38.9895C70.4647 39.0036 71.1782 39.1729 71.8318 39.4861C72.2043 39.681 72.6184 39.7834 73.039 39.7848C74.975 39.7848 76.5427 37.5949 76.5427 34.8946C76.5521 33.8544 76.2997 32.8285 75.8087 31.9109Z" fill="#145DBF"/>
<path opacity="0.1" d="M33.917 67.1404C34.9277 66.9486 35.9726 67.0606 36.9195 67.462C37.4862 67.7152 38.1002 67.8461 38.7212 67.8461C39.3422 67.8461 39.9562 67.7152 40.5229 67.462C41.1936 67.1688 41.92 67.0243 42.6521 67.0384C43.3841 67.0525 44.1044 67.2249 44.7632 67.5437C45.1392 67.7424 45.5577 67.8474 45.9831 67.8499C47.7018 67.8499 49.134 66.122 49.4306 63.8403C49.0868 63.5909 48.7949 63.2771 48.5713 62.9163C47.5637 61.2956 46.001 60.2568 44.2492 60.2568C42.4973 60.2568 40.9552 61.2778 39.9475 62.8883C39.645 63.3724 39.2224 63.7706 38.7206 64.0442C38.2189 64.3178 37.6549 64.4577 37.0831 64.4503H37.0397C35.6791 64.4503 34.4924 65.5452 33.917 67.1404Z" fill="#145DBF"/>
<path opacity="0.1" d="M28.68 59.9867L31.4574 61.7452L29.7694 58.6825C30.2467 58.301 30.8382 58.0898 31.4497 58.0827H31.4957C31.6884 58.0871 31.8811 58.0735 32.0712 58.0419L33.0123 58.6365L32.6082 57.904C33.2759 57.6714 33.8531 57.2347 34.2578 56.656L35.9432 57.7228L34.8767 55.7907C35.8639 54.6116 37.1912 53.8867 38.6541 53.8867C40.406 53.8867 41.966 54.9255 42.9762 56.5462C43.275 57.0299 43.6966 57.4263 44.1982 57.6952C44.6999 57.9641 45.2638 58.096 45.8329 58.0776H45.925C47.861 58.0776 49.4287 60.2675 49.4287 62.9678C49.4287 65.6681 47.861 67.858 45.925 67.858C45.4994 67.8564 45.0807 67.7513 44.7051 67.5517C44.0462 67.233 43.3259 67.0606 42.5939 67.0465C41.8619 67.0324 41.1355 67.1769 40.4648 67.4701C39.895 67.7243 39.2782 67.8565 38.6541 67.858C38.0372 67.8578 37.4273 67.7282 36.8639 67.4777C36.198 67.1901 35.4781 67.0485 34.7527 67.0626C34.0273 67.0767 33.3135 67.2461 32.6594 67.5594C32.287 67.7545 31.8729 67.8569 31.4522 67.858C29.5188 67.858 27.9485 65.6681 27.9485 62.9678C27.9388 61.9287 28.1902 60.9038 28.68 59.9867Z" fill="#145DBF"/>
</svg>
