<svg width="416" height="220" viewBox="0 0 416 220" fill="none" xmlns="http://www.w3.org/2000/svg">
<path d="M297.994 134.412H198.197C197.4 134.411 196.636 134.093 196.073 133.528C195.509 132.963 195.192 132.197 195.191 131.398V97.6453C195.192 96.8463 195.509 96.0803 196.073 95.5153C196.636 94.9503 197.4 94.6325 198.197 94.6316H297.994C298.791 94.6325 299.555 94.9503 300.118 95.5153C300.682 96.0803 300.999 96.8463 301 97.6453V131.398C300.999 132.197 300.682 132.963 300.118 133.528C299.555 134.093 298.791 134.411 297.994 134.412Z" fill="#3D3C40" fill-opacity="0.08"/>
<path d="M237.274 103.673H210.822V106.686H237.274V103.673Z" fill="#166DE0"/>
<path d="M272.142 107.289C273.139 107.289 273.946 106.479 273.946 105.481C273.946 104.482 273.139 103.673 272.142 103.673C271.146 103.673 270.339 104.482 270.339 105.481C270.339 106.479 271.146 107.289 272.142 107.289Z" fill="#166DE0"/>
<path d="M278.154 107.289C279.15 107.289 279.958 106.479 279.958 105.481C279.958 104.482 279.15 103.673 278.154 103.673C277.158 103.673 276.351 104.482 276.351 105.481C276.351 106.479 277.158 107.289 278.154 107.289Z" fill="#166DE0"/>
<path d="M284.166 107.289C285.162 107.289 285.969 106.479 285.969 105.481C285.969 104.482 285.162 103.673 284.166 103.673C283.17 103.673 282.362 104.482 282.362 105.481C282.362 106.479 283.17 107.289 284.166 107.289Z" fill="#166DE0"/>
<path d="M297.994 177.206H198.197C197.4 177.205 196.636 176.887 196.073 176.322C195.509 175.757 195.192 174.991 195.191 174.192V140.439C195.192 139.64 195.509 138.874 196.073 138.309C196.636 137.744 197.4 137.426 198.197 137.426H297.994C298.791 137.426 299.555 137.744 300.118 138.309C300.682 138.874 300.999 139.64 301 140.439V174.192C300.999 174.991 300.682 175.757 300.118 176.322C299.555 176.887 298.791 177.205 297.994 177.206Z" fill="#3D3C40" fill-opacity="0.08"/>
<path d="M237.274 146.467H210.822V149.48H237.274V146.467Z" fill="#166DE0"/>
<path d="M272.142 150.083C273.139 150.083 273.946 149.273 273.946 148.275C273.946 147.276 273.139 146.467 272.142 146.467C271.146 146.467 270.339 147.276 270.339 148.275C270.339 149.273 271.146 150.083 272.142 150.083Z" fill="#166DE0"/>
<path d="M278.154 150.083C279.15 150.083 279.958 149.273 279.958 148.275C279.958 147.276 279.15 146.467 278.154 146.467C277.158 146.467 276.351 147.276 276.351 148.275C276.351 149.273 277.158 150.083 278.154 150.083Z" fill="#166DE0"/>
<path d="M284.166 150.083C285.162 150.083 285.969 149.273 285.969 148.275C285.969 147.276 285.162 146.467 284.166 146.467C283.17 146.467 282.362 147.276 282.362 148.275C282.362 149.273 283.17 150.083 284.166 150.083Z" fill="#166DE0"/>
<path d="M297.994 220H198.197C197.4 219.999 196.636 219.681 196.073 219.116C195.509 218.551 195.192 217.785 195.191 216.986V183.233C195.192 182.434 195.509 181.668 196.073 181.103C196.636 180.538 197.4 180.221 198.197 180.22H297.994C298.791 180.221 299.555 180.538 300.118 181.103C300.682 181.668 300.999 182.434 301 183.233V216.986C300.999 217.785 300.682 218.551 300.118 219.116C299.555 219.681 298.791 219.999 297.994 220Z" fill="#3D3C40" fill-opacity="0.08"/>
<path d="M237.274 189.261H210.822V192.274H237.274V189.261Z" fill="#166DE0"/>
<path d="M272.142 192.877C273.139 192.877 273.946 192.067 273.946 191.069C273.946 190.07 273.139 189.261 272.142 189.261C271.146 189.261 270.339 190.07 270.339 191.069C270.339 192.067 271.146 192.877 272.142 192.877Z" fill="#166DE0"/>
<path d="M278.154 192.877C279.15 192.877 279.958 192.067 279.958 191.069C279.958 190.07 279.15 189.261 278.154 189.261C277.158 189.261 276.351 190.07 276.351 191.069C276.351 192.067 277.158 192.877 278.154 192.877Z" fill="#166DE0"/>
<path d="M284.166 192.877C285.162 192.877 285.969 192.067 285.969 191.069C285.969 190.07 285.162 189.261 284.166 189.261C283.17 189.261 282.362 190.07 282.362 191.069C282.362 192.067 283.17 192.877 284.166 192.877Z" fill="#166DE0"/>
<path d="M260.372 61.672L260.261 61.5903L260.259 61.5883C260.116 61.4823 259.955 61.4054 259.783 61.3621C259.611 61.3188 259.432 61.3099 259.256 61.3359C259.081 61.3618 258.912 61.4222 258.76 61.5135C258.608 61.6048 258.475 61.7252 258.37 61.868L235.907 92.1901H233.436V91.608C233.435 91.4644 233.379 91.3267 233.277 91.2251C233.176 91.1236 233.039 91.0665 232.895 91.0665H231.421C231.278 91.0665 231.14 91.1236 231.039 91.2251C230.938 91.3267 230.881 91.4644 230.881 91.608V92.1901H230.027V91.608C230.027 91.4644 229.971 91.3267 229.869 91.2251C229.768 91.1236 229.631 91.0665 229.487 91.0665H228.013C227.87 91.0665 227.732 91.1236 227.631 91.2251C227.53 91.3267 227.473 91.4644 227.473 91.608V92.1901H226.622V91.608C226.622 91.4644 226.565 91.3267 226.464 91.2251C226.363 91.1236 226.225 91.0665 226.082 91.0665H224.608C224.464 91.0665 224.327 91.1236 224.226 91.2251C224.124 91.3267 224.068 91.4644 224.068 91.608V92.1901H223.214V91.608C223.214 91.4644 223.157 91.3267 223.056 91.2251C222.955 91.1236 222.817 91.0665 222.674 91.0665H221.2C221.056 91.0665 220.919 91.1236 220.818 91.2251C220.716 91.3267 220.659 91.4644 220.659 91.608V92.1901H219.809V91.608C219.809 91.4644 219.752 91.3267 219.651 91.2251C219.549 91.1236 219.412 91.0665 219.269 91.0665H217.794C217.723 91.0665 217.653 91.0805 217.588 91.1077C217.522 91.1349 217.462 91.1748 217.412 91.2251C217.362 91.2754 217.322 91.3351 217.295 91.4008C217.268 91.4665 217.254 91.5369 217.254 91.608V92.1901H216.401V91.608C216.401 91.4644 216.344 91.3267 216.243 91.2251C216.141 91.1236 216.004 91.0665 215.861 91.0665H214.386C214.243 91.0665 214.106 91.1236 214.004 91.2251C213.903 91.3267 213.846 91.4644 213.846 91.608V92.1901H212.993V91.608C212.993 91.4644 212.936 91.3267 212.835 91.2251C212.733 91.1236 212.596 91.0665 212.453 91.0665H210.978C210.835 91.0665 210.698 91.1236 210.596 91.2251C210.495 91.3267 210.438 91.4644 210.438 91.608V92.1901H209.587V91.608C209.587 91.4644 209.531 91.3267 209.429 91.2251C209.328 91.1236 209.191 91.0665 209.047 91.0665H207.573C207.43 91.0665 207.292 91.1236 207.191 91.2251C207.09 91.3267 207.033 91.4644 207.033 91.608V92.1901H206.179V91.608C206.179 91.4644 206.122 91.3267 206.021 91.2251C205.92 91.1236 205.783 91.0665 205.639 91.0665H204.165C204.022 91.0665 203.884 91.1236 203.783 91.2251C203.682 91.3267 203.625 91.4644 203.625 91.608V92.1901H202.774V91.608C202.774 91.4644 202.717 91.3267 202.616 91.2251C202.515 91.1236 202.377 91.0665 202.234 91.0665H200.76C200.616 91.0665 200.479 91.1236 200.378 91.2251C200.276 91.3267 200.219 91.4644 200.219 91.608V92.1901H199.15C198.973 92.1901 198.797 92.2251 198.633 92.2931C198.47 92.3612 198.321 92.4609 198.195 92.5866C198.07 92.7123 197.97 92.8615 197.903 93.0258C197.835 93.19 197.8 93.3661 197.8 93.5438V94.8353C197.8 95.0131 197.835 95.1891 197.903 95.3533C197.97 95.5176 198.07 95.6668 198.195 95.7925C198.321 95.9182 198.47 96.0179 198.633 96.086C198.797 96.154 198.973 96.189 199.15 96.189H235.683C236.145 96.189 236.594 96.029 236.953 95.7362C237.312 95.4433 237.559 95.0355 237.653 94.5813L237.667 94.5917L260.649 63.5686L260.651 63.566C260.864 63.2777 260.955 62.9162 260.902 62.5611C260.85 62.2059 260.659 61.8861 260.372 61.672Z" fill="#3D3C40"/>
<path d="M118.409 208.502L122.947 210.83L134.063 194.39L127.366 190.954L118.409 208.502Z" fill="#3D3C40" fill-opacity="0.32"/>
<path d="M118.009 206.423L126.946 211.008L126.946 211.008C128.456 211.783 129.598 213.128 130.119 214.747C130.641 216.365 130.499 218.125 129.727 219.64L129.632 219.825L115 212.318L118.009 206.423Z" fill="#3D3C40"/>
<path d="M170.817 214.871H175.915L178.34 195.159H170.816L170.817 214.871Z" fill="#3D3C40" fill-opacity="0.32"/>
<path d="M169.518 213.203L179.556 213.202H179.557C181.254 213.202 182.881 213.878 184.08 215.081C185.28 216.284 185.954 217.915 185.954 219.616V219.825L169.518 219.825L169.518 213.203Z" fill="#3D3C40"/>
<path d="M146.974 54.0811C146.974 54.0811 143.56 51.4591 143.56 57.8637L143.021 79.0281L149.04 99.0217L152.543 92.5373L151.106 78.4877L146.974 54.0811Z" fill="#145DBF"/>
<path d="M183.489 111.969C183.489 111.969 187.447 131.296 182.433 147.157L179.663 208.14L169.503 207.347L165.94 162.105L162.51 139.617L155.385 160.121L131.899 203.51L121.079 195.044C121.079 195.044 133.069 162.245 141.926 155.359L146.369 104.632L183.489 111.969Z" fill="#3D3C40"/>
<path d="M181.61 22.1979C184.678 16.5696 182.615 9.51287 177.001 6.43619C171.388 3.35951 164.349 5.42799 161.28 11.0563C158.211 16.6845 160.275 23.7413 165.888 26.818C171.502 29.8946 178.541 27.8262 181.61 22.1979Z" fill="#3D3C40" fill-opacity="0.32"/>
<path d="M170.626 19.0905C172.015 19.2716 173.062 17.8472 173.548 16.5304C174.034 15.2136 174.404 13.6806 175.612 12.9693C177.261 11.9975 179.372 13.1663 181.258 12.8457C183.388 12.4836 184.773 10.2202 184.882 8.05679C184.99 5.89337 184.131 3.81261 183.289 1.81795L182.995 4.29686C183.034 3.45669 182.858 2.62046 182.483 1.86815C182.107 1.11584 181.546 0.472615 180.852 0L181.231 3.63741C181.15 3.13558 180.972 2.65466 180.705 2.22225C180.439 1.78985 180.09 1.41447 179.678 1.11766C179.266 0.820855 178.8 0.608462 178.307 0.492674C177.813 0.376887 177.301 0.359983 176.801 0.442933L176.861 2.61024C174.401 2.31692 171.919 2.02319 169.451 2.24666C166.983 2.47012 164.498 3.25289 162.628 4.88222C159.83 7.31945 158.809 11.3326 159.152 15.0325C159.495 18.7324 161.018 22.2081 162.606 25.5658C163.005 26.4105 163.558 27.3638 164.484 27.4714C165.316 27.5681 166.078 26.8706 166.337 26.0716C166.536 25.2519 166.528 24.3952 166.314 23.5791C166.08 22.332 165.785 21.0574 166.005 19.8077C166.225 18.5581 167.122 17.3232 168.378 17.17C169.635 17.0169 170.921 18.4568 170.316 19.5719L170.626 19.0905Z" fill="#3D3C40"/>
<path d="M184.205 117.138L145.536 114.637L148.447 102.548L183.789 110.468L184.205 117.138Z" fill="white"/>
<path d="M160.358 32.4663L162.784 29.0903C162.784 29.0903 165.495 30.014 172.755 33.6371L173.268 36.8002L185.87 114.512L162.963 113.522L156.725 113.389L154.684 108.801L152.167 113.291L146.075 113.161L139.877 109.559L145.985 90.8261L147.962 73.7145L144.907 57.5935C144.907 57.5935 141.064 42.7899 155.867 34.808L160.358 32.4663Z" fill="#145DBF"/>
<path d="M211.988 91.2949C211.427 91.4378 210.842 91.4557 210.273 91.3472C209.705 91.2388 209.167 91.0067 208.697 90.6672C208.228 90.3278 207.839 89.8893 207.556 89.3826C207.274 88.8759 207.106 88.3134 207.065 87.7346L193.475 84.0851L198.942 79.2184L211.009 83.4301C211.983 83.4242 212.926 83.7768 213.658 84.4212C214.391 85.0655 214.862 85.9569 214.983 86.9263C215.104 87.8958 214.866 88.8759 214.314 89.6811C213.762 90.4863 212.934 91.0605 211.988 91.2949V91.2949Z" fill="#3D3C40" fill-opacity="0.32"/>
<path d="M205.901 89.2346C205.615 89.3906 205.3 89.4846 204.975 89.5104C204.651 89.5362 204.325 89.4933 204.018 89.3844L181.662 80.8775C176.208 78.9391 171.642 75.0806 168.813 70.0196L159.49 53.346C158.835 52.6133 158.331 51.7584 158.007 50.8302C157.682 49.902 157.543 48.9187 157.598 47.9366C157.652 46.9545 157.9 45.9929 158.325 45.1067C158.751 44.2206 159.347 43.4273 160.079 42.7723C160.811 42.1173 161.665 41.6134 162.591 41.2895C163.517 40.9656 164.498 40.8281 165.478 40.8847C166.457 40.9413 167.416 41.191 168.299 41.6196C169.182 42.0481 169.973 42.647 170.625 43.382L186.761 69.0239L207.068 80.9606C207.466 81.2224 207.775 81.6005 207.951 82.0436C208.128 82.4868 208.165 82.9737 208.057 83.4384L207.047 87.7288C206.938 88.1888 206.693 88.6048 206.342 88.9212C206.208 89.0428 206.06 89.148 205.901 89.2346Z" fill="#145DBF"/>
</svg>
