<svg width="416" height="220" viewBox="0 0 416 220" fill="none" xmlns="http://www.w3.org/2000/svg">
<g clip-path="url(#clip0)">
<path opacity="0.08" fill-rule="evenodd" clip-rule="evenodd" d="M345.092 9.93672C345.096 9.17488 344.951 8.41969 344.667 7.71431C344.382 7.00893 343.963 6.36719 343.433 5.82577C342.903 5.28434 342.273 4.85385 341.578 4.55887C340.884 4.2639 340.139 4.11023 339.386 4.10666H84.798C83.2771 4.11491 81.8217 4.73366 80.7517 5.8269C79.6817 6.92014 79.0847 8.3984 79.0919 9.93672V164.267H79.0918V182.548C79.0918 184.079 79.693 185.547 80.7631 186.63C81.8332 187.712 83.2846 188.32 84.798 188.32H180.125L177.249 213.321H246.111L242.33 188.32H337.011C342.379 188.324 345.096 186.112 345.092 180.31C345.091 179.552 345.092 164.267 345.092 164.267M345.092 9.93672L345.092 164.267L345.092 9.93672Z" fill="#3D3C40"/>
<path opacity="0.4" d="M208 218.24C276.288 218.24 331.646 216.795 331.646 215.013C331.646 213.231 276.288 211.787 208 211.787C139.712 211.787 84.3535 213.231 84.3535 215.013C84.3535 216.795 139.712 218.24 208 218.24Z" fill="#3D3C40"/>
<path opacity="0.1" d="M242.946 213.727H208.663L174.311 213.283L174.515 211.504H242.607L242.946 213.727Z" fill="#3D3C40"/>
<path d="M243.077 214.133H174.093L177.835 182.146H238.17L243.077 214.133Z" fill="#3D3C40" fill-opacity="0.04"/>
<path opacity="0.1" d="M243.077 214.133H174.093L177.835 182.146H238.17L243.077 214.133Z" fill="#3D3C40"/>
<path d="M253.892 211.787H162.692V214.133H253.892V211.787Z" fill="#3D3C40" fill-opacity="0.04"/>
<path opacity="0.2" d="M253.892 211.787H162.692V214.133H253.892V211.787Z" fill="#3D3C40"/>
<path opacity="0.15" d="M215.49 184.148L242.715 211.787L238.693 184.148H215.49Z" fill="#3D3C40"/>
<path d="M341 5.78782C341.004 5.03149 340.86 4.28178 340.575 3.58151C340.29 2.88124 339.871 2.24415 339.341 1.70665C338.811 1.16915 338.181 0.741773 337.487 0.448937C336.792 0.1561 336.047 0.00354945 335.294 0H80.7062C79.1853 0.00819372 77.7299 0.622454 76.6599 1.70777C75.5899 2.79309 74.9929 4.26064 75.0001 5.78782V160.747H341V5.78782Z" fill="#3D3C40"/>
<path d="M75 160.16V178.384C75 179.913 75.6012 181.379 76.6713 182.46C77.7414 183.54 79.1928 184.148 80.7062 184.148H335.154C335.903 184.148 336.785 183.999 337.478 183.71C338.171 183.42 338.8 182.996 339.33 182.461C339.86 181.925 340.28 181.29 340.567 180.59C340.853 179.891 341 179.104 341 178.347V160.16H75Z" fill="white"/>
<path d="M75 160.16H341V179.167C341 181.954 338.749 184.213 335.972 184.213H80.0284C77.2513 184.213 75 181.954 75 179.167V160.16Z" fill="#3D3C40" fill-opacity="0.04"/>
<ellipse opacity="0.16" cx="208.132" cy="172.427" rx="6.26017" ry="6.32372" fill="#3D3C40"/>
<g clip-path="url(#clip1)">
<rect width="245.538" height="140.8" transform="translate(85.5596 9.5874)" fill="white"/>
<rect x="85.5596" y="20.1474" width="50.2769" height="130.24" fill="#166DE0"/>
<rect x="135.863" y="20.0502" width="194.467" height="14.1936" fill="white"/>
<path fill-rule="evenodd" clip-rule="evenodd" d="M331.249 33.6407H136.017V33.0541H331.249V33.6407Z" fill="#3D3C40" fill-opacity="0.16"/>
<ellipse opacity="0.32" cx="92.6308" cy="27.5074" rx="3.82809" ry="3.84" fill="white"/>
<path opacity="0.32" d="M100.178 24.9261C100.178 24.3688 100.628 23.9169 101.183 23.9169H131.354C131.909 23.9169 132.359 24.3688 132.359 24.9261V26.4399C132.359 26.9973 131.909 27.4491 131.354 27.4491H101.183C100.628 27.4491 100.178 26.9973 100.178 26.4399V24.9261Z" fill="white"/>
<path opacity="0.32" d="M91.127 41.5779C91.127 41.0206 91.5772 40.5687 92.1326 40.5687H129.845C130.401 40.5687 130.851 41.0206 130.851 41.5779C130.851 42.1353 130.401 42.5871 129.845 42.5871H92.1326C91.5772 42.5871 91.127 42.1353 91.127 41.5779Z" fill="white"/>
<path opacity="0.32" d="M91.127 49.1469C91.127 48.5896 91.5772 48.1377 92.1326 48.1377H115.766C116.321 48.1377 116.772 48.5896 116.772 49.1469C116.772 49.7043 116.321 50.1561 115.766 50.1561H92.1326C91.5772 50.1561 91.127 49.7043 91.127 49.1469Z" fill="white"/>
<path opacity="0.32" d="M91.127 56.7159C91.127 56.1586 91.5772 55.7067 92.1326 55.7067H127.331C127.887 55.7067 128.337 56.1586 128.337 56.7159C128.337 57.2733 127.887 57.7251 127.331 57.7251H92.1326C91.5772 57.7251 91.127 57.2733 91.127 56.7159Z" fill="white"/>
<path opacity="0.32" d="M91.127 64.2849C91.127 63.7276 91.5772 63.2757 92.1326 63.2757H119.789C120.344 63.2757 120.794 63.7276 120.794 64.2849C120.794 64.8423 120.344 65.2941 119.789 65.2941H92.1326C91.5772 65.2941 91.127 64.8423 91.127 64.2849Z" fill="white"/>
<path opacity="0.32" d="M91.127 71.8539C91.127 71.2966 91.5772 70.8447 92.1326 70.8447H129.845C130.401 70.8447 130.851 71.2966 130.851 71.8539C130.851 72.4113 130.401 72.8631 129.845 72.8631H92.1326C91.5772 72.8631 91.127 72.4113 91.127 71.8539Z" fill="white"/>
<path opacity="0.32" d="M91.127 79.4229C91.127 78.8656 91.5772 78.4137 92.1326 78.4137H109.229C109.784 78.4137 110.235 78.8656 110.235 79.4229C110.235 79.9803 109.784 80.4321 109.229 80.4321H92.1326C91.5772 80.4321 91.127 79.9803 91.127 79.4229Z" fill="white"/>
<path opacity="0.32" d="M91.127 86.9919C91.127 86.4346 91.5772 85.9827 92.1326 85.9827H129.845C130.401 85.9827 130.851 86.4346 130.851 86.9919C130.851 87.5493 130.401 88.0011 129.845 88.0011H92.1326C91.5772 88.0011 91.127 87.5493 91.127 86.9919Z" fill="white"/>
<path opacity="0.32" d="M91.127 94.5609C91.127 94.0036 91.5772 93.5517 92.1326 93.5517H119.789C120.344 93.5517 120.794 94.0036 120.794 94.5609C120.794 95.1183 120.344 95.5701 119.789 95.5701H92.1326C91.5772 95.5701 91.127 95.1183 91.127 94.5609Z" fill="white"/>
<path opacity="0.32" d="M100.178 30.729C100.178 30.311 100.515 29.9721 100.932 29.9721H131.605C132.022 29.9721 132.359 30.311 132.359 30.729C132.359 31.1471 132.022 31.4859 131.605 31.4859H100.932C100.515 31.4859 100.178 31.1471 100.178 30.729Z" fill="white"/>
<path opacity="0.16" d="M142.268 26.4366C142.268 25.8792 142.718 25.4274 143.273 25.4274H173.416C173.971 25.4274 174.421 25.8792 174.421 26.4366V26.7649C174.421 27.3222 173.971 27.7741 173.416 27.7741H143.273C142.718 27.7741 142.268 27.3222 142.268 26.7649V26.4366Z" fill="#3D3C40"/>
<g opacity="0.16">
<ellipse cx="145.906" cy="42.5474" rx="3.50908" ry="3.52" fill="#3D3C40"/>
<path d="M153.881 42.2766C153.881 41.7192 154.331 41.2674 154.887 41.2674H184.444C185 41.2674 185.45 41.7192 185.45 42.2766V42.6049C185.45 43.1622 185 43.6141 184.444 43.6141H154.887C154.331 43.6141 153.881 43.1622 153.881 42.6049V42.2766Z" fill="#3D3C40"/>
<path d="M153.881 46.9699C153.881 46.4126 154.331 45.9607 154.887 45.9607H265.166C265.721 45.9607 266.172 46.4126 266.172 46.9699V47.2982C266.172 47.8556 265.721 48.3074 265.166 48.3074H154.887C154.331 48.3074 153.881 47.8556 153.881 47.2982V46.9699Z" fill="#3D3C40"/>
<path d="M153.881 51.6633C153.881 51.1059 154.331 50.6541 154.887 50.6541H244.749C245.305 50.6541 245.755 51.1059 245.755 51.6633V51.9915C245.755 52.5489 245.305 53.0007 244.749 53.0007H154.887C154.331 53.0007 153.881 52.5489 153.881 51.9915V51.6633Z" fill="#3D3C40"/>
</g>
<g opacity="0.16">
<ellipse cx="145.906" cy="63.5607" rx="3.50909" ry="3.52" fill="#3D3C40"/>
<path d="M153.881 63.3966C153.881 62.8392 154.331 62.3874 154.887 62.3874H184.444C185 62.3874 185.45 62.8392 185.45 63.3966V63.7249C185.45 64.2822 185 64.7341 184.444 64.7341H154.887C154.331 64.7341 153.881 64.2822 153.881 63.7249V63.3966Z" fill="#3D3C40"/>
<path d="M153.881 68.0899C153.881 67.5326 154.331 67.0807 154.887 67.0807H265.166C265.721 67.0807 266.172 67.5326 266.172 68.0899V68.4182C266.172 68.9756 265.721 69.4274 265.166 69.4274H154.887C154.331 69.4274 153.881 68.9756 153.881 68.4182V68.0899Z" fill="#3D3C40"/>
<path d="M153.881 72.7833C153.881 72.2259 154.331 71.7741 154.887 71.7741H244.749C245.305 71.7741 245.755 72.2259 245.755 72.7833V73.1115C245.755 73.6689 245.305 74.1207 244.749 74.1207H154.887C154.331 74.1207 153.881 73.6689 153.881 73.1115V72.7833Z" fill="#3D3C40"/>
</g>
<g opacity="0.16">
<ellipse cx="145.906" cy="84.6807" rx="3.50909" ry="3.52" fill="#3D3C40"/>
<path d="M153.881 84.5166C153.881 83.9592 154.331 83.5074 154.887 83.5074H184.444C185 83.5074 185.45 83.9592 185.45 84.5166V84.8449C185.45 85.4022 185 85.854 184.444 85.854H154.887C154.331 85.854 153.881 85.4022 153.881 84.8449V84.5166Z" fill="#3D3C40"/>
<path d="M153.881 89.2099C153.881 88.6525 154.331 88.2007 154.887 88.2007H265.166C265.721 88.2007 266.172 88.6525 266.172 89.2099V89.5382C266.172 90.0956 265.721 90.5474 265.166 90.5474H154.887C154.331 90.5474 153.881 90.0956 153.881 89.5382V89.2099Z" fill="#3D3C40"/>
<path d="M153.881 93.9033C153.881 93.3459 154.331 92.8941 154.887 92.8941H244.749C245.305 92.8941 245.755 93.3459 245.755 93.9033V94.2315C245.755 94.7889 245.305 95.2407 244.749 95.2407H154.887C154.331 95.2407 153.881 94.7889 153.881 94.2315V93.9033Z" fill="#3D3C40"/>
</g>
<g opacity="0.16">
<ellipse cx="145.906" cy="105.801" rx="3.50909" ry="3.52" fill="#3D3C40"/>
<path d="M153.881 105.637C153.881 105.079 154.331 104.627 154.887 104.627H184.444C185 104.627 185.45 105.079 185.45 105.637V105.965C185.45 106.522 185 106.974 184.444 106.974H154.887C154.331 106.974 153.881 106.522 153.881 105.965V105.637Z" fill="#3D3C40"/>
<path d="M153.881 110.33C153.881 109.773 154.331 109.321 154.887 109.321H265.166C265.721 109.321 266.172 109.773 266.172 110.33V110.658C266.172 111.216 265.721 111.667 265.166 111.667H154.887C154.331 111.667 153.881 111.216 153.881 110.658V110.33Z" fill="#3D3C40"/>
<path d="M153.881 115.023C153.881 114.466 154.331 114.014 154.887 114.014H244.749C245.305 114.014 245.755 114.466 245.755 115.023V115.352C245.755 115.909 245.305 116.361 244.749 116.361H154.887C154.331 116.361 153.881 115.909 153.881 115.352V115.023Z" fill="#3D3C40"/>
</g>
<path opacity="0.16" d="M276.145 25.2633C276.145 24.7059 276.595 24.2541 277.15 24.2541H309.047C309.602 24.2541 310.052 24.7059 310.052 25.2633V27.9382C310.052 28.4956 309.602 28.9474 309.047 28.9474H277.15C276.595 28.9474 276.145 28.4956 276.145 27.9382V25.2633Z" fill="#3D3C40"/>
<path opacity="0.16" d="M313.56 25.2633C313.56 24.7059 314.01 24.2541 314.565 24.2541H317.231C317.786 24.2541 318.236 24.7059 318.236 25.2633V27.9382C318.236 28.4956 317.786 28.9474 317.231 28.9474H314.565C314.01 28.9474 313.56 28.4956 313.56 27.9382V25.2633Z" fill="#3D3C40"/>
<path opacity="0.16" d="M322.329 25.2633C322.329 24.7059 322.779 24.2541 323.335 24.2541H326C326.556 24.2541 327.006 24.7059 327.006 25.2633V27.9382C327.006 28.4956 326.556 28.9474 326 28.9474H323.335C322.779 28.9474 322.329 28.4956 322.329 27.9382V25.2633Z" fill="#3D3C40"/>
<path opacity="0.16" d="M266.79 25.2633C266.79 24.7059 267.24 24.2541 267.796 24.2541H270.461C271.017 24.2541 271.467 24.7059 271.467 25.2633V27.9382C271.467 28.4956 271.017 28.9474 270.461 28.9474H267.796C267.24 28.9474 266.79 28.4956 266.79 27.9382V25.2633Z" fill="#3D3C40"/>
<path opacity="0.16" d="M255.098 25.2633C255.098 24.7059 255.548 24.2541 256.103 24.2541H258.769C259.324 24.2541 259.775 24.7059 259.775 25.2633V27.9382C259.775 28.4956 259.324 28.9474 258.769 28.9474H256.103C255.548 28.9474 255.098 28.4956 255.098 27.9382V25.2633Z" fill="#3D3C40"/>
<rect opacity="0.08" x="85.5596" y="9.5874" width="245.538" height="10.56" fill="#3D3C40"/>
<ellipse cx="90.7168" cy="15.3474" rx="1.91405" ry="1.92" fill="#F74343"/>
<ellipse cx="98.373" cy="15.3474" rx="1.91405" ry="1.92" fill="#FFBC42"/>
<ellipse cx="106.029" cy="15.3474" rx="1.91405" ry="1.92" fill="#06D6A0"/>
<rect opacity="0.1" x="141.12" y="135.027" width="182.472" height="8.95998" rx="2" fill="#3D3C40"/>
<rect opacity="0.92" x="86" y="19.5874" width="245" height="40" fill="#579EFF"/>
<path d="M141.56 29.5794C139.752 29.5794 138.072 30.0354 136.52 30.9474C135.016 31.8434 133.816 33.0434 132.92 34.5474C132.008 36.0994 131.552 37.7794 131.552 39.5874C131.552 41.3954 132.008 43.0754 132.92 44.6274C133.816 46.1314 135.016 47.3314 136.52 48.2274C138.072 49.1394 139.752 49.5954 141.56 49.5954C143.368 49.5954 145.048 49.1394 146.6 48.2274C148.104 47.3314 149.304 46.1314 150.2 44.6274C151.112 43.0754 151.568 41.3954 151.568 39.5874C151.568 37.7794 151.112 36.0994 150.2 34.5474C149.304 33.0434 148.104 31.8434 146.6 30.9474C145.048 30.0354 143.368 29.5794 141.56 29.5794ZM141.56 47.5794C140.12 47.5794 138.776 47.2114 137.528 46.4754C136.328 45.7714 135.376 44.8194 134.672 43.6194C133.936 42.3714 133.568 41.0274 133.568 39.5874C133.568 38.1474 133.936 36.8034 134.672 35.5554C135.376 34.3554 136.328 33.4034 137.528 32.6994C138.776 31.9634 140.12 31.5954 141.56 31.5954C143 31.5954 144.344 31.9634 145.592 32.6994C146.792 33.4034 147.744 34.3554 148.448 35.5554C149.184 36.8034 149.552 38.1474 149.552 39.5874C149.552 41.0274 149.184 42.3714 148.448 43.6194C147.744 44.8194 146.792 45.7714 145.592 46.4754C144.344 47.2114 143 47.5794 141.56 47.5794ZM142.064 40.5954H141.056L140.552 34.5954H142.568L142.064 40.5954ZM142.568 43.5954C142.568 43.8674 142.464 44.0994 142.256 44.2914C142.064 44.4834 141.832 44.5794 141.56 44.5794C141.288 44.5794 141.048 44.4834 140.84 44.2914C140.648 44.0994 140.552 43.8674 140.552 43.5954C140.552 43.3234 140.648 43.0914 140.84 42.8994C141.048 42.6914 141.288 42.5874 141.56 42.5874C141.832 42.5874 142.064 42.6914 142.256 42.8994C142.464 43.0914 142.568 43.3234 142.568 43.5954Z" fill="white"/>
<rect x="159.56" y="31.5874" width="32" height="3" rx="1.5" fill="white"/>
<rect x="159.56" y="37.5874" width="112" height="3" rx="1.5" fill="white"/>
<rect x="159.56" y="43.5874" width="92" height="3" rx="1.5" fill="white"/>
</g>
</g>
<defs>
<clipPath id="clip0">
<rect width="266" height="220" fill="white" transform="translate(75)"/>
</clipPath>
<clipPath id="clip1">
<rect width="245.538" height="140.8" fill="white" transform="translate(85.5596 9.5874)"/>
</clipPath>
</defs>
</svg>
