<svg width="416" height="220" viewBox="0 0 416 220" fill="none" xmlns="http://www.w3.org/2000/svg">
<path d="M220.202 121.041C220.159 121.041 220.132 121.04 220.123 121.04L214.991 121.04V120.287H220.141C220.261 120.292 222.693 120.36 224.935 117.653C228.275 113.619 231.019 103.633 225.117 78.967C217.182 45.8001 223.8 16.4991 227.014 5.44086C227.172 4.89377 227.201 4.31752 227.097 3.75766C226.993 3.1978 226.76 2.66966 226.415 2.21497C226.071 1.76028 225.625 1.3915 225.113 1.13776C224.601 0.884031 224.036 0.752299 223.464 0.752976H146.826C146.244 0.753754 145.669 0.891238 145.15 1.15427C144.631 1.4173 144.181 1.79847 143.838 2.26683C142.476 4.13052 140.608 7.71083 139.439 14.1846L138.694 14.0515C139.889 7.43709 141.818 3.75146 143.226 1.82417C143.64 1.25981 144.181 0.80051 144.807 0.483559C145.433 0.166609 146.124 0.000937757 146.826 2.04885e-06H223.464C224.154 -0.000658134 224.834 0.158234 225.451 0.464125C226.068 0.770016 226.605 1.21452 227.02 1.76253C227.435 2.31054 227.716 2.94703 227.841 3.62172C227.966 4.29641 227.932 4.99082 227.741 5.65007C224.544 16.6509 217.96 45.8 225.853 78.7928C231.838 103.806 228.961 114.008 225.494 118.163C223.207 120.903 220.687 121.041 220.202 121.041Z" fill="#3D3C40" fill-opacity="0.08"/>
<path d="M206.394 134.783C206.351 134.783 206.324 134.782 206.314 134.782L201.183 134.782V134.029H206.333C206.453 134.033 208.885 134.102 211.127 131.395C214.467 127.361 217.21 117.375 211.309 92.7088C203.373 59.5419 209.992 30.2408 213.206 19.1826C213.364 18.6355 213.392 18.0593 213.288 17.4994C213.184 16.9396 212.951 16.4114 212.607 15.9567C212.262 15.502 211.817 15.1333 211.304 14.8795C210.792 14.6258 210.228 14.4941 209.656 14.4947H133.018C132.435 14.4955 131.861 14.633 131.342 14.896C130.822 15.1591 130.373 15.5402 130.029 16.0086C128.668 17.8723 126.8 21.4526 125.63 27.9264L124.886 27.7933C126.08 21.1789 128.009 17.4932 129.417 15.5659C129.831 15.0016 130.373 14.5423 130.998 14.2253C131.624 13.9084 132.316 13.7427 133.018 13.7418H209.656C210.345 13.7411 211.025 13.9 211.642 14.2059C212.26 14.5118 212.797 14.9563 213.211 15.5043C213.626 16.0523 213.907 16.6888 214.032 17.3635C214.158 18.0382 214.123 18.7326 213.932 19.3918C210.735 30.3927 204.151 59.5417 212.045 92.5345C218.029 117.547 215.152 127.75 211.685 131.904C209.398 134.644 206.879 134.783 206.394 134.783Z" fill="#3D3C40" fill-opacity="0.16"/>
<path d="M192.585 148.525C192.542 148.525 192.515 148.524 192.505 148.523L117.049 148.524C116.322 148.525 115.607 148.348 114.964 148.01C114.322 147.672 113.773 147.183 113.365 146.584C112.957 145.986 112.703 145.298 112.624 144.579C112.546 143.86 112.645 143.133 112.914 142.462C115.652 135.655 119.338 119.323 113.267 86.4256C106.097 47.5796 112.516 33.5406 115.608 29.3077C116.022 28.7433 116.564 28.284 117.189 27.9671C117.815 27.6501 118.507 27.4845 119.209 27.4835H195.847C196.536 27.4829 197.216 27.6418 197.833 27.9477C198.45 28.2536 198.988 28.6981 199.402 29.2461C199.817 29.7941 200.098 30.4306 200.223 31.1053C200.349 31.7799 200.314 32.4744 200.123 33.1336C196.926 44.1344 190.342 73.2835 198.236 106.276C204.22 131.289 201.343 141.492 197.876 145.646C195.589 148.386 193.069 148.525 192.585 148.525ZM119.209 28.2365C118.626 28.2373 118.052 28.3748 117.533 28.6378C117.013 28.9008 116.564 29.282 116.22 29.7504C113.185 33.9048 106.894 47.7304 114.011 86.2896C119.811 117.716 116.998 134.334 113.617 142.741C113.389 143.296 113.303 143.899 113.368 144.494C113.432 145.09 113.645 145.66 113.986 146.154C114.325 146.652 114.781 147.06 115.315 147.342C115.849 147.624 116.444 147.771 117.049 147.771H192.524C192.643 147.777 195.076 147.844 197.317 145.137C200.658 141.103 203.401 131.116 197.5 106.451C189.564 73.2837 196.183 43.9826 199.396 32.9244C199.555 32.3773 199.583 31.8011 199.479 31.2412C199.375 30.6813 199.142 30.1532 198.798 29.6985C198.453 29.2438 198.008 28.875 197.495 28.6213C196.983 28.3676 196.419 28.2358 195.847 28.2365H119.209Z" fill="#3D3C40"/>
<path d="M182.811 61.3674H122.658C121.856 61.3674 121.086 61.05 120.518 60.4852C119.951 59.9204 119.632 59.1543 119.632 58.3555C119.632 57.5567 119.951 56.7906 120.518 56.2257C121.086 55.6609 121.856 55.3436 122.658 55.3436H182.811C183.614 55.3436 184.383 55.6609 184.951 56.2257C185.519 56.7906 185.837 57.5567 185.837 58.3555C185.837 59.1543 185.519 59.9204 184.951 60.4852C184.383 61.05 183.614 61.3674 182.811 61.3674Z" fill="#166DE0"/>
<path d="M182.811 74.1679H122.658C121.856 74.1679 121.086 73.8506 120.518 73.2857C119.951 72.7209 119.632 71.9548 119.632 71.156C119.632 70.3572 119.951 69.5911 120.518 69.0263C121.086 68.4614 121.856 68.1441 122.658 68.1441H182.811C183.614 68.1441 184.383 68.4614 184.951 69.0263C185.519 69.5911 185.837 70.3572 185.837 71.156C185.837 71.9548 185.519 72.7209 184.951 73.2857C184.383 73.8506 183.614 74.1679 182.811 74.1679Z" fill="#3D3C40" fill-opacity="0.16"/>
<path d="M182.811 86.9685H122.658C121.856 86.9685 121.086 86.6511 120.518 86.0863C119.951 85.5215 119.632 84.7554 119.632 83.9566C119.632 83.1578 119.951 82.3917 120.518 81.8268C121.086 81.262 121.856 80.9447 122.658 80.9447H182.811C183.614 80.9447 184.383 81.262 184.951 81.8268C185.519 82.3917 185.837 83.1578 185.837 83.9566C185.837 84.7554 185.519 85.5215 184.951 86.0863C184.383 86.6511 183.614 86.9685 182.811 86.9685Z" fill="#3D3C40" fill-opacity="0.16"/>
<path d="M187.351 99.769H127.198C126.396 99.769 125.626 99.4517 125.058 98.8869C124.491 98.322 124.172 97.5559 124.172 96.7571C124.172 95.9583 124.491 95.1922 125.058 94.6274C125.626 94.0626 126.396 93.7452 127.198 93.7452H187.351C188.154 93.7452 188.923 94.0626 189.491 94.6274C190.059 95.1922 190.377 95.9583 190.377 96.7571C190.377 97.5559 190.059 98.322 189.491 98.8869C188.923 99.4517 188.154 99.769 187.351 99.769Z" fill="#3D3C40" fill-opacity="0.16"/>
<path d="M187.351 112.57H127.198C126.396 112.57 125.626 112.252 125.058 111.687C124.491 111.123 124.172 110.356 124.172 109.558C124.172 108.759 124.491 107.993 125.058 107.428C125.626 106.863 126.396 106.546 127.198 106.546H187.351C188.154 106.546 188.923 106.863 189.491 107.428C190.059 107.993 190.377 108.759 190.377 109.558C190.377 110.356 190.059 111.123 189.491 111.687C188.923 112.252 188.154 112.57 187.351 112.57Z" fill="#3D3C40" fill-opacity="0.16"/>
<path d="M151.032 48.5668H122.658C121.856 48.5668 121.086 48.2495 120.518 47.6846C119.951 47.1198 119.632 46.3537 119.632 45.5549C119.632 44.7561 119.951 43.99 120.518 43.4252C121.086 42.8603 121.856 42.543 122.658 42.543H151.032C151.835 42.543 152.605 42.8603 153.172 43.4252C153.74 43.99 154.059 44.7561 154.059 45.5549C154.059 46.3537 153.74 47.1198 153.172 47.6846C152.605 48.2495 151.835 48.5668 151.032 48.5668Z" fill="#166DE0"/>
<path d="M147.369 133.209C147.979 130.636 150.848 129.792 153.194 129.887C154.676 129.986 156.146 130.218 157.587 130.578C159.094 130.914 160.587 131.311 162.072 131.733C164.795 132.506 167.49 133.44 170.258 134.045C172.563 134.548 175.067 134.843 177.365 134.148C179.575 133.481 181.449 131.842 182.05 129.576C182.616 127.441 181.839 125.106 179.759 124.13C177.863 123.24 175.468 123.693 174.529 125.705C173.469 127.974 174.528 130.449 176.205 132.091C177.159 132.982 178.204 133.771 179.322 134.446C180.457 135.216 181.721 135.779 183.054 136.11C185.242 136.575 187.849 135.889 188.978 133.809C189.229 133.338 189.38 132.82 189.421 132.289C189.488 131.565 188.353 131.57 188.286 132.289C188.095 134.361 185.657 135.331 183.833 135.104C182.603 134.901 181.427 134.447 180.381 133.77C179.371 133.185 178.415 132.513 177.522 131.763C175.975 130.431 174.525 128.239 175.564 126.161C176.41 124.468 178.615 124.485 179.956 125.577C181.579 126.898 181.29 129.297 180.219 130.867C179.033 132.605 176.883 133.334 174.857 133.412C172.654 133.497 170.471 132.995 168.366 132.4C165.751 131.661 163.162 130.834 160.534 130.138C159.042 129.743 157.539 129.386 156.02 129.109C154.584 128.794 153.109 128.692 151.643 128.808C149.275 129.08 146.857 130.452 146.274 132.909C146.107 133.616 147.201 133.917 147.369 133.209L147.369 133.209Z" fill="#3D3C40"/>
<path d="M189.07 133.477C188.927 133.358 188.822 133.199 188.769 133.021C188.715 132.843 188.717 132.653 188.772 132.476C188.827 132.298 188.933 132.141 189.078 132.024C189.223 131.906 189.399 131.834 189.585 131.817C191.649 131.618 193.731 131.831 195.711 132.442L215.882 138.641C216.143 138.721 216.385 138.852 216.596 139.025C216.806 139.199 216.98 139.412 217.107 139.652C217.235 139.893 217.314 140.156 217.339 140.426C217.365 140.697 217.336 140.97 217.256 141.23C217.175 141.49 217.044 141.731 216.869 141.941C216.695 142.15 216.481 142.323 216.239 142.45C215.998 142.577 215.733 142.656 215.461 142.681C215.189 142.706 214.915 142.678 214.654 142.598L194.483 136.398C192.502 135.792 190.662 134.799 189.07 133.477Z" fill="#3D3C40"/>
<path d="M271.75 159.228C271.202 159 270.711 158.654 270.312 158.216C269.913 157.778 269.615 157.259 269.439 156.694C269.264 156.129 269.215 155.533 269.296 154.947C269.377 154.361 269.586 153.8 269.908 153.304L266.451 135.311L275.263 134.627L275.795 152.227C276.597 152.821 277.153 153.688 277.356 154.662C277.559 155.637 277.396 156.652 276.897 157.515C276.399 158.378 275.6 159.029 274.651 159.345C273.702 159.661 272.67 159.619 271.75 159.228Z" fill="#3D3C40" fill-opacity="0.32"/>
<path d="M265.907 149.942L256.933 108.347C256.564 106.639 256.893 104.854 257.846 103.387C258.799 101.92 260.299 100.889 262.016 100.522C263.733 100.156 265.526 100.483 267 101.431C268.475 102.38 269.51 103.873 269.879 105.581L278.853 147.176C278.948 147.615 278.863 148.074 278.618 148.451C278.373 148.828 277.988 149.093 277.546 149.188L267.929 151.243C267.711 151.29 267.485 151.293 267.265 151.253C267.045 151.213 266.835 151.13 266.648 151.01C266.46 150.889 266.298 150.732 266.171 150.549C266.044 150.366 265.954 150.16 265.907 149.942Z" fill="#166DE0"/>
<path d="M251.177 215.375H246.539L244.332 197.571L251.178 197.572L251.177 215.375Z" fill="#3D3C40" fill-opacity="0.32"/>
<path d="M243.226 214.056H252.171V219.66H237.594C237.594 218.924 237.739 218.196 238.022 217.516C238.305 216.836 238.72 216.218 239.243 215.697C239.766 215.177 240.387 214.764 241.07 214.482C241.754 214.201 242.486 214.056 243.226 214.056Z" fill="#3D3C40"/>
<path d="M266.688 214.998H262.05L259.844 197.195L266.689 197.195L266.688 214.998Z" fill="#3D3C40" fill-opacity="0.32"/>
<path d="M258.737 213.679H267.682V219.284H253.105C253.105 218.548 253.251 217.819 253.534 217.139C253.817 216.459 254.232 215.841 254.755 215.321C255.278 214.8 255.899 214.387 256.582 214.106C257.265 213.824 257.998 213.679 258.737 213.679Z" fill="#3D3C40"/>
<path d="M245.62 212.054C245.446 211.912 245.302 211.737 245.197 211.539C245.092 211.341 245.028 211.124 245.008 210.901L239.616 151.875C239.595 151.646 239.622 151.415 239.693 151.197C239.765 150.978 239.881 150.776 240.033 150.603C240.186 150.43 240.373 150.29 240.581 150.192C240.79 150.093 241.017 150.038 241.248 150.029L268.29 149.02C268.524 149.011 268.757 149.051 268.975 149.136C269.193 149.221 269.391 149.35 269.557 149.514C269.723 149.679 269.852 149.876 269.938 150.093C270.024 150.31 270.064 150.542 270.055 150.775L267.894 209.573C267.878 209.985 267.712 210.377 267.427 210.676C267.143 210.975 266.758 211.161 266.346 211.199L260.894 211.692C260.668 211.712 260.44 211.688 260.223 211.619C260.007 211.551 259.807 211.44 259.634 211.293C259.461 211.146 259.32 210.967 259.218 210.765C259.116 210.563 259.056 210.343 259.041 210.117L256.539 172.763C256.537 172.692 256.521 172.621 256.491 172.555C256.462 172.49 256.419 172.431 256.367 172.382C256.314 172.333 256.252 172.295 256.184 172.27C256.117 172.245 256.045 172.234 255.973 172.237H255.97C255.898 172.234 255.826 172.245 255.758 172.271C255.69 172.296 255.628 172.335 255.576 172.384C255.523 172.433 255.481 172.493 255.452 172.559C255.423 172.625 255.407 172.696 255.406 172.768L253.166 210.373C253.144 210.776 252.977 211.157 252.697 211.448C252.416 211.739 252.04 211.92 251.636 211.959L246.873 212.433C246.649 212.456 246.423 212.434 246.208 212.369C245.993 212.304 245.793 212.197 245.62 212.054H245.62Z" fill="#3D3C40"/>
<path d="M256.021 91.6834C261.153 91.6834 265.313 87.5434 265.313 82.4365C265.313 77.3296 261.153 73.1896 256.021 73.1896C250.89 73.1896 246.729 77.3296 246.729 82.4365C246.729 87.5434 250.89 91.6834 256.021 91.6834Z" fill="#3D3C40" fill-opacity="0.32"/>
<path d="M238.128 152.275C237.963 152.088 237.841 151.867 237.772 151.627C237.703 151.388 237.689 151.136 237.73 150.89C239.445 140.514 238.478 125.261 237.365 114.293C237.075 111.383 237.56 108.449 238.771 105.785C239.982 103.122 241.878 100.823 244.266 99.1198L249.119 94.9806C249.441 94.7087 249.853 94.5638 250.275 94.5733L262.331 94.916C262.766 94.9278 263.179 95.1053 263.486 95.4119L265.349 99.5173L265.368 99.5312C267.588 101.155 269.369 103.301 270.552 105.777C271.734 108.253 272.282 110.983 272.146 113.721L270.371 150.217C270.349 150.641 270.167 151.041 269.863 151.34C269.559 151.638 269.154 151.812 268.727 151.828L239.465 152.851C239.446 152.852 239.427 152.852 239.408 152.852C239.166 152.852 238.926 152.801 238.705 152.701C238.485 152.602 238.288 152.457 238.128 152.275Z" fill="#166DE0"/>
<path d="M203.03 137.046C203.015 136.455 203.131 135.868 203.369 135.326C203.607 134.784 203.961 134.301 204.408 133.91C204.854 133.52 205.38 133.231 205.95 133.065C206.521 132.899 207.121 132.859 207.708 132.949L222.79 122.445L227.023 130.166L211.104 137.852C210.888 138.824 210.321 139.683 209.51 140.267C208.7 140.85 207.702 141.118 206.707 141.018C205.712 140.919 204.787 140.46 204.11 139.727C203.432 138.995 203.048 138.041 203.03 137.046L203.03 137.046Z" fill="#3D3C40" fill-opacity="0.32"/>
<path d="M215.721 138.871C215.5 138.838 215.287 138.762 215.096 138.646C214.905 138.531 214.738 138.379 214.606 138.199L208.786 130.308C208.52 129.946 208.408 129.493 208.477 129.049C208.545 128.605 208.788 128.206 209.151 127.94L243.614 102.767C245.03 101.733 246.8 101.301 248.535 101.566C249.395 101.697 250.22 101.995 250.963 102.444C251.707 102.892 252.354 103.482 252.869 104.18C253.383 104.877 253.755 105.669 253.962 106.509C254.169 107.349 254.207 108.222 254.076 109.077C253.944 109.932 253.644 110.753 253.193 111.493C252.743 112.233 252.15 112.878 251.449 113.389L216.986 138.563C216.696 138.776 216.344 138.891 215.983 138.891C215.895 138.891 215.807 138.885 215.721 138.871Z" fill="#166DE0"/>
<path d="M256.497 90.6682C257.73 89.1646 257.595 86.8744 256.606 85.2023C255.617 83.5303 253.938 82.3787 252.21 81.4792C250.483 80.5798 248.648 79.8725 247.022 78.8015C245.396 77.7305 245.467 73.1965 245.034 71.3047L246.067 71.647C245.67 71.1418 245.543 69.6491 245.146 69.1439C246.312 69.2586 247.209 70.3609 248.376 70.4756L247.703 68.6773C251.703 68.4319 254.191 71.1983 258.191 70.9529C260.173 70.8313 262.326 70.7543 263.955 71.884C265.371 72.8656 266.088 74.5647 266.558 76.217C267.568 79.7647 267.725 83.7387 265.981 86.992C264.237 90.2452 260.216 92.4374 256.704 91.2626L256.497 90.6682Z" fill="#3D3C40"/>
<path d="M205.264 220H305.736C305.806 220 305.873 219.947 305.923 219.854C305.972 219.76 306 219.633 306 219.5C306 219.367 305.972 219.24 305.923 219.146C305.873 219.053 305.806 219 305.736 219H205.264C205.194 219 205.127 219.053 205.077 219.146C205.028 219.24 205 219.367 205 219.5C205 219.633 205.028 219.76 205.077 219.854C205.127 219.947 205.194 220 205.264 220Z" fill="#3D3C40"/>
</svg>
