<svg width="416" height="220" viewBox="0 0 416 220" fill="none" xmlns="http://www.w3.org/2000/svg">
<g opacity="0.7">
<path opacity="0.7" d="M231.489 113.755H201.789V115.027H231.489V113.755Z" fill="#3D3C40" fill-opacity="0.08"/>
<path opacity="0.7" d="M231.489 124.348H201.789V125.62H231.489V124.348Z" fill="#3D3C40" fill-opacity="0.08"/>
<path opacity="0.7" d="M218.518 37.4475H192.714V58.541H218.518V37.4475Z" fill="#3D3C40" fill-opacity="0.08"/>
</g>
<path d="M277.22 104.564L208.538 87.9252V218.132L277.22 200.049V104.564Z" fill="#3D3C40"/>
<path opacity="0.1" d="M277.22 104.564L208.538 87.9252V218.132L277.22 200.049V104.564Z" fill="#3D3C40"/>
<path d="M139.859 104.564L208.538 87.9252V218.132L139.859 200.409V104.564Z" fill="#3D3C40"/>
<path opacity="0.17" d="M139.859 103.988L208.538 87.3496V218.132L139.859 200.409V103.988Z" fill="#3D3C40"/>
<path opacity="0.3" fill-rule="evenodd" clip-rule="evenodd" d="M208.538 87.3496L139.859 103.988V200.409L208.538 218.132V87.3496ZM208.538 87.9252L277.22 104.564V200.049L208.538 218.132V87.9252Z" fill="white"/>
<path d="M207.966 88.5007L244.138 58.2676L312.82 75.9914L276.648 105.14L207.966 88.5007Z" fill="#3D3C40" fill-opacity="0.16"/>
<path d="M105.191 76.9266L140.431 105.14L209.11 88.5007L174.231 58.8432L105.191 76.9266Z" fill="#3D3C40" fill-opacity="0.16"/>
<g opacity="0.5">
<path opacity="0.5" d="M207.288 72.8748H158.885C158.174 72.8748 157.597 73.4546 157.597 74.1698V118.889C157.597 119.604 158.174 120.184 158.885 120.184H207.288C207.999 120.184 208.575 119.604 208.575 118.889V74.1698C208.575 73.4546 207.999 72.8748 207.288 72.8748Z" fill="#3D3C40" fill-opacity="0.08"/>
</g>
<path d="M206.736 73.2432H159.509C158.798 73.2432 158.221 73.8229 158.221 74.5381V118.109C158.221 118.825 158.798 119.404 159.509 119.404H206.736C207.447 119.404 208.023 118.825 208.023 118.109V74.5381C208.023 73.8229 207.447 73.2432 206.736 73.2432Z" fill="white"/>
<path d="M169.17 80.846H163.345C162.634 80.846 162.058 81.4258 162.058 82.141V87.154C162.058 87.8691 162.634 88.4489 163.345 88.4489H169.17C169.881 88.4489 170.458 87.8691 170.458 87.154V82.141C170.458 81.4258 169.881 80.846 169.17 80.846Z" fill="#166DE0"/>
<path d="M206.137 80.846H173.207C173.081 80.846 172.978 80.9491 172.978 81.0763V81.4619C172.978 81.589 173.081 81.6921 173.207 81.6921H206.137C206.264 81.6921 206.366 81.589 206.366 81.4619V81.0763C206.366 80.9491 206.264 80.846 206.137 80.846Z" fill="#3D3C40" fill-opacity="0.24"/>
<path d="M206.137 83.3784H173.207C173.081 83.3784 172.978 83.4815 172.978 83.6086V83.9943C172.978 84.1214 173.081 84.2245 173.207 84.2245H206.137C206.264 84.2245 206.366 84.1214 206.366 83.9943V83.6086C206.366 83.4815 206.264 83.3784 206.137 83.3784Z" fill="#3D3C40" fill-opacity="0.24"/>
<path d="M206.138 92.5784H161.448C161.322 92.5784 161.219 92.6815 161.219 92.8087V93.1943C161.219 93.3214 161.322 93.4245 161.448 93.4245H206.138C206.264 93.4245 206.366 93.3214 206.366 93.1943V92.8087C206.366 92.6815 206.264 92.5784 206.138 92.5784Z" fill="#3D3C40" fill-opacity="0.24"/>
<path d="M206.138 95.1136H161.448C161.322 95.1136 161.219 95.2167 161.219 95.3439V95.7295C161.219 95.8566 161.322 95.9597 161.448 95.9597H206.138C206.264 95.9597 206.366 95.8566 206.366 95.7295V95.3439C206.366 95.2167 206.264 95.1136 206.138 95.1136Z" fill="#3D3C40" fill-opacity="0.24"/>
<path d="M206.138 98.4921H161.448C161.322 98.4921 161.219 98.5952 161.219 98.7223V99.1079C161.219 99.2351 161.322 99.3381 161.448 99.3381H206.138C206.264 99.3381 206.366 99.2351 206.366 99.1079V98.7223C206.366 98.5952 206.264 98.4921 206.138 98.4921Z" fill="#3D3C40" fill-opacity="0.24"/>
<path d="M187.029 101.027H161.448C161.322 101.027 161.219 101.13 161.219 101.258V101.643C161.219 101.77 161.322 101.873 161.448 101.873H187.029C187.155 101.873 187.258 101.77 187.258 101.643V101.258C187.258 101.13 187.155 101.027 187.029 101.027Z" fill="#3D3C40" fill-opacity="0.24"/>
<path d="M206.138 104.397H161.448C161.322 104.397 161.219 104.5 161.219 104.627V105.013C161.219 105.14 161.322 105.243 161.448 105.243H206.138C206.264 105.243 206.366 105.14 206.366 105.013V104.627C206.366 104.5 206.264 104.397 206.138 104.397Z" fill="#3D3C40" fill-opacity="0.24"/>
<path d="M206.138 106.932H161.448C161.322 106.932 161.219 107.035 161.219 107.163V107.548C161.219 107.675 161.322 107.778 161.448 107.778H206.138C206.264 107.778 206.366 107.675 206.366 107.548V107.163C206.366 107.035 206.264 106.932 206.138 106.932Z" fill="#3D3C40" fill-opacity="0.24"/>
<path d="M206.138 110.311H161.448C161.322 110.311 161.219 110.414 161.219 110.541V110.927C161.219 111.054 161.322 111.157 161.448 111.157H206.138C206.264 111.157 206.366 111.054 206.366 110.927V110.541C206.366 110.414 206.264 110.311 206.138 110.311Z" fill="#3D3C40" fill-opacity="0.24"/>
<path d="M187.029 112.846H161.448C161.322 112.846 161.219 112.949 161.219 113.076V113.462C161.219 113.589 161.322 113.692 161.448 113.692H187.029C187.155 113.692 187.258 113.589 187.258 113.462V113.076C187.258 112.949 187.155 112.846 187.029 112.846Z" fill="#3D3C40" fill-opacity="0.24"/>
<g opacity="0.5">
<path opacity="0.5" d="M214.981 83.8072H166.578C165.867 83.8072 165.291 84.387 165.291 85.1022V129.822C165.291 130.537 165.867 131.117 166.578 131.117H214.981C215.692 131.117 216.268 130.537 216.268 129.822V85.1022C216.268 84.387 215.692 83.8072 214.981 83.8072Z" fill="#3D3C40" fill-opacity="0.08"/>
</g>
<path d="M214.429 84.1755H167.202C166.49 84.1755 165.914 84.7553 165.914 85.4705V129.042C165.914 129.757 166.49 130.337 167.202 130.337H214.429C215.14 130.337 215.716 129.757 215.716 129.042V85.4705C215.716 84.7553 215.14 84.1755 214.429 84.1755Z" fill="white"/>
<path d="M176.864 91.7784H171.038C170.327 91.7784 169.751 92.3582 169.751 93.0734V98.0863C169.751 98.8015 170.327 99.3813 171.038 99.3813H176.864C177.575 99.3813 178.151 98.8015 178.151 98.0863V93.0734C178.151 92.3582 177.575 91.7784 176.864 91.7784Z" fill="#166DE0"/>
<path d="M213.831 91.7784H180.9C180.774 91.7784 180.671 91.8815 180.671 92.0086V92.3942C180.671 92.5214 180.774 92.6245 180.9 92.6245H213.831C213.957 92.6245 214.06 92.5214 214.06 92.3942V92.0086C214.06 91.8815 213.957 91.7784 213.831 91.7784Z" fill="#3D3C40" fill-opacity="0.24"/>
<path d="M213.831 94.3108H180.9C180.774 94.3108 180.671 94.4139 180.671 94.541V94.9266C180.671 95.0538 180.774 95.1568 180.9 95.1568H213.831C213.957 95.1568 214.06 95.0538 214.06 94.9266V94.541C214.06 94.4139 213.957 94.3108 213.831 94.3108Z" fill="#3D3C40" fill-opacity="0.24"/>
<path d="M213.831 103.511H169.141C169.015 103.511 168.913 103.614 168.913 103.741V104.127C168.913 104.254 169.015 104.357 169.141 104.357H213.831C213.957 104.357 214.06 104.254 214.06 104.127V103.741C214.06 103.614 213.957 103.511 213.831 103.511Z" fill="#3D3C40" fill-opacity="0.24"/>
<path d="M213.831 106.046H169.141C169.015 106.046 168.913 106.149 168.913 106.276V106.662C168.913 106.789 169.015 106.892 169.141 106.892H213.831C213.957 106.892 214.06 106.789 214.06 106.662V106.276C214.06 106.149 213.957 106.046 213.831 106.046Z" fill="#3D3C40" fill-opacity="0.24"/>
<path d="M213.831 109.424H169.141C169.015 109.424 168.913 109.528 168.913 109.655V110.04C168.913 110.167 169.015 110.271 169.141 110.271H213.831C213.957 110.271 214.06 110.167 214.06 110.04V109.655C214.06 109.528 213.957 109.424 213.831 109.424Z" fill="#3D3C40" fill-opacity="0.24"/>
<path d="M194.722 111.96H169.141C169.015 111.96 168.913 112.063 168.913 112.19V112.576C168.913 112.703 169.015 112.806 169.141 112.806H194.722C194.848 112.806 194.951 112.703 194.951 112.576V112.19C194.951 112.063 194.848 111.96 194.722 111.96Z" fill="#3D3C40" fill-opacity="0.24"/>
<path d="M213.831 115.329H169.141C169.015 115.329 168.913 115.433 168.913 115.56V115.945C168.913 116.072 169.015 116.176 169.141 116.176H213.831C213.957 116.176 214.06 116.072 214.06 115.945V115.56C214.06 115.433 213.957 115.329 213.831 115.329Z" fill="#3D3C40" fill-opacity="0.24"/>
<path d="M213.831 117.865H169.141C169.015 117.865 168.913 117.968 168.913 118.095V118.481C168.913 118.608 169.015 118.711 169.141 118.711H213.831C213.957 118.711 214.06 118.608 214.06 118.481V118.095C214.06 117.968 213.957 117.865 213.831 117.865Z" fill="#3D3C40" fill-opacity="0.24"/>
<path d="M213.831 121.243H169.141C169.015 121.243 168.913 121.346 168.913 121.473V121.859C168.913 121.986 169.015 122.089 169.141 122.089H213.831C213.957 122.089 214.06 121.986 214.06 121.859V121.473C214.06 121.346 213.957 121.243 213.831 121.243Z" fill="#3D3C40" fill-opacity="0.24"/>
<path d="M194.722 123.778H169.141C169.015 123.778 168.913 123.881 168.913 124.009V124.394C168.913 124.521 169.015 124.624 169.141 124.624H194.722C194.848 124.624 194.951 124.521 194.951 124.394V124.009C194.951 123.881 194.848 123.778 194.722 123.778Z" fill="#3D3C40" fill-opacity="0.24"/>
<g opacity="0.5">
<path opacity="0.5" d="M239.108 89.9309H194.937V142.129H239.108V89.9309Z" fill="#3D3C40" fill-opacity="0.08"/>
</g>
<path d="M238.17 90.7712H196.295V140.976H238.17V90.7712Z" fill="white"/>
<path d="M222.245 98.964H212.22V104.636H222.245V98.964Z" fill="#166DE0"/>
<path d="M232.007 112.797H202.561V114.058H232.007V112.797Z" fill="#3D3C40" fill-opacity="0.24"/>
<path d="M232.007 121.094H202.561V122.354H232.007V121.094Z" fill="#3D3C40" fill-opacity="0.24"/>
<path d="M232.007 123.301H202.561V124.561H232.007V123.301Z" fill="#3D3C40" fill-opacity="0.24"/>
<path d="M214.987 118.889H202.561V120.15H214.987V118.889Z" fill="#3D3C40" fill-opacity="0.24"/>
<path opacity="0.6" d="M232.007 118.889H222.714V120.15H232.007V118.889Z" fill="#06D6A0"/>
<path d="M222.191 128.446H212.898V129.706H222.191V128.446Z" fill="#166DE0"/>
<path d="M139.859 104.564V200.409L208.538 218.132L209.465 123.01L139.859 104.564Z" fill="#3D3C40"/>
<path d="M277.22 200.049L208.538 218.132V123.01L277.22 104.564V200.049Z" fill="#3D3C40"/>
<path d="M261.215 97.0475H241.594V115.744H261.215V97.0475Z" fill="white"/>
<path d="M277.22 200.049L208.538 218.132V123.01L277.22 104.564V200.049Z" fill="#3D3C40"/>
<path opacity="0.6" fill-rule="evenodd" clip-rule="evenodd" d="M139.859 200.409V104.564L208.998 122.886L277.22 104.564V200.049L208.538 218.132L139.859 200.409Z" fill="white"/>
<path d="M261.533 96.5698H241.277V116.144H261.533V96.5698Z" fill="#3D3C40" fill-opacity="0.08"/>
<path opacity="0.6" d="M255.216 100.483H247.591V104.797H255.216V100.483Z" fill="#166DE0"/>
<g opacity="0.6">
<path opacity="0.6" d="M255.098 108.155H248.029V109.114H255.098V108.155Z" fill="#166DE0"/>
</g>
<path d="M241.798 0.480576H222.177V19.177H241.798V0.480576Z" fill="#3D3C40" fill-opacity="0.08"/>
<path opacity="0.6" d="M235.798 3.91367H228.173V8.22733H235.798V3.91367Z" fill="#166DE0"/>
<g opacity="0.6">
<path opacity="0.6" d="M235.68 11.5856H228.611V12.5439H235.68V11.5856Z" fill="#166DE0"/>
</g>
<path d="M219.146 37.1425H193.563V41.8072H219.146V37.1425Z" fill="#166DE0"/>
<path opacity="0.1" d="M219.146 37.1425H193.563V41.8072H219.146V37.1425Z" fill="#3D3C40"/>
<path d="M217.109 43.4993H195.603V46.2158H217.109V43.4993Z" fill="#3D3C40" fill-opacity="0.24"/>
<path d="M211.299 48.2647H195.603V49.1885H211.299V48.2647Z" fill="#3D3C40" fill-opacity="0.24"/>
<path d="M205.794 49.8532H195.603V50.777H205.794V49.8532Z" fill="#3D3C40" fill-opacity="0.24"/>
<path d="M209.056 51.4417H195.603V52.3655H209.056V51.4417Z" fill="#3D3C40" fill-opacity="0.24"/>
<path d="M211.299 53.0331H195.603V53.9568H211.299V53.0331Z" fill="#3D3C40" fill-opacity="0.24"/>
<path d="M200.853 54.6216H195.603V55.5453H200.853V54.6216Z" fill="#3D3C40" fill-opacity="0.24"/>
<path d="M263.93 53.5194H232.221V79.4417H263.93V53.5194Z" fill="white"/>
<path d="M263.93 53.5194H232.221V59.3007H263.93V53.5194Z" fill="#166DE0"/>
<path d="M261.404 61.3985H234.748V64.7655H261.404V61.3985Z" fill="white"/>
<path d="M254.203 67.3065H234.748V68.4489H254.203V67.3065Z" fill="#3D3C40" fill-opacity="0.24"/>
<path d="M247.382 69.2777H234.748V70.4202H247.382V69.2777Z" fill="#3D3C40" fill-opacity="0.24"/>
<path d="M251.422 71.246H234.748V72.3885H251.422V71.246Z" fill="#3D3C40" fill-opacity="0.24"/>
<path d="M254.203 73.2173H234.748V74.3597H254.203V73.2173Z" fill="#3D3C40" fill-opacity="0.24"/>
<path d="M241.254 75.1856H234.748V76.3281H241.254V75.1856Z" fill="#3D3C40" fill-opacity="0.24"/>
<path d="M243.717 62.541H236.138V63.5568H243.717V62.541Z" fill="#06D6A0"/>
<path opacity="0.3" d="M139.679 149L174.436 158.06L208.361 131.742V123.191L139.679 105.83L139.679 149Z" fill="#3D3C40"/>
<path opacity="0.3" d="M277.043 150L242.286 159.06L208.361 131.742V123.191L277.043 105.83V150Z" fill="#3D3C40"/>
<path d="M139.859 104.564L104.619 133.859L173.298 151.22L208.538 123.01L139.859 104.564Z" fill="#3D3C40"/>
<path d="M277.22 104.564L312.82 133.859L244.498 151.22L208.538 123.01L277.22 104.564Z" fill="#3D3C40"/>
<path opacity="0.6" d="M139.859 104.564L104.62 133.859L173.299 151.22L208.538 123.01L139.859 104.564Z" fill="white"/>
<path opacity="0.6" d="M277.22 104.564L312.82 133.859L244.498 151.22L208.538 123.01L277.22 104.564Z" fill="white"/>
</svg>
