<svg width="416" height="220" viewBox="0 0 416 220" fill="none" xmlns="http://www.w3.org/2000/svg">
<g clip-path="url(#clip0)">
<path d="M87.9816 84.9542C85.6494 81.4837 84.6469 75.3199 88.9841 72.2823C91.1352 70.7758 93.7464 70.9596 96.0071 71.6225C99.1341 72.5395 101.915 74.4088 104.32 76.5002C107.094 78.9125 109.47 81.7406 111.812 84.5699C114.124 87.363 116.467 90.1235 118.926 92.7859C123.77 98.0303 128.942 102.961 134.411 107.547C139.771 112.046 145.407 116.204 151.287 119.995C154.206 121.875 157.188 123.66 160.232 125.348C163.058 126.976 165.981 128.429 168.985 129.699C172.98 131.309 179.825 133.56 183.368 129.042C185.246 126.647 185.34 123.396 184.916 120.666C184.403 117.365 183.11 114.284 181.836 111.275C175.91 97.278 169.914 83.3147 163.953 69.335C162.562 66.0723 161.129 62.8221 159.973 59.45C158.891 56.2929 157.99 52.9643 157.969 49.5259C157.95 46.5226 158.601 43.1335 160.88 40.8202C162.77 38.9017 165.418 38.2667 167.912 38.2813C174.085 38.3173 179.886 41.4676 184.68 44.7879C190.637 48.913 195.899 53.9242 201.833 58.0804C206.624 61.4363 212.259 64.4774 218.374 64.8624C220.719 65.01 223.207 64.6965 225.343 63.4124C227.385 62.1275 228.872 60.1218 229.51 57.7915C230.311 55.0903 230.211 52.237 229.786 49.5745C229.255 46.4568 228.292 43.4287 226.925 40.5783C224.034 34.3851 220.084 28.8352 216.682 22.9572C215.013 20.0745 213.384 17.1036 212.344 13.8884C211.463 11.1645 210.746 7.94044 211.617 4.98707C213.413 -1.10642 220.713 1.18649 224.415 2.94546C226.923 4.18065 229.341 5.5921 231.65 7.16923C232.147 7.49872 232.631 6.62464 232.136 6.29668C229.711 4.63287 227.162 3.15975 224.511 1.89056C222.254 0.855348 219.77 -0.0476795 217.181 0.00195419C215.007 0.0436409 212.816 0.956668 211.539 2.9068C210.03 5.21413 210.134 8.19722 210.54 10.6727C211.077 13.9462 212.36 16.9702 213.84 19.8475C215.398 22.8779 217.175 25.7753 218.964 28.6598C222.537 34.4238 226.452 40.2549 228.234 46.984C229.481 51.6913 230.269 59.0435 225.194 62.4027C222.941 63.8939 220.181 64.1098 217.688 63.8288C214.676 63.4894 211.807 62.4857 209.127 61.2248C196.632 55.3455 188.308 43.1378 174.986 38.6232C170.457 37.0882 164.119 36.1081 160.133 40.259C158.062 42.4152 157.232 45.4089 157.045 48.2219C156.822 51.5912 157.524 54.9069 158.477 58.0271C159.535 61.297 160.765 64.5082 162.163 67.6472C163.656 71.1551 165.152 74.6621 166.649 78.168L175.726 99.4545L180.236 110.031C181.612 113.259 183.088 116.502 183.805 120.002C184.393 122.867 184.559 126.81 182.042 129.115C180.043 130.945 177.121 130.86 174.781 130.435C171.75 129.885 168.899 128.682 166.186 127.354C163.056 125.824 160.009 124.125 157.018 122.359C150.861 118.717 144.95 114.671 139.326 110.248C133.679 105.814 128.32 101.023 123.283 95.9045C120.736 93.3172 118.275 90.6473 115.9 87.895C113.453 85.0572 111.155 82.0852 108.62 79.3258C106.327 76.83 103.817 74.5163 100.899 72.7561C98.4625 71.2863 95.5821 70.0573 92.5855 70.154C91.5284 70.1837 90.4895 70.436 89.5361 70.8946C88.5827 71.3532 87.7363 72.0079 87.0519 72.8159C85.7107 74.4875 84.9861 76.5718 85.0002 78.717C85.0156 81.1381 85.7609 83.4979 87.1381 85.4868C87.4712 85.9826 88.3162 85.4521 87.9816 84.9542V84.9542Z" fill="#145DBF"/>
<path d="M118.249 4.1534H94.2393C89.821 4.1534 86.2393 7.73512 86.2393 12.1534V31.7666C86.2393 36.1849 89.821 39.7666 94.2393 39.7666H118.249C122.667 39.7666 126.249 36.1849 126.249 31.7666V12.1534C126.249 7.73512 122.667 4.1534 118.249 4.1534Z" fill="#3D3C40" fill-opacity="0.24"/>
<path d="M118.249 68.4258H94.2393C89.821 68.4258 86.2393 72.0075 86.2393 76.4258V96.039C86.2393 100.457 89.821 104.039 94.2393 104.039H118.249C122.667 104.039 126.249 100.457 126.249 96.039V76.4258C126.249 72.0075 122.667 68.4258 118.249 68.4258Z" fill="#166DE0"/>
<path d="M106.17 73.7818C103.747 73.7818 101.378 74.5021 99.3637 75.8515C97.3492 77.2009 95.7791 79.1189 94.8519 81.363C93.9247 83.607 93.6821 86.0762 94.1548 88.4585C94.6275 90.8407 95.7942 93.0289 97.5074 94.7464C99.2206 96.4639 101.403 97.6335 103.78 98.1074C106.156 98.5813 108.619 98.3381 110.857 97.4086C113.096 96.4791 115.009 94.905 116.355 92.8854C117.701 90.8659 118.42 88.4915 118.42 86.0626C118.41 82.8085 117.116 79.6903 114.821 77.3893C112.526 75.0883 109.416 73.7914 106.17 73.7818ZM106.17 77.4661C106.896 77.4661 107.607 77.6821 108.211 78.087C108.816 78.4918 109.287 79.0672 109.565 79.7404C109.843 80.4136 109.916 81.1544 109.774 81.8691C109.632 82.5837 109.282 83.2402 108.768 83.7554C108.254 84.2707 107.599 84.6216 106.887 84.7637C106.174 84.9059 105.435 84.8329 104.763 84.5541C104.092 84.2752 103.518 83.803 103.114 83.1971C102.71 82.5913 102.495 81.879 102.495 81.1503C102.498 80.1742 102.886 79.239 103.575 78.5488C104.263 77.8585 105.196 77.4693 106.17 77.4661V77.4661ZM106.17 95.2023C104.718 95.1957 103.29 94.8341 102.009 94.1488C100.728 93.4636 99.6332 92.4755 98.8195 91.2701C98.8784 88.814 103.72 87.4619 106.17 87.4619C108.62 87.4619 113.461 88.814 113.52 91.2701C112.705 92.4746 111.61 93.462 110.329 94.1471C109.049 94.8322 107.621 95.1944 106.17 95.2023Z" fill="white"/>
<path d="M106.17 9.84419C103.747 9.84419 101.378 10.5644 99.3637 11.9139C97.3492 13.2633 95.7791 15.1813 94.8519 17.4253C93.9247 19.6693 93.6821 22.1386 94.1548 24.5208C94.6275 26.903 95.7942 29.0913 97.5074 30.8087C99.2206 32.5262 101.403 33.6959 103.78 34.1697C106.156 34.6436 108.619 34.4004 110.857 33.4709C113.096 32.5414 115.009 30.9673 116.355 28.9478C117.701 26.9282 118.42 24.5538 118.42 22.1249C118.41 18.8708 117.116 15.7527 114.821 13.4517C112.526 11.1506 109.416 9.85372 106.17 9.84419ZM106.17 13.5284C106.896 13.5284 107.607 13.7445 108.211 14.1493C108.816 14.5542 109.287 15.1295 109.565 15.8028C109.843 16.476 109.916 17.2167 109.774 17.9314C109.632 18.6461 109.282 19.3025 108.768 19.8178C108.254 20.333 107.599 20.6839 106.887 20.8261C106.174 20.9682 105.435 20.8953 104.763 20.6164C104.092 20.3376 103.518 19.8654 103.114 19.2595C102.71 18.6536 102.495 17.9413 102.495 17.2126C102.498 16.2365 102.886 15.3013 103.575 14.6111C104.263 13.9209 105.196 13.5317 106.17 13.5284V13.5284ZM106.17 31.2647C104.718 31.258 103.29 30.8964 102.009 30.2112C100.728 29.526 99.6332 28.5378 98.8195 27.3325C98.8784 24.8763 103.72 23.5242 106.17 23.5242C108.62 23.5242 113.461 24.8763 113.52 27.3325C112.705 28.5369 111.61 29.5244 110.329 30.2095C109.049 30.8946 107.621 31.2567 106.17 31.2647Z" fill="white"/>
<path d="M246.807 4.1534H222.797C218.379 4.1534 214.797 7.73512 214.797 12.1534V31.7666C214.797 36.1849 218.379 39.7666 222.797 39.7666H246.807C251.225 39.7666 254.807 36.1849 254.807 31.7666V12.1534C254.807 7.73512 251.225 4.1534 246.807 4.1534Z" fill="#166DE0"/>
<path d="M246.807 68.4258H222.797C218.379 68.4258 214.797 72.0075 214.797 76.4258V96.039C214.797 100.457 218.379 104.039 222.797 104.039H246.807C251.225 104.039 254.807 100.457 254.807 96.039V76.4258C254.807 72.0075 251.225 68.4258 246.807 68.4258Z" fill="#3D3C40" fill-opacity="0.24"/>
<path d="M234.727 73.7818C232.304 73.7818 229.936 74.5021 227.921 75.8515C225.907 77.2009 224.337 79.1189 223.41 81.363C222.482 83.607 222.24 86.0762 222.712 88.4585C223.185 90.8407 224.352 93.0289 226.065 94.7464C227.778 96.4639 229.961 97.6335 232.337 98.1074C234.714 98.5813 237.177 98.3381 239.415 97.4086C241.653 96.4791 243.567 94.905 244.913 92.8854C246.259 90.8659 246.977 88.4915 246.977 86.0626C246.968 82.8085 245.674 79.6903 243.379 77.3893C241.084 75.0883 237.973 73.7914 234.727 73.7818ZM234.727 77.4661C235.454 77.4661 236.165 77.6821 236.769 78.087C237.373 78.4918 237.844 79.0672 238.122 79.7404C238.401 80.4136 238.473 81.1544 238.332 81.8691C238.19 82.5837 237.84 83.2402 237.326 83.7554C236.812 84.2707 236.157 84.6216 235.444 84.7637C234.731 84.9059 233.992 84.8329 233.321 84.5541C232.649 84.2752 232.075 83.803 231.671 83.1971C231.268 82.5913 231.052 81.879 231.052 81.1503C231.055 80.1742 231.444 79.239 232.132 78.5488C232.821 77.8585 233.753 77.4693 234.727 77.4661V77.4661ZM234.727 95.2023C233.275 95.1957 231.847 94.8341 230.566 94.1488C229.286 93.4636 228.191 92.4755 227.377 91.2701C227.436 88.814 232.277 87.4619 234.727 87.4619C237.177 87.4619 242.018 88.814 242.077 91.2701C241.263 92.4746 240.168 93.462 238.887 94.1471C237.606 94.8322 236.179 95.1944 234.727 95.2023Z" fill="white"/>
<path d="M183.029 4.1534H159.019C154.601 4.1534 151.019 7.73512 151.019 12.1534V31.7666C151.019 36.1849 154.601 39.7666 159.019 39.7666H183.029C187.447 39.7666 191.029 36.1849 191.029 31.7666V12.1534C191.029 7.73512 187.447 4.1534 183.029 4.1534Z" fill="#166DE0"/>
<path d="M170.949 9.84419C168.526 9.84419 166.158 10.5644 164.144 11.9139C162.129 13.2633 160.559 15.1813 159.632 17.4253C158.705 19.6693 158.462 22.1386 158.935 24.5208C159.407 26.903 160.574 29.0913 162.287 30.8087C164 32.5262 166.183 33.6959 168.559 34.1697C170.936 34.6436 173.399 34.4004 175.637 33.4709C177.876 32.5414 179.789 30.9673 181.135 28.9478C182.481 26.9282 183.199 24.5538 183.199 22.1249C183.19 18.8708 181.896 15.7527 179.601 13.4517C177.306 11.1506 174.195 9.85372 170.949 9.84419ZM170.949 13.5284C171.676 13.5284 172.387 13.7445 172.991 14.1493C173.595 14.5542 174.066 15.1295 174.345 15.8028C174.623 16.476 174.696 17.2167 174.554 17.9314C174.412 18.6461 174.062 19.3025 173.548 19.8178C173.034 20.333 172.379 20.6839 171.666 20.8261C170.953 20.9682 170.214 20.8953 169.543 20.6164C168.871 20.3376 168.297 19.8654 167.894 19.2595C167.49 18.6536 167.274 17.9413 167.274 17.2126C167.278 16.2365 167.666 15.3013 168.354 14.6111C169.043 13.9209 169.976 13.5317 170.949 13.5284V13.5284ZM170.949 31.2647C169.498 31.258 168.069 30.8964 166.788 30.2112C165.508 29.526 164.413 28.5378 163.599 27.3325C163.658 24.8763 168.499 23.5242 170.949 23.5242C173.399 23.5242 178.24 24.8763 178.299 27.3325C177.485 28.5369 176.39 29.5244 175.109 30.2095C173.829 30.8946 172.401 31.2567 170.949 31.2647Z" fill="white"/>
<path d="M234.727 9.84419C232.304 9.84419 229.936 10.5644 227.921 11.9139C225.907 13.2633 224.337 15.1813 223.41 17.4253C222.482 19.6693 222.24 22.1386 222.712 24.5208C223.185 26.903 224.352 29.0913 226.065 30.8087C227.778 32.5262 229.961 33.6959 232.337 34.1697C234.714 34.6436 237.177 34.4004 239.415 33.4709C241.653 32.5414 243.567 30.9673 244.913 28.9478C246.259 26.9282 246.977 24.5538 246.977 22.1249C246.968 18.8708 245.674 15.7527 243.379 13.4517C241.084 11.1506 237.973 9.85372 234.727 9.84419ZM234.727 13.5284C235.454 13.5284 236.165 13.7445 236.769 14.1493C237.373 14.5542 237.844 15.1295 238.122 15.8028C238.401 16.476 238.473 17.2167 238.332 17.9314C238.19 18.6461 237.84 19.3025 237.326 19.8178C236.812 20.333 236.157 20.6839 235.444 20.8261C234.731 20.9682 233.992 20.8953 233.321 20.6164C232.649 20.3376 232.075 19.8654 231.671 19.2595C231.268 18.6536 231.052 17.9413 231.052 17.2126C231.055 16.2365 231.444 15.3013 232.132 14.6111C232.821 13.9209 233.753 13.5317 234.727 13.5284V13.5284ZM234.727 31.2647C233.275 31.258 231.847 30.8964 230.566 30.2112C229.286 29.526 228.191 28.5378 227.377 27.3325C227.436 24.8763 232.277 23.5242 234.727 23.5242C237.177 23.5242 242.018 24.8763 242.077 27.3325C241.263 28.5369 240.168 29.5244 238.887 30.2095C237.606 30.8946 236.179 31.2567 234.727 31.2647Z" fill="white"/>
<path d="M183.029 68.4258H159.019C154.601 68.4258 151.019 72.0075 151.019 76.4258V96.039C151.019 100.457 154.601 104.039 159.019 104.039H183.029C187.447 104.039 191.029 100.457 191.029 96.039V76.4258C191.029 72.0075 187.447 68.4258 183.029 68.4258Z" fill="#166DE0"/>
<path d="M170.949 73.7818C168.526 73.7818 166.158 74.5021 164.144 75.8515C162.129 77.2009 160.559 79.1189 159.632 81.363C158.705 83.607 158.462 86.0762 158.935 88.4585C159.407 90.8407 160.574 93.0289 162.287 94.7464C164 96.4639 166.183 97.6335 168.559 98.1074C170.936 98.5813 173.399 98.3381 175.637 97.4086C177.876 96.4791 179.789 94.905 181.135 92.8854C182.481 90.8659 183.199 88.4915 183.199 86.0626C183.19 82.8085 181.896 79.6903 179.601 77.3893C177.306 75.0883 174.195 73.7914 170.949 73.7818ZM170.949 77.4661C171.676 77.4661 172.387 77.6821 172.991 78.087C173.595 78.4918 174.066 79.0672 174.345 79.7404C174.623 80.4136 174.696 81.1544 174.554 81.8691C174.412 82.5837 174.062 83.2402 173.548 83.7554C173.034 84.2707 172.379 84.6216 171.666 84.7637C170.953 84.9059 170.214 84.8329 169.543 84.5541C168.871 84.2752 168.297 83.803 167.894 83.1971C167.49 82.5913 167.274 81.879 167.274 81.1503C167.278 80.1742 167.666 79.239 168.354 78.5488C169.043 77.8585 169.976 77.4693 170.949 77.4661V77.4661ZM170.949 95.2023C169.498 95.1957 168.069 94.8341 166.788 94.1488C165.508 93.4636 164.413 92.4755 163.599 91.2701C163.658 88.814 168.499 87.4619 170.949 87.4619C173.399 87.4619 178.24 88.814 178.299 91.2701C177.485 92.4746 176.39 93.462 175.109 94.1471C173.829 94.8322 172.401 95.1944 170.949 95.2023Z" fill="white"/>
<path d="M306.725 210.742C306.725 210.742 297.391 211.461 298.348 214.82C299.306 218.179 306.725 217.699 306.725 217.699C306.725 217.699 312.468 217.22 315.579 218.179C318.691 219.139 322.28 218.179 322.52 216.5C322.759 214.82 320.845 213.621 320.845 213.621L319.648 211.221L306.725 210.742Z" fill="#3D3C40"/>
<path d="M282.194 135.766L281.237 139.605C281.237 139.605 276.929 148.482 282.194 148.482C287.459 148.482 285.545 140.325 285.545 140.325L286.023 136.486L282.194 135.766Z" fill="#3D3C40" fill-opacity="0.32"/>
<path d="M328.383 132.647L329.34 136.486C329.34 136.486 333.648 145.363 328.383 145.363C323.118 145.363 325.032 137.206 325.032 137.206L324.554 133.367L328.383 132.647Z" fill="#3D3C40" fill-opacity="0.32"/>
<path d="M303.494 67.3883C309.177 67.3883 313.784 62.7694 313.784 57.0717C313.784 51.374 309.177 46.7551 303.494 46.7551C297.81 46.7551 293.203 51.374 293.203 57.0717C293.203 62.7694 297.81 67.3883 303.494 67.3883Z" fill="#3D3C40" fill-opacity="0.32"/>
<path d="M300.382 64.9891C300.382 64.9891 301.579 70.5073 300.861 73.1465C300.143 75.7856 315.699 72.6666 315.699 72.6666C315.699 72.6666 310.195 63.5496 310.434 63.3097L300.382 64.9891Z" fill="#3D3C40" fill-opacity="0.32"/>
<path d="M302.776 71.2271C302.776 71.2271 298.468 70.0275 297.032 71.467C295.596 72.9066 287.22 76.9852 287.22 76.9852L292.963 112.254L317.853 106.736L322.161 73.3864C322.161 73.3864 315.374 69.3968 314.22 70.192C313.067 70.9872 302.776 71.2271 302.776 71.2271Z" fill="#579EFF"/>
<path d="M289.134 77.2251L287.985 76.6076C287.985 76.6076 283.63 77.4651 283.869 80.824C284.108 84.1829 285.065 102.897 285.065 102.897L281.236 136.726L288.177 137.925L295.117 109.615L289.134 77.2251Z" fill="#579EFF"/>
<path d="M321.443 74.1062L322.591 73.4886C322.591 73.4886 326.947 74.3461 326.708 77.705C326.468 81.0639 325.511 99.7778 325.511 99.7778L329.34 133.607L322.4 134.806L315.459 106.496L321.443 74.1062Z" fill="#579EFF"/>
<path d="M293.202 108.655L292.245 123.29L289.134 152.561L293.681 213.261L309.476 213.741L304.69 155.92L309.476 136.006L325.122 135.425C325.122 135.425 326.229 112.494 317.374 105.296L293.202 108.655Z" fill="#3D3C40"/>
<path d="M310.434 132.647L307.921 185.55L307.083 212.301L321.204 213.741L324.766 135.068L319.289 129.528L310.434 132.647Z" fill="#3D3C40"/>
<path d="M308.041 43.3961C308.041 43.3961 298.707 42.1965 296.075 46.7551C296.075 46.7551 295.357 50.114 292.963 51.3136C290.57 52.5132 293.442 56.5918 294.16 57.7914C294.878 58.9911 296.792 65.9488 294.639 67.6282C292.485 69.3077 298.468 74.1061 298.468 74.1061C298.468 74.1061 301.34 77.9449 298.946 80.8239C296.553 83.703 302.058 84.6627 302.058 84.6627C302.058 84.6627 300.861 92.82 303.015 90.6607C303.015 90.6607 303.972 109.135 313.066 97.6185C322.161 86.1022 325.99 80.584 322.161 76.0255C318.332 71.467 321.203 67.3883 321.203 67.3883C321.203 67.3883 322.4 64.9891 319.767 61.3903C317.135 57.7914 317.135 43.3961 308.041 43.3961Z" fill="#3D3C40"/>
<path d="M294.519 212.181C294.519 212.181 285.185 212.901 286.143 216.26C287.1 219.619 294.519 219.139 294.519 219.139C294.519 219.139 300.263 218.659 303.374 219.619C306.485 220.578 310.075 219.619 310.314 217.939C310.554 216.26 308.639 215.06 308.639 215.06L307.442 212.661L294.519 212.181Z" fill="#3D3C40"/>
</g>
<defs>
<clipPath id="clip0">
<rect width="246" height="220" fill="white" transform="translate(85)"/>
</clipPath>
</defs>
</svg>
