<svg width="416" height="220" viewBox="0 0 416 220" fill="none" xmlns="http://www.w3.org/2000/svg">
<g clip-path="url(#clip0)">
<path d="M283.831 113.405H180.567C180.06 113.405 179.574 113.203 179.215 112.844C178.857 112.484 178.655 111.998 178.654 111.49V64.3705C178.655 63.8626 178.857 63.3757 179.215 63.0165C179.574 62.6574 180.06 62.4553 180.567 62.4547H283.831C284.338 62.4553 284.824 62.6574 285.183 63.0165C285.541 63.3757 285.743 63.8626 285.743 64.3705V111.49C285.743 111.998 285.541 112.484 285.183 112.844C284.824 113.203 284.338 113.405 283.831 113.405Z" fill="white"/>
<path d="M283.831 113.405H180.567C180.06 113.405 179.574 113.203 179.215 112.844C178.857 112.484 178.655 111.998 178.654 111.49V64.3705C178.655 63.8626 178.857 63.3757 179.215 63.0165C179.574 62.6574 180.06 62.4553 180.567 62.4547H283.831C284.338 62.4553 284.824 62.6574 285.183 63.0165C285.541 63.3757 285.743 63.8626 285.743 64.3705V111.49C285.743 111.998 285.541 112.484 285.183 112.844C284.824 113.203 284.338 113.405 283.831 113.405ZM180.567 63.2211C180.262 63.2214 179.971 63.3426 179.756 63.5581C179.541 63.7736 179.42 64.0658 179.419 64.3705V111.49C179.42 111.794 179.541 112.087 179.756 112.302C179.971 112.518 180.262 112.639 180.567 112.639H283.831C284.135 112.639 284.427 112.518 284.642 112.302C284.857 112.087 284.978 111.794 284.978 111.49V64.3705C284.978 64.0658 284.857 63.7736 284.642 63.5581C284.427 63.3426 284.135 63.2214 283.831 63.2211H180.567Z" fill="#3D3C40"/>
<path d="M194.127 85.0611C198.563 85.0611 202.159 81.4586 202.159 77.0148C202.159 72.5709 198.563 68.9684 194.127 68.9684C189.692 68.9684 186.096 72.5709 186.096 77.0148C186.096 81.4586 189.692 85.0611 194.127 85.0611Z" fill="#3D3C40"/>
<path d="M196.423 75.8653C196.637 75.8653 196.817 75.9388 196.964 76.086C197.111 76.2331 197.184 76.414 197.184 76.6285V80.0769C197.184 80.2915 197.108 80.4724 196.955 80.6195C196.808 80.7728 196.631 80.8494 196.423 80.8494H191.833C191.625 80.8494 191.445 80.7728 191.292 80.6195C191.145 80.4724 191.071 80.2915 191.071 80.0769V76.6285C191.071 76.414 191.145 76.2331 191.292 76.086C191.445 75.9388 191.625 75.8653 191.833 75.8653H192.219V75.102C192.219 74.7464 192.301 74.4246 192.466 74.1365C192.638 73.8422 192.867 73.6092 193.155 73.4376C193.449 73.2659 193.773 73.1801 194.128 73.1801C194.483 73.1801 194.804 73.2659 195.092 73.4376C195.385 73.6092 195.615 73.8422 195.78 74.1365C195.951 74.4246 196.037 74.7464 196.037 75.102V75.8653H196.423ZM194.128 73.9525C193.914 73.9525 193.718 74.0047 193.54 74.1089C193.369 74.207 193.231 74.3449 193.127 74.5227C193.029 74.6943 192.981 74.8875 192.981 75.102V75.8653H195.275V75.102C195.275 74.8875 195.223 74.6943 195.119 74.5227C195.021 74.3449 194.884 74.207 194.706 74.1089C194.535 74.0047 194.342 73.9525 194.128 73.9525Z" fill="white"/>
<path d="M212.502 71.8373C212.147 71.8373 211.806 71.9786 211.555 72.2301C211.304 72.4816 211.163 72.8227 211.163 73.1784C211.163 73.5341 211.304 73.8752 211.555 74.1267C211.806 74.3782 212.147 74.5194 212.502 74.5194H275.608C275.963 74.5194 276.303 74.3782 276.554 74.1267C276.805 73.8752 276.946 73.5341 276.946 73.1784C276.946 72.8227 276.805 72.4816 276.554 72.2301C276.303 71.9786 275.963 71.8373 275.608 71.8373H212.502Z" fill="#3D3C40" fill-opacity="0.16"/>
<path d="M212.502 79.8837C212.147 79.8837 211.806 80.025 211.555 80.2764C211.304 80.5279 211.163 80.869 211.163 81.2247C211.163 81.5804 211.304 81.9215 211.555 82.173C211.806 82.4245 212.147 82.5658 212.502 82.5658H239.656C240.011 82.5658 240.352 82.4245 240.603 82.173C240.854 81.9215 240.995 81.5804 240.995 81.2247C240.995 80.869 240.854 80.5279 240.603 80.2764C240.352 80.025 240.011 79.8837 239.656 79.8837H212.502Z" fill="#3D3C40" fill-opacity="0.16"/>
<path d="M187.792 92.7474C186.774 92.7474 185.945 93.3491 185.945 94.0884C185.945 94.8278 186.774 95.4295 187.792 95.4295H274.859C275.877 95.4295 276.706 94.8278 276.706 94.0884C276.706 93.3491 275.877 92.7474 274.859 92.7474H187.792Z" fill="#3D3C40" fill-opacity="0.16"/>
<path d="M187.792 100.794C186.774 100.794 185.945 101.395 185.945 102.135C185.945 102.874 186.774 103.476 187.792 103.476H274.859C275.877 103.476 276.706 102.874 276.706 102.135C276.706 101.395 275.877 100.794 274.859 100.794H187.792Z" fill="#3D3C40" fill-opacity="0.16"/>
<path d="M361.088 50.9506H257.823C257.316 50.95 256.83 50.748 256.472 50.3889C256.113 50.0297 255.912 49.5428 255.911 49.0349V1.91579C255.912 1.40787 256.113 0.920932 256.472 0.561781C256.83 0.20263 257.316 0.000596258 257.823 0H361.088C361.595 0.00059727 362.081 0.20263 362.439 0.561781C362.798 0.920932 363 1.40787 363 1.91579V49.0349C363 49.5428 362.798 50.0297 362.439 50.3889C362.081 50.748 361.595 50.95 361.088 50.9506Z" fill="white"/>
<path d="M361.088 50.9506H257.823C257.316 50.95 256.83 50.748 256.472 50.3889C256.113 50.0297 255.912 49.5428 255.911 49.0349V1.91579C255.912 1.40787 256.113 0.920932 256.472 0.561781C256.83 0.20263 257.316 0.000596258 257.823 0H361.088C361.595 0.00059727 362.081 0.20263 362.439 0.561781C362.798 0.920932 363 1.40787 363 1.91579V49.0349C363 49.5428 362.798 50.0297 362.439 50.3889C362.081 50.748 361.595 50.95 361.088 50.9506ZM257.823 0.766316C257.519 0.766647 257.228 0.88786 257.012 1.10336C256.797 1.31885 256.676 1.61103 256.676 1.91579V49.0349C256.676 49.3396 256.797 49.6318 257.012 49.8473C257.228 50.0628 257.519 50.184 257.823 50.1843H361.088C361.392 50.184 361.684 50.0628 361.899 49.8473C362.114 49.6318 362.235 49.3396 362.235 49.0349V1.91579C362.235 1.61103 362.114 1.31885 361.899 1.10336C361.684 0.88786 361.392 0.766648 361.088 0.766316H257.823Z" fill="#3D3C40"/>
<path d="M271.209 22.7931C275.645 22.7931 279.241 19.1907 279.241 14.7468C279.241 10.3029 275.645 6.70049 271.209 6.70049C266.774 6.70049 263.178 10.3029 263.178 14.7468C263.178 19.1907 266.774 22.7931 271.209 22.7931Z" fill="#166DE0"/>
<path d="M289.759 9.3826C289.404 9.3826 289.063 9.52389 288.812 9.77539C288.561 10.0269 288.42 10.368 288.42 10.7237C288.42 11.0793 288.561 11.4204 288.812 11.6719C289.063 11.9234 289.404 12.0647 289.759 12.0647H352.864C353.219 12.0647 353.56 11.9234 353.811 11.6719C354.062 11.4204 354.203 11.0793 354.203 10.7237C354.203 10.368 354.062 10.0269 353.811 9.77539C353.56 9.52389 353.219 9.3826 352.864 9.3826H289.759Z" fill="#3D3C40" fill-opacity="0.16"/>
<path d="M289.759 17.4289C289.404 17.4289 289.063 17.5702 288.812 17.8217C288.561 18.0732 288.42 18.4143 288.42 18.77C288.42 19.1256 288.561 19.4667 288.812 19.7182C289.063 19.9697 289.404 20.111 289.759 20.111H316.913C317.268 20.111 317.609 19.9697 317.86 19.7182C318.111 19.4667 318.252 19.1256 318.252 18.77C318.252 18.4143 318.111 18.0732 317.86 17.8217C317.609 17.5702 317.268 17.4289 316.913 17.4289H289.759Z" fill="#3D3C40" fill-opacity="0.16"/>
<path d="M265.049 30.2926C264.031 30.2926 263.202 30.8943 263.202 31.6337C263.202 32.3731 264.031 32.9747 265.049 32.9747H352.116C353.134 32.9747 353.963 32.3731 353.963 31.6337C353.963 30.8943 353.134 30.2926 352.116 30.2926H265.049Z" fill="#3D3C40" fill-opacity="0.16"/>
<path d="M265.049 38.339C264.031 38.339 263.202 38.9406 263.202 39.68C263.202 40.4194 264.031 41.0211 265.049 41.0211H352.116C353.134 41.0211 353.963 40.4194 353.963 39.68C353.963 38.9406 353.134 38.339 352.116 38.339H265.049Z" fill="#3D3C40" fill-opacity="0.16"/>
<path d="M361.088 175.86H257.823C257.316 175.86 256.83 175.658 256.472 175.298C256.113 174.939 255.912 174.452 255.911 173.944V126.825C255.912 126.317 256.113 125.83 256.472 125.471C256.83 125.112 257.316 124.91 257.823 124.909H361.088C361.595 124.91 362.081 125.112 362.439 125.471C362.798 125.83 363 126.317 363 126.825V173.944C363 174.452 362.798 174.939 362.439 175.298C362.081 175.658 361.595 175.86 361.088 175.86Z" fill="white"/>
<path d="M361.088 175.86H257.823C257.316 175.86 256.83 175.658 256.472 175.298C256.113 174.939 255.912 174.452 255.911 173.944V126.825C255.912 126.317 256.113 125.83 256.472 125.471C256.83 125.112 257.316 124.91 257.823 124.909H361.088C361.595 124.91 362.081 125.112 362.439 125.471C362.798 125.83 363 126.317 363 126.825V173.944C363 174.452 362.798 174.939 362.439 175.298C362.081 175.658 361.595 175.86 361.088 175.86ZM257.823 125.676C257.519 125.676 257.228 125.797 257.012 126.013C256.797 126.228 256.676 126.521 256.676 126.825V173.944C256.676 174.249 256.797 174.541 257.012 174.757C257.228 174.972 257.519 175.093 257.823 175.094H361.088C361.392 175.093 361.684 174.972 361.899 174.757C362.114 174.541 362.235 174.249 362.235 173.944V126.825C362.235 126.521 362.114 126.228 361.899 126.013C361.684 125.797 361.392 125.676 361.088 125.676H257.823Z" fill="#3D3C40"/>
<path d="M271.209 147.703C275.645 147.703 279.241 144.1 279.241 139.656C279.241 135.212 275.645 131.61 271.209 131.61C266.774 131.61 263.178 135.212 263.178 139.656C263.178 144.1 266.774 147.703 271.209 147.703Z" fill="#166DE0"/>
<path d="M289.759 134.292C289.404 134.292 289.063 134.433 288.812 134.685C288.561 134.936 288.42 135.278 288.42 135.633C288.42 135.989 288.561 136.33 288.812 136.581C289.063 136.833 289.404 136.974 289.759 136.974H352.864C353.219 136.974 353.56 136.833 353.811 136.581C354.062 136.33 354.203 135.989 354.203 135.633C354.203 135.278 354.062 134.936 353.811 134.685C353.56 134.433 353.219 134.292 352.864 134.292H289.759Z" fill="#3D3C40" fill-opacity="0.16"/>
<path d="M289.759 142.338C289.404 142.338 289.063 142.48 288.812 142.731C288.561 142.983 288.42 143.324 288.42 143.679C288.42 144.035 288.561 144.376 288.812 144.628C289.063 144.879 289.404 145.021 289.759 145.021H316.913C317.268 145.021 317.609 144.879 317.86 144.628C318.111 144.376 318.252 144.035 318.252 143.679C318.252 143.324 318.111 142.983 317.86 142.731C317.609 142.48 317.268 142.338 316.913 142.338H289.759Z" fill="#3D3C40" fill-opacity="0.16"/>
<path d="M265.049 155.202C264.031 155.202 263.202 155.804 263.202 156.543C263.202 157.283 264.031 157.884 265.049 157.884H352.116C353.134 157.884 353.963 157.283 353.963 156.543C353.963 155.804 353.134 155.202 352.116 155.202H265.049Z" fill="#3D3C40" fill-opacity="0.16"/>
<path d="M265.049 163.248C264.031 163.248 263.202 163.85 263.202 164.59C263.202 165.329 264.031 165.931 265.049 165.931H352.116C353.134 165.931 353.963 165.329 353.963 164.59C353.963 163.85 353.134 163.248 352.116 163.248H265.049Z" fill="#3D3C40" fill-opacity="0.16"/>
<path d="M152.58 214.564L157.7 213.074L154.401 192.582L146.845 194.781L152.58 214.564Z" fill="#3D3C40" fill-opacity="0.32"/>
<path d="M168.954 214.963L152.864 219.645L151.059 213.418L161.681 210.327C163.131 209.905 164.689 210.077 166.012 210.806C167.335 211.535 168.315 212.76 168.737 214.213L168.954 214.963Z" fill="#3D3C40"/>
<path d="M99.674 214.686L105.005 214.686L107.541 194.085L99.6729 194.086L99.674 214.686Z" fill="#3D3C40" fill-opacity="0.32"/>
<path d="M115.287 219.645L98.5322 219.645L98.5319 213.16L109.593 213.16C111.103 213.16 112.551 213.761 113.619 214.83C114.687 215.9 115.287 217.351 115.287 218.863L115.287 219.645Z" fill="#3D3C40"/>
<path d="M112.217 142.975C112.624 142.481 112.918 141.903 113.078 141.283C113.237 140.663 113.26 140.015 113.143 139.386C113.026 138.756 112.772 138.16 112.4 137.639C112.029 137.118 111.547 136.685 110.99 136.371L113.758 121.052L106.333 124.232L104.843 138.291C104.378 139.263 104.285 140.373 104.582 141.409C104.879 142.446 105.545 143.337 106.454 143.914C107.363 144.492 108.451 144.715 109.514 144.542C110.576 144.368 111.538 143.811 112.217 142.975V142.975Z" fill="#3D3C40" fill-opacity="0.32"/>
<path d="M105.114 133.648L112.425 135.135L115.81 110.408L115.822 110.383L126.547 86.3048C126.553 86.2831 127.842 82.1821 126.46 79.5275C126.211 79.0456 125.866 78.62 125.447 78.2773C125.027 77.9345 124.542 77.6819 124.021 77.535C119.299 76.0806 117.13 79.4996 116.949 79.8034L108.237 106.298L105.114 133.648Z" fill="#166DE0"/>
<path d="M146.188 210.532L137.45 171.578L125.092 145.537L111.693 209.625L91.7305 207.403L110.038 139.715C109.753 138.679 105.75 123.228 117.901 115.196L120.002 108.12L138.043 112.335L137.824 129.219L153.027 164.033L166.139 204.313L146.188 210.532Z" fill="#3D3C40"/>
<path d="M138.685 114.656L120.041 112.878L120.481 101.424C119.815 100.231 111.047 84.2135 116.829 78.3844L118.583 75.7481L118.623 75.7257C118.694 75.6854 125.795 71.8153 131.913 79.6955C133.309 81.4497 134.813 83.1151 136.416 84.6822C140.338 88.6496 142.931 91.2726 139.344 98.1608L138.685 114.656Z" fill="#166DE0"/>
<path d="M132.951 71.0147C138.127 68.1802 140.029 61.6791 137.2 56.4939C134.37 51.3088 127.881 49.4032 122.705 52.2376C117.53 55.0721 115.628 61.5733 118.457 66.7584C121.286 71.9436 127.775 73.8492 132.951 71.0147Z" fill="#3D3C40" fill-opacity="0.32"/>
<path d="M132.241 142.379C132.509 141.798 132.648 141.164 132.646 140.524C132.644 139.884 132.502 139.251 132.23 138.672C131.957 138.092 131.562 137.58 131.07 137.17C130.579 136.76 130.004 136.464 129.386 136.301L128.195 120.779L121.814 125.737L123.923 139.716C123.719 140.775 123.909 141.872 124.458 142.8C125.007 143.727 125.877 144.42 126.902 144.749C127.927 145.077 129.037 145.017 130.021 144.58C131.005 144.143 131.795 143.36 132.241 142.379Z" fill="#3D3C40" fill-opacity="0.32"/>
<path d="M122.683 135.558L118.742 107.92L120.489 79.9806C120.501 79.9355 121.784 75.4583 127.148 75.6937C127.74 75.7051 128.324 75.8384 128.863 76.0854C129.401 76.3324 129.883 76.6878 130.279 77.1294C132.394 79.4671 132.181 83.78 132.171 83.9624L127.877 109.969L130.889 135.101L122.683 135.558Z" fill="#166DE0"/>
<path d="M141.849 53.4351C141.47 51.2333 139.645 49.5012 137.591 48.6305C135.537 47.7597 133.261 47.6051 131.035 47.4808C129.143 47.3317 127.242 47.3376 125.351 47.4985C125.603 47.17 125.774 46.7868 125.851 46.3798C126.013 45.436 125.45 44.3676 124.499 44.16C123.815 44.0107 123.115 44.3022 122.439 44.5014C121.762 44.7006 120.943 44.7796 120.441 44.3075C119.866 43.768 120.003 42.7923 119.512 42.1789C119.054 41.6059 118.156 41.5269 117.453 41.797C116.771 42.1148 116.162 42.5707 115.665 43.1359L115.03 43.7664C114.975 43.7251 114.914 43.6879 114.86 43.6455C113.186 42.3273 112.352 40.3923 113.303 38.7662C112.823 39.5912 112.591 40.5374 112.635 41.4911C112.679 42.4449 112.997 43.3656 113.551 44.1427C113.698 44.3578 113.858 44.5636 114.03 44.7589C113.698 45.0885 113.365 45.4181 113.033 45.7477C112.521 46.2559 111.967 46.8867 112.097 47.5798C112.234 48.3074 113.114 48.6996 113.867 48.5908C114.48 48.4661 115.055 48.1972 115.544 47.8063C114.864 48.2879 114.318 48.9365 113.96 49.69C113.755 50.1209 113.673 50.6 113.723 51.0746C113.773 51.5492 113.953 52.0007 114.243 52.3793C114.662 52.8379 115.239 53.1192 115.858 53.1658C114.779 54.7461 114.076 56.5535 113.804 58.4489C113.51 60.8825 113.909 63.3498 114.955 65.5658C116.001 67.7819 117.651 69.6563 119.716 70.9728C120.838 71.7289 122.153 72.1481 123.505 72.1808C124.849 72.1533 126.232 71.4798 126.842 70.2798C127.477 69.0296 127.18 67.5318 126.919 66.1536C126.657 64.7754 126.478 63.226 127.285 62.0792C128.092 60.9325 130.272 60.8628 130.639 62.2167C131.382 60.9412 132.504 59.9299 133.849 59.3239C135.193 58.718 136.693 58.5475 138.138 58.8365L138.72 59.7739C140.942 59.5803 142.228 55.637 141.849 53.4351Z" fill="#3D3C40"/>
<path d="M199.1 220H53.3825C53.281 220 53.1837 219.96 53.112 219.888C53.0403 219.816 53 219.718 53 219.617C53 219.515 53.0403 219.418 53.112 219.346C53.1837 219.274 53.281 219.234 53.3825 219.234H199.1C199.201 219.234 199.298 219.274 199.37 219.346C199.442 219.418 199.482 219.515 199.482 219.617C199.482 219.718 199.442 219.816 199.37 219.888C199.298 219.96 199.201 220 199.1 220Z" fill="#3D3C40" fill-opacity="0.24"/>
</g>
<defs>
<clipPath id="clip0">
<rect width="310" height="220" fill="white" transform="translate(53)"/>
</clipPath>
</defs>
</svg>
