manage<svg width="416" height="220" viewBox="0 0 416 220" fill="none" xmlns="http://www.w3.org/2000/svg">
<path d="M229 -0.00012207C226.348 -0.000131956 223.804 1.05343 221.929 2.92878C220.054 4.80414 219 7.34767 219 9.99984C219 12.652 220.054 15.1955 221.929 17.0709C223.804 18.9463 226.348 19.9999 229 19.9999H229C231.652 19.9999 234.196 18.9463 236.071 17.0709C237.946 15.1956 239 12.652 239 9.99987C239 7.34771 237.946 4.80417 236.071 2.92881C234.196 1.05344 231.652 -0.00012207 229 -0.00012207Z" fill="#166DE0"/>
<path d="M228.051 14.1529C227.788 14.1534 227.532 14.0682 227.321 13.9103L227.308 13.9005L224.558 11.7968C224.431 11.6992 224.324 11.5774 224.243 11.4385C224.163 11.2995 224.111 11.1461 224.09 10.9869C224.069 10.8278 224.079 10.666 224.121 10.511C224.162 10.3559 224.234 10.2105 224.331 10.0831C224.429 9.95569 224.551 9.84877 224.69 9.76847C224.829 9.68816 224.982 9.63602 225.141 9.61503C225.301 9.59404 225.462 9.60461 225.617 9.64615C225.772 9.68768 225.918 9.75935 226.045 9.85707L227.826 11.223L232.036 5.73171C232.133 5.60439 232.255 5.49755 232.394 5.41728C232.533 5.33701 232.686 5.28488 232.845 5.26388C233.004 5.24287 233.166 5.25339 233.321 5.29485C233.476 5.3363 233.621 5.40788 233.748 5.50548L233.749 5.50575L233.722 5.54201L233.749 5.50575C234.006 5.70315 234.174 5.99438 234.217 6.31554C234.259 6.63669 234.172 6.96154 233.975 7.21879L229.024 13.6749C228.91 13.8236 228.763 13.944 228.594 14.0267C228.425 14.1093 228.24 14.152 228.052 14.1515L228.051 14.1529Z" fill="white"/>
<path d="M71.1126 1.99988C68.961 1.99988 66.8975 2.84274 65.3761 4.34303C63.8547 5.84332 63 7.87815 63 9.99988C63 12.1216 63.8547 14.1564 65.3761 15.6567C66.8975 17.157 68.961 17.9999 71.1126 17.9999H194.887C197.039 17.9999 199.102 17.157 200.624 15.6567C202.145 14.1564 203 12.1216 203 9.99988C203 7.87815 202.145 5.84332 200.624 4.34303C199.102 2.84274 197.039 1.99988 194.887 1.99988H71.1126Z" fill="white"/>
<path d="M65.7272 4.69904C67.1543 3.29173 69.0914 2.49988 71.1126 2.49988H194.887C196.909 2.49988 198.846 3.29173 200.273 4.69904C201.7 6.10612 202.5 8.01303 202.5 9.99988C202.5 11.9867 201.7 13.8936 200.273 15.3007C198.846 16.708 196.909 17.4999 194.887 17.4999H71.1126C69.0914 17.4999 67.1543 16.708 65.7272 15.3007C64.3003 13.8936 63.5 11.9867 63.5 9.99988C63.5 8.01303 64.3003 6.10612 65.7272 4.69904Z" stroke="#3D3C40" stroke-opacity="0.24"/>
<path d="M229 39.9999C226.348 39.9999 223.804 41.0534 221.929 42.9288C220.054 44.8041 219 47.3477 219 49.9998C219 52.652 220.054 55.1955 221.929 57.0709C223.804 58.9463 226.348 59.9999 229 59.9999H229C231.652 59.9999 234.196 58.9463 236.071 57.0709C237.946 55.1956 239 52.652 239 49.9999C239 47.3477 237.946 44.8042 236.071 42.9288C234.196 41.0534 231.652 39.9999 229 39.9999Z" fill="#166DE0"/>
<path d="M228.051 54.1529C227.788 54.1534 227.532 54.0682 227.321 53.9103L227.308 53.9005L224.558 51.7968C224.431 51.6992 224.324 51.5774 224.243 51.4385C224.163 51.2995 224.111 51.1461 224.09 50.9869C224.069 50.8278 224.079 50.666 224.121 50.511C224.162 50.3559 224.234 50.2105 224.331 50.0831C224.429 49.9557 224.551 49.8488 224.69 49.7685C224.829 49.6882 224.982 49.636 225.141 49.615C225.301 49.594 225.462 49.6046 225.617 49.6461C225.772 49.6877 225.918 49.7593 226.045 49.8571L227.826 51.223L232.036 45.7317C232.133 45.6044 232.255 45.4976 232.394 45.4173C232.533 45.337 232.686 45.2849 232.845 45.2639C233.004 45.2429 233.166 45.2534 233.321 45.2948C233.476 45.3363 233.621 45.4079 233.748 45.5055L233.749 45.5057L233.722 45.542L233.749 45.5057C234.006 45.7031 234.174 45.9944 234.217 46.3155C234.259 46.6367 234.172 46.9615 233.975 47.2188L229.024 53.6749C228.91 53.8236 228.763 53.944 228.594 54.0267C228.425 54.1093 228.24 54.152 228.052 54.1515L228.051 54.1529Z" fill="white"/>
<path d="M71.1126 41.9999C68.961 41.9999 66.8975 42.8427 65.3761 44.343C63.8547 45.8433 63 47.8781 63 49.9999C63 52.1216 63.8547 54.1564 65.3761 55.6567C66.8975 57.157 68.961 57.9999 71.1126 57.9999H194.887C197.039 57.9999 199.102 57.157 200.624 55.6567C202.145 54.1564 203 52.1216 203 49.9999C203 47.8781 202.145 45.8433 200.624 44.343C199.102 42.8427 197.039 41.9999 194.887 41.9999H71.1126Z" fill="white"/>
<path d="M65.7272 44.699C67.1543 43.2917 69.0914 42.4999 71.1126 42.4999H194.887C196.909 42.4999 198.846 43.2917 200.273 44.699C201.7 46.1061 202.5 48.013 202.5 49.9999C202.5 51.9867 201.7 53.8936 200.273 55.3007C198.846 56.708 196.909 57.4999 194.887 57.4999H71.1126C69.0914 57.4999 67.1543 56.708 65.7272 55.3007C64.3003 53.8936 63.5 51.9867 63.5 49.9999C63.5 48.013 64.3003 46.1061 65.7272 44.699Z" stroke="#3D3C40" stroke-opacity="0.24"/>
<path d="M229 79.9999C226.348 79.9999 223.804 81.0534 221.929 82.9288C220.054 84.8041 219 87.3477 219 89.9998C219 92.652 220.054 95.1955 221.929 97.0709C223.804 98.9463 226.348 99.9999 229 99.9999H229C231.652 99.9999 234.196 98.9463 236.071 97.0709C237.946 95.1956 239 92.652 239 89.9999C239 87.3477 237.946 84.8042 236.071 82.9288C234.196 81.0534 231.652 79.9999 229 79.9999Z" fill="#3D3C40" fill-opacity="0.16"/>
<path d="M71.1126 81.9999C68.961 81.9999 66.8975 82.8427 65.3761 84.343C63.8547 85.8433 63 87.8781 63 89.9999C63 92.1216 63.8547 94.1564 65.3761 95.6567C66.8975 97.157 68.961 97.9999 71.1126 97.9999H194.887C197.039 97.9999 199.102 97.157 200.624 95.6567C202.145 94.1564 203 92.1216 203 89.9999C203 87.8781 202.145 85.8433 200.624 84.343C199.102 82.8427 197.039 81.9999 194.887 81.9999H71.1126Z" fill="white"/>
<path d="M65.7272 84.699C67.1543 83.2917 69.0914 82.4999 71.1126 82.4999H194.887C196.909 82.4999 198.846 83.2917 200.273 84.699C201.7 86.1061 202.5 88.013 202.5 89.9999C202.5 91.9867 201.7 93.8936 200.273 95.3007C198.846 96.708 196.909 97.4999 194.887 97.4999H71.1126C69.0914 97.4999 67.1543 96.708 65.7272 95.3007C64.3003 93.8936 63.5 91.9867 63.5 89.9999C63.5 88.013 64.3003 86.1061 65.7272 84.699Z" stroke="#3D3C40" stroke-opacity="0.24"/>
<path d="M321.954 143.019C319.013 143.019 316.192 144.178 314.113 146.24C312.033 148.302 310.865 151.1 310.865 154.016C310.865 156.933 312.033 159.73 314.113 161.793C316.192 163.855 319.013 165.014 321.954 165.014C324.894 165.014 327.715 163.855 329.794 161.793C331.874 159.73 333.042 156.933 333.042 154.016C333.042 151.1 331.874 148.302 329.794 146.24C327.715 144.178 324.895 143.019 321.954 143.019Z" fill="#166DE0"/>
<path d="M320.901 158.584C320.609 158.584 320.325 158.49 320.091 158.317L320.077 158.306L317.027 155.993C316.886 155.885 316.767 155.751 316.678 155.598C316.589 155.446 316.531 155.277 316.508 155.102C316.484 154.927 316.496 154.749 316.542 154.578C316.588 154.408 316.667 154.248 316.776 154.108C316.884 153.968 317.019 153.85 317.173 153.762C317.327 153.674 317.498 153.616 317.674 153.593C317.85 153.57 318.03 153.582 318.202 153.627C318.374 153.673 318.535 153.752 318.676 153.859L320.651 155.362L325.319 149.323C325.427 149.183 325.562 149.065 325.716 148.977C325.87 148.888 326.04 148.831 326.216 148.808C326.392 148.785 326.572 148.797 326.744 148.842C326.915 148.888 327.076 148.966 327.218 149.074L327.218 149.074L327.189 149.114L327.219 149.074C327.504 149.291 327.69 149.611 327.737 149.965C327.784 150.318 327.688 150.675 327.469 150.958L321.98 158.058C321.853 158.221 321.689 158.354 321.502 158.445C321.315 158.536 321.11 158.583 320.902 158.582L320.901 158.584Z" fill="white"/>
<path d="M307.874 214.699L302.348 214.699L299.72 193.801L307.876 193.802L307.874 214.699Z" fill="#3D3C40" fill-opacity="0.32"/>
<path d="M298.4 213.151H309.058V219.73H291.689C291.689 218.866 291.863 218.01 292.2 217.212C292.538 216.414 293.032 215.689 293.655 215.078C294.278 214.467 295.018 213.982 295.832 213.652C296.646 213.321 297.519 213.151 298.4 213.151Z" fill="#3D3C40"/>
<path d="M285.878 214.699L280.351 214.699L277.724 193.801L285.88 193.802L285.878 214.699Z" fill="#3D3C40" fill-opacity="0.32"/>
<path d="M276.404 213.151H287.062V219.73H269.693C269.693 218.866 269.867 218.01 270.204 217.212C270.541 216.414 271.036 215.689 271.659 215.078C272.282 214.467 273.022 213.982 273.836 213.652C274.65 213.321 275.523 213.151 276.404 213.151Z" fill="#3D3C40"/>
<path d="M312.132 142.449C311.687 141.968 311.355 141.396 311.16 140.775C310.965 140.154 310.911 139.499 311.002 138.856C311.093 138.212 311.327 137.596 311.687 137.051C312.047 136.505 312.525 136.044 313.087 135.699L311.375 125.684L317.33 123.18L319.545 137.357C320.073 138.32 320.222 139.44 319.964 140.505C319.706 141.569 319.059 142.503 318.145 143.131C317.231 143.759 316.115 144.036 315.006 143.91C313.898 143.785 312.875 143.265 312.132 142.449V142.449Z" fill="#3D3C40" fill-opacity="0.32"/>
<path d="M265.512 137.717C266.032 137.314 266.455 136.804 266.752 136.223C267.049 135.642 267.213 135.005 267.231 134.356C267.25 133.706 267.123 133.061 266.86 132.464C266.596 131.868 266.203 131.336 265.707 130.905L269.083 121.304L263.632 117.87L259.059 131.494C258.376 132.359 258.04 133.439 258.115 134.53C258.19 135.622 258.671 136.648 259.466 137.415C260.261 138.182 261.316 138.637 262.43 138.692C263.545 138.748 264.641 138.401 265.512 137.717Z" fill="#3D3C40" fill-opacity="0.32"/>
<path d="M293.816 66.9882C300.374 66.9882 305.69 61.7767 305.69 55.348C305.69 48.9193 300.374 43.7079 293.816 43.7079C287.259 43.7079 281.943 48.9193 281.943 55.348C281.943 61.7767 287.259 66.9882 293.816 66.9882Z" fill="#3D3C40" fill-opacity="0.32"/>
<path d="M265.144 130.534C264.941 130.534 264.738 130.506 264.542 130.45L261.082 129.476C260.529 129.32 260.062 128.955 259.783 128.462C259.503 127.97 259.433 127.388 259.589 126.845L266.731 102.124L276.69 78.1555C277.681 75.7726 279.75 74.2099 282.09 74.0773C283.159 74.0261 284.22 74.2799 285.145 74.8079C286.07 75.3358 286.818 76.1154 287.3 77.0521C287.836 78.0546 288.13 79.1642 288.16 80.2955C288.19 81.4269 287.955 82.5499 287.473 83.5783L276.153 107.848L267.153 129.215C266.989 129.605 266.711 129.938 266.353 130.173C265.996 130.408 265.575 130.534 265.144 130.534Z" fill="#166DE0"/>
<path d="M300.516 65.1096L293.919 65.2246C293.232 65.2379 292.551 65.0927 291.931 64.8007C291.312 64.5087 290.771 64.078 290.353 63.5435C289.934 63.0091 289.65 62.3856 289.522 61.7236C289.395 61.0615 289.428 60.3793 289.618 59.7319C289.759 59.2642 289.865 58.787 289.935 58.3041C290.009 57.7775 290.024 57.2445 289.979 56.7148C289.937 56.1843 289.712 55.6836 289.342 55.2946C288.972 54.9056 288.478 54.6514 287.941 54.5738C287.404 54.4963 286.856 54.5998 286.387 54.8675C285.918 55.1353 285.556 55.5512 285.36 56.0473C284.251 56.0628 281.888 55.7083 280.778 55.7238C278.423 49.8045 283.555 42.0589 289.08 39.1497C294.713 36.1838 302.024 39.2012 304.183 45.3826C307.179 45.4354 309.614 48.3327 310 51.5941C310.386 54.8555 309.017 58.261 306.924 60.7607C304.83 63.2603 302.081 65.0823 300.516 65.1096Z" fill="#3D3C40"/>
<path d="M278.831 212.748C278.297 212.746 277.782 212.55 277.384 212.2C276.987 211.85 276.734 211.369 276.674 210.848L274.227 130.169L305.062 132.321L305.086 132.515C312.054 189.7 309.672 209.496 309.647 209.689C309.63 209.982 309.552 210.268 309.417 210.529C309.282 210.791 309.093 211.022 308.863 211.209C308.633 211.396 308.366 211.534 308.079 211.616C307.791 211.697 307.49 211.719 307.194 211.681L300.379 211.841C299.863 211.784 299.384 211.547 299.03 211.173C298.676 210.8 298.471 210.314 298.451 209.805L292.084 151.37C292.044 151.218 291.952 151.085 291.822 150.993C291.693 150.902 291.534 150.858 291.375 150.87C291.211 150.869 291.052 150.924 290.925 151.026C290.798 151.128 290.711 151.27 290.679 151.427L288.219 210.054C288.245 210.598 288.057 211.131 287.694 211.543C287.33 211.955 286.819 212.215 286.266 212.267L279.047 212.738C278.975 212.745 278.903 212.748 278.831 212.748Z" fill="#3D3C40"/>
<path d="M291.626 139.809C291.442 139.809 291.258 139.806 291.073 139.801C282.206 139.539 275.269 132.962 273.355 130.953C273.111 130.697 272.935 130.385 272.844 130.046C272.753 129.707 272.749 129.352 272.832 129.011L277.947 107.796L276.59 89.3522C276.377 86.7924 276.719 84.2174 277.595 81.7968C278.47 79.3761 279.858 77.1647 281.668 75.3082C283.177 73.746 285.01 72.52 287.044 71.7133C289.078 70.9066 291.265 70.538 293.457 70.6325C302.089 71.0363 308.898 78.6 308.96 87.8515C309.055 102.181 308.625 103.165 308.483 103.489C304.176 113.345 306.528 127.18 307.352 131.186C307.426 131.543 307.405 131.913 307.292 132.26C307.179 132.607 306.977 132.921 306.706 133.17C301.968 137.577 296.897 139.809 291.626 139.809Z" fill="#166DE0"/>
<path d="M313.894 134.416C313.402 134.416 312.924 134.252 312.54 133.951C312.155 133.65 311.886 133.231 311.776 132.76L306.499 110.222L299.426 84.4602C299.124 83.3679 299.082 82.2222 299.302 81.1112C299.522 80.0002 299.999 78.9535 300.696 78.0515C301.33 77.2062 302.2 76.559 303.2 76.1881C304.201 75.8172 305.29 75.7384 306.336 75.9615C308.622 76.4715 310.399 78.3477 310.974 80.8583L316.753 106.085L319.636 131.649C319.698 132.21 319.531 132.772 319.172 133.212C318.813 133.653 318.291 133.937 317.72 134.002L314.143 134.402C314.06 134.412 313.977 134.416 313.894 134.416Z" fill="#166DE0"/>
<path d="M352.517 220H251.483C251.355 220 251.232 219.95 251.142 219.861C251.051 219.772 251 219.652 251 219.526C251 219.4 251.051 219.28 251.142 219.191C251.232 219.102 251.355 219.052 251.483 219.052H352.517C352.645 219.052 352.768 219.102 352.858 219.191C352.949 219.28 353 219.4 353 219.526C353 219.652 352.949 219.772 352.858 219.861C352.768 219.95 352.645 220 352.517 220Z" fill="#3D3C40" fill-opacity="0.32"/>
</svg>
