<svg width="416" height="220" viewBox="0 0 416 220" fill="none" xmlns="http://www.w3.org/2000/svg">
<path opacity="0.1" d="M348.787 65.1065C348.734 65.356 348.683 65.6056 348.624 65.8524C346.779 74.335 343.764 82.5091 339.28 90.0158C339.131 90.2654 338.982 90.515 338.83 90.7645C335.874 95.5943 332.336 100.046 328.296 104.02C326.063 106.218 323.627 108.307 320.73 109.813C316.671 111.928 311.926 112.786 307.262 113.487C302.419 114.219 297.507 114.83 292.61 115.489C290.87 115.719 289.14 115.963 287.421 116.221C282.69 116.919 277.992 117.727 273.408 118.798C267.74 120.119 262.246 121.849 257.057 124.283C256.642 124.47 256.233 124.668 255.828 124.877C255.423 125.079 255.015 125.284 254.615 125.491C254.216 125.699 253.822 125.906 253.431 126.119C253.229 126.229 253.026 126.338 252.826 126.453C252.627 126.568 252.43 126.669 252.236 126.781C251.651 127.106 251.077 127.44 250.503 127.777L250.481 127.791C250.101 128.012 249.727 128.239 249.355 128.467C247.235 129.751 245.159 131.091 243.083 132.44L241.778 133.281L239.755 134.585C239.362 134.84 238.959 135.096 238.563 135.348C238.281 135.533 238 135.718 237.694 135.909C236.22 136.834 234.726 137.743 233.193 138.609C232.83 138.817 232.465 139.024 232.096 139.226C228.999 140.949 225.76 142.405 222.415 143.578L222.37 143.595C220.687 144.18 218.969 144.663 217.228 145.042C216.224 145.261 215.217 145.44 214.198 145.577C211.477 145.962 208.717 146.001 205.985 145.692C200.621 145.073 195.595 143.02 190.234 142.327C179.196 140.925 168.477 145.443 158.097 148.982C155.545 149.851 152.974 150.665 150.385 151.424C148.663 151.932 146.936 152.411 145.195 152.874C134.528 155.684 123.641 157.587 112.651 158.564C108.057 159.012 103.436 159.115 98.8265 158.869C97.0741 158.763 95.3414 158.589 93.6397 158.308C87.8172 157.411 82.3886 155.529 78.0063 152.083C74.4171 149.254 71.8491 145.566 69.8942 141.708C67.893 137.771 66.4801 133.563 65.7003 129.218C65.5934 128.626 65.4978 128.032 65.419 127.437C65.2784 126.42 65.1734 125.398 65.104 124.37C64.7255 118.889 65.382 113.387 67.0392 108.148C68.8956 102.281 71.9897 96.6505 73.3511 90.7393C73.4074 90.4888 73.4608 90.2392 73.5114 89.9906C73.6974 89.0928 73.8354 88.1858 73.9249 87.2734C74.6197 80.0106 71.956 72.9301 69.8661 65.8271C69.7929 65.5804 69.7198 65.3308 69.6495 65.0812C69.4245 64.2923 69.2088 63.5043 69.0025 62.7173C67.0673 55.2078 66.5301 47.1682 68.2543 39.6727C68.3078 39.4231 68.3725 39.1736 68.4343 38.9268C69.5887 34.1888 71.7593 29.7565 74.7969 25.9351C78.0259 21.8971 82.2648 18.5349 86.7934 15.5821C89.0005 14.1427 91.2826 12.7976 93.6397 11.547C95.3274 10.6496 97.0563 9.79996 98.8265 8.99797C113.017 2.5484 129.205 -0.600678 145.212 0.0947539C146.056 0.131208 146.9 0.176074 147.744 0.237766C148.587 0.299457 149.51 0.372366 150.393 0.453686C160.705 1.45197 170.738 3.86074 180.701 6.49385C184.04 7.37716 187.373 8.28291 190.703 9.17183C192.186 9.56441 193.665 9.957 195.147 10.3384C202.407 12.2087 209.774 13.9024 217.233 15.1671C218.96 15.4644 220.689 15.7354 222.42 15.9803C228.43 16.8608 234.488 17.3731 240.56 17.5142C242.921 17.5609 245.283 17.5404 247.645 17.4525C248.838 17.4095 250.031 17.345 251.226 17.259C263.56 16.3925 275.481 13.493 287.421 10.7842C289.148 10.3916 290.878 10.0047 292.61 9.6233C294.883 9.12416 297.156 8.64184 299.44 8.19598C313.653 5.41144 326.322 7.01262 339.536 12.7584C342.54 14.0623 345.541 15.6382 347.381 18.0863C349.22 20.5343 349.682 23.5404 350.025 26.4427C350.512 30.576 350.829 34.7626 350.95 38.9717C350.95 39.2184 350.95 39.468 350.967 39.7176C351.159 48.2198 350.523 56.8033 348.787 65.1065Z" fill="#166DE0"/>
<path opacity="0.1" d="M329.139 169.167C331.16 159.311 306.422 145.947 273.886 139.318C241.351 132.689 213.337 135.306 211.317 145.163C209.296 155.019 234.034 168.383 266.569 175.012C299.105 181.641 327.119 179.024 329.139 169.167Z" fill="#166DE0"/>
<path d="M263.436 106.011C263.436 106.011 266.634 90.3608 278.844 91.8105C278.844 91.8105 287.282 92.3882 289.018 97.8955V110.068L263.436 106.011Z" fill="#3D3C40"/>
<path d="M330.305 111.81L221.571 102.822L207.617 105.722L208.489 125.141L209.44 125.256L210.523 154.416L317.22 173.543L328.561 163.978V132.367L330.013 131.517L330.305 111.81Z" fill="#579EFF"/>
<path opacity="0.05" d="M330.449 111.81L330.157 131.517L318.383 137.025L318.236 116.445L330.449 111.81Z" fill="#3D3C40"/>
<path opacity="0.05" d="M328.56 132.387L328.704 163.401L317.365 172.966L318.094 137.025L328.56 132.387Z" fill="#3D3C40"/>
<path opacity="0.05" d="M209.585 126.417L318.181 139.627L318.238 137.12L209.504 125.43L209.585 126.417Z" fill="#3D3C40"/>
<path opacity="0.05" d="M328.56 133.525V132.387L317.801 137.12V139.633L328.56 133.525Z" fill="#3D3C40"/>
<path d="M207.47 105.722L221.424 102.822L330.158 111.81L317.947 116.445L207.47 105.722Z" fill="#3D3C40" fill-opacity="0.16"/>
<path opacity="0.1" d="M318.575 112.368L323.911 112.716L315.068 115.354L310.564 115.032L318.575 112.368Z" fill="#3D3C40"/>
<path d="M318.575 112.135L323.911 112.483L315.068 115.124L310.564 114.799L318.575 112.135Z" fill="white"/>
<path d="M317.936 112.732C318.146 112.643 318.369 112.814 318.593 112.856C318.723 112.881 318.855 112.856 318.984 112.881C319.246 112.915 319.504 113.089 319.755 113.002" fill="#3D3C40" fill-opacity="0.16"/>
<path d="M317.66 112.892C317.868 112.802 318.093 112.971 318.318 113.016C318.447 113.038 318.58 113.016 318.709 113.038C318.97 113.074 319.229 113.248 319.479 113.161" fill="#3D3C40" fill-opacity="0.16"/>
<path d="M317.025 113.212C317.236 113.122 317.461 113.29 317.686 113.332C317.813 113.358 317.948 113.332 318.074 113.358C318.338 113.394 318.597 113.568 318.845 113.478" fill="#3D3C40" fill-opacity="0.16"/>
<path opacity="0.1" d="M295.511 109.749L300.847 110.099L292.003 112.738L287.5 112.413L295.511 109.749Z" fill="#3D3C40"/>
<path d="M295.511 109.519L300.847 109.867L292.003 112.505L287.5 112.183L295.511 109.519Z" fill="white"/>
<path d="M294.871 110.116C295.082 110.026 295.304 110.195 295.529 110.239C295.658 110.262 295.79 110.239 295.92 110.262C296.181 110.298 296.44 110.472 296.69 110.385" fill="#3D3C40" fill-opacity="0.16"/>
<path d="M294.596 110.276C294.804 110.186 295.029 110.354 295.254 110.396C295.383 110.422 295.515 110.396 295.644 110.422C295.906 110.458 296.165 110.632 296.415 110.542" fill="#3D3C40" fill-opacity="0.16"/>
<path d="M293.961 110.593C294.172 110.503 294.397 110.674 294.622 110.716C294.748 110.741 294.883 110.716 295.01 110.741C295.274 110.775 295.533 110.952 295.78 110.862" fill="#3D3C40" fill-opacity="0.16"/>
<path opacity="0.1" d="M306.573 111.058L311.912 111.406L303.069 114.048L298.562 113.722L306.573 111.058Z" fill="#3D3C40"/>
<path d="M306.573 110.828L311.912 111.176L303.069 113.815L298.562 113.489L306.573 110.828Z" fill="white"/>
<path d="M305.934 111.426C306.144 111.336 306.369 111.504 306.594 111.546C306.721 111.571 306.853 111.546 306.982 111.571C307.244 111.605 307.505 111.782 307.753 111.692" fill="#3D3C40" fill-opacity="0.16"/>
<path d="M305.658 111.583C305.869 111.493 306.094 111.664 306.319 111.706C306.445 111.731 306.578 111.706 306.707 111.731C306.968 111.765 307.23 111.942 307.477 111.852" fill="#3D3C40" fill-opacity="0.16"/>
<path d="M305.025 111.902C305.233 111.813 305.458 111.981 305.683 112.026C305.813 112.048 305.945 112.026 306.074 112.048C306.336 112.085 306.594 112.258 306.845 112.172" fill="#3D3C40" fill-opacity="0.16"/>
<path opacity="0.1" d="M185.767 220C217.221 220 242.72 214.767 242.72 208.312C242.72 201.857 217.221 196.625 185.767 196.625C154.312 196.625 128.813 201.857 128.813 208.312C128.813 214.767 154.312 220 185.767 220Z" fill="#166DE0"/>
<path d="M248.135 112.601C247.528 107.278 245.123 102.2 245.123 102.2L245.305 100.405C245.305 100.405 245.345 99.5079 245.286 98.1619C245.292 97.3216 245.403 96.4852 245.615 95.6718C246.107 94.1155 244.999 92.2031 244.875 92.0264C244.751 91.8498 244.937 88.4371 243.829 86.763C242.72 85.0889 235.34 81.9763 235.34 81.9763C235.34 81.9763 234.943 81.1491 234.383 80.1816L234.434 80.0835C233.976 79.2553 233.408 78.4922 232.746 77.8149C232.294 77.3326 231.858 77.0578 231.506 77.1924C231.363 76.727 231.254 76.2518 231.18 75.7707C231.253 75.7903 231.329 75.8099 231.402 75.824C231.706 75.8944 232.022 75.902 232.33 75.8464C233.016 75.6922 233.472 75.0781 233.855 74.5004C235.762 71.6121 237.404 68.4434 237.739 65.0251C237.829 64.3275 237.796 63.6195 237.641 62.9332C237.482 62.3997 237.261 61.8867 236.982 61.405C236.489 60.4164 235.865 59.4987 235.126 58.6765C233.812 57.2969 232.001 56.4528 230.139 55.9537C228.041 55.3913 225.856 55.2286 223.698 55.4742C223.135 55.5387 222.573 55.6312 222.01 55.6676C221.296 55.699 220.582 55.6868 219.869 55.6312L216.188 55.4181L216.171 55.362L215.557 55.3255C215.316 55.805 215.557 56.3743 215.858 56.823C216.159 57.2716 216.505 57.7399 216.48 58.2699C216.455 58.7999 216.069 59.2261 215.768 59.672C215.467 60.1179 215.24 60.7011 215.541 61.1386C215.583 61.1991 215.633 61.2537 215.69 61.3012C216.007 61.6293 216.562 61.6657 217.043 61.6601H217.127C215.916 63.2506 215.261 65.193 215.262 67.1899C215.27 68.8965 215.749 70.5678 216.647 72.021C217.544 73.4741 218.826 74.653 220.35 75.4286C220.404 75.6108 220.457 75.7987 220.508 75.9894C221.066 77.9591 221.266 80.0122 221.099 82.052L221.034 82.1922L220.995 82.0436C220.995 82.0436 216.657 84.9768 215.369 85.7535C214.081 86.5303 212.787 89.1634 212.725 89.8812C212.663 90.5991 210.632 101.426 210.632 101.426C210.22 102.517 209.879 103.633 209.614 104.769L207.023 107.037C207.023 107.037 201.679 107.517 200.132 107.158L200.177 107.455C198.813 107.144 197.423 106.957 196.025 106.894C195.262 106.796 194.486 106.9 193.775 107.194L193.722 107.219L193.68 107.239C192.865 107.35 192.07 107.573 191.317 107.901C191.227 107.937 191.145 107.974 191.067 108.01L191.083 107.643L185.3 107.346L182.347 106.748C182.347 106.748 181.301 105.907 180.685 106.03C180.069 106.154 178.777 105.313 178.777 105.313C178.483 105.082 178.164 104.885 177.827 104.724C177.728 104.045 177.666 103.633 177.666 103.633C177.666 103.633 175.368 94.5418 173.647 89.197C172.494 85.6273 170.834 83.8691 169.855 83.1036C169.419 82.3464 169.132 81.8585 169.132 81.8585C168.944 81.2023 167.909 79.7246 167.644 79.6881C167.602 79.6208 167.571 79.5871 167.554 79.5871C167.498 79.5811 167.441 79.5898 167.389 79.6124C166.905 77.212 166.623 74.2032 167.363 71.5813C168.376 70.7516 169.192 69.709 169.753 68.528C170.314 67.3471 170.607 66.0571 170.609 64.7503C170.609 64.7111 170.609 64.6718 170.609 64.6326C170.609 64.5933 170.609 64.5512 170.609 64.512C170.609 62.428 169.868 60.4115 168.519 58.8195L168.424 58.713C168.449 58.6949 168.474 58.6752 168.497 58.6541C168.708 58.4832 168.869 58.2584 168.963 58.0037C169.056 57.7489 169.079 57.4737 169.028 57.2071C168.902 56.6687 168.48 56.2453 168.263 55.7349C168.133 55.3421 168.029 54.9412 167.951 54.5348C167.785 53.9576 167.481 53.4292 167.065 52.9953L167.107 53.1074C166.005 51.8708 164.109 51.2567 162.401 51.5315C161.133 51.7334 159.952 52.3223 158.677 52.5045C157.763 52.6335 156.832 52.5494 155.912 52.642C155.059 52.7294 154.228 52.9688 153.46 53.3486C153.259 53.4338 153.081 53.5643 152.939 53.73C152.808 53.9519 152.721 54.1964 152.68 54.4506C152.368 55.5863 151.378 56.3967 150.661 57.3445C149.842 58.4274 149.367 59.7306 149.3 61.0853C149.271 61.4296 149.305 61.7761 149.398 62.1088C149.46 62.3079 149.555 62.4958 149.6 62.6977C149.741 63.3146 149.418 63.9287 149.26 64.54C149.062 65.3198 149.132 66.1435 149.46 66.8787C150.571 69.3576 154.219 70.1848 154.979 72.7871C155.56 73.0533 156.173 73.2419 156.804 73.3479C156.855 73.6059 156.9 73.8667 156.936 74.1302C156.919 74.1375 156.903 74.1469 156.888 74.1583C155.904 75.1145 155.659 76.9625 155.659 76.9625L155.541 77.0578C155.139 77.3887 153.763 78.4991 152.52 79.3544C151.043 80.3723 148.582 83.7822 146.861 84.8001C145.139 85.818 143.722 92.0909 144.093 94.3707C144.464 96.6505 146 103.044 145.384 105.377C144.768 107.71 146.307 118.358 146.307 118.358C147.339 118.554 148.349 118.852 149.322 119.249L149.291 119.715L149.198 121.117C149.198 121.117 146.411 131.167 147.477 138.904C148.543 146.64 146.985 147.437 146.985 147.437C146.985 147.437 147.311 150.866 146.492 152.064C145.674 153.261 145.508 155.891 145.508 155.891C145.508 155.891 145.426 161.794 145.589 163.462C145.753 165.131 145.834 168.171 145.26 168.889C144.687 169.606 143.62 174.309 143.702 175.745C143.784 177.18 141.652 180.453 142.799 184.679C143.947 188.905 139.424 188.986 139.424 188.986C139.424 188.986 140 195.436 141.23 197.281L141.41 197.544C141.379 197.651 141.348 197.763 141.314 197.884C140.85 199.566 140.214 202.222 140.656 202.864C141.311 203.823 141.64 203.66 141.64 203.66L141.885 207.967C141.885 207.967 146.807 212.115 150.582 211.958C154.357 211.801 153.617 207.967 153.617 207.967L150.402 199.656L150.292 199.375L153.865 192.645C153.865 192.645 154.849 189.695 155.094 188.658C155.339 187.62 156.675 183.944 156.675 183.944C156.675 183.944 160.05 175.969 160.12 175.01C160.191 174.051 160.449 168.872 161.105 167.831C161.76 166.791 163.566 160.821 163.566 160.821L163.611 160.86C163.917 161.16 164.136 161.538 164.244 161.952C164.352 162.366 164.345 162.802 164.224 163.213C163.811 164.727 164.058 167.837 164.058 167.837C164.058 167.837 163.895 170.47 163.566 171.827C163.237 173.184 163.158 184.269 163.732 186.9C164.19 189.006 164.176 192.948 164.154 194.44C163.768 196.024 163.431 197.993 164.058 198.226C165.127 198.627 170.542 198.545 170.542 198.545C170.542 198.545 172.837 197.746 175.956 200.539C179.076 203.332 188.67 199.743 188.67 199.743C188.67 199.743 191.623 198.944 185.798 196.633C181.734 195.021 179.109 193.947 177.394 192.797C177.433 192.721 177.475 192.645 177.512 192.564C177.512 192.564 175.132 190.321 177.101 186.344C179.07 182.368 178.988 179.006 178.988 179.006L179.318 165.605L178.333 147.815L177.571 129.145L177.706 129.1C177.835 132.533 178.507 140.704 182.026 139.12C186.456 137.126 182.682 131.941 182.682 131.941L180.693 128.077L181.286 127.875L179.062 120.707C178.848 119.309 178.82 117.888 178.977 116.482C179.021 115.659 179.004 114.834 178.927 114.014C181.841 113.506 184.631 112.968 185.132 113.091C185.722 113.234 189.027 113.262 190.327 113.268C189.902 113.599 189.562 113.927 189.562 113.927L194.853 117.477C194.853 117.477 196.647 116.498 197.021 115.461C197.389 115.368 197.729 115.187 198.011 114.934C198.068 116.159 198.394 117.485 199.53 117.516C199.814 117.522 200.097 117.467 200.357 117.354L209.009 115.646L208.267 120.27L208.784 121.187C208.523 125.087 208.222 129.229 207.957 132.872L207.836 133.668L207.898 133.682C207.488 139.291 207.158 143.539 207.158 143.539C207.643 142.618 208.395 141.865 209.316 141.377L209.372 149.7C209.372 149.7 209.805 162.86 209.805 164.654C209.805 166.449 209.864 170.456 209.864 170.456C209.864 170.456 210.79 175.361 211.341 176.976C211.892 178.591 212.326 185.949 212.326 185.949C212.326 185.949 213.619 187.982 213.065 188.753C212.511 189.524 215.22 191.204 215.22 191.204C215.22 191.204 213.496 193.537 213.372 195.093C213.358 195.273 213.535 195.464 213.856 195.654C213.754 195.736 213.65 195.817 213.535 195.895C212.736 196.428 211.566 196.798 209.805 196.647C205.004 196.226 201.62 200.654 204.574 201.551C207.527 202.449 216.387 202.628 216.387 202.628C216.387 202.628 219.071 200.96 221.169 201.711C221.138 203.467 221.225 205.076 221.239 205.289L221.214 205.309C219.959 206.431 217.557 208.36 215.211 209.148C211.836 210.284 211.088 214.891 215.456 215.488C219.824 216.085 226.224 214.77 226.224 214.77C226.224 214.77 229.545 212.319 232.068 211.781C234.592 211.243 236.746 210.045 236.316 208.609C236.035 207.693 235.312 205.289 234.822 203.674C234.794 203.577 234.766 203.483 234.738 203.394C234.814 203.225 234.89 203.052 234.96 202.872C234.96 202.872 233.669 196.173 234.715 194.499C235.762 192.825 235.208 176.073 235.208 176.073C235.208 176.073 233.421 171.827 234.347 169.256C235.272 166.684 232.87 163.033 232.87 163.033C232.87 163.033 233.132 155.717 233.835 151.64C233.867 151.466 233.898 151.298 233.928 151.135C235.105 150.787 236.253 150.345 237.359 149.815C237.359 149.815 237.975 140.6 238.344 138.508C238.38 138.312 238.431 137.995 238.493 137.583L238.774 136.105L239.106 134.423L240.231 128.688L242.262 126.069L247.494 120.741C247.494 120.741 248.751 117.926 248.135 112.601ZM167.453 79.6993L167.414 79.7274C167.408 79.7071 167.403 79.6865 167.4 79.6657C167.416 79.6791 167.434 79.6904 167.453 79.6993ZM219.144 86.2302L218.941 86.6705L219.681 85.9358L218.677 87.0574L219.014 86.3508L219.144 86.2302ZM214.148 96.5215C213.954 97.0347 213.746 97.5899 213.529 98.1675L213.926 96.987L214.148 96.5215Z" fill="#3D3C40" fill-opacity="0.16"/>
<path d="M198.005 113.299C198.005 113.299 197.316 117.872 199.383 117.931C201.45 117.99 202.832 114.404 202.832 114.404L201.988 111.535L198.005 113.299Z" fill="#3D3C40"/>
<path opacity="0.2" d="M198.005 113.299C198.005 113.299 197.316 117.872 199.383 117.931C201.45 117.99 202.832 114.404 202.832 114.404L201.988 111.535L198.005 113.299Z" fill="#3D3C40"/>
<path d="M151.698 212.297C148.019 212.457 143.221 208.312 143.221 208.312L142.981 204.008C142.981 204.008 142.664 204.168 142.022 203.211C141.592 202.569 142.211 199.908 142.664 198.234C142.883 197.415 143.063 196.832 143.063 196.832L151.136 198.986L151.521 200.004L154.655 208.309C154.655 208.309 155.375 212.137 151.698 212.297Z" fill="#3D3C40"/>
<path d="M188.79 200.104C188.79 200.104 179.438 203.691 176.414 200.901C173.39 198.111 171.137 198.907 171.137 198.907C171.137 198.907 165.861 198.988 164.82 198.587C164.207 198.355 164.539 196.361 164.921 194.774C165.18 193.677 165.461 192.772 165.461 192.772C165.461 192.772 174.653 189.662 176.094 191.574C176.526 192.136 177.043 192.628 177.627 193.032C179.292 194.233 181.894 195.321 186.009 196.995C191.668 199.305 188.79 200.104 188.79 200.104Z" fill="#3D3C40"/>
<path d="M180.397 127.255L182.954 132.356C182.954 132.356 186.633 137.538 182.315 139.529C177.998 141.52 178.079 128.054 178.079 128.054L180.397 127.255Z" fill="white"/>
<path d="M180.397 127.255L182.954 132.356C182.954 132.356 186.633 137.538 182.315 139.529C177.998 141.52 178.079 128.054 178.079 128.054L180.397 127.255Z" fill="#3D3C40" fill-opacity="0.32"/>
<path d="M169.684 83.0223C169.684 83.0223 172.482 84.2982 174.162 89.6373C175.841 94.9764 178.08 104.065 178.08 104.065C178.08 104.065 179.599 114.345 179.357 116.897C179.203 118.302 179.23 119.721 179.438 121.12L181.596 128.293L177.278 129.807L170.643 104.463L169.684 83.0223Z" fill="white"/>
<path opacity="0.05" d="M169.684 83.0223C169.684 83.0223 172.482 84.2982 174.162 89.6373C175.841 94.9764 178.08 104.065 178.08 104.065C178.08 104.065 179.599 114.345 179.357 116.897C179.203 118.302 179.23 119.721 179.438 121.12L181.596 128.293L177.278 129.807L170.643 104.463L169.684 83.0223Z" fill="#3D3C40"/>
<path opacity="0.1" d="M151.136 198.988L151.521 200.006L151.049 200.906C149.209 201.703 144.652 201.066 144.652 201.066C144.652 201.066 143.809 199.998 142.655 198.24C142.875 197.421 143.055 196.838 143.055 196.838L151.136 198.988Z" fill="#3D3C40"/>
<path opacity="0.1" d="M177.919 193.408C175.587 198.674 167.66 196.72 165.458 196.061C165.095 195.952 164.896 195.879 164.896 195.879C164.896 195.879 164.91 195.45 164.915 194.774C165.174 193.677 165.455 192.772 165.455 192.772C165.455 192.772 174.647 189.662 176.088 191.574C176.52 192.136 177.037 192.628 177.621 193.032C177.709 193.166 177.808 193.292 177.919 193.408Z" fill="#3D3C40"/>
<path d="M177.517 186.715C175.598 190.696 177.919 192.931 177.919 192.931C175.587 198.195 167.661 196.243 165.458 195.581C165.095 195.475 164.896 195.402 164.896 195.402C164.896 195.402 165.056 189.9 164.496 187.27C163.937 184.639 164.015 173.563 164.336 172.209C164.657 170.854 164.814 168.221 164.814 168.221C164.814 168.221 164.575 165.114 164.974 163.6C165.095 163.191 165.103 162.757 164.998 162.344C164.893 161.931 164.679 161.553 164.378 161.25L164.336 161.208C164.336 161.208 162.578 167.186 161.937 168.218C161.295 169.25 161.059 174.435 160.977 175.391C160.896 176.348 157.619 184.32 157.619 184.32C157.619 184.32 156.342 187.985 156.103 189.02C155.864 190.054 154.902 193.007 154.902 193.007L151.048 200.421C149.209 201.218 144.652 200.581 144.652 200.581C144.652 200.581 143.774 199.459 142.573 197.631C141.372 195.803 140.815 189.345 140.815 189.345C140.815 189.345 145.212 189.264 144.092 185.04C142.973 180.817 145.051 177.548 144.973 176.112C144.894 174.676 145.932 169.977 146.492 169.259C147.051 168.541 146.97 165.512 146.809 163.838C146.649 162.164 146.731 156.267 146.731 156.267C146.731 156.267 146.891 153.637 147.69 152.442C148.489 151.248 148.171 147.818 148.171 147.818C148.171 147.818 149.687 147.022 148.649 139.291C147.611 131.56 150.337 121.518 150.337 121.518L150.43 120.116L150.576 117.844C150.576 117.844 173.441 116.409 175.28 118.161C175.761 118.648 176.156 119.212 176.448 119.83C177.077 121.178 177.522 122.605 177.77 124.072L178.729 148.222L179.688 165.995L179.367 179.384C179.367 179.384 179.438 182.727 177.517 186.715Z" fill="#145DBF"/>
<path opacity="0.1" d="M170.739 139.052L168.339 190.856L165.459 195.579C165.096 195.472 164.896 195.399 164.896 195.399C164.896 195.399 165.057 189.897 164.497 187.267C163.937 184.637 164.016 173.56 164.337 172.206C164.657 170.851 164.815 168.218 164.815 168.218C164.815 168.218 164.576 165.111 164.975 163.597C165.095 163.188 165.103 162.754 164.999 162.341C164.894 161.928 164.68 161.55 164.379 161.247L164.418 160.967L170.739 139.052Z" fill="#3D3C40"/>
<path opacity="0.1" d="M144.9 194.684C144.9 194.684 151.136 192.214 152.095 193.001C153.054 193.789 144.742 194.992 144.742 194.992L144.9 194.684Z" fill="#3D3C40"/>
<path opacity="0.1" d="M175.68 188.147C175.441 188.229 169.365 190.391 169.925 192.69C170.485 194.99 175.68 188.147 175.68 188.147Z" fill="#3D3C40"/>
<path d="M156.693 70.2325C156.693 70.2325 158.73 75.1341 157.653 77.6467C156.575 80.1592 169.283 84.4608 169.283 84.4608C169.283 84.4608 165.568 74.8958 169.165 69.5146C172.763 64.1334 156.693 70.2325 156.693 70.2325Z" fill="white"/>
<path d="M231.103 212.137C228.645 212.675 225.407 215.126 225.407 215.126C225.407 215.126 219.171 216.441 214.913 215.844C210.654 215.247 211.377 210.642 214.674 209.507C216.96 208.722 219.303 206.784 220.527 205.674C221.067 205.177 221.388 204.832 221.388 204.832L233.322 202.44C233.322 202.44 233.516 203.105 233.786 204.022C234.265 205.64 234.971 208.04 235.241 208.954C235.66 210.404 233.561 211.599 231.103 212.137Z" fill="#3D3C40"/>
<path d="M228.046 202.931C228.046 202.931 223.008 203.469 220.91 202.275C218.811 201.08 215.813 202.993 215.813 202.993C215.813 202.993 207.178 202.813 204.3 201.916C201.423 201.019 204.719 196.588 209.397 197.014C211.102 197.168 212.255 196.796 213.034 196.263C213.848 195.707 214.415 194.859 214.617 193.896L224.743 194.493L226.15 198.071L228.046 202.931Z" fill="#3D3C40"/>
<path opacity="0.1" d="M226.304 199.703C226.304 199.703 214.535 197.785 213.033 196.263C213.847 195.707 214.414 194.859 214.617 193.896L224.743 194.493L226.149 198.071L226.304 199.703Z" fill="#3D3C40"/>
<path d="M208.857 132.577L208.978 150.089C208.978 150.089 209.397 163.241 209.397 165.036C209.397 166.83 209.457 170.832 209.457 170.832C209.457 170.832 210.357 175.733 210.897 177.349C211.437 178.964 211.856 186.322 211.856 186.322C211.856 186.322 213.116 188.355 212.576 189.126C212.036 189.897 214.674 191.577 214.674 191.577C214.674 191.577 212.987 193.91 212.877 195.464C212.767 197.017 226.305 199.224 226.305 199.224L221.031 145.308L216.832 131.801L208.857 132.577Z" fill="#3D3C40"/>
<path opacity="0.1" d="M208.857 132.577L208.978 150.089C208.978 150.089 209.397 163.241 209.397 165.036C209.397 166.83 209.457 170.832 209.457 170.832C209.457 170.832 210.357 175.733 210.897 177.349C211.437 178.964 211.856 186.322 211.856 186.322C211.856 186.322 213.116 188.355 212.576 189.126C212.036 189.897 214.674 191.577 214.674 191.577C214.674 191.577 212.987 193.91 212.877 195.464C212.767 197.017 226.305 199.224 226.305 199.224L221.031 145.308L216.832 131.801L208.857 132.577Z" fill="#3D3C40"/>
<path opacity="0.1" d="M233.787 204.036C229.869 213.348 220.55 206.161 220.55 206.161C220.55 206.161 220.55 205.982 220.527 205.674C221.067 205.177 221.388 204.832 221.388 204.832L233.323 202.44C233.323 202.44 233.517 203.119 233.787 204.036Z" fill="#3D3C40"/>
<path d="M233.922 203.231C230.082 213.046 220.55 205.682 220.55 205.682C220.55 205.682 220.249 200.601 220.851 198.271C221.452 195.94 220.19 188.944 220.19 188.944C220.19 188.944 219.469 182.727 218.811 181.294C218.153 179.861 218.212 176.99 218.212 176.751C218.212 176.513 218.451 174.598 217.911 173.283C217.371 171.968 217.067 168.74 217.067 168.74C217.067 168.74 217.067 164.197 216.527 161.508L214.668 152.254L211.31 133.304L212.359 133.124L231.157 129.838C231.157 129.838 234.695 147.784 233.494 149.624C233.235 150.028 233.007 150.911 232.819 152.05C232.133 156.121 231.877 163.432 231.877 163.432C231.877 163.432 234.214 167.077 233.317 169.648C232.419 172.22 234.161 176.463 234.161 176.463C234.161 176.463 234.701 193.201 233.68 194.875C232.659 196.549 233.922 203.231 233.922 203.231Z" fill="#3D3C40"/>
<path d="M201.462 108.249C201.462 108.249 194.267 106.176 193.068 108.209C191.87 110.242 193.428 114.704 195.6 115.422C197.771 116.139 202.756 112.99 202.756 112.99L201.462 108.249Z" fill="white"/>
<path d="M201.462 108.249C201.462 108.249 194.267 106.176 193.068 108.209C191.87 110.242 193.428 114.704 195.6 115.422C197.771 116.139 202.756 112.99 202.756 112.99L201.462 108.249Z" fill="#3D3C40" fill-opacity="0.56"/>
<path d="M209.697 104.724L206.699 107.475C206.699 107.475 201.481 107.951 199.982 107.592C199.982 107.592 201.363 116.798 199.383 117.934L211.495 115.483L209.697 104.724Z" fill="#3D3C40"/>
<path opacity="0.1" d="M209.697 104.724L206.699 107.475C206.699 107.475 201.481 107.951 199.982 107.592C199.982 107.592 201.363 116.798 199.383 117.934L211.495 115.483L209.697 104.724Z" fill="#3D3C40"/>
<path opacity="0.1" d="M171.202 65.2102C171.202 67.5901 170.254 69.8725 168.566 71.5553C166.878 73.2381 164.588 74.1835 162.201 74.1835C157.583 71.971 153.2 70.1708 153.2 65.2102C153.152 64.0029 153.35 62.7984 153.78 61.6689C154.21 60.5394 154.865 59.5082 155.705 58.6371C156.545 57.7661 157.553 57.073 158.668 56.5997C159.783 56.1263 160.982 55.8823 162.194 55.8823C163.406 55.8823 164.606 56.1263 165.721 56.5997C166.836 57.073 167.844 57.7661 168.683 58.6371C169.523 59.5082 170.178 60.5394 170.608 61.6689C171.039 62.7984 171.236 64.0029 171.188 65.2102H171.202Z" fill="#3D3C40"/>
<path d="M171.201 64.9691C171.203 67.0794 170.457 69.1224 169.095 70.7378C167.732 72.3532 165.842 73.4373 163.756 73.7988C161.671 74.1603 159.524 73.7761 157.695 72.7138C155.866 71.6516 154.472 69.9796 153.759 67.9927C153.046 66.0058 153.059 63.8316 153.797 61.8535C154.534 59.8755 155.949 58.2207 157.791 57.1809C159.633 56.1411 161.784 55.7831 163.865 56.1701C165.946 56.5572 167.823 57.6643 169.165 59.2962C170.479 60.8967 171.199 62.9006 171.201 64.9691Z" fill="white"/>
<path fill-rule="evenodd" clip-rule="evenodd" d="M169.095 70.7378C170.457 69.1224 171.203 67.0794 171.201 64.9691C171.199 62.9006 170.479 60.8967 169.165 59.2962C167.823 57.6643 165.946 56.5572 163.865 56.1701C161.784 55.7831 159.633 56.1411 157.791 57.1809C155.949 58.2207 154.534 59.8755 153.797 61.8535C153.059 63.8316 153.046 66.0058 153.759 67.9927C154.442 69.8971 155.752 71.5122 157.47 72.5784C157.9 74.1883 158.241 76.274 157.652 77.6467C156.575 80.1592 169.283 84.4608 169.283 84.4608C169.283 84.4608 166.443 77.1501 168.133 71.7158C168.476 71.4163 168.798 71.0897 169.095 70.7378Z" fill="#3D3C40" fill-opacity="0.32"/>
<path opacity="0.1" d="M176.448 119.838C175.558 120.389 174.626 120.871 173.661 121.279C173.661 121.279 169.104 120.62 168.446 121.397C167.788 122.174 161.976 122.474 161.976 122.474C161.976 122.474 153.102 122.056 151.783 120.921C151.375 120.591 150.921 120.323 150.436 120.124L150.582 117.853C150.582 117.853 173.447 116.417 175.286 118.17C175.765 118.657 176.158 119.221 176.448 119.838Z" fill="#3D3C40"/>
<path d="M177.559 118.231C177.379 119.246 173.66 120.8 173.66 120.8C173.66 120.8 169.103 120.144 168.445 120.921C167.787 121.697 161.976 121.997 161.976 121.997C161.976 121.997 153.101 121.577 151.782 120.441C150.463 119.305 147.524 118.759 147.524 118.759C147.524 118.759 146.024 108.12 146.626 105.789C147.228 103.459 145.726 97.0599 145.366 94.7885C145.006 92.5172 146.384 86.2414 148.064 85.2263C149.743 84.2112 152.142 80.8014 153.58 79.7863C154.792 78.931 156.131 77.8233 156.522 77.4897L156.637 77.3943C156.637 77.3943 156.879 75.5408 157.838 74.5901C158.797 73.6395 167.61 80.6275 167.61 80.6275C167.61 80.6275 167.672 81.1659 168.271 80.1508C168.406 79.9237 169.567 81.595 169.77 82.3016C169.77 82.3016 174.566 90.672 174.867 92.3966C175.168 94.1212 176.425 99.7491 176.664 101.123C176.726 101.476 176.827 102.716 176.945 104.376C176.968 104.701 176.988 105.046 177.013 105.405C177.19 108.159 177.381 111.675 177.497 114.334C177.497 114.636 177.522 114.928 177.53 115.208C177.591 116.215 177.601 117.224 177.559 118.231Z" fill="white"/>
<path opacity="0.1" d="M147.11 96.6505C147.11 96.6505 150.407 100.655 151.487 100.655C152.567 100.655 147.11 96.6505 147.11 96.6505Z" fill="#3D3C40"/>
<path opacity="0.1" d="M154.055 105.259C154.055 105.259 148.658 111.117 149.378 112.194C150.098 113.271 154.055 105.259 154.055 105.259Z" fill="#3D3C40"/>
<path opacity="0.1" d="M150.098 116.916C150.098 116.916 156.286 110.161 156.567 107.831L150.098 116.916Z" fill="#3D3C40"/>
<path opacity="0.1" d="M157.892 117.393C157.892 117.393 165.028 113.627 165.627 110.638C166.226 107.648 157.892 117.393 157.892 117.393Z" fill="#3D3C40"/>
<path opacity="0.1" d="M166.946 81.0509L165.956 83.4401L167.604 84.2169L169.225 88.7316C169.225 88.7316 173.691 97.6376 173.511 102.27C173.331 106.903 174.321 113.865 174.321 113.865L176.898 113.389L175.683 99.7631C175.493 97.6535 174.963 95.5883 174.113 93.6473C172.054 88.9475 168.223 80.2714 167.981 80.2714C167.652 80.2714 167.883 80.392 167.883 80.392L166.946 81.0509Z" fill="#3D3C40"/>
<path d="M167.185 80.8098L166.195 83.2017L167.846 83.9785L169.464 88.4932C169.464 88.4932 173.93 97.3992 173.75 102.032C173.57 106.664 174.561 113.627 174.561 113.627L177.14 113.15L175.922 99.5248C175.735 97.4151 175.206 95.3496 174.355 93.4089C172.296 88.7063 168.465 80.033 168.226 80.033C167.894 80.033 168.125 80.1536 168.125 80.1536L167.185 80.8098Z" fill="#3D3C40"/>
<path d="M196.385 115.94C195.13 115.845 192.121 114.328 190.925 113.697L190.419 113.417L190.481 108.787C190.776 108.614 191.083 108.459 191.398 108.324C192.995 107.629 196.272 106.684 197.915 109.726C200.132 113.806 197.974 116.047 196.385 115.94Z" fill="white"/>
<path d="M196.385 115.94C195.13 115.845 192.121 114.328 190.925 113.697L190.419 113.417L190.481 108.787C190.776 108.614 191.083 108.459 191.398 108.324C192.995 107.629 196.272 106.684 197.915 109.726C200.132 113.806 197.974 116.047 196.385 115.94Z" fill="#3D3C40" fill-opacity="0.32"/>
<path opacity="0.1" d="M169.166 59.2962C169.037 59.3767 168.895 59.4346 168.747 59.4673C167.703 59.6944 166.516 58.7999 165.622 59.3748C165.076 59.7281 164.949 60.46 164.876 61.1049C164.749 62.2266 164.621 63.3408 164.494 64.4475C164.467 64.8415 164.384 65.2296 164.246 65.6C163.805 66.6067 162.592 67.0806 161.487 67.0638C161.054 67.0945 160.626 66.9534 160.297 66.6712C160.103 66.4749 159.999 66.2001 159.785 66.0206C158.379 64.8457 157.951 67.7256 158.323 68.5444C158.919 69.882 161.037 71.1719 160.148 72.8712C159.999 73.1474 159.772 73.3744 159.495 73.5246C158.156 73.1064 156.933 72.3817 155.925 71.4084C154.916 70.4351 154.15 69.2402 153.688 67.9191C153.225 66.598 153.079 65.1873 153.26 63.7998C153.442 62.4123 153.947 61.0863 154.734 59.9279C155.521 58.7695 156.569 57.8107 157.795 57.1281C159.02 56.4455 160.388 56.058 161.791 55.9967C163.193 55.9353 164.59 56.2017 165.871 56.7746C167.151 57.3475 168.28 58.2111 169.166 59.2962Z" fill="#3D3C40"/>
<path d="M159.546 66.0094C159.757 66.1861 159.863 66.4609 160.058 66.6572C160.387 66.9391 160.814 67.0802 161.247 67.0498C162.353 67.0666 163.565 66.5955 164.004 65.5832C164.144 65.2144 164.228 64.8269 164.254 64.4335L164.637 61.0909C164.71 60.446 164.834 59.7141 165.382 59.3607C166.277 58.7999 167.464 59.6804 168.507 59.4533C168.883 59.358 169.209 59.1235 169.418 58.7974C169.627 58.4714 169.704 58.0782 169.632 57.6979C169.511 57.1623 169.101 56.7388 168.89 56.2285C168.762 55.8363 168.659 55.4364 168.583 55.0311C168.001 52.8551 165.438 51.6325 163.211 51.997C161.973 52.2017 160.823 52.7906 159.582 52.97C158.693 53.099 157.785 53.0149 156.888 53.1103C156.054 53.196 155.243 53.4346 154.497 53.8141C154.301 53.9006 154.127 54.0311 153.99 54.1955C153.863 54.4174 153.777 54.6607 153.737 54.9133C153.436 56.035 152.469 56.8622 151.768 57.8072C150.967 58.8945 150.504 60.1922 150.435 61.5396C150.407 61.8837 150.44 62.23 150.531 62.5631C150.59 62.7594 150.683 62.9501 150.728 63.152C150.865 63.7661 150.55 64.3802 150.396 64.9915C150.203 65.7716 150.273 66.593 150.593 67.3302C151.673 69.8063 155.231 70.6335 155.971 73.2329C156.627 73.5469 157.337 73.7371 158.063 73.7938C158.789 73.8078 159.571 73.4965 159.908 72.8544C160.794 71.1719 158.679 69.8651 158.083 68.5304C157.709 67.7087 158.128 64.8317 159.546 66.0094Z" fill="#3D3C40"/>
<path opacity="0.1" d="M230.684 71.228C230.235 72.5091 230.044 73.8661 230.122 75.2211C229.689 75.5884 229.216 74.4892 228.715 74.7724C227.343 75.5632 225.756 77.4448 224.057 77.4448C222.584 77.4458 221.131 77.0988 219.819 76.4325C219.409 74.8579 218.844 73.3277 218.131 71.8645C218.131 71.8645 232.603 65.729 230.684 71.228Z" fill="#3D3C40"/>
<path fill-rule="evenodd" clip-rule="evenodd" d="M231.823 72.823C232.851 71.2893 233.4 69.4861 233.4 67.6414C233.4 66.4165 233.159 65.2036 232.689 64.0718C232.219 62.9401 231.53 61.9118 230.661 61.0457C229.792 60.1795 228.761 59.4925 227.625 59.024C226.49 58.5554 225.273 58.3144 224.045 58.3148C222.194 58.3148 220.386 58.8618 218.847 59.8866C217.309 60.9114 216.11 62.368 215.402 64.0723C214.693 65.7765 214.508 67.6518 214.869 69.461C215.23 71.2702 216.121 72.932 217.43 74.2364C218.089 74.8938 218.84 75.4456 219.654 75.8772C219.707 76.0617 219.757 76.2468 219.806 76.4325C220.616 79.5283 220.996 83.628 218.928 86.8471C215.092 92.8256 232.12 80.8715 232.12 80.8715C230.92 79.219 230.221 77.2579 230.106 75.2211C230.097 75.0672 230.092 74.9132 230.09 74.7594C230.752 74.2006 231.336 73.5498 231.823 72.823Z" fill="white"/>
<path fill-rule="evenodd" clip-rule="evenodd" d="M231.823 72.823C232.851 71.2893 233.4 69.4861 233.4 67.6414C233.4 66.4165 233.159 65.2036 232.689 64.0718C232.219 62.9401 231.53 61.9118 230.661 61.0457C229.792 60.1795 228.761 59.4925 227.625 59.024C226.49 58.5554 225.273 58.3144 224.045 58.3148C222.194 58.3148 220.386 58.8618 218.847 59.8866C217.309 60.9114 216.11 62.368 215.402 64.0723C214.693 65.7765 214.508 67.6518 214.869 69.461C215.23 71.2702 216.121 72.932 217.43 74.2364C218.089 74.8938 218.84 75.4456 219.654 75.8772C219.707 76.0617 219.757 76.2468 219.806 76.4325C220.616 79.5283 220.996 83.628 218.928 86.8471C215.092 92.8256 232.12 80.8715 232.12 80.8715C230.92 79.219 230.221 77.2579 230.106 75.2211C230.097 75.0672 230.092 74.9132 230.09 74.7594C230.752 74.2006 231.336 73.5498 231.823 72.823Z" fill="#3D3C40" fill-opacity="0.56"/>
<path d="M233.001 82.9438C233.001 82.9438 231.24 84.8562 231.001 85.0132C230.762 85.1703 225.656 106.605 225.566 106.855C225.476 107.104 219.488 126.459 219.488 126.459L209.894 131.161L210.695 107.489L217.727 87.966C217.727 87.966 220.048 85.3357 220.765 84.3795C221.482 83.4233 230.438 77.6832 230.438 77.6832L231.968 80.8266L233.001 82.9438Z" fill="#166DE0" fill-opacity="0.08"/>
<path opacity="0.1" d="M231.732 81.3061L220.701 89.1802L220.523 84.8562C221.244 83.9 230.197 78.1627 230.197 78.1627L231.732 81.3061Z" fill="#3D3C40"/>
<path d="M231.971 80.8266L220.939 88.7007L220.768 84.3795C221.488 83.4205 230.441 77.6832 230.441 77.6832L231.971 80.8266Z" fill="#166DE0" fill-opacity="0.08"/>
<path d="M220.4 82.4558L220.769 84.3795L218.302 86.878L220.271 82.4839C220.271 82.4839 216.052 85.4142 214.786 86.191C213.52 86.9677 212.254 89.598 212.206 90.3159C212.159 91.0338 210.167 101.852 210.167 101.852C210.167 101.852 208.668 105.857 209.09 106.992C209.512 108.128 206.812 143.934 206.812 143.934C207.172 143.239 207.683 142.631 208.306 142.155C208.929 141.678 209.65 141.345 210.418 141.178L209.456 120.018C209.456 120.018 210.626 105.941 210.685 105.761C210.744 105.582 213.413 97.4216 213.413 97.4216L220.4 82.4558Z" fill="#3D3C40"/>
<path opacity="0.1" d="M221.011 84.6178L220.82 88.5437C220.82 88.5437 218.151 96.9421 217.253 98.3162C216.356 99.6902 213.625 107.881 213.625 107.881L212.086 122.109L209.448 123.307L208.148 120.921L210.309 107.18C210.309 107.18 214.384 95.5849 214.986 94.3875L217.993 88.0726L221.011 84.6178Z" fill="#3D3C40"/>
<path d="M220.77 84.3795L220.581 88.3053C220.581 88.3053 217.912 96.7038 217.012 98.0778C216.112 99.4519 213.386 107.643 213.386 107.643L211.856 121.868L209.218 123.063L207.898 120.674L210.059 106.933C210.059 106.933 214.134 95.3354 214.733 94.1408L217.763 87.8342L220.77 84.3795Z" fill="#145DBF"/>
<path d="M189.67 114.345L194.826 117.903C194.826 117.903 198.463 115.87 196.345 114.555C194.227 113.24 192.348 113.041 191.667 113.041C190.986 113.041 189.67 114.345 189.67 114.345Z" fill="white"/>
<path d="M189.671 114.345L194.827 117.903C194.827 117.903 198.464 115.87 196.346 114.555C194.228 113.24 192.349 113.041 191.668 113.041C190.987 113.041 189.671 114.345 189.671 114.345Z" fill="#3D3C40" fill-opacity="0.56"/>
<path d="M193.522 107.766C193.406 107.838 193.312 107.937 193.246 108.056C193.181 108.174 193.147 108.307 193.147 108.442C193.147 109.533 193.271 112.421 194.188 111.117C195.313 109.522 195.108 108.089 196.827 109.123C197.895 109.787 198.83 110.642 199.583 111.647L199.105 108.22C199.105 108.22 195.572 106.482 193.522 107.766Z" fill="white"/>
<path d="M193.522 107.766C193.406 107.838 193.312 107.937 193.246 108.056C193.181 108.174 193.147 108.307 193.147 108.442C193.147 109.533 193.271 112.421 194.188 111.117C195.313 109.522 195.108 108.089 196.827 109.123C197.895 109.787 198.83 110.642 199.583 111.647L199.105 108.22C199.105 108.22 195.572 106.482 193.522 107.766Z" fill="#3D3C40" fill-opacity="0.56"/>
<path opacity="0.1" d="M233.499 149.613C233.24 150.017 233.012 150.9 232.824 152.038C222.309 155.182 214.616 148.536 214.616 148.536C213.686 145.392 212.925 142.2 212.338 138.974C212.15 137.869 212.192 135.726 212.366 133.113L231.164 129.827C231.164 129.827 234.7 147.759 233.499 149.613Z" fill="#3D3C40"/>
<path d="M244.292 96.1121C243.813 97.6684 243.993 100.834 243.993 100.834L239.676 121.159C239.676 121.159 237.577 136.82 237.217 138.912C236.857 141.004 236.258 150.21 236.258 150.21C224.025 156.188 214.6 148.059 214.6 148.059C213.669 144.914 212.909 141.721 212.322 138.494C211.72 134.944 213.492 120.721 214.33 114.404C214.58 112.533 214.749 111.356 214.749 111.356L217.896 99.6986C217.896 99.6986 221.764 89.8644 223.204 86.9958C224.644 84.1271 230.427 77.6831 230.427 77.6831C231.145 77.2289 232.292 78.8328 233.145 80.2938C233.789 81.3987 234.27 82.425 234.27 82.425C234.27 82.425 241.465 85.532 242.542 87.1921C243.619 88.8521 243.442 92.2732 243.563 92.4527C243.684 92.6321 244.773 94.5586 244.292 96.1121Z" fill="#3D3C40"/>
<path opacity="0.1" d="M227.325 88.8802C227.325 88.8802 227.865 92.0489 226.481 93.0051C225.145 93.9305 215.199 113.428 214.58 114.645C214.83 112.772 214.999 111.594 214.999 111.594L218.147 99.9398C218.147 99.9398 222.017 90.1056 223.454 87.2341C224.892 84.3627 230.68 77.9215 230.68 77.9215C231.398 77.4672 232.543 79.0712 233.395 80.5322C232.109 83.1933 229.429 88.224 227.325 88.8802Z" fill="#3D3C40"/>
<path d="M227.086 88.6418C227.086 88.6418 227.624 91.8105 226.242 92.7667C224.861 93.7229 214.963 113.187 214.336 114.404C214.586 112.533 214.755 111.356 214.755 111.356L217.903 99.6986C217.903 99.6986 221.77 89.8644 223.21 86.9958C224.65 84.1271 230.433 77.6831 230.433 77.6831C231.151 77.2289 232.298 78.8328 233.151 80.2938C231.871 82.9522 229.187 87.9856 227.086 88.6418Z" fill="#3D3C40"/>
<path d="M241.355 117.275L237.971 134.826V134.829L237.647 136.509V136.512L236.919 140.289L233.811 139.633L232.362 139.327L212.316 135.093L210.842 134.781L207.478 134.072L208.136 129.714L208.409 127.903L210.836 111.835L241.355 117.275Z" fill="#166DE0"/>
<path d="M222.648 131.621C222.648 131.621 214.674 134.49 216.412 137.897C218.15 141.304 229.303 135.267 229.303 135.267L222.648 131.621Z" fill="white"/>
<path d="M222.646 131.621C222.646 131.621 214.672 134.49 216.41 137.897C218.148 141.304 229.301 135.267 229.301 135.267L222.646 131.621Z" fill="#3D3C40" fill-opacity="0.56"/>
<path opacity="0.1" d="M228.344 156.068C228.344 156.306 228.645 159.357 229.842 160.431C231.04 161.505 228.344 156.068 228.344 156.068Z" fill="#3D3C40"/>
<path opacity="0.1" d="M220.311 166.886C220.311 166.886 221.748 170.832 227.444 172.447C233.14 174.062 220.311 166.886 220.311 166.886Z" fill="#3D3C40"/>
<path opacity="0.1" d="M233.401 67.6414C233.401 69.281 232.968 70.8917 232.144 72.3111C231.321 73.7304 230.137 74.9083 228.712 75.7258C228.174 75.4261 227.697 75.0296 227.305 74.5565C226.897 74.063 226.58 73.39 226.824 72.8011C227.021 72.3272 227.542 72.0271 227.668 71.5364C227.728 71.2363 227.712 70.9262 227.623 70.6335C227.519 70.1708 227.421 69.7081 227.319 69.2482C227.232 68.8556 227.077 68.393 226.686 68.2976C226.295 68.2023 225.969 68.5276 225.663 68.7687C224.912 69.3604 223.471 69.7614 222.569 69.2763C221.666 68.7911 221.919 67.1675 221.772 66.2898C221.771 66.2136 221.752 66.1387 221.718 66.0703C221.684 66.002 221.635 65.942 221.576 65.8944C221.444 65.851 221.304 65.8413 221.168 65.8664C220.681 65.8664 220.29 65.4318 220.15 64.9663C220.05 64.491 219.995 64.0075 219.986 63.5221C219.933 63.037 219.756 62.5238 219.339 62.2743C219.007 62.1199 218.638 62.0598 218.273 62.1004L216.51 62.12C217.68 60.5431 219.319 59.3741 221.193 58.7791C223.068 58.1841 225.083 58.1935 226.952 58.8059C228.821 59.4184 230.449 60.6026 231.604 62.1904C232.759 63.7781 233.383 65.6885 233.386 67.6499L233.401 67.6414Z" fill="#3D3C40"/>
<path d="M225.914 68.7687C226.22 68.5275 226.558 68.2079 226.938 68.3004C227.317 68.3929 227.481 68.8612 227.568 69.2482L227.872 70.6307C227.962 70.9242 227.978 71.2351 227.919 71.5364C227.776 72.0299 227.258 72.3272 227.059 72.8011C226.814 73.39 227.135 74.063 227.54 74.5537C228.278 75.4413 229.3 76.05 230.434 76.2782C230.73 76.3492 231.038 76.3559 231.337 76.2979C232.006 76.1436 232.462 75.5295 232.822 74.9547C234.681 72.0664 236.282 68.9005 236.608 65.485C236.698 64.7884 236.665 64.0815 236.512 63.3959C236.36 62.863 236.145 62.35 235.871 61.8677C235.392 60.8822 234.784 59.9647 234.063 59.1392C232.783 57.7652 231.016 56.9211 229.202 56.422C227.161 55.8575 225.031 55.6909 222.927 55.9312C222.364 55.9957 221.824 56.0883 221.27 56.1247C220.574 56.157 219.877 56.1457 219.183 56.0911L215.043 55.8443C214.806 56.3238 215.043 56.8931 215.324 57.3417C215.605 57.7904 215.954 58.2559 215.931 58.7887C215.909 59.3215 215.529 59.7421 215.237 60.1908C214.944 60.6394 214.722 61.2199 215.014 61.6573C215.307 62.0948 215.903 62.1228 216.421 62.1172L218.508 62.0948C218.871 62.0575 219.238 62.1206 219.568 62.2771C219.985 62.5266 220.162 63.0426 220.215 63.5249C220.227 64.0101 220.281 64.4934 220.378 64.9691C220.522 65.4346 220.91 65.8748 221.397 65.8692C221.533 65.8421 221.674 65.8528 221.804 65.9C221.864 65.947 221.913 66.0066 221.947 66.0744C221.981 66.1423 221.999 66.2168 222.001 66.2926C222.148 67.1703 221.878 68.7911 222.797 69.2791C223.717 69.767 225.163 69.3604 225.914 68.7687Z" fill="#3D3C40"/>
<path opacity="0.1" d="M237.804 87.1893C236.769 87.0798 235.729 87.324 234.852 87.882C233.975 88.44 233.315 89.2785 232.98 90.2598C231.855 93.4538 229.978 99.2163 230.448 101.493C231.109 104.721 231.888 110.102 231.888 110.102C231.888 110.102 235.306 112.065 233.576 114.045C231.846 116.024 231.357 118.829 231.357 118.829C231.357 118.829 229.137 119.785 228.659 121.818C228.181 123.851 224.941 126.658 224.941 126.658L220.086 131.501C220.086 131.501 228.119 139.633 229.739 140.048L234.715 134.249L240.591 126.478L245.688 121.15C245.688 121.15 246.886 118.346 246.287 113.018C245.688 107.691 243.348 102.618 243.348 102.618L243.528 100.823C243.528 100.823 244.079 87.966 237.804 87.1893Z" fill="#3D3C40"/>
<path d="M238.281 87.1892C237.248 87.0811 236.208 87.326 235.333 87.8839C234.458 88.4417 233.798 89.2795 233.463 90.2598C232.338 93.4537 230.462 99.2163 230.931 101.493C231.59 104.721 232.369 110.102 232.369 110.102C232.369 110.102 235.786 112.065 234.056 114.045C232.327 116.024 231.84 118.829 231.84 118.829C231.84 118.829 229.621 119.785 229.14 121.818C228.659 123.851 225.424 126.658 225.424 126.658L220.566 131.501C220.566 131.501 228.6 139.633 230.22 140.048L235.196 134.249L241.057 126.478L246.154 121.15C246.154 121.15 247.355 118.346 246.753 113.018C246.151 107.69 243.817 102.618 243.817 102.618L243.997 100.823C243.997 100.823 244.557 87.966 238.281 87.1892Z" fill="#3D3C40"/>
<path opacity="0.1" d="M233.26 105.38C233.26 105.38 238.357 111.594 240.517 110.22C242.677 108.846 233.26 105.38 233.26 105.38Z" fill="#3D3C40"/>
<path opacity="0.1" d="M235.18 100.596C235.72 100.775 240.158 106.933 242.437 106.204C244.715 105.475 235.18 100.596 235.18 100.596Z" fill="#3D3C40"/>
<path opacity="0.1" d="M236.439 111.173C236.439 111.173 236.74 114.701 240.397 114.221C244.054 113.742 236.439 111.173 236.439 111.173Z" fill="#3D3C40"/>
<path opacity="0.1" d="M220.279 82.7222L218.303 87.1163L220.771 84.6178L220.279 82.7222Z" fill="#3D3C40"/>
<path d="M220.279 82.4839L218.303 86.878L220.771 84.3795L220.279 82.4839Z" fill="#166DE0" fill-opacity="0.08"/>
<path opacity="0.3" d="M212.316 135.093L210.842 134.781L208.136 129.714L208.409 127.903L212.316 135.093Z" fill="#3D3C40"/>
<path opacity="0.3" d="M237.972 134.829L237.649 136.509V136.512L233.812 139.633L232.363 139.327L237.972 134.829Z" fill="#3D3C40"/>
<path opacity="0.1" d="M177.522 115.22C176.779 115.343 176.059 115.455 175.401 115.539C171.744 116.019 163.047 111.714 163.047 111.714C163.047 111.714 152.435 102.867 149.377 94.4997C146.32 86.1321 153.034 84.8758 153.034 84.8758C155.565 83.4401 161.07 87.4444 161.849 88.1034C162.628 88.7624 163.289 90.4337 163.227 91.5105C163.165 92.5873 165.027 93.9613 165.027 93.9613C165.027 93.9613 168.206 99.4603 168.985 100.058C169.764 100.655 169.944 101.193 170.183 102.211C170.422 103.229 172.521 104.065 173.421 104.003C174.321 103.941 175.39 104.303 175.39 104.78C175.39 105.164 176.27 105.355 176.993 105.416C177.207 108.481 177.418 112.497 177.522 115.22Z" fill="#3D3C40"/>
<path opacity="0.1" d="M177.489 114.345C176.926 114.434 176.386 114.516 175.88 114.583C172.223 115.063 163.529 110.758 163.529 110.758C163.529 110.758 152.916 101.911 149.859 93.5435C146.801 85.1759 153.515 83.9196 153.515 83.9196C156.047 82.4839 161.548 86.4882 162.328 87.1472C163.107 87.8062 163.768 89.4774 163.709 90.5542C163.65 91.631 165.506 93.0051 165.506 93.0051C165.506 93.0051 168.685 98.504 169.464 99.1013C170.243 99.6986 170.423 100.237 170.665 101.255C170.907 102.273 173.002 103.106 173.902 103.047C174.802 102.988 175.871 103.347 175.871 103.824C175.871 104.104 176.372 104.292 176.929 104.384C176.951 104.71 176.971 105.055 176.996 105.413C177.182 108.17 177.373 111.686 177.489 114.345Z" fill="#3D3C40"/>
<path opacity="0.1" d="M191.397 108.324L191.17 113.697H190.925L190.419 113.417L190.481 108.787C190.776 108.614 191.082 108.459 191.397 108.324Z" fill="#3D3C40"/>
<path d="M153.034 84.3963C153.034 84.3963 146.32 85.6526 149.377 94.0202C152.435 102.388 163.047 111.238 163.047 111.238C163.047 111.238 171.742 115.539 175.401 115.063C179.06 114.586 184.633 113.33 185.353 113.509C186.073 113.689 190.93 113.689 190.93 113.689L191.169 108.08L185.544 107.78L182.666 107.183C182.666 107.183 181.645 106.342 181.046 106.465C180.447 106.588 179.19 105.747 179.19 105.747C179.19 105.747 178.228 104.97 177.502 104.97C176.776 104.97 175.404 104.791 175.404 104.314C175.404 103.838 174.324 103.473 173.435 103.538C172.546 103.602 170.422 102.761 170.175 101.732C169.927 100.703 169.756 100.178 168.977 99.5808C168.197 98.9836 165.019 93.4818 165.019 93.4818C165.019 93.4818 163.16 92.1078 163.219 91.0338C163.278 89.9598 162.62 88.2829 161.841 87.6239C161.061 86.9649 155.548 82.9634 153.034 84.3963Z" fill="white"/>
<path opacity="0.1" d="M170.304 103.644C170.304 103.644 167.726 106.215 168.384 106.692L170.304 103.644Z" fill="#3D3C40"/>
<path opacity="0.1" d="M173.06 105.677C173.06 105.677 169.703 108.249 170.602 108.428C171.502 108.607 173.06 105.677 173.06 105.677Z" fill="#3D3C40"/>
<path opacity="0.1" d="M167.362 109.491C167.843 109.732 174.976 113.977 177.677 113.916L167.362 109.491Z" fill="#3D3C40"/>
<path opacity="0.1" d="M167.846 81.1098C167.846 81.1098 166.586 85.2348 166.105 85.2348C165.728 85.2348 159.399 80.1256 156.758 77.9776L156.873 77.8822C156.873 77.8822 157.112 76.0287 158.071 75.0781C159.031 74.1275 167.846 81.1098 167.846 81.1098Z" fill="#3D3C40"/>
<path d="M167.605 80.6303C167.605 80.6303 166.347 84.7552 165.866 84.7552C165.487 84.7552 159.158 79.6461 156.517 77.4981L156.632 77.4027C156.632 77.4027 156.874 75.5492 157.833 74.5986C158.792 73.648 167.605 80.6303 167.605 80.6303Z" fill="white"/>
<g opacity="0.15">
<path opacity="0.15" d="M150.624 67.2993C151.468 69.2202 153.791 70.1512 155.139 71.6823C154.337 69.8007 151.994 68.8781 150.624 67.2993Z" fill="#3D3C40"/>
<path opacity="0.15" d="M159.223 71.7243C158.889 72.3664 158.098 72.6777 157.378 72.6637C156.738 72.6179 156.111 72.4583 155.527 72.1926C155.739 72.5039 155.901 72.8464 156.006 73.2077C156.662 73.5223 157.372 73.7125 158.098 73.7685C158.827 73.7853 159.609 73.4741 159.943 72.8291C160.481 71.8056 159.921 70.9307 159.266 70.1035C159.388 70.3577 159.448 70.6372 159.44 70.919C159.433 71.2007 159.359 71.4768 159.223 71.7243Z" fill="#3D3C40"/>
<path opacity="0.15" d="M169.661 57.6698C169.54 57.1314 169.129 56.708 168.918 56.2005C168.789 55.8077 168.686 55.4068 168.611 55.0003C168.452 54.4255 168.155 53.8975 167.748 53.4608C167.805 53.5988 167.852 53.7402 167.891 53.8842C167.97 54.2925 168.075 54.6953 168.206 55.09C168.417 55.5976 168.828 56.021 168.949 56.5594C169.02 56.9397 168.944 57.3329 168.735 57.6589C168.526 57.985 168.2 58.2195 167.824 58.3148C166.783 58.5419 165.596 57.6446 164.702 58.2223C164.153 58.5728 164.027 59.3047 163.954 59.9496C163.828 61.0713 163.7 62.1864 163.571 63.295C163.546 63.6883 163.462 64.0757 163.323 64.4447C162.882 65.4542 161.67 65.9281 160.564 65.9113C160.132 65.94 159.706 65.7991 159.377 65.5187C159.217 65.2929 159.045 65.0757 158.862 64.8681C157.456 63.6904 157.028 66.5702 157.4 67.3919C157.586 67.7615 157.816 68.1071 158.086 68.421C157.777 67.4956 158.21 64.8317 159.582 65.973C159.765 66.1799 159.936 66.3971 160.094 66.6235C160.425 66.9036 160.851 67.0444 161.284 67.0161C162.39 67.0329 163.602 66.559 164.044 65.5495C164.183 65.1796 164.266 64.7913 164.291 64.397C164.419 63.2754 164.546 62.1612 164.674 61.0545C164.747 60.4095 164.873 59.6776 165.419 59.3271C166.316 58.7494 167.503 59.6468 168.544 59.4168C168.917 59.3204 169.24 59.0865 169.447 58.7624C169.654 58.4382 169.731 58.0478 169.661 57.6698Z" fill="#3D3C40"/>
</g>
<path opacity="0.1" d="M231.936 75.5828C231.636 75.6384 231.329 75.6308 231.033 75.5604C229.9 75.3323 228.88 74.7247 228.141 73.8386C227.733 73.3451 227.413 72.6721 227.66 72.0832C227.857 71.6093 228.375 71.3121 228.504 70.8185C228.563 70.5173 228.546 70.2063 228.456 69.9128L228.152 68.5304C228.065 68.1378 227.913 67.6751 227.522 67.5825C227.131 67.49 226.805 67.8097 226.499 68.0508C225.748 68.6425 224.305 69.0463 223.405 68.5584C222.504 68.0705 222.755 66.4497 222.609 65.572C222.606 65.4962 222.587 65.4219 222.553 65.3541C222.519 65.2864 222.471 65.2267 222.412 65.1794C222.28 65.1336 222.138 65.123 222.001 65.1485C221.514 65.1485 221.126 64.7139 220.983 64.2484C220.885 63.7729 220.832 63.2895 220.822 62.8043C220.766 62.3219 220.592 61.806 220.173 61.5564C219.842 61.4013 219.476 61.3383 219.112 61.3741L217.025 61.3966C216.51 61.3966 215.9 61.3629 215.619 60.9367C215.337 60.5104 215.546 59.9047 215.841 59.4701C216.136 59.0355 216.51 58.6036 216.536 58.068C216.561 57.5324 216.212 57.0697 215.928 56.6211C215.765 56.3757 215.645 56.1045 215.574 55.8191L214.975 55.7826C214.741 56.2593 214.975 56.8286 215.256 57.28C215.537 57.7315 215.889 58.1942 215.863 58.7242C215.838 59.2542 215.464 59.6804 215.169 60.1263C214.873 60.5721 214.657 61.1554 214.949 61.5929C215.242 62.0303 215.835 62.0611 216.356 62.0555L218.443 62.0303C218.807 61.9952 219.173 62.0592 219.503 62.2154C219.922 62.4649 220.1 62.9809 220.153 63.4632C220.162 63.9486 220.216 64.4322 220.316 64.9074C220.457 65.3701 220.848 65.8131 221.334 65.8047C221.471 65.7807 221.611 65.7913 221.742 65.8356C221.802 65.8834 221.85 65.9435 221.884 66.0117C221.918 66.08 221.937 66.1548 221.939 66.2309C222.085 67.1058 221.815 68.7294 222.735 69.2174C223.655 69.7053 225.089 69.3015 225.829 68.7098C226.136 68.4687 226.476 68.149 226.856 68.2387C227.236 68.3285 227.399 68.7995 227.483 69.1865L227.79 70.5718C227.879 70.8655 227.894 71.1765 227.835 71.4775C227.694 71.9683 227.174 72.2683 226.977 72.7394C226.732 73.3283 227.05 74.0041 227.458 74.4948C228.201 75.3847 229.229 75.9926 230.369 76.2166C230.665 76.287 230.973 76.2946 231.272 76.239C231.755 76.0921 232.17 75.7778 232.442 75.3529C232.288 75.4591 232.117 75.537 231.936 75.5828Z" fill="#3D3C40"/>
</svg>
