<svg width="16" height="16" viewBox="0 0 16 16" fill="none" xmlns="http://www.w3.org/2000/svg">
<path d="M3.11015 3.11776C4.39133 1.82878 6.00492 1.1643 7.95089 1.12434C9.87825 1.16523 11.4825 1.8297 12.7637 3.11776C14.0449 4.40582 14.7153 6.01172 14.7748 7.93544C14.7143 9.85731 14.0439 11.4632 12.7637 12.7531C11.4834 14.043 9.87918 14.7089 7.95089 14.7507C6.00398 14.7108 4.3904 14.0468 3.11015 12.7587C1.82991 11.4706 1.15952 9.86475 1.099 7.94102C1.15766 6.01358 1.82805 4.40582 3.11015 3.11776Z" fill="white"/>
<path d="M7.95084 15.3404C5.84565 15.2809 4.09287 14.557 2.69251 13.1686C1.29215 11.7801 0.571958 10.0358 0.531921 7.93547C0.571958 5.85283 1.29215 4.11311 2.69251 2.71632C4.09287 1.31953 5.84565 0.591391 7.95084 0.531914C10.0374 0.590462 11.7804 1.31906 13.1798 2.71771C14.5793 4.11636 15.2995 5.85608 15.3404 7.93686C15.3004 10.0381 14.5802 11.7825 13.1798 13.17C11.7795 14.5575 10.0365 15.2809 7.95084 15.3404ZM7.95084 1.92731C6.24229 1.98679 4.82238 2.57692 3.69111 3.6977C2.55983 4.81848 1.97372 6.23107 1.93275 7.93547C1.97185 9.63987 2.55797 11.0571 3.69111 12.1872C4.82424 13.3173 6.24415 13.9023 7.95084 13.9422C9.6389 13.9023 11.0495 13.3173 12.1826 12.1872C13.3158 11.0571 13.9014 9.63987 13.9396 7.93547C13.9005 6.23014 13.3149 4.81755 12.1826 3.6977C11.0504 2.57785 9.63983 1.98725 7.95084 1.92592V1.92731Z" fill="#FFBC1F"/>
<path d="M7.95086 12.3963C6.67992 12.3554 5.62733 11.9242 4.79307 11.1026C3.95881 10.2811 3.52167 9.22537 3.48163 7.93545C3.48163 6.68642 3.8941 5.64556 4.71904 4.81288C5.54399 3.98019 6.61149 3.53411 7.92153 3.47463C9.19247 3.49415 10.2502 3.92536 11.0947 4.76827C11.9392 5.61118 12.3712 6.6669 12.3908 7.93545C12.3712 9.20399 11.9392 10.2546 11.0947 11.0873C10.258 11.9163 9.12976 12.3861 7.95086 12.3963V12.3963ZM8.01092 4.99131H7.95086C7.07656 5.03034 6.36149 5.32262 5.80563 5.86814C5.53073 6.13782 5.31674 6.46303 5.178 6.82197C5.03926 7.18091 4.97897 7.5653 5.00117 7.94939C4.99842 8.33659 5.07352 8.72042 5.22202 9.07814C5.37051 9.43587 5.58937 9.76023 5.86567 10.032C6.20795 10.3754 6.62953 10.6295 7.09332 10.7721C7.55711 10.9146 8.04889 10.9412 8.52538 10.8494C9.00188 10.7577 9.44849 10.5505 9.82589 10.246C10.2033 9.94152 10.4999 9.54912 10.6897 9.10333C10.8795 8.65754 10.9566 8.17202 10.9142 7.68951C10.8718 7.207 10.7112 6.74228 10.4466 6.33625C10.182 5.93022 9.82151 5.59533 9.39678 5.36105C8.97204 5.12677 8.49614 5.00028 8.01092 4.99271V4.99131Z" fill="#FFBC1F"/>
<path d="M7.0724 7.08374C7.30581 6.86335 7.61493 6.74054 7.93623 6.74054C8.25753 6.74054 8.56663 6.86335 8.80004 7.08374C9.02052 7.311 9.14381 7.61494 9.14381 7.93129C9.14381 8.24764 9.02052 8.55159 8.80004 8.77885C8.56663 8.99924 8.25753 9.12205 7.93623 9.12205C7.61493 9.12205 7.30581 8.99924 7.0724 8.77885C6.85289 8.55109 6.73029 8.24733 6.73029 7.93129C6.73029 7.61525 6.85289 7.3115 7.0724 7.08374V7.08374Z" fill="#FFBC1F"/>
<path d="M8.06112 8.11255C8.01786 8.15568 7.95919 8.17991 7.89801 8.17991C7.83684 8.17991 7.77818 8.15568 7.73492 8.11255C7.69166 8.06941 7.66736 8.01091 7.66736 7.94992C7.66736 7.88892 7.69166 7.83041 7.73492 7.78728L8.65385 6.87238L8.94952 7.19765L8.06112 8.11255Z" fill="#818698"/>
<path d="M15.3987 2.67438C15.4977 3.22803 14.5598 3.64326 12.585 3.92009L9.71296 7.13816C9.65002 7.20407 9.57417 7.25639 9.49012 7.29187C9.40607 7.32734 9.31561 7.34523 9.22434 7.3444C9.03566 7.34465 8.85454 7.27052 8.72045 7.13816C8.65054 7.07759 8.59453 7.00273 8.5562 6.91867C8.51788 6.8346 8.49815 6.7433 8.49835 6.65095C8.5005 6.4592 8.57424 6.27513 8.70518 6.13468L11.934 3.30001C12.2116 1.33179 12.628 0.391514 13.1833 0.479175C13.7385 0.566835 13.7876 1.25889 13.3304 2.55535C14.6112 2.08383 15.3006 2.1235 15.3987 2.67438Z" fill="#1E325C"/>
</svg>
