<svg width="376" height="376" viewBox="0 0 376 376" fill="none" xmlns="http://www.w3.org/2000/svg">
<g clip-path="url(#clip0_5_369)">
<path d="M188.918 110.754H286.69C289.619 110.733 292.522 111.296 295.235 112.41C297.947 113.524 300.414 115.167 302.496 117.246C304.577 119.324 306.231 121.797 307.362 124.522C308.494 127.247 309.081 130.17 309.089 133.125V235.419C309.078 238.371 308.488 241.292 307.356 244.015C306.223 246.737 304.569 249.207 302.488 251.283C300.407 253.359 297.94 255 295.23 256.113C292.519 257.226 289.617 257.788 286.69 257.767H263.171V296.181L227.848 257.767H188.918C185.992 257.788 183.09 257.226 180.379 256.113C177.668 255 175.202 253.359 173.121 251.283C171.04 249.207 169.386 246.737 168.253 244.015C167.12 241.292 166.531 238.371 166.519 235.419V133.125C166.528 130.17 167.115 127.247 168.246 124.522C169.378 121.797 171.032 119.324 173.113 117.246C175.194 115.167 177.661 113.524 180.374 112.41C183.086 111.296 185.99 110.733 188.918 110.754Z" fill="#1E325C"/>
<path d="M248.703 80.0003H89.2217C86.2933 79.9795 83.3896 80.5422 80.6773 81.6563C77.965 82.7704 75.4975 84.4138 73.4163 86.4923C71.3352 88.5707 69.6814 91.0434 68.5499 93.7683C67.4183 96.4931 66.8313 99.4165 66.8226 102.371V204.575C66.8343 207.527 67.4235 210.448 68.5563 213.171C69.6891 215.893 71.3434 218.363 73.4243 220.439C75.5051 222.515 77.9716 224.156 80.6824 225.269C83.3933 226.382 86.2951 226.944 89.2217 226.923H112.763V265.337L148.087 226.923H248.703C251.63 226.944 254.532 226.382 257.243 225.269C259.953 224.156 262.42 222.515 264.501 220.439C266.582 218.363 268.236 215.893 269.369 213.171C270.502 210.448 271.091 207.527 271.102 204.575V102.371C271.094 99.4165 270.507 96.4931 269.375 93.7683C268.244 91.0434 266.59 88.5707 264.509 86.4923C262.428 84.4138 259.96 82.7704 257.248 81.6563C254.535 80.5422 251.632 79.9795 248.703 80.0003Z" fill="#FFBC1F"/>
<path d="M114.553 138.864C117.395 138.859 120.174 139.706 122.539 141.295C124.903 142.885 126.747 145.147 127.836 147.795C128.926 150.442 129.212 153.357 128.659 156.168C128.105 158.98 126.738 161.563 124.728 163.59C122.719 165.617 120.159 166.997 117.371 167.555C114.584 168.113 111.695 167.825 109.071 166.726C106.446 165.627 104.204 163.767 102.628 161.381C101.052 158.996 100.214 156.192 100.218 153.326C100.224 149.492 101.736 145.817 104.423 143.106C107.11 140.395 110.753 138.87 114.553 138.864Z" fill="white"/>
<path d="M169.005 138.864C171.847 138.859 174.626 139.706 176.99 141.295C179.355 142.885 181.199 145.147 182.288 147.795C183.378 150.442 183.664 153.357 183.111 156.168C182.557 158.98 181.189 161.563 179.18 163.59C177.171 165.617 174.61 166.997 171.823 167.555C169.036 168.113 166.147 167.825 163.523 166.726C160.898 165.627 158.656 163.767 157.08 161.381C155.504 158.996 154.665 156.192 154.67 153.326C154.676 149.492 156.188 145.817 158.875 143.106C161.562 140.395 165.205 138.87 169.005 138.864Z" fill="white"/>
<path d="M223.458 138.864C226.299 138.859 229.079 139.706 231.443 141.295C233.808 142.885 235.651 145.147 236.741 147.795C237.83 150.442 238.117 153.357 237.563 156.168C237.01 158.98 235.642 161.563 233.633 163.59C231.623 165.617 229.063 166.997 226.276 167.555C223.489 168.113 220.6 167.825 217.975 166.726C215.351 165.627 213.109 163.767 211.533 161.381C209.957 158.996 209.118 156.192 209.122 153.326C209.128 149.492 210.641 145.817 213.328 143.106C216.015 140.395 219.658 138.87 223.458 138.864Z" fill="white"/>
</g>
<defs>
<clipPath id="clip0_5_369">
<rect width="242" height="216" fill="white" transform="translate(67 80)"/>
</clipPath>
</defs>
</svg>
