<svg width="18" height="18" viewBox="0 0 18 18" fill="none" xmlns="http://www.w3.org/2000/svg">
<path d="M9.92404 16.896C9.56928 17.439 8.76816 17.5173 8.14525 17.0775L1.11172 12.124C0.882202 11.9692 0.721336 11.7316 0.662687 11.461C0.604037 11.1904 0.65213 10.9076 0.796933 10.6716L6.98437 1.21933C7.15507 0.986904 7.39993 0.819639 7.67851 0.745145C7.95709 0.670652 8.25274 0.693386 8.51666 0.809593L16.5012 4.32235C17.2074 4.63382 17.5005 5.32171 17.1491 5.87302L9.92404 16.896Z" fill="#FFBC1F"/>
<path d="M8.80474 16.2531L1.55469 11.2962L7.932 1.55578L16.0115 5.24509L8.80474 16.2531Z" fill="white"/>
<path d="M13.395 4.55386C13.3329 4.63187 13.2458 4.68607 13.1484 4.70731C13.051 4.72855 12.9493 4.71553 12.8604 4.67045L9.81077 3.23803C9.77129 3.22364 9.73553 3.20058 9.70612 3.17055C9.67671 3.14053 9.6544 3.1043 9.64083 3.06452C9.62725 3.02475 9.62275 2.98243 9.62766 2.94069C9.63257 2.89895 9.64676 2.85884 9.6692 2.8233L10.1472 2.0921C10.2037 2.0173 10.2842 1.96421 10.3752 1.94177C10.4661 1.91932 10.5621 1.92889 10.6469 1.96885L13.7364 3.3413C13.7793 3.35505 13.8185 3.37827 13.8512 3.40925C13.8839 3.44023 13.9091 3.47816 13.9251 3.52024C13.9411 3.56232 13.9474 3.60746 13.9436 3.65232C13.9398 3.69718 13.9259 3.7406 13.903 3.77936L13.395 4.55386Z" fill="#8D93A5"/>
<path d="M12.8121 3.60447L10.8467 2.71171L11.3314 1.97052C11.389 1.89714 11.4693 1.84502 11.5598 1.8224C11.6503 1.79978 11.7457 1.80794 11.8311 1.8456L13.1385 2.4119C13.181 2.42487 13.2199 2.44731 13.2524 2.47752C13.2849 2.50773 13.3101 2.54493 13.3262 2.5863C13.3422 2.62768 13.3486 2.67217 13.345 2.71639C13.3413 2.76062 13.3277 2.80344 13.3051 2.84162L12.8121 3.60447Z" fill="#2D3039"/>
<path d="M12.9553 7.62023L8.8764 5.52657L9.08959 5.20011L13.1835 7.27212L12.9553 7.62023Z" fill="#3DB887"/>
<path d="M7.5906 5.31337C7.58107 5.31956 7.57025 5.32349 7.55897 5.32488C7.54768 5.32626 7.53623 5.32506 7.52548 5.32137C7.51473 5.31768 7.50496 5.31159 7.49691 5.30357C7.48885 5.29555 7.48274 5.28579 7.47901 5.27505L7.22918 4.53553C7.22596 4.52444 7.22519 4.51279 7.2269 4.50137C7.22861 4.48995 7.23277 4.47904 7.2391 4.46939C7.24543 4.45973 7.25378 4.45157 7.26356 4.44544C7.27335 4.43932 7.28435 4.43539 7.2958 4.43393L7.39074 4.41394C7.41542 4.40874 7.44115 4.4122 7.46359 4.42372C7.48603 4.43524 7.50382 4.45414 7.51398 4.47723L7.64723 4.86365C7.65075 4.87435 7.65669 4.88409 7.66458 4.89212C7.67247 4.90015 7.68209 4.90626 7.69273 4.90996C7.70336 4.91367 7.7147 4.91488 7.72588 4.91349C7.73705 4.9121 7.74775 4.90815 7.75715 4.90196L8.5133 4.47557C8.53679 4.46367 8.56354 4.45983 8.58943 4.46465C8.61532 4.46946 8.63891 4.48267 8.65654 4.50222L8.7165 4.57384C8.72446 4.58254 8.7303 4.59296 8.73357 4.60429C8.73684 4.61562 8.73745 4.62755 8.73536 4.63916C8.73326 4.65076 8.72852 4.66173 8.72149 4.6712C8.71446 4.68067 8.70535 4.68839 8.69485 4.69376L7.5906 5.31337Z" fill="#3DB887"/>
<path d="M11.6212 9.65727L7.62231 7.44202L7.83717 7.1139L11.8494 9.30916L11.6212 9.65727Z" fill="#BABEC9"/>
<path d="M6.85614 7.51864L5.67694 6.85573L6.35648 5.81473L7.55066 6.45765L6.85614 7.51864Z" fill="#BABEC9"/>
<path d="M10.2871 11.696L6.36981 9.35579L6.583 9.02766L10.5153 11.3478L10.2871 11.696Z" fill="#BABEC9"/>
<path d="M5.6137 9.41743L4.45782 8.71621L5.13903 7.67521L6.30989 8.35644L5.6137 9.41743Z" fill="#BABEC9"/>
<path d="M8.95308 13.733L5.11737 11.2696L5.33056 10.9431L9.18126 13.3849L8.95308 13.733Z" fill="#BABEC9"/>
<path d="M4.37115 11.3145L3.23859 10.5767L3.92145 9.53735L5.06734 10.2536L4.37115 11.3145Z" fill="#BABEC9"/>
</svg>
