<svg width="350" height="235" viewBox="0 0 350 235" fill="none" xmlns="http://www.w3.org/2000/svg">
<path d="M294.293 179.562C294.293 179.562 290.373 176.973 286.487 178.815C286.487 178.815 287.684 181.12 292.602 180.903L294.293 179.562Z" fill="#06D6A0"/>
<path d="M294.791 179.7C294.791 179.7 295.984 184.245 292.992 187.339C292.992 187.339 291.192 185.465 292.992 180.874L294.791 179.7Z" fill="#06D6A0"/>
<path d="M299.665 175.336C299.665 175.336 299.375 171.47 290.65 172.754C290.65 172.754 290.609 175.247 293.671 176.428C296.734 177.609 298.137 176.613 299.665 175.336Z" fill="#06D6A0"/>
<path d="M300.214 175.31C300.214 175.31 303.901 176.494 300.612 184.682C300.612 184.682 298.179 184.14 297.742 180.88C297.305 177.621 298.6 176.497 300.214 175.31Z" fill="#06D6A0"/>
<path d="M305.139 169.826C305.139 169.826 305.64 163.464 296.724 164.116C296.724 164.116 296.086 169.862 303.566 171.355L305.139 169.826Z" fill="#06D6A0"/>
<path d="M311.031 162.644C311.031 162.644 309.809 155.432 300.896 157.581C300.896 157.581 300.865 163.815 309.576 164.361L311.031 162.644Z" fill="#06D6A0"/>
<path d="M315.337 155.219C315.337 155.219 313.289 148.196 304.459 150.297C304.459 150.297 306.562 156.614 314.75 156.515L315.337 155.219Z" fill="#06D6A0"/>
<path d="M319.427 147.966C319.427 147.966 317.427 140.678 308.9 142.859C308.9 142.859 311.745 149.783 318.862 149.198L319.427 147.966Z" fill="#06D6A0"/>
<path d="M322.062 141.078C322.062 141.078 320.524 132.165 312.575 134.138C312.575 134.138 314.884 142.246 321.478 142.377L322.062 141.078Z" fill="#06D6A0"/>
<path d="M324.534 132.755C324.534 132.755 322.687 123.772 314.645 126.371C314.645 126.371 317.797 134.862 323.963 133.984L324.534 132.755Z" fill="#06D6A0"/>
<path d="M326.052 125.011C326.052 125.011 323.12 116.025 316.903 116.268C316.903 116.268 319.899 125.758 325.532 126.802L326.052 125.011Z" fill="#06D6A0"/>
<path d="M327.035 117.452C327.035 117.452 323.845 106.637 318.786 107.47C318.786 107.47 320.993 115.738 326.856 119.137L327.035 117.452Z" fill="#06D6A0"/>
<path d="M327.59 108.434C327.59 108.434 324.597 99.4227 319.615 99.062C319.615 99.062 321.65 107.93 327.491 110.777L327.59 108.434Z" fill="#06D6A0"/>
<path d="M328.193 100.019C328.193 100.019 324.464 90.9977 321.175 90.7934C321.175 90.7934 322.795 99.6773 327.874 101.5L328.193 100.019Z" fill="#06D6A0"/>
<path d="M328.604 92.1923C328.604 92.1923 326.311 82.3955 323.016 81.5815C323.016 81.5815 323.465 89.5971 328.273 92.9265L328.604 92.1923Z" fill="#06D6A0"/>
<path d="M329.848 81.9389C329.848 81.9389 327.437 74.1276 324.767 72.937C324.767 72.937 325.293 82.1464 329.233 83.8479L329.848 81.9389Z" fill="#06D6A0"/>
<path d="M330.879 75.2354L331.364 61.4643C331.364 61.4643 326.372 71.8453 330.518 77.6519L330.879 75.2354Z" fill="#06D6A0"/>
<path d="M334.732 61.5376C334.732 61.5376 338.327 51.4822 339.198 50.9203C339.198 50.9203 332.148 57.4452 332.837 65.8375L334.732 61.5376Z" fill="#06D6A0"/>
<path d="M305.382 169.778C305.382 169.778 311.704 168.952 311.516 177.893C311.516 177.893 305.803 178.825 303.937 171.429L305.382 169.778Z" fill="#06D6A0"/>
<path d="M311.331 162.402C311.331 162.402 318.636 162.379 318.03 171.531C318.03 171.531 311.895 172.63 309.873 164.132L311.331 162.402Z" fill="#06D6A0"/>
<path d="M315.408 155.809C315.408 155.809 322.04 152.697 326.282 160.732C326.282 160.732 320.158 163.324 314.821 157.109L315.408 155.809Z" fill="#06D6A0"/>
<path d="M319.574 148.034C319.574 148.034 326.365 144.723 330.352 152.57C330.352 152.57 323.277 155.008 319.012 149.275L319.574 148.034Z" fill="#06D6A0"/>
<path d="M321.975 141.272C321.975 141.272 328.511 135.025 333.727 141.342C333.727 141.342 327.05 146.485 321.675 142.664L321.975 141.272Z" fill="#06D6A0"/>
<path d="M324.164 132.541C324.164 132.541 330.738 126.157 335.912 132.835C335.912 132.835 328.534 138.079 323.928 133.882L324.164 132.541Z" fill="#06D6A0"/>
<path d="M325.392 124.756C325.392 124.756 330.458 116.775 336.423 118.557C336.423 118.557 331.166 127.006 325.449 126.63L325.392 124.756Z" fill="#06D6A0"/>
<path d="M326.885 117.401C326.885 117.401 331.989 107.352 336.818 109.101C336.818 109.101 333.137 116.827 326.754 119.096L326.885 117.401Z" fill="#06D6A0"/>
<path d="M327.239 107.91C327.239 107.91 332.486 99.9999 337.402 100.967C337.402 100.967 333.112 108.989 326.729 110.199L327.239 107.91Z" fill="#06D6A0"/>
<path d="M327.647 99.8438C327.647 99.8438 331.714 90.9664 335.019 90.9057C335.019 90.9057 333.067 99.7193 327.921 101.351L327.647 99.8438Z" fill="#06D6A0"/>
<path d="M328.445 92.001C328.445 92.001 332.965 83.0118 336.362 82.9926C336.362 82.9926 334.049 90.6794 328.595 92.7894L328.445 92.001Z" fill="#06D6A0"/>
<path d="M329.124 82.5007C329.124 82.5007 332.505 75.0629 335.306 74.2202C335.306 74.2202 333.615 83.286 329.497 84.4735L329.124 82.5007Z" fill="#06D6A0"/>
<path d="M331.28 74.9644L338.837 63.4438C338.837 63.4438 336.901 74.808 330.177 77.1702L331.28 74.9644Z" fill="#06D6A0"/>
<path d="M336.467 62.4665C336.467 62.4665 345.249 56.4013 345.568 55.4213C345.568 55.4213 341.102 63.9157 332.809 65.4161L336.467 62.4665Z" fill="#06D6A0"/>
<path d="M336.994 59.7368C336.994 59.7368 347.077 50.0358 349.652 50.0454C349.652 50.0454 341.335 50.4252 336.751 59.2197L336.994 59.7368Z" fill="#06D6A0"/>
<path d="M329.223 83.9401L329.59 83.988C331.485 69.1475 334.247 60.3658 337.367 59.29L337.246 58.9389C333.938 60.0881 331.156 68.7357 329.223 83.9401Z" fill="#06D6A0"/>
<path d="M326.435 119.431L326.99 119.476C327.108 118.091 327.197 116.673 327.258 115.259C327.788 102.976 328.607 91.6944 329.686 83.2383L329.367 82.8393C328.285 91.3146 327.233 102.934 326.703 115.237C326.642 116.641 326.553 118.052 326.435 119.431Z" fill="#06D6A0"/>
<path d="M283.945 186.643C284.041 186.601 293.812 182.234 303.953 171.822C309.894 165.723 314.831 158.719 318.578 151.072C323.268 141.518 326.126 129.777 327.083 118.372L326.505 118.643C324.352 144.244 312.706 161.737 303.445 171.266C293.404 181.586 283.741 185.909 283.646 185.95L283.945 186.643Z" fill="#06D6A0"/>
<path d="M309.245 0.75824H2.73058C2.00638 0.75824 1.31185 1.04613 0.799768 1.55857C0.287685 2.07102 0 2.76605 0 3.49075V11.4521H311.975V3.49075C311.975 2.76605 311.687 2.07102 311.175 1.55857C310.663 1.04613 309.969 0.75824 309.245 0.75824Z" fill="white"/>
<path d="M309.245 0.75824H2.73058C2.00638 0.75824 1.31185 1.04613 0.799768 1.55857C0.287685 2.07102 0 2.76605 0 3.49075V11.4521H311.975V3.49075C311.975 2.76605 311.687 2.07102 311.175 1.55857C310.663 1.04613 309.969 0.75824 309.245 0.75824Z" fill="#3D3C40" fill-opacity="0.72"/>
<path d="M0 11.4516V190.61C0 192.071 0.580075 193.473 1.61262 194.506C2.64516 195.539 4.04558 196.12 5.50582 196.12H306.469C307.93 196.12 309.33 195.539 310.362 194.506C311.395 193.473 311.975 192.071 311.975 190.61V11.4516H0Z" fill="white"/>
<path opacity="0.08" d="M0 11.4516V190.61C0 192.071 0.580075 193.473 1.61262 194.506C2.64516 195.539 4.04558 196.12 5.50582 196.12H306.469C307.93 196.12 309.33 195.539 310.362 194.506C311.395 193.473 311.975 192.071 311.975 190.61V11.4516H0Z" fill="#166DE0"/>
<path opacity="0.1" d="M236.683 234.793C252.147 234.793 264.683 232.555 264.683 229.793C264.683 227.032 252.147 224.793 236.683 224.793C221.219 224.793 208.683 227.032 208.683 229.793C208.683 232.555 221.219 234.793 236.683 234.793Z" fill="#0058CC"/>
<path opacity="0.8" d="M4.94101 7.30223C5.64571 7.30223 6.21698 6.73055 6.21698 6.02535C6.21698 5.32015 5.64571 4.74847 4.94101 4.74847C4.23631 4.74847 3.66504 5.32015 3.66504 6.02535C3.66504 6.73055 4.23631 7.30223 4.94101 7.30223Z" fill="#F74343"/>
<path opacity="0.8" d="M8.45029 7.30223C9.15499 7.30223 9.72626 6.73055 9.72626 6.02535C9.72626 5.32015 9.15499 4.74847 8.45029 4.74847C7.74559 4.74847 7.17432 5.32015 7.17432 6.02535C7.17432 6.73055 7.74559 7.30223 8.45029 7.30223Z" fill="#FFBC42"/>
<path opacity="0.8" d="M11.9591 7.30223C12.6638 7.30223 13.2351 6.73055 13.2351 6.02535C13.2351 5.32015 12.6638 4.74847 11.9591 4.74847C11.2544 4.74847 10.6831 5.32015 10.6831 6.02535C10.6831 6.73055 11.2544 7.30223 11.9591 7.30223Z" fill="#06D6A0"/>
<path d="M273.814 42.1616H34.9136C32.7044 42.1616 30.9136 43.9524 30.9136 46.1616V146.058C30.9136 148.267 32.7044 150.058 34.9136 150.058H273.814C276.023 150.058 277.814 148.267 277.814 146.058V46.1616C277.814 43.9524 276.023 42.1616 273.814 42.1616Z" fill="#3D3C40" fill-opacity="0.08"/>
<path d="M99.1831 67.7934C93.5463 67.7934 88.0362 69.4649 83.3494 72.5965C78.6626 75.7281 75.0096 80.1792 72.8526 85.3869C70.6955 90.5946 70.1311 96.325 71.2307 101.853C72.3304 107.382 75.0448 112.46 79.0306 116.446C83.0164 120.432 88.0946 123.146 93.623 124.246C99.1515 125.345 104.882 124.781 110.09 122.624C115.297 120.467 119.748 116.814 122.88 112.127C126.012 107.44 127.683 101.93 127.683 96.2934C127.683 88.7347 124.68 81.4856 119.336 76.1409C113.991 70.7961 106.742 67.7934 99.1831 67.7934ZM104.293 96.9785V110.471H94.2172V96.9785C92.8225 95.923 91.7945 94.4561 91.2783 92.7849C90.7622 91.1136 90.784 89.3225 91.3407 87.6643C91.8974 86.0062 92.9609 84.5647 94.381 83.5435C95.801 82.5223 97.506 81.973 99.2551 81.973C101.004 81.973 102.709 82.5223 104.129 83.5435C105.549 84.5647 106.613 86.0062 107.169 87.6643C107.726 89.3225 107.748 91.1136 107.232 92.7849C106.716 94.4561 105.688 95.923 104.293 96.9785Z" fill="#3D3C40" fill-opacity="0.08"/>
<path d="M98.2209 62.9067C91.9749 62.9067 85.8692 64.7601 80.6759 68.2327C75.4825 71.7052 71.4348 76.6409 69.0445 82.4155C66.6543 88.1902 66.0289 94.5444 67.2474 100.675C68.466 106.805 71.4737 112.436 75.8903 116.856C80.3069 121.276 85.934 124.285 92.0599 125.505C98.1859 126.724 104.536 126.098 110.306 123.706C116.077 121.314 121.009 117.264 124.479 112.067C127.949 106.87 129.801 100.76 129.801 94.5094C129.801 86.1278 126.474 78.0895 120.552 72.1629C114.629 66.2362 106.597 62.9067 98.2209 62.9067ZM103.883 95.2691V110.231H92.7183V95.2691C91.1728 94.0987 90.0337 92.4721 89.4618 90.6189C88.8899 88.7657 88.9141 86.7796 89.531 84.9409C90.1478 83.1022 91.3262 81.5038 92.8998 80.3715C94.4733 79.2391 96.3625 78.6299 98.3007 78.6299C100.239 78.6299 102.128 79.2391 103.702 80.3715C105.275 81.5038 106.454 83.1022 107.07 84.9409C107.687 86.7796 107.711 88.7657 107.14 90.6189C106.568 92.4721 105.429 94.0987 103.883 95.2691Z" fill="#06D6A0"/>
<path d="M242.683 84.7934H144.683C143.579 84.7934 142.683 85.6888 142.683 86.7934V104.793C142.683 105.898 143.579 106.793 144.683 106.793H242.683C243.788 106.793 244.683 105.898 244.683 104.793V86.7934C244.683 85.6888 243.788 84.7934 242.683 84.7934Z" fill="white"/>
<path d="M242.683 109.793H215.683C214.579 109.793 213.683 110.689 213.683 111.793V123.793C213.683 124.898 214.579 125.793 215.683 125.793H242.683C243.788 125.793 244.683 124.898 244.683 123.793V111.793C244.683 110.689 243.788 109.793 242.683 109.793Z" fill="#166DE0"/>
<path d="M271.271 134.46C271.262 134.074 271.214 133.69 271.128 133.314C270.841 132.235 270.193 130.929 269.128 130.604C268.028 130.267 266.965 129.817 265.957 129.263C265.766 125.841 266.55 122.339 265.695 119.022C265.376 117.809 264.85 116.647 264.71 115.406C264.534 113.861 264.955 112.213 264.34 110.79C263.855 109.666 262.789 108.874 261.644 108.459C260.499 108.044 259.264 107.933 258.049 107.821C256.518 107.697 251.561 107.109 249.832 108.479C249.713 108.571 249.605 108.679 249.513 108.798C249.475 108.851 249.441 108.906 249.411 108.964L249.395 108.989C249.36 109.056 249.331 109.125 249.309 109.197C249.285 109.275 249.266 109.355 249.254 109.436C249.254 109.462 249.254 109.487 249.254 109.513C249.254 109.538 249.254 109.625 249.254 109.682V109.768C249.254 109.826 249.254 109.883 249.254 109.944C249.254 110.005 249.254 109.989 249.254 110.011C249.277 110.298 249.318 110.585 249.318 110.87C249.322 111.011 249.309 111.152 249.28 111.291C249.174 111.667 248.994 112.019 248.75 112.325L248.693 112.408C248.658 112.459 248.623 112.507 248.591 112.558C248.559 112.609 248.534 112.648 248.508 112.692C248.483 112.737 248.457 112.766 248.435 112.807C248.404 112.86 248.376 112.914 248.352 112.97C248.352 113.002 248.317 113.031 248.304 113.063C248.264 113.149 248.232 113.239 248.208 113.331C248.133 113.608 248.127 113.899 248.189 114.18C248.275 114.538 248.423 114.878 248.626 115.185C248.706 115.316 248.792 115.444 248.881 115.572L249.105 115.875C249.063 116.171 249.04 116.47 249.038 116.769C249.038 117.768 249.265 118.755 249.701 119.654C250.138 120.553 250.772 121.341 251.558 121.959C251.684 123.307 251.67 124.665 251.516 126.01C251.487 126.291 251.452 126.575 251.414 126.856C251.376 127.137 251.347 127.322 251.309 127.555C250.842 127.622 250.366 127.586 249.915 127.45C249.707 127.357 249.494 127.275 249.277 127.204C248.349 126.971 247.401 127.897 246.482 127.616C246.482 127.661 246.457 127.702 246.441 127.743C246.249 127.624 246.029 127.559 245.803 127.555C245.258 127.53 244.814 127.134 244.419 126.76L243.203 125.614C243.124 125.544 243.053 125.465 242.993 125.378C242.927 125.254 242.878 125.122 242.846 124.985C242.642 124.325 242.147 123.798 241.669 123.297C241.578 123.182 241.458 123.095 241.321 123.045C241.268 123.037 241.215 123.037 241.162 123.045C241.129 123 241.094 122.957 241.056 122.917C240.974 122.822 240.885 122.733 240.792 122.649C240.211 122.112 240.154 121.653 239.65 121.053C239.21 120.48 238.811 119.878 238.457 119.249C238.415 118.914 238.358 118.569 238.288 118.221C238.127 117.425 237.893 116.645 237.589 115.891L236.951 114.477L236.878 114.55C236.415 113.861 235.921 113.484 235.477 113.573C234.734 113.727 234.367 115.169 234.485 117.056L234.74 118.971C234.74 119.019 234.763 119.067 234.775 119.115C234.729 119.342 234.706 119.573 234.705 119.805C234.705 120.073 234.954 120.271 235.085 120.51C235.294 120.834 235.405 121.212 235.404 121.599C235.388 121.736 235.346 121.867 235.34 122.001C235.357 122.301 235.462 122.589 235.64 122.831L237.235 125.512L237.554 126.074L237.573 126.1C237.674 126.296 237.82 126.464 238 126.591C238.063 127.263 238.241 127.918 238.527 128.529C238.581 128.65 238.642 128.765 238.705 128.88C239.134 129.585 239.639 130.242 240.211 130.837L240.97 131.689C241.72 132.525 242.47 133.365 243.283 134.137C243.574 134.447 243.926 134.694 244.316 134.862C244.508 134.939 244.716 134.963 244.92 134.934C245.124 134.904 245.316 134.821 245.478 134.693C245.478 135.089 245.478 135.485 245.478 135.88C245.596 135.888 245.71 135.926 245.809 135.993C245.907 136.059 245.986 136.15 246.038 136.257C246.089 136.365 246.111 136.483 246.101 136.602C246.091 136.72 246.05 136.834 245.982 136.931C245.312 138.651 244.635 140.388 243.621 141.93C244.337 142.354 245.001 142.86 245.599 143.439C245.987 143.87 246.332 144.337 246.629 144.834C246.658 145.071 246.68 145.304 246.693 145.537C246.929 149.342 245.458 153.118 244.141 156.745C243.761 157.772 243.347 158.848 243.379 159.918C243.129 160.072 242.89 160.244 242.664 160.432C242.926 161.115 242.824 161.724 242.795 162.455C242.785 162.894 242.696 163.326 242.53 163.732C242.391 164.014 242.238 164.287 242.071 164.553C241.245 166.011 241.063 167.745 240.897 169.411C240.798 170.417 241.187 171.646 240.731 172.546C239.943 174.091 239.244 175.738 239.136 177.455C239.132 177.842 239.083 178.227 238.989 178.601C238.89 178.921 238.715 179.192 238.626 179.505C238.534 179.924 238.512 180.356 238.562 180.782C238.623 182.312 238.395 183.84 237.892 185.286C237.493 186.426 237.053 187.645 237.366 188.816C236.596 189.625 236.121 190.67 236.016 191.782C236.008 192.066 235.974 192.35 235.914 192.628C235.817 192.912 235.688 193.185 235.531 193.442C234.889 194.612 234.589 195.94 234.664 197.273C233.707 198.572 233.228 200.174 232.944 201.767C232.66 203.36 232.536 204.982 232.172 206.555C231.688 208.637 230.81 210.74 230.638 212.873C229.605 213.534 229.158 214.814 228.96 216.023C228.762 217.233 228.73 218.504 228.223 219.621C227.962 220.202 227.585 220.722 227.336 221.316C227.162 221.789 227.034 222.277 226.954 222.775C226.801 223.554 226.667 224.422 226.855 225.169C226.584 225.456 226.268 225.696 225.92 225.881C225.971 225.683 226.013 225.485 226.048 225.284C225.225 226.031 223.732 225.769 223.075 226.666C222.877 226.955 222.8 227.31 222.86 227.655C222.92 228 223.111 228.308 223.394 228.515C223.599 228.64 223.822 228.736 224.054 228.799C225.649 229.309 227.289 229.823 228.928 229.552C229.122 229.531 229.31 229.471 229.48 229.376C229.693 229.219 229.869 229.016 229.994 228.783C230.239 228.393 230.485 228.004 230.727 227.614C231.315 227.79 231.913 227.929 232.517 228.033C232.578 228.543 232.622 229.054 232.645 229.565C232.964 229.629 233.391 229.648 233.541 229.351C233.586 229.239 233.605 229.117 233.595 228.997C233.595 228.77 233.627 228.47 233.646 228.163H233.71C234.683 228.203 235.652 228.007 236.533 227.592C236.192 224.764 237.318 221.999 238.294 219.324C239.324 216.509 240.208 213.642 241.098 210.776C241.736 208.758 242.441 206.804 243.066 204.784C243.853 202.23 244.643 199.676 245.436 197.123C245.781 195.999 246.128 194.888 246.524 193.771C247.357 191.51 248.345 189.31 249.481 187.185C249.8 186.582 250.119 185.985 250.381 185.359C250.7 184.596 250.926 183.798 251.181 183.01C251.737 181.392 252.407 179.815 253.184 178.292C253.207 178.25 253.223 178.212 253.245 178.174C253.503 179.23 253.762 180.303 253.934 181.366C254.167 182.669 254.186 184.002 253.988 185.311C253.835 186.202 253.545 187.083 253.58 187.986C253.628 189.235 254.295 190.368 254.623 191.571C254.835 192.472 254.955 193.392 254.98 194.317C255.07 195.753 255.848 197.365 255.299 198.696C253.593 202.913 254.419 207.676 253.446 212.103C252.945 214.376 251.411 216.512 251.532 218.836C251.617 220.485 251.762 222.13 251.966 223.771C252.015 224.289 252.15 224.795 252.365 225.268C252.492 225.517 252.638 225.756 252.802 225.983C252.661 226.037 252.543 226.181 252.441 226.484C252.18 227.282 252.441 228.272 253.149 228.719C253.438 228.873 253.749 228.981 254.071 229.038C254.505 229.161 254.954 229.224 255.405 229.223C255.545 229.216 255.685 229.199 255.823 229.172C256.316 229.379 256.819 229.561 257.331 229.715C257.331 229.846 257.357 229.977 257.373 230.107C257.374 230.176 257.389 230.243 257.418 230.305C257.446 230.368 257.487 230.423 257.539 230.468C257.618 230.505 257.706 230.521 257.794 230.513H259.526C259.526 230.369 259.526 230.222 259.526 230.079C259.724 230.099 259.925 230.078 260.114 230.017C260.304 229.955 260.478 229.854 260.627 229.721C260.78 229.526 260.889 229.299 260.946 229.057C261.418 227.455 261.887 225.851 262.352 224.247C262.911 222.473 263.143 220.613 263.038 218.756C262.423 212.873 263.775 206.97 263.335 201.071C263.07 197.526 263.252 193.961 263.877 190.46C264.021 189.669 264.196 188.864 264.26 188.076C264.4 186.588 264.228 185.085 264.333 183.607C264.368 183.09 264.439 182.576 264.502 182.062C264.939 178.872 265.169 175.657 265.188 172.437C265.178 171.371 265.112 170.305 264.99 169.245C265.323 169.16 265.625 168.983 265.861 168.734C266.145 168.364 266.072 167.844 266.069 167.371C266.069 166.241 266.544 165.175 266.927 164.109C267.418 162.638 267.821 161.14 268.133 159.621C268.462 158.397 268.642 157.137 268.668 155.87C268.668 155.742 268.662 155.615 268.649 155.487C268.769 155.403 268.87 155.294 268.943 155.168C269.026 154.981 269.078 154.781 269.096 154.577C269.211 153.763 269.329 152.946 269.444 152.129C269.529 151.543 269.613 150.959 269.696 150.376L270.71 143.293C270.796 142.677 270.885 142.064 270.972 141.451L271.236 139.618C271.265 139.401 271.297 139.184 271.319 138.98C272.098 137.678 271.354 135.941 271.271 134.46ZM262.809 160.981C262.432 160.087 262.081 159.171 262.171 158.207H262.135C262.219 157.91 262.205 157.594 262.094 157.306C261.995 157.073 261.823 156.875 261.718 156.642C261.604 156.358 261.546 156.055 261.545 155.749C261.466 153.807 261.619 151.863 262.001 149.958C262.043 149.734 262.088 149.508 262.129 149.284C262.263 149.207 262.385 149.111 262.493 149C262.661 148.809 262.799 148.594 262.904 148.362C263.265 147.637 263.593 146.9 263.896 146.15C263.995 145.907 264.139 145.626 264.384 145.565C264.333 147.433 264.525 149.339 263.765 151.024C263.621 151.296 263.514 151.586 263.446 151.886C263.376 152.362 263.574 152.844 263.504 153.316C263.469 153.562 263.364 153.789 263.322 154.031C263.291 154.15 263.291 154.276 263.324 154.394C263.356 154.513 263.419 154.621 263.507 154.708C263.549 154.738 263.596 154.761 263.644 154.778C263.625 154.906 263.609 155.037 263.596 155.161C263.571 155.423 263.558 155.669 263.542 155.822C263.469 156.603 263.44 157.387 263.456 158.171C263.456 159.017 263.488 159.863 263.475 160.725C263.487 160.973 263.446 161.22 263.354 161.45C263.291 161.569 263.209 161.676 263.112 161.769C263.019 161.482 262.917 161.23 262.809 160.981Z" fill="#3D3C40" fill-opacity="0.16"/>
<path d="M237.628 123.942C238.601 123.742 238.933 121.344 238.368 118.586C237.803 115.828 236.556 113.754 235.583 113.953C234.609 114.153 234.278 116.551 234.843 119.309C235.408 122.067 236.655 124.141 237.628 123.942Z" fill="white"/>
<path d="M237.628 123.942C238.601 123.742 238.933 121.344 238.368 118.586C237.803 115.828 236.556 113.754 235.583 113.953C234.609 114.153 234.278 116.551 234.843 119.309C235.408 122.067 236.655 124.141 237.628 123.942Z" fill="#3D3C40" fill-opacity="0.32"/>
<path d="M252.492 226.545C252.231 227.337 252.492 228.326 253.201 228.757C253.487 228.91 253.796 229.018 254.116 229.076C254.549 229.199 254.997 229.26 255.446 229.258C255.998 229.233 256.528 229.016 257.08 228.939C257.143 228.923 257.211 228.932 257.268 228.965C257.295 228.994 257.316 229.03 257.328 229.068C257.34 229.107 257.344 229.148 257.338 229.188C257.344 229.502 257.367 229.815 257.408 230.127C257.409 230.195 257.424 230.263 257.452 230.325C257.481 230.387 257.522 230.442 257.574 230.487C257.654 230.524 257.742 230.54 257.829 230.532H259.558C259.597 229.012 259.431 227.494 259.064 226.018C259.04 225.905 258.997 225.797 258.936 225.699C258.789 225.538 258.597 225.427 258.384 225.38C257.961 225.204 257.505 225.124 257.048 225.147C256.489 225.22 256.024 225.581 255.548 225.881C255.073 226.181 254.425 226.446 253.848 226.293C253.271 226.14 252.789 225.657 252.492 226.545Z" fill="#166DE0"/>
<path d="M227.107 225.144C226.621 225.665 226.025 226.07 225.362 226.331L225.068 226.472C225.028 226.487 224.993 226.515 224.97 226.552C224.964 226.576 224.964 226.602 224.969 226.627C224.975 226.652 224.986 226.675 225.001 226.695C225.246 227.073 225.607 227.361 226.029 227.515C226.452 227.669 226.913 227.68 227.343 227.548C227.533 227.5 227.709 227.408 227.856 227.279C228.1 226.991 228.239 226.629 228.252 226.252C228.349 225.862 228.332 225.454 228.204 225.074C227.761 224.074 227.598 224.528 227.107 225.144Z" fill="white"/>
<path d="M227.107 225.144C226.621 225.665 226.025 226.07 225.362 226.331L225.068 226.472C225.028 226.487 224.993 226.515 224.97 226.552C224.964 226.576 224.964 226.602 224.969 226.627C224.975 226.652 224.986 226.675 225.001 226.695C225.246 227.073 225.607 227.361 226.029 227.515C226.452 227.669 226.913 227.68 227.343 227.548C227.533 227.5 227.709 227.408 227.856 227.279C228.1 226.991 228.239 226.629 228.252 226.252C228.349 225.862 228.332 225.454 228.204 225.074C227.761 224.074 227.598 224.528 227.107 225.144Z" fill="#3D3C40" fill-opacity="0.32"/>
<path d="M233.736 229.077C233.745 229.198 233.727 229.319 233.681 229.431C233.531 229.725 233.114 229.709 232.788 229.645C232.739 228.562 232.608 227.484 232.396 226.421C231.777 226.392 231.33 226.98 230.999 227.507L230.144 228.863C230.02 229.097 229.846 229.3 229.633 229.457C229.462 229.551 229.275 229.61 229.082 229.633C227.448 229.904 225.799 229.39 224.223 228.879C223.991 228.817 223.769 228.722 223.563 228.598C223.282 228.392 223.091 228.084 223.032 227.74C222.972 227.396 223.048 227.042 223.244 226.753C223.904 225.859 225.388 226.115 226.211 225.374C226.125 225.895 225.984 226.406 225.79 226.897C226.89 226.731 227.63 225.722 228.517 225.049C228.74 224.859 229.008 224.732 229.295 224.678C229.51 224.66 229.727 224.683 229.933 224.745C230.956 225.003 231.912 225.474 232.74 226.128C233.075 226.392 233.598 226.766 233.745 227.175C233.901 227.663 233.736 228.557 233.736 229.077Z" fill="#166DE0"/>
<path d="M255.679 123.753C259.319 123.753 262.27 120.8 262.27 117.158C262.27 113.516 259.319 110.563 255.679 110.563C252.039 110.563 249.089 113.516 249.089 117.158C249.089 120.8 252.039 123.753 255.679 123.753Z" fill="white"/>
<path d="M255.679 123.753C259.319 123.753 262.27 120.8 262.27 117.158C262.27 113.516 259.319 110.563 255.679 110.563C252.039 110.563 249.089 113.516 249.089 117.158C249.089 120.8 252.039 123.753 255.679 123.753Z" fill="#3D3C40" fill-opacity="0.32"/>
<path d="M268.662 156.096C268.636 157.357 268.457 158.61 268.13 159.828C267.818 161.341 267.415 162.833 266.924 164.297C266.544 165.36 266.069 166.426 266.072 167.553C266.072 168.022 266.149 168.543 265.862 168.913C265.606 169.173 265.284 169.357 264.93 169.446C264.754 169.493 264.591 169.581 264.454 169.702C264.318 169.824 264.212 169.975 264.145 170.145C263.846 169.697 263.622 169.204 263.482 168.683C262.91 166.93 262.378 165.167 261.887 163.394C261.842 163.292 261.823 163.18 261.83 163.069C261.838 162.958 261.873 162.85 261.932 162.755C262.012 162.685 262.107 162.632 262.209 162.599C262.536 162.466 262.836 162.273 263.093 162.031C263.213 161.924 263.313 161.795 263.386 161.651C263.479 161.422 263.521 161.176 263.511 160.929C263.511 160.084 263.511 159.241 263.488 158.395C263.475 157.614 263.505 156.833 263.578 156.055C263.578 155.902 263.606 155.656 263.632 155.394C263.68 154.893 263.775 154.312 264.046 154.117C264.452 153.846 265.664 154.21 266.123 154.274C266.914 154.382 267.718 154.51 268.49 154.66C268.602 155.131 268.66 155.613 268.662 156.096Z" fill="#166DE0"/>
<path d="M242.052 124.542C241.796 125.053 241.184 125.298 240.712 125.621L239.095 126.732C238.987 126.829 238.86 126.904 238.722 126.951C238.585 126.998 238.439 127.017 238.294 127.006C238.162 126.958 238.042 126.883 237.939 126.787C237.837 126.691 237.755 126.576 237.697 126.448C237.698 126.439 237.698 126.431 237.697 126.422L237.362 125.86L235.767 123.185C235.59 122.946 235.487 122.659 235.471 122.362C235.471 122.224 235.519 122.097 235.531 121.959C235.536 121.574 235.425 121.196 235.212 120.874C235.085 120.635 234.83 120.437 234.836 120.169C234.824 119.816 234.885 119.465 235.015 119.137C235.182 118.834 235.422 118.578 235.713 118.39C235.863 118.282 236.016 118.18 236.176 118.071C236.26 118.013 236.354 117.97 236.453 117.944C236.718 117.889 236.98 118.11 237.248 118.119C238.399 118.892 238.843 120.354 239.748 121.407C240.259 122.007 240.31 122.467 240.887 123.003C240.98 123.086 241.069 123.176 241.155 123.268C241.269 123.393 241.366 123.532 241.442 123.683C241.548 123.958 242.182 124.28 242.052 124.542Z" fill="#166DE0"/>
<path d="M253.363 123.756C253.839 124.762 254.209 125.866 254.072 126.971C254.044 127.27 253.949 127.559 253.794 127.817C253.335 128.522 252.371 128.65 251.532 128.691C251.356 128.676 251.178 128.697 251.009 128.752C250.84 128.807 250.684 128.895 250.55 129.011C250.438 129.174 250.383 129.369 250.394 129.567C250.405 129.764 250.481 129.953 250.611 130.102C250.88 130.39 251.215 130.609 251.587 130.741C252.914 131.325 254.346 131.807 255.788 131.673C256.458 131.609 257.108 131.414 257.775 131.315C258.502 131.237 259.232 131.196 259.963 131.194C260.831 131.162 261.696 131.076 262.56 130.99L264.85 130.763C264.976 130.765 265.097 130.721 265.192 130.639C265.361 130.441 265.144 130.15 264.933 130C263.718 129.1 262.171 128.481 261.479 127.127C261.16 126.489 261.061 125.729 260.825 125.039C260.589 124.35 260.212 123.727 260.065 123.025C259.987 122.409 259.952 121.788 259.96 121.167C259.968 120.541 259.74 119.935 259.322 119.469C258.866 119.045 258.206 118.936 257.587 118.91C256.062 118.843 254.438 119.207 253.357 120.283C253.067 120.574 252.818 120.922 252.518 121.183C252.218 121.445 251.81 121.522 252.008 121.866C252.205 122.211 252.595 122.425 252.805 122.728C253.018 123.056 253.205 123.399 253.363 123.756Z" fill="#FBBEBE"/>
<path d="M266.356 133.042C265.953 135.5 265.299 137.91 264.403 140.234C263.953 141.284 263.57 142.361 263.255 143.458C263.009 144.448 263.057 145.508 262.831 146.501C262.55 147.736 262.269 148.975 262.043 150.22C261.663 152.121 261.511 154.06 261.59 155.997C261.591 156.302 261.649 156.605 261.762 156.888C261.867 157.118 262.036 157.316 262.135 157.552C262.209 157.759 262.24 157.98 262.224 158.2C262.209 158.42 262.148 158.634 262.046 158.829C261.882 159.194 261.66 159.531 261.389 159.825C258.416 160.712 255.236 160.422 252.138 160.61C249.283 160.782 246.396 161.37 243.583 160.881C243.264 159.605 243.796 158.267 244.253 157.022C245.576 153.405 247.041 149.639 246.805 145.849C246.78 145.407 246.73 144.967 246.655 144.531C246.192 141.846 246.696 139.066 247.503 136.464C248.004 134.843 247.982 133.116 247.867 131.427C247.81 130.879 247.803 130.326 247.844 129.777C247.891 129.215 248.099 128.68 248.444 128.235C248.444 128.213 248.473 128.19 248.489 128.168C248.505 128.146 248.629 128.149 248.728 128.168C248.753 128.179 248.78 128.184 248.808 128.184C248.835 128.184 248.862 128.179 248.888 128.168L248.923 128.146C248.936 128.136 248.952 128.131 248.969 128.131C248.986 128.131 249.002 128.136 249.015 128.146C249.089 128.19 249.13 128.343 249.29 128.372C249.525 128.408 249.763 128.43 250.001 128.439C250.287 128.448 250.572 128.488 250.849 128.561H250.888C251.303 128.631 251.728 128.594 252.125 128.455C252.39 128.389 252.645 128.29 252.885 128.161C252.955 128.085 253.395 128.015 253.484 127.96C253.775 127.785 253.711 126.961 253.771 126.623C253.805 126.283 253.885 125.95 254.011 125.633C254.156 125.399 254.356 125.204 254.594 125.066C254.832 124.927 255.101 124.849 255.376 124.838C255.925 124.825 256.474 124.875 257.012 124.985C258.202 125.154 259.421 125.126 260.588 125.4C261.175 125.538 261.816 125.745 262.355 125.477C262.502 125.512 262.525 125.64 262.525 125.796C262.511 125.945 262.481 126.091 262.435 126.233C262.231 127.114 262.923 127.925 263.561 128.564C263.831 128.865 264.149 129.118 264.502 129.314C264.821 129.461 265.14 129.521 265.459 129.681C265.718 129.819 265.937 130.02 266.097 130.265C266.281 130.546 266.405 130.863 266.461 131.194C266.529 131.812 266.494 132.436 266.356 133.042Z" fill="#166DE0"/>
<path d="M266.356 133.042C265.953 135.5 265.299 137.91 264.403 140.234C263.953 141.284 263.57 142.36 263.255 143.458C263.009 144.448 263.057 145.508 262.831 146.5C262.55 147.736 262.269 148.974 262.043 150.219C261.976 150.258 261.906 150.293 261.836 150.325C261.439 150.514 261.018 150.65 260.585 150.727C259.807 150.821 259.02 150.795 258.25 150.65L253.698 150.041C251.88 149.795 249.943 149.498 248.594 148.266C247.845 147.589 247.353 146.695 246.814 145.833C246.789 145.391 246.739 144.951 246.664 144.515C246.202 141.83 246.706 139.05 247.513 136.448C248.014 134.827 247.991 133.1 247.876 131.411C247.82 130.863 247.812 130.31 247.854 129.761C247.9 129.199 248.109 128.664 248.454 128.219C248.547 128.191 248.642 128.17 248.738 128.155C248.802 128.142 248.867 128.133 248.932 128.129H249.025C249.132 128.13 249.239 128.143 249.344 128.168C249.561 128.237 249.774 128.319 249.982 128.413H250.02C250.294 128.504 250.581 128.545 250.869 128.535C251.29 128.535 251.723 128.468 252.145 128.439C252.665 128.358 253.197 128.453 253.657 128.71C253.953 128.949 254.234 129.206 254.499 129.48C254.818 129.73 255.177 129.926 255.561 130.057C258.307 131.106 261.353 131.042 264.053 129.879C264.312 129.731 264.606 129.656 264.904 129.662C265.125 129.705 265.333 129.794 265.517 129.923C265.708 130.035 265.896 130.144 266.091 130.243C266.275 130.524 266.399 130.84 266.455 131.171C266.528 131.796 266.494 132.429 266.356 133.042Z" fill="#3D3C40" fill-opacity="0.16"/>
<path d="M269.134 130.929C267.864 130.541 266.644 130.005 265.498 129.333C265.314 129.205 265.105 129.115 264.885 129.071C264.586 129.068 264.292 129.143 264.03 129.288C261.332 130.452 258.287 130.516 255.542 129.467C255.159 129.334 254.8 129.139 254.48 128.889C254.215 128.616 253.933 128.359 253.638 128.12C252.588 127.44 251.137 128.238 249.963 127.801C249.755 127.708 249.542 127.626 249.325 127.555C248.397 127.322 247.452 128.248 246.54 127.967C246.201 128.89 245.95 129.844 245.79 130.814C245.661 131.929 245.591 133.05 245.583 134.172C245.583 134.846 245.551 135.52 245.583 136.193C245.695 136.212 245.803 136.253 245.898 136.315C245.994 136.377 246.076 136.459 246.138 136.554C246.18 136.665 246.197 136.784 246.188 136.903C246.18 137.021 246.145 137.136 246.087 137.24C245.42 138.954 244.744 140.688 243.733 142.223C244.446 142.648 245.107 143.154 245.704 143.73C246.821 144.911 247.369 146.568 248.575 147.659C249.934 148.888 251.87 149.188 253.679 149.431L258.231 150.041C259.002 150.185 259.79 150.212 260.569 150.121C261.001 150.042 261.421 149.905 261.817 149.715C262.075 149.607 262.311 149.451 262.512 149.256C262.68 149.064 262.819 148.849 262.924 148.617C263.284 147.896 263.613 147.158 263.916 146.411C264.021 146.146 264.18 145.837 264.467 145.814C266.158 144.288 267.753 142.724 269.444 141.198C270.123 140.635 270.733 139.992 271.259 139.283C272.098 138.041 271.335 136.282 271.259 134.782C271.25 134.398 271.201 134.017 271.115 133.643C270.841 132.554 270.197 131.252 269.134 130.929Z" fill="#145DBF"/>
<path d="M245.861 127.907C245.319 127.881 244.875 127.489 244.48 127.115L243.271 125.991C243.19 125.923 243.119 125.843 243.06 125.755C242.995 125.631 242.945 125.499 242.913 125.363C242.657 124.718 242.255 124.141 241.739 123.677C241.65 123.563 241.529 123.476 241.392 123.428C241.262 123.404 241.128 123.417 241.006 123.466C240.225 123.739 239.51 124.174 238.91 124.743C238.6 124.986 238.354 125.302 238.195 125.663C238.115 125.909 238.081 126.167 238.093 126.426C238.101 127.269 238.29 128.101 238.648 128.864C238.703 128.982 238.763 129.101 238.827 129.215C239.253 129.919 239.756 130.574 240.326 131.166L241.086 132.015C241.832 132.851 242.578 133.688 243.389 134.457C243.679 134.767 244.031 135.013 244.422 135.179C244.619 135.259 244.833 135.283 245.042 135.249C245.252 135.216 245.448 135.125 245.609 134.987C245.762 134.81 245.877 134.604 245.947 134.38C246.438 133.104 246.904 131.776 246.933 130.4C246.94 129.849 246.916 129.298 246.863 128.749C246.815 128.168 246.403 127.942 245.861 127.907Z" fill="#145DBF"/>
<path d="M265.192 172.597C265.173 175.808 264.945 179.015 264.509 182.196C264.445 182.71 264.375 183.224 264.34 183.738C264.235 185.229 264.407 186.726 264.266 188.207C264.193 189.008 264.027 189.803 263.887 190.585C263.263 194.076 263.081 197.631 263.345 201.167C263.785 207.05 262.435 212.937 263.048 218.804C263.122 219.945 263.059 221.091 262.86 222.217C262.746 222.915 262.58 223.604 262.365 224.279C261.899 225.877 261.432 227.473 260.962 229.067C260.906 229.309 260.797 229.536 260.643 229.731C260.48 229.872 260.289 229.976 260.083 230.037C259.876 230.098 259.66 230.115 259.446 230.085C257.606 230.028 255.874 229.233 254.202 228.457C254.01 228.381 253.832 228.274 253.676 228.138C253.328 227.777 253.357 227.209 253.204 226.734C253.051 226.258 252.636 225.811 252.4 225.323C252.206 224.861 252.088 224.37 252.052 223.87C251.84 222.236 251.695 220.595 251.618 218.948C251.497 216.63 253.028 214.498 253.532 212.244C254.489 207.813 253.679 203.063 255.379 198.859C255.915 197.531 255.137 195.923 255.06 194.492C255.033 193.57 254.913 192.652 254.703 191.754C254.384 190.553 253.711 189.423 253.663 188.178C253.628 187.278 253.918 186.4 254.068 185.513C254.267 184.207 254.249 182.877 254.014 181.577C253.845 180.504 253.587 179.432 253.328 178.385L253.271 178.503C252.494 180.023 251.825 181.596 251.271 183.211C251.015 183.993 250.792 184.791 250.473 185.551C250.212 186.19 249.889 186.774 249.574 187.374C248.441 189.49 247.455 191.682 246.623 193.934C246.227 195.038 245.88 196.168 245.535 197.276L243.171 204.937C242.533 206.952 241.835 208.899 241.21 210.91C240.326 213.783 239.442 216.63 238.415 219.439C237.458 222.105 236.319 224.866 236.661 227.682C235.781 228.095 234.815 228.291 233.844 228.253C232.2 228.107 230.587 227.716 229.059 227.091C228.45 226.864 227.818 226.609 227.407 226.108C226.699 225.243 226.874 223.975 227.088 222.874C227.168 222.378 227.296 221.89 227.471 221.419C227.713 220.831 228.109 220.311 228.357 219.73C228.858 218.616 228.89 217.355 229.088 216.145C229.286 214.935 229.726 213.658 230.759 213.001C230.935 210.875 231.809 208.777 232.291 206.699C232.654 205.126 232.775 203.507 233.063 201.911C233.35 200.315 233.812 198.719 234.776 197.426C234.699 196.093 235 194.765 235.643 193.595C235.799 193.338 235.926 193.066 236.023 192.781C236.082 192.504 236.116 192.222 236.125 191.939C236.23 190.829 236.704 189.788 237.471 188.979C237.152 187.814 237.595 186.598 237.994 185.468C238.496 184.026 238.724 182.503 238.664 180.977C238.615 180.551 238.635 180.119 238.725 179.7C238.814 179.381 238.989 179.109 239.091 178.803C239.182 178.427 239.231 178.043 239.235 177.657C239.359 175.93 240.058 174.302 240.83 172.76C241.289 171.86 240.9 170.637 240.996 169.635C241.162 167.968 241.344 166.245 242.17 164.792C242.323 164.518 242.489 164.256 242.626 163.972C242.792 163.566 242.882 163.133 242.891 162.695C242.919 161.964 243.021 161.357 242.76 160.678C244.467 159.257 246.795 158.858 249.015 158.762C251.236 158.666 253.481 158.868 255.654 158.395C256.292 158.251 256.93 158.054 257.603 157.958C259.131 157.734 260.681 158.082 262.19 158.427C262.085 159.385 262.435 160.304 262.828 161.195C264.36 164.802 265.163 168.678 265.192 172.597Z" fill="#3D3C40"/>
<path d="M257.679 173.328L254.014 181.576C253.845 180.504 253.586 179.431 253.328 178.384L253.271 178.502V178.33L255.267 173.934L257.679 173.328Z" fill="#3D3C40" fill-opacity="0.16"/>
<path d="M268.662 156.096C268.451 156.255 268.198 156.349 267.935 156.368C267.531 156.382 267.127 156.327 266.742 156.205L263.871 155.487C263.781 155.465 263.693 155.434 263.609 155.394C263.657 154.893 263.753 154.312 264.024 154.117C264.429 153.846 265.641 154.21 266.101 154.274C266.892 154.382 267.696 154.51 268.468 154.66C268.587 155.13 268.653 155.612 268.662 156.096Z" fill="#3D3C40" fill-opacity="0.16"/>
<path d="M271.09 137.103C271.15 137.368 271.236 137.63 271.287 137.898C271.373 138.556 271.351 139.224 271.22 139.874L270.959 141.7L270.697 143.536L269.686 150.6L269.437 152.349L269.086 154.791C269.07 154.995 269.018 155.193 268.933 155.379C268.829 155.552 268.683 155.697 268.508 155.8C268.334 155.903 268.137 155.961 267.935 155.969C267.531 155.982 267.127 155.927 266.742 155.807L263.871 155.085C263.745 155.063 263.625 155.014 263.52 154.941C263.432 154.856 263.369 154.748 263.336 154.63C263.304 154.511 263.303 154.387 263.335 154.268C263.376 154.025 263.482 153.799 263.517 153.556C263.587 153.084 263.389 152.598 263.459 152.129C263.528 151.83 263.635 151.542 263.778 151.27C264.735 149.154 264.18 146.683 264.506 144.385C264.798 142.576 265.562 140.876 266.719 139.456C267.434 138.56 268.254 137.754 269.163 137.056C269.52 136.778 270.088 136.206 270.538 136.098C271.115 135.977 270.994 136.701 271.09 137.103Z" fill="#145DBF"/>
<path d="M249.363 109.605C249.152 110.276 249.481 111.013 249.331 111.696C249.168 112.449 248.46 112.973 248.259 113.73C247.94 114.882 248.916 115.932 249.631 116.89C252.279 120.446 251.931 125.368 251.025 129.706C250.296 133.187 249.288 136.603 248.01 139.921C247.612 140.953 247.171 142 246.387 142.772C247.854 142.351 249.414 141.926 250.885 142.335C252.747 142.852 254.355 144.662 256.244 144.25C257.379 143.998 258.177 142.989 259.197 142.431C261.111 141.399 263.418 142.047 265.552 142.379C266.012 142.488 266.493 142.464 266.939 142.309C267.281 142.126 267.57 141.859 267.782 141.534C268.734 140.311 269.304 138.834 269.421 137.288C269.472 136.518 269.358 135.746 269.088 135.024C268.818 134.301 268.398 133.644 267.855 133.097C267.402 132.669 266.86 132.324 266.512 131.82C266.174 131.231 265.993 130.565 265.986 129.885C265.734 126.374 266.589 122.789 265.708 119.393C265.389 118.183 264.869 117.024 264.729 115.785C264.553 114.244 264.971 112.593 264.359 111.182C263.877 110.062 262.815 109.267 261.67 108.858C260.524 108.45 259.3 108.335 258.084 108.22C256.336 108.073 250.093 107.323 249.363 109.605Z" fill="#3D3C40"/>
<g opacity="0.1">
<path opacity="0.1" d="M251.025 129.706C250.3 133.173 249.297 136.575 248.026 139.88C248.246 139.443 248.431 138.983 248.607 138.526C249.886 135.209 250.894 131.792 251.621 128.311C252.531 123.97 252.878 119.054 250.231 115.495C249.593 114.646 248.773 113.726 248.802 112.73C248.566 113.032 248.382 113.371 248.259 113.733C247.94 114.885 248.916 115.935 249.631 116.893C252.279 120.446 251.931 125.368 251.025 129.706Z" fill="black"/>
<path opacity="0.1" d="M249.369 111.374C249.625 111.056 249.816 110.69 249.93 110.298C249.98 109.824 249.967 109.345 249.892 108.874C249.646 109.06 249.462 109.314 249.363 109.605C249.174 110.17 249.391 110.783 249.369 111.374Z" fill="black"/>
<path opacity="0.1" d="M268.381 140.129C268.17 140.453 267.88 140.719 267.539 140.902C267.093 141.059 266.611 141.084 266.152 140.972C264.017 140.653 261.686 139.995 259.797 141.026C258.773 141.582 257.979 142.59 256.84 142.846C254.955 143.267 253.347 141.457 251.484 140.93C250.164 140.563 248.773 140.867 247.443 141.25C247.178 141.814 246.821 142.329 246.387 142.775C247.854 142.354 249.414 141.93 250.885 142.338C252.747 142.855 254.355 144.665 256.244 144.253C257.379 144.001 258.177 142.993 259.197 142.434C261.111 141.403 263.418 142.051 265.552 142.383C266.012 142.491 266.493 142.467 266.939 142.313C267.281 142.129 267.57 141.862 267.782 141.537C268.36 140.774 268.806 139.919 269.102 139.009C268.889 139.399 268.648 139.773 268.381 140.129Z" fill="black"/>
</g>
<circle cx="149.683" cy="95.7934" r="2" fill="#3D3C40"/>
<circle cx="157.683" cy="95.7934" r="2" fill="#3D3C40"/>
<circle cx="165.683" cy="95.7934" r="2" fill="#3D3C40"/>
<circle cx="173.683" cy="95.7934" r="2" fill="#3D3C40"/>
<circle cx="181.683" cy="95.7934" r="2" fill="#3D3C40"/>
<circle cx="189.683" cy="95.7934" r="2" fill="#3D3C40"/>
<circle cx="197.683" cy="95.7934" r="2" fill="#3D3C40"/>
<circle cx="205.683" cy="95.7934" r="2" fill="#3D3C40"/>
</svg>
