<svg width="186" height="133" viewBox="0 0 186 133" fill="none" xmlns="http://www.w3.org/2000/svg">
<g clip-path="url(#clip0)">
<path d="M183.054 89.415C178.74 98.3059 169.98 104.251 160.903 108.172C148.681 113.452 135.223 115.546 121.95 114.66C119.624 114.506 117.305 114.258 114.992 113.919C106.963 112.749 99.1339 110.471 91.7305 107.151C89.5938 106.19 87.5003 105.14 85.4502 104.003C82.026 102.107 78.745 99.963 75.6336 97.5889C74.851 96.992 74.0793 96.3799 73.3183 95.7527C72.7906 95.3179 72.2678 94.8735 71.7369 94.442C70.6166 93.532 69.4638 92.6674 68.1779 92.0202C67.7899 91.8247 67.3921 91.6493 66.9861 91.4946C62.914 89.9471 58.2184 90.531 53.9791 91.7379C50.7545 92.656 47.6111 93.9132 44.3898 94.8102C42.957 95.2214 41.497 95.5314 40.0206 95.7381C36.7244 96.1549 33.3771 95.8612 30.204 94.8767L29.9329 94.7924C29.4783 94.6496 29.0274 94.4934 28.5804 94.3236L28.3092 94.2198C27.8763 94.0532 27.4525 93.8742 27.0379 93.6828L26.7668 93.5596C26.3338 93.3584 25.91 93.1459 25.4955 92.9221C25.3461 92.8442 25.1983 92.7598 25.0522 92.6804C22.6935 91.3642 20.5494 89.6964 18.694 87.7345C18.6404 87.681 18.5901 87.6258 18.5317 87.5723C18.2735 87.2933 18.0202 87.0094 17.775 86.719C17.6841 86.612 17.5932 86.5049 17.5039 86.3946C17.2127 86.0399 16.9318 85.6771 16.6612 85.3062C16.6206 85.2526 16.5817 85.1975 16.5427 85.1439C15.434 83.6116 14.5148 81.9509 13.8052 80.1981C13.7825 80.1445 13.7614 80.0894 13.7419 80.0359C13.5254 79.4789 13.3279 78.9128 13.1493 78.3375C13.0762 78.0974 13.0064 77.8509 12.9447 77.6108C12.9236 77.5394 12.9041 77.4664 12.8862 77.395C11.99 73.8701 11.8877 70.2058 11.8877 66.5625C11.8877 66.1375 11.8877 65.713 11.8877 65.2891C11.9137 59.3959 12.0046 53.4021 12.8749 47.59C12.8749 47.5495 12.8862 47.5089 12.8927 47.47C13.184 45.5133 13.5802 43.5737 14.0796 41.6595C14.6023 39.651 15.2703 37.683 16.0783 35.7712C18.0803 31.067 20.9915 26.7862 24.2242 22.8185C32.3667 12.8343 43.0455 4.45274 55.5443 1.31554C69.0124 -2.06335 83.9808 1.17442 94.8446 9.8155C98.1569 12.4498 101.133 15.5692 104.853 17.5887C108.1 19.3471 111.901 20.0755 115.379 18.6918C118.253 17.5482 120.123 16.9804 123.351 17.154C130.033 17.5317 136.621 18.9102 142.893 21.2434C143.146 21.3359 143.4 21.4316 143.651 21.5273C160.003 27.7773 174.059 40.1947 181.365 56.1516C181.559 56.5734 181.747 56.9984 181.929 57.4266C186.285 67.5925 187.86 79.507 183.054 89.415Z" fill="#166DE0" fill-opacity="0.08"/>
<path opacity="0.1" d="M19.5328 120.523C27.449 120.523 33.8663 119.493 33.8663 118.223C33.8663 116.952 27.449 115.922 19.5328 115.922C11.6166 115.922 5.19922 116.952 5.19922 118.223C5.19922 119.493 11.6166 120.523 19.5328 120.523Z" fill="#6C63FF"/>
<g filter="url(#filter0_d)">
<rect x="19" y="17" width="153" height="89" rx="4" fill="white"/>
<rect x="19" y="17" width="45.2845" height="89" fill="#1C58D9"/>
<ellipse cx="26.6943" cy="25.151" rx="4.17672" ry="4.18564" fill="white" fill-opacity="0.24"/>
<rect x="33.5088" y="22.2871" width="20.2241" height="2.20297" rx="1.10148" fill="white" fill-opacity="0.48"/>
<rect x="33.5088" y="26.6929" width="13.1897" height="1.76238" rx="0.881188" fill="white" fill-opacity="0.32"/>
<rect x="23.3965" y="35.0645" width="13.1897" height="1.76237" rx="0.881187" fill="white" fill-opacity="0.32"/>
<rect x="23.3965" y="93.6631" width="13.1897" height="1.76237" rx="0.881187" fill="white" fill-opacity="0.32"/>
<ellipse cx="25.3749" cy="42.3342" rx="1.97845" ry="1.98268" fill="white" fill-opacity="0.24"/>
<rect x="29.9912" y="41.6733" width="25.5" height="1.76238" rx="0.881188" fill="white" fill-opacity="0.32"/>
<ellipse cx="25.3749" cy="64.8045" rx="1.97845" ry="1.98268" fill="white" fill-opacity="0.24"/>
<rect x="29.9912" y="64.1436" width="25.5" height="1.76237" rx="0.881186" fill="white" fill-opacity="0.32"/>
<ellipse cx="25.3749" cy="49.8245" rx="1.97845" ry="1.98267" fill="white" fill-opacity="0.24"/>
<rect x="29.9912" y="49.1636" width="21.9828" height="1.76238" rx="0.881189" fill="white" fill-opacity="0.32"/>
<ellipse cx="25.3749" cy="72.2947" rx="1.97845" ry="1.98267" fill="white" fill-opacity="0.24"/>
<rect x="29.9912" y="71.6338" width="21.9828" height="1.76238" rx="0.881189" fill="white" fill-opacity="0.32"/>
<ellipse cx="25.3749" cy="57.3142" rx="1.97845" ry="1.98267" fill="white" fill-opacity="0.24"/>
<rect x="29.9912" y="56.6533" width="29.0172" height="1.76238" rx="0.881189" fill="white" fill-opacity="0.32"/>
<ellipse cx="25.3749" cy="79.7849" rx="1.97845" ry="1.98268" fill="white" fill-opacity="0.24"/>
<rect x="29.9912" y="79.124" width="29.0172" height="1.76237" rx="0.881184" fill="white" fill-opacity="0.32"/>
<ellipse cx="25.3749" cy="100.933" rx="1.97845" ry="1.98267" fill="white" fill-opacity="0.24"/>
<rect x="29.9912" y="100.272" width="29.0172" height="1.76237" rx="0.881187" fill="white" fill-opacity="0.32"/>
<ellipse cx="25.3749" cy="87.2747" rx="1.97845" ry="1.98267" fill="white" fill-opacity="0.24"/>
<rect x="29.9912" y="86.6138" width="19.3448" height="1.76237" rx="0.881184" fill="white" fill-opacity="0.32"/>
<rect x="64.2852" y="29.3369" width="82.6552" height="24.6733" rx="4" fill="white"/>
<ellipse cx="72.5424" cy="37.6119" rx="3.75039" ry="3.75839" fill="#3D3C40" fill-opacity="0.24"/>
<rect x="79.627" y="34.4102" width="17.7796" height="1.6704" rx="0.835199" fill="#3D3C40" fill-opacity="0.48"/>
<rect x="79.6738" y="38.1489" width="53.6379" height="1.32178" rx="0.660891" fill="#3D3C40" fill-opacity="0.24"/>
<rect x="79.6738" y="41.2329" width="43.9655" height="1.32178" rx="0.660892" fill="#3D3C40" fill-opacity="0.24"/>
<rect x="79.6738" y="43.8765" width="60.2328" height="1.32178" rx="0.660892" fill="#3D3C40" fill-opacity="0.24"/>
<rect x="79.6738" y="46.9609" width="31.6552" height="1.32179" rx="0.660895" fill="#3D3C40" fill-opacity="0.24"/>
<rect x="64.2852" y="50.9258" width="82.6552" height="24.6733" rx="4" fill="white"/>
<ellipse cx="72.5424" cy="59.2008" rx="3.75039" ry="3.75839" fill="#3D3C40" fill-opacity="0.24"/>
<rect x="79.627" y="55.999" width="17.7796" height="1.67039" rx="0.835197" fill="#3D3C40" fill-opacity="0.48"/>
<rect x="79.6738" y="59.7378" width="53.6379" height="1.32178" rx="0.660891" fill="#3D3C40" fill-opacity="0.24"/>
<rect x="79.6738" y="62.8218" width="43.9655" height="1.32178" rx="0.660891" fill="#3D3C40" fill-opacity="0.24"/>
<rect x="79.6738" y="65.4653" width="60.2328" height="1.32178" rx="0.660892" fill="#3D3C40" fill-opacity="0.24"/>
<rect x="79.6738" y="68.5498" width="31.6552" height="1.32178" rx="0.660892" fill="#3D3C40" fill-opacity="0.24"/>
<rect x="64.2852" y="74.2773" width="82.6552" height="24.6733" rx="4" fill="white"/>
<ellipse cx="72.5424" cy="82.5523" rx="3.75039" ry="3.7584" fill="#3D3C40" fill-opacity="0.24"/>
<rect x="79.627" y="79.3506" width="17.7796" height="1.6704" rx="0.835199" fill="#3D3C40" fill-opacity="0.48"/>
<rect x="79.6738" y="83.0894" width="53.6379" height="1.32178" rx="0.660892" fill="#3D3C40" fill-opacity="0.24"/>
<rect x="79.6738" y="86.1733" width="43.9655" height="1.32179" rx="0.660896" fill="#3D3C40" fill-opacity="0.24"/>
<rect x="79.6738" y="88.8169" width="60.2328" height="1.32177" rx="0.660885" fill="#3D3C40" fill-opacity="0.24"/>
<rect x="79.6738" y="91.9014" width="31.6552" height="1.32177" rx="0.660885" fill="#3D3C40" fill-opacity="0.24"/>
<rect x="65.6035" y="18.3218" width="104.638" height="13.4775" rx="4" fill="white"/>
<ellipse cx="92.6647" cy="24.0743" rx="1.14807" ry="1.15052" fill="#3D3C40" fill-opacity="0.32"/>
<ellipse cx="160.565" cy="25.0603" rx="1.47609" ry="1.47924" fill="#3D3C40" fill-opacity="0.32"/>
<ellipse cx="128.418" cy="25.0603" rx="1.47608" ry="1.47924" fill="#3D3C40" fill-opacity="0.32"/>
<ellipse cx="97.5856" cy="24.0743" rx="1.14807" ry="1.15052" fill="#3D3C40" fill-opacity="0.32"/>
<ellipse cx="165.485" cy="25.0603" rx="1.47609" ry="1.47924" fill="#3D3C40" fill-opacity="0.32"/>
<rect x="70.1953" y="23.2524" width="19.0251" height="1.31488" rx="0.657438" fill="#3D3C40" fill-opacity="0.48"/>
<rect x="132.19" y="23.5811" width="24.6014" height="2.95847" rx="1.47924" fill="#3D3C40" fill-opacity="0.24"/>
<rect x="78.7236" y="26.5396" width="29.1937" height="0.657438" rx="0.328719" fill="#3D3C40" fill-opacity="0.24"/>
<ellipse cx="71.1794" cy="26.8685" rx="0.984055" ry="0.986157" fill="#3D3C40" fill-opacity="0.32"/>
<ellipse cx="75.1159" cy="26.8685" rx="0.984056" ry="0.986157" fill="#3D3C40" fill-opacity="0.32"/>
<rect x="18.5" y="16.5" width="154" height="90" rx="4.5" stroke="#3D3C40" stroke-opacity="0.04"/>
</g>
<path opacity="0.1" d="M140.348 73.4922C140.336 73.7107 140.305 73.9278 140.255 74.141C140.255 74.081 140.255 74.0469 140.242 74.0421C140.193 74.0291 140.252 73.7809 140.348 73.4922Z" fill="black"/>
<path opacity="0.1" d="M138.551 121.577C138.551 121.577 139.2 122.388 138.924 122.761C138.648 123.134 138.551 121.577 138.551 121.577Z" fill="black" stroke="#6C63FF" stroke-miterlimit="10"/>
<g opacity="0.1">
<path opacity="0.1" d="M145.576 48.5049C145.491 48.9023 145.211 49.3533 144.806 49.3046C144.681 49.2884 144.568 49.2251 144.444 49.1976C144.105 49.1229 143.903 49.4409 143.584 49.3598C143.425 49.3143 143.277 49.2368 143.149 49.1322C143.021 49.0277 142.916 48.8981 142.84 48.7515C142.755 48.5864 142.704 48.4061 142.689 48.221C142.657 48.5083 142.709 48.7987 142.84 49.0564C142.916 49.203 143.021 49.3326 143.149 49.4372C143.277 49.5418 143.425 49.6192 143.584 49.6647C143.908 49.7393 144.105 49.4214 144.444 49.5025C144.563 49.5438 144.684 49.579 144.806 49.608C145.211 49.6582 145.491 49.2073 145.576 48.8099C145.642 48.4588 145.669 48.1012 145.654 47.7441C145.652 47.9996 145.626 48.2544 145.576 48.5049Z" fill="black"/>
<path opacity="0.1" d="M143.352 46.0622C143.372 45.7964 143.336 45.5292 143.245 45.2787C143.171 45.1121 143.109 44.9409 143.058 44.7661C143.051 44.7934 143.045 44.821 143.042 44.8488C143.014 45.1035 143.157 45.3355 143.245 45.5837C143.301 45.7378 143.337 45.8987 143.352 46.0622Z" fill="black"/>
<path opacity="0.1" d="M155.756 45.2075C155.679 45.6682 155.306 46.1013 155.268 46.5863C155.259 46.6694 155.259 46.7531 155.268 46.8361C155.35 46.27 155.851 45.7688 155.756 45.2075Z" fill="black"/>
<path opacity="0.1" d="M155.784 48.6299C155.77 48.6977 155.738 48.7605 155.691 48.8116C155.571 48.9397 155.367 48.9494 155.204 49.0127C154.81 49.1636 154.555 49.6405 154.126 49.6356C154.016 49.6294 153.911 49.5901 153.824 49.5229C153.737 49.4557 153.673 49.3638 153.639 49.2593C153.629 49.2944 153.622 49.3302 153.616 49.3663C153.612 49.4373 153.621 49.5086 153.644 49.5759C153.667 49.6432 153.704 49.7053 153.751 49.7585C153.798 49.8117 153.856 49.8551 153.92 49.8861C153.984 49.917 154.053 49.935 154.125 49.9389C154.548 49.9389 154.808 49.4669 155.203 49.3177C155.365 49.2544 155.563 49.2447 155.69 49.1165C155.737 49.0549 155.771 48.9837 155.789 48.9078C155.806 48.8319 155.807 48.7531 155.79 48.6769C155.789 48.6575 155.786 48.6445 155.784 48.6299Z" fill="black"/>
<path opacity="0.1" d="M153.748 48.4954C153.707 48.2001 153.35 48.0801 153.161 47.8465C153.046 47.6931 152.983 47.5064 152.983 47.3145C152.97 47.6162 152.975 47.9244 153.161 48.1515C153.348 48.3786 153.632 48.4759 153.723 48.7095C153.746 48.6406 153.755 48.5676 153.748 48.4954Z" fill="black"/>
</g>
<g opacity="0.1">
<path opacity="0.1" d="M144.997 48.4951C145.006 48.2259 145.102 47.9669 145.272 47.7572C145.441 47.5475 145.674 47.3983 145.935 47.332C146.659 47.1552 147.419 47.1896 148.124 47.431C149.665 47.9403 147.929 49.7734 147.929 49.7734C147.929 49.7734 146.774 50.9089 145.698 50.1156C145.38 49.8755 145.157 49.5307 145.07 49.1423C145.017 48.9307 144.992 48.7131 144.997 48.4951Z" fill="black"/>
<path opacity="0.1" d="M147.833 47.2817V47.3579H150.647V47.2671L147.833 47.2817Z" fill="black"/>
<path opacity="0.1" d="M148.73 48.0941H148.82V47.8362C148.82 47.8362 149.105 47.614 149.579 47.8362V48.0666H149.742V47.9157H149.662C149.662 47.9157 149.695 47.6026 149.165 47.6529C149.165 47.6529 148.74 47.6124 148.75 47.8816H148.652L148.73 48.0941Z" fill="black"/>
</g>
<mask id="path-69-inside-1" fill="white">
<path d="M19.9935 74.1621H19.0713V94.9092H19.9935V74.1621Z"/>
</mask>
<path d="M19.9935 74.1621H19.0713V94.9092H19.9935V74.1621Z" fill="#535461"/>
<path d="M19.0713 74.1621V73.1621H18.0713V74.1621H19.0713ZM19.9935 74.1621H20.9935V73.1621H19.9935V74.1621ZM19.9935 94.9092V95.9092H20.9935V94.9092H19.9935ZM19.0713 94.9092H18.0713V95.9092H19.0713V94.9092ZM19.0713 75.1621H19.9935V73.1621H19.0713V75.1621ZM18.9935 74.1621V94.9092H20.9935V74.1621H18.9935ZM19.9935 93.9092H19.0713V95.9092H19.9935V93.9092ZM20.0713 94.9092V74.1621H18.0713V94.9092H20.0713Z" fill="#3D3C40" mask="url(#path-69-inside-1)"/>
<path d="M25.2911 94.813L25.291 94.8145L25.2326 95.7488L25.2325 95.7493L25.1514 97.0679L25.1513 97.0681L25.1173 97.6178L25.1172 97.6181L25.0362 98.9367L25.0361 98.9385L25.0004 99.4866L25.0003 99.4883L24.9192 100.807L24.9192 100.807L23.9888 115.807L23.9888 115.807C23.9569 116.325 23.7284 116.812 23.3496 117.168C22.9708 117.524 22.4703 117.722 21.9501 117.722H17.1149C17.1149 117.722 17.1149 117.722 17.1149 117.722C16.5949 117.722 16.0947 117.524 15.7161 117.168C15.3376 116.812 15.1094 116.325 15.0778 115.807L15.0778 115.807L14.1426 100.807L14.1426 100.807L14.0614 99.4883L14.0614 99.4881L14.0274 98.9391L14.0273 98.9382L13.9478 97.6155L13.9477 97.6145L13.9137 97.0649L13.9136 97.0646L13.8325 95.7461L13.8324 95.7456L13.774 94.8116C13.774 94.8115 13.774 94.8115 13.774 94.8114C13.7672 94.7004 13.7831 94.5891 13.821 94.4844C13.8588 94.3797 13.9178 94.2838 13.9942 94.2027C14.0706 94.1216 14.1628 94.0569 14.2653 94.0127C14.3677 93.9685 14.4782 93.9457 14.5898 93.9458H14.5901L24.4765 93.9458L24.477 93.9458C24.5886 93.9457 24.6991 93.9685 24.8016 94.0128C24.904 94.0571 24.9963 94.1219 25.0726 94.2032C25.1489 94.2846 25.2076 94.3806 25.2452 94.4855C25.2828 94.5904 25.2984 94.7018 25.2911 94.813Z" fill="#3F3D56" stroke="#3D3C40"/>
<path d="M25.7318 95.7803L25.6506 97.0991H13.4132L13.332 95.7803H25.7318Z" fill="white"/>
<path d="M25.6165 97.6489L25.5353 98.9693H13.5301L13.4473 97.6489H25.6165Z" fill="white"/>
<path d="M25.4989 99.519L25.4177 100.838H13.6463L13.5635 99.519H25.4989Z" fill="white"/>
<path d="M11.9239 81.9385C17.2949 85.8202 19.5323 91.8934 19.5323 91.8934C19.5323 91.8934 13.0588 91.6712 7.67969 87.7895C2.30055 83.9077 0.0712891 77.8345 0.0712891 77.8345C0.0712891 77.8345 6.55126 78.0567 11.9239 81.9385Z" fill="#06D6A0"/>
<path d="M0.0791016 77.8345C0.0791016 77.8345 6.79775 81.5654 8.95233 84.6474C11.1069 87.7295 19.532 91.8951 19.532 91.8951" stroke="#3D3C40" stroke-width="2" stroke-miterlimit="10"/>
<path d="M15.3902 74.1248C18.3128 76.2335 19.5321 79.5427 19.5321 79.5427C19.5321 79.5427 16.0088 79.4227 13.0846 77.309C10.1604 75.1954 8.94434 71.8911 8.94434 71.8911C8.94434 71.8911 12.4676 72.003 15.3902 74.1248Z" fill="#06D6A0"/>
<path d="M8.94434 71.8828C8.94434 71.8828 12.6008 73.9105 13.7731 75.5894C14.9453 77.2683 19.5321 79.5344 19.5321 79.5344" stroke="#3D3C40" stroke-width="2" stroke-miterlimit="10"/>
<path d="M23.7817 79.3676C20.4224 83.0547 19.7129 87.8724 19.7129 87.8724C19.7129 87.8724 24.4474 86.7126 27.8051 83.0255C31.1628 79.3384 31.874 74.519 31.874 74.519C31.874 74.519 27.1394 75.6789 23.7817 79.3676Z" fill="#06D6A0"/>
<path d="M31.874 74.519C31.874 74.519 27.4999 78.2986 26.3877 80.9037C25.2755 83.5089 19.7129 87.8789 19.7129 87.8789" stroke="#3D3C40" stroke-width="2" stroke-miterlimit="10"/>
</g>
<defs>
<filter id="filter0_d" x="-14" y="4" width="219" height="155" filterUnits="userSpaceOnUse" color-interpolation-filters="sRGB">
<feFlood flood-opacity="0" result="BackgroundImageFix"/>
<feColorMatrix in="SourceAlpha" type="matrix" values="0 0 0 0 0 0 0 0 0 0 0 0 0 0 0 0 0 0 127 0"/>
<feOffset dy="20"/>
<feGaussianBlur stdDeviation="16"/>
<feColorMatrix type="matrix" values="0 0 0 0 0 0 0 0 0 0 0 0 0 0 0 0 0 0 0.12 0"/>
<feBlend mode="normal" in2="BackgroundImageFix" result="effect1_dropShadow"/>
<feBlend mode="normal" in="SourceGraphic" in2="effect1_dropShadow" result="shape"/>
</filter>
<clipPath id="clip0">
<rect width="186" height="133" fill="white"/>
</clipPath>
</defs>
</svg>
