<svg width="320" height="212" viewBox="0 0 320 212" fill="none" xmlns="http://www.w3.org/2000/svg">
<g clip-path="url(#clip0)">
<ellipse cx="160" cy="204.258" rx="160" ry="5.5" fill="#3D3C40" fill-opacity="0.08"/>
<path d="M177.5 205.479C190.479 205.479 201 204.422 201 203.119C201 201.815 190.479 200.758 177.5 200.758C164.521 200.758 154 201.815 154 203.119C154 204.422 164.521 205.479 177.5 205.479Z" fill="#3D3C40" fill-opacity="0.16"/>
<path d="M137 205.758C157.987 205.758 175 204.639 175 203.258C175 201.878 157.987 200.758 137 200.758C116.013 200.758 99 201.878 99 203.258C99 204.639 116.013 205.758 137 205.758Z" fill="#3D3C40" fill-opacity="0.16"/>
<path fill-rule="evenodd" clip-rule="evenodd" d="M162.85 180.772L160.532 183.723L163.074 182.043C163.182 182.651 163.27 183.262 163.338 183.876C168.168 180.032 173.817 177.945 173.817 177.945C173.817 177.945 173.658 179.452 173.224 181.682L171.497 182.302L173.099 182.304C172.732 184.104 172.272 185.879 171.723 187.622L168.35 188.833L171.316 188.837C170.48 191.344 169.299 193.696 167.815 195.81C163.007 202.33 157.17 205.891 154.778 203.764C154.591 203.598 154.431 203.402 154.297 203.179C152.352 200.856 151.48 194.973 152.318 188.323C152.424 187.499 152.578 186.683 152.777 185.88L155.187 188.699L153.26 184.167C155.423 177.345 160.088 171.299 160.088 171.299C160.088 171.299 160.661 172.679 161.339 174.835L160.153 176.346L161.525 175.438C162.058 177.187 162.5 178.968 162.85 180.772Z" fill="white"/>
<path fill-rule="evenodd" clip-rule="evenodd" d="M162.85 180.772L160.532 183.723L163.074 182.043C163.182 182.651 163.27 183.262 163.338 183.876C168.168 180.032 173.817 177.945 173.817 177.945C173.817 177.945 173.658 179.452 173.224 181.682L171.497 182.302L173.099 182.304C172.732 184.104 172.272 185.879 171.723 187.622L168.35 188.833L171.316 188.837C170.48 191.344 169.299 193.696 167.815 195.81C163.007 202.33 157.17 205.891 154.778 203.764C154.591 203.598 154.431 203.402 154.297 203.179C152.352 200.856 151.48 194.973 152.318 188.323C152.424 187.499 152.578 186.683 152.777 185.88L155.187 188.699L153.26 184.167C155.423 177.345 160.088 171.299 160.088 171.299C160.088 171.299 160.661 172.679 161.339 174.835L160.153 176.346L161.525 175.438C162.058 177.187 162.5 178.968 162.85 180.772Z" fill="#3D3C40" fill-opacity="0.32"/>
<path d="M211 204.758C217.075 204.758 222 204.087 222 203.258C222 202.43 217.075 201.758 211 201.758C204.925 201.758 200 202.43 200 203.258C200 204.087 204.925 204.758 211 204.758Z" fill="#3D3C40" fill-opacity="0.16"/>
<path fill-rule="evenodd" clip-rule="evenodd" d="M197.383 191.948L196.924 193.606L197.682 192.42C198.3 193.392 198.778 194.462 199.101 195.593C199.829 193.54 200.847 191.626 202.119 189.923C202.119 189.923 202.374 190.537 202.676 191.495L202.148 192.167L202.758 191.764C202.995 192.542 203.192 193.334 203.348 194.136L202.317 195.448L203.447 194.701C203.496 194.978 203.536 195.257 203.567 195.536C204.999 194.419 206.567 193.524 208.225 192.878C208.225 192.878 208.154 193.549 207.961 194.541L207.193 194.816L207.906 194.817C207.742 195.618 207.538 196.407 207.293 197.182L205.793 197.721L207.113 197.722C206.741 198.838 206.216 199.884 205.555 200.824C203.417 203.724 200.821 205.308 199.757 204.361C199.674 204.287 199.602 204.2 199.542 204.1C199.253 203.754 199.018 203.231 198.846 202.578C198.718 202.705 198.575 202.795 198.417 202.845C198.314 202.877 198.208 202.891 198.1 202.888C196.833 203.073 194.659 201.922 192.666 199.891C192.42 199.638 192.189 199.369 191.973 199.084L193.523 198.839L191.528 198.454C190.4 196.609 189.546 194.579 189 192.44C189 192.44 189.604 192.562 190.492 192.841L190.691 193.701L190.74 192.92C191.456 193.153 192.16 193.431 192.848 193.751L193.235 195.431L193.326 193.985C193.561 194.1 193.792 194.224 194.018 194.357C194.006 192.428 194.237 190.504 194.706 188.642C194.706 188.642 195.166 189.09 195.795 189.832L195.56 190.681L195.97 190.041C196.473 190.647 196.945 191.284 197.383 191.948ZM199.419 197.053C199.35 196.654 199.264 196.247 199.162 195.834L199.939 197.661L199.419 197.053Z" fill="white"/>
<path fill-rule="evenodd" clip-rule="evenodd" d="M197.383 191.948L196.924 193.606L197.682 192.42C198.3 193.392 198.778 194.462 199.101 195.593C199.829 193.54 200.847 191.626 202.119 189.923C202.119 189.923 202.374 190.537 202.676 191.495L202.148 192.167L202.758 191.764C202.995 192.542 203.192 193.334 203.348 194.136L202.317 195.448L203.447 194.701C203.496 194.978 203.536 195.257 203.567 195.536C204.999 194.419 206.567 193.524 208.225 192.878C208.225 192.878 208.154 193.549 207.961 194.541L207.193 194.816L207.906 194.817C207.742 195.618 207.538 196.407 207.293 197.182L205.793 197.721L207.113 197.722C206.741 198.838 206.216 199.884 205.555 200.824C203.417 203.724 200.821 205.308 199.757 204.361C199.674 204.287 199.602 204.2 199.542 204.1C199.253 203.754 199.018 203.231 198.846 202.578C198.718 202.705 198.575 202.795 198.417 202.845C198.314 202.877 198.208 202.891 198.1 202.888C196.833 203.073 194.659 201.922 192.666 199.891C192.42 199.638 192.189 199.369 191.973 199.084L193.523 198.839L191.528 198.454C190.4 196.609 189.546 194.579 189 192.44C189 192.44 189.604 192.562 190.492 192.841L190.691 193.701L190.74 192.92C191.456 193.153 192.16 193.431 192.848 193.751L193.235 195.431L193.326 193.985C193.561 194.1 193.792 194.224 194.018 194.357C194.006 192.428 194.237 190.504 194.706 188.642C194.706 188.642 195.166 189.09 195.795 189.832L195.56 190.681L195.97 190.041C196.473 190.647 196.945 191.284 197.383 191.948ZM199.419 197.053C199.35 196.654 199.264 196.247 199.162 195.834L199.939 197.661L199.419 197.053Z" fill="#3D3C40" fill-opacity="0.32"/>
<path d="M203 3.75827C203 2.10142 201.657 0.75827 200 0.75827H67C65.3431 0.75827 64 2.10142 64 3.75827V82.4643C64 84.1212 65.3431 85.4643 67 85.4643H81.6558V108.758L100.676 85.4643H200C201.657 85.4643 203 84.1212 203 82.4643V3.75827Z" fill="white"/>
<path opacity="0.24" d="M203 3.75827C203 2.10142 201.657 0.75827 200 0.75827H67C65.3431 0.75827 64 2.10142 64 3.75827V82.4643C64 84.1212 65.3431 85.4643 67 85.4643H81.6558V108.758L100.676 85.4643H200C201.657 85.4643 203 84.1212 203 82.4643V3.75827Z" fill="#166DE0"/>
<path d="M178.208 25.6408H88.7925C87.6879 25.6408 86.7925 26.5362 86.7925 27.6408V28.229C86.7925 29.3336 87.6879 30.229 88.7925 30.229H178.208C179.313 30.229 180.208 29.3336 180.208 28.229V27.6408C180.208 26.5362 179.313 25.6408 178.208 25.6408Z" fill="white"/>
<path d="M178.208 40.8173H88.7925C87.6879 40.8173 86.7925 41.7128 86.7925 42.8173V43.4056C86.7925 44.5101 87.6879 45.4056 88.7925 45.4056H178.208C179.313 45.4056 180.208 44.5101 180.208 43.4056V42.8173C180.208 41.7128 179.313 40.8173 178.208 40.8173Z" fill="white"/>
<path d="M178.208 55.9937H88.7925C87.6879 55.9937 86.7925 56.8892 86.7925 57.9937V58.582C86.7925 59.6865 87.6879 60.582 88.7925 60.582H178.208C179.313 60.582 180.208 59.6865 180.208 58.582V57.9937C180.208 56.8892 179.313 55.9937 178.208 55.9937Z" fill="white"/>
<path d="M149 75.7583C149 74.1014 150.343 72.7583 152 72.7583H258C259.657 72.7583 261 74.1014 261 75.7583V137.994C261 139.651 259.657 140.994 258 140.994H246.774V159.758L231.448 140.994H152C150.343 140.994 149 139.651 149 137.994V75.7583Z" fill="white"/>
<path opacity="0.48" d="M149 75.7583C149 74.1014 150.343 72.7583 152 72.7583H258C259.657 72.7583 261 74.1014 261 75.7583V137.994C261 139.651 259.657 140.994 258 140.994H246.774V159.758L231.448 140.994H152C150.343 140.994 149 139.651 149 137.994V75.7583Z" fill="#166DE0"/>
<path d="M169.213 92.8025H240.787C241.807 92.8025 242.635 93.6299 242.635 94.6506C242.635 95.6712 241.807 96.4986 240.787 96.4986H169.213C168.192 96.4986 167.365 95.6712 167.365 94.6506C167.365 93.6299 168.192 92.8025 169.213 92.8025Z" fill="white"/>
<path d="M169.213 105.028H240.787C241.807 105.028 242.635 105.855 242.635 106.876C242.635 107.897 241.807 108.724 240.787 108.724H169.213C168.192 108.724 167.365 107.897 167.365 106.876C167.365 105.855 168.192 105.028 169.213 105.028Z" fill="white"/>
<path d="M169.213 117.253H240.787C241.807 117.253 242.635 118.081 242.635 119.102C242.635 120.122 241.807 120.95 240.787 120.95H169.213C168.192 120.95 167.365 120.122 167.365 119.102C167.365 118.081 168.192 117.253 169.213 117.253Z" fill="white"/>
<path d="M119.976 203.623C121.479 203.623 122.697 202.022 122.697 200.048C122.697 198.073 121.479 196.472 119.976 196.472C118.473 196.472 117.255 198.073 117.255 200.048C117.255 202.022 118.473 203.623 119.976 203.623Z" fill="#3D3C40"/>
<path d="M119.976 199.256C121.479 199.256 122.697 197.655 122.697 195.68C122.697 193.705 121.479 192.104 119.976 192.104C118.473 192.104 117.255 193.705 117.255 195.68C117.255 197.655 118.473 199.256 119.976 199.256Z" fill="#3D3C40"/>
<path d="M119.976 194.881C121.479 194.881 122.697 193.28 122.697 191.305C122.697 189.33 121.479 187.729 119.976 187.729C118.473 187.729 117.255 189.33 117.255 191.305C117.255 193.28 118.473 194.881 119.976 194.881Z" fill="#3D3C40"/>
<path d="M119.976 190.513C121.479 190.513 122.697 188.912 122.697 186.937C122.697 184.962 121.479 183.361 119.976 183.361C118.473 183.361 117.255 184.962 117.255 186.937C117.255 188.912 118.473 190.513 119.976 190.513Z" fill="#3D3C40"/>
<path d="M119.976 186.138C121.479 186.138 122.697 184.537 122.697 182.562C122.697 180.587 121.479 178.986 119.976 178.986C118.473 178.986 117.255 180.587 117.255 182.562C117.255 184.537 118.473 186.138 119.976 186.138Z" fill="#3D3C40"/>
<path d="M119.976 181.77C121.479 181.77 122.697 180.169 122.697 178.194C122.697 176.219 121.479 174.618 119.976 174.618C118.473 174.618 117.255 176.219 117.255 178.194C117.255 180.169 118.473 181.77 119.976 181.77Z" fill="#3D3C40"/>
<path d="M119.976 177.395C121.479 177.395 122.697 175.794 122.697 173.819C122.697 171.844 121.479 170.243 119.976 170.243C118.473 170.243 117.255 171.844 117.255 173.819C117.255 175.794 118.473 177.395 119.976 177.395Z" fill="#3D3C40"/>
<path d="M130.158 143.905C130.529 143.43 130.868 142.93 131.171 142.408L124.021 141.231L131.75 141.289C132.491 139.668 132.896 137.913 132.94 136.13C132.983 134.347 132.665 132.573 132.003 130.918L121.626 136.325L131.192 129.261C130.294 127.711 129.088 126.363 127.649 125.3C126.211 124.238 124.57 123.484 122.828 123.085C121.087 122.687 119.283 122.652 117.528 122.983C115.773 123.315 114.104 124.005 112.626 125.011C111.147 126.017 109.891 127.318 108.934 128.833C107.978 130.347 107.341 132.043 107.065 133.815C106.788 135.587 106.878 137.397 107.327 139.133C107.777 140.869 108.577 142.493 109.678 143.905C109.098 144.647 108.599 145.449 108.187 146.296L117.472 151.137L107.572 147.801C107.118 149.154 106.886 150.573 106.885 152.002C106.879 154.937 107.864 157.788 109.678 160.09C108.168 162.02 107.23 164.338 106.97 166.778C106.709 169.219 107.138 171.683 108.206 173.891C109.275 176.098 110.94 177.959 113.012 179.261C115.083 180.563 117.478 181.253 119.921 181.253C122.365 181.253 124.76 180.563 126.831 179.261C128.903 177.959 130.568 176.098 131.637 173.891C132.705 171.683 133.133 169.219 132.873 166.778C132.613 164.338 131.674 162.02 130.165 160.09C131.972 157.783 132.954 154.932 132.953 151.997C132.951 149.061 131.967 146.211 130.158 143.905Z" fill="#06D6A0"/>
<path opacity="0.1" d="M106.885 151.994C106.879 154.93 107.864 157.781 109.678 160.083C108.168 162.013 107.23 164.331 106.97 166.771C106.709 169.211 107.138 171.676 108.206 173.883C109.275 176.091 110.94 177.952 113.012 179.254C115.083 180.555 117.478 181.246 119.921 181.246C122.365 181.246 124.76 180.555 126.831 179.254C128.903 177.952 130.568 176.091 131.637 173.883C132.705 171.676 133.134 169.211 132.873 166.771C132.613 164.331 131.675 162.013 130.165 160.083C131.909 157.859 106.885 150.526 106.885 151.994Z" fill="#3D3C40"/>
<path fill-rule="evenodd" clip-rule="evenodd" d="M97.6357 181.724L96.7253 185.014L98.2295 182.661C99.4572 184.594 100.408 186.722 101.048 188.971C102.908 196.088 102.298 202.525 99.6872 203.348C99.483 203.412 99.2726 203.44 99.0574 203.434C96.5441 203.801 92.2298 201.516 88.2756 197.485C87.787 196.984 87.3276 196.449 86.9001 195.885L89.9752 195.398L86.0168 194.634C82.6197 189.463 81 182.699 81 182.699C81 182.699 82.1991 182.943 83.9616 183.496L84.3557 185.203L84.4529 183.653C85.8742 184.116 87.2705 184.666 88.6353 185.301L89.405 188.635L89.585 185.767C90.0397 185.989 90.4866 186.228 90.9249 186.485C90.8397 180.704 92.324 175.162 92.324 175.162C92.324 175.162 93.2359 176.051 94.4846 177.525L94.0185 179.21L94.831 177.939C95.8299 179.141 96.7663 180.405 97.6357 181.724Z" fill="white"/>
<path fill-rule="evenodd" clip-rule="evenodd" d="M97.6357 181.724L96.7253 185.014L98.2295 182.661C99.4572 184.594 100.408 186.722 101.048 188.971C102.908 196.088 102.298 202.525 99.6872 203.348C99.483 203.412 99.2726 203.44 99.0574 203.434C96.5441 203.801 92.2298 201.516 88.2756 197.485C87.787 196.984 87.3276 196.449 86.9001 195.885L89.9752 195.398L86.0168 194.634C82.6197 189.463 81 182.699 81 182.699C81 182.699 82.1991 182.943 83.9616 183.496L84.3557 185.203L84.4529 183.653C85.8742 184.116 87.2705 184.666 88.6353 185.301L89.405 188.635L89.585 185.767C90.0397 185.989 90.4866 186.228 90.9249 186.485C90.8397 180.704 92.324 175.162 92.324 175.162C92.324 175.162 93.2359 176.051 94.4846 177.525L94.0185 179.21L94.831 177.939C95.8299 179.141 96.7663 180.405 97.6357 181.724Z" fill="#3D3C40" fill-opacity="0.32"/>
</g>
<defs>
<clipPath id="clip0">
<rect width="320" height="211" fill="white" transform="translate(0 0.75827)"/>
</clipPath>
</defs>
</svg>
