<svg width="132" height="22" viewBox="0 0 132 22" fill="none" xmlns="http://www.w3.org/2000/svg">
<g clip-path="url(#clip0)">
<path fill-rule="evenodd" clip-rule="evenodd" d="M50.5162 10.8083C50.5162 10.4788 50.461 10.2106 50.3507 10.0043C50.2406 9.79843 50.0889 9.63661 49.896 9.52013C49.7031 9.40311 49.4652 9.32392 49.1829 9.28294C48.9002 9.24169 48.5867 9.22113 48.2421 9.22113C47.4979 9.22113 46.7057 9.36529 45.8649 9.65388C45.6719 9.29651 45.5273 8.9597 45.431 8.64371C45.3346 8.32772 45.2861 7.94979 45.2861 7.50981C45.8926 7.30371 46.4988 7.15257 47.1053 7.05638C47.7115 6.96018 48.2769 6.91195 48.8002 6.91195C50.2336 6.91195 51.3533 7.25549 52.1595 7.94294C52.9657 8.63014 53.3688 9.72938 53.3688 11.2412V17.4258C52.8864 17.577 52.3006 17.7214 51.6116 17.8588C50.9228 17.9963 50.144 18.065 49.2758 18.065C48.573 18.065 47.9286 18.0031 47.3428 17.8794C46.7572 17.7558 46.2541 17.5494 45.8341 17.2608C45.4136 16.9725 45.0899 16.6013 44.8622 16.1478C44.6351 15.6941 44.5213 15.1376 44.5213 14.4778C44.5213 13.8183 44.6625 13.2651 44.945 12.8184C45.2275 12.3718 45.5929 12.0143 46.0405 11.7464C46.4886 11.4784 46.9881 11.286 47.5394 11.1691C48.0907 11.0522 48.6418 10.9939 49.1931 10.9939C49.5927 10.9939 50.0337 11.0147 50.5162 11.0557V10.8083ZM50.5162 12.9318C50.3507 12.9043 50.1716 12.8801 49.9784 12.8596C49.7855 12.8391 49.6136 12.8288 49.4618 12.8288C48.7865 12.8288 48.2524 12.9488 47.8596 13.1895C47.4669 13.4299 47.2705 13.8183 47.2705 14.3542C47.2705 14.7117 47.3464 14.9863 47.4979 15.179C47.6495 15.3712 47.8322 15.5121 48.0458 15.6013C48.2594 15.6908 48.4865 15.7457 48.7278 15.7664C48.9692 15.7868 49.1793 15.7975 49.3582 15.7975C49.5651 15.7975 49.7719 15.7801 49.9784 15.7457C50.1854 15.7113 50.3644 15.6806 50.5162 15.6529V12.9318ZM55.3258 9.38585H53.982L53.8784 8.97353L57.7443 4.04643H58.2197V7.15929H60.721C60.7621 7.36565 60.7898 7.55105 60.8038 7.7159C60.8173 7.88101 60.8242 8.05271 60.8242 8.23152C60.8242 8.42378 60.8173 8.60931 60.8038 8.788C60.7898 8.96681 60.7621 9.16605 60.721 9.38585H58.2197V13.5709C58.2197 13.9968 58.2543 14.3404 58.3233 14.6017C58.3919 14.8624 58.4919 15.0688 58.6227 15.2201C58.7539 15.3712 58.9156 15.4743 59.1086 15.5292C59.3015 15.5844 59.5291 15.6118 59.7906 15.6118C59.9975 15.6118 60.2006 15.5946 60.4007 15.5602C60.6003 15.5259 60.7761 15.4949 60.9276 15.4675C61.0243 15.7283 61.0929 15.9999 61.1344 16.2818C61.1759 16.5635 61.1964 16.8145 61.1964 17.0343C61.1964 17.1855 61.1931 17.3125 61.1861 17.4157C61.1792 17.5186 61.169 17.6186 61.155 17.7145C60.5212 17.8659 59.8667 17.9412 59.1914 17.9412C57.9372 17.9412 56.9793 17.6493 56.318 17.0654C55.6565 16.4811 55.3258 15.5292 55.3258 14.2099V9.38585ZM63.0813 9.38585H61.7378L61.6342 8.97353L65.5 4.04643H65.9754V7.15929H68.4767C68.5179 7.36565 68.5456 7.55105 68.5595 7.7159C68.573 7.88101 68.58 8.05271 68.58 8.23152C68.58 8.42378 68.573 8.60931 68.5595 8.788C68.5456 8.96681 68.5179 9.16605 68.4767 9.38585H65.9754V13.5709C65.9754 13.9968 66.0102 14.3404 66.0789 14.6017C66.1478 14.8624 66.2477 15.0688 66.3785 15.2201C66.5096 15.3712 66.6712 15.4743 66.8644 15.5292C67.0572 15.5844 67.2848 15.6118 67.5463 15.6118C67.7531 15.6118 67.9563 15.5946 68.1564 15.5602C68.3562 15.5259 68.5319 15.4949 68.6834 15.4675C68.7799 15.7283 68.8487 15.9999 68.89 16.2818C68.9316 16.5635 68.9522 16.8145 68.9522 17.0343C68.9522 17.1855 68.9488 17.3125 68.9418 17.4157C68.935 17.5186 68.9247 17.6186 68.9108 17.7145C68.2769 17.8659 67.6226 17.9412 66.947 17.9412C65.6931 17.9412 64.7351 17.6493 64.0737 17.0654C63.4122 16.4811 63.0813 15.5292 63.0813 14.2099V9.38585ZM76.6601 11.3446C76.6326 10.6846 76.4498 10.1522 76.1122 9.74677C75.7746 9.34131 75.3027 9.13838 74.6962 9.13838C74.0071 9.13838 73.4835 9.3309 73.1252 9.71568C72.7669 10.1006 72.5534 10.6435 72.4846 11.3446H76.6601ZM72.4637 13.3853C72.5189 14.2099 72.8083 14.8078 73.3319 15.179C73.8556 15.55 74.5446 15.7356 75.3993 15.7356C75.8678 15.7356 76.3464 15.6908 76.8358 15.6013C77.3251 15.5121 77.79 15.3849 78.2312 15.2201C78.3828 15.495 78.5136 15.8248 78.6239 16.2097C78.7341 16.5942 78.7961 17.0068 78.81 17.4465C77.7349 17.8588 76.5221 18.065 75.1715 18.065C74.1794 18.065 73.3286 17.9276 72.6186 17.6526C71.909 17.3778 71.3302 16.9962 70.8824 16.5087C70.4344 16.0207 70.1036 15.44 69.8901 14.7664C69.6765 14.093 69.5699 13.3579 69.5699 12.5609C69.5699 11.7774 69.68 11.0421 69.9005 10.3549C70.1208 9.66745 70.4482 9.06986 70.8824 8.56148C71.3164 8.05271 71.8538 7.6508 72.4948 7.35524C73.1356 7.0598 73.8832 6.91195 74.7375 6.91195C75.4817 6.91195 76.1433 7.04254 76.722 7.30371C77.3009 7.56475 77.7935 7.92225 78.2 8.37595C78.6066 8.82911 78.9134 9.36885 79.1201 9.99411C79.3269 10.6194 79.4302 11.2896 79.4302 12.004C79.4302 12.2652 79.4199 12.5231 79.3991 12.7771C79.3785 13.0312 79.3541 13.2341 79.3269 13.3853H72.4637ZM80.5512 7.15929C80.7578 7.11831 80.9542 7.08721 81.1402 7.06679C81.3265 7.04584 81.5295 7.03569 81.7501 7.03569C81.9569 7.03569 82.1603 7.04966 82.3598 7.0768C82.5598 7.10434 82.7562 7.13887 82.9488 7.18011C82.9905 7.2489 83.0284 7.34838 83.0627 7.47897C83.0972 7.60956 83.1281 7.747 83.1558 7.89142C83.1834 8.03571 83.2073 8.17974 83.228 8.32429C83.2488 8.46871 83.2658 8.58849 83.2798 8.68522C83.5829 8.25893 83.9553 7.87745 84.3961 7.5409C84.8371 7.20409 85.3884 7.03569 86.0497 7.03569C86.1878 7.03569 86.3462 7.04254 86.5252 7.05638C86.7043 7.07008 86.8352 7.09064 86.9179 7.11831C86.9455 7.25549 86.9663 7.41361 86.9799 7.5923C86.994 7.77098 87.0008 7.95651 87.0008 8.14903C87.0008 8.38267 86.9902 8.63686 86.9697 8.91173C86.949 9.18661 86.911 9.44765 86.8558 9.69512C86.7043 9.66745 86.5355 9.65388 86.3496 9.65388C86.1636 9.65388 86.0497 9.65388 86.0086 9.65388C85.7741 9.65388 85.5124 9.67799 85.2228 9.72595C84.9336 9.77418 84.658 9.90121 84.3961 10.1076C84.1341 10.3137 83.9172 10.6229 83.7448 11.0354C83.5726 11.4474 83.4862 12.0247 83.4862 12.767V17.8384C83.2385 17.8794 82.9905 17.9069 82.7422 17.9206C82.4943 17.9345 82.2532 17.9412 82.0188 17.9412C81.7844 17.9412 81.5468 17.9345 81.3055 17.9206C81.0644 17.9069 80.8129 17.8794 80.5512 17.8384V7.15929ZM88.3768 7.15929C88.5696 7.11831 88.7626 7.08721 88.9554 7.06679C89.1484 7.04584 89.3619 7.03569 89.5963 7.03569C89.8306 7.03569 90.0373 7.04584 90.2164 7.06679C90.3956 7.08721 90.5816 7.11831 90.7746 7.15929C90.8158 7.22808 90.854 7.32783 90.8883 7.45842C90.9227 7.58887 90.9539 7.72657 90.9813 7.8706C91.009 8.01502 91.0329 8.15575 91.0536 8.29319C91.0746 8.43063 91.0917 8.54751 91.1054 8.64371C91.2154 8.43775 91.3603 8.23152 91.5396 8.02517C91.7186 7.81934 91.9322 7.63394 92.1802 7.46869C92.4282 7.30371 92.7072 7.1697 93.0175 7.06679C93.3275 6.96348 93.6756 6.91195 94.0615 6.91195C95.7288 6.91195 96.7968 7.54433 97.2655 8.80882C97.541 8.30018 97.9304 7.85716 98.4333 7.47897C98.9364 7.10092 99.5738 6.91195 100.346 6.91195C101.558 6.91195 102.451 7.2456 103.022 7.91211C103.595 8.57848 103.881 9.61961 103.881 11.0354V17.8177C103.384 17.9002 102.895 17.9412 102.413 17.9412C101.93 17.9412 101.441 17.9002 100.945 17.8177V11.7978C100.945 11.0557 100.852 10.4855 100.666 10.087C100.48 9.6884 100.104 9.48903 99.5395 9.48903C99.3049 9.48903 99.0744 9.52355 98.8471 9.59207C98.6194 9.6606 98.4128 9.78776 98.2269 9.97342C98.0408 10.159 97.8893 10.4203 97.7719 10.7569C97.6548 11.0934 97.5962 11.5301 97.5962 12.066V17.8177C97.1001 17.9002 96.6108 17.9412 96.1285 17.9412C95.6462 17.9412 95.1568 17.9002 94.6607 17.8177V11.7978C94.6607 11.0557 94.5678 10.4855 94.3816 10.087C94.1956 9.6884 93.8202 9.48903 93.2552 9.48903C93.0212 9.48903 92.7867 9.52355 92.5523 9.59207C92.3182 9.6606 92.1079 9.79474 91.9219 9.99411C91.7357 10.1932 91.5876 10.4715 91.4775 10.829C91.3672 11.1863 91.3119 11.6537 91.3119 12.2308V17.8177C90.8158 17.9002 90.3269 17.9412 89.8444 17.9412C89.3619 17.9412 88.8729 17.9002 88.3768 17.8177V7.15929ZM109.859 15.8385C110.63 15.8385 111.185 15.5535 111.523 14.9829C111.86 14.4127 112.029 13.5914 112.029 12.5195C112.029 11.4474 111.86 10.6264 111.523 10.0559C111.185 9.48534 110.63 9.20031 109.859 9.20031C109.101 9.20031 108.553 9.48534 108.215 10.0559C107.877 10.6264 107.709 11.4474 107.709 12.5195C107.709 13.5914 107.877 14.4127 108.215 14.9829C108.553 15.5535 109.101 15.8385 109.859 15.8385ZM109.859 18.065C108.99 18.065 108.236 17.924 107.595 17.6423C106.954 17.3607 106.424 16.969 106.003 16.4672C105.583 15.9655 105.266 15.3781 105.053 14.7046C104.839 14.0311 104.732 13.3029 104.732 12.5195C104.732 11.7361 104.839 11.0007 105.053 10.3137C105.266 9.62647 105.583 9.03204 106.003 8.53038C106.424 8.02859 106.954 7.63394 107.595 7.34496C108.236 7.05638 108.99 6.91195 109.859 6.91195C110.727 6.91195 111.485 7.05638 112.132 7.34496C112.78 7.63394 113.317 8.02859 113.745 8.53038C114.172 9.03204 114.489 9.62647 114.696 10.3137C114.903 11.0007 115.006 11.7361 115.006 12.5195C115.006 13.3029 114.903 14.0311 114.696 14.7046C114.489 15.3781 114.172 15.9655 113.745 16.4672C113.317 16.969 112.78 17.3607 112.132 17.6423C111.485 17.924 110.727 18.065 109.859 18.065ZM118.194 13.1792C117.422 12.9591 116.819 12.6329 116.385 12.1999C115.951 11.7671 115.734 11.1176 115.734 10.2516C115.734 9.20704 116.11 8.38965 116.861 7.79865C117.612 7.20752 118.635 6.91195 119.931 6.91195C120.468 6.91195 120.999 6.96018 121.522 7.05638C122.046 7.15257 122.577 7.29673 123.114 7.48938C123.086 7.84648 123.018 8.21756 122.907 8.60259C122.797 8.98724 122.666 9.32392 122.515 9.61289C122.184 9.47532 121.819 9.35501 121.419 9.25184C121.019 9.14892 120.599 9.0974 120.158 9.0974C119.689 9.0974 119.324 9.16948 119.062 9.31377C118.801 9.45819 118.67 9.6884 118.67 10.0043C118.67 10.3067 118.763 10.5198 118.949 10.6435C119.135 10.7671 119.4 10.8842 119.745 10.9939L120.923 11.3446C121.309 11.4544 121.657 11.5883 121.967 11.7464C122.277 11.9045 122.542 12.1004 122.763 12.3339C122.983 12.5675 123.155 12.8562 123.279 13.1997C123.403 13.5434 123.466 13.9624 123.466 14.4571C123.466 14.9659 123.359 15.44 123.145 15.8797C122.932 16.3196 122.621 16.7009 122.215 17.0238C121.808 17.347 121.316 17.6012 120.737 17.7866C120.158 17.9723 119.503 18.065 118.773 18.065C118.442 18.065 118.139 18.0546 117.864 18.0341C117.588 18.0133 117.323 17.979 117.068 17.931C116.813 17.8828 116.561 17.8246 116.313 17.7558C116.065 17.6871 115.796 17.5978 115.507 17.4877C115.535 17.1165 115.6 16.742 115.703 16.3643C115.807 15.9865 115.941 15.6186 116.106 15.2612C116.561 15.44 116.992 15.5739 117.399 15.6632C117.805 15.7527 118.229 15.7975 118.67 15.7975C118.863 15.7975 119.073 15.7801 119.3 15.7457C119.528 15.7113 119.738 15.6495 119.931 15.5602C120.124 15.4708 120.286 15.354 120.417 15.2098C120.547 15.0655 120.613 14.8765 120.613 14.6426C120.613 14.3131 120.513 14.0759 120.313 13.9316C120.113 13.7874 119.834 13.6599 119.476 13.5501L118.194 13.1792ZM125.344 9.38585H124.001L123.897 8.97353L127.763 4.04643H128.238V7.15929H130.739C130.781 7.36565 130.808 7.55105 130.822 7.7159C130.836 7.88101 130.843 8.05271 130.843 8.23152C130.843 8.42378 130.836 8.60931 130.822 8.788C130.808 8.96681 130.781 9.16605 130.739 9.38585H128.238V13.5709C128.238 13.9968 128.273 14.3404 128.341 14.6017C128.411 14.8624 128.51 15.0688 128.641 15.2201C128.772 15.3712 128.934 15.4743 129.127 15.5292C129.32 15.5844 129.548 15.6118 129.809 15.6118C130.016 15.6118 130.219 15.5946 130.419 15.5602C130.619 15.5259 130.795 15.4949 130.946 15.4675C131.043 15.7283 131.112 15.9999 131.153 16.2818C131.194 16.5635 131.215 16.8145 131.215 17.0343C131.215 17.1855 131.211 17.3125 131.205 17.4157C131.198 17.5186 131.187 17.6186 131.173 17.7145C130.54 17.8659 129.885 17.9412 129.21 17.9412C127.956 17.9412 126.998 17.6493 126.336 17.0654C125.675 16.4811 125.344 15.5292 125.344 14.2099V9.38585ZM28.4775 3.89595C29.0749 3.81306 29.6496 3.77142 30.2019 3.77142C30.7842 3.77142 31.3591 3.81306 31.9263 3.89595L35.6213 11.5444L39.4283 3.89595C39.8912 3.81306 40.4059 3.77142 40.9734 3.77142C41.5408 3.77142 42.0855 3.81306 42.6082 3.89595L43.3695 17.9406C42.8024 18.0237 42.2649 18.065 41.7574 18.065C41.2495 18.065 40.7496 18.0237 40.257 17.9406L39.8538 7.78613L36.5842 14.8045C36.375 14.8321 36.1587 14.8566 35.9346 14.8771C35.7107 14.8979 35.487 14.9082 35.2629 14.9082C35.0686 14.9082 34.8748 14.9013 34.6808 14.8875C34.4867 14.8736 34.2852 14.8458 34.0761 14.8045L31.0306 7.64066L30.717 17.9406C30.2394 18.0237 29.7765 18.065 29.3285 18.065C28.8507 18.065 28.3578 18.0237 27.8506 17.9406L28.4775 3.89595Z" fill="#166DE0"/>
<path fill-rule="evenodd" clip-rule="evenodd" d="M14.605 8.89004C14.605 8.89004 14.6388 10.3746 13.6093 11.3832C12.5797 12.3918 11.3151 12.2996 10.4925 12.0211C9.66978 11.7425 8.60929 11.0476 8.404 9.62114C8.19885 8.19457 9.12742 7.03566 9.12742 7.03566L11.1509 4.51932L12.3294 3.08215L13.341 1.82974C13.341 1.82974 13.8052 1.2079 13.9375 1.07956C13.9638 1.05413 13.9906 1.03744 14.017 1.0246L14.0362 1.0148L14.0396 1.01347C14.0953 0.989499 14.1594 0.984333 14.2212 1.00526C14.2818 1.02579 14.3286 1.06738 14.3583 1.11863L14.3645 1.12857L14.37 1.13996C14.3844 1.16724 14.3964 1.19837 14.4021 1.23678C14.4292 1.41915 14.4203 2.19516 14.4203 2.19516L14.4631 3.80438L14.5262 5.66193L14.605 8.89004ZM17.2244 2.07647C20.9668 4.80022 22.6832 9.74324 21.1225 14.3664C19.2017 20.056 13.045 23.1071 7.37119 21.181C1.69737 19.2549 -1.34506 13.0812 0.575628 7.39153C2.13891 2.76082 6.50806 -0.121741 11.1391 0.00395032L9.6547 1.7627C6.90733 2.26083 4.53521 4.14223 3.60286 6.90413C2.21565 11.0133 4.54075 15.5155 8.79619 16.96C13.0515 18.4046 17.6258 16.2445 19.013 12.1354C19.9423 9.38259 19.2054 6.45368 17.3386 4.38553L17.2244 2.07647Z" fill="#166DE0"/>
</g>
<defs>
<clipPath id="clip0">
<rect width="132" height="21.7582" fill="white"/>
</clipPath>
</defs>
</svg>
