<svg width="64" height="63" viewBox="0 0 64 63" fill="none" xmlns="http://www.w3.org/2000/svg">
<path d="M31.6667 40.625C34.2 40.625 36.4167 39.6875 38.3167 37.8125C40.2167 35.9375 41.1667 33.75 41.1667 31.25C41.1667 28.75 40.2167 26.5625 38.3167 24.6875C36.4167 22.8125 34.2 21.875 31.6667 21.875C29.1333 21.875 26.9167 22.8125 25.0167 24.6875C23.1167 26.5625 22.1667 28.75 22.1667 31.25C22.1667 33.75 23.1167 35.9375 25.0167 37.8125C26.9167 39.6875 29.1333 40.625 31.6667 40.625ZM31.6667 0C40.3222 0 47.7111 3.02083 53.8333 9.0625C56.9156 12.1042 59.2589 15.4583 60.8633 19.125C62.51 22.9167 63.3333 26.9583 63.3333 31.25V35.625C63.3333 37.125 63.0378 38.6042 62.4467 40.0625C61.8978 41.3958 61.1378 42.625 60.1667 43.75C59.0689 44.8333 57.8656 45.625 56.5567 46.125C55.29 46.625 53.8545 46.875 52.25 46.875C48.3656 46.875 45.3045 45.3125 43.0667 42.1875C39.9 45.3125 36.1 46.875 31.6667 46.875C27.1489 46.875 23.4544 45.3125 20.5833 42.1875C17.4167 39.0625 15.8333 35.4167 15.8333 31.25C15.8333 26.75 17.4167 23.1042 20.5833 20.3125C23.4544 17.1875 27.1489 15.625 31.6667 15.625C36.2267 15.625 39.9211 17.1875 42.75 20.3125C45.9167 23.4375 47.5 27.0833 47.5 31.25V35.625C47.5 36.25 47.6267 36.8542 47.88 37.4375C48.1756 38.0208 48.5556 38.5625 49.02 39.0625C49.5267 39.5208 50.0756 39.8958 50.6667 40.1875C51.2578 40.4792 51.7856 40.625 52.25 40.625C52.8833 40.625 53.4956 40.5 54.0867 40.25C54.6778 39.9583 55.2267 39.5625 55.7333 39.0625C56.5778 38.2292 57 37.0833 57 35.625V31.25C57 24.375 54.4667 18.4375 49.4 13.4375C46.9089 10.9792 44.2067 9.16667 41.2933 8C38.38 6.83333 35.1711 6.25 31.6667 6.25C24.8267 6.25 18.81 8.64583 13.6167 13.4375C11.1678 15.7292 9.33111 18.4167 8.10667 21.5C6.92445 24.4583 6.33333 27.7083 6.33333 31.25C6.33333 34.6667 6.94556 37.8542 8.17 40.8125C9.39445 43.7292 11.21 46.375 13.6167 48.75C16.0233 51.125 18.7467 52.9583 21.7867 54.25C24.9533 55.5833 28.2467 56.25 31.6667 56.25H47.5V62.5H31.6667C27.2756 62.5 23.2222 61.7083 19.5067 60.125C15.7911 58.5833 12.35 56.25 9.18333 53.125C6.01667 50 3.69444 46.6667 2.21667 43.125C0.738889 39.5833 0 35.6458 0 31.3125C0 26.9375 0.781111 22.8958 2.34333 19.1875C3.86333 15.6042 6.14333 12.2292 9.18333 9.0625C15.01 3.02083 22.5044 0 31.6667 0Z" fill="#166DE0"/>
</svg>
