<svg width="16" height="14" viewBox="0 0 16 14" fill="none" xmlns="http://www.w3.org/2000/svg">
<g clip-path="url(#clip0_7_25403)">
<path d="M8.05864 2.0694H14.2994C14.4863 2.06807 14.6717 2.10399 14.8448 2.1751C15.0179 2.24621 15.1754 2.35111 15.3083 2.48378C15.4411 2.61645 15.5467 2.77428 15.6189 2.94821C15.6911 3.12214 15.7286 3.30874 15.7291 3.49731V10.0267C15.7284 10.2152 15.6908 10.4016 15.6185 10.5754C15.5462 10.7492 15.4406 10.9068 15.3078 11.0393C15.1749 11.1719 15.0175 11.2766 14.8445 11.3476C14.6714 11.4187 14.4862 11.4545 14.2994 11.4532H12.7982V13.9052L10.5435 11.4532H8.05864C7.87184 11.4545 7.68661 11.4187 7.51358 11.3476C7.34055 11.2766 7.18311 11.1719 7.05029 11.0393C6.91747 10.9068 6.81188 10.7492 6.73957 10.5754C6.66726 10.4016 6.62965 10.2152 6.62891 10.0267V3.49731C6.62947 3.30874 6.66693 3.12214 6.73916 2.94821C6.81138 2.77428 6.91695 2.61645 7.04978 2.48378C7.18262 2.35111 7.34012 2.24621 7.51325 2.1751C7.68637 2.10399 7.87172 2.06807 8.05864 2.0694V2.0694Z" fill="#1E325C"/>
<path d="M11.8747 0.106403H1.69499C1.50807 0.105073 1.32273 0.140994 1.1496 0.212104C0.976478 0.283214 0.818975 0.388113 0.686137 0.520782C0.553298 0.653451 0.447738 0.811281 0.375512 0.985208C0.303287 1.15914 0.265819 1.34574 0.265259 1.53431V8.05797C0.266007 8.24642 0.303613 8.43287 0.375922 8.60663C0.448232 8.78039 0.553823 8.93805 0.686643 9.07056C0.819463 9.20308 0.976898 9.30785 1.14993 9.37887C1.32296 9.44989 1.50819 9.48576 1.69499 9.48443H3.19764V11.9364L5.45232 9.48443H11.8747C12.0615 9.48576 12.2467 9.44989 12.4197 9.37887C12.5928 9.30785 12.7502 9.20308 12.883 9.07056C13.0158 8.93805 13.1214 8.78039 13.1937 8.60663C13.266 8.43287 13.3037 8.24642 13.3044 8.05797V1.53431C13.3038 1.34574 13.2664 1.15914 13.1941 0.985208C13.1219 0.811281 13.0164 0.653451 12.8835 0.520782C12.7507 0.388113 12.5932 0.283214 12.4201 0.212104C12.2469 0.140994 12.0616 0.105073 11.8747 0.106403V0.106403Z" fill="#FFBC1F"/>
<path d="M3.31194 3.86364C3.49332 3.86335 3.6707 3.91737 3.82163 4.01885C3.97256 4.12033 4.09025 4.26471 4.15979 4.4337C4.22933 4.6027 4.2476 4.78871 4.21228 4.96819C4.17697 5.14766 4.08965 5.31253 3.9614 5.44192C3.83314 5.5713 3.66972 5.65938 3.49181 5.69501C3.3139 5.73064 3.12951 5.71221 2.96199 5.64206C2.79447 5.5719 2.65136 5.45317 2.55077 5.30092C2.45017 5.14866 2.39663 4.96971 2.39691 4.78673C2.39729 4.54203 2.49382 4.30746 2.66534 4.13443C2.83686 3.9614 3.06937 3.86402 3.31194 3.86364V3.86364Z" fill="white"/>
<path d="M6.78759 3.86364C6.96897 3.86335 7.14635 3.91737 7.29728 4.01885C7.44821 4.12033 7.5659 4.26471 7.63544 4.4337C7.70498 4.6027 7.72325 4.78871 7.68794 4.96819C7.65262 5.14766 7.5653 5.31253 7.43705 5.44192C7.30879 5.5713 7.14537 5.65938 6.96746 5.69501C6.78955 5.73064 6.60516 5.71221 6.43764 5.64206C6.27012 5.5719 6.12701 5.45317 6.02641 5.30092C5.92582 5.14866 5.87228 4.96971 5.87256 4.78673C5.87294 4.54203 5.96946 4.30746 6.14098 4.13443C6.3125 3.9614 6.54502 3.86402 6.78759 3.86364V3.86364Z" fill="white"/>
<path d="M10.2633 3.86364C10.4447 3.86335 10.6221 3.91737 10.773 4.01885C10.9239 4.12033 11.0416 4.26471 11.1111 4.4337C11.1807 4.6027 11.199 4.78871 11.1636 4.96819C11.1283 5.14766 11.041 5.31253 10.9128 5.44192C10.7845 5.5713 10.6211 5.65938 10.4432 5.69501C10.2653 5.73064 10.0809 5.71221 9.91335 5.64206C9.74583 5.5719 9.60272 5.45317 9.50212 5.30092C9.40153 5.14866 9.34798 4.96971 9.34827 4.78673C9.34865 4.54203 9.44517 4.30746 9.61669 4.13443C9.78821 3.9614 10.0207 3.86402 10.2633 3.86364V3.86364Z" fill="white"/>
</g>
<defs>
<clipPath id="clip0_7_25403">
<rect width="15.4468" height="13.7872" fill="white" transform="translate(0.276611 0.106382)"/>
</clipPath>
</defs>
</svg>
