<svg width="234" height="148" viewBox="0 0 234 148" fill="none" xmlns="http://www.w3.org/2000/svg">
<g clip-path="url(#clip0)">
<ellipse cx="194.625" cy="139.211" rx="10.125" ry="1.11369" fill="#3D3C40" fill-opacity="0.08"/>
<ellipse cx="222.375" cy="140.325" rx="11.625" ry="1.48492" fill="#3D3C40" fill-opacity="0.08"/>
<path d="M122.194 36.1346H118.021C118.416 36.1521 118.81 36.0915 119.18 35.9565C119.55 35.8214 119.888 35.6146 120.174 35.3487C120.46 35.0828 120.687 34.7632 120.842 34.4093C120.998 34.0554 121.078 33.6744 121.078 33.2895C121.078 32.9045 120.998 32.5236 120.842 32.1697C120.687 31.8157 120.46 31.4962 120.174 31.2302C119.888 30.9643 119.55 30.7576 119.18 30.6225C118.81 30.4874 118.416 30.4268 118.021 30.4444H84.2239C83.4725 30.4777 82.7632 30.7921 82.2436 31.322C81.7239 31.8519 81.4339 32.5566 81.4339 33.2895C81.4339 34.0224 81.7239 34.7271 82.2436 35.257C82.7632 35.7869 83.4725 36.1012 84.2239 36.1346H88.3963C88.0017 36.1171 87.6074 36.1777 87.2375 36.3127C86.8675 36.4478 86.5295 36.6546 86.2439 36.9205C85.9582 37.1864 85.7309 37.506 85.5755 37.8599C85.4202 38.2138 85.3401 38.5948 85.3401 38.9797C85.3401 39.3647 85.4202 39.7456 85.5755 40.0995C85.7309 40.4535 85.9582 40.773 86.2439 41.039C86.5295 41.3049 86.8675 41.5116 87.2375 41.6467C87.6074 41.7818 88.0017 41.8424 88.3963 41.8248H82.5562C82.1615 41.8073 81.7673 41.8679 81.3974 42.003C81.0274 42.1381 80.6894 42.3448 80.4038 42.6107C80.1181 42.8766 79.8907 43.1962 79.7354 43.5502C79.5801 43.9041 79.5 44.285 79.5 44.67C79.5 45.0549 79.5801 45.4358 79.7354 45.7898C79.8907 46.1437 80.1181 46.4633 80.4038 46.7292C80.6894 46.9951 81.0274 47.2019 81.3974 47.3369C81.7673 47.472 82.1615 47.5326 82.5562 47.5151H116.354C116.748 47.5326 117.143 47.472 117.513 47.3369C117.882 47.2019 118.22 46.9951 118.506 46.7292C118.792 46.4633 119.019 46.1437 119.174 45.7898C119.33 45.4358 119.41 45.0549 119.41 44.67C119.41 44.285 119.33 43.9041 119.174 43.5502C119.019 43.1962 118.792 42.8766 118.506 42.6107C118.22 42.3448 117.882 42.1381 117.513 42.003C117.143 41.8679 116.748 41.8073 116.354 41.8248H122.194C122.588 41.8424 122.983 41.7818 123.353 41.6467C123.723 41.5116 124.061 41.3049 124.346 41.039C124.632 40.773 124.859 40.4535 125.015 40.0995C125.17 39.7456 125.25 39.3647 125.25 38.9797C125.25 38.5948 125.17 38.2138 125.015 37.8599C124.859 37.506 124.632 37.1864 124.346 36.9205C124.061 36.6546 123.723 36.4478 123.353 36.3127C122.983 36.1777 122.588 36.1171 122.194 36.1346Z" fill="#166DE0" fill-opacity="0.08"/>
<path d="M64.8532 11.5656H63.1675C63.3269 11.5728 63.4862 11.5479 63.6357 11.4925C63.7851 11.437 63.9217 11.3522 64.0371 11.243C64.1525 11.1338 64.2444 11.0027 64.3071 10.8574C64.3699 10.7121 64.4023 10.5557 64.4023 10.3977C64.4023 10.2397 64.3699 10.0833 64.3071 9.93798C64.2444 9.79269 64.1525 9.6615 64.0371 9.55234C63.9217 9.44318 63.7851 9.35831 63.6357 9.30286C63.4862 9.24741 63.3269 9.22253 63.1675 9.22973H49.5121C49.2085 9.24343 48.922 9.37246 48.712 9.58999C48.5021 9.80753 48.3849 10.0968 48.3849 10.3977C48.3849 10.6985 48.5021 10.9878 48.712 11.2053C48.922 11.4229 49.2085 11.5519 49.5121 11.5656H51.1979C51.0385 11.5584 50.8792 11.5833 50.7297 11.6387C50.5802 11.6942 50.4437 11.7791 50.3283 11.8882C50.2129 11.9974 50.121 12.1286 50.0582 12.2739C49.9955 12.4192 49.9631 12.5755 49.9631 12.7336C49.9631 12.8916 49.9955 13.048 50.0582 13.1932C50.121 13.3385 50.2129 13.4697 50.3283 13.5789C50.4437 13.6881 50.5802 13.7729 50.7297 13.8284C50.8792 13.8838 51.0385 13.9087 51.1979 13.9015H48.8383C48.6789 13.8943 48.5196 13.9192 48.3701 13.9746C48.2206 14.0301 48.0841 14.115 47.9687 14.2241C47.8533 14.3333 47.7614 14.4645 47.6986 14.6098C47.6359 14.7551 47.6035 14.9114 47.6035 15.0694C47.6035 15.2275 47.6359 15.3838 47.6986 15.5291C47.7614 15.6744 47.8533 15.8056 47.9687 15.9148C48.0841 16.0239 48.2206 16.1088 48.3701 16.1643C48.5196 16.2197 48.6789 16.2446 48.8383 16.2374H62.4936C62.6531 16.2446 62.8124 16.2197 62.9618 16.1643C63.1113 16.1088 63.2479 16.0239 63.3633 15.9148C63.4787 15.8056 63.5706 15.6744 63.6333 15.5291C63.6961 15.3838 63.7284 15.2275 63.7284 15.0694C63.7284 14.9114 63.6961 14.7551 63.6333 14.6098C63.5706 14.4645 63.4787 14.3333 63.3633 14.2241C63.2479 14.115 63.1113 14.0301 62.9618 13.9746C62.8124 13.9192 62.6531 13.8943 62.4936 13.9015H64.8532C65.0127 13.9087 65.172 13.8838 65.3214 13.8284C65.4709 13.7729 65.6075 13.6881 65.7229 13.5789C65.8383 13.4697 65.9302 13.3385 65.9929 13.1932C66.0557 13.048 66.088 12.8916 66.088 12.7336C66.088 12.5755 66.0557 12.4192 65.9929 12.2739C65.9302 12.1286 65.8383 11.9974 65.7229 11.8882C65.6075 11.7791 65.4709 11.6942 65.3214 11.6387C65.172 11.5833 65.0127 11.5584 64.8532 11.5656Z" fill="#166DE0" fill-opacity="0.08"/>
<path d="M227.796 2.59101H226.11C226.269 2.5982 226.429 2.57332 226.578 2.51788C226.727 2.46243 226.864 2.37756 226.979 2.26839C227.095 2.15923 227.187 2.02804 227.25 1.88275C227.312 1.73746 227.345 1.58108 227.345 1.42306C227.345 1.26504 227.312 1.10866 227.25 0.963373C227.187 0.818081 227.095 0.686891 226.979 0.577729C226.864 0.468567 226.727 0.383699 226.578 0.32825C226.429 0.272801 226.269 0.247923 226.11 0.255119H212.455C212.151 0.26882 211.864 0.397854 211.654 0.615386C211.444 0.832917 211.327 1.1222 211.327 1.42306C211.327 1.72392 211.444 2.01321 211.654 2.23074C211.864 2.44827 212.151 2.57731 212.455 2.59101H214.14C213.981 2.58381 213.822 2.60869 213.672 2.66414C213.523 2.71959 213.386 2.80446 213.271 2.91362C213.155 3.02278 213.063 3.15397 213.001 3.29926C212.938 3.44455 212.906 3.60093 212.906 3.75895C212.906 3.91697 212.938 4.07335 213.001 4.21864C213.063 4.36393 213.155 4.49512 213.271 4.60428C213.386 4.71345 213.523 4.79831 213.672 4.85376C213.822 4.90921 213.981 4.93409 214.14 4.92689H211.781C211.621 4.9197 211.462 4.94458 211.313 5.00003C211.163 5.05547 211.026 5.14035 210.911 5.24951C210.796 5.35867 210.704 5.48986 210.641 5.63515C210.578 5.78044 210.546 5.93682 210.546 6.09484C210.546 6.25286 210.578 6.40923 210.641 6.55453C210.704 6.69982 210.796 6.83101 210.911 6.94017C211.026 7.04933 211.163 7.1342 211.313 7.18965C211.462 7.2451 211.621 7.26998 211.781 7.26278H225.436C225.74 7.24908 226.026 7.12004 226.236 6.90251C226.446 6.68498 226.563 6.3957 226.563 6.09484C226.563 5.79398 226.446 5.50469 226.236 5.28716C226.026 5.06963 225.74 4.94059 225.436 4.92689H227.796C227.955 4.93409 228.114 4.90921 228.264 4.85376C228.413 4.79831 228.55 4.71345 228.665 4.60428C228.781 4.49512 228.873 4.36393 228.935 4.21864C228.998 4.07335 229.03 3.91697 229.03 3.75895C229.03 3.60093 228.998 3.44455 228.935 3.29926C228.873 3.15397 228.781 3.02278 228.665 2.91362C228.55 2.80446 228.413 2.71959 228.264 2.66414C228.114 2.60869 227.955 2.58381 227.796 2.59101Z" fill="#166DE0" fill-opacity="0.08"/>
<path d="M222.974 60.3983V44.8743H213.663V60.3983H202.637V36.3845H194.551V18.4348H187.935V0H174.214V18.4348H167.598V36.3845H159.757V14.7964H155.347V3.88102H152.651V14.7964H136.97V83.6844H124.963V76.4075H117.613V83.6844H105.606V60.3983H84.044V44.8743H74.733V60.3983H74.2429V90.2337H64.4419V72.7691H52.6806V90.2337H42.8796V36.3845H35.2838V18.4348H7.35079V36.3845H0V131.227H42.8796H74.2429H105.606H136.97H159.757H202.637H234V60.3983H222.974Z" fill="white"/>
<path opacity="0.3" d="M222.974 60.3983V44.8743H213.663V60.3983H202.637V36.3845H194.551V18.4348H187.935V0H174.214V18.4348H167.598V36.3845H159.757V14.7964H155.347V3.88102H152.651V14.7964H136.97V83.6844H124.963V76.4075H117.613V83.6844H105.606V60.3983H84.044V44.8743H74.733V60.3983H74.2429V90.2337H64.4419V72.7691H52.6806V90.2337H42.8796V36.3845H35.2838V18.4348H7.35079V36.3845H0V131.227H42.8796H74.2429H105.606H136.97H159.757H202.637H234V60.3983H222.974Z" fill="#166DE0"/>
<path opacity="0.4" d="M14.9464 41.9629H4.65527V47.7844H14.9464V41.9629Z" fill="white"/>
<path opacity="0.4" d="M27.6884 47.7852H37.9795V41.9636H27.6884V47.7852Z" fill="white"/>
<path opacity="0.4" d="M14.9464 53.3633H4.65527V59.1848H14.9464V53.3633Z" fill="white"/>
<path opacity="0.4" d="M27.6884 59.1855H37.9795V53.364H27.6884V59.1855Z" fill="white"/>
<path opacity="0.4" d="M14.9464 64.7637H4.65527V70.5852H14.9464V64.7637Z" fill="white"/>
<path opacity="0.4" d="M27.6884 70.5859H37.9795V64.7644H27.6884V70.5859Z" fill="white"/>
<path opacity="0.4" d="M14.9464 76.1641H4.65527V81.9856H14.9464V76.1641Z" fill="white"/>
<path opacity="0.4" d="M27.6884 81.9863H37.9795V76.1648H27.6884V81.9863Z" fill="white"/>
<path opacity="0.4" d="M14.9464 87.5664H4.65527V93.3879H14.9464V87.5664Z" fill="white"/>
<path opacity="0.4" d="M27.6884 93.3867H37.9795V87.5652H27.6884V93.3867Z" fill="white"/>
<path opacity="0.4" d="M14.9464 98.9668H4.65527V104.788H14.9464V98.9668Z" fill="white"/>
<path opacity="0.4" d="M27.6884 104.787H37.9795V98.9656H27.6884V104.787Z" fill="white"/>
<path opacity="0.4" d="M14.9464 110.367H4.65527V116.189H14.9464V110.367Z" fill="white"/>
<path opacity="0.4" d="M27.6884 116.188H37.9795V110.366H27.6884V116.188Z" fill="white"/>
<path opacity="0.4" d="M70.5672 96.0547H46.5547V98.9654H70.5672V96.0547Z" fill="white"/>
<path opacity="0.4" d="M70.5672 100.422H46.5547V103.333H70.5672V100.422Z" fill="white"/>
<path opacity="0.4" d="M70.5672 104.787H46.5547V107.698H70.5672V104.787Z" fill="white"/>
<path opacity="0.4" d="M133.294 97.5098H109.281V100.421H133.294V97.5098Z" fill="white"/>
<path opacity="0.4" d="M133.294 101.877H109.281V104.788H133.294V101.877Z" fill="white"/>
<path opacity="0.4" d="M133.294 106.242H109.281V109.153H133.294V106.242Z" fill="white"/>
<path opacity="0.4" d="M70.5672 109.154H46.5547V112.065H70.5672V109.154Z" fill="white"/>
<path opacity="0.4" d="M70.5672 113.52H46.5547V116.43H70.5672V113.52Z" fill="white"/>
<path opacity="0.4" d="M70.5672 117.887H46.5547V120.797H70.5672V117.887Z" fill="white"/>
<path opacity="0.4" d="M86.0044 65.9766H79.3887V74.4663H86.0044V65.9766Z" fill="white"/>
<path opacity="0.4" d="M93.8452 74.4668H100.461V65.9771H93.8452V74.4668Z" fill="white"/>
<path opacity="0.4" d="M86.0044 79.5605H79.3887V88.0503H86.0044V79.5605Z" fill="white"/>
<path opacity="0.4" d="M93.8452 88.0508H100.461V79.5611H93.8452V88.0508Z" fill="white"/>
<path opacity="0.4" d="M86.0044 93.1445H79.3887V101.634H86.0044V93.1445Z" fill="white"/>
<path opacity="0.4" d="M93.8452 101.635H100.461V93.145H93.8452V101.635Z" fill="white"/>
<path opacity="0.4" d="M86.0044 106.729H79.3887V115.218H86.0044V106.729Z" fill="white"/>
<path opacity="0.4" d="M93.8452 115.217H100.461V106.727H93.8452V115.217Z" fill="white"/>
<path opacity="0.4" d="M145.791 20.375H136.97V31.5329H145.791V20.375Z" fill="white"/>
<path opacity="0.4" d="M145.791 36.3848H136.97V47.5427H145.791V36.3848Z" fill="white"/>
<path opacity="0.4" d="M145.791 52.3945H136.97V63.5525H145.791V52.3945Z" fill="white"/>
<path opacity="0.4" d="M145.791 68.4023H136.97V79.5603H145.791V68.4023Z" fill="white"/>
<path opacity="0.4" d="M145.791 84.4121H136.97V95.57H145.791V84.4121Z" fill="white"/>
<path opacity="0.4" d="M145.791 100.422H136.97V111.58H145.791V100.422Z" fill="white"/>
<path opacity="0.4" d="M197.614 43.1758H164.78V52.6358H197.614V43.1758Z" fill="white"/>
<path opacity="0.4" d="M197.736 63.5508H164.902V73.0108H197.736V63.5508Z" fill="white"/>
<path opacity="0.4" d="M197.859 83.9277H165.025V93.3877H197.859V83.9277Z" fill="white"/>
<path opacity="0.4" d="M197.981 104.303H165.147V113.763H197.981V104.303Z" fill="white"/>
<path opacity="0.4" d="M11.7611 23.5293H7.35059V32.7467H11.7611V23.5293Z" fill="white"/>
<path opacity="0.4" d="M234 65.9766H222.974V80.0452H234V65.9766Z" fill="white"/>
<path opacity="0.4" d="M234 86.3535H222.974V100.422H234V86.3535Z" fill="white"/>
<path opacity="0.4" d="M234 106.729H222.974V120.797H234V106.729Z" fill="white"/>
<ellipse cx="35.625" cy="145.893" rx="13.875" ry="1.85616" fill="#3D3C40" fill-opacity="0.08"/>
<path d="M29.3366 146.237C29.3366 146.237 23.2918 125.92 30.471 110.966C33.4849 104.691 34.4846 97.6442 33.0928 90.833C32.4273 87.5992 31.4636 84.4326 30.2138 81.373" stroke="#3D3C40" stroke-width="2" stroke-miterlimit="10"/>
<path d="M34.6709 71.9341C34.6709 74.4253 30.1158 81.6367 30.1158 81.6367C30.1158 81.6367 25.5608 74.4156 25.5608 71.9341C25.5467 71.3333 25.6541 70.7358 25.8766 70.1767C26.0991 69.6175 26.4323 69.1081 26.8566 68.6782C27.2808 68.2484 27.7876 67.9068 28.3471 67.6736C28.9066 67.4404 29.5075 67.3203 30.1146 67.3203C30.7217 67.3203 31.3226 67.4404 31.8821 67.6736C32.4416 67.9068 32.9484 68.2484 33.3726 68.6782C33.7969 69.1081 34.1301 69.6175 34.3526 70.1767C34.5751 70.7358 34.6825 71.3333 34.6684 71.9341H34.6709Z" fill="#166DE0"/>
<path d="M42.2079 85.7259C40.8406 87.8168 33.0537 91.4261 33.0537 91.4261C33.0537 91.4261 33.1958 82.9146 34.5631 80.8237C35.2337 79.8526 36.2611 79.1794 37.4261 78.9477C38.5911 78.716 39.8014 78.9442 40.7988 79.5835C41.7963 80.2228 42.5019 81.2226 42.7651 82.3697C43.0284 83.5168 42.8284 84.7203 42.2079 85.7235V85.7259Z" fill="#166DE0"/>
<path d="M41.8765 109.297C39.6296 110.418 31.0684 109.644 31.0684 109.644C31.0684 109.644 35.5303 102.367 37.7772 101.246C38.8523 100.736 40.0867 100.663 41.2154 101.043C42.3441 101.424 43.2771 102.227 43.814 103.281C44.351 104.335 44.4491 105.556 44.0873 106.68C43.7255 107.805 42.9326 108.744 41.8789 109.297H41.8765Z" fill="#166DE0"/>
<path d="M37.5715 127.074C35.55 128.553 26.9766 129.223 26.9766 129.223C26.9766 129.223 30.1325 121.306 32.154 119.824C32.6345 119.466 33.1817 119.206 33.7643 119.058C34.3468 118.911 34.953 118.879 35.548 118.965C36.143 119.051 36.7149 119.252 37.2308 119.558C37.7468 119.863 38.1965 120.267 38.554 120.746C38.9116 121.224 39.1699 121.768 39.3141 122.346C39.4583 122.924 39.4855 123.524 39.3942 124.112C39.3028 124.701 39.0947 125.265 38.7819 125.773C38.4691 126.282 38.0577 126.724 37.5715 127.074Z" fill="#166DE0"/>
<path d="M23.4897 91.9098C25.2931 93.6442 33.6999 95.4416 33.6999 95.4416C33.6999 95.4416 31.6417 87.1774 29.8383 85.4407C29.4129 85.0116 28.9051 84.671 28.3448 84.439C27.7846 84.2071 27.1831 84.0883 26.5757 84.0899C25.9684 84.0914 25.3675 84.2131 24.8084 84.4479C24.2493 84.6827 23.7433 85.0258 23.3201 85.457C22.8969 85.8882 22.5651 86.3989 22.3442 86.9589C22.1233 87.5189 22.0178 88.1171 22.0338 88.7181C22.0498 89.3191 22.1871 89.9108 22.4375 90.4586C22.688 91.0063 23.0465 91.4989 23.4921 91.9074L23.4897 91.9098Z" fill="#166DE0"/>
<path d="M18.7215 112.762C20.9684 113.882 29.5296 113.109 29.5296 113.109C29.5296 113.109 25.0677 105.832 22.8208 104.711C21.7457 104.201 20.5113 104.128 19.3826 104.508C18.2539 104.889 17.3209 105.692 16.7839 106.746C16.247 107.8 16.1489 109.02 16.5107 110.145C16.8725 111.27 17.6653 112.209 18.719 112.762H18.7215Z" fill="#166DE0"/>
<path d="M16.8966 133.662C18.9181 135.141 27.4916 135.811 27.4916 135.811C27.4916 135.811 24.3356 127.891 22.3117 126.412C21.3399 125.712 20.128 125.42 18.9402 125.601C17.7524 125.782 16.6849 126.42 15.9702 127.376C15.2555 128.333 14.9516 129.53 15.1247 130.708C15.2977 131.885 15.9338 132.947 16.8942 133.662H16.8966Z" fill="#166DE0"/>
<path d="M218.019 140.991C218.019 140.991 211.974 120.674 219.154 105.72C222.167 99.4446 223.167 92.3981 221.775 85.5869C221.11 82.3531 220.146 79.1865 218.896 76.127" stroke="#3D3C40" stroke-width="2" stroke-miterlimit="10"/>
<path d="M223.611 66.688C223.611 69.1792 219.056 76.3906 219.056 76.3906C219.056 76.3906 214.501 69.1695 214.501 66.688C214.487 66.0872 214.595 65.4897 214.817 64.9306C215.04 64.3714 215.373 63.862 215.797 63.4321C216.221 63.0023 216.728 62.6607 217.288 62.4275C217.847 62.1943 218.448 62.0742 219.055 62.0742C219.662 62.0742 220.263 62.1943 220.823 62.4275C221.382 62.6607 221.889 63.0023 222.313 63.4321C222.737 63.862 223.071 64.3714 223.293 64.9306C223.516 65.4897 223.623 66.0872 223.609 66.688H223.611Z" fill="#166DE0"/>
<path d="M231.154 79.0762C229.787 81.1671 222 84.7764 222 84.7764C222 84.7764 222.142 76.2649 223.509 74.174C223.827 73.6608 224.245 73.2158 224.739 72.865C225.232 72.5143 225.792 72.2649 226.385 72.1316C226.978 71.9983 227.591 71.9838 228.19 72.0889C228.788 72.194 229.359 72.4166 229.869 72.7436C230.38 73.0706 230.819 73.4954 231.16 73.9929C231.502 74.4905 231.74 75.0507 231.86 75.6406C231.979 76.2305 231.979 76.8382 231.858 77.4278C231.736 78.0174 231.497 78.5771 231.154 79.0738V79.0762Z" fill="#166DE0"/>
<path d="M230.562 104.051C228.315 105.171 219.754 104.398 219.754 104.398C219.754 104.398 224.216 97.1207 226.463 96.0001C227.538 95.4896 228.772 95.4169 229.901 95.7974C231.03 96.1779 231.963 96.9813 232.5 98.0352C233.037 99.0891 233.135 100.309 232.773 101.434C232.411 102.559 231.618 103.498 230.564 104.051H230.562Z" fill="#166DE0"/>
<path d="M226.257 121.828C224.236 123.307 215.662 123.977 215.662 123.977C215.662 123.977 218.818 116.06 220.84 114.578C221.811 113.878 223.023 113.586 224.211 113.767C225.399 113.948 226.466 114.586 227.181 115.542C227.896 116.499 228.2 117.696 228.027 118.874C227.854 120.051 227.217 121.113 226.257 121.828Z" fill="#166DE0"/>
<path d="M212.173 86.6564C213.977 88.3907 222.383 90.1881 222.383 90.1881C222.383 90.1881 220.325 81.924 218.522 80.1872C217.655 79.3538 216.49 78.8953 215.282 78.9126C214.074 78.9299 212.922 79.4215 212.08 80.2794C211.238 81.1373 210.775 82.2911 210.792 83.487C210.81 84.6829 211.307 85.823 212.173 86.6564Z" fill="#166DE0"/>
<path d="M207.414 107.516C209.661 108.637 218.222 107.863 218.222 107.863C218.222 107.863 213.76 100.586 211.514 99.4658C210.439 98.9631 209.209 98.8958 208.086 99.2782C206.962 99.6606 206.034 100.462 205.499 101.513C204.964 102.563 204.865 103.779 205.223 104.9C205.581 106.022 206.367 106.961 207.414 107.516Z" fill="#166DE0"/>
<path d="M208.817 128.416C210.838 129.895 219.412 130.565 219.412 130.565C219.412 130.565 216.256 122.648 214.235 121.165C213.263 120.466 212.051 120.174 210.863 120.355C209.675 120.536 208.608 121.174 207.893 122.13C207.178 123.087 206.874 124.284 207.048 125.461C207.221 126.639 207.857 127.701 208.817 128.416Z" fill="#166DE0"/>
<path d="M190.753 139.013C190.753 139.013 187.503 128.098 191.363 120.059C193.002 116.699 193.497 112.903 192.772 109.241C192.414 107.505 191.896 105.806 191.225 104.164" stroke="#3D3C40" stroke-width="2" stroke-miterlimit="10"/>
<path d="M193.625 99.0819C193.625 100.421 191.175 104.299 191.175 104.299C191.175 104.299 188.725 100.418 188.725 99.0819C188.725 98.4386 188.983 97.8216 189.442 97.3667C189.902 96.9118 190.525 96.6562 191.175 96.6562C191.825 96.6562 192.448 96.9118 192.907 97.3667C193.367 97.8216 193.625 98.4386 193.625 99.0819Z" fill="#06D6A0"/>
<path d="M197.67 106.496C196.935 107.619 192.75 109.559 192.75 109.559C192.75 109.559 192.826 104.984 193.561 103.861C193.728 103.578 193.952 103.332 194.218 103.137C194.484 102.942 194.787 102.802 195.109 102.726C195.431 102.65 195.766 102.64 196.092 102.695C196.418 102.751 196.73 102.872 197.008 103.05C197.286 103.228 197.525 103.46 197.709 103.732C197.894 104.004 198.021 104.31 198.083 104.633C198.145 104.955 198.14 105.286 198.069 105.606C197.998 105.926 197.863 106.229 197.67 106.496Z" fill="#06D6A0"/>
<path d="M197.493 119.159C196.285 119.761 191.684 119.346 191.684 119.346C191.684 119.346 194.082 115.436 195.288 114.834C195.864 114.577 196.517 114.549 197.113 114.758C197.709 114.966 198.2 115.394 198.485 115.952C198.769 116.511 198.825 117.156 198.64 117.754C198.455 118.352 198.044 118.856 197.493 119.162V119.159Z" fill="#06D6A0"/>
<path d="M195.178 128.714C194.09 129.509 189.483 129.868 189.483 129.868C189.483 129.868 191.179 125.614 192.267 124.818C192.79 124.472 193.428 124.339 194.048 124.446C194.668 124.553 195.222 124.892 195.597 125.393C195.971 125.894 196.136 126.518 196.058 127.136C195.98 127.755 195.665 128.319 195.178 128.714Z" fill="#06D6A0"/>
<path d="M187.612 109.819C188.592 110.75 193.098 111.718 193.098 111.718C193.098 111.718 191.993 107.277 191.022 106.345C190.796 106.106 190.522 105.914 190.219 105.783C189.915 105.651 189.588 105.581 189.257 105.578C188.925 105.575 188.596 105.639 188.291 105.765C187.985 105.892 187.708 106.078 187.477 106.314C187.246 106.549 187.066 106.828 186.947 107.135C186.828 107.441 186.773 107.768 186.786 108.096C186.799 108.424 186.878 108.746 187.02 109.042C187.162 109.339 187.363 109.604 187.612 109.821V109.819Z" fill="#06D6A0"/>
<path d="M185.049 121.024C186.257 121.626 190.858 121.211 190.858 121.211C190.858 121.211 188.46 117.301 187.254 116.7C186.678 116.442 186.025 116.415 185.429 116.623C184.833 116.831 184.342 117.259 184.058 117.817C183.773 118.376 183.717 119.021 183.902 119.619C184.087 120.217 184.498 120.722 185.049 121.027V121.024Z" fill="#06D6A0"/>
<path d="M184.069 132.257C185.156 133.053 189.763 133.412 189.763 133.412C189.763 133.412 188.058 129.155 186.979 128.359C186.456 128.007 185.815 127.869 185.191 127.974C184.567 128.079 184.008 128.419 183.631 128.923C183.255 129.427 183.09 130.056 183.172 130.677C183.253 131.299 183.575 131.865 184.069 132.257Z" fill="#06D6A0"/>
<g opacity="0.1">
<path opacity="0.1" d="M122.868 110.153C122.868 110.153 120.418 108.714 120.521 106.272L117.505 91.7784C117.505 91.7784 120.445 88.9744 118.799 85.4718C118.715 85.2923 118.619 85.1111 118.509 84.9284C117.426 83.1043 114.868 82.658 112.523 82.6847C114.773 82.7041 117.14 83.1917 118.174 84.9284C118.283 85.1111 118.38 85.2923 118.463 85.4718C120.102 88.9841 117.169 91.7784 117.169 91.7784L120.185 106.279C120.073 108.705 122.533 110.16 122.533 110.16C124.88 113.257 133.26 136.046 133.26 136.046L122.817 137.708C122.817 137.725 122.817 137.744 122.817 137.761L133.598 136.046C133.598 136.046 125.216 113.25 122.868 110.153Z" fill="#3D3C40"/>
</g>
<g opacity="0.1">
<path opacity="0.1" d="M107.069 80.8506C112.609 80.9161 119.509 84.2174 119.509 84.2174C118.72 88.7072 116.052 89.9055 110.688 95.1061C105.324 100.307 99.9582 113.58 99.9582 113.58C100.294 116.005 96.3833 131.723 94.7048 133.271C93.2347 134.62 93.3964 136.888 93.4577 137.455L93.8105 137.586C93.8105 137.586 93.3645 134.821 95.0356 133.271C96.7067 131.721 100.63 116.005 100.294 113.58C100.294 113.58 105.658 100.304 111.021 95.1036C116.385 89.9031 119.056 88.7048 119.842 84.215C119.845 84.2295 112.66 80.7827 107.069 80.8506Z" fill="#3D3C40"/>
</g>
<path opacity="0.05" d="M107.049 21.9296L103.978 21.3359L103.956 21.4455L107.027 22.0391L107.049 21.9296Z" fill="#3D3C40"/>
</g>
<defs>
<clipPath id="clip0">
<rect width="234" height="147.75" fill="white"/>
</clipPath>
</defs>
</svg>
