<svg width="234" height="200" viewBox="0 0 234 200" fill="none" xmlns="http://www.w3.org/2000/svg">
<path d="M71.8004 8.01749C79.6896 0.982201 92.0748 -0.450359 103.347 0.109515C138.754 1.86884 170.715 18.956 198.362 38.2846C208.37 45.282 218.223 52.8294 224.726 62.4588C237.952 82.0743 234.028 109.249 215.639 125.408C209.382 130.907 201.797 135.121 194.01 138.859C180.166 145.502 165.231 150.833 149.515 152.352C138.309 153.433 126.974 152.551 115.825 151.044C84.7008 146.824 54.1503 137.496 28.5426 121.529C17.3065 114.527 6.72052 105.822 2.09165 94.4892C-2.53721 83.1562 0.425263 68.8087 11.8928 62.1041C16.6364 59.3307 20.8432 57.3482 26.3958 56.1706C34.5688 54.4412 38.4831 52.7337 45.8591 49.2151C53.4766 45.5809 62.4948 38.5515 60.9874 30.5061C59.3693 21.8808 63.9212 15.0309 71.8004 8.01749Z" fill="#166DE0" fill-opacity="0.04"/>
<path d="M166.893 43.8066H74.6176C71.4217 43.8066 68.8301 46.4007 68.8301 49.5991V104.101C68.8301 107.299 71.4217 109.893 74.6176 109.893H166.893C170.089 109.893 172.68 107.299 172.68 104.101V49.5991C172.68 46.4007 170.089 43.8066 166.893 43.8066Z" fill="#3D3C40" fill-opacity="0.08"/>
<path d="M162.892 40.9492H72.1187C68.6359 40.9492 65.8125 43.7722 65.8125 47.2545V100.378C65.8125 103.86 68.6359 106.683 72.1187 106.683H162.892C166.375 106.683 169.198 103.86 169.198 100.378V47.2545C169.198 43.7722 166.375 40.9492 162.892 40.9492Z" fill="white"/>
<path opacity="0.16" d="M162.892 40.9492H72.1187C68.6359 40.9492 65.8125 43.7722 65.8125 47.2545V100.378C65.8125 103.86 68.6359 106.683 72.1187 106.683H162.892C166.375 106.683 169.198 103.86 169.198 100.378V47.2545C169.198 43.7722 166.375 40.9492 162.892 40.9492Z" fill="#166DE0"/>
<path opacity="0.3" d="M91.2818 78.2422H78.3682C77.4917 78.2422 76.7812 78.9085 76.7812 79.7304V81.8728C76.7812 82.6947 77.4917 83.3609 78.3682 83.3609H91.2818C92.1583 83.3609 92.8687 82.6947 92.8687 81.8728V79.7304C92.8687 78.9085 92.1583 78.2422 91.2818 78.2422Z" fill="#166DE0"/>
<path opacity="0.3" d="M113.219 78.2422H100.306C99.4292 78.2422 98.7188 78.9085 98.7188 79.7304V81.8728C98.7188 82.6947 99.4292 83.3609 100.306 83.3609H113.219C114.096 83.3609 114.806 82.6947 114.806 81.8728V79.7304C114.806 78.9085 114.096 78.2422 113.219 78.2422Z" fill="#166DE0"/>
<path opacity="0.3" d="M124.857 89.2109H113.53C112.619 89.2109 111.881 89.9863 111.881 90.9428V91.8665C111.881 92.823 112.619 93.5984 113.53 93.5984H124.857C125.768 93.5984 126.506 92.823 126.506 91.8665V90.9428C126.506 89.9863 125.768 89.2109 124.857 89.2109Z" fill="#166DE0"/>
<path opacity="0.3" d="M135.816 78.2422H122.315C121.399 78.2422 120.656 78.9085 120.656 79.7304V81.8728C120.656 82.6947 121.399 83.3609 122.315 83.3609H135.816C136.732 83.3609 137.475 82.6947 137.475 81.8728V79.7304C137.475 78.9085 136.732 78.2422 135.816 78.2422Z" fill="#166DE0"/>
<path opacity="0.3" d="M157.753 78.2422H144.253C143.337 78.2422 142.594 78.9085 142.594 79.7304V81.8728C142.594 82.6947 143.337 83.3609 144.253 83.3609H157.753C158.67 83.3609 159.412 82.6947 159.412 81.8728V79.7304C159.412 78.9085 158.67 78.2422 157.753 78.2422Z" fill="#166DE0"/>
<path d="M86.8326 62.5234H77.6722C77.1219 62.5234 76.6758 62.9695 76.6758 63.5197V72.6787C76.6758 73.2289 77.1219 73.675 77.6722 73.675H86.8326C87.3829 73.675 87.829 73.2289 87.829 72.6787V63.5197C87.829 62.9695 87.3829 62.5234 86.8326 62.5234Z" fill="#166DE0"/>
<path d="M84.087 69.9331H80.5674V66.4141H84.087V69.9331ZM80.7092 69.7879H83.9384V66.5593H80.7092V69.7879Z" fill="white"/>
<path d="M82.3972 62.5234H82.252V66.4849H82.3972V62.5234Z" fill="white"/>
<path d="M82.3972 69.8594H82.252V73.6756H82.3972V69.8594Z" fill="white"/>
<path d="M80.6379 68.0254H76.6758V68.1706H80.6379V68.0254Z" fill="white"/>
<path d="M87.8324 68.0254H84.0156V68.1706H87.8324V68.0254Z" fill="white"/>
<path d="M80.5872 66.5396L79.4354 65.3947H76.6758V65.2461H79.4962L80.6919 66.4349L80.5872 66.5396Z" fill="white"/>
<path d="M84.0628 66.5396L83.9648 66.4315L85.3058 65.2461H87.829V65.3947H85.3632L84.0628 66.5396Z" fill="white"/>
<path d="M79.4995 71.2864H76.6758V71.1378H79.432L80.5838 69.8105L80.6953 69.9085L79.4995 71.2864Z" fill="white"/>
<path d="M87.8284 71.2878H85.3019L83.9609 69.9133L84.0656 69.8086L85.3661 71.1392H87.8284V71.2878Z" fill="white"/>
<path d="M106.47 46.0117H77.9825C77.2177 46.0117 76.5977 46.6317 76.5977 47.3964V50.2029C76.5977 50.9676 77.2177 51.5875 77.9825 51.5875H106.47C107.235 51.5875 107.855 50.9676 107.855 50.2029V47.3964C107.855 46.6317 107.235 46.0117 106.47 46.0117Z" fill="#166DE0"/>
<path d="M159.324 199.233C176.589 199.233 190.585 197.134 190.585 194.545C190.585 191.956 176.589 189.857 159.324 189.857C142.059 189.857 128.063 191.956 128.063 194.545C128.063 197.134 142.059 199.233 159.324 199.233Z" fill="#3D3C40" fill-opacity="0.08"/>
<path d="M174.512 131.82C174.491 131.24 174.42 130.659 174.349 130.081C174.089 127.913 173.823 125.745 173.4 123.607C173.326 123.19 173.213 122.781 173.063 122.384C172.911 122.01 172.701 121.665 172.542 121.294C172.544 121.28 172.544 121.267 172.542 121.253C172.738 121.159 172.931 121.064 173.12 120.963C173.257 120.893 173.388 120.813 173.512 120.723C173.637 120.633 173.741 120.518 173.819 120.385C174.157 119.791 173.779 119.034 173.606 118.359C173.424 117.633 173.464 116.761 172.931 116.275C171.026 114.586 171.972 111.142 171.019 108.724C170.85 108.301 170.658 107.886 170.512 107.454C170.401 107.116 170.323 106.778 170.242 106.441C169.567 103.626 168.855 100.824 168.107 98.0347C167.32 95.1438 167.405 92.1314 166.419 89.308C166.232 88.7227 165.989 88.1572 165.692 87.6194C165.362 87.0592 164.915 86.5766 164.382 86.2043C162.943 85.2114 161.494 84.3638 159.805 84.0024C158.116 83.641 156.292 83.6984 154.569 83.7052C153.952 82.8495 153.104 82.1876 152.124 81.7971L152.094 81.7093C151.956 81.3673 151.849 81.0135 151.776 80.6522C151.721 80.2946 151.693 79.9333 151.692 79.5715C151.692 79.1831 151.675 78.7914 151.665 78.403L151.759 78.3118C151.985 78.0734 152.193 77.8182 152.381 77.5485C152.562 77.2938 152.72 77.0237 152.854 76.7414C153.005 76.4211 153.134 76.0904 153.239 75.7519C153.444 75.0677 153.583 74.3654 153.654 73.6546C153.745 72.8204 153.772 71.966 153.796 71.1318C153.796 70.963 153.796 70.7941 153.796 70.6219V70.4969C153.796 70.3618 153.796 70.2301 153.796 70.0984V70.0545C153.824 69.192 153.606 68.3393 153.168 67.5959C152.556 66.684 151.509 66.245 150.499 65.8803C148.473 65.1778 146.247 64.7151 144.244 65.4683C142.653 66.0694 141.383 67.3798 139.812 68.0451C139.848 68.1052 139.881 68.1672 139.91 68.2308C139.911 68.2398 139.911 68.2488 139.91 68.2578C139.937 68.3186 139.961 68.376 139.981 68.4368C140.032 68.5735 140.069 68.7149 140.093 68.859C140.138 69.1318 140.138 69.4102 140.093 69.683C139.618 69.8954 139.095 69.9726 138.579 69.9059C138.774 70.5419 139.098 71.1307 139.532 71.635C139.67 71.8107 139.816 71.9728 139.954 72.1585L140.167 72.4219C140.529 72.8463 140.824 73.3235 141.042 73.837C141.122 74.0402 141.177 74.2522 141.207 74.4685C141.271 74.8974 141.254 75.3905 141.312 75.8194C141.334 76.0038 141.38 76.1845 141.45 76.3564C141.58 77.2462 141.919 78.0923 142.441 78.8247C142.962 79.5571 143.651 80.1547 144.45 80.5678C144.669 81.9029 144.669 83.265 144.45 84.6002C144.45 84.6745 144.423 84.7488 144.406 84.8231C143.487 85.9815 142.606 87.204 141.474 88.1091C140.959 88.5122 140.409 88.8672 139.829 89.1696C139.489 89.3658 139.124 89.5168 138.745 89.6187C138.319 89.7166 137.873 89.7031 137.451 89.8078C136.636 90.0668 135.949 90.6257 135.529 91.3715C135.316 91.7657 135.079 92.1469 134.82 92.513C134.583 92.8068 134.286 93.0466 134.036 93.3269C133.131 94.3401 132.885 95.8058 132.685 97.1769C131.981 97.9545 131.209 98.6676 130.378 99.3079C130.118 99.5147 129.829 99.682 129.52 99.8044C128.723 100.071 127.848 99.7301 127.156 99.2168C126.463 98.7034 125.923 98.028 125.254 97.5011L125.079 97.7612C125.029 97.7118 124.982 97.6588 124.94 97.6025C124.666 97.2162 124.476 96.7767 124.383 96.3124C124.14 95.0662 124.599 93.7322 124.241 92.5197C124.109 92.0807 123.792 91.6282 123.353 91.6383C122.913 91.6484 122.64 92.0875 122.262 92.2935C121.654 92.6312 120.91 92.3239 120.309 91.9895C119.708 91.6552 119.022 91.2803 118.364 91.4796C118.351 91.6971 118.39 91.9145 118.477 92.1141C118.565 92.3136 118.698 92.4897 118.867 92.6278C119.206 92.8962 119.485 93.2335 119.684 93.6173C119.783 94.0364 119.821 94.4675 119.796 94.8973C119.863 95.8834 120.471 96.7311 121.059 97.5011C121.789 98.4355 122.552 99.3428 123.349 100.223C123.254 100.391 123.103 100.521 122.924 100.591C122.878 100.751 122.878 100.921 122.924 101.081C122.957 101.191 123 101.299 123.052 101.402C123.13 101.561 123.224 101.716 123.305 101.861L124.491 103.945L124.683 104.283C124.764 104.424 124.846 104.56 124.93 104.698C125.209 105.183 125.541 105.636 125.92 106.049C126.108 106.247 126.316 106.426 126.541 106.582C126.687 106.688 126.842 106.78 127.004 106.859C127.23 106.975 127.471 107.058 127.72 107.106C127.842 107.132 127.967 107.148 128.091 107.153C128.221 107.163 128.351 107.163 128.48 107.153C128.869 107.099 129.251 107 129.618 106.859C131.878 106.066 133.952 104.799 136.1 103.722C136.396 103.557 136.713 103.434 137.042 103.357C137.154 103.336 137.267 103.327 137.38 103.33C137.495 103.334 137.609 103.353 137.718 103.388C137.826 103.424 137.928 103.475 138.022 103.54C138.211 103.667 138.344 103.863 138.39 104.087C138.454 104.424 138.515 104.739 138.576 105.063C138.637 105.387 138.704 105.711 138.772 106.035C138.907 106.68 139.052 107.325 139.221 107.964C139.312 108.301 139.4 108.659 139.488 109.011C139.704 109.869 139.917 110.733 140.113 111.598C140.174 111.868 140.231 112.141 140.285 112.412C140.386 112.892 140.458 113.378 140.501 113.867C140.503 113.878 140.503 113.89 140.501 113.901C140.535 114.326 140.538 114.749 140.542 115.174V116.508L140.576 120.446C140.576 121.013 140.272 121.368 140.032 121.878C139.984 121.983 139.941 122.091 139.903 122.199C139.858 122.336 139.821 122.476 139.792 122.617C139.792 122.661 139.772 122.709 139.765 122.753C139.758 122.796 139.765 122.857 139.745 122.908C139.724 122.959 139.745 123.009 139.728 123.057C139.711 123.104 139.728 123.158 139.728 123.205C139.728 123.252 139.728 123.313 139.728 123.367C139.728 123.421 139.728 123.462 139.728 123.506C139.728 123.55 139.728 123.624 139.728 123.681C139.728 123.739 139.728 123.766 139.728 123.806C139.728 123.847 139.751 123.938 139.762 124.006L139.782 124.107C139.805 124.205 139.829 124.303 139.863 124.401C139.93 124.603 140.015 124.803 140.103 124.998C140.191 125.194 140.278 125.394 140.353 125.596C140.4 125.725 140.44 125.855 140.474 125.988C140.483 126.018 140.489 126.048 140.495 126.079C140.522 126.184 140.545 126.289 140.565 126.397V126.471C140.586 126.586 140.603 126.704 140.616 126.809C140.618 126.822 140.618 126.836 140.616 126.849C140.616 126.981 140.643 127.113 140.65 127.244C140.68 127.724 140.674 128.214 140.65 128.696L140.609 131.101V131.175C140.606 131.25 140.622 131.325 140.657 131.391C140.681 131.429 140.714 131.46 140.754 131.482C140.794 131.503 140.838 131.514 140.883 131.513C141.054 131.501 141.218 131.437 141.352 131.331L142.427 130.551H142.494C141.646 131.939 140.967 133.468 140.836 135.1C140.785 136.177 140.854 137.256 141.042 138.318C142.031 145.41 144.362 152.567 143.872 159.726C143.68 162.546 144.848 165.295 144.842 168.119C144.842 169.216 144.656 170.304 144.609 171.398C144.403 176.099 146.801 180.854 145.825 185.447C146.162 186.589 147.442 187.197 147.804 188.331C148.108 189.294 147.669 190.317 147.314 191.259C147.186 191.588 147.088 191.927 147.02 192.273C146.037 192.273 144.946 192.293 144.291 192.566C144.109 192.626 143.932 192.698 143.761 192.783C143.156 193.144 143.116 194.133 143.497 194.731C143.879 195.329 146.024 197.237 146.652 197.551L148.027 198.227C148.764 198.643 149.562 198.944 150.391 199.118C151.089 199.196 151.794 199.182 152.489 199.078C153.026 199.02 153.62 198.932 153.968 198.493C154.458 197.872 154.208 196.862 153.874 195.964C153.997 195.865 154.093 195.736 154.151 195.589C154.21 195.354 154.241 195.112 154.242 194.87C154.341 194.4 154.502 193.946 154.721 193.519C155.286 192.144 155.262 190.597 155.228 189.101C155.234 186.669 155.067 184.239 154.728 181.83C154.559 180.817 154.33 179.804 154.134 178.791C153.413 175.122 153.104 171.384 153.212 167.646C153.224 166.738 153.097 165.834 152.837 164.964C152.726 164.462 152.696 163.946 152.749 163.435L153.154 157.251C153.27 155.993 153.289 154.729 153.212 153.468C153.154 152.793 153.043 152.117 152.975 151.442C152.873 150.155 152.851 148.862 152.911 147.572C152.948 146.184 153.012 144.694 153.806 143.58C153.847 143.508 153.901 143.445 153.966 143.395C154.031 143.345 154.105 143.308 154.184 143.286C154.347 143.262 154.394 143.482 154.333 143.624C154.417 143.88 154.505 144.134 154.593 144.39C154.62 144.465 154.644 144.536 154.671 144.607C154.715 144.738 154.762 144.87 154.809 145.002C154.857 145.133 154.877 145.184 154.907 145.275L155.039 145.613C155.076 145.714 155.117 145.812 155.154 145.91C155.191 146.008 155.238 146.123 155.282 146.228C155.326 146.332 155.37 146.437 155.417 146.542C155.465 146.646 155.498 146.734 155.542 146.832L155.704 147.17C155.745 147.254 155.785 147.342 155.829 147.427C155.873 147.511 155.961 147.673 156.029 147.795C156.066 147.866 156.103 147.936 156.143 148.004C156.252 148.193 156.363 148.376 156.481 148.558C156.711 148.896 156.958 149.233 157.157 149.595C157.227 149.713 157.29 149.836 157.346 149.963C157.533 150.429 157.681 150.911 157.788 151.401C157.907 151.847 158.045 152.283 158.197 152.712C158.349 153.141 158.535 153.57 158.7 153.988C158.792 154.198 158.886 154.407 158.981 154.613C159.265 155.238 159.572 155.853 159.883 156.461C159.937 156.568 159.98 156.682 160.011 156.798C160.027 156.855 160.039 156.912 160.048 156.971C160.061 157.083 160.061 157.196 160.048 157.308C160.044 157.379 160.035 157.449 160.021 157.518C160.001 157.622 159.97 157.724 159.93 157.822C159.514 158.771 159.849 159.706 160.031 160.638C160.191 161.621 160.268 162.615 160.261 163.61C160.261 163.948 160.261 164.286 160.291 164.6C160.291 165.012 160.291 165.42 160.315 165.832C160.339 166.244 160.315 166.717 160.339 167.16C160.346 167.603 160.328 168.046 160.285 168.487C160.285 168.642 160.244 168.794 160.22 168.946C160.146 169.402 160.041 169.855 159.95 170.297C159.613 172.078 159.457 173.888 159.484 175.701C159.484 176.428 159.508 177.156 159.555 177.886C159.596 178.618 159.653 179.348 159.717 180.081C159.751 180.483 159.791 180.885 159.832 181.286C159.9 181.982 159.974 182.678 160.048 183.374C160.122 184.069 160.204 184.836 160.274 185.562C160.345 186.288 160.41 187.014 160.46 187.737C160.492 188.095 160.417 188.455 160.244 188.77C160.176 188.896 160.119 189.027 160.075 189.162C160.044 189.256 160.019 189.352 160.001 189.449C159.981 189.561 159.968 189.674 159.96 189.787C159.952 190.024 159.966 190.261 160.001 190.496C160.019 190.613 160.039 190.726 160.062 190.834C160.112 191.067 160.173 191.3 160.234 191.53C160.373 192.166 160.601 192.78 160.909 193.353C160.975 193.471 161.05 193.584 161.132 193.691C161.156 193.725 161.183 193.755 161.21 193.789C161.28 193.87 161.344 193.956 161.403 194.046C161.43 194.087 161.454 194.131 161.474 194.177C161.543 194.364 161.557 194.567 161.514 194.762C161.477 194.964 161.406 195.167 161.352 195.359L161.528 195.383C161.281 196.163 161.166 196.964 161.582 197.487C161.919 197.926 162.524 198.014 163.061 198.071C163.755 198.179 164.461 198.193 165.159 198.115C165.988 197.941 166.785 197.64 167.523 197.224L168.898 196.548C169.526 196.234 171.668 194.339 172.049 193.725C172.431 193.11 172.387 192.141 171.789 191.779C171.618 191.693 171.441 191.62 171.259 191.56C170.651 191.307 169.668 191.283 168.749 191.27C168.702 190.932 168.675 190.564 168.661 190.216C168.6 188.923 168.625 187.628 168.736 186.339C168.813 185.424 168.932 184.512 168.921 183.596C168.921 182.374 168.668 181.165 168.536 179.949C168.405 178.733 168.391 177.545 168.371 176.342C168.34 174.573 168.861 172.887 169.087 171.138L169.482 168.061C169.548 167.688 169.558 167.306 169.509 166.93C169.448 166.592 169.293 166.255 169.229 165.917C169.09 165.15 169.438 164.39 169.546 163.617C169.671 162.729 169.479 161.827 169.354 160.935C169.19 159.528 169.112 158.111 169.121 156.694C168.999 147.98 168.753 139.071 165.807 130.919C165.689 130.581 165.561 130.243 165.429 129.929C165.488 129.913 165.547 129.894 165.605 129.872C165.696 129.838 165.784 129.792 165.865 129.737C165.901 129.715 165.934 129.69 165.966 129.662C166.06 129.569 166.129 129.452 166.165 129.325C166.205 129.201 166.225 129.073 166.226 128.943C166.222 128.715 166.189 128.488 166.128 128.268L166.088 128.129C166.02 127.899 165.946 127.673 165.868 127.454C165.794 127.234 165.713 127.021 165.628 126.805C165.452 126.405 165.31 125.99 165.203 125.566C164.997 124.607 165.203 123.499 164.625 122.719C163.348 120.969 164.25 118.281 163.716 116.15C163.541 115.475 163.284 114.799 163.122 114.124C163.021 113.691 162.956 113.249 162.892 112.807C162.723 111.85 162.64 110.88 162.642 109.909C162.642 109.423 162.717 108.936 162.774 108.453L163.179 105.103C163.632 105.97 163.955 106.898 164.139 107.859C164.169 107.998 164.196 108.133 164.226 108.271C164.592 109.923 165.043 111.556 165.577 113.161C165.885 114.131 166.189 115.096 166.52 116.056C166.618 116.329 166.712 116.606 166.8 116.886C166.886 117.166 166.954 117.452 167.003 117.741C167.04 117.97 167.057 118.207 167.074 118.44C167.091 118.673 167.104 118.913 167.128 119.146C167.238 120.143 167.573 121.103 168.107 121.952C168.124 121.974 168.14 121.996 168.155 122.02C168.246 122.184 168.392 122.311 168.567 122.378C168.688 122.403 168.814 122.403 168.935 122.378H168.955C169.134 122.341 169.313 122.3 169.489 122.256C169.515 122.251 169.541 122.244 169.567 122.236C169.648 123.283 169.958 124.326 169.985 125.383C170.019 126.92 169.455 128.393 169.097 129.882C168.796 131.241 168.594 132.62 168.492 134.009C168.446 134.284 168.464 134.566 168.543 134.833C168.582 134.963 168.664 135.075 168.776 135.151C168.888 135.226 169.023 135.261 169.158 135.248C169.253 135.216 169.341 135.165 169.415 135.099C169.49 135.032 169.551 134.951 169.594 134.86C169.995 134.192 170.129 133.397 169.969 132.634C170.289 132.702 170.455 133.07 170.533 133.404C170.738 134.271 170.689 135.179 170.391 136.018C170.191 136.579 169.884 137.096 169.715 137.673C169.654 137.853 169.654 138.047 169.715 138.227C169.884 138.615 170.418 138.588 170.803 138.446C172.061 137.933 173.084 136.97 173.671 135.745C174.268 134.525 174.557 133.178 174.512 131.82Z" fill="#3D3C40" fill-opacity="0.16"/>
<path d="M154.805 198.523C154.444 198.959 153.826 199.047 153.265 199.104C152.541 199.209 151.807 199.222 151.08 199.145C150.222 198.972 149.395 198.674 148.624 198.26L147.192 197.584C146.54 197.27 144.311 195.386 143.912 194.775C143.514 194.163 143.554 193.201 144.182 192.839C144.362 192.755 144.547 192.683 144.736 192.623C145.79 192.205 147.925 192.417 149.046 192.255C149.602 192.229 150.154 192.359 150.641 192.63C151.748 193.12 153.701 193.508 154.184 194.754C154.559 195.713 155.586 197.574 154.805 198.523Z" fill="#3D3C40"/>
<path d="M162.76 197.599C163.122 198.035 163.74 198.123 164.301 198.18C165.898 198.479 167.55 198.177 168.938 197.332L170.371 196.657C171.026 196.343 173.255 194.458 173.654 193.847C174.052 193.236 174.012 192.27 173.38 191.912C173.203 191.825 173.018 191.753 172.829 191.696C171.776 191.277 169.641 191.49 168.52 191.328C167.962 191.301 167.409 191.43 166.922 191.703C165.817 192.192 163.882 192.581 163.382 193.827C162.997 194.789 161.967 196.65 162.76 197.599Z" fill="#3D3C40"/>
<path d="M166.243 129.31C166.588 129.974 166.889 130.66 167.144 131.363C170.211 139.469 170.468 148.337 170.596 157.007C170.585 158.416 170.665 159.825 170.836 161.225C170.965 162.113 171.174 163.008 171.035 163.896C170.924 164.663 170.563 165.419 170.698 166.179C170.762 166.517 170.924 166.855 170.988 167.192C171.039 167.566 171.029 167.946 170.958 168.317L170.549 171.377C170.313 173.119 169.772 174.794 169.803 176.554C169.823 177.753 169.843 178.952 169.975 180.144C170.171 181.345 170.305 182.556 170.377 183.771C170.377 184.683 170.262 185.591 170.181 186.5C170.067 187.782 170.041 189.071 170.103 190.357C170.151 191.346 170.265 192.383 170.779 193.217C170.188 194.061 169.607 194.818 168.664 195.243C166.749 196.081 164.55 195.797 162.48 195.497C162.595 195.115 162.77 194.683 162.605 194.318C162.509 194.142 162.39 193.979 162.25 193.835C161.799 193.192 161.486 192.463 161.328 191.694C161.078 190.779 160.828 189.796 161.328 188.921C161.504 188.614 161.583 188.261 161.554 187.908C161.125 182.167 159.845 176.209 161.024 170.566C161.149 169.965 161.298 169.364 161.362 168.753C161.425 167.874 161.437 166.992 161.395 166.112L161.409 164.852C161.348 163.545 161.409 162.204 161.139 160.911C160.953 159.985 160.602 159.053 161.034 158.108C161.127 157.892 161.17 157.659 161.159 157.425C161.147 157.191 161.083 156.962 160.97 156.757C160.06 155.163 159.328 153.475 158.788 151.721C158.676 151.232 158.523 150.753 158.328 150.289C158.065 149.8 157.763 149.334 157.423 148.895C156.41 147.405 155.782 145.679 155.18 143.977C155.245 143.819 155.18 143.602 155.028 143.64C154.946 143.66 154.869 143.696 154.801 143.747C154.733 143.797 154.676 143.861 154.633 143.933C153.809 145.041 153.738 146.52 153.701 147.905C153.639 149.188 153.662 150.475 153.769 151.755C153.836 152.43 153.954 153.106 154.015 153.781C154.094 155.035 154.074 156.293 153.954 157.544L153.539 163.67C153.48 164.179 153.509 164.694 153.627 165.193C153.898 166.055 154.03 166.954 154.019 167.858C153.912 171.573 154.239 175.288 154.991 178.928C155.194 179.941 155.434 180.934 155.609 181.944C155.96 184.339 156.134 186.757 156.13 189.178C156.167 190.667 156.19 192.217 155.603 193.568C155.372 193.992 155.204 194.447 155.103 194.919C155.102 195.161 155.071 195.402 155.008 195.635C154.836 196.078 154.333 196.267 153.856 196.368C152.984 196.557 152.089 196.621 151.198 196.557C150.989 196.555 150.783 196.509 150.593 196.422C150.256 196.25 150.087 195.885 149.833 195.612C149.29 195.017 148.384 194.835 147.888 194.2C147.266 193.403 147.527 192.251 147.888 191.312C148.249 190.373 148.712 189.357 148.395 188.398C148.02 187.273 146.706 186.665 146.334 185.531C147.347 180.958 144.855 176.23 145.068 171.552C145.118 170.461 145.307 169.381 145.311 168.29C145.311 165.48 144.105 162.745 144.297 159.941C144.807 152.819 142.379 145.706 141.352 138.638C141.156 137.584 141.083 136.511 141.136 135.44C141.288 133.67 142.109 132.025 143.095 130.55C143.804 129.492 144.655 128.456 145.828 127.963C146.794 127.554 147.874 127.557 148.922 127.564C151.536 127.584 154.15 127.605 156.765 127.652C158.544 127.626 160.321 127.785 162.068 128.125C163.483 128.446 164.807 129.104 166.243 129.31Z" fill="#3D3C40"/>
<path d="M124.004 96.8391C123.751 95.5996 124.23 94.2724 123.856 93.0667C123.72 92.6311 123.389 92.1785 122.933 92.1887C122.477 92.1988 122.19 92.6345 121.798 92.8405C121.167 93.1782 120.397 92.8709 119.772 92.5399C119.147 92.2089 118.421 91.8307 117.745 92.0299C117.664 92.4622 117.955 92.8709 118.272 93.1714C118.62 93.4375 118.909 93.7734 119.12 94.1576C119.279 94.5561 119.204 95.0019 119.238 95.4308C119.309 96.4102 119.914 97.2579 120.552 98.0211C121.553 99.2512 122.616 100.429 123.737 101.55C123.737 101.55 125.426 99.4429 125.403 99.0748C125.379 98.7067 124.801 98.3993 124.592 98.1224C124.304 97.7432 124.103 97.3049 124.004 96.8391Z" fill="white"/>
<path opacity="0.72" d="M124.004 96.8391C123.751 95.5996 124.23 94.2724 123.856 93.0667C123.72 92.6311 123.389 92.1785 122.933 92.1887C122.477 92.1988 122.19 92.6345 121.798 92.8405C121.167 93.1782 120.397 92.8709 119.772 92.5399C119.147 92.2089 118.421 91.8307 117.745 92.0299C117.664 92.4622 117.955 92.8709 118.272 93.1714C118.62 93.4375 118.909 93.7734 119.12 94.1576C119.279 94.5561 119.204 95.0019 119.238 95.4308C119.309 96.4102 119.914 97.2579 120.552 98.0211C121.553 99.2512 122.616 100.429 123.737 101.55C123.737 101.55 125.426 99.4429 125.403 99.0748C125.379 98.7067 124.801 98.3993 124.592 98.1224C124.304 97.7432 124.103 97.3049 124.004 96.8391Z" fill="#3D3C40" fill-opacity="0.72"/>
<path d="M174.691 122.776C174.842 123.17 174.955 123.577 175.028 123.992C175.468 126.12 175.744 128.278 176.018 130.433C176.089 131.007 176.163 131.584 176.184 132.162C176.262 133.538 175.979 134.911 175.363 136.143C174.74 137.384 173.676 138.348 172.38 138.845C171.982 138.987 171.424 139.014 171.249 138.629C171.186 138.451 171.186 138.257 171.249 138.079C171.407 137.504 171.728 136.988 171.924 136.431C172.233 135.598 172.284 134.692 172.073 133.83C171.992 133.492 171.82 133.131 171.485 133.063C171.652 133.825 171.511 134.621 171.093 135.279C171.047 135.37 170.984 135.451 170.906 135.517C170.828 135.583 170.738 135.633 170.641 135.664C170.503 135.678 170.364 135.645 170.248 135.57C170.131 135.495 170.043 135.383 169.999 135.252C169.918 134.986 169.9 134.705 169.948 134.431C170.054 133.048 170.264 131.676 170.577 130.325C170.948 128.842 171.539 127.38 171.499 125.85C171.465 124.465 170.914 123.104 171.07 121.73C171.067 121.653 171.09 121.578 171.136 121.517C171.181 121.456 171.246 121.412 171.32 121.392C171.708 121.233 172.106 121.101 172.512 120.997C172.752 120.936 173.569 120.659 173.799 120.781C174.029 120.902 174.042 121.5 174.137 121.709C174.316 122.057 174.535 122.402 174.691 122.776Z" fill="white"/>
<path opacity="0.72" d="M174.691 122.776C174.842 123.17 174.955 123.577 175.028 123.992C175.468 126.12 175.744 128.278 176.018 130.433C176.089 131.007 176.163 131.584 176.184 132.162C176.262 133.538 175.979 134.911 175.363 136.143C174.74 137.384 173.676 138.348 172.38 138.845C171.982 138.987 171.424 139.014 171.249 138.629C171.186 138.451 171.186 138.257 171.249 138.079C171.407 137.504 171.728 136.988 171.924 136.431C172.233 135.598 172.284 134.692 172.073 133.83C171.992 133.492 171.82 133.131 171.485 133.063C171.652 133.825 171.511 134.621 171.093 135.279C171.047 135.37 170.984 135.451 170.906 135.517C170.828 135.583 170.738 135.633 170.641 135.664C170.503 135.678 170.364 135.645 170.248 135.57C170.131 135.495 170.043 135.383 169.999 135.252C169.918 134.986 169.9 134.705 169.948 134.431C170.054 133.048 170.264 131.676 170.577 130.325C170.948 128.842 171.539 127.38 171.499 125.85C171.465 124.465 170.914 123.104 171.07 121.73C171.067 121.653 171.09 121.578 171.136 121.517C171.181 121.456 171.246 121.412 171.32 121.392C171.708 121.233 172.106 121.101 172.512 120.997C172.752 120.936 173.569 120.659 173.799 120.781C174.029 120.902 174.042 121.5 174.137 121.709C174.316 122.057 174.535 122.402 174.691 122.776Z" fill="#3D3C40" fill-opacity="0.72"/>
<path d="M147.354 81.7434C150.479 81.7434 153.012 79.2107 153.012 76.0865C153.012 72.9623 150.479 70.4297 147.354 70.4297C144.229 70.4297 141.696 72.9623 141.696 76.0865C141.696 79.2107 144.229 81.7434 147.354 81.7434Z" fill="white"/>
<path opacity="0.72" d="M147.354 81.7434C150.479 81.7434 153.012 79.2107 153.012 76.0865C153.012 72.9623 150.479 70.4297 147.354 70.4297C144.229 70.4297 141.696 72.9623 141.696 76.0865C141.696 79.2107 144.229 81.7434 147.354 81.7434Z" fill="#3D3C40" fill-opacity="0.72"/>
<path d="M152.425 80.1793C152.422 80.5401 152.451 80.9005 152.509 81.2566C152.588 81.6167 152.701 81.9685 152.847 82.3069C153.035 82.8598 153.301 83.3829 153.637 83.8604C153.978 84.3425 154.491 84.676 155.07 84.7926C151.201 86.6063 147.072 87.7995 142.832 88.3285C143.5 87.8847 144.055 87.2916 144.453 86.596C144.667 86.1509 144.811 85.6761 144.882 85.1877C145.245 83.1422 145.062 81.0373 144.352 79.0851C144.281 78.8959 144.214 78.6595 144.352 78.5008C144.41 78.4443 144.479 78.4006 144.555 78.3725C146.234 77.6597 148.048 77.3208 149.871 77.3796C150.337 77.3796 150.803 77.4032 151.27 77.437C151.52 77.4572 152.07 77.4032 152.283 77.5856C152.496 77.7679 152.401 78.4839 152.408 78.7777L152.425 80.1793Z" fill="white"/>
<path opacity="0.72" d="M152.425 80.1793C152.422 80.5401 152.451 80.9005 152.509 81.2566C152.588 81.6167 152.701 81.9685 152.847 82.3069C153.035 82.8598 153.301 83.3829 153.637 83.8604C153.978 84.3425 154.491 84.676 155.07 84.7926C151.201 86.6063 147.072 87.7995 142.832 88.3285C143.5 87.8847 144.055 87.2916 144.453 86.596C144.667 86.1509 144.811 85.6761 144.882 85.1877C145.245 83.1422 145.062 81.0373 144.352 79.0851C144.281 78.8959 144.214 78.6595 144.352 78.5008C144.41 78.4443 144.479 78.4006 144.555 78.3725C146.234 77.6597 148.048 77.3208 149.871 77.3796C150.337 77.3796 150.803 77.4032 151.27 77.437C151.52 77.4572 152.07 77.4032 152.283 77.5856C152.496 77.7679 152.401 78.4839 152.408 78.7777L152.425 80.1793Z" fill="#3D3C40" fill-opacity="0.72"/>
<path d="M155.417 84.3068C154.584 83.2413 153.419 82.4849 152.107 82.1581C150.794 81.8313 149.41 81.9528 148.175 82.5034C145.473 83.7901 144.156 86.8937 141.788 88.6904C141.249 89.0939 140.675 89.4477 140.072 89.7475C139.716 89.9433 139.337 90.0931 138.944 90.1933C138.501 90.2912 138.042 90.2777 137.593 90.3824C136.753 90.6291 136.038 91.184 135.59 91.9359C135.369 92.3296 135.123 92.7086 134.853 93.0707C134.607 93.3645 134.299 93.6043 134.039 93.8846C133.097 94.8977 132.84 96.35 132.628 97.7143C131.89 98.4897 131.085 99.1983 130.223 99.8318C129.952 100.04 129.651 100.207 129.331 100.325C128.503 100.595 127.588 100.254 126.882 99.7441C126.176 99.2341 125.602 98.562 124.906 98.0555C124.268 98.9673 123.599 99.8859 122.917 100.757C122.815 100.927 122.657 101.056 122.471 101.122C122.342 101.554 122.65 102 122.879 102.385L124.112 104.459C124.522 105.212 125.022 105.913 125.602 106.546C126.2 107.168 127.007 107.547 127.868 107.61C128.413 107.605 128.952 107.5 129.459 107.302C131.824 106.512 133.968 105.252 136.215 104.178C136.62 103.948 137.073 103.815 137.539 103.79C137.771 103.785 137.999 103.855 138.188 103.991C138.377 104.127 138.517 104.321 138.586 104.543C138.843 105.84 139.096 107.13 139.447 108.4C139.783 109.602 140.092 110.808 140.376 112.017C140.566 112.759 140.702 113.514 140.781 114.276C140.818 114.708 140.822 115.141 140.829 115.576L140.876 120.818C140.876 121.385 140.558 121.736 140.308 122.243C139.932 123.031 139.875 123.934 140.15 124.762C140.288 125.171 140.508 125.549 140.663 125.955C141.035 126.931 141.021 128.005 141.001 129.048L140.957 131.439C140.944 131.539 140.962 131.64 141.008 131.73C141.153 131.956 141.504 131.824 141.727 131.669L142.832 130.912C144.329 131.119 145.841 131.193 147.351 131.132C151.644 131.071 155.941 131.24 160.224 131.541C161.656 131.642 163.132 131.75 164.483 131.274C165.158 131.031 165.8 130.642 166.509 130.45C166.799 130.402 167.074 130.286 167.31 130.112C167.702 129.751 167.597 129.099 167.438 128.606C167.296 128.16 167.138 127.718 166.959 127.285C166.777 126.887 166.628 126.475 166.513 126.053C166.3 125.1 166.513 123.996 165.915 123.219C164.584 121.48 165.527 118.802 164.966 116.684C164.787 116.009 164.52 115.333 164.351 114.658C164.243 114.226 164.175 113.787 164.111 113.347C163.934 112.396 163.847 111.431 163.851 110.463C163.851 109.98 163.929 109.497 163.99 109.018L164.412 105.681C164.938 106.669 165.305 107.733 165.5 108.836C165.883 110.482 166.357 112.107 166.918 113.702C167.236 114.665 167.553 115.624 167.898 116.579C168.118 117.125 168.287 117.691 168.401 118.268C168.475 118.731 168.479 119.204 168.533 119.666C168.646 120.664 168.993 121.621 169.546 122.459C169.65 122.654 169.82 122.805 170.026 122.885C170.163 122.915 170.304 122.915 170.441 122.885C171.935 122.59 173.381 122.09 174.738 121.399C175.026 121.278 175.277 121.082 175.464 120.831C175.829 120.237 175.42 119.497 175.241 118.822C175.062 118.146 175.096 117.231 174.528 116.748C172.545 115.06 173.515 111.639 172.539 109.234C172.363 108.812 172.16 108.403 172.012 107.971C171.897 107.633 171.812 107.296 171.728 106.958C171.037 104.159 170.296 101.371 169.506 98.5924C168.688 95.715 168.776 92.7195 167.746 89.9096C167.552 89.3228 167.3 88.757 166.993 88.221C166.648 87.6605 166.187 87.1803 165.641 86.8127C164.145 85.8232 162.639 84.9822 160.879 84.6243C159.119 84.2663 157.207 84.2865 155.417 84.3068Z" fill="white"/>
<path d="M155.417 84.3068C154.584 83.2413 153.419 82.4849 152.107 82.1581C150.794 81.8313 149.41 81.9528 148.175 82.5034C145.473 83.7901 144.156 86.8937 141.788 88.6904C141.249 89.0939 140.675 89.4477 140.072 89.7475C139.716 89.9433 139.337 90.0931 138.944 90.1933C138.501 90.2912 138.042 90.2777 137.593 90.3824C136.753 90.6291 136.038 91.184 135.59 91.9359C135.369 92.3296 135.123 92.7086 134.853 93.0707C134.607 93.3645 134.299 93.6043 134.039 93.8846C133.097 94.8977 132.84 96.35 132.628 97.7143C131.89 98.4897 131.085 99.1983 130.223 99.8318C129.952 100.04 129.651 100.207 129.331 100.325C128.503 100.595 127.588 100.254 126.882 99.7441C126.176 99.2341 125.602 98.562 124.906 98.0555C124.268 98.9673 123.599 99.8859 122.917 100.757C122.815 100.927 122.657 101.056 122.471 101.122C122.342 101.554 122.65 102 122.879 102.385L124.112 104.459C124.522 105.212 125.022 105.913 125.602 106.546C126.2 107.168 127.007 107.547 127.868 107.61C128.413 107.605 128.952 107.5 129.459 107.302C131.824 106.512 133.968 105.252 136.215 104.178C136.62 103.948 137.073 103.815 137.539 103.79C137.771 103.785 137.999 103.855 138.188 103.991C138.377 104.127 138.517 104.321 138.586 104.543C138.843 105.84 139.096 107.13 139.447 108.4C139.783 109.602 140.092 110.808 140.376 112.017C140.566 112.759 140.702 113.514 140.781 114.276C140.818 114.708 140.822 115.141 140.829 115.576L140.876 120.818C140.876 121.385 140.558 121.736 140.308 122.243C139.932 123.031 139.875 123.934 140.15 124.762C140.288 125.171 140.508 125.549 140.663 125.955C141.035 126.931 141.021 128.005 141.001 129.048L140.957 131.439C140.944 131.539 140.962 131.64 141.008 131.73C141.153 131.956 141.504 131.824 141.727 131.669L142.832 130.912C144.329 131.119 145.841 131.193 147.351 131.132C151.644 131.071 155.941 131.24 160.224 131.541C161.656 131.642 163.132 131.75 164.483 131.274C165.158 131.031 165.8 130.642 166.509 130.45C166.799 130.402 167.074 130.286 167.31 130.112C167.702 129.751 167.597 129.099 167.438 128.606C167.296 128.16 167.138 127.718 166.959 127.285C166.777 126.887 166.628 126.475 166.513 126.053C166.3 125.1 166.513 123.996 165.915 123.219C164.584 121.48 165.527 118.802 164.966 116.684C164.787 116.009 164.52 115.333 164.351 114.658C164.243 114.226 164.175 113.787 164.111 113.347C163.934 112.396 163.847 111.431 163.851 110.463C163.851 109.98 163.929 109.497 163.99 109.018L164.412 105.681C164.938 106.669 165.305 107.733 165.5 108.836C165.883 110.482 166.357 112.107 166.918 113.702C167.236 114.665 167.553 115.624 167.898 116.579C168.118 117.125 168.287 117.691 168.401 118.268C168.475 118.731 168.479 119.204 168.533 119.666C168.646 120.664 168.993 121.621 169.546 122.459C169.65 122.654 169.82 122.805 170.026 122.885C170.163 122.915 170.304 122.915 170.441 122.885C171.935 122.59 173.381 122.09 174.738 121.399C175.026 121.278 175.277 121.082 175.464 120.831C175.829 120.237 175.42 119.497 175.241 118.822C175.062 118.146 175.096 117.231 174.528 116.748C172.545 115.06 173.515 111.639 172.539 109.234C172.363 108.812 172.16 108.403 172.012 107.971C171.897 107.633 171.812 107.296 171.728 106.958C171.037 104.159 170.296 101.371 169.506 98.5924C168.688 95.715 168.776 92.7195 167.746 89.9096C167.552 89.3228 167.3 88.757 166.993 88.221C166.648 87.6605 166.187 87.1803 165.641 86.8127C164.145 85.8232 162.639 84.9822 160.879 84.6243C159.119 84.2663 157.207 84.2865 155.417 84.3068Z" fill="#3D3C40" fill-opacity="0.64"/>
<path d="M142.214 77.4701C141.454 77.0615 141.653 75.947 141.538 75.1061C141.271 73.3465 139.289 72.3064 138.836 70.5907C139.371 70.6573 139.914 70.5804 140.41 70.3678C140.505 69.7982 140.392 69.2134 140.092 68.7198C141.724 68.0443 143.048 66.7576 144.703 66.1598C146.79 65.4067 149.094 65.8694 151.215 66.5685C152.266 66.9062 153.357 67.3689 153.992 68.274C154.688 69.2702 154.667 70.5772 154.64 71.793C154.583 73.6978 154.505 75.6701 153.657 77.3756C152.58 79.5471 149.523 81.5566 146.997 80.9689C145.949 80.7258 145.645 80.0638 145.196 79.152C144.919 78.5846 144.818 77.926 144.183 77.6288C143.548 77.3316 142.832 77.8011 142.214 77.4701Z" fill="#3D3C40"/>
<g opacity="0.1">
<path opacity="0.1" d="M140.383 69.5369C140.332 69.244 140.227 68.9633 140.072 68.7095C140.167 68.6712 140.261 68.6307 140.356 68.5879C140.429 68.8991 140.438 69.222 140.383 69.5369Z" fill="#3D3C40"/>
<path opacity="0.1" d="M141.524 74.2714C141.653 75.1258 141.454 76.2369 142.2 76.6354C142.815 76.9731 143.551 76.497 144.156 76.7874C144.76 77.0778 144.879 77.7432 145.169 78.3105C145.611 79.2224 145.922 79.8809 146.969 80.1275C149.496 80.7151 152.553 78.7023 153.63 76.5307C154.478 74.8252 154.556 72.853 154.613 70.9482C154.613 70.8536 154.613 70.7625 154.613 70.6679C154.613 71.036 154.613 71.4075 154.613 71.7722C154.556 73.677 154.478 75.6493 153.63 77.3548C152.553 79.5263 149.496 81.5358 146.969 80.9481C145.922 80.705 145.618 80.043 145.169 79.1312C144.892 78.5638 144.791 77.9053 144.156 77.6081C143.521 77.3109 142.805 77.7904 142.2 77.4595C141.44 77.0508 141.639 75.9363 141.524 75.0954C141.258 73.3359 139.275 72.2957 138.822 70.5801C138.944 70.5965 139.067 70.6044 139.19 70.6037C139.917 71.8567 141.305 72.8226 141.524 74.2714Z" fill="#3D3C40"/>
</g>
</svg>
