<svg width="61" height="60" viewBox="0 0 61 60" fill="none" xmlns="http://www.w3.org/2000/svg">
<path d="M59.9457 24L56.8235 20.9231L36.5294 0.861538C35.9466 0.287179 35.2181 0 34.3439 0C33.4697 0 32.7412 0.307692 32.1584 0.923076C31.5339 1.53846 31.2217 2.27692 31.2217 3.13846C31.2217 3.95897 31.5339 4.67692 32.1584 5.29231L33.095 6.15384L19.2326 19.6923C13.7792 19.0769 8.57557 19.7538 3.62172 21.7231C3.12217 21.8872 2.68507 22.1744 2.31041 22.5846C1.97738 22.9949 1.74842 23.4667 1.62353 24C1.54027 24.4923 1.56109 24.9846 1.68597 25.4769C1.85249 25.9692 2.12308 26.4 2.49774 26.7692L15.7982 39.8769L3.12217 52.3077L0 60L7.80543 56.9231L20.4815 44.4923L33.7195 57.5385C34.0941 57.9077 34.5312 58.1538 35.0308 58.2769C35.5719 58.441 36.0923 58.4615 36.5919 58.3385C37.133 58.2564 37.591 58.0308 37.9656 57.6615C38.3819 57.3333 38.6733 56.9026 38.8398 56.3692C40.9213 51.3641 41.6082 46.2359 40.9005 40.9846L54.638 27.4462L55.5122 28.3692C56.1367 28.9846 56.886 29.2923 57.7602 29.2923C58.6344 29.2923 59.3629 28.9846 59.9457 28.3692C60.5701 27.7538 60.8824 27.0359 60.8824 26.2154C60.8824 25.3538 60.5701 24.6154 59.9457 24ZM35.1557 37.7846C34.7394 38.1949 34.4688 38.6872 34.3439 39.2615C34.219 39.7949 34.2398 40.3282 34.4063 40.8615C35.1557 43.7333 35.1557 46.6256 34.4063 49.5385L10.6154 26.0923C13.571 25.3538 16.5059 25.3538 19.4199 26.0923C19.9611 26.2564 20.5023 26.2769 21.0434 26.1538C21.6262 25.9897 22.1258 25.7026 22.5421 25.2923L37.4661 10.5231L50.1421 23.0154L35.1557 37.7846Z" fill="#166DE0"/>
</svg>
