<svg width="57" height="57" viewBox="0 0 57 57" fill="none" xmlns="http://www.w3.org/2000/svg">
<path d="M55.304 51.424L43.272 39.392C44.8507 37.344 46.0667 35.104 46.92 32.672C47.7733 30.112 48.2 27.488 48.2 24.8C48.2 20.448 47.112 16.416 44.936 12.704C42.8027 9.07733 39.9227 6.19733 36.296 4.064C32.584 1.888 28.552 0.799999 24.2 0.799999C19.848 0.799999 15.816 1.888 12.104 4.064C8.47733 6.19733 5.59733 9.07733 3.464 12.704C1.288 16.416 0.2 20.448 0.2 24.8C0.2 29.152 1.288 33.184 3.464 36.896C5.59733 40.5227 8.47733 43.4027 12.104 45.536C15.816 47.712 19.848 48.8 24.2 48.8C26.888 48.8 29.4907 48.352 32.008 47.456C34.44 46.6453 36.68 45.4507 38.728 43.872L50.824 55.904C51.4213 56.5013 52.168 56.8 53.064 56.8C53.96 56.8 54.7067 56.48 55.304 55.84C55.9013 55.2427 56.2 54.5173 56.2 53.664C56.2 52.8107 55.9013 52.064 55.304 51.424ZM6.6 24.8C6.6 21.6 7.38933 18.656 8.968 15.968C10.5467 13.28 12.68 11.1467 15.368 9.568C18.056 7.98933 21 7.2 24.2 7.2C27.4 7.2 30.344 7.98933 33.032 9.568C35.72 11.1467 37.8533 13.28 39.432 15.968C41.0107 18.656 41.8 21.6 41.8 24.8C41.8 28 41.0107 30.944 39.432 33.632C37.8533 36.32 35.72 38.4533 33.032 40.032C30.344 41.6107 27.4 42.4 24.2 42.4C21 42.4 18.056 41.6107 15.368 40.032C12.68 38.4533 10.5467 36.32 8.968 33.632C7.38933 30.944 6.6 28 6.6 24.8Z" fill="#166DE0"/>
</svg>
