<svg width="234" height="143" viewBox="0 0 234 143" fill="none" xmlns="http://www.w3.org/2000/svg">
<g clip-path="url(#clip0)">
<path opacity="0.1" d="M141.431 48.2253C140.165 47.9857 138.857 48.1282 137.672 48.6347C136.958 48.9508 136.185 49.1124 135.403 49.109C134.622 49.1055 133.85 48.937 133.138 48.6146C132.299 48.2474 131.389 48.0665 130.473 48.0843C129.557 48.1021 128.655 48.3181 127.831 48.7175C127.36 48.967 126.835 49.0983 126.302 49.1C124.15 49.1 122.359 46.9368 121.987 44.0824C122.417 43.7684 122.782 43.375 123.063 42.9236C124.325 40.8947 126.28 39.5928 128.474 39.5928C130.668 39.5928 132.598 40.879 133.853 42.8879C134.231 43.4954 134.76 43.9952 135.388 44.3386C136.016 44.682 136.723 44.8573 137.439 44.8475H137.495C139.215 44.8564 140.698 46.2277 141.431 48.2253Z" fill="#166DE0"/>
<path opacity="0.1" d="M199.631 69.6405C197.965 69.328 196.243 69.5139 194.684 70.1742C193.743 70.5864 192.725 70.7971 191.697 70.7926C190.668 70.7881 189.652 70.5684 188.715 70.148C187.61 69.6694 186.413 69.4335 185.207 69.4566C184.001 69.4798 182.814 69.7615 181.729 70.2821C181.109 70.6075 180.419 70.7787 179.717 70.7809C176.885 70.7809 174.527 67.9606 174.038 64.2391C174.603 63.8297 175.084 63.3169 175.454 62.7284C177.115 60.0831 179.687 58.3857 182.576 58.3857C185.464 58.3857 188.004 60.0627 189.656 62.6817C190.154 63.4739 190.849 64.1255 191.677 64.5731C192.504 65.0208 193.434 65.2494 194.377 65.2366H194.451C196.714 65.2483 198.667 67.0361 199.631 69.6405Z" fill="#166DE0"/>
<path opacity="0.1" d="M147.976 39.2654L144.498 41.4689L146.609 37.6347C146.01 37.1589 145.27 36.8952 144.504 36.8853H144.448C144.207 36.8895 143.965 36.8723 143.727 36.8338L142.552 37.5787L143.059 36.6616C142.223 36.3703 141.501 35.8221 140.997 35.0957L138.885 36.4379L140.23 34.0197C138.995 32.541 137.332 31.6328 135.503 31.6328C133.309 31.6328 131.354 32.937 130.092 34.9659C129.719 35.5751 129.19 36.0744 128.56 36.4124C127.93 36.7505 127.221 36.9152 126.506 36.8897H126.387C123.964 36.8897 122.001 39.6323 122.001 43.0124C122.001 46.3925 123.964 49.135 126.387 49.135C126.92 49.1333 127.445 49.0028 127.916 48.7547C128.74 48.3544 129.642 48.1377 130.558 48.1195C131.475 48.1014 132.384 48.2822 133.224 48.6496C133.933 48.9677 134.702 49.1331 135.479 49.135C136.257 49.137 137.027 48.9754 137.738 48.6608C138.571 48.3005 139.472 48.123 140.38 48.1403C141.288 48.1577 142.182 48.3695 143 48.7614C143.467 49.005 143.985 49.1331 144.511 49.135C146.934 49.135 148.898 46.3947 148.898 43.0124C148.911 41.706 148.594 40.4173 147.976 39.2654Z" fill="#166DE0"/>
<path opacity="0.1" d="M208.641 57.6231L204.007 60.5632L206.82 55.4471C206.022 54.8122 205.036 54.4604 204.016 54.4471H203.941C203.619 54.4528 203.298 54.4298 202.98 54.3785L201.415 55.3724L202.09 54.1486C200.976 53.76 200.015 53.0285 199.343 52.0592L196.53 53.8501L198.322 50.6234C196.677 48.6504 194.461 47.4385 192.025 47.4385C189.101 47.4385 186.498 49.1787 184.817 51.886C184.32 52.6989 183.615 53.3651 182.776 53.8162C181.936 54.2673 180.992 54.4871 180.039 54.4531H179.881C176.653 54.4531 174.038 58.1126 174.038 62.6228C174.038 67.1331 176.653 70.7926 179.881 70.7926C180.591 70.7903 181.29 70.6162 181.917 70.2852C183.015 69.751 184.216 69.4618 185.437 69.4376C186.658 69.4134 187.87 69.6547 188.988 70.1449C189.933 70.5694 190.957 70.7901 191.993 70.7926C193.029 70.7952 194.054 70.5796 195.002 70.1598C196.112 69.679 197.312 69.4422 198.522 69.4654C199.731 69.4885 200.922 69.7712 202.012 70.2941C202.634 70.6191 203.324 70.7901 204.025 70.7926C207.253 70.7926 209.868 67.1361 209.868 62.6228C209.886 60.8797 209.464 59.1601 208.641 57.6231Z" fill="#166DE0"/>
<path d="M116.238 32.452C116.211 32.2479 116.149 32.0502 116.052 31.8682C115.976 31.7596 115.884 31.6631 115.779 31.5818C115.61 31.4247 115.412 31.3017 115.196 31.2194C115.086 31.1767 114.968 31.1613 114.85 31.1745C114.733 31.1878 114.621 31.2293 114.524 31.2955C114.35 31.4512 114.245 31.6692 114.232 31.9017C114.185 32.2171 114.24 32.5392 114.389 32.8211C114.568 33.1321 114.878 33.3401 115.136 33.5884C115.325 33.7677 115.489 33.9716 115.624 34.1946C115.686 34.3111 115.761 34.4199 115.848 34.519C115.892 34.568 115.947 34.6061 116.008 34.6302C116.069 34.6543 116.135 34.6637 116.2 34.6577C116.31 34.6295 116.409 34.5714 116.487 34.4899C116.592 34.3982 116.879 34.2304 116.888 34.0828C116.897 33.9352 116.664 33.6936 116.617 33.5817C116.451 33.2195 116.324 32.8408 116.238 32.452Z" fill="#06D6A0"/>
<path d="M117 142.863C181.617 142.863 234 140.56 234 137.718C234 134.877 181.617 132.573 117 132.573C52.3827 132.573 0 134.877 0 137.718C0 140.56 52.3827 142.863 117 142.863Z" fill="#3D3C40" fill-opacity="0.16"/>
<path d="M112.612 139.395C126.747 139.395 138.206 138.578 138.206 137.571C138.206 136.563 126.747 135.746 112.612 135.746C98.4773 135.746 87.0186 136.563 87.0186 137.571C87.0186 138.578 98.4773 139.395 112.612 139.395Z" fill="#3D3C40" fill-opacity="0.16"/>
<path d="M114.273 137.508C113.479 137.662 112.661 137.628 111.884 137.408C111.106 137.189 110.391 136.79 109.797 136.244C109.202 135.698 108.744 135.02 108.461 134.265C108.177 133.51 108.075 132.699 108.163 131.898C108.75 126.717 110.577 118.37 115.573 105.841C121.364 91.314 119.275 87.8042 113.069 77.3865C111.065 74.0199 108.792 70.2058 106.345 65.3068C100.033 52.7215 102.431 43.0219 105.547 37.1185C108.86 30.8348 113.598 27.5442 114.127 27.1885L119.018 35.264L118.569 35.7114C118.558 35.7114 118.793 35.7114 119.134 36.3311C117.22 37.9866 115.647 39.9977 114.501 42.2524C111.789 47.6726 112.148 53.8847 115.566 60.7008C117.854 65.2688 120.024 68.9128 121.938 72.1274C125.376 77.8988 128.091 82.4578 128.989 88.2136C129.92 94.1707 128.765 100.58 125.159 109.644C120.405 121.565 118.883 129.025 118.419 133.029C118.294 134.117 117.826 135.137 117.082 135.942C116.337 136.746 115.356 137.293 114.279 137.503L114.273 137.508Z" fill="#3D3C40" fill-opacity="0.16"/>
<path d="M91.6729 20.7033L112.417 0L133.363 20.7033H119.128V36.5345H105.908V20.804L91.6729 20.7033Z" fill="#166DE0"/>
<path d="M157.95 137.206C165.219 137.206 171.112 136.716 171.112 136.111C171.112 135.507 165.219 135.017 157.95 135.017C150.68 135.017 144.787 135.507 144.787 136.111C144.787 136.716 150.68 137.206 157.95 137.206Z" fill="#3D3C40" fill-opacity="0.16"/>
<path d="M158.71 136.383C158.296 136.464 157.868 136.446 157.462 136.332C157.057 136.217 156.683 136.009 156.373 135.724C156.062 135.439 155.823 135.085 155.675 134.691C155.527 134.297 155.474 133.873 155.52 133.455C155.825 130.75 156.78 126.393 159.389 119.852C162.412 112.266 161.321 110.434 158.082 104.994C157.035 103.238 155.841 101.245 154.565 98.6854C151.275 92.1154 152.526 87.0531 154.153 83.9705C155.225 81.9194 156.76 80.1444 158.636 78.7852L161.189 83.0019L160.951 83.2256C160.951 83.2256 161.072 83.2256 161.247 83.5499C160.247 84.4139 159.424 85.464 158.826 86.6415C157.412 89.4713 157.6 92.7127 159.384 96.2739C160.579 98.6586 161.711 100.562 162.711 102.24C164.504 105.253 165.922 107.633 166.393 110.64C166.877 113.749 166.279 117.096 164.392 121.825C161.91 128.048 161.115 131.943 160.873 134.034C160.809 134.603 160.565 135.136 160.176 135.557C159.788 135.977 159.275 136.263 158.712 136.372L158.71 136.383Z" fill="#3D3C40" fill-opacity="0.16"/>
<path d="M146.909 75.3961L157.74 64.5869L168.677 75.3961H161.245V83.6618H154.342V75.4497L146.909 75.3961Z" fill="#166DE0"/>
<path d="M67.2748 136.476C74.5443 136.476 80.4373 135.985 80.4373 135.381C80.4373 134.776 74.5443 134.286 67.2748 134.286C60.0054 134.286 54.1123 134.776 54.1123 135.381C54.1123 135.985 60.0054 136.476 67.2748 136.476Z" fill="#3D3C40" fill-opacity="0.16"/>
<path d="M66.325 136.383C66.7391 136.464 67.1663 136.446 67.5722 136.332C67.9782 136.217 68.3515 136.009 68.6619 135.724C68.9724 135.439 69.2113 135.085 69.3595 134.691C69.5076 134.297 69.5607 133.873 69.5145 133.455C69.2097 130.75 68.2549 126.393 65.6459 119.852C62.6223 112.266 63.7138 110.434 66.9526 104.994C67.9994 103.238 69.194 101.245 70.4694 98.6854C73.7597 92.1154 72.509 87.0531 70.8818 83.9705C69.8093 81.9194 68.2749 80.1444 66.399 78.7852L63.8461 83.0019L64.0837 83.2256C64.0837 83.2256 63.9626 83.2256 63.7878 83.5499C64.788 84.4139 65.6102 85.464 66.2085 86.6415C67.6228 89.4713 67.4345 92.7127 65.6504 96.2739C64.4557 98.6586 63.3238 100.562 62.3242 102.24C60.5311 105.253 59.1123 107.633 58.6416 110.64C58.1575 113.749 58.7559 117.096 60.6431 121.825C63.1244 128.048 63.92 131.943 64.1621 134.034C64.2257 134.603 64.4696 135.136 64.8582 135.557C65.2469 135.977 65.7601 136.263 66.3228 136.372L66.325 136.383Z" fill="#3D3C40" fill-opacity="0.16"/>
<path d="M78.1257 75.3961L67.2954 64.5869L56.3574 75.3961H63.7898V83.6618H70.6933V75.4497L78.1257 75.3961Z" fill="#166DE0"/>
<path d="M197.51 136.018H187.989C187.465 136.018 186.963 135.81 186.593 135.441C186.222 135.071 186.014 134.57 186.014 134.047C186.014 133.524 186.222 133.023 186.593 132.653C186.963 132.284 187.465 132.076 187.989 132.076C187.724 132.085 187.46 132.041 187.213 131.946C186.966 131.851 186.74 131.707 186.55 131.523C186.359 131.34 186.208 131.119 186.105 130.876C186.001 130.633 185.948 130.371 185.948 130.107C185.948 129.842 186.001 129.58 186.105 129.337C186.208 129.094 186.359 128.873 186.55 128.69C186.74 128.506 186.966 128.362 187.213 128.267C187.46 128.172 187.724 128.128 187.989 128.137H188.424C188.673 126.441 190.589 125.121 192.92 125.119C195.251 125.117 197.179 126.434 197.423 128.128H197.51C197.775 128.119 198.039 128.163 198.286 128.258C198.533 128.353 198.759 128.497 198.949 128.681C199.14 128.865 199.291 129.085 199.395 129.328C199.498 129.571 199.552 129.833 199.552 130.098C199.552 130.362 199.498 130.624 199.395 130.867C199.291 131.11 199.14 131.331 198.949 131.514C198.759 131.698 198.533 131.842 198.286 131.937C198.039 132.032 197.775 132.076 197.51 132.067C198.034 132.067 198.536 132.275 198.907 132.644C199.277 133.014 199.485 133.515 199.485 134.038C199.485 134.561 199.277 135.062 198.907 135.432C198.536 135.801 198.034 136.009 197.51 136.009V136.018Z" fill="#06D6A0"/>
<path opacity="0.1" d="M199.483 130.105C199.482 130.628 199.274 131.128 198.905 131.498C198.535 131.867 198.034 132.075 197.51 132.076H187.991L197.45 128.128H197.508C198.033 128.129 198.535 128.338 198.905 128.709C199.276 129.08 199.483 129.582 199.483 130.105Z" fill="#3D3C40" fill-opacity="0.48"/>
<path opacity="0.1" d="M186.073 134.067C186.075 134.589 186.283 135.089 186.653 135.458C187.023 135.827 187.524 136.035 188.047 136.036H197.569L188.103 132.105H188.052C187.529 132.106 187.028 132.313 186.658 132.68C186.287 133.047 186.077 133.546 186.073 134.067Z" fill="#3D3C40" fill-opacity="0.48"/>
<path d="M139.638 133.665H134.234C133.937 133.665 133.652 133.547 133.442 133.337C133.231 133.127 133.113 132.843 133.113 132.546C133.113 132.25 133.231 131.965 133.442 131.755C133.652 131.546 133.937 131.428 134.234 131.428C133.937 131.428 133.652 131.31 133.442 131.1C133.231 130.89 133.113 130.606 133.113 130.309C133.113 130.013 133.231 129.728 133.442 129.518C133.652 129.309 133.937 129.191 134.234 129.191H134.483C134.622 128.229 135.711 127.479 137.033 127.479C138.356 127.479 139.445 128.224 139.589 129.186H139.638C139.935 129.186 140.22 129.304 140.43 129.514C140.641 129.724 140.759 130.008 140.759 130.305C140.759 130.601 140.641 130.886 140.43 131.096C140.22 131.305 139.935 131.423 139.638 131.423C139.935 131.423 140.22 131.541 140.43 131.751C140.641 131.961 140.759 132.245 140.759 132.542C140.759 132.838 140.641 133.123 140.43 133.333C140.22 133.542 139.935 133.66 139.638 133.66V133.665Z" fill="#06D6A0"/>
<path opacity="0.1" d="M140.759 130.309C140.759 130.606 140.641 130.89 140.431 131.1C140.221 131.31 139.936 131.427 139.638 131.427H134.234L139.614 129.19H139.638C139.936 129.19 140.221 129.308 140.431 129.518C140.641 129.728 140.759 130.012 140.759 130.309Z" fill="#3D3C40" fill-opacity="0.48"/>
<path opacity="0.1" d="M133.149 132.553C133.149 132.85 133.267 133.134 133.478 133.344C133.688 133.554 133.973 133.672 134.27 133.672H139.672L134.293 131.435H134.259C133.964 131.438 133.681 131.557 133.474 131.766C133.266 131.976 133.149 132.258 133.149 132.553Z" fill="#3D3C40" fill-opacity="0.48"/>
<path d="M38.4287 140.011H26.9977C26.6806 140.021 26.3647 139.967 26.0689 139.853C25.7731 139.739 25.5033 139.566 25.2755 139.346C25.0478 139.125 24.8667 138.861 24.743 138.57C24.6194 138.278 24.5557 137.965 24.5557 137.648C24.5557 137.331 24.6194 137.018 24.743 136.726C24.8667 136.435 25.0478 136.171 25.2755 135.951C25.5033 135.73 25.7731 135.558 26.0689 135.443C26.3647 135.329 26.6806 135.275 26.9977 135.285C26.6806 135.294 26.3647 135.241 26.0689 135.126C25.7731 135.012 25.5033 134.839 25.2755 134.619C25.0478 134.398 24.8667 134.135 24.743 133.843C24.6194 133.551 24.5557 133.238 24.5557 132.921C24.5557 132.605 24.6194 132.291 24.743 132C24.8667 131.708 25.0478 131.444 25.2755 131.224C25.5033 131.003 25.7731 130.831 26.0689 130.717C26.3647 130.602 26.6806 130.548 26.9977 130.558H27.5177C27.8158 128.525 30.1177 126.941 32.9127 126.938C35.7077 126.936 38.0118 128.516 38.3144 130.547H38.4175C39.0329 130.566 39.6168 130.823 40.0454 131.264C40.4741 131.705 40.7138 132.296 40.7138 132.91C40.7138 133.525 40.4741 134.115 40.0454 134.556C39.6168 134.997 39.0329 135.255 38.4175 135.274C39.0329 135.292 39.6168 135.55 40.0454 135.991C40.4741 136.432 40.7138 137.022 40.7138 137.637C40.7138 138.251 40.4741 138.842 40.0454 139.283C39.6168 139.724 39.0329 139.981 38.4175 140L38.4287 140.011Z" fill="#06D6A0"/>
<path opacity="0.1" d="M40.7928 132.919C40.7916 133.545 40.5422 134.145 40.0991 134.588C39.6561 135.031 39.0553 135.281 38.4281 135.284H26.9971L38.3429 130.546H38.4124C38.7249 130.546 39.0344 130.607 39.3232 130.726C39.6119 130.845 39.8744 131.02 40.0954 131.24C40.3165 131.461 40.4919 131.722 40.6115 132.011C40.7312 132.299 40.7928 132.607 40.7928 132.919Z" fill="#3D3C40" fill-opacity="0.48"/>
<path opacity="0.1" d="M24.7041 137.662C24.7071 138.288 24.9581 138.888 25.4023 139.33C25.8466 139.772 26.4481 140.021 27.0755 140.022H38.5065L27.1494 135.307H27.08C26.4527 135.307 25.8511 135.555 25.4061 135.996C24.9612 136.437 24.7088 137.036 24.7041 137.662Z" fill="#3D3C40" fill-opacity="0.48"/>
<path opacity="0.1" d="M61.8623 34.2392C60.9729 34.0689 60.0529 34.167 59.2197 34.5211C58.7226 34.743 58.1841 34.8576 57.6395 34.8576C57.095 34.8576 56.5565 34.743 56.0594 34.5211C55.4716 34.2642 54.835 34.1375 54.1934 34.1499C53.5518 34.1622 52.9206 34.3133 52.3432 34.5927C52.0138 34.7671 51.6469 34.8592 51.274 34.8611C49.7678 34.8611 48.5149 33.3467 48.2549 31.3468C48.5557 31.1276 48.8114 30.8527 49.008 30.537C49.8911 29.1165 51.2494 28.2061 52.7937 28.2061C54.338 28.2061 55.6828 29.1009 56.5659 30.5124C56.83 30.9359 57.1988 31.2844 57.6369 31.5246C58.0749 31.7647 58.5675 31.8884 59.0673 31.8837H59.1076C60.3068 31.8814 61.3445 32.8411 61.8623 34.2392Z" fill="#166DE0"/>
<path opacity="0.1" d="M66.4389 27.9692L64.0048 29.5105L65.4818 26.8261C65.0637 26.4914 64.5452 26.3063 64.0092 26.3004H63.9711C63.8023 26.3043 63.6334 26.2923 63.4668 26.2646L62.6398 26.7858L62.9939 26.1438C62.4094 25.9398 61.9043 25.557 61.5504 25.0499L60.0689 25.9872L61.0013 24.2938C60.1384 23.2603 58.9729 22.625 57.693 22.625C56.1577 22.625 54.7792 23.5355 53.9051 24.9559C53.643 25.3798 53.2736 25.727 52.834 25.9627C52.3944 26.1984 51.9002 26.3141 51.4015 26.2981H51.3275C49.633 26.2981 48.2568 28.2175 48.2568 30.5842C48.2568 32.9509 49.633 34.8703 51.3275 34.8703C51.7005 34.8695 52.0677 34.7773 52.3967 34.6018C52.9741 34.3225 53.6053 34.1714 54.2469 34.1591C54.8885 34.1467 55.5251 34.2733 56.1129 34.5303C56.613 34.7531 57.1543 34.8689 57.702 34.8703C58.2426 34.8696 58.777 34.7561 59.271 34.537C59.8541 34.2849 60.4847 34.1609 61.1201 34.1732C61.7554 34.1856 62.3807 34.334 62.9535 34.6086C63.28 34.7793 63.6429 34.8691 64.0115 34.8703C65.7082 34.8703 67.0822 32.9509 67.0822 30.5842C67.0904 29.6725 66.8692 28.7734 66.4389 27.9692Z" fill="#166DE0"/>
<path opacity="0.1" d="M29.7256 58.8466C30.6113 58.6786 31.5271 58.7767 32.357 59.1285C32.8537 59.3505 33.3918 59.4652 33.936 59.4652C34.4803 59.4652 35.0184 59.3505 35.5151 59.1285C36.1029 58.8716 36.7395 58.7449 37.381 58.7573C38.0226 58.7697 38.6539 58.9207 39.2313 59.2001C39.5608 59.3743 39.9276 59.4663 40.3004 59.4685C41.8066 59.4685 43.0618 57.9541 43.3218 55.9542C43.0204 55.7357 42.7646 55.4606 42.5687 55.1444C41.6856 53.7239 40.3161 52.8135 38.7808 52.8135C37.2454 52.8135 35.8939 53.7083 35.0108 55.1198C34.7456 55.5442 34.3753 55.8931 33.9355 56.133C33.4958 56.3728 33.0015 56.4954 32.5004 56.4889H32.4623C31.2699 56.4889 30.2299 57.4485 29.7256 58.8466Z" fill="#166DE0"/>
<path opacity="0.1" d="M25.1344 52.5759L27.5686 54.1172L26.0893 51.4328C26.5076 51.0984 27.026 50.9134 27.5619 50.9071H27.6022C27.7711 50.911 27.9399 50.899 28.1065 50.8713L28.9313 51.3925L28.5772 50.7505C29.1623 50.5467 29.6682 50.1639 30.0229 49.6566L31.5 50.5917L30.5653 48.8983C31.4305 47.8648 32.5937 47.2295 33.8758 47.2295C35.4112 47.2295 36.7784 48.1399 37.6637 49.5604C37.9256 49.9844 38.2951 50.3318 38.7347 50.5675C39.1744 50.8032 39.6686 50.9188 40.1674 50.9026H40.2481C41.9448 50.9026 43.3187 52.822 43.3187 55.1887C43.3187 57.5554 41.9448 59.4748 40.2481 59.4748C39.8751 59.4734 39.5081 59.3813 39.1789 59.2063C38.6015 58.927 37.9703 58.7759 37.3287 58.7635C36.6871 58.7512 36.0505 58.8778 35.4627 59.1347C34.9634 59.3576 34.4228 59.4734 33.8758 59.4748C33.3352 59.4746 32.8007 59.361 32.3069 59.1415C31.7233 58.8894 31.0924 58.7653 30.4566 58.7777C29.8209 58.79 29.1953 58.9385 28.622 59.213C28.2956 59.3841 27.9327 59.4738 27.5641 59.4748C25.8696 59.4748 24.4934 57.5554 24.4934 55.1887C24.4849 54.278 24.7053 53.3796 25.1344 52.5759Z" fill="#166DE0"/>
</g>
<defs>
<clipPath id="clip0">
<rect width="234" height="142.863" fill="white"/>
</clipPath>
</defs>
</svg>
