<svg width="1366" height="409" viewBox="0 0 1366 409" fill="none" xmlns="http://www.w3.org/2000/svg">
<g opacity="0.5">
<path opacity="0.08" fill-rule="evenodd" clip-rule="evenodd" d="M-676.894 1549.65L1652 883.956L1424.96 302.45C1424.96 302.45 1380.64 345.877 1254.89 345.877C1151.41 345.877 992.815 316.491 758.34 209.32C680.414 173.702 608.621 158.546 542.133 158.546C165.438 158.546 -41.0984 645.016 -229.486 653.055C-451.126 662.513 -746.809 1343.88 -746.809 1343.88L-676.894 1549.65Z" fill="url(#paint0_linear)"/>
<path opacity="0.08" fill-rule="evenodd" clip-rule="evenodd" d="M-693.799 1465.85L1635.1 802.341L1408.06 222.746C1408.06 222.746 1363.73 266.031 1237.98 266.031C1134.51 266.031 975.911 236.741 741.435 129.922C663.509 94.4214 591.716 79.3148 525.229 79.3148C148.533 79.3148 -58.0032 564.187 -246.391 572.199C-468.031 581.626 -763.714 1260.75 -763.714 1260.75L-693.799 1465.85Z" fill="url(#paint1_linear)"/>
<path opacity="0.08" fill-rule="evenodd" clip-rule="evenodd" d="M-714.084 1391.19L1614.81 725.495L1387.77 143.989C1387.77 143.989 1343.45 187.416 1217.7 187.416C1114.22 187.416 955.625 158.029 721.15 50.8584C643.224 15.2407 571.43 0.0843506 504.943 0.0843506C128.247 0.0843506 -78.2888 486.555 -266.676 494.594C-488.316 504.052 -784 1185.42 -784 1185.42L-714.084 1391.19Z" fill="url(#paint2_linear)"/>
</g>
<defs>
<linearGradient id="paint0_linear" x1="452.595" y1="774.068" x2="452.595" y2="158.546" gradientUnits="userSpaceOnUse">
<stop stop-color="#0058CC" stop-opacity="0"/>
<stop offset="1" stop-color="#0058CC"/>
</linearGradient>
<linearGradient id="paint1_linear" x1="435.691" y1="692.814" x2="435.691" y2="79.3147" gradientUnits="userSpaceOnUse">
<stop stop-color="#0058CC" stop-opacity="0"/>
<stop offset="1" stop-color="#0058CC"/>
</linearGradient>
<linearGradient id="paint2_linear" x1="415.405" y1="615.606" x2="415.405" y2="0.0842038" gradientUnits="userSpaceOnUse">
<stop stop-color="#0058CC" stop-opacity="0"/>
<stop offset="1" stop-color="#0058CC"/>
</linearGradient>
</defs>
</svg>
