<svg width="320" height="215" viewBox="0 0 320 215" fill="none" xmlns="http://www.w3.org/2000/svg">
<g clip-path="url(#clip0)">
<path fill-rule="evenodd" clip-rule="evenodd" d="M238.056 92.0654L238.299 91.7366L238.076 91.5031L236.707 89.8753L225.831 76.958L225.713 76.8166L204.083 51.1202L202.773 49.5417L172.971 14.1245C171.153 11.9641 168.612 10.5437 165.826 10.1296C163.039 9.71554 160.198 10.3362 157.834 11.8752L117.864 37.9169L116.076 39.081L87.7387 57.5427L87.4276 57.7466L73.971 66.5104L72.196 67.668L72.4845 68.1903L71.3282 67.2305L65.4891 167.638C65.435 168.568 65.7121 169.486 66.2708 170.229C66.8294 170.972 67.6331 171.491 68.538 171.693L223.611 206.272C224.154 206.391 224.717 206.393 225.262 206.276C225.806 206.159 226.319 205.927 226.767 205.594C227.214 205.262 227.586 204.838 227.856 204.349C228.127 203.861 228.291 203.32 228.336 202.763L237.276 93.1125L238.056 92.0654Z" fill="white"/>
<path d="M48.8724 203.723C48.8724 203.723 44.6477 179.688 28.9676 167.777C22.3883 162.778 17.5742 155.981 15.4717 148.24C14.4823 144.572 13.8484 140.816 13.5789 137.026" stroke="#3D3C40" stroke-width="2" stroke-miterlimit="10"/>
<path d="M3.74759 129.462C5.05755 132.037 13.8113 137.249 13.8113 137.249C13.8113 137.249 14.9117 127.512 13.5919 124.934C12.2721 122.356 9.00707 121.28 6.28236 122.53C3.55765 123.78 2.42781 126.884 3.74759 129.462Z" fill="#145DBF"/>
<path d="M2.91259 147.48C5.49976 148.963 15.8288 148.832 15.8288 148.832C15.8288 148.832 11.1686 140.091 8.59125 138.608C6.01391 137.124 2.64405 137.907 1.07865 140.357C-0.486751 142.807 0.3287 145.997 2.91259 147.48Z" fill="#145DBF"/>
<path d="M15.7534 171.723C18.7728 171.766 27.6183 166.708 27.6183 166.708C27.6183 166.708 18.9431 161.394 15.9204 161.348C12.8977 161.301 10.412 163.59 10.3531 166.455C10.2942 169.319 12.7307 171.67 15.7534 171.723Z" fill="#145DBF"/>
<path d="M29.8223 187.978C32.7894 188.507 42.411 184.936 42.411 184.936C42.411 184.936 34.8067 178.3 31.8429 177.78C28.8791 177.261 26.0136 179.096 25.4569 181.924C24.9001 184.752 26.852 187.452 29.8223 187.978Z" fill="#145DBF"/>
<path d="M26.4198 144.576C25.3882 147.269 17.2501 153.307 17.2501 153.307C17.2501 153.307 15.0952 143.731 16.1268 141.038C17.1584 138.344 20.299 136.953 23.1383 137.93C25.9777 138.907 27.4514 141.886 26.4198 144.576Z" fill="#145DBF"/>
<path d="M42.6206 163.794C40.7866 166.073 31.1191 169.526 31.1191 169.526C31.1191 169.526 32.1016 159.776 33.9225 157.5C34.8422 156.396 36.143 155.681 37.5649 155.498C38.9868 155.315 40.425 155.678 41.5922 156.514C42.1589 156.906 42.6384 157.411 43.0005 157.999C43.3627 158.587 43.5995 159.243 43.6961 159.927C43.7928 160.612 43.7471 161.309 43.562 161.974C43.3768 162.64 43.0563 163.259 42.6206 163.794Z" fill="#145DBF"/>
<path d="M55.6611 184.522C54.2595 187.06 45.3485 192.013 45.3485 192.013C45.3485 192.013 44.5658 182.249 45.9674 179.711C47.3691 177.172 50.6735 176.192 53.3523 177.521C56.0312 178.849 57.0595 181.983 55.6611 184.522Z" fill="#145DBF"/>
<path opacity="0.25" d="M3.74759 129.462C5.05755 132.037 13.8113 137.249 13.8113 137.249C13.8113 137.249 14.9117 127.512 13.5919 124.934C12.2721 122.356 9.00707 121.28 6.28236 122.53C3.55765 123.78 2.42781 126.884 3.74759 129.462Z" fill="#3D3C40"/>
<path opacity="0.25" d="M2.91259 147.48C5.49976 148.963 15.8288 148.832 15.8288 148.832C15.8288 148.832 11.1686 140.091 8.59125 138.608C6.01391 137.124 2.64405 137.907 1.07865 140.357C-0.486751 142.807 0.3287 145.997 2.91259 147.48Z" fill="#3D3C40"/>
<path opacity="0.25" d="M15.7534 171.723C18.7728 171.766 27.6183 166.708 27.6183 166.708C27.6183 166.708 18.9431 161.394 15.9204 161.348C12.8977 161.301 10.412 163.59 10.3531 166.455C10.2942 169.319 12.7307 171.67 15.7534 171.723Z" fill="#3D3C40"/>
<path opacity="0.25" d="M29.8223 187.978C32.7894 188.507 42.411 184.936 42.411 184.936C42.411 184.936 34.8067 178.3 31.8429 177.78C28.8791 177.261 26.0136 179.096 25.4569 181.924C24.9001 184.752 26.852 187.452 29.8223 187.978Z" fill="#3D3C40"/>
<path opacity="0.25" d="M26.4198 144.576C25.3882 147.269 17.2501 153.307 17.2501 153.307C17.2501 153.307 15.0952 143.731 16.1268 141.038C17.1584 138.344 20.299 136.953 23.1383 137.93C25.9777 138.907 27.4514 141.886 26.4198 144.576Z" fill="#3D3C40"/>
<path opacity="0.25" d="M42.6206 163.794C40.7866 166.073 31.1191 169.526 31.1191 169.526C31.1191 169.526 32.1016 159.776 33.9225 157.5C34.8422 156.396 36.143 155.681 37.5649 155.498C38.9868 155.315 40.425 155.678 41.5922 156.514C42.1589 156.906 42.6384 157.411 43.0005 157.999C43.3627 158.587 43.5995 159.243 43.6961 159.927C43.7928 160.612 43.7471 161.309 43.562 161.974C43.3768 162.64 43.0563 163.259 42.6206 163.794Z" fill="#3D3C40"/>
<path opacity="0.25" d="M55.6611 184.522C54.2595 187.06 45.3485 192.013 45.3485 192.013C45.3485 192.013 44.5658 182.249 45.9674 179.711C47.3691 177.172 50.6735 176.192 53.3523 177.521C56.0312 178.849 57.0595 181.983 55.6611 184.522Z" fill="#3D3C40"/>
<path d="M48.3419 203.092C48.3419 203.092 54.7509 179.494 45.5091 162.577C41.6317 155.481 40.135 147.417 41.5236 139.532C42.1902 135.782 43.2156 132.106 44.5856 128.555" stroke="#3D3C40" stroke-width="2" stroke-miterlimit="10"/>
<path d="M38.8283 117.864C38.9331 120.725 44.7001 128.851 44.7001 128.851C44.7001 128.851 49.8679 120.37 49.7631 117.505C49.6583 114.641 47.1268 112.401 44.1074 112.5C41.0879 112.599 38.7202 114.999 38.8283 117.864Z" fill="#06D6A0"/>
<path d="M30.3659 134.017C32.095 136.365 41.5922 140.212 41.5922 140.212C41.5922 140.212 41.0682 130.432 39.3391 128.081C38.4645 126.942 37.1938 126.177 35.7814 125.938C34.369 125.7 32.919 126.006 31.7217 126.795C31.1398 127.162 30.6397 127.646 30.2527 128.216C29.8658 128.786 29.6004 129.431 29.4731 130.109C29.3458 130.787 29.3594 131.484 29.513 132.156C29.6666 132.829 29.957 133.462 30.3659 134.017Z" fill="#06D6A0"/>
<path d="M31.7415 161.104C34.4858 162.305 44.7363 161.081 44.7363 161.081C44.7363 161.081 39.074 152.886 36.3296 151.686C33.5852 150.486 30.3366 151.62 29.0692 154.221C27.8018 156.823 29.0004 159.904 31.7415 161.104Z" fill="#06D6A0"/>
<path d="M37.6527 181.378C40.1449 183.002 50.464 183.433 50.464 183.433C50.464 183.433 46.3442 174.452 43.8553 172.831C42.6558 172.046 41.2053 171.746 39.7945 171.99C38.3837 172.234 37.1168 173.004 36.2477 174.146C35.8394 174.704 35.5507 175.341 35.3999 176.017C35.249 176.692 35.2393 177.392 35.3713 178.071C35.5034 178.751 35.7743 179.396 36.1669 179.965C36.5596 180.534 37.0655 181.015 37.6527 181.378Z" fill="#06D6A0"/>
<path d="M53.0971 140.393C51.0011 142.458 40.98 144.856 40.98 144.856C40.98 144.856 43.1054 135.27 45.198 133.205C46.2336 132.208 47.605 131.64 49.0391 131.613C50.4733 131.586 51.8648 132.103 52.9366 133.06C53.4517 133.516 53.8671 134.074 54.1566 134.699C54.446 135.324 54.6033 136.002 54.6183 136.691C54.6334 137.38 54.506 138.065 54.2442 138.702C53.9823 139.34 53.5917 139.915 53.0971 140.393Z" fill="#06D6A0"/>
<path d="M59.6796 164.186C57.0302 165.563 46.7175 165.008 46.7175 165.008C46.7175 165.008 51.7707 156.458 54.4201 155.09C57.0695 153.722 60.3968 154.632 61.8475 157.145C63.2983 159.657 62.342 162.808 59.6796 164.186Z" fill="#06D6A0"/>
<path d="M62.7546 188.146C60.3868 189.928 50.1233 191.033 50.1233 191.033C50.1233 191.033 53.5816 181.802 55.9493 180.02C57.1003 179.162 58.5311 178.772 59.956 178.927C61.3808 179.083 62.6948 179.772 63.6355 180.858C64.0803 181.384 64.4119 181.996 64.6095 182.656C64.8071 183.317 64.8664 184.011 64.7837 184.696C64.7009 185.38 64.4779 186.04 64.1287 186.634C63.7795 187.228 63.3116 187.742 62.7546 188.146Z" fill="#06D6A0"/>
<path opacity="0.1" d="M261.197 204.066C276.813 204.066 289.472 202.769 289.472 201.169C289.472 199.569 276.813 198.272 261.197 198.272C245.581 198.272 232.921 199.569 232.921 201.169C232.921 202.769 245.581 204.066 261.197 204.066Z" fill="#3D3C40"/>
<path d="M227.063 69.0138C227.063 69.0138 228.854 59.5758 234.621 59.5264L238.836 68.2344L236.026 70.1812C236.026 70.1812 229.922 70.3752 227.063 69.0138Z" fill="#166DE0"/>
<path opacity="0.1" d="M238.836 68.2344L236.026 70.1812C236.026 70.1812 231.73 70.3193 228.658 69.5597C228.11 69.4293 227.576 69.2465 227.063 69.0138C227.063 69.0138 227.063 68.9612 227.096 68.8625C227.096 68.8625 227.096 68.8395 227.096 68.8263C227.36 67.6419 227.725 66.4823 228.186 65.3603C228.366 64.936 228.566 64.4987 228.782 64.0613C229.627 62.417 230.813 60.832 232.437 60.0395C233.038 59.7435 233.691 59.5724 234.359 59.5363H234.53H234.615L234.707 59.7303L236.131 62.6703L238.836 68.2344Z" fill="#3D3C40"/>
<path d="M286.702 107.447C286.702 107.447 292.761 106.865 293.291 107.302C293.822 107.739 297.264 109.975 299.301 108.565C301.338 107.154 299.978 102.241 299.978 102.047C299.978 101.853 299.785 94.8943 299.785 94.8943L296.15 89.9813L291.598 81.372L282.297 80.4446L282.54 94.1183L282.491 101.123L286.702 107.447Z" fill="#166DE0"/>
<path opacity="0.1" d="M286.702 107.447C286.702 107.447 292.761 106.865 293.291 107.302C293.822 107.739 297.264 109.975 299.301 108.565C301.338 107.154 299.978 102.241 299.978 102.047C299.978 101.853 299.785 94.8943 299.785 94.8943L296.15 89.9813L291.598 81.372L282.297 80.4446L282.54 94.1183L282.491 101.123L286.702 107.447Z" fill="#3D3C40"/>
<path d="M233.409 59.2765C233.409 59.2765 232.925 65.2122 229.244 65.3076C229.244 65.3076 228.199 64.6762 226.794 63.6239C223.559 61.1937 218.427 56.5207 219.845 52.1733C221.879 45.9482 231.762 57.4349 231.762 57.4349L232.519 58.2899L233.409 59.2765Z" fill="white"/>
<path d="M233.409 59.2765C233.409 59.2765 232.925 65.2122 229.244 65.3076C229.244 65.3076 228.199 64.6762 226.794 63.6239C223.559 61.1937 218.427 56.5207 219.845 52.1733C221.879 45.9482 231.762 57.4349 231.762 57.4349L232.519 58.2899L233.409 59.2765Z" fill="#3D3C40" fill-opacity="0.24"/>
<path opacity="0.1" d="M233.409 59.2765C233.409 59.2765 232.925 65.2123 229.244 65.3077C229.244 65.3077 228.199 64.6763 226.794 63.624L226.483 63.2195C227.108 63.5466 227.796 63.7329 228.5 63.7654C229.054 63.7875 229.601 63.6398 230.069 63.342C230.537 63.0442 230.904 62.6103 231.12 62.0981C231.507 61.3349 231.848 60.5486 232.139 59.7435C232.318 59.2744 232.445 58.787 232.519 58.29L233.409 59.2765Z" fill="#3D3C40"/>
<path d="M231.812 70.0364L230.983 68.9644L228.193 65.347L226.771 63.5022C227.396 63.8311 228.085 64.0175 228.789 64.0481C229.716 64.0711 230.754 63.7192 231.409 62.3841C231.795 61.6195 232.135 60.8321 232.427 60.0262C232.886 58.7108 232.879 58.0531 232.715 57.8131C232.552 57.573 233.744 58.6944 234.317 59.2403L234.337 59.26L234.605 59.5132L234.703 59.7105L236.108 62.5288C236.108 62.5288 236.108 62.5682 236.108 62.6472C236.246 63.5515 236.721 69.2308 231.812 70.0364Z" fill="white"/>
<path d="M260.833 195.26C260.833 195.26 256.763 197.936 254.729 197.562C252.695 197.187 250.609 198.246 250.609 198.246C249.207 199.783 247.439 200.938 245.471 201.603C242.196 202.721 237.578 202.281 234.962 201.406C233.724 200.991 233.622 200.459 234.218 199.798C234.873 199.061 236.4 198.176 238.148 197.124C241.492 195.131 245.075 191.205 245.075 191.205C245.075 191.205 245.124 190.218 245.707 189.797C246.066 189.487 246.394 189.144 246.689 188.771C247.21 188.153 247.698 187.509 247.698 187.509L259.671 187.857C259.671 187.857 259.874 188.722 260.034 189.607C260.171 190.18 260.227 190.77 260.201 191.359C260.171 191.573 260.184 191.791 260.24 192C260.297 192.209 260.395 192.404 260.529 192.573L260.745 194.546L260.833 195.26Z" fill="#166DE0"/>
<path d="M285.88 198.617C285.736 199.199 285.552 200.242 285.484 200.732L285.441 201.001C285.441 201.001 284.459 203.142 279.098 203.922C273.737 204.701 273.72 202.119 273.72 202.119C273.72 202.119 273.74 201.843 273.773 201.426C273.868 200.288 274.061 198.108 274.205 197.644C274.395 197.012 274.058 194.237 274.058 194.237L274.002 191.34L273.959 189.327L282.877 188.4C282.932 189.069 283.028 189.735 283.165 190.393C283.22 190.758 283.353 191.107 283.555 191.415C284.039 191.951 284.328 194.336 284.328 194.336C284.328 194.336 286.073 197.838 285.88 198.617Z" fill="#166DE0"/>
<path opacity="0.1" d="M259.671 187.857C259.671 187.857 259.874 188.722 260.034 189.607C258.741 189.847 253.088 190.83 251.677 190.143C250.075 189.363 246.637 188.926 246.637 188.926L246.692 188.729C247.213 188.11 247.701 187.466 247.701 187.466L259.671 187.857Z" fill="#3D3C40"/>
<path opacity="0.1" d="M283.165 190.393C280.905 190.008 275.96 190.939 273.995 191.34L273.953 189.327L282.87 188.4C282.927 189.07 283.026 189.735 283.165 190.393Z" fill="#3D3C40"/>
<path d="M288.192 116.641L287.999 123.501C287.999 123.501 288.241 133.962 287.514 135.616C286.787 137.27 286.787 143.936 286.787 143.936C286.787 143.936 287.272 147.096 286.738 147.777C286.204 148.458 286.594 150.986 286.98 152.302C287.367 153.617 287.029 156.876 287.029 156.876L286.931 175.266C286.931 175.266 286.401 180.031 285.719 180.715C285.524 180.917 285.385 181.167 285.318 181.44C285.25 181.713 285.255 182 285.333 182.27C285.333 182.27 284.753 184.993 284.897 185.483C285.042 185.973 285.333 187.088 284.22 187.62C283.106 188.153 283.394 189.86 283.394 189.86C280.732 189.225 273.173 190.932 273.173 190.932C272.357 189.241 271.645 187.502 271.041 185.723C270.911 185.363 270.859 184.979 270.888 184.597C270.918 184.215 271.028 183.844 271.211 183.508C271.395 183.172 271.647 182.88 271.952 182.65C272.257 182.42 272.608 182.258 272.98 182.175C273.995 182.027 272.253 180.228 272.253 180.228C272.253 180.228 272.446 179.985 271.962 178.235C271.477 176.486 272.057 171.987 272.204 170.836C272.351 169.685 273.075 164.025 273.075 164.025C273.075 164.025 272.689 156.876 272.98 156.584C273.272 156.291 274.238 153.469 273.756 152.545C273.275 151.621 272.492 145.541 272.492 145.199C272.492 144.857 271.867 136.977 271.867 136.977C271.867 136.977 271.284 131.479 271.431 130.312C271.579 129.144 271.041 124.817 271.041 124.817C271.041 121.199 268.959 117.322 268.959 117.322L268.906 117.463L264.416 129.342C264.416 129.342 263.689 132.939 263.061 134.981C262.663 136.37 262.347 137.781 262.114 139.207L262.071 139.467C262.071 139.575 262.039 139.667 262.029 139.74L261.999 139.937C261.999 139.937 262.327 142.515 261.803 143.344C261.279 144.173 260.689 146.652 260.689 147.333C260.689 148.014 260.739 150.641 260.739 150.641C260.739 150.641 260.932 155.847 260.411 156.432C259.89 157.018 260.166 157.501 260.166 157.501C260.166 157.501 261.037 161.447 260.65 162.463C260.264 163.48 260.555 165.867 260.555 165.867C260.555 165.867 259.779 173.411 259.684 173.799C259.589 174.187 259.052 177.206 259.635 177.449C260.218 177.692 261.328 179.149 261.328 179.149C261.328 179.149 261.574 185.526 260.699 186.009C259.825 186.492 260.31 188.969 260.31 188.969C260.31 188.969 253.288 190.33 251.69 189.551C250.092 188.771 246.65 188.334 246.65 188.334L247.131 186.736C247.102 186.792 246.781 187.311 246.552 185.318C246.313 183.227 248.346 184.246 248.346 184.246C248.346 184.246 249.945 184.638 247.364 182.109C244.783 179.58 246.054 176.999 246.201 176.999C246.349 176.999 246.689 173.256 246.689 173.256C246.689 173.256 247.125 171.017 246.784 169.264C246.444 167.511 246.156 162.062 246.156 162.062C246.156 162.062 246.398 157.928 245.962 156.422C245.527 154.916 246.25 152.187 246.398 151.555C246.545 150.924 245.946 145.149 245.946 145.149C245.946 145.149 246.431 142.426 246.139 140.434C245.848 138.441 246.431 131.091 246.431 131.091L247.302 122.626C247.302 122.626 247.931 119.996 247.836 118.927C247.741 117.858 248.566 114.112 248.566 114.112C248.516 113.315 248.649 112.516 248.952 111.778C249.437 110.791 249.63 107.595 249.63 107.595L254.284 96.8905L256.576 87.4525L287.337 87.1599C287.337 87.1599 287.452 87.9787 287.639 89.4618C287.825 90.9449 288.087 93.1482 288.379 95.8678C288.647 98.3375 288.942 101.241 289.227 104.474C290.157 114.793 288.192 116.641 288.192 116.641Z" fill="#3D3C40"/>
<path d="M285.346 31.4558L278.174 39.1444C278.174 39.1444 268.972 35.4448 269.941 34.182C270.314 33.692 270.269 32.1464 270.039 30.443C269.712 27.7464 268.972 24.6453 268.972 24.6453C268.972 24.6453 285.055 22.0145 283.709 24.7407C283.214 25.7273 283.299 26.898 283.607 27.9733C283.997 29.2204 284.584 30.3963 285.346 31.4558Z" fill="white"/>
<path d="M285.346 31.4558L278.174 39.1444C278.174 39.1444 268.972 35.4448 269.941 34.182C270.314 33.692 270.269 32.1464 270.039 30.443C269.712 27.7464 268.972 24.6453 268.972 24.6453C268.972 24.6453 285.055 22.0145 283.709 24.7407C283.214 25.7273 283.299 26.898 283.607 27.9733C283.997 29.2204 284.584 30.3963 285.346 31.4558Z" fill="#3D3C40" fill-opacity="0.24"/>
<path opacity="0.1" d="M283.699 24.7472C283.204 25.7338 282.969 25.839 283.276 26.9143C281.174 29.1735 278.498 31.6531 275.171 31.6531C273.39 31.6558 271.634 31.2426 270.039 30.4462C269.712 27.7496 268.972 24.6486 268.972 24.6486C268.972 24.6486 285.055 22.0177 283.699 24.7472Z" fill="#3D3C40"/>
<path opacity="0.1" d="M283.699 24.7472C283.204 25.7338 282.969 25.839 283.276 26.9143C281.174 29.1735 278.498 31.6531 275.171 31.6531C273.39 31.6558 271.634 31.2426 270.039 30.4462C269.712 27.7496 268.972 24.6486 268.972 24.6486C268.972 24.6486 285.055 22.0177 283.699 24.7472Z" fill="#3D3C40"/>
<path d="M286.705 19.7784C286.654 22.8159 285.417 25.7117 283.26 27.8417C281.102 29.9717 278.198 31.1653 275.173 31.1653C272.147 31.1653 269.243 29.9717 267.086 27.8417C264.929 25.7117 263.691 22.8159 263.64 19.7784C263.64 19.7225 263.64 19.6665 263.64 19.6139C263.662 16.543 264.898 13.6066 267.075 11.4505C268.154 10.383 269.431 9.53914 270.834 8.96722C272.237 8.39531 273.739 8.1065 275.253 8.1173C276.767 8.12809 278.265 8.43828 279.659 9.03015C281.054 9.62201 282.319 10.484 283.383 11.5668C284.446 12.6496 285.286 13.9321 285.856 15.3411C286.425 16.75 286.713 18.2578 286.702 19.7784H286.705Z" fill="white"/>
<path d="M286.705 19.7784C286.654 22.8159 285.417 25.7117 283.26 27.8417C281.102 29.9717 278.198 31.1653 275.173 31.1653C272.147 31.1653 269.243 29.9717 267.086 27.8417C264.929 25.7117 263.691 22.8159 263.64 19.7784C263.64 19.7225 263.64 19.6665 263.64 19.6139C263.662 16.543 264.898 13.6066 267.075 11.4505C268.154 10.383 269.431 9.53914 270.834 8.96722C272.237 8.39531 273.739 8.1065 275.253 8.1173C276.767 8.12809 278.265 8.43828 279.659 9.03015C281.054 9.62201 282.319 10.484 283.383 11.5668C284.446 12.6496 285.286 13.9321 285.856 15.3411C286.425 16.75 286.713 18.2578 286.702 19.7784H286.705Z" fill="#3D3C40" fill-opacity="0.24"/>
<path opacity="0.1" d="M288.372 96.167C286.846 96.167 281.76 96.2229 276.075 96.3117H276.006L274.13 96.3446H274.071C267.331 96.4531 260.686 95.1312 258.024 95.3811C252.358 95.9138 260.061 90.1195 260.061 90.1195C264.285 91.1503 268.63 91.5929 272.974 91.4349L274.611 91.3494C279.759 91.0567 284.937 90.57 287.642 89.7545C287.822 91.2606 288.081 93.4474 288.372 96.167Z" fill="#3D3C40"/>
<path d="M288.372 95.8744C286.846 95.8744 281.76 95.9303 276.075 96.0191H276.006L274.13 96.0519H274.071C267.331 96.1605 260.686 94.8385 258.024 95.0884C252.358 95.6244 260.061 89.8268 260.061 89.8268C264.285 90.8575 268.63 91.3002 272.974 91.1422L274.611 91.0567C279.759 90.764 284.937 90.2773 287.642 89.465C287.822 90.9712 288.081 93.1482 288.372 95.8744Z" fill="#166DE0"/>
<path opacity="0.1" d="M272.073 34.6654L263.159 38.8517L256.281 92.2669C256.281 92.2669 260.349 90.4188 262.677 91.5862C265.006 92.7536 272.174 91.6848 272.174 91.6848C272.174 91.6848 277.414 91.3922 278.184 91.9775C278.953 92.5629 288.061 89.5309 288.061 89.5309C288.061 89.5309 289.698 85.8346 288.447 85.2558C287.196 84.677 288.847 78.9386 288.847 78.9386L288.061 40.4072L286.508 35.4448L282.343 32.916L278.085 36.3196L276.052 36.6122L272.073 34.6654Z" fill="#3D3C40"/>
<path d="M272.073 34.0833L263.159 38.2663L256.281 91.6847C256.281 91.6847 260.349 89.8366 262.677 91.004C265.006 92.1714 272.174 91.0994 272.174 91.0994C272.174 91.0994 277.414 90.81 278.184 91.3921C278.953 91.9741 288.067 88.9586 288.067 88.9586C288.067 88.9586 289.705 85.2623 288.454 84.6835C287.203 84.1047 288.847 78.3498 288.847 78.3498L288.061 39.8217L286.508 34.8627L282.343 32.3305L278.085 35.7374L276.052 36.0301L272.073 34.0833Z" fill="white"/>
<path opacity="0.1" d="M271.926 36.5628C271.926 36.5628 274.493 39.6277 274.447 40.2624C274.402 40.8971 274.3 42.4032 274.3 42.4032L272.361 46.3494C272.361 46.3494 271.297 51.2625 271.297 52.2852C271.297 53.3079 269.601 62.1507 269.601 62.1507L267.56 75.775L264.993 93.6316L267.613 98.1533L270.711 95.5225L274.831 63.7029L275.702 57.4284C275.702 57.4284 276.622 46.1423 276.622 44.9748C276.622 43.8074 276.091 40.7425 276.091 40.7425C276.091 40.7425 276.72 37.8223 279.337 37.1252C281.954 36.428 279.144 36.9772 279.144 36.9772L277.64 35.7637L276.331 36.2965C276.331 36.2965 272.702 35.2014 271.926 36.5628Z" fill="#3D3C40"/>
<path d="M271.634 36.2735C271.634 36.2735 274.205 39.3383 274.156 39.9697C274.107 40.6011 274.008 42.1106 274.008 42.1106L272.073 46.0568C272.073 46.0568 271.005 50.9698 271.005 51.9925C271.005 53.0152 269.309 61.858 269.309 61.858L267.275 75.479L264.708 93.3356L267.327 97.8606L270.429 95.2298L274.545 63.4135L275.42 57.1423C275.42 57.1423 276.34 45.8562 276.34 44.6888C276.34 43.5213 275.809 40.4564 275.809 40.4564C275.809 40.4564 276.438 37.5362 279.055 36.8555C281.672 36.1748 278.862 36.7108 278.862 36.7108L277.358 35.4941L276.049 36.0301C276.049 36.0301 272.41 34.9087 271.634 36.2735Z" fill="#579EFF"/>
<path opacity="0.1" d="M269.941 31.1631C269.941 31.1631 269.551 31.4558 269.456 33.4026C269.361 35.3494 268.002 39.7264 268.002 39.7264C268.002 39.7264 273.042 36.2241 275.561 36.6122L269.941 31.1631Z" fill="#3D3C40"/>
<path d="M269.941 30.581C269.941 30.581 269.551 30.8704 269.456 32.8172C269.361 34.764 268.002 39.141 268.002 39.141C268.002 39.141 273.042 35.6387 275.561 36.0301L269.941 30.581Z" fill="white"/>
<path opacity="0.1" d="M283.699 29.6077L275.747 36.6122C275.747 36.6122 282.434 40.6012 283.306 41.5746C284.177 42.548 285.048 32.0379 285.048 32.0379L283.699 29.6077Z" fill="#3D3C40"/>
<path d="M283.99 29.0223L276.045 36.0301C276.045 36.0301 282.729 40.019 283.607 40.9924C284.485 41.9658 285.349 31.4558 285.349 31.4558L283.99 29.0223Z" fill="white"/>
<path opacity="0.1" d="M270.229 31.1632C270.229 31.1632 269.358 30.7258 268.536 31.9919C267.931 32.8172 267.108 33.4571 266.162 33.84C266.162 33.84 257.342 35.2508 256.992 36.4182L252.872 36.6616C252.872 36.6616 251.418 36.8556 251.274 39.9205C251.13 42.9854 250.354 43.278 250.354 43.278C250.354 43.278 248.657 46.2936 248.805 47.8491C248.952 49.4045 247.495 50.1872 247.495 50.1872L253.55 65.9983C253.55 65.9983 253.746 72.5161 252.63 74.9003C251.513 77.2845 249.433 87.8406 249.433 87.8406C249.433 87.8406 250.305 87.6466 250.255 88.2286C250.206 88.8107 249.221 95.1871 249.221 95.1871C249.221 95.1871 248.929 97.716 248.444 98.594C247.96 99.472 247.911 104.04 247.911 104.04L247.138 107.348C247.138 107.348 248.978 111.485 251.788 110.9C254.598 110.314 259.684 99.2747 259.684 99.2747L262.933 87.3539L265.451 75.581L266.178 67.6031L267.341 49.9438L269.037 38.2663C269.037 38.2663 270.91 31.982 270.229 31.1632Z" fill="#3D3C40"/>
<path d="M269.941 30.5811C269.941 30.5811 269.067 30.1438 268.245 31.4065C267.64 32.2329 266.818 32.8731 265.87 33.2547C265.87 33.2547 257.054 34.6654 256.701 35.8329L252.581 36.0762C252.581 36.0762 251.13 36.2735 250.983 39.3384C250.835 42.4033 250.062 42.6927 250.062 42.6927C250.062 42.6927 248.366 45.7115 248.513 47.267C248.661 48.8225 247.203 49.6018 247.203 49.6018L253.262 65.413C253.262 65.413 253.455 71.9308 252.342 74.315C251.228 76.6991 249.142 87.2585 249.142 87.2585C249.142 87.2585 250.013 87.0612 249.967 87.6466C249.922 88.2319 248.9 94.6018 248.9 94.6018C248.9 94.6018 248.608 97.1339 248.124 98.0087C247.639 98.8834 247.593 103.458 247.593 103.458L246.817 106.766C246.817 106.766 248.657 110.9 251.467 110.318C254.277 109.735 259.373 98.6894 259.373 98.6894L262.618 86.7718L265.137 74.999L265.864 67.0178L267.026 49.3585L268.723 37.6843C268.723 37.6843 270.619 31.4065 269.941 30.5811Z" fill="#166DE0"/>
<path opacity="0.1" d="M238.836 68.2345L236.026 70.1813C236.026 70.1813 231.73 70.3194 228.658 69.5597L227.096 68.8626L226.768 68.7244L227.096 68.8264C228.717 69.3098 229.984 69.2999 230.976 68.9645C234.952 67.6195 234.513 61.0261 234.359 59.5364C234.359 59.3851 234.333 59.2897 234.327 59.2536C234.326 59.247 234.326 59.2404 234.327 59.2338L234.349 59.2733C234.404 59.3631 234.466 59.4489 234.533 59.5298C234.589 59.5923 234.647 59.658 234.71 59.7205L236.115 62.5388C236.115 62.5388 236.115 62.5782 236.115 62.6572L238.836 68.2345Z" fill="#3D3C40"/>
<path d="M248.566 49.2137L247.207 49.6017L247.014 52.3739C247.014 52.3739 245.415 52.1306 244.98 54.0182C244.544 55.9058 243.768 56.7937 243.768 56.7937C243.768 56.7937 241.102 59.0299 240.958 60.9273L239.321 61.9501C239.321 61.9501 235.493 61.072 234.621 59.5166C234.621 59.5166 236.367 72.0688 227.063 69.0039C227.063 69.0039 237.48 73.5749 237.965 74.2096C238.45 74.8443 241.646 76.6892 244.554 75.1337C247.462 73.5782 248.091 71.1875 248.091 71.1875C248.091 71.1875 250.901 67.2413 250.996 66.6625C251.091 66.0837 253.288 65.3964 253.288 65.3964L257.454 55.2777L248.566 49.2137Z" fill="#166DE0"/>
<path opacity="0.1" d="M282.585 35.4447L283.99 29.0223C283.99 29.0223 284.619 31.1138 285.251 31.6005L287.334 33.2085C287.334 33.2085 289.417 34.1787 290.144 34.1787C290.871 34.1787 294.794 35.2014 295.279 35.7374C295.763 36.2734 297.702 35.8821 297.702 35.8821C297.702 35.8821 299.3 36.4181 300.705 36.7568C302.11 37.0956 302.788 39.4337 302.497 40.3742C302.378 40.8345 302.379 41.3173 302.497 41.7775C302.616 42.2377 302.849 42.6601 303.175 43.005C303.757 43.5904 304.049 45.4878 304.049 45.4878C304.759 45.7231 305.347 46.2301 305.686 46.8986C306.171 47.9673 306.014 50.3022 306.014 50.3022L298.809 60.5196C298.809 60.5196 298.904 64.4658 298.616 65.3372C298.328 66.2087 299.631 81.099 299.631 81.099L301.134 106.687C301.134 106.687 299.146 108.39 298.711 108.584C298.275 108.778 297.84 99.5377 297.84 99.1957C297.84 98.8537 286.649 82.3618 286.649 82.3618C286.649 82.3618 285.146 79.9316 285.146 79.4022C285.146 78.8727 283.741 73.9531 283.741 73.9531L281.609 64.4658L282.585 35.4447Z" fill="#3D3C40"/>
<path d="M306.633 49.7399C306.633 50.0687 306.633 50.2989 306.633 50.2989L299.428 60.4933C299.428 60.4933 299.526 64.4395 299.238 65.3077C299.068 65.8174 299.438 71.0527 299.782 75.354C300.024 78.4551 300.253 81.0695 300.253 81.0695L300.892 91.9215L301.753 106.654C301.753 106.654 299.768 108.357 299.333 108.552C298.897 108.746 298.462 99.5048 298.462 99.1628C298.462 98.8208 287.268 82.3322 287.268 82.3322C287.268 82.3322 285.765 79.8955 285.765 79.3726C285.765 78.8497 284.36 73.9235 284.36 73.9235L282.231 64.4362L283.198 35.4414L283.99 29.0223C283.99 29.0223 285.202 31.1171 285.831 31.6005L287.913 33.2053C287.913 33.2053 289.996 34.1918 290.723 34.1918C291.45 34.1918 295.377 35.2113 295.861 35.7473C296.346 36.2833 298.282 35.892 298.282 35.892C298.282 35.892 299.88 36.428 301.285 36.7667C302.69 37.1054 303.371 39.4435 303.079 40.3841C302.96 40.8443 302.96 41.3273 303.079 41.7876C303.198 42.2479 303.431 42.6703 303.757 43.0149C304.337 43.5969 304.628 45.4944 304.628 45.4944C305.338 45.7317 305.926 46.2396 306.266 46.9085C306.613 47.6155 306.646 48.9671 306.633 49.7399Z" fill="#166DE0"/>
<path opacity="0.1" d="M247.413 179.353C247.652 179.353 257.827 179.741 257.634 181.395C257.441 183.049 247.413 179.353 247.413 179.353Z" fill="#3D3C40"/>
<path opacity="0.1" d="M249.689 182.125C249.689 182.125 256.52 183.243 254.726 184.266C252.931 185.289 249.689 182.125 249.689 182.125Z" fill="#3D3C40"/>
<path opacity="0.1" d="M275.092 178.281C275.092 178.281 286.43 179.268 284.734 180.521C283.037 181.773 279.016 181.977 278.839 182.027C278.662 182.076 275.092 178.281 275.092 178.281Z" fill="#3D3C40"/>
<path opacity="0.1" d="M273.72 183.293C273.72 183.293 280.018 184.361 280.211 185.595C280.404 186.828 273.72 183.293 273.72 183.293Z" fill="#3D3C40"/>
<path opacity="0.1" d="M277.208 154.005C277.208 154.005 282.972 155.367 283.312 156.307L277.208 154.005Z" fill="#3D3C40"/>
<path opacity="0.1" d="M254.968 158.188C254.968 158.188 251.965 159.063 254.873 160.819C257.781 162.575 254.968 158.188 254.968 158.188Z" fill="#3D3C40"/>
<path opacity="0.1" d="M268.293 111.435C268.621 111.435 273.913 109.686 275.754 110.449C277.071 110.946 278.463 111.212 279.87 111.235L268.293 111.435Z" fill="#3D3C40"/>
<path opacity="0.1" d="M268.971 116.98L268.919 117.463L264.416 129.342C264.416 129.342 263.689 132.939 263.06 134.981C262.663 136.37 262.347 137.781 262.114 139.207L266.112 114.306L268.971 116.98Z" fill="#3D3C40"/>
<path d="M276.006 96.019L274.13 96.0519H274.071L272.97 91.1487L274.608 91.0599L276.006 96.019Z" fill="#3D3C40"/>
<path d="M298.865 90.08L297.656 91.0665L293.631 94.3978C293.631 94.3978 282.729 100.238 279.726 94.6905C277.08 89.8038 289.44 86.3147 292.416 85.555C292.819 85.4531 293.048 85.4005 293.048 85.4005L298.865 90.08Z" fill="white"/>
<path d="M298.865 90.08L297.656 91.0665L293.631 94.3978C293.631 94.3978 282.729 100.238 279.726 94.6905C277.08 89.8038 289.44 86.3147 292.416 85.555C292.819 85.4531 293.048 85.4005 293.048 85.4005L298.865 90.08Z" fill="#3D3C40" fill-opacity="0.24"/>
<path opacity="0.1" d="M252.306 42.2552C252.306 42.2552 254.438 43.2417 254.925 44.59C255.413 45.9383 252.306 42.2552 252.306 42.2552Z" fill="#3D3C40"/>
<path opacity="0.1" d="M245.717 56.8497C245.717 56.8497 242.615 60.6446 243.876 62.1113C245.137 63.578 245.717 56.8497 245.717 56.8497Z" fill="#3D3C40"/>
<path opacity="0.1" d="M301.141 44.3961C301.141 44.3961 298.233 44.6887 298.138 47.2176L301.141 44.3961Z" fill="#3D3C40"/>
<path opacity="0.1" d="M274.205 84.2889C274.493 83.9963 281.18 74.0715 282.719 74.9496L274.205 84.2889Z" fill="#3D3C40"/>
<path opacity="0.1" d="M286.705 19.7783C286.708 21.6857 286.239 23.5638 285.34 25.2438L285.254 25.2274C284.524 25.0728 284.144 24.2178 283.584 23.6851C283.241 23.3564 282.803 23.144 282.333 23.078C281.863 23.0119 281.385 23.0954 280.964 23.3168C280.541 23.5722 280.196 23.941 279.97 24.3818C279.743 24.8226 279.643 25.3181 279.681 25.8127C279.311 24.254 279.428 22.5999 279.068 21.0378C278.708 19.4758 277.624 17.8973 276.137 17.871C275.482 17.871 274.752 18.1045 274.287 17.6244C274.008 17.335 273.959 16.8779 273.743 16.5227C272.682 14.7995 269.45 15.671 268.13 16.5556C266.81 17.4402 265.281 18.8576 263.64 19.6139C263.662 16.543 264.898 13.6066 267.075 11.4505C268.154 10.383 269.431 9.53914 270.834 8.96722C272.237 8.39531 273.739 8.1065 275.253 8.1173C276.767 8.12809 278.264 8.43828 279.659 9.03015C281.054 9.62201 282.319 10.484 283.383 11.5668C284.446 12.6496 285.286 13.9321 285.856 15.3411C286.425 16.75 286.713 18.2578 286.702 19.7783H286.705Z" fill="#3D3C40"/>
<path d="M273.746 16.2333C273.956 16.5852 274.011 17.0423 274.29 17.3317C274.752 17.8151 275.502 17.5651 276.14 17.5783C277.627 17.6046 278.711 19.1831 279.071 20.7451C279.431 22.3072 279.313 23.9613 279.684 25.52C279.645 25.0249 279.746 24.529 279.973 24.088C280.2 23.647 280.546 23.2785 280.971 23.0241C281.391 22.8027 281.87 22.7192 282.339 22.7853C282.809 22.8513 283.247 23.0636 283.59 23.3924C284.15 23.9251 284.53 24.7801 285.261 24.9347C285.991 25.0892 286.695 24.3855 286.96 23.6193C287.226 22.8531 287.206 21.9981 287.38 21.1957C287.707 19.6797 288.689 18.4333 289.24 16.9897C289.889 15.2342 289.871 13.3003 289.191 11.557C288.827 10.6428 288.287 9.82071 287.917 8.90979C287.36 7.52205 287.216 5.95014 286.535 4.63474C285.395 2.42158 282.71 1.31664 280.499 2.14863C279.448 2.54325 278.534 3.31276 277.463 3.65805C276.032 4.12173 274.499 3.77315 273.019 3.56598C271.539 3.3588 269.898 3.33907 268.706 4.31575C267.334 5.44371 266.961 7.56151 265.67 8.79799C265.13 9.31757 264.459 9.64971 263.889 10.1134C263.319 10.5771 262.824 11.3071 262.906 12.0865C262.991 13.0928 263.974 14.007 263.61 14.9409C263.48 15.2118 263.297 15.4542 263.073 15.6545C261.994 16.7901 261.192 18.161 260.729 19.6599C263.319 20.4755 266.126 17.6046 268.156 16.2464C269.456 15.3816 272.685 14.5068 273.746 16.2333Z" fill="#3D3C40"/>
<path opacity="0.1" d="M298.865 90.08L297.656 91.0665C296.592 89.2907 292.227 85.7392 292.227 85.7392L292.417 85.555C292.819 85.4531 293.049 85.4005 293.049 85.4005L298.865 90.08Z" fill="#3D3C40"/>
<path d="M300.027 88.278C300.027 88.278 299.592 89.3632 299.146 90.2971C298.701 91.2311 298.21 92.0861 298.187 91.3922C298.138 90.0308 292.518 85.4564 292.518 85.4564L293.281 84.7132L294.162 83.8516L300.027 88.278Z" fill="white"/>
<path opacity="0.1" d="M300.221 81.0761L300.859 91.9281C299.353 89.5768 295.22 83.5523 292.564 83.7463L298.999 76.311C299.267 76.0116 299.514 75.694 299.739 75.3607C299.982 78.4617 300.221 81.0761 300.221 81.0761Z" fill="#3D3C40"/>
<path opacity="0.1" d="M300.027 88.2778C300.027 88.2778 299.592 89.363 299.147 90.297C297.457 87.972 295.135 85.2261 293.281 84.7065L294.162 83.8449L300.027 88.2778Z" fill="#3D3C40"/>
<path d="M304.871 48.9211L306.617 50.2825C306.617 50.2825 309.521 50.3319 309.813 52.7653C310.104 55.1988 312.76 56.3169 312.76 56.3169C312.76 56.3169 314.745 58.3098 314.745 59.2338C314.745 60.1579 316.248 61.812 316.248 61.96C316.248 62.108 317.702 65.0742 317.506 65.607C317.309 66.1397 319.058 68.4778 318.524 69.3526C318.086 70.1386 317.698 70.9513 317.362 71.7861C317.362 71.7861 315.085 76.1663 313.923 76.9918C312.76 77.8172 307.429 84.7757 307.429 84.7757C307.429 84.7757 301.714 91.3921 301.714 93.4343C301.714 93.4343 296.147 84.0949 292.846 84.3383L299.291 76.8931C299.291 76.8931 300.404 75.6796 300.453 74.9496C300.502 74.2196 303.555 70.862 305.009 70.7173C305.009 70.7173 305.248 68.7212 304.619 68.6718C303.99 68.6225 303.456 67.0671 303.456 67.0671C303.456 67.0671 299.199 62.0093 299.143 58.7965C299.088 55.5836 304.871 48.9211 304.871 48.9211Z" fill="#166DE0"/>
<path opacity="0.1" d="M307.438 53.5414C307.438 53.5414 303.371 56.5603 304.242 57.5304C305.113 58.5005 307.438 53.5414 307.438 53.5414Z" fill="#3D3C40"/>
<path opacity="0.1" d="M307.632 65.9983C307.632 65.9983 315.19 63.5647 315.966 65.9983H307.632Z" fill="#3D3C40"/>
<path opacity="0.1" d="M260.833 195.26C260.833 195.26 256.763 197.936 254.729 197.561C252.695 197.187 250.609 198.245 250.609 198.245C249.207 199.783 247.439 200.938 245.471 201.603C242.196 202.721 237.578 202.28 234.962 201.406C233.724 200.991 233.622 200.459 234.218 199.798C237.064 200.367 243.421 201.501 245.134 200.676C247.361 199.604 250.56 197.269 250.56 197.269C250.56 197.269 254.729 196.687 255.309 196.687C255.721 196.687 258.941 195.352 260.758 194.589L260.833 195.26Z" fill="#3D3C40"/>
<path opacity="0.1" d="M285.484 200.732L285.441 201.001C285.441 201.001 284.458 203.142 279.098 203.922C273.737 204.701 273.72 202.12 273.72 202.12C273.72 202.12 273.74 201.843 273.773 201.426C275.476 202.073 279.189 202.797 285.484 200.732Z" fill="#3D3C40"/>
<path opacity="0.1" d="M254.316 52.9593C254.316 52.9593 254.316 64.0514 253.37 65.1465C252.424 66.2416 254.316 52.9593 254.316 52.9593Z" fill="#3D3C40"/>
<path opacity="0.1" d="M297.99 56.534L299.395 60.4999C299.395 60.4999 299.955 56.6063 297.99 56.534Z" fill="#3D3C40"/>
<path opacity="0.1" d="M298.612 90.3882L297.404 91.3748C296.34 89.599 291.974 86.0474 291.974 86.0474L292.164 85.8633C292.567 85.7613 292.796 85.7087 292.796 85.7087L298.612 90.3882Z" fill="#3D3C40"/>
<path d="M299.775 88.5861C299.775 88.5861 299.339 89.6714 298.894 90.6053C298.449 91.5392 297.957 92.3943 297.934 91.7004C297.885 90.3389 292.266 85.7646 292.266 85.7646L293.029 85.0214L293.91 84.1598L299.775 88.5861Z" fill="white"/>
<path opacity="0.1" d="M299.968 81.3843L300.607 92.2364C299.1 89.8851 294.967 83.8605 292.312 84.0546L298.747 76.6193C299.015 76.3198 299.262 76.0023 299.487 75.6689C299.729 78.77 299.968 81.3843 299.968 81.3843Z" fill="#3D3C40"/>
<path opacity="0.1" d="M299.775 88.5861C299.775 88.5861 299.339 89.6713 298.894 90.6052C297.204 88.2802 294.882 85.5343 293.029 85.0148L293.91 84.1532L299.775 88.5861Z" fill="#3D3C40"/>
<path d="M304.619 49.2293L306.364 50.5907C306.364 50.5907 309.269 50.64 309.56 53.0735C309.852 55.507 312.508 56.6251 312.508 56.6251C312.508 56.6251 314.492 58.6179 314.492 59.542C314.492 60.4661 315.996 62.1202 315.996 62.2682C315.996 62.4162 317.45 65.3824 317.253 65.9151C317.057 66.4479 318.806 68.786 318.272 69.6608C317.834 70.4468 317.446 71.2595 317.109 72.0942C317.109 72.0942 314.833 76.4745 313.67 77.2999C312.508 78.1254 307.176 85.0838 307.176 85.0838C307.176 85.0838 301.462 91.7003 301.462 93.7425C301.462 93.7425 295.894 84.4031 292.593 84.6465L299.038 77.2013C299.038 77.2013 300.152 75.9878 300.201 75.2578C300.25 74.5277 303.302 71.1702 304.756 71.0255C304.756 71.0255 304.995 69.0294 304.367 68.98C303.738 68.9307 303.204 67.3752 303.204 67.3752C303.204 67.3752 298.947 62.3175 298.891 59.1046C298.835 55.8918 304.619 49.2293 304.619 49.2293Z" fill="#145DBF"/>
<path opacity="0.1" d="M307.186 53.8496C307.186 53.8496 303.119 56.8685 303.99 57.8386C304.861 58.8087 307.186 53.8496 307.186 53.8496Z" fill="#3D3C40"/>
<path opacity="0.1" d="M307.379 66.3065C307.379 66.3065 314.938 63.8729 315.714 66.3065H307.379Z" fill="#3D3C40"/>
<path opacity="0.1" d="M260.581 195.568C260.581 195.568 256.51 198.245 254.477 197.87C252.443 197.495 250.357 198.554 250.357 198.554C248.954 200.091 247.187 201.247 245.219 201.911C241.944 203.029 237.326 202.589 234.709 201.714C233.472 201.3 233.37 200.767 233.966 200.106C236.812 200.675 243.168 201.809 244.881 200.984C247.108 199.912 250.308 197.577 250.308 197.577C250.308 197.577 254.477 196.995 255.056 196.995C255.469 196.995 258.688 195.66 260.506 194.897L260.581 195.568Z" fill="#3D3C40"/>
<path opacity="0.1" d="M285.231 201.04L285.189 201.31C285.189 201.31 284.206 203.45 278.845 204.23C273.484 205.009 273.468 202.428 273.468 202.428C273.468 202.428 273.487 202.151 273.52 201.734C275.223 202.382 278.937 203.105 285.231 201.04Z" fill="#3D3C40"/>
<path opacity="0.1" d="M254.064 53.2676C254.064 53.2676 254.064 64.3597 253.118 65.4548C252.171 66.5498 254.064 53.2676 254.064 53.2676Z" fill="#3D3C40"/>
<path opacity="0.1" d="M297.738 56.8422L299.143 60.8081C299.143 60.8081 299.703 56.9145 297.738 56.8422Z" fill="#3D3C40"/>
<g opacity="0.1">
<path opacity="0.1" d="M263.483 14.3185C263.836 13.4043 262.906 12.5098 262.785 11.5299C262.662 11.8063 262.609 12.1091 262.631 12.4112C262.693 13.1478 263.234 13.8351 263.378 14.5191C263.418 14.4554 263.454 14.3883 263.483 14.3185Z" fill="#3D3C40"/>
<path opacity="0.1" d="M279.562 24.7957C279.215 23.2632 279.317 21.6387 278.963 20.103C278.609 18.5672 277.519 16.9624 276.035 16.9361C275.38 16.9361 274.647 17.1729 274.185 16.6928C273.903 16.4034 273.857 15.943 273.638 15.5911C272.577 13.8647 269.348 14.7394 268.025 15.624C266.06 16.9394 263.322 19.7116 260.781 19.0868C260.66 19.3795 260.548 19.6787 260.453 19.9846C263.044 20.8001 265.85 17.9293 267.881 16.5711C269.191 15.6898 272.433 14.8151 273.494 16.5415C273.704 16.8934 273.759 17.3505 274.038 17.6399C274.499 18.1233 275.249 17.8734 275.888 17.8865C277.375 17.9128 278.459 19.4913 278.819 21.0533C279.179 22.6154 279.061 24.2695 279.431 25.8283C279.407 25.4788 279.452 25.128 279.562 24.7957Z" fill="#3D3C40"/>
<path opacity="0.1" d="M286.846 22.9739C286.584 23.7434 285.893 24.4537 285.146 24.2893C284.399 24.1249 284.036 23.2797 283.479 22.7437C283.133 22.4185 282.696 22.2088 282.227 22.1435C281.758 22.0781 281.28 22.1603 280.859 22.3787C280.455 22.6204 280.123 22.9662 279.897 23.3801C279.67 23.7941 279.558 24.2612 279.572 24.7332C279.768 24.1392 280.175 23.6383 280.715 23.3257C281.135 23.1044 281.614 23.0209 282.084 23.0869C282.554 23.153 282.991 23.3653 283.335 23.6941C283.895 24.2268 284.275 25.0818 285.005 25.2364C285.735 25.3909 286.44 24.6872 286.705 23.921C286.843 23.466 286.932 22.9974 286.97 22.5233C286.938 22.676 286.897 22.8265 286.846 22.9739Z" fill="#3D3C40"/>
<path opacity="0.1" d="M289.125 16.3442C288.581 17.7879 287.592 19.0309 287.265 20.5502C287.199 20.856 287.16 21.1684 287.124 21.4841C287.451 19.9714 288.434 18.7317 288.981 17.2913C289.222 16.6433 289.373 15.965 289.429 15.2754C289.355 15.6389 289.253 15.9962 289.125 16.3442Z" fill="#3D3C40"/>
</g>
<path d="M219.113 51.5751C219.18 51.5751 219.233 51.5212 219.233 51.4545C219.233 51.3879 219.18 51.3339 219.113 51.3339C219.047 51.3339 218.993 51.3879 218.993 51.4545C218.993 51.5212 219.047 51.5751 219.113 51.5751Z" fill="#E6E8EC"/>
<path opacity="0.1" d="M260.945 204.374C276.561 204.374 289.22 203.077 289.22 201.477C289.22 199.877 276.561 198.58 260.945 198.58C245.329 198.58 232.669 199.877 232.669 201.477C232.669 203.077 245.329 204.374 260.945 204.374Z" fill="#145DBF"/>
<path fill-rule="evenodd" clip-rule="evenodd" d="M237.296 92.2516L237.538 91.9228L237.315 91.6893L235.946 90.0615L225.071 77.1442L224.953 77.0028L203.322 51.3064L202.012 49.7279L172.211 14.3107C170.392 12.1503 167.852 10.7299 165.065 10.3158C162.279 9.90176 159.437 10.5224 157.074 12.0614L117.104 38.1031L115.316 39.2672L86.9782 57.7289L86.6671 57.9328L73.2105 66.6966L71.4355 67.8542L71.724 68.3766L70.5677 67.4167L64.7286 167.825C64.6745 168.754 64.9516 169.672 65.5103 170.415C66.0689 171.158 66.8726 171.677 67.7775 171.879L222.85 206.458C223.394 206.578 223.957 206.579 224.501 206.462C225.045 206.345 225.559 206.113 226.006 205.781C226.454 205.448 226.825 205.024 227.096 204.535C227.367 204.047 227.53 203.506 227.576 202.949L236.516 93.2987L237.296 92.2516Z" fill="white"/>
<path d="M135.217 214.597C187.805 214.597 230.435 210.28 230.435 204.955C230.435 199.63 187.805 195.313 135.217 195.313C82.6303 195.313 40 199.63 40 204.955C40 210.28 82.6303 214.597 135.217 214.597Z" fill="#3D3C40" fill-opacity="0.08"/>
<path d="M218.353 51.7614C218.419 51.7614 218.473 51.7074 218.473 51.6408C218.473 51.5742 218.419 51.5202 218.353 51.5202C218.286 51.5202 218.233 51.5742 218.233 51.6408C218.233 51.7074 218.286 51.7614 218.353 51.7614Z" fill="#E6E8EC"/>
<path d="M156.21 11.6241L70.5679 67.4169L126.457 168.637C126.718 169.11 127.074 169.524 127.503 169.853C127.931 170.181 128.423 170.416 128.946 170.544L179.586 182.949C180.453 183.159 181.367 183.065 182.174 182.682C182.981 182.298 183.632 181.648 184.02 180.841L209.138 128.438L236.667 91.4854L171.34 13.8767C169.522 11.7181 166.983 10.2986 164.198 9.88398C161.413 9.46935 158.573 10.088 156.21 11.6241Z" fill="white"/>
<path opacity="0.16" d="M237.538 91.9228L237.296 92.2516L221.17 113.9L220.879 114.291L210.009 128.882L188.526 173.708L187.923 174.961L184.891 181.285C184.503 182.094 183.85 182.744 183.042 183.128C182.234 183.512 181.319 183.605 180.45 183.393L129.811 170.982C129.287 170.854 128.795 170.619 128.367 170.29C127.938 169.962 127.582 169.548 127.322 169.074L122.452 160.271L121.577 158.686L86.428 95.0008L86.1267 94.4582L71.4355 67.8542L73.2105 66.6966L86.6671 57.9328L86.9782 57.7289L115.316 39.2672L117.104 38.1031L157.074 12.0614C159.437 10.5224 162.279 9.90176 165.065 10.3158C167.852 10.7299 170.392 12.1503 172.211 14.3107L202.012 49.7279L203.322 51.3064L224.953 77.0028L225.071 77.1442L235.946 90.0615L237.315 91.6893L237.538 91.9228Z" fill="#166DE0"/>
<path opacity="0.1" d="M224.232 76.7068L221.593 95.1225L220.797 100.68L220.342 112.519L220.306 113.443L217.938 175.299C217.915 175.873 217.767 176.435 217.505 176.945C217.242 177.455 216.871 177.901 216.417 178.252C215.964 178.602 215.44 178.848 214.882 178.973C214.323 179.097 213.745 179.097 213.186 178.973L187.662 173.251L187.387 173.188L121.925 158.518L120.723 158.249L84.7351 150.179L85.5604 94.5634L85.5866 92.7054L85.8355 75.8716L86.1106 57.2915L114.448 38.8298L116.236 37.6657C142.521 40.3721 177.477 45.5779 201.158 49.2906L202.467 50.8691L224.082 76.5654L224.232 76.7068Z" fill="#3D3C40"/>
<path d="M227.222 54.8712L224.114 76.5754L221.265 96.4511L220.469 101.996L220.014 113.834L217.61 176.615C217.588 177.189 217.44 177.751 217.177 178.261C216.914 178.771 216.543 179.217 216.09 179.567C215.637 179.918 215.112 180.164 214.554 180.288C213.996 180.413 213.417 180.413 212.859 180.288L187.059 174.504L121.597 159.834L84.4075 151.494L85.2589 94.0209L85.5078 77.187L85.7993 57.4954L86.0973 37.2415C92.2476 36.9489 102.367 37.6099 114.448 38.8299C141.499 41.5561 178.374 47.0709 202.484 50.8691C217.247 53.1941 227.222 54.8712 227.222 54.8712Z" fill="white"/>
<path d="M227.222 54.8712L224.114 76.5754L221.265 96.4511L220.469 101.996L220.014 113.834L217.61 176.615C217.588 177.189 217.44 177.751 217.177 178.261C216.914 178.771 216.543 179.217 216.09 179.567C215.637 179.918 215.112 180.164 214.554 180.288C213.996 180.413 213.417 180.413 212.859 180.288L187.059 174.504L121.597 159.834L84.4075 151.494L85.2589 94.0209L85.5078 77.187L85.7993 57.4954L86.0973 37.2415C92.2476 36.9489 102.367 37.6099 114.448 38.8299C141.499 41.5561 178.374 47.0709 202.484 50.8691C217.247 53.1941 227.222 54.8712 227.222 54.8712Z" fill="#166DE0"/>
<path d="M235.108 89.6242L221.265 96.4412L150.616 131.234L85.5078 77.2002L72.346 66.2593L70.571 67.4169L85.2622 94.0209L84.4107 151.494L121.6 159.834L126.46 168.637C126.721 169.111 127.077 169.525 127.505 169.853C127.934 170.181 128.426 170.417 128.949 170.544L179.589 182.949C180.456 183.159 181.369 183.064 182.175 182.68C182.981 182.297 183.632 181.648 184.02 180.841L187.052 174.517L212.852 180.301C213.41 180.426 213.989 180.426 214.547 180.302C215.106 180.177 215.63 179.931 216.083 179.581C216.536 179.23 216.908 178.784 217.17 178.274C217.433 177.764 217.581 177.202 217.604 176.628L220.008 113.847L236.425 91.8143L236.471 91.2586L235.108 89.6242Z" fill="#3D3C40" fill-opacity="0.16"/>
<path d="M70.5677 67.4168L64.7286 167.825C64.6745 168.754 64.9516 169.672 65.5103 170.415C66.0689 171.158 66.8726 171.677 67.7775 171.879L222.85 206.458C223.394 206.578 223.957 206.579 224.501 206.462C225.045 206.345 225.559 206.113 226.006 205.781C226.454 205.448 226.825 205.024 227.096 204.536C227.367 204.047 227.53 203.506 227.576 202.949L236.664 91.4854L150.616 133.864L70.5677 67.4168Z" fill="white"/>
<path opacity="0.12" d="M70.5677 67.4168L64.7286 167.825C64.6745 168.754 64.9516 169.672 65.5103 170.415C66.0689 171.158 66.8726 171.677 67.7775 171.879L222.85 206.458C223.394 206.578 223.957 206.579 224.501 206.462C225.045 206.345 225.559 206.113 226.006 205.781C226.454 205.448 226.825 205.024 227.096 204.536C227.367 204.047 227.53 203.506 227.576 202.949L236.664 91.4854L150.616 133.864L70.5677 67.4168Z" fill="#166DE0"/>
<path d="M65.7963 170.123L146.359 120.214C147.552 119.487 148.962 119.208 150.34 119.424C151.718 119.641 152.976 120.34 153.891 121.398L225.997 205.843C226.259 206.146 226.387 205.929 225.997 205.843L65.7963 170.123C65.3378 170.022 65.3967 170.364 65.7963 170.123Z" fill="#3D3C40" fill-opacity="0.16"/>
<path d="M66.3726 170.041L146.103 121.677C147.364 120.913 148.852 120.62 150.307 120.849C151.762 121.079 153.089 121.817 154.055 122.933L225.509 205.452C225.628 205.589 225.7 205.761 225.716 205.941C225.732 206.122 225.691 206.304 225.598 206.46C225.506 206.616 225.367 206.739 225.201 206.811C225.035 206.883 224.851 206.901 224.674 206.863L66.6313 171.623C66.463 171.587 66.3095 171.5 66.1909 171.375C66.0722 171.249 65.9938 171.091 65.9659 170.921C65.938 170.75 65.9619 170.575 66.0344 170.418C66.1069 170.261 66.2247 170.13 66.3726 170.041Z" fill="white"/>
<path opacity="0.16" d="M66.3726 170.041L146.103 121.677C147.364 120.913 148.852 120.62 150.307 120.849C151.762 121.079 153.089 121.817 154.055 122.933L225.509 205.452C225.628 205.589 225.7 205.761 225.716 205.941C225.732 206.122 225.691 206.304 225.598 206.46C225.506 206.616 225.367 206.739 225.201 206.811C225.035 206.883 224.851 206.901 224.674 206.863L66.6313 171.623C66.463 171.587 66.3095 171.5 66.1909 171.375C66.0722 171.249 65.9938 171.091 65.9659 170.921C65.938 170.75 65.9619 170.575 66.0344 170.418C66.1069 170.261 66.2247 170.13 66.3726 170.041Z" fill="#166DE0"/>
</g>
<defs>
<clipPath id="clip0">
<rect width="320" height="213.653" fill="white" transform="translate(0 0.75824)"/>
</clipPath>
</defs>
</svg>
