<svg width="234" height="157" viewBox="0 0 234 157" fill="none" xmlns="http://www.w3.org/2000/svg">
<g clip-path="url(#clip0)">
<path d="M157.091 9.42075C148.752 3.22763 136.246 2.65652 124.977 3.91113C89.581 7.8526 58.571 26.1667 32.024 46.3387C22.4136 53.6415 12.992 61.4579 7.05697 71.0421C-5.01336 90.5642 0.57345 116.185 19.9944 130.393C26.6027 135.228 34.4648 138.754 42.4997 141.814C56.7856 147.253 72.0855 151.373 87.9366 151.812C99.2388 152.125 110.551 150.559 121.639 148.411C152.592 142.401 182.658 131.564 207.366 114.723C218.207 107.338 228.292 98.3723 232.245 87.2861C236.198 76.2 232.355 62.7297 220.449 57.0805C215.524 54.7436 211.185 53.1254 205.546 52.3598C197.245 51.2364 193.217 49.8612 185.607 46.9834C177.748 44.011 168.277 37.8958 169.3 30.1394C170.398 21.824 165.418 15.5937 157.091 9.42075Z" fill="#166DE0" fill-opacity="0.04"/>
<path opacity="0.1" d="M187.112 146.695C197.092 146.695 205.183 145.862 205.183 144.834C205.183 143.806 197.092 142.973 187.112 142.973C177.132 142.973 169.041 143.806 169.041 144.834C169.041 145.862 177.132 146.695 187.112 146.695Z" fill="#3D3C40"/>
<path d="M165.297 59.9366C165.297 59.9366 166.442 53.8735 170.127 53.8418L172.821 59.4359L171.025 60.6865C171.025 60.6865 167.124 60.8112 165.297 59.9366Z" fill="#166DE0"/>
<path opacity="0.1" d="M172.821 59.4354L171.025 60.686C171.025 60.686 168.279 60.7748 166.316 60.2868C165.966 60.203 165.625 60.0856 165.297 59.9361C165.297 59.9361 165.297 59.9023 165.318 59.8389C165.318 59.8389 165.318 59.8241 165.318 59.8157C165.487 59.0548 165.72 58.3098 166.015 57.589C166.13 57.3165 166.258 57.0355 166.396 56.7545C166.936 55.6983 167.693 54.68 168.731 54.1709C169.115 53.9807 169.533 53.8708 169.96 53.8477H170.069H170.123L170.182 53.9723L171.092 55.8609L172.821 59.4354Z" fill="#3D3C40"/>
<path d="M203.412 84.6256C203.412 84.6256 207.284 84.2517 207.623 84.5327C207.962 84.8136 210.162 86.2502 211.463 85.3439C212.765 84.4376 211.897 81.2814 211.897 81.1568C211.897 81.0321 211.773 76.5619 211.773 76.5619L209.45 73.4058L206.541 67.875L200.597 67.2793L200.752 76.0634L200.72 80.5631L203.412 84.6256Z" fill="#166DE0"/>
<path opacity="0.1" d="M203.412 84.6256C203.412 84.6256 207.284 84.2517 207.623 84.5327C207.962 84.8136 210.162 86.2502 211.463 85.3439C212.765 84.4376 211.897 81.2814 211.897 81.1568C211.897 81.0321 211.773 76.5619 211.773 76.5619L209.45 73.4058L206.541 67.875L200.597 67.2793L200.752 76.0634L200.72 80.5631L203.412 84.6256Z" fill="#3D3C40"/>
<path d="M169.352 53.6808C169.352 53.6808 169.043 57.494 166.69 57.5553C166.69 57.5553 166.022 57.1497 165.124 56.4736C163.057 54.9125 159.777 51.9105 160.683 49.1177C161.983 45.1186 168.3 52.4978 168.3 52.4978L168.783 53.0471L169.352 53.6808Z" fill="white"/>
<path d="M169.352 53.6808C169.352 53.6808 169.043 57.494 166.69 57.5553C166.69 57.5553 166.022 57.1497 165.124 56.4736C163.057 54.9125 159.777 51.9105 160.683 49.1177C161.983 45.1186 168.3 52.4978 168.3 52.4978L168.783 53.0471L169.352 53.6808Z" fill="#3D3C40" fill-opacity="0.24"/>
<path opacity="0.1" d="M169.352 53.6806C169.352 53.6806 169.043 57.4939 166.69 57.5551C166.69 57.5551 166.023 57.1495 165.125 56.4735L164.926 56.2136C165.325 56.4238 165.765 56.5435 166.215 56.5643C166.569 56.5785 166.919 56.4837 167.218 56.2923C167.517 56.101 167.751 55.8223 167.889 55.4932C168.137 55.003 168.354 54.4978 168.54 53.9806C168.655 53.6793 168.736 53.3662 168.783 53.0469L169.352 53.6806Z" fill="#3D3C40"/>
<path d="M168.331 60.5925L167.802 59.9038L166.019 57.58L165.11 56.3948C165.509 56.6061 165.95 56.7259 166.4 56.7455C166.992 56.7603 167.655 56.5343 168.074 55.6766C168.321 55.1854 168.538 54.6795 168.725 54.1619C169.018 53.3168 169.014 52.8943 168.909 52.7401C168.804 52.5859 169.566 53.3063 169.933 53.657L169.945 53.6696L170.117 53.8323L170.18 53.959L171.077 55.7695C171.077 55.7695 171.077 55.7949 171.077 55.8456C171.165 56.4265 171.469 60.0749 168.331 60.5925Z" fill="white"/>
<path d="M186.879 141.038C186.879 141.038 184.277 142.758 182.978 142.517C181.678 142.276 180.345 142.956 180.345 142.956C179.448 143.944 178.319 144.686 177.061 145.113C174.968 145.831 172.017 145.548 170.344 144.986C169.553 144.72 169.488 144.378 169.869 143.953C170.288 143.48 171.263 142.912 172.381 142.236C174.518 140.956 176.808 138.433 176.808 138.433C176.808 138.433 176.839 137.799 177.211 137.529C177.441 137.33 177.651 137.109 177.839 136.87C178.172 136.473 178.484 136.059 178.484 136.059L186.136 136.283C186.136 136.283 186.266 136.838 186.368 137.406C186.456 137.775 186.491 138.154 186.475 138.532C186.455 138.67 186.464 138.81 186.5 138.944C186.536 139.078 186.599 139.203 186.684 139.312L186.822 140.579L186.879 141.038Z" fill="#166DE0"/>
<path d="M202.886 143.195C202.794 143.569 202.677 144.238 202.633 144.553L202.606 144.726C202.606 144.726 201.978 146.101 198.552 146.602C195.126 147.103 195.115 145.444 195.115 145.444C195.115 145.444 195.128 145.267 195.149 144.999C195.209 144.268 195.333 142.867 195.425 142.569C195.546 142.164 195.331 140.381 195.331 140.381L195.295 138.519L195.268 137.227L200.967 136.631C201.002 137.061 201.064 137.489 201.151 137.911C201.186 138.146 201.271 138.37 201.4 138.568C201.71 138.912 201.894 140.444 201.894 140.444C201.894 140.444 203.01 142.694 202.886 143.195Z" fill="#166DE0"/>
<path opacity="0.1" d="M186.137 136.283C186.137 136.283 186.267 136.838 186.369 137.407C185.542 137.561 181.93 138.192 181.028 137.751C180.004 137.25 177.807 136.969 177.807 136.969L177.842 136.842C178.175 136.445 178.487 136.031 178.487 136.031L186.137 136.283Z" fill="#3D3C40"/>
<path opacity="0.1" d="M201.151 137.911C199.707 137.664 196.547 138.262 195.291 138.519L195.264 137.227L200.963 136.631C200.999 137.061 201.062 137.489 201.151 137.911Z" fill="#3D3C40"/>
<path d="M204.364 90.5329L204.24 94.9398C204.24 94.9398 204.395 101.66 203.931 102.722C203.466 103.785 203.466 108.067 203.466 108.067C203.466 108.067 203.776 110.097 203.435 110.535C203.093 110.972 203.343 112.597 203.589 113.442C203.836 114.287 203.621 116.38 203.621 116.38L203.558 128.194C203.558 128.194 203.219 131.255 202.784 131.694C202.659 131.824 202.57 131.985 202.527 132.16C202.483 132.336 202.487 132.52 202.537 132.693C202.537 132.693 202.166 134.443 202.258 134.757C202.35 135.072 202.537 135.788 201.825 136.131C201.113 136.473 201.298 137.569 201.298 137.569C199.596 137.162 194.765 138.258 194.765 138.258C194.244 137.172 193.788 136.054 193.403 134.912C193.32 134.68 193.286 134.434 193.305 134.188C193.324 133.943 193.394 133.705 193.511 133.489C193.629 133.273 193.79 133.085 193.985 132.937C194.18 132.79 194.404 132.686 194.642 132.632C195.291 132.537 194.177 131.382 194.177 131.382C194.177 131.382 194.301 131.225 193.991 130.101C193.681 128.977 194.052 126.087 194.146 125.348C194.24 124.609 194.703 120.973 194.703 120.973C194.703 120.973 194.456 116.38 194.642 116.192C194.828 116.004 195.446 114.192 195.138 113.598C194.83 113.004 194.33 109.098 194.33 108.878C194.33 108.659 193.93 103.597 193.93 103.597C193.93 103.597 193.558 100.065 193.652 99.3149C193.746 98.5649 193.403 95.7848 193.403 95.7848C193.403 93.461 192.072 90.9702 192.072 90.9702L192.038 91.0611L189.169 98.6917C189.169 98.6917 188.704 101.003 188.302 102.315C188.048 103.207 187.846 104.113 187.697 105.029L187.67 105.196C187.67 105.266 187.649 105.325 187.643 105.372L187.624 105.498C187.624 105.498 187.834 107.155 187.499 107.687C187.164 108.219 186.787 109.812 186.787 110.25C186.787 110.687 186.818 112.375 186.818 112.375C186.818 112.375 186.942 115.719 186.609 116.095C186.276 116.471 186.452 116.782 186.452 116.782C186.452 116.782 187.009 119.317 186.762 119.969C186.515 120.622 186.701 122.156 186.701 122.156C186.701 122.156 186.205 127.002 186.144 127.252C186.084 127.501 185.741 129.44 186.113 129.596C186.486 129.753 187.195 130.689 187.195 130.689C187.195 130.689 187.352 134.785 186.793 135.095C186.234 135.406 186.544 136.997 186.544 136.997C186.544 136.997 182.057 137.871 181.035 137.371C180.014 136.87 177.814 136.589 177.814 136.589L178.122 135.562C178.103 135.598 177.898 135.932 177.752 134.652C177.599 133.308 178.899 133.963 178.899 133.963C178.899 133.963 179.92 134.215 178.271 132.59C176.621 130.965 177.433 129.307 177.528 129.307C177.622 129.307 177.84 126.903 177.84 126.903C177.84 126.903 178.118 125.464 177.9 124.338C177.683 123.212 177.498 119.712 177.498 119.712C177.498 119.712 177.653 117.056 177.375 116.089C177.096 115.121 177.559 113.368 177.653 112.962C177.747 112.556 177.364 108.847 177.364 108.847C177.364 108.847 177.674 107.098 177.488 105.817C177.302 104.537 177.674 99.8156 177.674 99.8156L178.231 94.3778C178.231 94.3778 178.633 92.6878 178.572 92.0012C178.511 91.3146 179.039 88.9084 179.039 88.9084C179.007 88.396 179.092 87.883 179.286 87.4084C179.596 86.7747 179.719 84.7213 179.719 84.7213L182.693 77.8448L184.158 71.7818L203.818 71.5938C203.818 71.5938 203.891 72.1198 204.01 73.0725C204.129 74.0253 204.297 75.4407 204.483 77.1878C204.655 78.7744 204.843 80.6398 205.025 82.7164C205.62 89.3457 204.364 90.5329 204.364 90.5329Z" fill="#3D3C40"/>
<path d="M202.545 35.8077L197.961 40.7468C197.961 40.7468 192.08 38.3702 192.7 37.559C192.938 37.2442 192.909 36.2513 192.762 35.157C192.553 33.4247 192.08 31.4325 192.08 31.4325C192.08 31.4325 202.359 29.7425 201.499 31.4938C201.182 32.1276 201.237 32.8796 201.434 33.5704C201.683 34.3716 202.058 35.127 202.545 35.8077Z" fill="white"/>
<path d="M202.545 35.8077L197.961 40.7468C197.961 40.7468 192.08 38.3702 192.7 37.559C192.938 37.2442 192.909 36.2513 192.762 35.157C192.553 33.4247 192.08 31.4325 192.08 31.4325C192.08 31.4325 202.359 29.7425 201.499 31.4938C201.182 32.1276 201.237 32.8796 201.434 33.5704C201.683 34.3716 202.058 35.127 202.545 35.8077Z" fill="#3D3C40" fill-opacity="0.24"/>
<path opacity="0.1" d="M201.492 31.4992C201.176 32.133 201.025 32.2006 201.222 32.8914C199.879 34.3427 198.169 35.9356 196.042 35.9356C194.904 35.9374 193.781 35.6719 192.762 35.1603C192.553 33.428 192.08 31.4358 192.08 31.4358C192.08 31.4358 202.359 29.7458 201.492 31.4992Z" fill="#3D3C40"/>
<path opacity="0.1" d="M201.492 31.4992C201.176 32.133 201.025 32.2006 201.222 32.8914C199.879 34.3427 198.169 35.9356 196.042 35.9356C194.904 35.9374 193.781 35.6719 192.762 35.1603C192.553 33.428 192.08 31.4358 192.08 31.4358C192.08 31.4358 202.359 29.7458 201.492 31.4992Z" fill="#3D3C40"/>
<path d="M203.414 28.3058C203.381 30.2572 202.59 32.1175 201.212 33.4858C199.833 34.8541 197.977 35.6209 196.043 35.6209C194.11 35.6209 192.254 34.8541 190.875 33.4858C189.496 32.1175 188.705 30.2572 188.673 28.3058C188.673 28.2699 188.673 28.234 188.673 28.2002C188.687 26.2274 189.476 24.341 190.868 22.9559C191.557 22.2701 192.374 21.728 193.27 21.3606C194.167 20.9932 195.127 20.8077 196.095 20.8146C197.062 20.8216 198.019 21.0208 198.911 21.4011C199.802 21.7813 200.611 22.335 201.29 23.0306C201.97 23.7263 202.507 24.5501 202.871 25.4553C203.235 26.3604 203.419 27.329 203.412 28.3058H203.414Z" fill="white"/>
<path d="M203.414 28.3058C203.381 30.2572 202.59 32.1175 201.212 33.4858C199.833 34.8541 197.977 35.6209 196.043 35.6209C194.11 35.6209 192.254 34.8541 190.875 33.4858C189.496 32.1175 188.705 30.2572 188.673 28.3058C188.673 28.2699 188.673 28.234 188.673 28.2002C188.687 26.2274 189.476 24.341 190.868 22.9559C191.557 22.2701 192.374 21.728 193.27 21.3606C194.167 20.9932 195.127 20.8077 196.095 20.8146C197.062 20.8216 198.019 21.0208 198.911 21.4011C199.802 21.7813 200.611 22.335 201.29 23.0306C201.97 23.7263 202.507 24.5501 202.871 25.4553C203.235 26.3604 203.419 27.329 203.412 28.3058H203.414Z" fill="#3D3C40" fill-opacity="0.24"/>
<path opacity="0.1" d="M204.479 77.3793C203.504 77.3793 200.253 77.4152 196.62 77.4722H196.576L195.377 77.4934H195.339C191.032 77.5631 186.785 76.7138 185.083 76.8744C181.463 77.2166 186.385 73.4943 186.385 73.4943C189.085 74.1564 191.862 74.4408 194.638 74.3393L195.684 74.2844C198.975 74.0963 202.284 73.7837 204.012 73.2598C204.128 74.2273 204.293 75.6322 204.479 77.3793Z" fill="#3D3C40"/>
<path d="M204.479 77.1916C203.504 77.1916 200.253 77.2276 196.62 77.2846H196.576L195.377 77.3057H195.339C191.032 77.3754 186.785 76.5262 185.083 76.6867C181.463 77.0311 186.385 73.3066 186.385 73.3066C189.085 73.9688 191.862 74.2531 194.638 74.1516L195.684 74.0967C198.975 73.9087 202.284 73.596 204.012 73.0742C204.128 74.0418 204.293 75.4403 204.479 77.1916Z" fill="#166DE0"/>
<path opacity="0.1" d="M194.062 37.87L188.365 40.5593L183.97 74.8737C183.97 74.8737 186.569 73.6865 188.057 74.4364C189.545 75.1864 194.127 74.4998 194.127 74.4998C194.127 74.4998 197.476 74.3118 197.968 74.6878C198.459 75.0639 204.28 73.1161 204.28 73.1161C204.28 73.1161 205.327 70.7416 204.527 70.3697C203.727 69.9979 204.782 66.3115 204.782 66.3115L204.28 41.5585L203.288 38.3707L200.626 36.7461L197.905 38.9326L196.605 39.1206L194.062 37.87Z" fill="#3D3C40"/>
<path d="M194.062 37.4971L188.365 40.1843L183.97 74.5008C183.97 74.5008 186.569 73.3136 188.057 74.0635C189.545 74.8135 194.127 74.1248 194.127 74.1248C194.127 74.1248 197.476 73.9389 197.968 74.3128C198.459 74.6868 204.284 72.7495 204.284 72.7495C204.284 72.7495 205.331 70.375 204.531 70.0032C203.732 69.6314 204.782 65.9344 204.782 65.9344L204.28 41.1835L203.288 37.9978L200.626 36.3711L197.905 38.5597L196.605 38.7477L194.062 37.4971Z" fill="white"/>
<path opacity="0.1" d="M193.968 39.0895C193.968 39.0895 195.609 41.0584 195.58 41.4662C195.55 41.8739 195.485 42.8414 195.485 42.8414L194.246 45.3765C194.246 45.3765 193.566 48.5327 193.566 49.1897C193.566 49.8467 192.482 55.5274 192.482 55.5274L191.178 64.2798L189.537 75.7511L191.212 78.6558L193.192 76.9658L195.825 56.5246L196.381 52.4938C196.381 52.4938 196.969 45.2434 196.969 44.4935C196.969 43.7435 196.63 41.7746 196.63 41.7746C196.63 41.7746 197.032 39.8986 198.704 39.4508C200.377 39.0029 198.581 39.3557 198.581 39.3557L197.62 38.5762L196.783 38.9184C196.783 38.9184 194.464 38.2149 193.968 39.0895Z" fill="#3D3C40"/>
<path d="M193.782 38.903C193.782 38.903 195.425 40.8719 195.394 41.2776C195.362 41.6832 195.3 42.6528 195.3 42.6528L194.063 45.1879C194.063 45.1879 193.38 48.3441 193.38 49.0011C193.38 49.6581 192.296 55.3388 192.296 55.3388L190.996 64.0891L189.355 75.5603L191.03 78.4672L193.012 76.7772L195.643 56.3381L196.202 52.3094C196.202 52.3094 196.79 45.0591 196.79 44.3091C196.79 43.5591 196.451 41.5902 196.451 41.5902C196.451 41.5902 196.853 39.7143 198.525 39.277C200.197 38.8396 198.401 39.184 198.401 39.184L197.441 38.4023L196.603 38.7467C196.603 38.7467 194.278 38.0263 193.782 38.903Z" fill="#579EFF"/>
<path opacity="0.1" d="M192.7 35.6211C192.7 35.6211 192.451 35.8091 192.39 37.0598C192.33 38.3104 191.461 41.1222 191.461 41.1222C191.461 41.1222 194.682 38.8723 196.292 39.1216L192.7 35.6211Z" fill="#3D3C40"/>
<path d="M192.7 35.2461C192.7 35.2461 192.451 35.432 192.39 36.6826C192.33 37.9333 191.461 40.7451 191.461 40.7451C191.461 40.7451 194.682 38.4952 196.292 38.7466L192.7 35.2461Z" fill="white"/>
<path opacity="0.1" d="M201.492 34.6211L196.41 39.1209C196.41 39.1209 200.684 41.6834 201.241 42.3087C201.798 42.9341 202.354 36.1823 202.354 36.1823L201.492 34.6211Z" fill="#3D3C40"/>
<path d="M201.679 34.2441L196.602 38.746C196.602 38.746 200.873 41.3086 201.434 41.9339C201.995 42.5592 202.548 35.8074 202.548 35.8074L201.679 34.2441Z" fill="white"/>
<path opacity="0.1" d="M192.884 35.6211C192.884 35.6211 192.327 35.3402 191.802 36.1535C191.415 36.6837 190.889 37.0947 190.284 37.3408C190.284 37.3408 184.648 38.2471 184.424 38.997L181.791 39.1533C181.791 39.1533 180.862 39.278 180.769 41.2469C180.677 43.2158 180.181 43.4038 180.181 43.4038C180.181 43.4038 179.097 45.3411 179.191 46.3403C179.285 47.3396 178.354 47.8423 178.354 47.8423L182.224 57.9996C182.224 57.9996 182.35 62.1867 181.636 63.7183C180.922 65.2499 179.593 72.0313 179.593 72.0313C179.593 72.0313 180.15 71.9066 180.118 72.2806C180.087 72.6545 179.457 76.7508 179.457 76.7508C179.457 76.7508 179.271 78.3753 178.961 78.9394C178.651 79.5034 178.62 82.4378 178.62 82.4378L178.126 84.563C178.126 84.563 179.302 87.2207 181.098 86.8446C182.894 86.4686 186.144 79.3767 186.144 79.3767L188.22 71.7186L189.83 64.1556L190.295 59.0305L191.038 47.686L192.122 40.1843C192.122 40.1843 193.319 36.1472 192.884 35.6211Z" fill="#3D3C40"/>
<path d="M192.699 35.2463C192.699 35.2463 192.141 34.9653 191.615 35.7765C191.229 36.3074 190.704 36.7187 190.098 36.9638C190.098 36.9638 184.464 37.8701 184.238 38.62L181.605 38.7764C181.605 38.7764 180.677 38.9031 180.583 40.872C180.489 42.841 179.995 43.0269 179.995 43.0269C179.995 43.0269 178.911 44.9662 179.005 45.9655C179.099 46.9647 178.168 47.4654 178.168 47.4654L182.04 57.6226C182.04 57.6226 182.163 61.8097 181.452 63.3413C180.74 64.873 179.407 71.6564 179.407 71.6564C179.407 71.6564 179.964 71.5297 179.934 71.9057C179.905 72.2817 179.252 76.3738 179.252 76.3738C179.252 76.3738 179.066 78.0005 178.756 78.5624C178.446 79.1244 178.417 82.0629 178.417 82.0629L177.921 84.1882C177.921 84.1882 179.097 86.8437 180.893 86.4698C182.689 86.0958 185.945 78.9997 185.945 78.9997L188.02 71.3438L189.629 63.7808L190.094 58.6536L190.837 47.309L191.921 39.8094C191.921 39.8094 193.133 35.7765 192.699 35.2463Z" fill="#166DE0"/>
<path opacity="0.1" d="M172.821 59.4344L171.025 60.6851C171.025 60.6851 168.279 60.7738 166.316 60.2858L165.318 59.8379L165.108 59.7492L165.318 59.8147C166.354 60.1253 167.164 60.1189 167.798 59.9034C170.339 59.0394 170.058 54.8037 169.96 53.8467C169.96 53.7495 169.943 53.6883 169.939 53.665C169.939 53.6608 169.939 53.6566 169.939 53.6523L169.954 53.6777C169.989 53.7354 170.028 53.7905 170.071 53.8425C170.106 53.8826 170.144 53.9249 170.184 53.965L171.082 55.7755C171.082 55.7755 171.082 55.8008 171.082 55.8515L172.821 59.4344Z" fill="#3D3C40"/>
<path d="M179.039 47.2168L178.171 47.4661L178.047 49.247C178.047 49.247 177.026 49.0906 176.748 50.3033C176.469 51.5159 175.973 52.0863 175.973 52.0863C175.973 52.0863 174.269 53.5228 174.177 54.7418L173.131 55.3988C173.131 55.3988 170.684 54.8347 170.127 53.8355C170.127 53.8355 171.243 61.8992 165.297 59.9302C165.297 59.9302 171.955 62.8667 172.264 63.2744C172.574 63.6822 174.617 64.8673 176.475 63.8681C178.334 62.8688 178.736 61.333 178.736 61.333C178.736 61.333 180.532 58.7979 180.592 58.4261C180.653 58.0543 182.057 57.6128 182.057 57.6128L184.72 51.1124L179.039 47.2168Z" fill="#166DE0"/>
<path opacity="0.1" d="M200.781 38.37L201.679 34.2441C201.679 34.2441 202.081 35.5877 202.485 35.9004L203.816 36.9334C203.816 36.9334 205.147 37.5566 205.612 37.5566C206.076 37.5566 208.584 38.2137 208.893 38.558C209.203 38.9024 210.442 38.651 210.442 38.651C210.442 38.651 211.464 38.9953 212.361 39.2129C213.259 39.4305 213.693 40.9325 213.506 41.5367C213.431 41.8324 213.431 42.1426 213.507 42.4382C213.582 42.7339 213.731 43.0052 213.94 43.2268C214.312 43.6028 214.498 44.8218 214.498 44.8218C214.952 44.9729 215.328 45.2986 215.545 45.7281C215.855 46.4146 215.754 47.9146 215.754 47.9146L211.15 54.4783C211.15 54.4783 211.21 57.0134 211.026 57.5732C210.842 58.1331 211.675 67.6988 211.675 67.6988L212.636 84.1367C212.636 84.1367 211.365 85.231 211.087 85.3556C210.808 85.4803 210.53 79.544 210.53 79.3243C210.53 79.1045 203.378 68.51 203.378 68.51C203.378 68.51 202.418 66.9488 202.418 66.6087C202.418 66.2686 201.52 63.1082 201.52 63.1082L200.157 57.0134L200.781 38.37Z" fill="#3D3C40"/>
<path d="M216.149 47.5533C216.149 47.7646 216.149 47.9125 216.149 47.9125L211.545 54.4614C211.545 54.4614 211.608 56.9965 211.423 57.5542C211.315 57.8817 211.551 61.2449 211.771 64.0081C211.926 66.0003 212.072 67.6798 212.072 67.6798L212.48 74.6513L213.031 84.1156C213.031 84.1156 211.763 85.2099 211.484 85.3345C211.206 85.4592 210.927 79.5228 210.927 79.3031C210.927 79.0834 203.774 68.491 203.774 68.491C203.774 68.491 202.813 66.9256 202.813 66.5897C202.813 66.2538 201.915 63.0892 201.915 63.0892L200.555 56.9944L201.172 38.3679L201.679 34.2441C201.679 34.2441 202.453 35.5898 202.855 35.9004L204.186 36.9313C204.186 36.9313 205.517 37.5651 205.982 37.5651C206.446 37.5651 208.956 38.22 209.266 38.5643C209.575 38.9087 210.812 38.6573 210.812 38.6573C210.812 38.6573 211.834 39.0016 212.732 39.2192C213.629 39.4368 214.065 40.9389 213.879 41.5431C213.803 41.8387 213.803 42.149 213.878 42.4447C213.954 42.7404 214.103 43.0118 214.312 43.2331C214.682 43.607 214.869 44.826 214.869 44.826C215.322 44.9785 215.698 45.3047 215.915 45.7344C216.137 46.1886 216.158 47.0569 216.149 47.5533Z" fill="#166DE0"/>
<path opacity="0.1" d="M178.303 130.818C178.456 130.818 184.958 131.068 184.835 132.13C184.711 133.193 178.303 130.818 178.303 130.818Z" fill="#3D3C40"/>
<path opacity="0.1" d="M179.757 132.6C179.757 132.6 184.123 133.318 182.976 133.975C181.829 134.632 179.757 132.6 179.757 132.6Z" fill="#3D3C40"/>
<path opacity="0.1" d="M195.992 130.131C195.992 130.131 203.238 130.765 202.154 131.57C201.07 132.374 198.5 132.505 198.387 132.537C198.274 132.569 195.992 130.131 195.992 130.131Z" fill="#3D3C40"/>
<path opacity="0.1" d="M195.115 133.35C195.115 133.35 199.14 134.036 199.264 134.828C199.387 135.621 195.115 133.35 195.115 133.35Z" fill="#3D3C40"/>
<path opacity="0.1" d="M197.345 114.535C197.345 114.535 201.028 115.41 201.246 116.014L197.345 114.535Z" fill="#3D3C40"/>
<path opacity="0.1" d="M183.131 117.223C183.131 117.223 181.212 117.785 183.07 118.913C184.929 120.041 183.131 117.223 183.131 117.223Z" fill="#3D3C40"/>
<path opacity="0.1" d="M191.647 87.1872C191.857 87.1872 195.239 86.0633 196.415 86.5534C197.257 86.8727 198.147 87.0435 199.046 87.0583L191.647 87.1872Z" fill="#3D3C40"/>
<path opacity="0.1" d="M192.08 90.7507L192.047 91.0613L189.169 98.6919C189.169 98.6919 188.704 101.003 188.302 102.315C188.048 103.207 187.846 104.114 187.697 105.03L190.253 89.0332L192.08 90.7507Z" fill="#3D3C40"/>
<path d="M196.576 77.2835L195.377 77.3046H195.339L194.636 74.1547L195.682 74.0977L196.576 77.2835Z" fill="#3D3C40"/>
<path d="M211.185 73.4691L210.413 74.1028L207.84 76.2429C207.84 76.2429 200.873 79.9948 198.953 76.4309C197.262 73.2916 205.161 71.0502 207.064 70.5622C207.321 70.4967 207.468 70.4629 207.468 70.4629L211.185 73.4691Z" fill="white"/>
<path d="M211.185 73.4691L210.413 74.1028L207.84 76.2429C207.84 76.2429 200.873 79.9948 198.953 76.4309C197.262 73.2916 205.161 71.0502 207.064 70.5622C207.321 70.4967 207.468 70.4629 207.468 70.4629L211.185 73.4691Z" fill="#3D3C40" fill-opacity="0.24"/>
<path opacity="0.1" d="M181.43 42.7461C181.43 42.7461 182.792 43.3799 183.104 44.246C183.416 45.1122 181.43 42.7461 181.43 42.7461Z" fill="#3D3C40"/>
<path opacity="0.1" d="M177.219 52.1211C177.219 52.1211 175.237 54.559 176.042 55.5012C176.848 56.4434 177.219 52.1211 177.219 52.1211Z" fill="#3D3C40"/>
<path opacity="0.1" d="M212.64 44.1211C212.64 44.1211 210.781 44.3091 210.721 45.9337L212.64 44.1211Z" fill="#3D3C40"/>
<path opacity="0.1" d="M195.425 69.7479C195.609 69.5599 199.883 63.1842 200.867 63.7482L195.425 69.7479Z" fill="#3D3C40"/>
<path opacity="0.1" d="M203.414 28.3058C203.416 29.5311 203.116 30.7376 202.541 31.8169L202.487 31.8063C202.02 31.707 201.777 31.1578 201.419 30.8155C201.2 30.6044 200.92 30.468 200.62 30.4255C200.319 30.3831 200.013 30.4367 199.745 30.5789C199.474 30.743 199.254 30.9799 199.109 31.2631C198.964 31.5463 198.9 31.8646 198.924 32.1824C198.688 31.181 198.763 30.1184 198.533 29.1149C198.303 28.1115 197.61 27.0974 196.66 27.0805C196.241 27.0805 195.774 27.2305 195.477 26.9221C195.299 26.7362 195.268 26.4425 195.13 26.2144C194.452 25.1074 192.386 25.6672 191.542 26.2355C190.699 26.8038 189.721 27.7143 188.673 28.2002C188.687 26.2274 189.476 24.341 190.868 22.9559C191.557 22.2701 192.374 21.728 193.27 21.3606C194.167 20.9932 195.127 20.8077 196.095 20.8146C197.062 20.8216 198.019 21.0208 198.911 21.4011C199.802 21.7813 200.611 22.335 201.29 23.0306C201.97 23.7262 202.507 24.5501 202.871 25.4553C203.235 26.3604 203.419 27.329 203.412 28.3058H203.414Z" fill="#3D3C40"/>
<path d="M195.132 26.0287C195.266 26.2548 195.302 26.5484 195.48 26.7343C195.775 27.0449 196.254 26.8843 196.662 26.8928C197.612 26.9097 198.305 27.9237 198.535 28.9272C198.765 29.9306 198.69 30.9933 198.927 31.9946C198.902 31.6766 198.966 31.3579 199.112 31.0747C199.257 30.7914 199.478 30.5547 199.749 30.3912C200.018 30.249 200.324 30.1953 200.624 30.2378C200.924 30.2802 201.204 30.4166 201.424 30.6278C201.781 30.97 202.024 31.5193 202.491 31.6186C202.958 31.7179 203.408 31.2658 203.577 30.7736C203.747 30.2813 203.734 29.7321 203.845 29.2166C204.054 28.2427 204.682 27.442 205.034 26.5146C205.449 25.3869 205.438 24.1446 205.003 23.0247C204.77 22.4374 204.425 21.9092 204.188 21.324C203.833 20.4325 203.74 19.4227 203.305 18.5777C202.577 17.1559 200.861 16.4461 199.448 16.9806C198.776 17.2341 198.192 17.7284 197.508 17.9503C196.593 18.2481 195.613 18.0242 194.667 17.8911C193.721 17.758 192.673 17.7453 191.911 18.3728C191.034 19.0974 190.795 20.4579 189.971 21.2522C189.625 21.586 189.196 21.7994 188.832 22.0972C188.468 22.3951 188.152 22.8641 188.204 23.3648C188.259 24.0112 188.887 24.5985 188.654 25.1985C188.571 25.3725 188.454 25.5282 188.311 25.6569C187.622 26.3864 187.109 27.2671 186.812 28.23C188.468 28.7539 190.262 26.9097 191.559 26.0372C192.39 25.4816 194.454 24.9196 195.132 26.0287Z" fill="#3D3C40"/>
<path opacity="0.1" d="M211.185 73.4691L210.413 74.1028C209.732 72.962 206.942 70.6805 206.942 70.6805L207.064 70.5622C207.321 70.4967 207.468 70.4629 207.468 70.4629L211.185 73.4691Z" fill="#3D3C40"/>
<path d="M211.928 72.3123C211.928 72.3123 211.65 73.0094 211.365 73.6094C211.08 74.2094 210.766 74.7587 210.752 74.3129C210.72 73.4383 207.129 70.4997 207.129 70.4997L207.617 70.0222L208.18 69.4688L211.928 72.3123Z" fill="white"/>
<path opacity="0.1" d="M212.052 67.6853L212.46 74.6568C211.497 73.1463 208.856 69.2761 207.158 69.4007L211.271 64.6242C211.442 64.4318 211.6 64.2278 211.744 64.0137C211.899 66.0058 212.052 67.6853 212.052 67.6853Z" fill="#3D3C40"/>
<path opacity="0.1" d="M211.929 72.3106C211.929 72.3106 211.65 73.0078 211.366 73.6078C210.286 72.1142 208.802 70.3502 207.617 70.0164L208.18 69.4629L211.929 72.3106Z" fill="#3D3C40"/>
<path d="M215.023 47.0273L216.139 47.9019C216.139 47.9019 217.995 47.9336 218.182 49.4969C218.368 51.0602 220.065 51.7785 220.065 51.7785C220.065 51.7785 221.334 53.0587 221.334 53.6524C221.334 54.246 222.294 55.3086 222.294 55.4037C222.294 55.4987 223.224 57.4043 223.098 57.7465C222.972 58.0887 224.09 59.5908 223.749 60.1527C223.469 60.6577 223.221 61.1798 223.006 61.716C223.006 61.716 221.551 64.53 220.808 65.0602C220.065 65.5905 216.658 70.0607 216.658 70.0607C216.658 70.0607 213.006 74.3112 213.006 75.6231C213.006 75.6231 209.448 69.6234 207.338 69.7797L211.457 64.9969C211.457 64.9969 212.168 64.2173 212.2 63.7483C212.231 63.2793 214.182 61.1224 215.111 61.0294C215.111 61.0294 215.264 59.7471 214.862 59.7154C214.46 59.6837 214.119 58.6845 214.119 58.6845C214.119 58.6845 211.398 55.4354 211.363 53.3714C211.327 51.3074 215.023 47.0273 215.023 47.0273Z" fill="#166DE0"/>
<path opacity="0.1" d="M216.665 49.9961C216.665 49.9961 214.065 51.9354 214.622 52.5586C215.179 53.1818 216.665 49.9961 216.665 49.9961Z" fill="#3D3C40"/>
<path opacity="0.1" d="M216.788 57.9995C216.788 57.9995 221.619 56.4361 222.115 57.9995H216.788Z" fill="#3D3C40"/>
<path opacity="0.1" d="M186.879 141.038C186.879 141.038 184.277 142.758 182.978 142.517C181.678 142.276 180.345 142.957 180.345 142.957C179.448 143.944 178.319 144.686 177.061 145.114C174.968 145.832 172.017 145.549 170.344 144.987C169.553 144.721 169.488 144.378 169.869 143.954C171.688 144.319 175.751 145.048 176.845 144.518C178.268 143.829 180.313 142.329 180.313 142.329C180.313 142.329 182.978 141.955 183.348 141.955C183.612 141.955 185.669 141.098 186.831 140.607L186.879 141.038Z" fill="#3D3C40"/>
<path opacity="0.1" d="M202.633 144.553L202.606 144.726C202.606 144.726 201.978 146.101 198.552 146.602C195.126 147.103 195.115 145.444 195.115 145.444C195.115 145.444 195.128 145.267 195.149 144.998C196.237 145.415 198.61 145.879 202.633 144.553Z" fill="#3D3C40"/>
<path opacity="0.1" d="M182.715 49.623C182.715 49.623 182.715 56.7487 182.11 57.4522C181.505 58.1557 182.715 49.623 182.715 49.623Z" fill="#3D3C40"/>
<path opacity="0.1" d="M210.626 51.918L211.524 54.4657C211.524 54.4657 211.882 51.9644 210.626 51.918Z" fill="#3D3C40"/>
<g opacity="0.1">
<path opacity="0.1" d="M192.671 9.91616C192.93 9.24765 192.25 8.59356 192.161 7.87695C192.071 8.0791 192.032 8.30055 192.049 8.52142C192.094 9.06008 192.489 9.56266 192.595 10.0628C192.624 10.0163 192.65 9.96718 192.671 9.91616Z" fill="#3D3C40"/>
<path opacity="0.1" d="M204.43 17.5783C204.176 16.4577 204.25 15.2698 203.991 14.1468C203.733 13.0238 202.935 11.8503 201.85 11.8311C201.371 11.8311 200.835 12.0042 200.497 11.6531C200.291 11.4415 200.258 11.1049 200.097 10.8475C199.321 9.58507 196.96 10.2247 195.993 10.8716C194.556 11.8335 192.554 13.8607 190.696 13.4038C190.607 13.6178 190.526 13.8366 190.456 14.0602C192.35 14.6566 194.403 12.5573 195.887 11.5642C196.845 10.9197 199.216 10.28 199.992 11.5425C200.145 11.7998 200.186 12.1341 200.39 12.3457C200.727 12.6992 201.276 12.5164 201.743 12.526C202.83 12.5453 203.622 13.6995 203.886 14.8418C204.149 15.984 204.063 17.1936 204.334 18.3334C204.316 18.0779 204.349 17.8214 204.43 17.5783Z" fill="#3D3C40"/>
<path opacity="0.1" d="M209.755 16.2463C209.564 16.809 209.058 17.3284 208.512 17.2081C207.966 17.0879 207.7 16.4699 207.293 16.0779C207.041 15.8401 206.721 15.6868 206.378 15.639C206.035 15.5912 205.685 15.6513 205.378 15.811C205.082 15.9878 204.839 16.2406 204.674 16.5433C204.508 16.846 204.426 17.1876 204.436 17.5328C204.58 17.0984 204.877 16.7321 205.272 16.5036C205.579 16.3417 205.93 16.2806 206.273 16.3289C206.617 16.3772 206.937 16.5325 207.188 16.7729C207.597 17.1624 207.875 17.7877 208.409 17.9007C208.943 18.0137 209.458 17.4991 209.652 16.9388C209.753 16.6061 209.818 16.2635 209.846 15.9168C209.823 16.0285 209.792 16.1385 209.755 16.2463Z" fill="#3D3C40"/>
<path opacity="0.1" d="M211.422 11.3968C211.025 12.4524 210.301 13.3614 210.062 14.4724C210.014 14.696 209.985 14.9245 209.959 15.1553C210.198 14.0492 210.917 13.1426 211.317 12.0893C211.493 11.6155 211.604 11.1194 211.645 10.6152C211.59 10.881 211.516 11.1423 211.422 11.3968Z" fill="#3D3C40"/>
</g>
<path d="M160.226 37.1608C160.275 37.1608 160.314 37.1213 160.314 37.0726C160.314 37.0239 160.275 36.9844 160.226 36.9844C160.178 36.9844 160.139 37.0239 160.139 37.0726C160.139 37.1213 160.178 37.1608 160.226 37.1608Z" fill="#E6E8EC"/>
<ellipse cx="96.1594" cy="136.012" rx="96.1594" ry="3.65626" fill="#3D3C40" fill-opacity="0.08"/>
<rect x="15.459" y="36.5625" width="157.116" height="98.7188" fill="white"/>
<rect opacity="0.24" x="15.459" y="36.5625" width="157.116" height="98.7188" fill="#166DE0"/>
<rect x="21.0205" y="42.125" width="145.993" height="86.9003" fill="white"/>
<rect opacity="0.08" x="26.3252" y="103.838" width="136.013" height="19.7438" rx="3" fill="#06D6A0"/>
<rect opacity="0.16" x="32.1436" y="54.6387" width="84.8147" height="4.17121" rx="2.0856" fill="#166DE0"/>
<rect opacity="0.16" x="139.9" y="54.6387" width="15.2945" height="4.17121" rx="2.0856" fill="#166DE0"/>
<rect opacity="0.16" x="32.1436" y="67.1523" width="84.8147" height="4.17121" rx="2.08561" fill="#166DE0"/>
<rect opacity="0.16" x="139.9" y="67.1523" width="15.2945" height="4.17121" rx="2.08561" fill="#166DE0"/>
<rect opacity="0.16" x="32.1436" y="79.666" width="84.8147" height="4.17122" rx="2.08561" fill="#166DE0"/>
<rect opacity="0.16" x="139.9" y="79.666" width="15.2945" height="4.17122" rx="2.08561" fill="#166DE0"/>
<rect opacity="0.16" x="32.1436" y="92.1797" width="84.8147" height="4.17121" rx="2.08561" fill="#166DE0"/>
<rect opacity="0.24" x="32.1436" y="111.15" width="84.8147" height="4.17121" rx="2.08561" fill="#06D6A0"/>
<rect opacity="0.16" x="139.9" y="92.1777" width="15.2945" height="4.17121" rx="2.08561" fill="#166DE0"/>
<rect x="130.167" y="110.254" width="25.7225" height="6.95203" rx="3.47601" fill="#06D6A0"/>
<ellipse cx="46.4344" cy="143.691" rx="13.5281" ry="1.82812" fill="#3D3C40" fill-opacity="0.08"/>
<path d="M40.3034 144.029C40.3034 144.029 34.4098 124.019 41.4096 109.29C44.348 103.11 45.3227 96.17 43.9658 89.4617C43.3169 86.2767 42.3773 83.1579 41.1587 80.1445" stroke="#3D3C40" stroke-width="2" stroke-miterlimit="10"/>
<path d="M45.5046 70.8488C45.5046 73.3024 41.0634 80.4049 41.0634 80.4049C41.0634 80.4049 36.6223 73.2928 36.6223 70.8488C36.6086 70.2571 36.7133 69.6686 36.9302 69.1179C37.1472 68.5672 37.472 68.0655 37.8857 67.6421C38.2993 67.2187 38.7934 66.8823 39.3389 66.6527C39.8844 66.423 40.4704 66.3047 41.0623 66.3047C41.6541 66.3047 42.2401 66.423 42.7856 66.6527C43.3311 66.8823 43.8252 67.2187 44.2388 67.6421C44.6525 68.0655 44.9773 68.5672 45.1943 69.1179C45.4113 69.6686 45.5159 70.2571 45.5022 70.8488H45.5046Z" fill="#166DE0"/>
<path d="M52.8531 84.4327C51.52 86.4921 43.9277 90.0469 43.9277 90.0469C43.9277 90.0469 44.0663 81.6639 45.3994 79.6046C46.0532 78.6482 47.055 77.9851 48.1908 77.7569C49.3267 77.5287 50.5067 77.7534 51.4792 78.3831C52.4517 79.0127 53.1397 79.9975 53.3964 81.1272C53.653 82.257 53.4581 83.4423 52.8531 84.4304V84.4327Z" fill="#166DE0"/>
<path d="M52.5301 107.647C50.3394 108.751 41.9922 107.989 41.9922 107.989C41.9922 107.989 46.3426 100.822 48.5333 99.718C49.5815 99.2153 50.7851 99.1436 51.8855 99.5183C52.986 99.8931 53.8957 100.684 54.4192 101.722C54.9427 102.76 55.0384 103.962 54.6856 105.07C54.3329 106.178 53.5598 107.103 52.5325 107.647H52.5301Z" fill="#166DE0"/>
<path d="M48.333 125.156C46.3621 126.613 38.0029 127.272 38.0029 127.272C38.0029 127.272 41.08 119.475 43.0509 118.015C43.5194 117.663 44.053 117.406 44.6209 117.261C45.1889 117.116 45.78 117.085 46.3601 117.169C46.9402 117.254 47.4978 117.452 48.0008 117.753C48.5039 118.054 48.9423 118.452 49.2909 118.923C49.6396 119.394 49.8914 119.93 50.032 120.499C50.1726 121.068 50.1991 121.659 50.1101 122.239C50.021 122.818 49.8181 123.374 49.5131 123.875C49.2081 124.376 48.807 124.811 48.333 125.156Z" fill="#166DE0"/>
<path d="M34.6026 90.5222C36.361 92.2303 44.5576 94.0006 44.5576 94.0006C44.5576 94.0006 42.5509 85.8613 40.7926 84.1508C40.3778 83.7281 39.8827 83.3927 39.3364 83.1642C38.7902 82.9358 38.2037 82.8188 37.6116 82.8203C37.0194 82.8218 36.4336 82.9417 35.8885 83.173C35.3433 83.4042 34.85 83.7421 34.4374 84.1668C34.0247 84.5915 33.7012 85.0945 33.4859 85.6461C33.2705 86.1976 33.1676 86.7867 33.1832 87.3786C33.1988 87.9706 33.3326 88.5534 33.5768 89.0928C33.821 89.6323 34.1706 90.1175 34.605 90.5198L34.6026 90.5222Z" fill="#166DE0"/>
<path d="M29.9538 111.061C32.1445 112.165 40.4917 111.403 40.4917 111.403C40.4917 111.403 36.1413 104.236 33.9506 103.132C32.9024 102.629 31.6989 102.558 30.5984 102.932C29.4979 103.307 28.5882 104.098 28.0647 105.136C27.5412 106.174 27.4455 107.376 27.7983 108.484C28.151 109.592 28.9241 110.517 29.9514 111.061H29.9538Z" fill="#166DE0"/>
<path d="M28.1744 131.645C30.1453 133.102 38.5044 133.761 38.5044 133.761C38.5044 133.761 35.4274 125.961 33.4541 124.504C32.5065 123.815 31.325 123.528 30.1669 123.706C29.0088 123.884 27.9679 124.512 27.2711 125.454C26.5743 126.396 26.278 127.576 26.4467 128.735C26.6155 129.895 27.2356 130.94 28.172 131.645H28.1744Z" fill="#166DE0"/>
</g>
<defs>
<clipPath id="clip0">
<rect width="234" height="156.234" fill="white"/>
</clipPath>
</defs>
</svg>
