<?xml version="1.0" encoding="UTF-8"?><!DOCTYPE svg PUBLIC "-//W3C//DTD SVG 1.1//EN" "http://www.w3.org/Graphics/SVG/1.1/DTD/svg11.dtd"><svg xmlns="http://www.w3.org/2000/svg" xmlns:xlink="http://www.w3.org/1999/xlink" version="1.1" width="24" height="24" viewBox="0 0 24 24"><path d="M7.9,7.9c1.8-1.8,4.3-2.6,6.6-2.4c-0.6,0.8-1.1,1.8-1.2,2.8C12,8.4,10.8,9,9.9,9.9C9,10.8,8.4,12,8.2,13.3
	c-1,0.2-2,0.6-2.8,1.2C5.2,12.1,6.1,9.7,7.9,7.9 M6.5,6.4c-3.5,3.5-4,8.9-1.4,12.8c0-1,0.4-2.1,1.2-2.9c1.1-1.1,2.6-1.4,4-1.1
	c-0.4-1.3-0.1-2.9,1.1-4c1.1-1.1,2.6-1.4,4-1.1c-0.4-1.3,0-2.9,1.1-4c0.8-0.8,1.8-1.2,2.8-1.2C15.3,2.5,10,2.9,6.5,6.4L6.5,6.4z
	 M20.6,19.2l-1.4,1.4l-7.1-7.1l1.4-1.4L20.6,19.2z"/></svg>