<?xml version="1.0" encoding="UTF-8"?><!DOCTYPE svg PUBLIC "-//W3C//DTD SVG 1.1//EN" "http://www.w3.org/Graphics/SVG/1.1/DTD/svg11.dtd"><svg xmlns="http://www.w3.org/2000/svg" xmlns:xlink="http://www.w3.org/1999/xlink" version="1.1" width="24" height="24" viewBox="0 0 24 24"><path class="st0" d="M21.941,13.57l-1.065-3.28c0,0.001,0.001,0.003,0.001,0.004c-0.001-0.002-0.001-0.003-0.001-0.005c0,0,0,0,0,0
	c0,0,0,0,0,0L18.762,3.78c-0.116-0.343-0.434-0.573-0.799-0.57c-0.366,0.002-0.675,0.228-0.789,0.575l-2.007,6.178H8.836
	l-2.01-6.178C6.712,3.438,6.403,3.212,6.037,3.21c-0.001,0-0.003,0-0.004,0c-0.36,0-0.679,0.229-0.796,0.575l-2.108,6.503l0,0.001
	c0,0,0,0,0,0c-0.001,0.002-0.001,0.003-0.001,0.005c0-0.001,0.001-0.003,0.001-0.004l-1.069,3.28
	c-0.161,0.495,0.014,1.033,0.434,1.339l9.229,6.706c0.001,0.001,0.003,0.002,0.004,0.003c0.004,0.003,0.008,0.006,0.012,0.008
	c-0.004-0.003-0.007-0.005-0.011-0.008c0,0,0,0,0,0c0.001,0,0.001,0.001,0.002,0.001c0.001,0,0.001,0.001,0.002,0.001c0,0,0,0,0,0
	c0.014,0.01,0.029,0.019,0.044,0.027c0.002,0.001,0.004,0.003,0.006,0.004c0,0,0,0,0,0c0.001,0.001,0.002,0.001,0.004,0.002
	c0.001,0,0.002,0.001,0.003,0.001c0.001,0,0.001,0.001,0.002,0.001c0.002,0.001,0.004,0.001,0.005,0.002
	c0.008,0.004,0.016,0.007,0.025,0.01c0.008,0.003,0.015,0.007,0.023,0.01c0,0,0.001,0,0.001,0c0.001,0,0.002,0.001,0.004,0.002
	c0.002,0.001,0.003,0.001,0.005,0.002c0.001,0,0.001,0,0.002,0c0.002,0.001,0.004,0.001,0.006,0.002c0.001,0,0.002,0,0.002,0.001
	c0.011,0.003,0.023,0.006,0.034,0.008c0.004,0.001,0.009,0.002,0.013,0.003c0.001,0,0.001,0,0.002,0
	c0.001,0,0.003,0.001,0.004,0.001c0.002,0,0.005,0.001,0.007,0.002c0.002,0,0.004,0,0.006,0c0,0,0.001,0,0.001,0c0,0,0,0,0,0
	c0.022,0.003,0.044,0.005,0.066,0.005c0,0,0,0,0,0l0,0c0,0,0,0,0,0h0c0,0,0,0,0,0c0.023,0,0.045-0.002,0.066-0.005c0,0,0,0,0,0
	c0,0,0.001,0,0.001,0c0.002,0,0.004,0,0.006,0c0.002,0,0.005-0.001,0.007-0.002c0.001,0,0.003-0.001,0.004-0.001
	c0.001,0,0.001,0,0.002,0c0.005-0.001,0.009-0.002,0.014-0.003c0.011-0.002,0.023-0.005,0.034-0.008c0.001,0,0.002,0,0.002-0.001
	c0.002-0.001,0.004-0.001,0.007-0.002c0.001,0,0.001,0,0.002,0c0.002-0.001,0.003-0.001,0.005-0.002
	c0.001,0,0.002-0.001,0.004-0.002c0,0,0.001,0,0.001,0c0.008-0.003,0.016-0.007,0.024-0.01c0.008-0.003,0.015-0.006,0.023-0.01
	c0.002-0.001,0.004-0.001,0.006-0.002c0.001,0,0.002-0.001,0.002-0.001c0.001,0,0.002-0.001,0.003-0.001
	c0.001-0.001,0.003-0.002,0.004-0.002c0,0,0,0,0,0c0.002-0.001,0.004-0.003,0.006-0.004c0.015-0.008,0.03-0.017,0.044-0.027
	c0.001-0.001,0.002-0.001,0.004-0.002c0,0,0.001,0,0.001-0.001c0.001-0.001,0.003-0.002,0.004-0.003l9.23-6.706
	C21.927,14.603,22.102,14.065,21.941,13.57z M17.969,4.39l1.81,5.573h-3.62L17.969,4.39z M19.462,10.906l-0.739,0.946l-5.448,6.98
	l2.577-7.927L19.462,10.906L19.462,10.906z M11.551,21.379L11.551,21.379c0,0.001,0.001,0.003,0.002,0.004
	C11.553,21.382,11.552,21.38,11.551,21.379z M10.725,18.833l-6.183-7.927l0,0h3.61L10.725,18.833z M6.031,4.39l1.814,5.573h-3.62
	L6.031,4.39z M3.048,14.147c-0.089-0.065-0.127-0.18-0.092-0.285l0.795-2.438l5.822,7.464L3.048,14.147z M11.706,21.602
	c-0.002-0.001-0.004-0.003-0.005-0.005c0,0-0.001-0.001-0.001-0.001c-0.004-0.003-0.007-0.006-0.01-0.009
	c-0.007-0.006-0.013-0.012-0.02-0.018c0.001,0,0.001,0.001,0.002,0.001c0.001,0.001,0.001,0.001,0.002,0.002
	c0.014,0.013,0.028,0.025,0.043,0.036c0,0,0,0,0,0c0.001,0.001,0.001,0.001,0.002,0.002C11.714,21.608,11.71,21.605,11.706,21.602z
	 M12,19.708l-1.514-4.665l-1.343-4.138h5.719L12,19.708z M12.31,21.587c-0.004,0.003-0.007,0.006-0.011,0.009
	c0,0-0.001,0.001-0.001,0.001c-0.002,0.001-0.004,0.003-0.005,0.005c-0.004,0.003-0.008,0.006-0.012,0.009
	c0.001-0.001,0.001-0.001,0.002-0.002c0,0,0,0,0,0c0.015-0.011,0.029-0.023,0.042-0.036c0.001-0.001,0.001-0.001,0.002-0.001
	c0.001-0.001,0.001-0.001,0.002-0.002C12.323,21.576,12.316,21.582,12.31,21.587z M20.953,14.146l-6.523,4.739l5.824-7.462
	l0.791,2.437C21.079,13.967,21.042,14.082,20.953,14.146z"/></svg>
