<?xml version="1.0" encoding="UTF-8"?><!DOCTYPE svg PUBLIC "-//W3C//DTD SVG 1.1//EN" "http://www.w3.org/Graphics/SVG/1.1/DTD/svg11.dtd"><svg xmlns="http://www.w3.org/2000/svg" xmlns:xlink="http://www.w3.org/1999/xlink" version="1.1" width="24" height="24" viewBox="0 0 24 24"><path d="M14.5,12c0.8,0,1.5-0.7,1.5-1.5S15.3,9,14.5,9S13,9.7,13,10.5S13.7,12,14.5,12 M8.5,12c0.8,0,1.5-0.7,1.5-1.5S9.3,9,8.5,9
	S7,9.7,7,10.5S7.7,12,8.5,12 M18.97,11.915C18.985,12.108,19,12.302,19,12.5c0,4.135-3.365,7.5-7.5,7.5S4,16.635,4,12.5
	S7.365,5,11.5,5c0.198,0,0.392,0.015,0.585,0.03c0.113-0.693,0.339-1.346,0.668-1.938C12.342,3.038,11.926,3,11.5,3
	C6.253,3,2,7.253,2,12.5S6.253,22,11.5,22s9.5-4.253,9.5-9.5c0-0.426-0.038-0.842-0.092-1.253
	C20.317,11.575,19.663,11.802,18.97,11.915z M17,2h2v3h3v2h-3v3h-2V7h-3V5h3V2z M6.381,14.5c0.8,2.047,2.788,3.5,5.119,3.5
	s4.319-1.453,5.119-3.5H6.381z"/></svg>