<?xml version="1.0" encoding="UTF-8"?><!DOCTYPE svg PUBLIC "-//W3C//DTD SVG 1.1//EN" "http://www.w3.org/Graphics/SVG/1.1/DTD/svg11.dtd"><svg xmlns="http://www.w3.org/2000/svg" xmlns:xlink="http://www.w3.org/1999/xlink" version="1.1" width="24" height="24" viewBox="0 0 24 24"><path d="M11.8,6c0.1,0.1,0.2,0.3,0.3,0.4c0.4,0.6,1.1,1.3,2.1,2.2c0.8,0.7,1.4,1.3,1.7,1.7c0.5,0.6,0.9,1.2,1.2,1.8
	c0.3,0.7,0.4,1.6,0.4,2.4c0,1-0.2,1.9-0.7,2.7c-0.5,0.9-1.2,1.5-2,2C13.9,19.8,13,20,12,20s-1.9-0.2-2.7-0.7c-0.9-0.5-1.5-1.2-2-2
	s-0.7-1.7-0.7-2.7c0-0.9,0.2-1.7,0.6-2.5c0,0,0-0.1,0.1-0.1v1.4c0,1,0.4,1.9,1,2.5c0.7,0.7,1.6,1,2.5,1s1.9-0.4,2.5-1
	c0.7-0.7,1-1.6,1-2.5c0-0.6-0.2-1.2-0.5-1.8c-0.1-0.3-0.3-0.7-0.7-1.3c-0.6-1-0.9-1.6-1.1-1.9c-0.2-0.7-0.3-1.3-0.3-2
	C11.8,6.2,11.8,6.1,11.8,6 M12,2h-0.1c-0.3,0-0.5,0.2-0.7,0.4c-0.8,1.3-1.3,2.5-1.4,3.7C9.7,7.1,9.9,8,10.2,9
	c0.2,0.5,0.6,1.3,1.2,2.2c0.3,0.5,0.5,0.9,0.6,1.1c0.2,0.3,0.3,0.6,0.3,0.9c0,0.4-0.1,0.8-0.4,1.1c-0.3,0.3-0.7,0.4-1.1,0.4
	s-0.8-0.1-1.1-0.4c-0.3-0.3-0.4-0.7-0.4-1.1V9.1c0-0.4-0.2-0.6-0.5-0.8C8.5,8.2,8.4,8.2,8.2,8.2s-0.3,0-0.5,0.1
	C6.7,9,5.9,9.9,5.4,11c-0.6,1.1-0.9,2.3-0.9,3.5c0,1.4,0.3,2.6,1,3.7s1.6,2.1,2.7,2.7s2.4,1,3.8,1s2.6-0.3,3.8-1s2.1-1.6,2.7-2.7
	c0.7-1.1,1-2.4,1-3.7c0-1.1-0.2-2.2-0.6-3.2c-0.3-0.8-0.8-1.5-1.5-2.3c-0.4-0.4-1-1.1-1.8-1.8c-0.9-0.8-1.5-1.5-1.8-1.9
	C13.3,4.5,13,3.8,13,3c0-0.3-0.1-0.5-0.3-0.7C12.4,2.1,12.2,2,12,2L12,2z"/></svg>