<?xml version="1.0" encoding="UTF-8"?><!DOCTYPE svg PUBLIC "-//W3C//DTD SVG 1.1//EN" "http://www.w3.org/Graphics/SVG/1.1/DTD/svg11.dtd"><svg xmlns="http://www.w3.org/2000/svg" xmlns:xlink="http://www.w3.org/1999/xlink" version="1.1" width="24" height="24" viewBox="0 0 24 24"><path d="M7.2,18.4H5.8c-0.4,0-0.7-0.1-1-0.4c-0.3-0.3-0.4-0.6-0.4-1s0.1-0.7,0.4-1c0.3-0.3,0.6-0.4,1-0.4h1.3c0.4,0,0.7-0.1,1-0.4
	c0.3-0.3,0.4-0.6,0.4-0.9v-2.8c0-0.4-0.1-0.7-0.4-1c-0.3-0.2-0.6-0.4-0.9-0.4c-0.4,0-0.7,0.1-1,0.4c-0.3,0.3-0.4,0.6-0.4,1
	c0,0.3,0.1,0.6,0.3,0.9l0,0c0.2,0.3,0.3,0.6,0.3,0.9c0,0.4-0.1,0.7-0.4,1s-0.6,0.4-1,0.4c-0.6,0-1.1-0.4-1.5-1.2
	c-0.4-0.7-0.5-1.3-0.5-2c0-1.1,0.4-2.1,1.2-2.9C5.1,7.8,6,7.4,7.1,7.4S9.2,7.8,10,8.6s1.2,1.8,1.2,2.9v2.8c0,1.1-0.4,2.1-1.2,2.9
	C9.2,18,8.3,18.4,7.2,18.4z M22,11.9c0,0.3-0.1,0.6-0.4,0.9c-0.2,0.2-0.5,0.4-0.9,0.4H19v1.2c0,0.3-0.1,0.6-0.4,0.9
	c-0.2,0.2-0.5,0.4-0.9,0.4c-0.3,0-0.6-0.1-0.9-0.4c-0.2-0.2-0.4-0.5-0.4-0.9v-5c0-1,0.4-1.9,1.1-2.7c0.7-0.7,1.6-1.1,2.6-1.1h0.5
	c0.3,0,0.6,0.1,0.9,0.4C21.9,6.3,22,6.6,22,6.9s-0.1,0.6-0.4,0.9c-0.2,0.2-0.5,0.4-0.9,0.4h-0.5c-0.3,0-0.6,0.1-0.9,0.4
	c-0.2,0.2-0.4,0.5-0.4,0.9v1.3h1.7c0.3,0,0.6,0.1,0.9,0.4C21.9,11.3,22,11.6,22,11.9z M15.3,14.4c0,0.3-0.1,0.6-0.4,0.9
	c-0.2,0.2-0.5,0.4-0.9,0.4c-0.3,0-0.6-0.1-0.9-0.4c-0.2-0.2-0.4-0.5-0.4-0.9v-4.1c0-0.3,0.1-0.6,0.4-0.9C13.3,9.2,13.6,9,14,9
	c0.3,0,0.6,0.1,0.9,0.4c0.2,0.2,0.4,0.5,0.4,0.9V14.4z M2.3,8.9C2.1,8.1,2,7.4,2,7.4C2,7.2,2.1,7,2.3,7.1c0,0,0.2,0,0.4,0.1
	c0.3,0,0.6,0.1,0.9,0.2c0.6,0.1,1.1,0.3,1.1,0.3S4.1,8.1,3.6,8.6C3.1,9.2,2.8,10,2.8,10S2.5,9.6,2.3,8.9z M12.1,8.9
	c0.2-0.7,0.3-1.5,0.3-1.5c0-0.2-0.1-0.3-0.3-0.3c0,0-0.7,0.1-1.3,0.3c-0.5,0.1-1.1,0.3-1.1,0.3s0.6,0.4,1.1,0.9
	c0.5,0.6,0.8,1.4,0.8,1.4S11.9,9.6,12.1,8.9z M15.3,6.9c0,0.3-0.1,0.6-0.4,0.9C14.7,8,14.4,8.2,14,8.2c-0.3,0-0.6-0.1-0.9-0.4
	c-0.2-0.2-0.4-0.5-0.4-0.9c0-0.3,0.1-0.6,0.4-0.9c0.2-0.2,0.5-0.4,0.9-0.4c0.3,0,0.6,0.1,0.9,0.4S15.3,6.5,15.3,6.9z"/></svg>