<?xml version="1.0" encoding="UTF-8"?><!DOCTYPE svg PUBLIC "-//W3C//DTD SVG 1.1//EN" "http://www.w3.org/Graphics/SVG/1.1/DTD/svg11.dtd"><svg xmlns="http://www.w3.org/2000/svg" xmlns:xlink="http://www.w3.org/1999/xlink" version="1.1" width="24" height="24" viewBox="0 0 24 24"><path d="M12,2C6.5,2,2,6.5,2,12s4.5,10,10,10s10-4.5,10-10S17.5,2,12,2z M20,12.5c-0.3,0.4-1.7,1.2-4,1.6c0-0.7,0-1.4,0-2.1
	c0-0.5,0-0.9,0-1.3c1.2-0.2,2.4-0.5,3.3-0.9c0.1-0.1,0.3-0.1,0.4-0.2c0.2,0.7,0.3,1.6,0.3,2.4C20,12.2,20,12.3,20,12.5L20,12.5z
	 M10.5,16.4c0.5,0,1,0.1,1.5,0.1s1,0,1.5-0.1c-0.5,2-1.1,3.2-1.5,3.5C11.6,19.6,10.9,18.4,10.5,16.4z M12,14.5c-0.7,0-1.3,0-1.9-0.1
	c0-0.7-0.1-1.5-0.1-2.4c0-0.4,0-0.7,0-1.1c0.7,0.1,1.3,0.1,2,0.1s1.3,0,2-0.1c0,0.4,0,0.7,0,1.1c0,0.9-0.1,1.7-0.1,2.4
	C13.3,14.5,12.7,14.5,12,14.5z M13.8,8.9C13.2,9,12.6,9,12,9s-1.2,0-1.8-0.1C10.6,6.1,11.5,4.4,12,4C12.5,4.4,13.4,6.1,13.8,8.9z
	 M18.8,7.8c-0.7,0.3-1.7,0.7-3,0.9c-0.2-1.6-0.6-3.1-1.1-4.2C16.4,5.1,17.8,6.2,18.8,7.8z M5.2,7.8c1-1.5,2.4-2.7,4.2-3.3
	C8.9,5.6,8.5,7,8.2,8.7C6.9,8.4,5.9,8.1,5.2,7.8L5.2,7.8z M4.4,9.6c0.1,0.1,0.2,0.1,0.4,0.2c0.9,0.4,2,0.7,3.3,0.9
	C8,11.1,8,11.5,8,12c0,0.7,0,1.4,0.1,2.1c-2.3-0.4-3.7-1.2-4-1.6l0,0c0-0.2,0-0.3,0-0.5C4,11.2,4.1,10.3,4.4,9.6z M4.7,15.2
	c1,0.4,2.3,0.8,3.7,1c0.2,1.3,0.6,2.4,1,3.3C7.3,18.8,5.6,17.2,4.7,15.2z M19.3,15.2c-0.9,2-2.6,3.6-4.7,4.3c0.4-0.9,0.8-2,1-3.3
	C17,16,18.3,15.7,19.3,15.2L19.3,15.2z"/></svg>