<?xml version="1.0" encoding="UTF-8"?><!DOCTYPE svg PUBLIC "-//W3C//DTD SVG 1.1//EN" "http://www.w3.org/Graphics/SVG/1.1/DTD/svg11.dtd"><svg xmlns="http://www.w3.org/2000/svg" xmlns:xlink="http://www.w3.org/1999/xlink" version="1.1" width="24" height="24" viewBox="0 0 24 24"><path d="M18,19v-9l-6-4.5L6,10v9H18z M4,20V9.5c0-0.315,0.148-0.611,0.4-0.8l7-5.25c0.356-0.267,0.844-0.267,1.2,0l7,5.25
	C19.852,8.889,20,9.185,20,9.5V20c0,0.552-0.448,1-1,1H5C4.448,21,4,20.552,4,20z M13.25,14h-2.5C10.336,14,10,14.336,10,14.75V19h4
	v-4.25C14,14.336,13.664,14,13.25,14z"/></svg>
