<?xml version="1.0" encoding="UTF-8"?><!DOCTYPE svg PUBLIC "-//W3C//DTD SVG 1.1//EN" "http://www.w3.org/Graphics/SVG/1.1/DTD/svg11.dtd"><svg xmlns="http://www.w3.org/2000/svg" xmlns:xlink="http://www.w3.org/1999/xlink" version="1.1" width="24" height="24" viewBox="0 0 24 24"><path d="M18,2H9.949C9.552,2,9.178,2.154,8.895,2.432l-4.449,4.39l0,0C4.163,7.103,4,7.492,4,7.89V20c0,1.103,0.897,2,2,2h12
	c1.103,0,2-0.897,2-2V4C20,2.897,19.103,2,18,2z M9,3.734V7.5H5.184L9,3.734z M19,20c0,0.551-0.449,1-1,1h-2v-0.1
	c0-0.221-0.179-0.4-0.4-0.4h-0.7c-0.221,0-0.4,0.179-0.4,0.4V21H6c-0.552,0-1-0.449-1-1V8.5h4c0.552,0,1-0.448,1-1V3h8
	c0.551,0,1,0.448,1,1V20z M15.5,6h-2C13.224,6,13,6.224,13,6.5V9c0,0.552,0.448,1,1,1h1c0.552,0,1-0.448,1-1V6.5
	C16,6.224,15.776,6,15.5,6z M15,7.75C15,7.888,14.888,8,14.75,8h-0.5C14.112,8,14,7.888,14,7.75V7.125C14,7.056,14.056,7,14.125,7
	h0.75C14.944,7,15,7.056,15,7.125V7.75z M15.6,10.5h-0.7c-0.221,0-0.4,0.179-0.4,0.4v0.2c0,0.221,0.179,0.4,0.4,0.4h0.7
	c0.221,0,0.4-0.179,0.4-0.4v-0.2C16,10.679,15.821,10.5,15.6,10.5z M13.4,12.5h0.7c0.221,0,0.4-0.179,0.4-0.4v-0.2
	c0-0.221-0.179-0.4-0.4-0.4h-0.7c-0.221,0-0.4,0.179-0.4,0.4v0.2C13,12.321,13.179,12.5,13.4,12.5z M15.6,12.5h-0.7
	c-0.221,0-0.4,0.179-0.4,0.4v0.2c0,0.221,0.179,0.4,0.4,0.4h0.7c0.221,0,0.4-0.179,0.4-0.4v-0.2C16,12.679,15.821,12.5,15.6,12.5z
	 M13.4,14.5h0.7c0.221,0,0.4-0.179,0.4-0.4v-0.2c0-0.221-0.179-0.4-0.4-0.4h-0.7c-0.221,0-0.4,0.179-0.4,0.4v0.2
	C13,14.321,13.179,14.5,13.4,14.5z M15.6,14.5h-0.7c-0.221,0-0.4,0.179-0.4,0.4v0.2c0,0.221,0.179,0.4,0.4,0.4h0.7
	c0.221,0,0.4-0.179,0.4-0.4v-0.2C16,14.679,15.821,14.5,15.6,14.5z M13.4,16.5h0.7c0.221,0,0.4-0.179,0.4-0.4v-0.2
	c0-0.221-0.179-0.4-0.4-0.4h-0.7c-0.221,0-0.4,0.179-0.4,0.4v0.2C13,16.321,13.179,16.5,13.4,16.5z M15.6,16.5h-0.7
	c-0.221,0-0.4,0.179-0.4,0.4v0.2c0,0.221,0.179,0.4,0.4,0.4h0.7c0.221,0,0.4-0.179,0.4-0.4v-0.2C16,16.679,15.821,16.5,15.6,16.5z
	 M13.4,18.5h0.7c0.221,0,0.4-0.179,0.4-0.4v-0.2c0-0.221-0.179-0.4-0.4-0.4h-0.7c-0.221,0-0.4,0.179-0.4,0.4v0.2
	C13,18.321,13.179,18.5,13.4,18.5z M15.6,18.5h-0.7c-0.221,0-0.4,0.179-0.4,0.4v0.2c0,0.221,0.179,0.4,0.4,0.4h0.7
	c0.221,0,0.4-0.179,0.4-0.4v-0.2C16,18.679,15.821,18.5,15.6,18.5z M14.1,19.5h-0.7c-0.221,0-0.4,0.179-0.4,0.4v0.2
	c0,0.221,0.179,0.4,0.4,0.4h0.7c0.221,0,0.4-0.179,0.4-0.4v-0.2C14.5,19.679,14.321,19.5,14.1,19.5z"/></svg>