<?xml version="1.0" encoding="UTF-8"?><!DOCTYPE svg PUBLIC "-//W3C//DTD SVG 1.1//EN" "http://www.w3.org/Graphics/SVG/1.1/DTD/svg11.dtd"><svg xmlns="http://www.w3.org/2000/svg" xmlns:xlink="http://www.w3.org/1999/xlink" version="1.1" width="24" height="24" viewBox="0 0 24 24"><path d="M18,2H9.949C9.552,2,9.178,2.154,8.895,2.432l-4.449,4.39l0,0C4.163,7.103,4,7.492,4,7.89V20c0,1.103,0.897,2,2,2h12
	c1.103,0,2-0.897,2-2V4C20,2.897,19.103,2,18,2z M9,3.734V7.5H5.184L9,3.734z M19,20c0,0.551-0.449,1-1,1H6c-0.552,0-1-0.449-1-1
	V8.5h4c0.552,0,1-0.448,1-1V3h8c0.551,0,1,0.448,1,1V20z M15.5,14.441l-5.595-2.798c-0.196-0.098-0.423-0.087-0.609,0.028
	C9.111,11.785,9,11.984,9,12.202v5.596c0,0.218,0.111,0.417,0.296,0.532c0.101,0.062,0.215,0.094,0.328,0.094
	c0.095,0,0.191-0.022,0.28-0.066l5.594-2.797c0.214-0.106,0.347-0.321,0.347-0.56S15.713,14.547,15.5,14.441z M10,17.191v-4.382
	L14.382,15L10,17.191z"/></svg>