<?xml version="1.0" encoding="UTF-8"?><!DOCTYPE svg PUBLIC "-//W3C//DTD SVG 1.1//EN" "http://www.w3.org/Graphics/SVG/1.1/DTD/svg11.dtd"><svg xmlns="http://www.w3.org/2000/svg" xmlns:xlink="http://www.w3.org/1999/xlink" version="1.1" width="24" height="24" viewBox="0 0 24 24"><path d="M18,2H9.949C9.552,2,9.178,2.154,8.895,2.432l-4.449,4.39l0,0C4.163,7.103,4,7.492,4,7.89V20c0,1.103,0.897,2,2,2h12
	c1.103,0,2-0.897,2-2V4C20,2.897,19.103,2,18,2z M9,3.734V7.5H5.184L9,3.734z M19,20c0,0.551-0.449,1-1,1H6c-0.552,0-1-0.449-1-1
	V8.5h4c0.552,0,1-0.448,1-1V3h8c0.551,0,1,0.448,1,1V20z M15.49,14.083c-0.45-0.291-1.175-0.348-2.024-0.222
	c-0.246-0.184-0.489-0.393-0.722-0.624c-0.047-0.047-0.092-0.095-0.136-0.144c0.305-1.15,0.364-2.069,0.016-2.608
	c-0.194-0.302-0.51-0.478-0.868-0.485h-0.012c-0.476,0-0.869,0.294-1.063,0.761c-0.291,0.697-0.139,1.701,0.395,2.594
	c-0.074,0.224-0.151,0.429-0.227,0.601l-0.093,0.214c-0.161,0.372-0.252,0.577-0.359,0.799c-1.646,0.82-2.442,1.457-2.396,2.137
	c0.026,0.372,0.275,0.696,0.754,0.833C8.896,17.98,9.038,18,9.178,18c0.9,0,1.596-0.725,2.257-1.981
	c0.263-0.126,0.544-0.255,0.843-0.386c0.276-0.121,0.579-0.22,0.889-0.295c0.883,0.551,1.682,0.798,2.235,0.57
	C15.777,15.755,16,15.407,16,14.995C16,14.621,15.812,14.291,15.49,14.083z M10.375,16.168C9.907,16.9,9.45,17.267,8.987,17.134
	L8.96,17.125l-0.026-0.009l-0.128-0.048l0.072-0.116c0.122-0.195,0.581-0.517,1.275-0.901l0.075-0.041l0.38-0.207L10.375,16.168z
	 M11.459,11.082c0.062-0.152,0.155-0.241,0.281-0.243h0.005c0.074,0.002,0.128,0.032,0.172,0.1c0.165,0.255,0.127,0.873-0.059,1.682
	l-0.072,0.313l-0.137-0.29C11.372,12.055,11.309,11.442,11.459,11.082z M12.742,14.583c-0.28,0.077-0.553,0.173-0.802,0.282
	c-0.175,0.077-0.292,0.129-0.402,0.179l-0.041,0.019l-0.267,0.122l0.12-0.268c0.047-0.105,0.093-0.211,0.143-0.326l0.038-0.088
	l0.09-0.209c0.059-0.137,0.114-0.277,0.164-0.417l0.049-0.141l0.059-0.176l0.127,0.135c0.054,0.058,0.092,0.097,0.131,0.136
	c0.16,0.158,0.326,0.309,0.5,0.452l0.131,0.106l0.173,0.136L12.742,14.583z M15.156,15.082l-0.043,0.033
	c-0.149,0.113-0.555,0.014-1.049-0.231l-0.057-0.029l-0.365-0.187l0.41-0.023c0.444-0.025,0.797,0.022,0.98,0.142
	c0.088,0.057,0.121,0.118,0.125,0.21v0.032L15.156,15.082z"/></svg>