<?xml version="1.0" encoding="UTF-8"?><!DOCTYPE svg PUBLIC "-//W3C//DTD SVG 1.1//EN" "http://www.w3.org/Graphics/SVG/1.1/DTD/svg11.dtd"><svg xmlns="http://www.w3.org/2000/svg" xmlns:xlink="http://www.w3.org/1999/xlink" version="1.1" width="24" height="24" viewBox="0 0 24 24"><path d="M18,2H9.949C9.552,2,9.178,2.154,8.895,2.432l-4.449,4.39l0,0C4.163,7.103,4,7.492,4,7.89V20c0,1.103,0.897,2,2,2h12
	c1.103,0,2-0.897,2-2V4C20,2.897,19.103,2,18,2z M9,3.734V7.5H5.184L9,3.734z M19,20c0,0.551-0.449,1-1,1H6c-0.552,0-1-0.449-1-1
	V8.5h4c0.552,0,1-0.448,1-1V3h8c0.551,0,1,0.448,1,1V20z M14.207,10.207c-0.391-0.391-1.024-0.391-1.414,0l-4.95,4.95
	c-0.391,0.391-0.391,1.024,0,1.414l2.121,2.121c0.391,0.39,1.024,0.39,1.414,0l4.95-4.95c0.391-0.391,0.391-1.024,0-1.414
	L14.207,10.207z M11.644,13.124c0.195-0.195,0.512-0.195,0.707,0s0.195,0.512,0,0.707s-0.512,0.195-0.707,0
	S11.449,13.319,11.644,13.124z M10.76,14.008c0.195-0.195,0.512-0.195,0.707,0s0.195,0.512,0,0.707s-0.512,0.195-0.707,0
	S10.565,14.203,10.76,14.008z M10.672,17.985L8.55,15.864l1.414-1.414l2.121,2.121L10.672,17.985z M12.528,15.776
	c-0.195,0.195-0.512,0.195-0.707,0s-0.195-0.512,0-0.707s0.512-0.195,0.707,0S12.723,15.58,12.528,15.776z M13.412,14.892
	c-0.195,0.195-0.512,0.195-0.707,0s-0.195-0.512,0-0.707s0.512-0.195,0.707,0C13.607,14.38,13.607,14.696,13.412,14.892z
	 M14.207,14.45l-2.121-2.121l1.414-1.415l2.121,2.121L14.207,14.45z"/></svg>