<?xml version="1.0" encoding="UTF-8"?><!DOCTYPE svg PUBLIC "-//W3C//DTD SVG 1.1//EN" "http://www.w3.org/Graphics/SVG/1.1/DTD/svg11.dtd"><svg xmlns="http://www.w3.org/2000/svg" xmlns:xlink="http://www.w3.org/1999/xlink" version="1.1" width="24" height="24" viewBox="0 0 24 24"><path d="M18,2H9.949C9.552,2,9.178,2.154,8.895,2.432l-4.449,4.39l0,0C4.163,7.103,4,7.492,4,7.89V20c0,1.103,0.897,2,2,2h12
	c1.103,0,2-0.897,2-2V4C20,2.897,19.103,2,18,2z M9,3.734V7.5H5.184L9,3.734z M19,20c0,0.551-0.449,1-1,1H6c-0.552,0-1-0.449-1-1
	V8.5h4c0.552,0,1-0.448,1-1V3h8c0.551,0,1,0.448,1,1V20z M12.349,11.5H10.5v6h1.228v-2.134h0.527c0.718,0,1.272-0.171,1.661-0.513
	c0.389-0.342,0.584-0.836,0.584-1.482c0-0.621-0.183-1.088-0.548-1.401C13.586,11.657,13.052,11.5,12.349,11.5z M12.979,14.092
	c-0.187,0.155-0.47,0.232-0.847,0.232h-0.404v-1.781h0.558c0.335,0,0.581,0.071,0.739,0.213c0.157,0.142,0.236,0.363,0.236,0.661
	C13.26,13.712,13.167,13.937,12.979,14.092z"/></svg>