<?xml version="1.0" encoding="UTF-8"?><!DOCTYPE svg PUBLIC "-//W3C//DTD SVG 1.1//EN" "http://www.w3.org/Graphics/SVG/1.1/DTD/svg11.dtd"><svg xmlns="http://www.w3.org/2000/svg" xmlns:xlink="http://www.w3.org/1999/xlink" version="1.1" width="24" height="24" viewBox="0 0 24 24"><path d="M18,2H9.949C9.552,2,9.178,2.154,8.895,2.432l-4.449,4.39l0,0C4.163,7.103,4,7.492,4,7.89V20c0,1.103,0.897,2,2,2h12
	c1.103,0,2-0.897,2-2V4C20,2.897,19.103,2,18,2z M9,3.734V7.5H5.184L9,3.734z M19,20c0,0.551-0.449,1-1,1H6c-0.552,0-1-0.449-1-1
	V8.5h4c0.552,0,1-0.448,1-1V3h8c0.551,0,1,0.448,1,1V20z M15.111,13.976c-0.098-0.098-0.256-0.098-0.354,0l-2.961,2.961
	c-0.209,0.209-0.453,0.349-0.734,0.422c-0.283,0.074-0.564,0.074-0.847,0c-0.281-0.073-0.525-0.213-0.734-0.422
	s-0.349-0.453-0.422-0.734c-0.074-0.283-0.074-0.564,0-0.847c0.073-0.281,0.213-0.525,0.422-0.734l3.341-3.341
	c0.124-0.124,0.266-0.204,0.426-0.243l0.002-0.001c0.169-0.044,0.335-0.046,0.498-0.006c0.166,0.044,0.31,0.126,0.434,0.25
	s0.204,0.266,0.243,0.426l0.001,0.002c0.044,0.168,0.044,0.335,0,0.503l-0.001,0.002c-0.039,0.161-0.119,0.302-0.243,0.426
	l-3.022,3.024c-0.058,0.058-0.125,0.086-0.21,0.086c-0.073,0-0.136-0.025-0.197-0.086c-0.059-0.059-0.088-0.125-0.092-0.203
	c0.004-0.078,0.033-0.144,0.092-0.203l2.643-2.643c0.098-0.098,0.098-0.256,0-0.354l-0.354-0.354c-0.098-0.098-0.256-0.098-0.354,0
	l-2.642,2.643c-0.164,0.164-0.277,0.36-0.335,0.583L9.71,15.136c-0.053,0.216-0.053,0.434,0,0.65l0.001,0.002
	c0.058,0.223,0.171,0.419,0.335,0.583c0.164,0.164,0.357,0.275,0.578,0.329c0.22,0.057,0.44,0.06,0.658,0.007l0.002-0.001
	c0.223-0.058,0.419-0.171,0.583-0.335l3.023-3.023c0.253-0.253,0.423-0.548,0.507-0.883c0.087-0.336,0.087-0.674,0-1.01
	c-0.088-0.338-0.258-0.633-0.507-0.882s-0.544-0.419-0.882-0.507c-0.336-0.088-0.674-0.088-1.01,0
	c-0.335,0.084-0.63,0.254-0.883,0.507l-3.341,3.341c-0.338,0.338-0.567,0.735-0.685,1.188c-0.117,0.451-0.117,0.904,0,1.355
	c0.118,0.453,0.347,0.85,0.685,1.188c0.338,0.338,0.735,0.567,1.188,0.685c0.451,0.117,0.903,0.117,1.355,0
	c0.453-0.118,0.85-0.347,1.188-0.685l2.961-2.961c0.098-0.098,0.098-0.256,0-0.354L15.111,13.976z"/></svg>