<?xml version="1.0" encoding="utf-8"?>
<!-- Generator: Adobe Illustrator 25.2.2, SVG Export Plug-In . SVG Version: 6.00 Build 0)  -->
<svg version="1.1" id="Layer_1" xmlns="http://www.w3.org/2000/svg" xmlns:xlink="http://www.w3.org/1999/xlink" x="0px" y="0px"
	 viewBox="0 0 24 24" style="enable-background:new 0 0 24 24;" xml:space="preserve">
<path d="M17.444,6.605C17.84,7,18.038,7.461,18.038,7.987s-0.198,0.987-0.594,1.382c-0.396,0.395-0.858,0.592-1.386,0.592
	s-0.99-0.197-1.386-0.592c-0.396-0.395-0.594-0.855-0.594-1.382S14.276,7,14.672,6.605c0.396-0.395,0.858-0.592,1.386-0.592
	S17.048,6.211,17.444,6.605z M20.282,3.776C19.094,2.592,17.664,2,15.992,2c-1.584,0-2.97,0.592-4.158,1.776
	c-0.924,0.921-1.496,2.018-1.716,3.289c-0.176,1.228,0.022,2.39,0.594,3.487L2,19.237L4.772,22l2.838-2.829L10.448,22l2.772-2.763
	l-2.838-2.829l3.102-3.092c1.1,0.57,2.266,0.768,3.498,0.592c1.276-0.219,2.376-0.789,3.3-1.71c1.188-1.184,1.76-2.588,1.716-4.211
	C22.042,6.364,21.47,4.961,20.282,3.776z"/>
</svg>
