<?xml version="1.0" encoding="UTF-8"?><!DOCTYPE svg PUBLIC "-//W3C//DTD SVG 1.1//EN" "http://www.w3.org/Graphics/SVG/1.1/DTD/svg11.dtd"><svg xmlns="http://www.w3.org/2000/svg" xmlns:xlink="http://www.w3.org/1999/xlink" version="1.1" width="24" height="24" viewBox="0 0 24 24"><path d="M20.224,18.829l-3.775-3.775C17.418,13.791,18,12.215,18,10.5C18,6.358,14.642,3,10.5,3S3,6.358,3,10.5S6.358,18,10.5,18
	c1.708,0,3.278-0.578,4.539-1.539l3.775,3.749c0.39,0.388,1.02,0.388,1.41,0C20.592,19.823,20.592,19.216,20.224,18.829z M5,10.5
	C5,7.462,7.462,5,10.5,5S16,7.462,16,10.5S13.538,16,10.5,16S5,13.538,5,10.5z"/></svg>