<?xml version="1.0" encoding="UTF-8"?><!DOCTYPE svg PUBLIC "-//W3C//DTD SVG 1.1//EN" "http://www.w3.org/Graphics/SVG/1.1/DTD/svg11.dtd"><svg xmlns="http://www.w3.org/2000/svg" xmlns:xlink="http://www.w3.org/1999/xlink" version="1.1" width="24" height="24" viewBox="0 0 24 24"><path d="M16.5,7v9.5c0,2.209-1.791,4-4,4s-4-1.791-4-4V6c0-1.381,1.119-2.5,2.5-2.5s2.5,1.119,2.5,2.5v9.5c0,0.552-0.448,1-1,1
	s-1-0.448-1-1V7H10v8.5c0,1.381,1.119,2.5,2.5,2.5s2.5-1.119,2.5-2.5V6c0-2.209-1.791-4-4-4S7,3.791,7,6v10.5
	c0,3.038,2.462,5.5,5.5,5.5s5.5-2.462,5.5-5.5V7H16.5z"/></svg>