<?xml version="1.0" encoding="UTF-8"?><!DOCTYPE svg PUBLIC "-//W3C//DTD SVG 1.1//EN" "http://www.w3.org/Graphics/SVG/1.1/DTD/svg11.dtd"><svg xmlns="http://www.w3.org/2000/svg" xmlns:xlink="http://www.w3.org/1999/xlink" version="1.1" width="24" height="24" viewBox="0 0 24 24"><path d="M21.7,9.8l-1-1l-6.5-6.5l0,0c-0.4-0.4-1-0.4-1.4,0l0,0c-0.4,0.4-0.4,1,0,1.4L13.1,4L8.7,8.4c-1.7-0.2-3.4,0-5,0.7
	C3.3,9.2,3.1,9.5,3,9.8c0,0.3,0.1,0.7,0.3,0.9L7.6,15l-4.1,4l-1,2.5l2.5-1l4-4l4.2,4.3c0.2,0.2,0.6,0.3,0.9,0.3
	c0.3-0.1,0.6-0.3,0.7-0.6c0.6-1.6,0.9-3.3,0.7-5l4.5-4.6l0.3,0.3c0.4,0.4,1,0.4,1.4,0C22.1,10.8,22.1,10.2,21.7,9.8z"/></svg>