<?xml version="1.0" encoding="UTF-8"?><!DOCTYPE svg PUBLIC "-//W3C//DTD SVG 1.1//EN" "http://www.w3.org/Graphics/SVG/1.1/DTD/svg11.dtd"><svg xmlns="http://www.w3.org/2000/svg" xmlns:xlink="http://www.w3.org/1999/xlink" version="1.1" width="24" height="24" viewBox="0 0 24 24"><path d="M8.5,8.1L8.5,8.1v2l1.9,0.1c2.7,0.1,4.9,1.2,6.7,3.3c-2.1-0.7-4.3-0.8-6.7-0.8h-2v2v0.7l-3.7-3.7L8.5,8.1 M10.3,4
	C10.2,4,10,4,9.8,4.1l-7.7,7.2C2,11.4,2,11.5,2,11.7c0,0.1,0,0.2,0.1,0.3l7.7,7.4c0.1,0.1,0.3,0.1,0.4,0.1c0.1-0.1,0.2-0.2,0.2-0.5
	v-4.4c4.7,0,8.3,0.5,10.8,5.1c0.1,0.1,0.2,0.2,0.3,0.2h0.1c0.2-0.1,0.3-0.3,0.2-0.5c0.1-0.3-0.3-3-2.1-5.8c-2.2-3.5-5.4-5.4-9.3-5.6
	V4.3C10.5,4.1,10.4,4,10.3,4L10.3,4z"/></svg>