<?xml version="1.0" encoding="UTF-8"?><!DOCTYPE svg PUBLIC "-//W3C//DTD SVG 1.1//EN" "http://www.w3.org/Graphics/SVG/1.1/DTD/svg11.dtd"><svg xmlns="http://www.w3.org/2000/svg" xmlns:xlink="http://www.w3.org/1999/xlink" version="1.1" width="24" height="24" viewBox="0 0 24 24"><path d="M3,7V5h18v2H3z M8.4,17H3v2h6.5C9,18.4,8.7,17.7,8.4,17z M8.9,11H3v2h5.2C8.3,12.3,8.5,11.6,8.9,11z M21.6,19.2L20,17.6
	c1.5-2.1,1.3-5.1-0.6-7c-2.1-2.1-5.6-2.1-7.8,0s-2.1,5.6,0,7.8c1.9,1.9,4.9,2.1,7,0.6l1.7,1.7c0.4,0.4,1,0.4,1.4,0
	C22.1,20.3,22.1,19.7,21.6,19.2z M13,17c-1.4-1.4-1.4-3.6,0-4.9c1.4-1.4,3.6-1.4,4.9,0c1.4,1.4,1.4,3.6,0,4.9S14.4,18.3,13,17z"/></svg>
