<?xml version="1.0" encoding="UTF-8"?><!DOCTYPE svg PUBLIC "-//W3C//DTD SVG 1.1//EN" "http://www.w3.org/Graphics/SVG/1.1/DTD/svg11.dtd"><svg xmlns="http://www.w3.org/2000/svg" xmlns:xlink="http://www.w3.org/1999/xlink" version="1.1" width="24" height="24" viewBox="0 0 24 24">
<path d="M17,16.5h-3v2h3v3h2v-3h3v-2h-3v-3h-2V16.5z M6,18v-1h2v1H6z M10,17h2v1h-2V17z M6,6h2v1H6V6z M10,6h5v1h-5V6z M14,22H4
	c-1.1,0-2-0.9-2-2v-5c0-1.1,0.9-2,2-2h10c-0.6,0.6-1.1,1.2-1.5,2H4v5h8.6C12.9,20.8,13.4,21.4,14,22z M4,11h16c1.1,0,2-0.9,2-2V4
	c0-1.1-0.9-2-2-2H4C2.9,2,2,2.9,2,4v5C2,10.1,2.9,11,4,11z M4,4h16v5H4V4z"/>
</svg>
