<?xml version="1.0" encoding="UTF-8"?><!DOCTYPE svg PUBLIC "-//W3C//DTD SVG 1.1//EN" "http://www.w3.org/Graphics/SVG/1.1/DTD/svg11.dtd"><svg xmlns="http://www.w3.org/2000/svg" xmlns:xlink="http://www.w3.org/1999/xlink" version="1.1" width="24" height="24" viewBox="0 0 24 24">
<path d="M8,7V6H6v1H8z M8,17H6v1h2V17z M15,6v1h-5V6H15z M15,17h-5v1h5V17z M22,4c0-1.1-0.9-2-2-2H4C2.9,2,2,2.9,2,4v5
	c0,1.1,0.9,2,2,2h16c1.1,0,2-0.9,2-2V4z M20,4v5H4V4H20z M22,15v5c0,1.1-0.9,2-2,2H4c-1.1,0-2-0.9-2-2v-5c0-1.1,0.9-2,2-2h16
	C21.1,13,22,13.9,22,15z M20,15H4v5h16V15z"/>
</svg>
