<?xml version="1.0" encoding="UTF-8"?><!DOCTYPE svg PUBLIC "-//W3C//DTD SVG 1.1//EN" "http://www.w3.org/Graphics/SVG/1.1/DTD/svg11.dtd"><svg xmlns="http://www.w3.org/2000/svg" xmlns:xlink="http://www.w3.org/1999/xlink" version="1.1" width="24" height="24" viewBox="0 0 24 24"><path d="M19,3H5C3.9,3,3,3.9,3,5v3v7v3c0,1.1,0.9,2,2,2h14c1.1,0,2-0.9,2-2v-3V8V5C21,3.9,20.1,3,19,3z M5,10h14v3H5V10z M19,18H5
	v-3h14V18z M5,8V5h14v3H5z M11,7H7V6h4V7z M15,7h-2V6h2V7z M11,12H7v-1h4V12z M15,12h-2v-1h2V12z M11,17H7v-1h4V17z M15,17h-2v-1h2
	V17z"/></svg>