<?xml version="1.0" encoding="UTF-8"?><!DOCTYPE svg PUBLIC "-//W3C//DTD SVG 1.1//EN" "http://www.w3.org/Graphics/SVG/1.1/DTD/svg11.dtd"><svg xmlns="http://www.w3.org/2000/svg" xmlns:xlink="http://www.w3.org/1999/xlink" version="1.1" width="24" height="24" viewBox="0 0 24 24"><path d="M18,8V6c0-1.105-0.895-2-2-2H4C2.895,4,2,4.895,2,6v12c0,1.105,0.895,2,2,2h12c1.105,0,2-0.895,2-2v-2l2.553,1.276
	C21.218,17.609,22,17.125,22,16.382V7.618c0-0.743-0.782-1.227-1.447-0.894L18,8z M20,14.764l-2-1l-1.276-0.638
	C16.391,12.959,16,13.201,16,13.573V15v3H4V6h12v3v1.427c0,0.372,0.391,0.613,0.724,0.447L18,10.236l2-1V14.764z"/></svg>
