<?xml version="1.0" encoding="UTF-8"?><!DOCTYPE svg PUBLIC "-//W3C//DTD SVG 1.1//EN" "http://www.w3.org/Graphics/SVG/1.1/DTD/svg11.dtd"><svg xmlns="http://www.w3.org/2000/svg" xmlns:xlink="http://www.w3.org/1999/xlink" version="1.1" width="24" height="24" viewBox="0 0 24 24"><path d="M15,6.5v2.6c0,0.6,0.4,1,1,1h0.4c0.4,0,0.8-0.1,1.1-0.3L20,8.1v8l-2.5-1.7c-0.3-0.2-0.7-0.3-1.1-0.3H16c-0.6,0-1,0.4-1,1
	v2.4H4v-11H15 M15,4.5H4c-1.1,0-2,0.9-2,2v11c0,1.1,0.9,2,2,2h11c1.1,0,2-0.9,2-2v-1l1.9,1.3c0.3,0.2,0.7,0.3,1.1,0.3
	c0.3,0,0.6-0.1,0.9-0.2c0.7-0.3,1.1-1,1.1-1.8v-8c0-0.7-0.4-1.4-1.1-1.8c-0.3-0.2-0.6-0.2-0.9-0.2c-0.4,0-0.8,0.1-1.1,0.3L17,7.7
	V6.5C17,5.4,16.1,4.5,15,4.5L15,4.5z"/></svg>